<?xml version="1.0" encoding="UTF-8" standalone="no"?>
<!DOCTYPE svg PUBLIC "-//W3C//DTD SVG 1.1//EN"
 "http://www.w3.org/Graphics/SVG/1.1/DTD/svg11.dtd">
<!-- Generated by graphviz version 2.38.0 (20140413.2041)
 -->
<!-- Title: AttributeInfo.hpp Pages: 1 -->
<svg width="181pt" height="140pt"
 viewBox="0.00 0.00 181.00 140.00" xmlns="http://www.w3.org/2000/svg" xmlns:xlink="http://www.w3.org/1999/xlink">
<g id="graph0" class="graph" transform="scale(1 1) rotate(0) translate(4 136)">
<title>AttributeInfo.hpp</title>
<polygon fill="white" stroke="none" points="-4,4 -4,-136 177,-136 177,4 -4,4"/>
<!-- Node1 -->
<g id="node1" class="node"><title>Node1</title>
<polygon fill="#bfbfbf" stroke="black" points="36.5,-112.5 36.5,-131.5 125.5,-131.5 125.5,-112.5 36.5,-112.5"/>
<text text-anchor="middle" x="81" y="-119.5" font-family="Helvetica,sans-Serif" font-size="10.00">AttributeInfo.hpp</text>
</g>
<!-- Node2 -->
<g id="node2" class="node"><title>Node2</title>
<polygon fill="white" stroke="#bfbfbf" points="0,-0.5 0,-19.5 46,-19.5 46,-0.5 0,-0.5"/>
<text text-anchor="middle" x="23" y="-7.5" font-family="Helvetica,sans-Serif" font-size="10.00">cstdint</text>
</g>
<!-- Node1&#45;&gt;Node2 -->
<g id="edge1" class="edge"><title>Node1&#45;&gt;Node2</title>
<path fill="none" stroke="midnightblue" d="M58.2116,-112.471C42.6739,-105.316 23.2925,-93.4352 14,-76 6.30495,-61.5621 10.0756,-42.8678 14.8696,-29.236"/>
<polygon fill="midnightblue" stroke="midnightblue" points="18.2727,-30.1518 18.7341,-19.567 11.7726,-27.5538 18.2727,-30.1518"/>
</g>
<!-- Node3 -->
<g id="node3" class="node"><title>Node3</title>
<polygon fill="white" stroke="#bfbfbf" points="23,-56.5 23,-75.5 67,-75.5 67,-56.5 23,-56.5"/>
<text text-anchor="middle" x="45" y="-63.5" font-family="Helvetica,sans-Serif" font-size="10.00">vector</text>
</g>
<!-- Node1&#45;&gt;Node3 -->
<g id="edge2" class="edge"><title>Node1&#45;&gt;Node3</title>
<path fill="none" stroke="midnightblue" d="M75.0553,-112.083C70.0227,-104.534 62.6632,-93.4948 56.4865,-84.2298"/>
<polygon fill="midnightblue" stroke="midnightblue" points="59.2933,-82.1301 50.8341,-75.7511 53.4689,-86.0131 59.2933,-82.1301"/>
</g>
<!-- Node4 -->
<g id="node4" class="node"><title>Node4</title>
<polygon fill="white" stroke="#bfbfbf" points="123,-0.5 123,-19.5 173,-19.5 173,-0.5 123,-0.5"/>
<text text-anchor="middle" x="148" y="-7.5" font-family="Helvetica,sans-Serif" font-size="10.00">fstream</text>
</g>
<!-- Node1&#45;&gt;Node4 -->
<g id="edge3" class="edge"><title>Node1&#45;&gt;Node4</title>
<path fill="none" stroke="midnightblue" d="M110.881,-112.387C128.54,-105.587 149.451,-94.15 160,-76 168.363,-61.6111 163.399,-42.6636 157.524,-28.9408"/>
<polygon fill="midnightblue" stroke="midnightblue" points="160.538,-27.1318 153.059,-19.6274 154.226,-30.1578 160.538,-27.1318"/>
</g>
<!-- Node5 -->
<g id="node5" class="node"><title>Node5</title>
<g id="a_node5"><a xlink:href="_cp_info_8hpp.html" target="_top" xlink:title="Declarações das funções e dos atributos do Pool de constantes. ">
<polygon fill="white" stroke="black" points="85.5,-56.5 85.5,-75.5 150.5,-75.5 150.5,-56.5 85.5,-56.5"/>
<text text-anchor="middle" x="118" y="-63.5" font-family="Helvetica,sans-Serif" font-size="10.00">CpInfo.hpp</text>
</a>
</g>
</g>
<!-- Node1&#45;&gt;Node5 -->
<g id="edge4" class="edge"><title>Node1&#45;&gt;Node5</title>
<path fill="none" stroke="midnightblue" d="M87.1098,-112.083C92.2822,-104.534 99.8461,-93.4948 106.194,-84.2298"/>
<polygon fill="midnightblue" stroke="midnightblue" points="109.239,-85.9787 112.004,-75.7511 103.464,-82.0221 109.239,-85.9787"/>
</g>
<!-- Node5&#45;&gt;Node2 -->
<g id="edge5" class="edge"><title>Node5&#45;&gt;Node2</title>
<path fill="none" stroke="midnightblue" d="M102.737,-56.324C87.7786,-47.8215 64.7452,-34.7288 47.2733,-24.7975"/>
<polygon fill="midnightblue" stroke="midnightblue" points="48.6488,-21.5534 38.2255,-19.6545 45.1896,-27.639 48.6488,-21.5534"/>
</g>
<!-- Node5&#45;&gt;Node4 -->
<g id="edge6" class="edge"><title>Node5&#45;&gt;Node4</title>
<path fill="none" stroke="midnightblue" d="M122.954,-56.083C127.104,-48.6127 133.153,-37.7244 138.267,-28.5199"/>
<polygon fill="midnightblue" stroke="midnightblue" points="141.341,-30.1924 143.138,-19.7511 135.222,-26.7929 141.341,-30.1924"/>
</g>
</g>
</svg>
