<?xml version="1.0" encoding="UTF-8" standalone="no"?>
<!DOCTYPE svg PUBLIC "-//W3C//DTD SVG 1.1//EN"
 "http://www.w3.org/Graphics/SVG/1.1/DTD/svg11.dtd">
<!-- Generated by graphviz version 2.38.0 (20140413.2041)
 -->
<!-- Title: AttributeInfo.hpp Pages: 1 -->
<svg width="700pt" height="364pt"
 viewBox="0.00 0.00 699.50 364.00" xmlns="http://www.w3.org/2000/svg" xmlns:xlink="http://www.w3.org/1999/xlink">
<g id="graph0" class="graph" transform="scale(1 1) rotate(0) translate(4 360)">
<title>AttributeInfo.hpp</title>
<polygon fill="white" stroke="none" points="-4,4 -4,-360 695.5,-360 695.5,4 -4,4"/>
<!-- Node1 -->
<g id="node1" class="node"><title>Node1</title>
<polygon fill="#bfbfbf" stroke="black" points="379,-336.5 379,-355.5 468,-355.5 468,-336.5 379,-336.5"/>
<text text-anchor="middle" x="423.5" y="-343.5" font-family="Helvetica,sans-Serif" font-size="10.00">AttributeInfo.hpp</text>
</g>
<!-- Node2 -->
<g id="node2" class="node"><title>Node2</title>
<g id="a_node2"><a xlink:href="_method_info_8hpp.html" target="_top" xlink:title="Declarações das funções do MethodInfo estrutura responsável por guardas as informaçoes dos metodos do...">
<polygon fill="white" stroke="black" points="346.5,-280.5 346.5,-299.5 430.5,-299.5 430.5,-280.5 346.5,-280.5"/>
<text text-anchor="middle" x="388.5" y="-287.5" font-family="Helvetica,sans-Serif" font-size="10.00">MethodInfo.hpp</text>
</a>
</g>
</g>
<!-- Node1&#45;&gt;Node2 -->
<g id="edge1" class="edge"><title>Node1&#45;&gt;Node2</title>
<path fill="none" stroke="midnightblue" d="M412.2,-327.566C406.178,-318.275 399.031,-307.248 394.172,-299.751"/>
<polygon fill="midnightblue" stroke="midnightblue" points="409.344,-329.595 417.72,-336.083 415.219,-325.788 409.344,-329.595"/>
</g>
<!-- Node3 -->
<g id="node3" class="node"><title>Node3</title>
<g id="a_node3"><a xlink:href="_frame_8hpp.html" target="_top" xlink:title="Declarações das funções e da estrutura do Frame, utilizado para salvar resultados parciais...">
<polygon fill="white" stroke="black" points="272,-168.5 272,-187.5 335,-187.5 335,-168.5 272,-168.5"/>
<text text-anchor="middle" x="303.5" y="-175.5" font-family="Helvetica,sans-Serif" font-size="10.00">Frame.hpp</text>
</a>
</g>
</g>
<!-- Node1&#45;&gt;Node3 -->
<g id="edge33" class="edge"><title>Node1&#45;&gt;Node3</title>
<path fill="none" stroke="midnightblue" d="M384.901,-332.67C368.181,-325.544 349.687,-314.963 337.5,-300 309.389,-265.486 304.489,-209.142 303.659,-187.677"/>
<polygon fill="midnightblue" stroke="midnightblue" points="383.893,-336.035 394.478,-336.473 386.476,-329.529 383.893,-336.035"/>
</g>
<!-- Node6 -->
<g id="node6" class="node"><title>Node6</title>
<g id="a_node6"><a xlink:href="_attribute_info_8cpp.html" target="_top" xlink:title="Tem os métodos para adiquirir as informações dos atributos;. ">
<polygon fill="white" stroke="black" points="0,-0.5 0,-19.5 89,-19.5 89,-0.5 0,-0.5"/>
<text text-anchor="middle" x="44.5" y="-7.5" font-family="Helvetica,sans-Serif" font-size="10.00">AttributeInfo.cpp</text>
</a>
</g>
</g>
<!-- Node1&#45;&gt;Node6 -->
<g id="edge38" class="edge"><title>Node1&#45;&gt;Node6</title>
<path fill="none" stroke="midnightblue" d="M368.493,-340.758C262.317,-331.048 39.5,-302.617 39.5,-235 39.5,-235 39.5,-235 39.5,-121 39.5,-83.1485 42.491,-38.0459 43.8463,-19.5518"/>
<polygon fill="midnightblue" stroke="midnightblue" points="368.428,-344.266 378.699,-341.666 369.049,-337.293 368.428,-344.266"/>
</g>
<!-- Node13 -->
<g id="node13" class="node"><title>Node13</title>
<g id="a_node13"><a xlink:href="jvm_8cpp.html" target="_top" xlink:title="Arquivo inicial em que é selecionado ou a exibição do leitor ou do interpretador dependendo da chamad...">
<polygon fill="white" stroke="black" points="623,-0.5 623,-19.5 674,-19.5 674,-0.5 623,-0.5"/>
<text text-anchor="middle" x="648.5" y="-7.5" font-family="Helvetica,sans-Serif" font-size="10.00">jvm.cpp</text>
</a>
</g>
</g>
<!-- Node1&#45;&gt;Node13 -->
<g id="edge39" class="edge"><title>Node1&#45;&gt;Node13</title>
<path fill="none" stroke="midnightblue" d="M478.255,-345.671C556.644,-343.441 691.5,-326.333 691.5,-235 691.5,-235 691.5,-235 691.5,-121 691.5,-80.8112 666.294,-37.6815 654.479,-19.6721"/>
<polygon fill="midnightblue" stroke="midnightblue" points="477.979,-342.176 468.056,-345.886 478.127,-349.174 477.979,-342.176"/>
</g>
<!-- Node17 -->
<g id="node17" class="node"><title>Node17</title>
<g id="a_node17"><a xlink:href="_class_loader_8hpp.html" target="_top" xlink:title="Declarações das funções do ClassLoader para salvar todos os bytes de .class corretamente. ">
<polygon fill="white" stroke="black" points="448.5,-224.5 448.5,-243.5 538.5,-243.5 538.5,-224.5 448.5,-224.5"/>
<text text-anchor="middle" x="493.5" y="-231.5" font-family="Helvetica,sans-Serif" font-size="10.00">ClassLoader.hpp</text>
</a>
</g>
</g>
<!-- Node1&#45;&gt;Node17 -->
<g id="edge37" class="edge"><title>Node1&#45;&gt;Node17</title>
<path fill="none" stroke="midnightblue" d="M434.548,-327.64C449.754,-303.744 476.555,-261.629 488.033,-243.591"/>
<polygon fill="midnightblue" stroke="midnightblue" points="431.409,-326.053 428.993,-336.368 437.314,-329.811 431.409,-326.053"/>
</g>
<!-- Node22 -->
<g id="node22" class="node"><title>Node22</title>
<g id="a_node22"><a xlink:href="_field_info_8hpp.html" target="_top" xlink:title="Declarações das funções do FieldInfo para tratamento dos fields do arquivo .class. ">
<polygon fill="white" stroke="black" points="487,-280.5 487,-299.5 560,-299.5 560,-280.5 487,-280.5"/>
<text text-anchor="middle" x="523.5" y="-287.5" font-family="Helvetica,sans-Serif" font-size="10.00">FieldInfo.hpp</text>
</a>
</g>
</g>
<!-- Node1&#45;&gt;Node22 -->
<g id="edge34" class="edge"><title>Node1&#45;&gt;Node22</title>
<path fill="none" stroke="midnightblue" d="M448.588,-331.453C467.049,-321.483 491.597,-308.228 507.473,-299.655"/>
<polygon fill="midnightblue" stroke="midnightblue" points="446.703,-328.493 439.567,-336.324 450.029,-334.652 446.703,-328.493"/>
</g>
<!-- Node2&#45;&gt;Node3 -->
<g id="edge2" class="edge"><title>Node2&#45;&gt;Node3</title>
<path fill="none" stroke="midnightblue" d="M368.483,-274.213C358.363,-266.067 346.379,-255.326 337.5,-244 323.2,-225.759 312.048,-200.601 306.796,-187.581"/>
<polygon fill="midnightblue" stroke="midnightblue" points="366.394,-277.023 376.436,-280.401 370.693,-271.498 366.394,-277.023"/>
</g>
<!-- Node2&#45;&gt;Node17 -->
<g id="edge24" class="edge"><title>Node2&#45;&gt;Node17</title>
<path fill="none" stroke="midnightblue" d="M414.31,-275.726C433.753,-265.727 459.848,-252.307 476.672,-243.655"/>
<polygon fill="midnightblue" stroke="midnightblue" points="412.662,-272.638 405.37,-280.324 415.864,-278.863 412.662,-272.638"/>
</g>
<!-- Node21 -->
<g id="node21" class="node"><title>Node21</title>
<g id="a_node21"><a xlink:href="_method_info_8cpp.html" target="_top" xlink:title="Métodos que simulam as a leitura dos methods assim como um destrutor;. ">
<polygon fill="white" stroke="black" points="346.5,-224.5 346.5,-243.5 430.5,-243.5 430.5,-224.5 346.5,-224.5"/>
<text text-anchor="middle" x="388.5" y="-231.5" font-family="Helvetica,sans-Serif" font-size="10.00">MethodInfo.cpp</text>
</a>
</g>
</g>
<!-- Node2&#45;&gt;Node21 -->
<g id="edge32" class="edge"><title>Node2&#45;&gt;Node21</title>
<path fill="none" stroke="midnightblue" d="M388.5,-269.805C388.5,-260.91 388.5,-250.78 388.5,-243.751"/>
<polygon fill="midnightblue" stroke="midnightblue" points="385,-270.083 388.5,-280.083 392,-270.083 385,-270.083"/>
</g>
<!-- Node4 -->
<g id="node4" class="node"><title>Node4</title>
<g id="a_node4"><a xlink:href="_instruction_impl_8hpp.html" target="_top" xlink:title="Declarações das funções do ClassLoader para salvar todos os bytes de .class corretamente. ">
<polygon fill="white" stroke="black" points="187.5,-112.5 187.5,-131.5 287.5,-131.5 287.5,-112.5 187.5,-112.5"/>
<text text-anchor="middle" x="237.5" y="-119.5" font-family="Helvetica,sans-Serif" font-size="10.00">InstructionImpl.hpp</text>
</a>
</g>
</g>
<!-- Node3&#45;&gt;Node4 -->
<g id="edge3" class="edge"><title>Node3&#45;&gt;Node4</title>
<path fill="none" stroke="midnightblue" d="M284.946,-161.82C273.122,-152.145 258.214,-139.948 248.297,-131.834"/>
<polygon fill="midnightblue" stroke="midnightblue" points="282.94,-164.7 292.896,-168.324 287.373,-159.283 282.94,-164.7"/>
</g>
<!-- Node8 -->
<g id="node8" class="node"><title>Node8</title>
<g id="a_node8"><a xlink:href="_instance_8hpp.html" target="_top" xlink:title="Declaração da struct Instance. ">
<polygon fill="white" stroke="black" points="358,-112.5 358,-131.5 431,-131.5 431,-112.5 358,-112.5"/>
<text text-anchor="middle" x="394.5" y="-119.5" font-family="Helvetica,sans-Serif" font-size="10.00">Instance.hpp</text>
</a>
</g>
</g>
<!-- Node3&#45;&gt;Node8 -->
<g id="edge9" class="edge"><title>Node3&#45;&gt;Node8</title>
<path fill="none" stroke="midnightblue" d="M321.683,-162.622C337.122,-152.757 358.946,-139.992 374.805,-131.655"/>
<polygon fill="midnightblue" stroke="midnightblue" points="319.441,-159.907 313.006,-168.324 323.285,-165.757 319.441,-159.907"/>
</g>
<!-- Node11 -->
<g id="node11" class="node"><title>Node11</title>
<g id="a_node11"><a xlink:href="_instruction_impl_8cpp.html" target="_top" xlink:title="Métodos referentes a execução de cada instrução ;. ">
<polygon fill="white" stroke="black" points="283.5,-0.5 283.5,-19.5 383.5,-19.5 383.5,-0.5 283.5,-0.5"/>
<text text-anchor="middle" x="333.5" y="-7.5" font-family="Helvetica,sans-Serif" font-size="10.00">InstructionImpl.cpp</text>
</a>
</g>
</g>
<!-- Node3&#45;&gt;Node11 -->
<g id="edge22" class="edge"><title>Node3&#45;&gt;Node11</title>
<path fill="none" stroke="midnightblue" d="M306.946,-157.93C313.454,-121.92 327.314,-45.2312 331.952,-19.5681"/>
<polygon fill="midnightblue" stroke="midnightblue" points="303.447,-157.612 305.113,-168.075 310.336,-158.857 303.447,-157.612"/>
</g>
<!-- Node15 -->
<g id="node15" class="node"><title>Node15</title>
<g id="a_node15"><a xlink:href="_interpreter_8hpp.html" target="_top" xlink:title="Declarações das funções e atributos do Interpretador para interpretar o que foi lido do ...">
<polygon fill="white" stroke="black" points="545.5,-56.5 545.5,-75.5 625.5,-75.5 625.5,-56.5 545.5,-56.5"/>
<text text-anchor="middle" x="585.5" y="-63.5" font-family="Helvetica,sans-Serif" font-size="10.00">Interpreter.hpp</text>
</a>
</g>
</g>
<!-- Node3&#45;&gt;Node15 -->
<g id="edge23" class="edge"><title>Node3&#45;&gt;Node15</title>
<path fill="none" stroke="midnightblue" d="M341.542,-165.526C369.012,-156.971 406.861,-144.629 439.5,-132 486.595,-113.777 540.52,-88.6117 567.76,-75.5857"/>
<polygon fill="midnightblue" stroke="midnightblue" points="340.441,-162.203 331.92,-168.499 342.508,-168.891 340.441,-162.203"/>
</g>
<!-- Node16 -->
<g id="node16" class="node"><title>Node16</title>
<g id="a_node16"><a xlink:href="_frame_8cpp.html" target="_top" xlink:title="Contrutor, destrutor e metodos para o funcionamento da lógica do frame;. ">
<polygon fill="white" stroke="black" points="106,-112.5 106,-131.5 169,-131.5 169,-112.5 106,-112.5"/>
<text text-anchor="middle" x="137.5" y="-119.5" font-family="Helvetica,sans-Serif" font-size="10.00">Frame.cpp</text>
</a>
</g>
</g>
<!-- Node3&#45;&gt;Node16 -->
<g id="edge21" class="edge"><title>Node3&#45;&gt;Node16</title>
<path fill="none" stroke="midnightblue" d="M267.547,-165.304C236.268,-155.129 191.679,-140.625 163.68,-131.516"/>
<polygon fill="midnightblue" stroke="midnightblue" points="266.605,-168.678 277.197,-168.444 268.77,-162.022 266.605,-168.678"/>
</g>
<!-- Node5 -->
<g id="node5" class="node"><title>Node5</title>
<g id="a_node5"><a xlink:href="_instruction_8hpp.html" target="_top" xlink:title="Declarações das instruçoes referentes ao interpretador da JVM. ">
<polygon fill="white" stroke="black" points="101,-56.5 101,-75.5 182,-75.5 182,-56.5 101,-56.5"/>
<text text-anchor="middle" x="141.5" y="-63.5" font-family="Helvetica,sans-Serif" font-size="10.00">Instruction.hpp</text>
</a>
</g>
</g>
<!-- Node4&#45;&gt;Node5 -->
<g id="edge4" class="edge"><title>Node4&#45;&gt;Node5</title>
<path fill="none" stroke="midnightblue" d="M212.926,-107.177C195.261,-97.2407 171.987,-84.1492 156.886,-75.6545"/>
<polygon fill="midnightblue" stroke="midnightblue" points="211.644,-110.472 222.076,-112.324 215.076,-104.371 211.644,-110.472"/>
</g>
<!-- Node7 -->
<g id="node7" class="node"><title>Node7</title>
<g id="a_node7"><a xlink:href="_instruction_8cpp.html" target="_top" xlink:title="Métodos que servem para inicializar todas as intruções contidas na documentação;. ...">
<polygon fill="white" stroke="black" points="118,-0.5 118,-19.5 199,-19.5 199,-0.5 118,-0.5"/>
<text text-anchor="middle" x="158.5" y="-7.5" font-family="Helvetica,sans-Serif" font-size="10.00">Instruction.cpp</text>
</a>
</g>
</g>
<!-- Node4&#45;&gt;Node7 -->
<g id="edge8" class="edge"><title>Node4&#45;&gt;Node7</title>
<path fill="none" stroke="midnightblue" d="M225.26,-103.957C208.14,-80.1184 177.682,-37.7088 164.67,-19.5914"/>
<polygon fill="midnightblue" stroke="midnightblue" points="222.625,-106.288 231.301,-112.368 228.31,-102.204 222.625,-106.288"/>
</g>
<!-- Node5&#45;&gt;Node3 -->
<g id="edge6" class="edge"><title>Node5&#45;&gt;Node3</title>
<path fill="none" stroke="midnightblue" d="M119.675,-81.7161C102.385,-95.1835 83.177,-115.469 96.5,-132 118.136,-158.845 219.122,-170.506 271.616,-174.825"/>
<polygon fill="midnightblue" stroke="midnightblue" points="121.875,-84.4429 127.858,-75.6989 117.728,-78.8035 121.875,-84.4429"/>
</g>
<!-- Node5&#45;&gt;Node6 -->
<g id="edge5" class="edge"><title>Node5&#45;&gt;Node6</title>
<path fill="none" stroke="midnightblue" d="M117.165,-51.4526C99.2574,-41.4835 75.4463,-28.2279 60.0461,-19.6545"/>
<polygon fill="midnightblue" stroke="midnightblue" points="115.475,-54.5179 125.915,-56.324 118.88,-48.4018 115.475,-54.5179"/>
</g>
<!-- Node5&#45;&gt;Node7 -->
<g id="edge7" class="edge"><title>Node5&#45;&gt;Node7</title>
<path fill="none" stroke="midnightblue" d="M147.357,-46.3956C150.201,-37.362 153.483,-26.936 155.745,-19.7511"/>
<polygon fill="midnightblue" stroke="midnightblue" points="143.972,-45.4935 144.307,-56.083 150.649,-47.5955 143.972,-45.4935"/>
</g>
<!-- Node8&#45;&gt;Node3 -->
<g id="edge10" class="edge"><title>Node8&#45;&gt;Node3</title>
<path fill="none" stroke="midnightblue" d="M376.357,-137.352C360.929,-147.212 339.105,-159.979 323.236,-168.324"/>
<polygon fill="midnightblue" stroke="midnightblue" points="378.592,-140.072 385.026,-131.655 374.747,-134.222 378.592,-140.072"/>
</g>
<!-- Node9 -->
<g id="node9" class="node"><title>Node9</title>
<g id="a_node9"><a xlink:href="_g_l_o_b_a_l__file_8hpp.html" target="_top" xlink:title="Armazenas classes estáticas para serem usadas por todo o código. ">
<polygon fill="white" stroke="black" points="343.5,-56.5 343.5,-75.5 435.5,-75.5 435.5,-56.5 343.5,-56.5"/>
<text text-anchor="middle" x="389.5" y="-63.5" font-family="Helvetica,sans-Serif" font-size="10.00">GLOBAL_file.hpp</text>
</a>
</g>
</g>
<!-- Node8&#45;&gt;Node9 -->
<g id="edge11" class="edge"><title>Node8&#45;&gt;Node9</title>
<path fill="none" stroke="midnightblue" d="M392.75,-102.101C391.92,-93.1357 390.968,-82.8579 390.31,-75.7511"/>
<polygon fill="midnightblue" stroke="midnightblue" points="389.267,-102.448 393.674,-112.083 396.237,-101.803 389.267,-102.448"/>
</g>
<!-- Node14 -->
<g id="node14" class="node"><title>Node14</title>
<g id="a_node14"><a xlink:href="_instance_8cpp.html" target="_top" xlink:title="Contém métodos para carregar as informações do Classloader na Instância;. ">
<polygon fill="white" stroke="black" points="454,-56.5 454,-75.5 527,-75.5 527,-56.5 454,-56.5"/>
<text text-anchor="middle" x="490.5" y="-63.5" font-family="Helvetica,sans-Serif" font-size="10.00">Instance.cpp</text>
</a>
</g>
</g>
<!-- Node8&#45;&gt;Node14 -->
<g id="edge16" class="edge"><title>Node8&#45;&gt;Node14</title>
<path fill="none" stroke="midnightblue" d="M419.074,-107.177C436.739,-97.2407 460.013,-84.1492 475.114,-75.6545"/>
<polygon fill="midnightblue" stroke="midnightblue" points="416.924,-104.371 409.924,-112.324 420.356,-110.472 416.924,-104.371"/>
</g>
<!-- Node8&#45;&gt;Node15 -->
<g id="edge17" class="edge"><title>Node8&#45;&gt;Node15</title>
<path fill="none" stroke="midnightblue" d="M434.473,-109.699C470.521,-99.507 522.743,-84.7429 555.377,-75.5164"/>
<polygon fill="midnightblue" stroke="midnightblue" points="433.435,-106.355 424.765,-112.444 435.34,-113.091 433.435,-106.355"/>
</g>
<!-- Node10 -->
<g id="node10" class="node"><title>Node10</title>
<g id="a_node10"><a xlink:href="_g_l_o_b_a_l__file_8cpp.html" target="_top" xlink:title="Contém métodos que serão utilizados de forma global, ao invés de termos que setar o mesmo para todos ...">
<polygon fill="white" stroke="black" points="401.5,-0.5 401.5,-19.5 493.5,-19.5 493.5,-0.5 401.5,-0.5"/>
<text text-anchor="middle" x="447.5" y="-7.5" font-family="Helvetica,sans-Serif" font-size="10.00">GLOBAL_file.cpp</text>
</a>
</g>
</g>
<!-- Node9&#45;&gt;Node10 -->
<g id="edge12" class="edge"><title>Node9&#45;&gt;Node10</title>
<path fill="none" stroke="midnightblue" d="M406.413,-49.2533C416.703,-39.6731 429.466,-27.7906 438.012,-19.8339"/>
<polygon fill="midnightblue" stroke="midnightblue" points="403.753,-46.9481 398.819,-56.324 408.523,-52.0714 403.753,-46.9481"/>
</g>
<!-- Node9&#45;&gt;Node11 -->
<g id="edge13" class="edge"><title>Node9&#45;&gt;Node11</title>
<path fill="none" stroke="midnightblue" d="M373.17,-49.2533C363.235,-39.6731 350.912,-27.7906 342.661,-19.8339"/>
<polygon fill="midnightblue" stroke="midnightblue" points="370.875,-51.902 380.503,-56.324 375.734,-46.8631 370.875,-51.902"/>
</g>
<!-- Node12 -->
<g id="node12" class="node"><title>Node12</title>
<g id="a_node12"><a xlink:href="_interpreter_8cpp.html" target="_top" xlink:title="Métodos que fazem a atuação do interpretador;. ">
<polygon fill="white" stroke="black" points="515.5,-0.5 515.5,-19.5 595.5,-19.5 595.5,-0.5 515.5,-0.5"/>
<text text-anchor="middle" x="555.5" y="-7.5" font-family="Helvetica,sans-Serif" font-size="10.00">Interpreter.cpp</text>
</a>
</g>
</g>
<!-- Node9&#45;&gt;Node12 -->
<g id="edge14" class="edge"><title>Node9&#45;&gt;Node12</title>
<path fill="none" stroke="midnightblue" d="M425.453,-53.3044C456.732,-43.1294 501.321,-28.6246 529.32,-19.5164"/>
<polygon fill="midnightblue" stroke="midnightblue" points="424.23,-50.0217 415.803,-56.4435 426.395,-56.6783 424.23,-50.0217"/>
</g>
<!-- Node9&#45;&gt;Node13 -->
<g id="edge15" class="edge"><title>Node9&#45;&gt;Node13</title>
<path fill="none" stroke="midnightblue" d="M440.43,-54.3814C495.385,-42.9237 580.687,-25.1386 622.962,-16.3245"/>
<polygon fill="midnightblue" stroke="midnightblue" points="439.614,-50.9761 430.539,-56.4435 441.043,-57.8287 439.614,-50.9761"/>
</g>
<!-- Node15&#45;&gt;Node11 -->
<g id="edge18" class="edge"><title>Node15&#45;&gt;Node11</title>
<path fill="none" stroke="midnightblue" d="M535.779,-54.3456C488.156,-44.1405 417.22,-28.94 373.243,-19.5164"/>
<polygon fill="midnightblue" stroke="midnightblue" points="535.058,-57.7705 545.57,-56.4435 536.525,-50.9259 535.058,-57.7705"/>
</g>
<!-- Node15&#45;&gt;Node12 -->
<g id="edge19" class="edge"><title>Node15&#45;&gt;Node12</title>
<path fill="none" stroke="midnightblue" d="M575.653,-47.2747C570.525,-38.0454 564.484,-27.1703 560.362,-19.7511"/>
<polygon fill="midnightblue" stroke="midnightblue" points="572.63,-49.0412 580.546,-56.083 578.749,-45.6416 572.63,-49.0412"/>
</g>
<!-- Node15&#45;&gt;Node13 -->
<g id="edge20" class="edge"><title>Node15&#45;&gt;Node13</title>
<path fill="none" stroke="midnightblue" d="M603.54,-49.5372C614.773,-39.9087 628.819,-27.8694 638.194,-19.8339"/>
<polygon fill="midnightblue" stroke="midnightblue" points="600.937,-47.1586 595.622,-56.324 605.492,-52.4734 600.937,-47.1586"/>
</g>
<!-- Node17&#45;&gt;Node3 -->
<g id="edge25" class="edge"><title>Node17&#45;&gt;Node3</title>
<path fill="none" stroke="midnightblue" d="M453.736,-221.699C417.877,-211.507 365.929,-196.743 333.465,-187.516"/>
<polygon fill="midnightblue" stroke="midnightblue" points="452.818,-225.076 463.394,-224.444 454.732,-218.343 452.818,-225.076"/>
</g>
<!-- Node17&#45;&gt;Node8 -->
<g id="edge26" class="edge"><title>Node17&#45;&gt;Node8</title>
<path fill="none" stroke="midnightblue" d="M484.615,-215.429C477.155,-201.658 465.63,-182.471 452.5,-168 439.312,-153.464 421.002,-140.132 408.505,-131.816"/>
<polygon fill="midnightblue" stroke="midnightblue" points="481.551,-217.122 489.293,-224.354 487.751,-213.872 481.551,-217.122"/>
</g>
<!-- Node17&#45;&gt;Node13 -->
<g id="edge29" class="edge"><title>Node17&#45;&gt;Node13</title>
<path fill="none" stroke="midnightblue" d="M547.791,-222.206C582.641,-214.102 623.384,-202.019 634.5,-188 675.484,-136.311 657.731,-47.3534 650.803,-19.5555"/>
<polygon fill="midnightblue" stroke="midnightblue" points="546.662,-218.873 537.677,-224.488 548.202,-225.701 546.662,-218.873"/>
</g>
<!-- Node17&#45;&gt;Node15 -->
<g id="edge28" class="edge"><title>Node17&#45;&gt;Node15</title>
<path fill="none" stroke="midnightblue" d="M495.323,-214.309C498.529,-189.172 507.017,-143.944 528.5,-112 539.124,-96.2021 557.046,-83.3846 569.961,-75.5278"/>
<polygon fill="midnightblue" stroke="midnightblue" points="491.836,-213.996 494.194,-224.325 498.792,-214.78 491.836,-213.996"/>
</g>
<!-- Node18 -->
<g id="node18" class="node"><title>Node18</title>
<g id="a_node18"><a xlink:href="_class_loader_8cpp.html" target="_top" xlink:title="Arquivo que obtém os bytecodes do .class e realiza o carregamento dessas informações;. ">
<polygon fill="white" stroke="black" points="353.5,-168.5 353.5,-187.5 443.5,-187.5 443.5,-168.5 353.5,-168.5"/>
<text text-anchor="middle" x="398.5" y="-175.5" font-family="Helvetica,sans-Serif" font-size="10.00">ClassLoader.cpp</text>
</a>
</g>
</g>
<!-- Node17&#45;&gt;Node18 -->
<g id="edge27" class="edge"><title>Node17&#45;&gt;Node18</title>
<path fill="none" stroke="midnightblue" d="M469.182,-219.177C451.701,-209.241 428.67,-196.149 413.726,-187.655"/>
<polygon fill="midnightblue" stroke="midnightblue" points="467.813,-222.425 478.237,-224.324 471.273,-216.339 467.813,-222.425"/>
</g>
<!-- Node19 -->
<g id="node19" class="node"><title>Node19</title>
<g id="a_node19"><a xlink:href="_method_area_8hpp.html" target="_top" xlink:title="Declarações do MethodArea, estrutura responsável por guardar todas as estruturas ClassLoader. ">
<polygon fill="white" stroke="black" points="537.5,-168.5 537.5,-187.5 625.5,-187.5 625.5,-168.5 537.5,-168.5"/>
<text text-anchor="middle" x="581.5" y="-175.5" font-family="Helvetica,sans-Serif" font-size="10.00">MethodArea.hpp</text>
</a>
</g>
</g>
<!-- Node17&#45;&gt;Node19 -->
<g id="edge30" class="edge"><title>Node17&#45;&gt;Node19</title>
<path fill="none" stroke="midnightblue" d="M516.477,-218.901C532.613,-208.999 553.681,-196.071 567.396,-187.655"/>
<polygon fill="midnightblue" stroke="midnightblue" points="514.331,-216.111 507.639,-224.324 517.993,-222.077 514.331,-216.111"/>
</g>
<!-- Node20 -->
<g id="node20" class="node"><title>Node20</title>
<g id="a_node20"><a xlink:href="_method_area_8cpp.html" target="_top" xlink:title="Métodos que simulam a funcionalidade do MethodArea ;. ">
<polygon fill="white" stroke="black" points="537.5,-112.5 537.5,-131.5 625.5,-131.5 625.5,-112.5 537.5,-112.5"/>
<text text-anchor="middle" x="581.5" y="-119.5" font-family="Helvetica,sans-Serif" font-size="10.00">MethodArea.cpp</text>
</a>
</g>
</g>
<!-- Node19&#45;&gt;Node20 -->
<g id="edge31" class="edge"><title>Node19&#45;&gt;Node20</title>
<path fill="none" stroke="midnightblue" d="M581.5,-157.805C581.5,-148.91 581.5,-138.78 581.5,-131.751"/>
<polygon fill="midnightblue" stroke="midnightblue" points="578,-158.083 581.5,-168.083 585,-158.083 578,-158.083"/>
</g>
<!-- Node22&#45;&gt;Node17 -->
<g id="edge35" class="edge"><title>Node22&#45;&gt;Node17</title>
<path fill="none" stroke="midnightblue" d="M513.653,-271.275C508.525,-262.045 502.484,-251.17 498.362,-243.751"/>
<polygon fill="midnightblue" stroke="midnightblue" points="510.63,-273.041 518.546,-280.083 516.749,-269.642 510.63,-273.041"/>
</g>
<!-- Node23 -->
<g id="node23" class="node"><title>Node23</title>
<g id="a_node23"><a xlink:href="_field_info_8cpp.html" target="_top" xlink:title="Funções que mexerão com as informações das fields, armazendo os mesmos a partir da leitura dos byteco...">
<polygon fill="white" stroke="black" points="557,-224.5 557,-243.5 630,-243.5 630,-224.5 557,-224.5"/>
<text text-anchor="middle" x="593.5" y="-231.5" font-family="Helvetica,sans-Serif" font-size="10.00">FieldInfo.cpp</text>
</a>
</g>
</g>
<!-- Node22&#45;&gt;Node23 -->
<g id="edge36" class="edge"><title>Node22&#45;&gt;Node23</title>
<path fill="none" stroke="midnightblue" d="M542.814,-274.101C555.412,-264.382 571.428,-252.027 582.049,-243.834"/>
<polygon fill="midnightblue" stroke="midnightblue" points="540.527,-271.445 534.747,-280.324 544.802,-276.987 540.527,-271.445"/>
</g>
</g>
</svg>
