<?xml version="1.0" encoding="UTF-8" standalone="no"?>
<!DOCTYPE svg PUBLIC "-//W3C//DTD SVG 1.1//EN"
 "http://www.w3.org/Graphics/SVG/1.1/DTD/svg11.dtd">
<!-- Generated by graphviz version 2.38.0 (20140413.2041)
 -->
<!-- Title: AttributeInfo.cpp Pages: 1 -->
<svg width="1112pt" height="532pt"
 viewBox="0.00 0.00 1112.00 532.00" xmlns="http://www.w3.org/2000/svg" xmlns:xlink="http://www.w3.org/1999/xlink">
<g id="graph0" class="graph" transform="scale(1 1) rotate(0) translate(4 528)">
<title>AttributeInfo.cpp</title>
<polygon fill="white" stroke="none" points="-4,4 -4,-528 1108,-528 1108,4 -4,4"/>
<!-- Node1 -->
<g id="node1" class="node"><title>Node1</title>
<polygon fill="#bfbfbf" stroke="black" points="837.5,-504.5 837.5,-523.5 926.5,-523.5 926.5,-504.5 837.5,-504.5"/>
<text text-anchor="middle" x="882" y="-511.5" font-family="Helvetica,sans-Serif" font-size="10.00">AttributeInfo.cpp</text>
</g>
<!-- Node2 -->
<g id="node2" class="node"><title>Node2</title>
<g id="a_node2"><a xlink:href="_instruction_8hpp.html" target="_top" xlink:title="Declarações das instruçoes referentes ao interpretador da JVM. ">
<polygon fill="white" stroke="black" points="607.5,-448.5 607.5,-467.5 688.5,-467.5 688.5,-448.5 607.5,-448.5"/>
<text text-anchor="middle" x="648" y="-455.5" font-family="Helvetica,sans-Serif" font-size="10.00">Instruction.hpp</text>
</a>
</g>
</g>
<!-- Node1&#45;&gt;Node2 -->
<g id="edge1" class="edge"><title>Node1&#45;&gt;Node2</title>
<path fill="none" stroke="midnightblue" d="M844.922,-504.444C804.272,-495.063 738.968,-479.993 694.816,-469.804"/>
<polygon fill="midnightblue" stroke="midnightblue" points="695.435,-466.355 684.905,-467.516 693.861,-473.175 695.435,-466.355"/>
</g>
<!-- Node14 -->
<g id="node14" class="node"><title>Node14</title>
<g id="a_node14"><a xlink:href="_attribute_info_8hpp.html" target="_top" xlink:title="Declarações das funções do AttributeInfo para tratamento dos atributos do arquivo ...">
<polygon fill="white" stroke="black" points="418.5,-112.5 418.5,-131.5 507.5,-131.5 507.5,-112.5 418.5,-112.5"/>
<text text-anchor="middle" x="463" y="-119.5" font-family="Helvetica,sans-Serif" font-size="10.00">AttributeInfo.hpp</text>
</a>
</g>
</g>
<!-- Node1&#45;&gt;Node14 -->
<g id="edge48" class="edge"><title>Node1&#45;&gt;Node14</title>
<path fill="none" stroke="midnightblue" d="M837.375,-511.47C671.366,-505.195 99,-478.114 99,-403 99,-403 99,-403 99,-289 99,-154.701 306.66,-128.575 408.284,-123.83"/>
<polygon fill="midnightblue" stroke="midnightblue" points="408.52,-127.324 418.366,-123.413 408.23,-120.329 408.52,-127.324"/>
</g>
<!-- Node16 -->
<g id="node16" class="node"><title>Node16</title>
<polygon fill="white" stroke="#bfbfbf" points="906,-168.5 906,-187.5 960,-187.5 960,-168.5 906,-168.5"/>
<text text-anchor="middle" x="933" y="-175.5" font-family="Helvetica,sans-Serif" font-size="10.00">iostream</text>
</g>
<!-- Node1&#45;&gt;Node16 -->
<g id="edge57" class="edge"><title>Node1&#45;&gt;Node16</title>
<path fill="none" stroke="midnightblue" d="M882,-504.442C882,-485.936 882,-440.812 882,-403 882,-403 882,-403 882,-289 882,-253.244 904.454,-216.508 919.564,-195.836"/>
<polygon fill="midnightblue" stroke="midnightblue" points="922.43,-197.849 925.693,-187.769 916.856,-193.614 922.43,-197.849"/>
</g>
<!-- Node21 -->
<g id="node21" class="node"><title>Node21</title>
<g id="a_node21"><a xlink:href="_byte_reader_8hpp.html" target="_top" xlink:title="Declarações das funções do ByteReader para leitura dos bytes no arquivo .class. ">
<polygon fill="white" stroke="black" points="909.5,-112.5 909.5,-131.5 996.5,-131.5 996.5,-112.5 909.5,-112.5"/>
<text text-anchor="middle" x="953" y="-119.5" font-family="Helvetica,sans-Serif" font-size="10.00">ByteReader.hpp</text>
</a>
</g>
</g>
<!-- Node1&#45;&gt;Node21 -->
<g id="edge49" class="edge"><title>Node1&#45;&gt;Node21</title>
<path fill="none" stroke="midnightblue" d="M913.246,-504.415C955.597,-490.655 1026,-459.313 1026,-403 1026,-403 1026,-403 1026,-233 1026,-193.776 993.377,-157.836 971.747,-138.318"/>
<polygon fill="midnightblue" stroke="midnightblue" points="973.933,-135.581 964.087,-131.67 969.345,-140.868 973.933,-135.581"/>
</g>
<!-- Node24 -->
<g id="node24" class="node"><title>Node24</title>
<g id="a_node24"><a xlink:href="_byte_reader_8cpp.html" target="_top" xlink:title="Intuito é buscar obinário a partir do .class passado pelo arquivo. ">
<polygon fill="white" stroke="black" points="910.5,-392.5 910.5,-411.5 997.5,-411.5 997.5,-392.5 910.5,-392.5"/>
<text text-anchor="middle" x="954" y="-399.5" font-family="Helvetica,sans-Serif" font-size="10.00">ByteReader.cpp</text>
</a>
</g>
</g>
<!-- Node1&#45;&gt;Node24 -->
<g id="edge50" class="edge"><title>Node1&#45;&gt;Node24</title>
<path fill="none" stroke="midnightblue" d="M887.65,-504.368C899.532,-486.215 927.294,-443.802 942.879,-419.99"/>
<polygon fill="midnightblue" stroke="midnightblue" points="945.828,-421.875 948.377,-411.591 939.971,-418.042 945.828,-421.875"/>
</g>
<!-- Node25 -->
<g id="node25" class="node"><title>Node25</title>
<g id="a_node25"><a xlink:href="_cp_attribute_interface_8hpp.html" target="_top" xlink:title="Declarações da interface entre ConstantPool e AttributeInfo para traduzir as strings UTF8...">
<polygon fill="white" stroke="black" points="708.5,-280.5 708.5,-299.5 831.5,-299.5 831.5,-280.5 708.5,-280.5"/>
<text text-anchor="middle" x="770" y="-287.5" font-family="Helvetica,sans-Serif" font-size="10.00">CpAttributeInterface.hpp</text>
</a>
</g>
</g>
<!-- Node1&#45;&gt;Node25 -->
<g id="edge52" class="edge"><title>Node1&#45;&gt;Node25</title>
<path fill="none" stroke="midnightblue" d="M877.609,-504.297C861.025,-471.425 801.981,-354.391 779.127,-309.09"/>
<polygon fill="midnightblue" stroke="midnightblue" points="782.111,-307.235 774.482,-299.884 775.861,-310.388 782.111,-307.235"/>
</g>
<!-- Node26 -->
<g id="node26" class="node"><title>Node26</title>
<polygon fill="white" stroke="#bfbfbf" points="1054,-448.5 1054,-467.5 1104,-467.5 1104,-448.5 1054,-448.5"/>
<text text-anchor="middle" x="1079" y="-455.5" font-family="Helvetica,sans-Serif" font-size="10.00">iomanip</text>
</g>
<!-- Node1&#45;&gt;Node26 -->
<g id="edge56" class="edge"><title>Node1&#45;&gt;Node26</title>
<path fill="none" stroke="midnightblue" d="M913.215,-504.444C948.817,-494.685 1006.88,-478.768 1043.99,-468.596"/>
<polygon fill="midnightblue" stroke="midnightblue" points="1045.15,-471.908 1053.87,-465.889 1043.3,-465.157 1045.15,-471.908"/>
</g>
<!-- Node3 -->
<g id="node3" class="node"><title>Node3</title>
<polygon fill="white" stroke="#bfbfbf" points="652.5,-224.5 652.5,-243.5 693.5,-243.5 693.5,-224.5 652.5,-224.5"/>
<text text-anchor="middle" x="673" y="-231.5" font-family="Helvetica,sans-Serif" font-size="10.00">string</text>
</g>
<!-- Node2&#45;&gt;Node3 -->
<g id="edge2" class="edge"><title>Node2&#45;&gt;Node3</title>
<path fill="none" stroke="midnightblue" d="M648.98,-448.297C652.659,-415.633 665.695,-299.866 670.865,-253.957"/>
<polygon fill="midnightblue" stroke="midnightblue" points="674.358,-254.213 672,-243.884 667.402,-253.429 674.358,-254.213"/>
</g>
<!-- Node4 -->
<g id="node4" class="node"><title>Node4</title>
<g id="a_node4"><a xlink:href="_instruction_impl_8hpp.html" target="_top" xlink:title="Declarações das funções do ClassLoader para salvar todos os bytes de .class corretamente. ">
<polygon fill="white" stroke="black" points="433,-392.5 433,-411.5 533,-411.5 533,-392.5 433,-392.5"/>
<text text-anchor="middle" x="483" y="-399.5" font-family="Helvetica,sans-Serif" font-size="10.00">InstructionImpl.hpp</text>
</a>
</g>
</g>
<!-- Node2&#45;&gt;Node4 -->
<g id="edge3" class="edge"><title>Node2&#45;&gt;Node4</title>
<path fill="none" stroke="midnightblue" d="M621.855,-448.444C593.977,-439.32 549.652,-424.813 518.6,-414.651"/>
<polygon fill="midnightblue" stroke="midnightblue" points="519.615,-411.3 509.022,-411.516 517.438,-417.953 519.615,-411.3"/>
</g>
<!-- Node5 -->
<g id="node5" class="node"><title>Node5</title>
<g id="a_node5"><a xlink:href="_frame_8hpp.html" target="_top" xlink:title="Declarações das funções e da estrutura do Frame, utilizado para salvar resultados parciais...">
<polygon fill="white" stroke="black" points="424.5,-336.5 424.5,-355.5 487.5,-355.5 487.5,-336.5 424.5,-336.5"/>
<text text-anchor="middle" x="456" y="-343.5" font-family="Helvetica,sans-Serif" font-size="10.00">Frame.hpp</text>
</a>
</g>
</g>
<!-- Node4&#45;&gt;Node5 -->
<g id="edge4" class="edge"><title>Node4&#45;&gt;Node5</title>
<path fill="none" stroke="midnightblue" d="M478.541,-392.083C474.846,-384.691 469.477,-373.953 464.906,-364.811"/>
<polygon fill="midnightblue" stroke="midnightblue" points="467.978,-363.13 460.376,-355.751 461.717,-366.261 467.978,-363.13"/>
</g>
<!-- Node5&#45;&gt;Node2 -->
<g id="edge42" class="edge"><title>Node5&#45;&gt;Node2</title>
<path fill="none" stroke="midnightblue" d="M473.318,-355.625C490.819,-364.443 518.55,-378.695 542,-392 571.603,-408.796 604.95,-429.559 626.2,-443.031"/>
<polygon fill="midnightblue" stroke="midnightblue" points="624.472,-446.08 634.787,-448.497 628.23,-440.175 624.472,-446.08"/>
</g>
<!-- Node5&#45;&gt;Node3 -->
<g id="edge6" class="edge"><title>Node5&#45;&gt;Node3</title>
<path fill="none" stroke="midnightblue" d="M487.797,-341.79C522.206,-337.096 577.567,-325.901 618,-300 636.992,-287.834 652.883,-267.08 662.622,-252.297"/>
<polygon fill="midnightblue" stroke="midnightblue" points="665.736,-253.922 668.105,-243.595 659.813,-250.19 665.736,-253.922"/>
</g>
<!-- Node6 -->
<g id="node6" class="node"><title>Node6</title>
<polygon fill="white" stroke="#bfbfbf" points="513,-0.5 513,-19.5 559,-19.5 559,-0.5 513,-0.5"/>
<text text-anchor="middle" x="536" y="-7.5" font-family="Helvetica,sans-Serif" font-size="10.00">cstdint</text>
</g>
<!-- Node5&#45;&gt;Node6 -->
<g id="edge5" class="edge"><title>Node5&#45;&gt;Node6</title>
<path fill="none" stroke="midnightblue" d="M424.297,-344.163C320.886,-340.587 0,-322.444 0,-235 0,-235 0,-235 0,-121 0,-88.6012 6.1712,-74.163 33,-56 71.8247,-29.7158 396.945,-15.9384 502.819,-12.118"/>
<polygon fill="midnightblue" stroke="midnightblue" points="503.062,-15.6118 512.931,-11.7596 502.814,-8.61615 503.062,-15.6118"/>
</g>
<!-- Node7 -->
<g id="node7" class="node"><title>Node7</title>
<polygon fill="white" stroke="#bfbfbf" points="42,-56.5 42,-75.5 86,-75.5 86,-56.5 42,-56.5"/>
<text text-anchor="middle" x="64" y="-63.5" font-family="Helvetica,sans-Serif" font-size="10.00">vector</text>
</g>
<!-- Node5&#45;&gt;Node7 -->
<g id="edge7" class="edge"><title>Node5&#45;&gt;Node7</title>
<path fill="none" stroke="midnightblue" d="M424.363,-344.161C355.942,-341.739 197.067,-332.657 156,-300 86.7962,-244.968 69.4868,-130.396 65.2929,-85.5588"/>
<polygon fill="midnightblue" stroke="midnightblue" points="68.7754,-85.201 64.4703,-75.5202 61.7988,-85.7727 68.7754,-85.201"/>
</g>
<!-- Node8 -->
<g id="node8" class="node"><title>Node8</title>
<polygon fill="white" stroke="#bfbfbf" points="165.5,-280.5 165.5,-299.5 206.5,-299.5 206.5,-280.5 165.5,-280.5"/>
<text text-anchor="middle" x="186" y="-287.5" font-family="Helvetica,sans-Serif" font-size="10.00">stack</text>
</g>
<!-- Node5&#45;&gt;Node8 -->
<g id="edge8" class="edge"><title>Node5&#45;&gt;Node8</title>
<path fill="none" stroke="midnightblue" d="M424.322,-339.582C379.06,-331.695 293.354,-316.214 221,-300 219.546,-299.674 218.06,-299.331 216.562,-298.977"/>
<polygon fill="midnightblue" stroke="midnightblue" points="217.223,-295.536 206.676,-296.545 215.55,-302.333 217.223,-295.536"/>
</g>
<!-- Node9 -->
<g id="node9" class="node"><title>Node9</title>
<polygon fill="white" stroke="#bfbfbf" points="256.5,-224.5 256.5,-243.5 291.5,-243.5 291.5,-224.5 256.5,-224.5"/>
<text text-anchor="middle" x="274" y="-231.5" font-family="Helvetica,sans-Serif" font-size="10.00">map</text>
</g>
<!-- Node5&#45;&gt;Node9 -->
<g id="edge9" class="edge"><title>Node5&#45;&gt;Node9</title>
<path fill="none" stroke="midnightblue" d="M424.425,-338.332C397.844,-331.665 359.684,-319.549 331,-300 312.28,-287.242 295.82,-266.932 285.462,-252.411"/>
<polygon fill="midnightblue" stroke="midnightblue" points="288.122,-250.102 279.575,-243.842 282.353,-254.066 288.122,-250.102"/>
</g>
<!-- Node10 -->
<g id="node10" class="node"><title>Node10</title>
<polygon fill="white" stroke="#bfbfbf" points="340.5,-280.5 340.5,-299.5 401.5,-299.5 401.5,-280.5 340.5,-280.5"/>
<text text-anchor="middle" x="371" y="-287.5" font-family="Helvetica,sans-Serif" font-size="10.00">Stack.hpp</text>
</g>
<!-- Node5&#45;&gt;Node10 -->
<g id="edge10" class="edge"><title>Node5&#45;&gt;Node10</title>
<path fill="none" stroke="midnightblue" d="M442.343,-336.324C429.084,-327.9 408.732,-314.971 393.154,-305.074"/>
<polygon fill="midnightblue" stroke="midnightblue" points="394.94,-302.063 384.623,-299.655 391.187,-307.971 394.94,-302.063"/>
</g>
<!-- Node11 -->
<g id="node11" class="node"><title>Node11</title>
<g id="a_node11"><a xlink:href="_cp_info_8hpp.html" target="_top" xlink:title="Declarações das funções e dos atributos do Pool de constantes. ">
<polygon fill="white" stroke="black" points="654.5,-56.5 654.5,-75.5 719.5,-75.5 719.5,-56.5 654.5,-56.5"/>
<text text-anchor="middle" x="687" y="-63.5" font-family="Helvetica,sans-Serif" font-size="10.00">CpInfo.hpp</text>
</a>
</g>
</g>
<!-- Node5&#45;&gt;Node11 -->
<g id="edge11" class="edge"><title>Node5&#45;&gt;Node11</title>
<path fill="none" stroke="midnightblue" d="M474.603,-336.357C492.357,-327.856 519.635,-314.133 542,-300 589.49,-269.989 597.307,-256.681 643,-224 666.161,-207.434 679.895,-211.484 696,-188 715.381,-159.739 716.724,-145.386 709,-112 706.77,-102.363 702.179,-92.4052 697.764,-84.3149"/>
<polygon fill="midnightblue" stroke="midnightblue" points="700.697,-82.3968 692.638,-75.5194 694.649,-85.9216 700.697,-82.3968"/>
</g>
<!-- Node13 -->
<g id="node13" class="node"><title>Node13</title>
<g id="a_node13"><a xlink:href="_method_info_8hpp.html" target="_top" xlink:title="Declarações das funções do MethodInfo estrutura responsável por guardas as informaçoes dos metodos do...">
<polygon fill="white" stroke="black" points="582,-168.5 582,-187.5 666,-187.5 666,-168.5 582,-168.5"/>
<text text-anchor="middle" x="624" y="-175.5" font-family="Helvetica,sans-Serif" font-size="10.00">MethodInfo.hpp</text>
</a>
</g>
</g>
<!-- Node5&#45;&gt;Node13 -->
<g id="edge14" class="edge"><title>Node5&#45;&gt;Node13</title>
<path fill="none" stroke="midnightblue" d="M469.23,-336.437C482.02,-327.889 501.661,-314.038 517,-300 554.216,-265.939 591.969,-219.993 611.123,-195.688"/>
<polygon fill="midnightblue" stroke="midnightblue" points="613.907,-197.811 617.304,-187.775 608.39,-193.502 613.907,-197.811"/>
</g>
<!-- Node5&#45;&gt;Node14 -->
<g id="edge22" class="edge"><title>Node5&#45;&gt;Node14</title>
<path fill="none" stroke="midnightblue" d="M424.416,-339.966C392.819,-333.942 343.634,-321.818 306,-300 250.407,-267.77 206.459,-217.858 247,-168 266.948,-143.468 350.994,-131.862 408.173,-126.713"/>
<polygon fill="midnightblue" stroke="midnightblue" points="408.499,-130.198 418.162,-125.854 407.899,-123.224 408.499,-130.198"/>
</g>
<!-- Node15 -->
<g id="node15" class="node"><title>Node15</title>
<g id="a_node15"><a xlink:href="_class_loader_8hpp.html" target="_top" xlink:title="Declarações das funções do ClassLoader para salvar todos os bytes de .class corretamente. ">
<polygon fill="white" stroke="black" points="417,-224.5 417,-243.5 507,-243.5 507,-224.5 417,-224.5"/>
<text text-anchor="middle" x="462" y="-231.5" font-family="Helvetica,sans-Serif" font-size="10.00">ClassLoader.hpp</text>
</a>
</g>
</g>
<!-- Node5&#45;&gt;Node15 -->
<g id="edge23" class="edge"><title>Node5&#45;&gt;Node15</title>
<path fill="none" stroke="midnightblue" d="M469.064,-336.436C479.914,-328.471 494.573,-315.515 501,-300 508.409,-282.112 494.421,-263.316 481.183,-250.564"/>
<polygon fill="midnightblue" stroke="midnightblue" points="483.425,-247.874 473.642,-243.807 478.754,-253.087 483.425,-247.874"/>
</g>
<!-- Node23 -->
<g id="node23" class="node"><title>Node23</title>
<g id="a_node23"><a xlink:href="_instance_8hpp.html" target="_top" xlink:title="Declaração da struct Instance. ">
<polygon fill="white" stroke="black" points="419.5,-280.5 419.5,-299.5 492.5,-299.5 492.5,-280.5 419.5,-280.5"/>
<text text-anchor="middle" x="456" y="-287.5" font-family="Helvetica,sans-Serif" font-size="10.00">Instance.hpp</text>
</a>
</g>
</g>
<!-- Node5&#45;&gt;Node23 -->
<g id="edge43" class="edge"><title>Node5&#45;&gt;Node23</title>
<path fill="none" stroke="midnightblue" d="M450.834,-336.083C449.324,-328.927 448.894,-318.635 449.542,-309.691"/>
<polygon fill="midnightblue" stroke="midnightblue" points="453.015,-310.126 450.869,-299.751 446.077,-309.2 453.015,-310.126"/>
</g>
<!-- Node11&#45;&gt;Node6 -->
<g id="edge12" class="edge"><title>Node11&#45;&gt;Node6</title>
<path fill="none" stroke="midnightblue" d="M663.074,-56.4435C637.632,-47.3454 597.226,-32.8952 568.821,-22.7372"/>
<polygon fill="midnightblue" stroke="midnightblue" points="569.913,-19.4108 559.318,-19.339 567.556,-26.002 569.913,-19.4108"/>
</g>
<!-- Node12 -->
<g id="node12" class="node"><title>Node12</title>
<polygon fill="white" stroke="#bfbfbf" points="741,-0.5 741,-19.5 791,-19.5 791,-0.5 741,-0.5"/>
<text text-anchor="middle" x="766" y="-7.5" font-family="Helvetica,sans-Serif" font-size="10.00">fstream</text>
</g>
<!-- Node11&#45;&gt;Node12 -->
<g id="edge13" class="edge"><title>Node11&#45;&gt;Node12</title>
<path fill="none" stroke="midnightblue" d="M699.693,-56.324C711.901,-47.979 730.578,-35.2122 745.003,-25.3524"/>
<polygon fill="midnightblue" stroke="midnightblue" points="747.058,-28.1871 753.339,-19.6545 743.108,-22.4082 747.058,-28.1871"/>
</g>
<!-- Node13&#45;&gt;Node6 -->
<g id="edge15" class="edge"><title>Node13&#45;&gt;Node6</title>
<path fill="none" stroke="midnightblue" d="M619.269,-168.075C605.297,-141.719 564.032,-63.878 545.362,-28.6608"/>
<polygon fill="midnightblue" stroke="midnightblue" points="548.318,-26.7641 540.542,-19.5681 542.134,-30.0427 548.318,-26.7641"/>
</g>
<!-- Node13&#45;&gt;Node11 -->
<g id="edge21" class="edge"><title>Node13&#45;&gt;Node11</title>
<path fill="none" stroke="midnightblue" d="M628.944,-168.368C639.294,-150.296 663.417,-108.176 677.088,-84.3074"/>
<polygon fill="midnightblue" stroke="midnightblue" points="680.147,-86.0085 682.079,-75.5914 674.072,-82.5295 680.147,-86.0085"/>
</g>
<!-- Node13&#45;&gt;Node14 -->
<g id="edge16" class="edge"><title>Node13&#45;&gt;Node14</title>
<path fill="none" stroke="midnightblue" d="M598.489,-168.444C571.404,-159.359 528.41,-144.939 498.131,-134.783"/>
<polygon fill="midnightblue" stroke="midnightblue" points="498.986,-131.378 488.392,-131.516 496.76,-138.015 498.986,-131.378"/>
</g>
<!-- Node14&#45;&gt;Node6 -->
<g id="edge17" class="edge"><title>Node14&#45;&gt;Node6</title>
<path fill="none" stroke="midnightblue" d="M468.728,-112.368C480.775,-94.2153 508.923,-51.8015 524.725,-27.9902"/>
<polygon fill="midnightblue" stroke="midnightblue" points="527.685,-29.8589 530.298,-19.5914 521.853,-25.9882 527.685,-29.8589"/>
</g>
<!-- Node14&#45;&gt;Node7 -->
<g id="edge18" class="edge"><title>Node14&#45;&gt;Node7</title>
<path fill="none" stroke="midnightblue" d="M418.391,-114.963C337.346,-103.994 167.744,-81.0405 96.5561,-71.4061"/>
<polygon fill="midnightblue" stroke="midnightblue" points="96.7754,-67.9039 86.3963,-70.0311 95.8365,-74.8407 96.7754,-67.9039"/>
</g>
<!-- Node14&#45;&gt;Node11 -->
<g id="edge20" class="edge"><title>Node14&#45;&gt;Node11</title>
<path fill="none" stroke="midnightblue" d="M498.493,-112.444C538.04,-102.91 601.963,-87.5001 644.234,-77.3096"/>
<polygon fill="midnightblue" stroke="midnightblue" points="645.322,-80.6477 654.223,-74.9015 643.682,-73.8427 645.322,-80.6477"/>
</g>
<!-- Node14&#45;&gt;Node12 -->
<g id="edge19" class="edge"><title>Node14&#45;&gt;Node12</title>
<path fill="none" stroke="midnightblue" d="M486.776,-112.368C540.43,-92.89 671.026,-45.479 732.7,-23.089"/>
<polygon fill="midnightblue" stroke="midnightblue" points="734.129,-26.2938 742.335,-19.5914 731.74,-19.714 734.129,-26.2938"/>
</g>
<!-- Node15&#45;&gt;Node6 -->
<g id="edge24" class="edge"><title>Node15&#45;&gt;Node6</title>
<path fill="none" stroke="midnightblue" d="M416.881,-230.074C360.254,-225.352 267.98,-213.825 247,-188 241.395,-181.101 242.456,-175.64 247,-168 303.543,-72.9342 439.995,-31.8435 503.044,-17.4762"/>
<polygon fill="midnightblue" stroke="midnightblue" points="503.848,-20.8832 512.865,-15.3205 502.347,-14.0459 503.848,-20.8832"/>
</g>
<!-- Node15&#45;&gt;Node7 -->
<g id="edge27" class="edge"><title>Node15&#45;&gt;Node7</title>
<path fill="none" stroke="midnightblue" d="M416.892,-228.57C372.345,-223.052 302.96,-211.348 247,-188 180.812,-160.385 112.986,-107.931 81.7402,-82.1182"/>
<polygon fill="midnightblue" stroke="midnightblue" points="83.8457,-79.3164 73.929,-75.5869 79.3555,-84.6865 83.8457,-79.3164"/>
</g>
<!-- Node15&#45;&gt;Node11 -->
<g id="edge30" class="edge"><title>Node15&#45;&gt;Node11</title>
<path fill="none" stroke="midnightblue" d="M507.288,-229.599C563.06,-224.407 653.117,-212.417 675,-188 700.272,-159.801 696.02,-111.714 691.211,-85.4529"/>
<polygon fill="midnightblue" stroke="midnightblue" points="694.639,-84.7483 689.2,-75.6563 687.782,-86.1558 694.639,-84.7483"/>
</g>
<!-- Node15&#45;&gt;Node13 -->
<g id="edge31" class="edge"><title>Node15&#45;&gt;Node13</title>
<path fill="none" stroke="midnightblue" d="M487.669,-224.444C514.923,-215.359 558.184,-200.939 588.651,-190.783"/>
<polygon fill="midnightblue" stroke="midnightblue" points="590.071,-193.999 598.451,-187.516 587.857,-187.358 590.071,-193.999"/>
</g>
<!-- Node15&#45;&gt;Node14 -->
<g id="edge41" class="edge"><title>Node15&#45;&gt;Node14</title>
<path fill="none" stroke="midnightblue" d="M462.078,-224.368C462.24,-206.617 462.612,-165.666 462.831,-141.597"/>
<polygon fill="midnightblue" stroke="midnightblue" points="466.331,-141.623 462.922,-131.591 459.331,-141.559 466.331,-141.623"/>
</g>
<!-- Node15&#45;&gt;Node16 -->
<g id="edge25" class="edge"><title>Node15&#45;&gt;Node16</title>
<path fill="none" stroke="midnightblue" d="M507.065,-230.452C584.59,-225.611 748.29,-213.38 895.819,-187.969"/>
<polygon fill="midnightblue" stroke="midnightblue" points="896.713,-191.366 905.961,-186.197 895.508,-184.471 896.713,-191.366"/>
</g>
<!-- Node17 -->
<g id="node17" class="node"><title>Node17</title>
<polygon fill="white" stroke="#bfbfbf" points="256,-168.5 256,-187.5 302,-187.5 302,-168.5 256,-168.5"/>
<text text-anchor="middle" x="279" y="-175.5" font-family="Helvetica,sans-Serif" font-size="10.00">cstring</text>
</g>
<!-- Node15&#45;&gt;Node17 -->
<g id="edge26" class="edge"><title>Node15&#45;&gt;Node17</title>
<path fill="none" stroke="midnightblue" d="M433.003,-224.444C399.981,-214.699 346.153,-198.816 311.674,-188.641"/>
<polygon fill="midnightblue" stroke="midnightblue" points="312.649,-185.28 302.067,-185.807 310.668,-191.994 312.649,-185.28"/>
</g>
<!-- Node18 -->
<g id="node18" class="node"><title>Node18</title>
<polygon fill="white" stroke="#bfbfbf" points="320,-168.5 320,-187.5 372,-187.5 372,-168.5 320,-168.5"/>
<text text-anchor="middle" x="346" y="-175.5" font-family="Helvetica,sans-Serif" font-size="10.00">memory</text>
</g>
<!-- Node15&#45;&gt;Node18 -->
<g id="edge28" class="edge"><title>Node15&#45;&gt;Node18</title>
<path fill="none" stroke="midnightblue" d="M443.619,-224.444C424.784,-215.675 395.269,-201.935 373.621,-191.858"/>
<polygon fill="midnightblue" stroke="midnightblue" points="374.838,-188.564 364.295,-187.516 371.883,-194.91 374.838,-188.564"/>
</g>
<!-- Node19 -->
<g id="node19" class="node"><title>Node19</title>
<polygon fill="white" stroke="#bfbfbf" points="390.5,-168.5 390.5,-187.5 433.5,-187.5 433.5,-168.5 390.5,-168.5"/>
<text text-anchor="middle" x="412" y="-175.5" font-family="Helvetica,sans-Serif" font-size="10.00">cstdio</text>
</g>
<!-- Node15&#45;&gt;Node19 -->
<g id="edge29" class="edge"><title>Node15&#45;&gt;Node19</title>
<path fill="none" stroke="midnightblue" d="M453.744,-224.083C446.535,-216.298 435.89,-204.801 427.154,-195.367"/>
<polygon fill="midnightblue" stroke="midnightblue" points="429.465,-192.711 420.103,-187.751 424.329,-197.467 429.465,-192.711"/>
</g>
<!-- Node20 -->
<g id="node20" class="node"><title>Node20</title>
<g id="a_node20"><a xlink:href="_interface_info_8hpp.html" target="_top" xlink:title="Declarações das funções e atributos de InterfaceInfo. ">
<polygon fill="white" stroke="black" points="798,-168.5 798,-187.5 888,-187.5 888,-168.5 798,-168.5"/>
<text text-anchor="middle" x="843" y="-175.5" font-family="Helvetica,sans-Serif" font-size="10.00">InterfaceInfo.hpp</text>
</a>
</g>
</g>
<!-- Node15&#45;&gt;Node20 -->
<g id="edge32" class="edge"><title>Node15&#45;&gt;Node20</title>
<path fill="none" stroke="midnightblue" d="M507.202,-226.593C577.235,-216.668 711.77,-197.6 787.565,-186.857"/>
<polygon fill="midnightblue" stroke="midnightblue" points="788.447,-190.267 797.857,-185.398 787.465,-183.336 788.447,-190.267"/>
</g>
<!-- Node22 -->
<g id="node22" class="node"><title>Node22</title>
<g id="a_node22"><a xlink:href="_field_info_8hpp.html" target="_top" xlink:title="Declarações das funções do FieldInfo para tratamento dos fields do arquivo .class. ">
<polygon fill="white" stroke="black" points="490.5,-168.5 490.5,-187.5 563.5,-187.5 563.5,-168.5 490.5,-168.5"/>
<text text-anchor="middle" x="527" y="-175.5" font-family="Helvetica,sans-Serif" font-size="10.00">FieldInfo.hpp</text>
</a>
</g>
</g>
<!-- Node15&#45;&gt;Node22 -->
<g id="edge37" class="edge"><title>Node15&#45;&gt;Node22</title>
<path fill="none" stroke="midnightblue" d="M472.443,-224.324C482.146,-216.263 496.815,-204.077 508.5,-194.369"/>
<polygon fill="midnightblue" stroke="midnightblue" points="510.911,-196.916 516.367,-187.834 506.438,-191.532 510.911,-196.916"/>
</g>
<!-- Node20&#45;&gt;Node6 -->
<g id="edge34" class="edge"><title>Node20&#45;&gt;Node6</title>
<path fill="none" stroke="midnightblue" d="M837.523,-168.278C822.843,-145.69 780.168,-85.0305 728,-56 677.057,-27.6512 608.935,-17.1056 569.028,-13.2219"/>
<polygon fill="midnightblue" stroke="midnightblue" points="569.309,-9.73316 559.038,-12.3324 568.688,-16.7056 569.309,-9.73316"/>
</g>
<!-- Node20&#45;&gt;Node12 -->
<g id="edge33" class="edge"><title>Node20&#45;&gt;Node12</title>
<path fill="none" stroke="midnightblue" d="M843.5,-168.382C844.309,-147.521 843.987,-93.2809 822,-56 814.551,-43.3694 802.132,-32.8488 790.88,-25.1643"/>
<polygon fill="midnightblue" stroke="midnightblue" points="792.533,-22.0665 782.223,-19.6233 788.759,-27.9622 792.533,-22.0665"/>
</g>
<!-- Node20&#45;&gt;Node21 -->
<g id="edge35" class="edge"><title>Node20&#45;&gt;Node21</title>
<path fill="none" stroke="midnightblue" d="M860.673,-168.324C878.394,-159.625 905.903,-146.12 926.288,-136.113"/>
<polygon fill="midnightblue" stroke="midnightblue" points="927.936,-139.203 935.37,-131.655 924.851,-132.919 927.936,-139.203"/>
</g>
<!-- Node21&#45;&gt;Node12 -->
<g id="edge36" class="edge"><title>Node21&#45;&gt;Node12</title>
<path fill="none" stroke="midnightblue" d="M941.942,-112.376C924.907,-99.2996 890.965,-74.0697 860,-56 839.108,-43.808 814.399,-32.0771 795.559,-23.6509"/>
<polygon fill="midnightblue" stroke="midnightblue" points="796.855,-20.3971 786.293,-19.5609 794.028,-26.801 796.855,-20.3971"/>
</g>
<!-- Node22&#45;&gt;Node6 -->
<g id="edge40" class="edge"><title>Node22&#45;&gt;Node6</title>
<path fill="none" stroke="midnightblue" d="M527.484,-168.075C528.901,-141.945 533.061,-65.2106 534.993,-29.577"/>
<polygon fill="midnightblue" stroke="midnightblue" points="538.489,-29.743 535.535,-19.5681 531.499,-29.3639 538.489,-29.743"/>
</g>
<!-- Node22&#45;&gt;Node11 -->
<g id="edge38" class="edge"><title>Node22&#45;&gt;Node11</title>
<path fill="none" stroke="midnightblue" d="M539.555,-168.368C566.894,-149.573 632.064,-104.768 665.861,-81.5334"/>
<polygon fill="midnightblue" stroke="midnightblue" points="668.246,-84.1409 674.503,-75.5914 664.28,-78.3726 668.246,-84.1409"/>
</g>
<!-- Node22&#45;&gt;Node14 -->
<g id="edge39" class="edge"><title>Node22&#45;&gt;Node14</title>
<path fill="none" stroke="midnightblue" d="M516.717,-168.324C507.164,-160.263 492.72,-148.077 481.216,-138.369"/>
<polygon fill="midnightblue" stroke="midnightblue" points="483.37,-135.608 473.47,-131.834 478.856,-140.958 483.37,-135.608"/>
</g>
<!-- Node23&#45;&gt;Node3 -->
<g id="edge45" class="edge"><title>Node23&#45;&gt;Node3</title>
<path fill="none" stroke="midnightblue" d="M490.384,-280.444C532.381,-269.993 602.754,-252.481 642.768,-242.523"/>
<polygon fill="midnightblue" stroke="midnightblue" points="643.63,-245.915 652.489,-240.104 641.94,-239.123 643.63,-245.915"/>
</g>
<!-- Node23&#45;&gt;Node5 -->
<g id="edge47" class="edge"><title>Node23&#45;&gt;Node5</title>
<path fill="none" stroke="midnightblue" d="M461.131,-299.751C462.657,-306.858 463.104,-317.136 462.472,-326.101"/>
<polygon fill="midnightblue" stroke="midnightblue" points="458.993,-325.713 461.166,-336.083 465.934,-326.622 458.993,-325.713"/>
</g>
<!-- Node23&#45;&gt;Node9 -->
<g id="edge44" class="edge"><title>Node23&#45;&gt;Node9</title>
<path fill="none" stroke="midnightblue" d="M427.162,-280.444C392.644,-270.202 335.27,-253.179 301.401,-243.13"/>
<polygon fill="midnightblue" stroke="midnightblue" points="302.279,-239.74 291.697,-240.251 300.288,-246.451 302.279,-239.74"/>
</g>
<!-- Node23&#45;&gt;Node15 -->
<g id="edge46" class="edge"><title>Node23&#45;&gt;Node15</title>
<path fill="none" stroke="midnightblue" d="M456.991,-280.083C457.786,-272.927 458.929,-262.635 459.923,-253.691"/>
<polygon fill="midnightblue" stroke="midnightblue" points="463.402,-254.076 461.028,-243.751 456.445,-253.303 463.402,-254.076"/>
</g>
<!-- Node24&#45;&gt;Node21 -->
<g id="edge51" class="edge"><title>Node24&#45;&gt;Node21</title>
<path fill="none" stroke="midnightblue" d="M958.585,-392.44C967.866,-374.29 988,-330.378 988,-291 988,-291 988,-291 988,-233 988,-199.072 972.693,-161.911 962.325,-140.631"/>
<polygon fill="midnightblue" stroke="midnightblue" points="965.362,-138.882 957.72,-131.544 959.118,-142.046 965.362,-138.882"/>
</g>
<!-- Node25&#45;&gt;Node3 -->
<g id="edge53" class="edge"><title>Node25&#45;&gt;Node3</title>
<path fill="none" stroke="midnightblue" d="M754.415,-280.324C739.001,-271.743 715.188,-258.486 697.29,-248.522"/>
<polygon fill="midnightblue" stroke="midnightblue" points="698.986,-245.461 688.546,-243.655 695.581,-251.577 698.986,-245.461"/>
</g>
<!-- Node25&#45;&gt;Node7 -->
<g id="edge54" class="edge"><title>Node25&#45;&gt;Node7</title>
<path fill="none" stroke="midnightblue" d="M708.186,-287.911C605.636,-283.837 396.169,-265.767 240,-188 178.107,-157.179 113.001,-107.06 82.2001,-82.1088"/>
<polygon fill="midnightblue" stroke="midnightblue" points="84.4109,-79.3954 74.4537,-75.7755 79.9802,-84.8147 84.4109,-79.3954"/>
</g>
<!-- Node25&#45;&gt;Node11 -->
<g id="edge55" class="edge"><title>Node25&#45;&gt;Node11</title>
<path fill="none" stroke="midnightblue" d="M771.047,-280.147C773.825,-252.918 779.064,-168.822 746,-112 738.41,-98.9569 725.413,-88.4283 713.546,-80.8439"/>
<polygon fill="midnightblue" stroke="midnightblue" points="715.181,-77.7436 704.8,-75.6251 711.594,-83.7548 715.181,-77.7436"/>
</g>
</g>
</svg>
