<?xml version="1.0" encoding="UTF-8" standalone="no"?>
<!DOCTYPE svg PUBLIC "-//W3C//DTD SVG 1.1//EN"
 "http://www.w3.org/Graphics/SVG/1.1/DTD/svg11.dtd">
<!-- Generated by graphviz version 2.38.0 (20140413.2041)
 -->
<!-- Title: ByteReader.hpp Pages: 1 -->
<svg width="938pt" height="364pt"
 viewBox="0.00 0.00 937.50 364.00" xmlns="http://www.w3.org/2000/svg" xmlns:xlink="http://www.w3.org/1999/xlink">
<g id="graph0" class="graph" transform="scale(1 1) rotate(0) translate(4 360)">
<title>ByteReader.hpp</title>
<polygon fill="white" stroke="none" points="-4,4 -4,-360 933.5,-360 933.5,4 -4,4"/>
<!-- Node1 -->
<g id="node1" class="node"><title>Node1</title>
<polygon fill="#bfbfbf" stroke="black" points="599,-336.5 599,-355.5 686,-355.5 686,-336.5 599,-336.5"/>
<text text-anchor="middle" x="642.5" y="-343.5" font-family="Helvetica,sans-Serif" font-size="10.00">ByteReader.hpp</text>
</g>
<!-- Node2 -->
<g id="node2" class="node"><title>Node2</title>
<g id="a_node2"><a xlink:href="_interface_info_8hpp.html" target="_top" xlink:title="Declarações das funções e atributos de InterfaceInfo. ">
<polygon fill="white" stroke="black" points="524.5,-280.5 524.5,-299.5 614.5,-299.5 614.5,-280.5 524.5,-280.5"/>
<text text-anchor="middle" x="569.5" y="-287.5" font-family="Helvetica,sans-Serif" font-size="10.00">InterfaceInfo.hpp</text>
</a>
</g>
</g>
<!-- Node1&#45;&gt;Node2 -->
<g id="edge1" class="edge"><title>Node1&#45;&gt;Node2</title>
<path fill="none" stroke="midnightblue" d="M622.358,-330.101C609.221,-320.382 592.518,-308.027 581.442,-299.834"/>
<polygon fill="midnightblue" stroke="midnightblue" points="620.65,-333.191 630.771,-336.324 624.813,-327.563 620.65,-333.191"/>
</g>
<!-- Node7 -->
<g id="node7" class="node"><title>Node7</title>
<g id="a_node7"><a xlink:href="_attribute_info_8cpp.html" target="_top" xlink:title="Tem os métodos para adiquirir as informações dos atributos;. ">
<polygon fill="white" stroke="black" points="0,-0.5 0,-19.5 89,-19.5 89,-0.5 0,-0.5"/>
<text text-anchor="middle" x="44.5" y="-7.5" font-family="Helvetica,sans-Serif" font-size="10.00">AttributeInfo.cpp</text>
</a>
</g>
</g>
<!-- Node1&#45;&gt;Node7 -->
<g id="edge32" class="edge"><title>Node1&#45;&gt;Node7</title>
<path fill="none" stroke="midnightblue" d="M588.65,-341.347C435.169,-330.221 6.5,-293.877 6.5,-235 6.5,-235 6.5,-235 6.5,-121 6.5,-81.3989 28.7749,-37.957 39.2163,-19.769"/>
<polygon fill="midnightblue" stroke="midnightblue" points="588.56,-344.85 598.785,-342.074 589.061,-337.867 588.56,-344.85"/>
</g>
<!-- Node18 -->
<g id="node18" class="node"><title>Node18</title>
<g id="a_node18"><a xlink:href="_class_loader_8cpp.html" target="_top" xlink:title="Arquivo que obtém os bytecodes do .class e realiza o carregamento dessas informações;. ">
<polygon fill="white" stroke="black" points="660.5,-168.5 660.5,-187.5 750.5,-187.5 750.5,-168.5 660.5,-168.5"/>
<text text-anchor="middle" x="705.5" y="-175.5" font-family="Helvetica,sans-Serif" font-size="10.00">ClassLoader.cpp</text>
</a>
</g>
</g>
<!-- Node1&#45;&gt;Node18 -->
<g id="edge35" class="edge"><title>Node1&#45;&gt;Node18</title>
<path fill="none" stroke="midnightblue" d="M647.167,-326.765C650.69,-313.625 655.868,-295.544 661.5,-280 674.14,-245.114 692.891,-205.1 701.232,-187.764"/>
<polygon fill="midnightblue" stroke="midnightblue" points="643.772,-325.915 644.623,-336.476 650.543,-327.689 643.772,-325.915"/>
</g>
<!-- Node22 -->
<g id="node22" class="node"><title>Node22</title>
<g id="a_node22"><a xlink:href="_byte_reader_8cpp.html" target="_top" xlink:title="Intuito é buscar obinário a partir do .class passado pelo arquivo. ">
<polygon fill="white" stroke="black" points="173,-224.5 173,-243.5 260,-243.5 260,-224.5 173,-224.5"/>
<text text-anchor="middle" x="216.5" y="-231.5" font-family="Helvetica,sans-Serif" font-size="10.00">ByteReader.cpp</text>
</a>
</g>
</g>
<!-- Node1&#45;&gt;Node22 -->
<g id="edge33" class="edge"><title>Node1&#45;&gt;Node22</title>
<path fill="none" stroke="midnightblue" d="M599.573,-333.916C514.446,-311.934 325.894,-263.247 249.552,-243.535"/>
<polygon fill="midnightblue" stroke="midnightblue" points="598.869,-337.349 609.427,-336.46 600.62,-330.571 598.869,-337.349"/>
</g>
<!-- Node23 -->
<g id="node23" class="node"><title>Node23</title>
<g id="a_node23"><a xlink:href="_cp_info_8cpp.html" target="_top" xlink:title="Ocorre os set&#39;s a partir dos bytes lidos no problema;. ">
<polygon fill="white" stroke="black" points="671,-280.5 671,-299.5 736,-299.5 736,-280.5 671,-280.5"/>
<text text-anchor="middle" x="703.5" y="-287.5" font-family="Helvetica,sans-Serif" font-size="10.00">CpInfo.cpp</text>
</a>
</g>
</g>
<!-- Node1&#45;&gt;Node23 -->
<g id="edge36" class="edge"><title>Node1&#45;&gt;Node23</title>
<path fill="none" stroke="midnightblue" d="M659.967,-329.537C670.844,-319.909 684.444,-307.869 693.521,-299.834"/>
<polygon fill="midnightblue" stroke="midnightblue" points="657.468,-327.075 652.301,-336.324 662.108,-332.316 657.468,-327.075"/>
</g>
<!-- Node24 -->
<g id="node24" class="node"><title>Node24</title>
<g id="a_node24"><a xlink:href="_field_info_8cpp.html" target="_top" xlink:title="Funções que mexerão com as informações das fields, armazendo os mesmos a partir da leitura dos byteco...">
<polygon fill="white" stroke="black" points="754,-280.5 754,-299.5 827,-299.5 827,-280.5 754,-280.5"/>
<text text-anchor="middle" x="790.5" y="-287.5" font-family="Helvetica,sans-Serif" font-size="10.00">FieldInfo.cpp</text>
</a>
</g>
</g>
<!-- Node1&#45;&gt;Node24 -->
<g id="edge37" class="edge"><title>Node1&#45;&gt;Node24</title>
<path fill="none" stroke="midnightblue" d="M675.647,-332.906C703.472,-322.754 742.52,-308.506 767.159,-299.516"/>
<polygon fill="midnightblue" stroke="midnightblue" points="674.146,-329.728 665.951,-336.444 676.545,-336.304 674.146,-329.728"/>
</g>
<!-- Node25 -->
<g id="node25" class="node"><title>Node25</title>
<g id="a_node25"><a xlink:href="_method_info_8cpp.html" target="_top" xlink:title="Métodos que simulam as a leitura dos methods assim como um destrutor;. ">
<polygon fill="white" stroke="black" points="845.5,-280.5 845.5,-299.5 929.5,-299.5 929.5,-280.5 845.5,-280.5"/>
<text text-anchor="middle" x="887.5" y="-287.5" font-family="Helvetica,sans-Serif" font-size="10.00">MethodInfo.cpp</text>
</a>
</g>
</g>
<!-- Node1&#45;&gt;Node25 -->
<g id="edge38" class="edge"><title>Node1&#45;&gt;Node25</title>
<path fill="none" stroke="midnightblue" d="M691.13,-334.281C737.429,-324.077 806.195,-308.92 848.861,-299.516"/>
<polygon fill="midnightblue" stroke="midnightblue" points="690.333,-330.873 681.321,-336.444 691.84,-337.709 690.333,-330.873"/>
</g>
<!-- Node3 -->
<g id="node3" class="node"><title>Node3</title>
<g id="a_node3"><a xlink:href="_class_loader_8hpp.html" target="_top" xlink:title="Declarações das funções do ClassLoader para salvar todos os bytes de .class corretamente. ">
<polygon fill="white" stroke="black" points="416.5,-224.5 416.5,-243.5 506.5,-243.5 506.5,-224.5 416.5,-224.5"/>
<text text-anchor="middle" x="461.5" y="-231.5" font-family="Helvetica,sans-Serif" font-size="10.00">ClassLoader.hpp</text>
</a>
</g>
</g>
<!-- Node2&#45;&gt;Node3 -->
<g id="edge2" class="edge"><title>Node2&#45;&gt;Node3</title>
<path fill="none" stroke="midnightblue" d="M542.952,-275.726C522.954,-265.727 496.113,-252.307 478.809,-243.655"/>
<polygon fill="midnightblue" stroke="midnightblue" points="541.638,-278.982 552.148,-280.324 544.769,-272.721 541.638,-278.982"/>
</g>
<!-- Node21 -->
<g id="node21" class="node"><title>Node21</title>
<g id="a_node21"><a xlink:href="_interface_info_8cpp.html" target="_top" xlink:title="Método para carregar informações para a InterfaceInfo;. ">
<polygon fill="white" stroke="black" points="524.5,-224.5 524.5,-243.5 614.5,-243.5 614.5,-224.5 524.5,-224.5"/>
<text text-anchor="middle" x="569.5" y="-231.5" font-family="Helvetica,sans-Serif" font-size="10.00">InterfaceInfo.cpp</text>
</a>
</g>
</g>
<!-- Node2&#45;&gt;Node21 -->
<g id="edge31" class="edge"><title>Node2&#45;&gt;Node21</title>
<path fill="none" stroke="midnightblue" d="M569.5,-269.805C569.5,-260.91 569.5,-250.78 569.5,-243.751"/>
<polygon fill="midnightblue" stroke="midnightblue" points="566,-270.083 569.5,-280.083 573,-270.083 566,-270.083"/>
</g>
<!-- Node4 -->
<g id="node4" class="node"><title>Node4</title>
<g id="a_node4"><a xlink:href="_frame_8hpp.html" target="_top" xlink:title="Declarações das funções e da estrutura do Frame, utilizado para salvar resultados parciais...">
<polygon fill="white" stroke="black" points="275,-168.5 275,-187.5 338,-187.5 338,-168.5 275,-168.5"/>
<text text-anchor="middle" x="306.5" y="-175.5" font-family="Helvetica,sans-Serif" font-size="10.00">Frame.hpp</text>
</a>
</g>
</g>
<!-- Node3&#45;&gt;Node4 -->
<g id="edge3" class="edge"><title>Node3&#45;&gt;Node4</title>
<path fill="none" stroke="midnightblue" d="M427.168,-221.039C398.003,-210.879 356.863,-196.546 330.945,-187.516"/>
<polygon fill="midnightblue" stroke="midnightblue" points="426.345,-224.459 436.94,-224.444 428.648,-217.848 426.345,-224.459"/>
</g>
<!-- Node9 -->
<g id="node9" class="node"><title>Node9</title>
<g id="a_node9"><a xlink:href="_instance_8hpp.html" target="_top" xlink:title="Declaração da struct Instance. ">
<polygon fill="white" stroke="black" points="425,-112.5 425,-131.5 498,-131.5 498,-112.5 425,-112.5"/>
<text text-anchor="middle" x="461.5" y="-119.5" font-family="Helvetica,sans-Serif" font-size="10.00">Instance.hpp</text>
</a>
</g>
</g>
<!-- Node3&#45;&gt;Node9 -->
<g id="edge25" class="edge"><title>Node3&#45;&gt;Node9</title>
<path fill="none" stroke="midnightblue" d="M461.5,-214.348C461.5,-190.254 461.5,-149.308 461.5,-131.591"/>
<polygon fill="midnightblue" stroke="midnightblue" points="458,-214.368 461.5,-224.368 465,-214.369 458,-214.368"/>
</g>
<!-- Node14 -->
<g id="node14" class="node"><title>Node14</title>
<g id="a_node14"><a xlink:href="jvm_8cpp.html" target="_top" xlink:title="Arquivo inicial em que é selecionado ou a exibição do leitor ou do interpretador dependendo da chamad...">
<polygon fill="white" stroke="black" points="532,-0.5 532,-19.5 583,-19.5 583,-0.5 532,-0.5"/>
<text text-anchor="middle" x="557.5" y="-7.5" font-family="Helvetica,sans-Serif" font-size="10.00">jvm.cpp</text>
</a>
</g>
</g>
<!-- Node3&#45;&gt;Node14 -->
<g id="edge28" class="edge"><title>Node3&#45;&gt;Node14</title>
<path fill="none" stroke="midnightblue" d="M511.65,-222.041C545.92,-213.579 587.263,-201.128 599.5,-188 639.726,-144.845 638.998,-109.201 613.5,-56 605.576,-39.4667 588.287,-27.0831 575.002,-19.5351"/>
<polygon fill="midnightblue" stroke="midnightblue" points="510.645,-218.683 501.743,-224.428 512.284,-225.489 510.645,-218.683"/>
</g>
<!-- Node16 -->
<g id="node16" class="node"><title>Node16</title>
<g id="a_node16"><a xlink:href="_interpreter_8hpp.html" target="_top" xlink:title="Declarações das funções e atributos do Interpretador para interpretar o que foi lido do ...">
<polygon fill="white" stroke="black" points="322.5,-56.5 322.5,-75.5 402.5,-75.5 402.5,-56.5 322.5,-56.5"/>
<text text-anchor="middle" x="362.5" y="-63.5" font-family="Helvetica,sans-Serif" font-size="10.00">Interpreter.hpp</text>
</a>
</g>
</g>
<!-- Node3&#45;&gt;Node16 -->
<g id="edge27" class="edge"><title>Node3&#45;&gt;Node16</title>
<path fill="none" stroke="midnightblue" d="M450.951,-215.312C429.844,-179.921 383.114,-101.565 367.61,-75.5681"/>
<polygon fill="midnightblue" stroke="midnightblue" points="448.049,-217.279 456.177,-224.075 454.061,-213.694 448.049,-217.279"/>
</g>
<!-- Node3&#45;&gt;Node18 -->
<g id="edge26" class="edge"><title>Node3&#45;&gt;Node18</title>
<path fill="none" stroke="midnightblue" d="M509.932,-222.281C556.041,-212.077 624.527,-196.92 667.018,-187.516"/>
<polygon fill="midnightblue" stroke="midnightblue" points="509.17,-218.865 500.163,-224.444 510.683,-225.7 509.17,-218.865"/>
</g>
<!-- Node19 -->
<g id="node19" class="node"><title>Node19</title>
<g id="a_node19"><a xlink:href="_method_area_8hpp.html" target="_top" xlink:title="Declarações do MethodArea, estrutura responsável por guardar todas as estruturas ClassLoader. ">
<polygon fill="white" stroke="black" points="502.5,-168.5 502.5,-187.5 590.5,-187.5 590.5,-168.5 502.5,-168.5"/>
<text text-anchor="middle" x="546.5" y="-175.5" font-family="Helvetica,sans-Serif" font-size="10.00">MethodArea.hpp</text>
</a>
</g>
</g>
<!-- Node3&#45;&gt;Node19 -->
<g id="edge29" class="edge"><title>Node3&#45;&gt;Node19</title>
<path fill="none" stroke="midnightblue" d="M483.694,-218.901C499.28,-208.999 519.63,-196.071 532.877,-187.655"/>
<polygon fill="midnightblue" stroke="midnightblue" points="481.721,-216.007 475.157,-224.324 485.474,-221.916 481.721,-216.007"/>
</g>
<!-- Node5 -->
<g id="node5" class="node"><title>Node5</title>
<g id="a_node5"><a xlink:href="_instruction_impl_8hpp.html" target="_top" xlink:title="Declarações das funções do ClassLoader para salvar todos os bytes de .class corretamente. ">
<polygon fill="white" stroke="black" points="110.5,-112.5 110.5,-131.5 210.5,-131.5 210.5,-112.5 110.5,-112.5"/>
<text text-anchor="middle" x="160.5" y="-119.5" font-family="Helvetica,sans-Serif" font-size="10.00">InstructionImpl.hpp</text>
</a>
</g>
</g>
<!-- Node4&#45;&gt;Node5 -->
<g id="edge4" class="edge"><title>Node4&#45;&gt;Node5</title>
<path fill="none" stroke="midnightblue" d="M273.801,-164.906C246.352,-154.754 207.832,-140.506 183.526,-131.516"/>
<polygon fill="midnightblue" stroke="midnightblue" points="272.773,-168.257 283.366,-168.444 275.201,-161.692 272.773,-168.257"/>
</g>
<!-- Node4&#45;&gt;Node9 -->
<g id="edge10" class="edge"><title>Node4&#45;&gt;Node9</title>
<path fill="none" stroke="midnightblue" d="M335.478,-164.906C363.076,-154.754 404.19,-140.506 431.975,-131.516"/>
<polygon fill="midnightblue" stroke="midnightblue" points="334.123,-161.676 325.971,-168.444 336.564,-168.236 334.123,-161.676"/>
</g>
<!-- Node12 -->
<g id="node12" class="node"><title>Node12</title>
<g id="a_node12"><a xlink:href="_instruction_impl_8cpp.html" target="_top" xlink:title="Métodos referentes a execução de cada instrução ;. ">
<polygon fill="white" stroke="black" points="312.5,-0.5 312.5,-19.5 412.5,-19.5 412.5,-0.5 312.5,-0.5"/>
<text text-anchor="middle" x="362.5" y="-7.5" font-family="Helvetica,sans-Serif" font-size="10.00">InstructionImpl.cpp</text>
</a>
</g>
</g>
<!-- Node4&#45;&gt;Node12 -->
<g id="edge23" class="edge"><title>Node4&#45;&gt;Node12</title>
<path fill="none" stroke="midnightblue" d="M296.206,-159.083C290.005,-146.122 283.939,-128.125 287.5,-112 293.417,-85.2049 297.305,-78.1518 313.5,-56 324.134,-41.4547 340.003,-27.9263 350.779,-19.5766"/>
<polygon fill="midnightblue" stroke="midnightblue" points="293.279,-161.038 301.027,-168.266 299.477,-157.785 293.279,-161.038"/>
</g>
<!-- Node4&#45;&gt;Node16 -->
<g id="edge24" class="edge"><title>Node4&#45;&gt;Node16</title>
<path fill="none" stroke="midnightblue" d="M297.69,-159.205C292.262,-145.561 287.693,-126.648 295.5,-112 304.793,-94.5648 324.174,-82.6843 339.712,-75.5289"/>
<polygon fill="midnightblue" stroke="midnightblue" points="294.546,-160.749 301.818,-168.454 300.939,-157.896 294.546,-160.749"/>
</g>
<!-- Node17 -->
<g id="node17" class="node"><title>Node17</title>
<g id="a_node17"><a xlink:href="_frame_8cpp.html" target="_top" xlink:title="Contrutor, destrutor e metodos para o funcionamento da lógica do frame;. ">
<polygon fill="white" stroke="black" points="305,-112.5 305,-131.5 368,-131.5 368,-112.5 305,-112.5"/>
<text text-anchor="middle" x="336.5" y="-119.5" font-family="Helvetica,sans-Serif" font-size="10.00">Frame.cpp</text>
</a>
</g>
</g>
<!-- Node4&#45;&gt;Node17 -->
<g id="edge22" class="edge"><title>Node4&#45;&gt;Node17</title>
<path fill="none" stroke="midnightblue" d="M316.347,-159.275C321.475,-150.045 327.516,-139.17 331.638,-131.751"/>
<polygon fill="midnightblue" stroke="midnightblue" points="313.251,-157.642 311.454,-168.083 319.37,-161.041 313.251,-157.642"/>
</g>
<!-- Node6 -->
<g id="node6" class="node"><title>Node6</title>
<g id="a_node6"><a xlink:href="_instruction_8hpp.html" target="_top" xlink:title="Declarações das instruçoes referentes ao interpretador da JVM. ">
<polygon fill="white" stroke="black" points="73,-56.5 73,-75.5 154,-75.5 154,-56.5 73,-56.5"/>
<text text-anchor="middle" x="113.5" y="-63.5" font-family="Helvetica,sans-Serif" font-size="10.00">Instruction.hpp</text>
</a>
</g>
</g>
<!-- Node5&#45;&gt;Node6 -->
<g id="edge5" class="edge"><title>Node5&#45;&gt;Node6</title>
<path fill="none" stroke="midnightblue" d="M146.079,-104.431C137.842,-94.9673 127.846,-83.4827 121.117,-75.7511"/>
<polygon fill="midnightblue" stroke="midnightblue" points="143.534,-106.838 152.739,-112.083 148.814,-102.242 143.534,-106.838"/>
</g>
<!-- Node8 -->
<g id="node8" class="node"><title>Node8</title>
<g id="a_node8"><a xlink:href="_instruction_8cpp.html" target="_top" xlink:title="Métodos que servem para inicializar todas as intruções contidas na documentação;. ...">
<polygon fill="white" stroke="black" points="125,-0.5 125,-19.5 206,-19.5 206,-0.5 125,-0.5"/>
<text text-anchor="middle" x="165.5" y="-7.5" font-family="Helvetica,sans-Serif" font-size="10.00">Instruction.cpp</text>
</a>
</g>
</g>
<!-- Node5&#45;&gt;Node8 -->
<g id="edge9" class="edge"><title>Node5&#45;&gt;Node8</title>
<path fill="none" stroke="midnightblue" d="M161.348,-102.348C162.443,-78.2538 164.304,-37.3079 165.109,-19.5914"/>
<polygon fill="midnightblue" stroke="midnightblue" points="157.85,-102.22 160.892,-112.368 164.843,-102.538 157.85,-102.22"/>
</g>
<!-- Node6&#45;&gt;Node4 -->
<g id="edge7" class="edge"><title>Node6&#45;&gt;Node4</title>
<path fill="none" stroke="midnightblue" d="M103.22,-84.8606C96.5345,-99.0922 90.8513,-118.76 101.5,-132 122.909,-158.619 222.928,-170.385 274.921,-174.776"/>
<polygon fill="midnightblue" stroke="midnightblue" points="106.515,-86.1119 108.046,-75.6282 100.312,-82.8691 106.515,-86.1119"/>
</g>
<!-- Node6&#45;&gt;Node7 -->
<g id="edge6" class="edge"><title>Node6&#45;&gt;Node7</title>
<path fill="none" stroke="midnightblue" d="M94.4621,-50.1008C82.0442,-40.3824 66.2566,-28.0269 55.7878,-19.8339"/>
<polygon fill="midnightblue" stroke="midnightblue" points="92.3818,-52.9171 102.414,-56.324 96.696,-47.4046 92.3818,-52.9171"/>
</g>
<!-- Node6&#45;&gt;Node8 -->
<g id="edge8" class="edge"><title>Node6&#45;&gt;Node8</title>
<path fill="none" stroke="midnightblue" d="M129.179,-48.7175C138.345,-39.1997 149.553,-27.5608 157.073,-19.7511"/>
<polygon fill="midnightblue" stroke="midnightblue" points="126.502,-46.452 122.087,-56.083 131.544,-51.3075 126.502,-46.452"/>
</g>
<!-- Node9&#45;&gt;Node4 -->
<g id="edge11" class="edge"><title>Node9&#45;&gt;Node4</title>
<path fill="none" stroke="midnightblue" d="M432.645,-135.049C405.087,-145.189 363.973,-159.438 336.149,-168.444"/>
<polygon fill="midnightblue" stroke="midnightblue" points="433.984,-138.285 442.135,-131.516 431.542,-131.725 433.984,-138.285"/>
</g>
<!-- Node10 -->
<g id="node10" class="node"><title>Node10</title>
<g id="a_node10"><a xlink:href="_g_l_o_b_a_l__file_8hpp.html" target="_top" xlink:title="Armazenas classes estáticas para serem usadas por todo o código. ">
<polygon fill="white" stroke="black" points="512.5,-56.5 512.5,-75.5 604.5,-75.5 604.5,-56.5 512.5,-56.5"/>
<text text-anchor="middle" x="558.5" y="-63.5" font-family="Helvetica,sans-Serif" font-size="10.00">GLOBAL_file.hpp</text>
</a>
</g>
</g>
<!-- Node9&#45;&gt;Node10 -->
<g id="edge12" class="edge"><title>Node9&#45;&gt;Node10</title>
<path fill="none" stroke="midnightblue" d="M485.835,-107.453C503.743,-97.4835 527.554,-84.2279 542.954,-75.6545"/>
<polygon fill="midnightblue" stroke="midnightblue" points="484.12,-104.402 477.085,-112.324 487.525,-110.518 484.12,-104.402"/>
</g>
<!-- Node15 -->
<g id="node15" class="node"><title>Node15</title>
<g id="a_node15"><a xlink:href="_instance_8cpp.html" target="_top" xlink:title="Contém métodos para carregar as informações do Classloader na Instância;. ">
<polygon fill="white" stroke="black" points="421,-56.5 421,-75.5 494,-75.5 494,-56.5 421,-56.5"/>
<text text-anchor="middle" x="457.5" y="-63.5" font-family="Helvetica,sans-Serif" font-size="10.00">Instance.cpp</text>
</a>
</g>
</g>
<!-- Node9&#45;&gt;Node15 -->
<g id="edge17" class="edge"><title>Node9&#45;&gt;Node15</title>
<path fill="none" stroke="midnightblue" d="M460.1,-102.101C459.436,-93.1357 458.675,-82.8579 458.148,-75.7511"/>
<polygon fill="midnightblue" stroke="midnightblue" points="456.61,-102.369 460.839,-112.083 463.591,-101.852 456.61,-102.369"/>
</g>
<!-- Node9&#45;&gt;Node16 -->
<g id="edge18" class="edge"><title>Node9&#45;&gt;Node16</title>
<path fill="none" stroke="midnightblue" d="M436.663,-107.453C418.386,-97.4835 394.084,-84.2279 378.367,-75.6545"/>
<polygon fill="midnightblue" stroke="midnightblue" points="435.139,-110.608 445.594,-112.324 438.491,-104.463 435.139,-110.608"/>
</g>
<!-- Node11 -->
<g id="node11" class="node"><title>Node11</title>
<g id="a_node11"><a xlink:href="_g_l_o_b_a_l__file_8cpp.html" target="_top" xlink:title="Contém métodos que serão utilizados de forma global, ao invés de termos que setar o mesmo para todos ...">
<polygon fill="white" stroke="black" points="601.5,-0.5 601.5,-19.5 693.5,-19.5 693.5,-0.5 601.5,-0.5"/>
<text text-anchor="middle" x="647.5" y="-7.5" font-family="Helvetica,sans-Serif" font-size="10.00">GLOBAL_file.cpp</text>
</a>
</g>
</g>
<!-- Node10&#45;&gt;Node11 -->
<g id="edge13" class="edge"><title>Node10&#45;&gt;Node11</title>
<path fill="none" stroke="midnightblue" d="M581.738,-50.9005C598.058,-40.9986 619.365,-28.0705 633.236,-19.6545"/>
<polygon fill="midnightblue" stroke="midnightblue" points="579.533,-48.1444 572.799,-56.324 583.164,-54.1289 579.533,-48.1444"/>
</g>
<!-- Node10&#45;&gt;Node12 -->
<g id="edge14" class="edge"><title>Node10&#45;&gt;Node12</title>
<path fill="none" stroke="midnightblue" d="M517.48,-53.6986C480.489,-43.507 426.9,-28.7429 393.411,-19.5164"/>
<polygon fill="midnightblue" stroke="midnightblue" points="516.873,-57.1616 527.443,-56.4435 518.732,-50.4131 516.873,-57.1616"/>
</g>
<!-- Node13 -->
<g id="node13" class="node"><title>Node13</title>
<g id="a_node13"><a xlink:href="_interpreter_8cpp.html" target="_top" xlink:title="Métodos que fazem a atuação do interpretador;. ">
<polygon fill="white" stroke="black" points="432.5,-0.5 432.5,-19.5 512.5,-19.5 512.5,-0.5 432.5,-0.5"/>
<text text-anchor="middle" x="472.5" y="-7.5" font-family="Helvetica,sans-Serif" font-size="10.00">Interpreter.cpp</text>
</a>
</g>
</g>
<!-- Node10&#45;&gt;Node13 -->
<g id="edge15" class="edge"><title>Node10&#45;&gt;Node13</title>
<path fill="none" stroke="midnightblue" d="M536.045,-50.9005C520.276,-40.9986 499.686,-28.0705 486.283,-19.6545"/>
<polygon fill="midnightblue" stroke="midnightblue" points="534.352,-53.9704 544.683,-56.324 538.075,-48.0421 534.352,-53.9704"/>
</g>
<!-- Node10&#45;&gt;Node14 -->
<g id="edge16" class="edge"><title>Node10&#45;&gt;Node14</title>
<path fill="none" stroke="midnightblue" d="M558.145,-45.8045C557.98,-36.9102 557.792,-26.7798 557.662,-19.7511"/>
<polygon fill="midnightblue" stroke="midnightblue" points="554.65,-46.1495 558.335,-56.083 561.649,-46.0199 554.65,-46.1495"/>
</g>
<!-- Node16&#45;&gt;Node12 -->
<g id="edge19" class="edge"><title>Node16&#45;&gt;Node12</title>
<path fill="none" stroke="midnightblue" d="M362.5,-45.8045C362.5,-36.9102 362.5,-26.7798 362.5,-19.7511"/>
<polygon fill="midnightblue" stroke="midnightblue" points="359,-46.083 362.5,-56.083 366,-46.083 359,-46.083"/>
</g>
<!-- Node16&#45;&gt;Node13 -->
<g id="edge20" class="edge"><title>Node16&#45;&gt;Node13</title>
<path fill="none" stroke="midnightblue" d="M389.262,-51.8622C409.659,-41.8492 437.166,-28.3458 454.87,-19.6545"/>
<polygon fill="midnightblue" stroke="midnightblue" points="387.608,-48.7753 380.173,-56.324 390.692,-55.059 387.608,-48.7753"/>
</g>
<!-- Node16&#45;&gt;Node14 -->
<g id="edge21" class="edge"><title>Node16&#45;&gt;Node14</title>
<path fill="none" stroke="midnightblue" d="M403.305,-53.7002C442.003,-42.9839 498.96,-27.211 531.728,-18.1368"/>
<polygon fill="midnightblue" stroke="midnightblue" points="402.102,-50.4016 393.398,-56.4435 403.97,-57.1477 402.102,-50.4016"/>
</g>
<!-- Node20 -->
<g id="node20" class="node"><title>Node20</title>
<g id="a_node20"><a xlink:href="_method_area_8cpp.html" target="_top" xlink:title="Métodos que simulam a funcionalidade do MethodArea ;. ">
<polygon fill="white" stroke="black" points="516.5,-112.5 516.5,-131.5 604.5,-131.5 604.5,-112.5 516.5,-112.5"/>
<text text-anchor="middle" x="560.5" y="-119.5" font-family="Helvetica,sans-Serif" font-size="10.00">MethodArea.cpp</text>
</a>
</g>
</g>
<!-- Node19&#45;&gt;Node20 -->
<g id="edge30" class="edge"><title>Node19&#45;&gt;Node20</title>
<path fill="none" stroke="midnightblue" d="M551.323,-158.396C553.665,-149.362 556.368,-138.936 558.231,-131.751"/>
<polygon fill="midnightblue" stroke="midnightblue" points="547.934,-157.525 548.812,-168.083 554.71,-159.281 547.934,-157.525"/>
</g>
<!-- Node22&#45;&gt;Node7 -->
<g id="edge34" class="edge"><title>Node22&#45;&gt;Node7</title>
<path fill="none" stroke="midnightblue" d="M193.982,-218.852C167.165,-201.132 122.266,-168.618 92.5,-132 63.4195,-96.2256 50.2056,-40.6305 46.0373,-19.521"/>
<polygon fill="midnightblue" stroke="midnightblue" points="192.366,-221.975 202.659,-224.485 196.177,-216.104 192.366,-221.975"/>
</g>
</g>
</svg>
