<?xml version="1.0" encoding="UTF-8" standalone="no"?>
<!DOCTYPE svg PUBLIC "-//W3C//DTD SVG 1.1//EN"
 "http://www.w3.org/Graphics/SVG/1.1/DTD/svg11.dtd">
<!-- Generated by graphviz version 2.38.0 (20140413.2041)
 -->
<!-- Title: ClassLoader.hpp Pages: 1 -->
<svg width="633pt" height="252pt"
 viewBox="0.00 0.00 632.53 252.00" xmlns="http://www.w3.org/2000/svg" xmlns:xlink="http://www.w3.org/1999/xlink">
<g id="graph0" class="graph" transform="scale(1 1) rotate(0) translate(4 248)">
<title>ClassLoader.hpp</title>
<polygon fill="white" stroke="none" points="-4,4 -4,-248 628.535,-248 628.535,4 -4,4"/>
<!-- Node1 -->
<g id="node1" class="node"><title>Node1</title>
<polygon fill="#bfbfbf" stroke="black" points="264.035,-224.5 264.035,-243.5 354.035,-243.5 354.035,-224.5 264.035,-224.5"/>
<text text-anchor="middle" x="309.035" y="-231.5" font-family="Helvetica,sans-Serif" font-size="10.00">ClassLoader.hpp</text>
</g>
<!-- Node2 -->
<g id="node2" class="node"><title>Node2</title>
<polygon fill="white" stroke="#bfbfbf" points="56.0347,-0.5 56.0347,-19.5 102.035,-19.5 102.035,-0.5 56.0347,-0.5"/>
<text text-anchor="middle" x="79.0347" y="-7.5" font-family="Helvetica,sans-Serif" font-size="10.00">cstdint</text>
</g>
<!-- Node1&#45;&gt;Node2 -->
<g id="edge1" class="edge"><title>Node1&#45;&gt;Node2</title>
<path fill="none" stroke="midnightblue" d="M263.929,-229.908C198.281,-224.648 80.478,-212.102 46.0347,-188 -3.25841,-153.507 -12.4451,-108.995 16.0347,-56 23.4075,-42.2807 37.0134,-31.7615 49.6991,-24.3563"/>
<polygon fill="midnightblue" stroke="midnightblue" points="51.534,-27.3432 58.6714,-19.5132 48.209,-21.1833 51.534,-27.3432"/>
</g>
<!-- Node3 -->
<g id="node3" class="node"><title>Node3</title>
<polygon fill="white" stroke="#bfbfbf" points="375.035,-168.5 375.035,-187.5 429.035,-187.5 429.035,-168.5 375.035,-168.5"/>
<text text-anchor="middle" x="402.035" y="-175.5" font-family="Helvetica,sans-Serif" font-size="10.00">iostream</text>
</g>
<!-- Node1&#45;&gt;Node3 -->
<g id="edge2" class="edge"><title>Node1&#45;&gt;Node3</title>
<path fill="none" stroke="midnightblue" d="M323.977,-224.324C338.62,-215.822 361.168,-202.729 378.272,-192.797"/>
<polygon fill="midnightblue" stroke="midnightblue" points="380.239,-195.703 387.13,-187.655 376.724,-189.649 380.239,-195.703"/>
</g>
<!-- Node4 -->
<g id="node4" class="node"><title>Node4</title>
<polygon fill="white" stroke="#bfbfbf" points="447.035,-168.5 447.035,-187.5 493.035,-187.5 493.035,-168.5 447.035,-168.5"/>
<text text-anchor="middle" x="470.035" y="-175.5" font-family="Helvetica,sans-Serif" font-size="10.00">cstring</text>
</g>
<!-- Node1&#45;&gt;Node4 -->
<g id="edge3" class="edge"><title>Node1&#45;&gt;Node4</title>
<path fill="none" stroke="midnightblue" d="M334.546,-224.444C362.348,-215.119 406.912,-200.172 437.281,-189.986"/>
<polygon fill="midnightblue" stroke="midnightblue" points="438.623,-193.227 446.991,-186.729 436.397,-186.591 438.623,-193.227"/>
</g>
<!-- Node5 -->
<g id="node5" class="node"><title>Node5</title>
<polygon fill="white" stroke="#bfbfbf" points="254.035,-56.5 254.035,-75.5 298.035,-75.5 298.035,-56.5 254.035,-56.5"/>
<text text-anchor="middle" x="276.035" y="-63.5" font-family="Helvetica,sans-Serif" font-size="10.00">vector</text>
</g>
<!-- Node1&#45;&gt;Node5 -->
<g id="edge4" class="edge"><title>Node1&#45;&gt;Node5</title>
<path fill="none" stroke="midnightblue" d="M307.26,-224.075C302.066,-197.945 286.811,-121.211 279.728,-85.577"/>
<polygon fill="midnightblue" stroke="midnightblue" points="283.121,-84.6937 277.738,-75.5681 276.255,-86.0586 283.121,-84.6937"/>
</g>
<!-- Node6 -->
<g id="node6" class="node"><title>Node6</title>
<polygon fill="white" stroke="#bfbfbf" points="511.035,-168.5 511.035,-187.5 563.035,-187.5 563.035,-168.5 511.035,-168.5"/>
<text text-anchor="middle" x="537.035" y="-175.5" font-family="Helvetica,sans-Serif" font-size="10.00">memory</text>
</g>
<!-- Node1&#45;&gt;Node6 -->
<g id="edge5" class="edge"><title>Node1&#45;&gt;Node6</title>
<path fill="none" stroke="midnightblue" d="M346.816,-224.457C383.715,-216.054 441.711,-202.691 500.802,-188.264"/>
<polygon fill="midnightblue" stroke="midnightblue" points="501.797,-191.624 510.677,-185.846 500.132,-184.825 501.797,-191.624"/>
</g>
<!-- Node7 -->
<g id="node7" class="node"><title>Node7</title>
<polygon fill="white" stroke="#bfbfbf" points="581.535,-168.5 581.535,-187.5 624.535,-187.5 624.535,-168.5 581.535,-168.5"/>
<text text-anchor="middle" x="603.035" y="-175.5" font-family="Helvetica,sans-Serif" font-size="10.00">cstdio</text>
</g>
<!-- Node1&#45;&gt;Node7 -->
<g id="edge6" class="edge"><title>Node1&#45;&gt;Node7</title>
<path fill="none" stroke="midnightblue" d="M354.485,-226.818C405.103,-219.581 489.499,-206.464 571.456,-187.9"/>
<polygon fill="midnightblue" stroke="midnightblue" points="572.473,-191.257 581.436,-185.609 570.907,-184.435 572.473,-191.257"/>
</g>
<!-- Node8 -->
<g id="node8" class="node"><title>Node8</title>
<g id="a_node8"><a xlink:href="_cp_info_8hpp.html" target="_top" xlink:title="Declarações das funções e dos atributos do Pool de constantes. ">
<polygon fill="white" stroke="black" points="85.5347,-56.5 85.5347,-75.5 150.535,-75.5 150.535,-56.5 85.5347,-56.5"/>
<text text-anchor="middle" x="118.035" y="-63.5" font-family="Helvetica,sans-Serif" font-size="10.00">CpInfo.hpp</text>
</a>
</g>
</g>
<!-- Node1&#45;&gt;Node8 -->
<g id="edge7" class="edge"><title>Node1&#45;&gt;Node8</title>
<path fill="none" stroke="midnightblue" d="M263.917,-231.601C198.889,-228.527 83.7798,-218.771 58.0347,-188 30.3544,-154.916 73.4433,-106.894 99.8828,-82.4901"/>
<polygon fill="midnightblue" stroke="midnightblue" points="102.336,-84.9921 107.457,-75.7172 97.6695,-79.774 102.336,-84.9921"/>
</g>
<!-- Node10 -->
<g id="node10" class="node"><title>Node10</title>
<g id="a_node10"><a xlink:href="_method_info_8hpp.html" target="_top" xlink:title="Declarações das funções do MethodInfo estrutura responsável por guardas as informaçoes dos metodos do...">
<polygon fill="white" stroke="black" points="67.0347,-168.5 67.0347,-187.5 151.035,-187.5 151.035,-168.5 67.0347,-168.5"/>
<text text-anchor="middle" x="109.035" y="-175.5" font-family="Helvetica,sans-Serif" font-size="10.00">MethodInfo.hpp</text>
</a>
</g>
</g>
<!-- Node1&#45;&gt;Node10 -->
<g id="edge10" class="edge"><title>Node1&#45;&gt;Node10</title>
<path fill="none" stroke="midnightblue" d="M277.344,-224.444C242.967,-215.162 187.958,-200.309 150.246,-190.127"/>
<polygon fill="midnightblue" stroke="midnightblue" points="151.144,-186.744 140.577,-187.516 149.319,-193.502 151.144,-186.744"/>
</g>
<!-- Node11 -->
<g id="node11" class="node"><title>Node11</title>
<g id="a_node11"><a xlink:href="_attribute_info_8hpp.html" target="_top" xlink:title="Declarações das funções do AttributeInfo para tratamento dos atributos do arquivo ...">
<polygon fill="white" stroke="black" points="183.535,-112.5 183.535,-131.5 272.535,-131.5 272.535,-112.5 183.535,-112.5"/>
<text text-anchor="middle" x="228.035" y="-119.5" font-family="Helvetica,sans-Serif" font-size="10.00">AttributeInfo.hpp</text>
</a>
</g>
</g>
<!-- Node1&#45;&gt;Node11 -->
<g id="edge27" class="edge"><title>Node1&#45;&gt;Node11</title>
<path fill="none" stroke="midnightblue" d="M302.679,-224.368C289.252,-206.135 257.803,-163.426 240.314,-139.675"/>
<polygon fill="midnightblue" stroke="midnightblue" points="243.109,-137.568 234.361,-131.591 237.472,-141.719 243.109,-137.568"/>
</g>
<!-- Node12 -->
<g id="node12" class="node"><title>Node12</title>
<g id="a_node12"><a xlink:href="_interface_info_8hpp.html" target="_top" xlink:title="Declarações das funções e atributos de InterfaceInfo. ">
<polygon fill="white" stroke="black" points="337.035,-112.5 337.035,-131.5 427.035,-131.5 427.035,-112.5 337.035,-112.5"/>
<text text-anchor="middle" x="382.035" y="-119.5" font-family="Helvetica,sans-Serif" font-size="10.00">InterfaceInfo.hpp</text>
</a>
</g>
</g>
<!-- Node1&#45;&gt;Node12 -->
<g id="edge18" class="edge"><title>Node1&#45;&gt;Node12</title>
<path fill="none" stroke="midnightblue" d="M314.763,-224.368C326.81,-206.215 354.957,-163.802 370.759,-139.99"/>
<polygon fill="midnightblue" stroke="midnightblue" points="373.72,-141.859 376.333,-131.591 367.887,-137.988 373.72,-141.859"/>
</g>
<!-- Node14 -->
<g id="node14" class="node"><title>Node14</title>
<g id="a_node14"><a xlink:href="_field_info_8hpp.html" target="_top" xlink:title="Declarações das funções do FieldInfo para tratamento dos fields do arquivo .class. ">
<polygon fill="white" stroke="black" points="169.535,-168.5 169.535,-187.5 242.535,-187.5 242.535,-168.5 169.535,-168.5"/>
<text text-anchor="middle" x="206.035" y="-175.5" font-family="Helvetica,sans-Serif" font-size="10.00">FieldInfo.hpp</text>
</a>
</g>
</g>
<!-- Node1&#45;&gt;Node14 -->
<g id="edge23" class="edge"><title>Node1&#45;&gt;Node14</title>
<path fill="none" stroke="midnightblue" d="M292.486,-224.324C276.043,-215.703 250.6,-202.364 231.566,-192.386"/>
<polygon fill="midnightblue" stroke="midnightblue" points="233.024,-189.198 222.542,-187.655 229.774,-195.398 233.024,-189.198"/>
</g>
<!-- Node8&#45;&gt;Node2 -->
<g id="edge8" class="edge"><title>Node8&#45;&gt;Node2</title>
<path fill="none" stroke="midnightblue" d="M111.595,-56.083C106.086,-48.4554 98.0035,-37.2645 91.2697,-27.9408"/>
<polygon fill="midnightblue" stroke="midnightblue" points="94.0472,-25.8087 85.3549,-19.7511 88.3725,-29.9071 94.0472,-25.8087"/>
</g>
<!-- Node9 -->
<g id="node9" class="node"><title>Node9</title>
<polygon fill="white" stroke="#bfbfbf" points="270.035,-0.5 270.035,-19.5 320.035,-19.5 320.035,-0.5 270.035,-0.5"/>
<text text-anchor="middle" x="295.035" y="-7.5" font-family="Helvetica,sans-Serif" font-size="10.00">fstream</text>
</g>
<!-- Node8&#45;&gt;Node9 -->
<g id="edge9" class="edge"><title>Node8&#45;&gt;Node9</title>
<path fill="none" stroke="midnightblue" d="M146.081,-56.4435C177,-47.0106 226.777,-31.8245 260.18,-21.6337"/>
<polygon fill="midnightblue" stroke="midnightblue" points="261.438,-24.9091 269.982,-18.6433 259.395,-18.2138 261.438,-24.9091"/>
</g>
<!-- Node10&#45;&gt;Node2 -->
<g id="edge11" class="edge"><title>Node10&#45;&gt;Node2</title>
<path fill="none" stroke="midnightblue" d="M77.2261,-168.385C59.0886,-161.661 37.8704,-150.306 27.0347,-132 9.82953,-102.932 12.9931,-86.7209 27.0347,-56 32.812,-43.3602 44.087,-32.911 54.6653,-25.2737"/>
<polygon fill="midnightblue" stroke="midnightblue" points="56.8835,-28.0009 63.2514,-19.5333 52.9929,-22.1817 56.8835,-28.0009"/>
</g>
<!-- Node10&#45;&gt;Node8 -->
<g id="edge17" class="edge"><title>Node10&#45;&gt;Node8</title>
<path fill="none" stroke="midnightblue" d="M109.741,-168.368C111.193,-150.617 114.544,-109.666 116.513,-85.5974"/>
<polygon fill="midnightblue" stroke="midnightblue" points="120.005,-85.8436 117.332,-75.5914 113.028,-85.2727 120.005,-85.8436"/>
</g>
<!-- Node10&#45;&gt;Node11 -->
<g id="edge12" class="edge"><title>Node10&#45;&gt;Node11</title>
<path fill="none" stroke="midnightblue" d="M127.891,-168.444C147.301,-159.636 177.765,-145.812 199.999,-135.722"/>
<polygon fill="midnightblue" stroke="midnightblue" points="201.607,-138.836 209.267,-131.516 198.714,-132.462 201.607,-138.836"/>
</g>
<!-- Node11&#45;&gt;Node2 -->
<g id="edge13" class="edge"><title>Node11&#45;&gt;Node2</title>
<path fill="none" stroke="midnightblue" d="M220.121,-112.294C207.861,-99.1104 183.167,-73.7423 159.035,-56 142.555,-43.8837 122.489,-32.6045 106.576,-24.369"/>
<polygon fill="midnightblue" stroke="midnightblue" points="107.776,-21.0533 97.2735,-19.6543 104.611,-27.2971 107.776,-21.0533"/>
</g>
<!-- Node11&#45;&gt;Node5 -->
<g id="edge14" class="edge"><title>Node11&#45;&gt;Node5</title>
<path fill="none" stroke="midnightblue" d="M235.961,-112.083C242.881,-104.298 253.1,-92.8015 261.487,-83.3665"/>
<polygon fill="midnightblue" stroke="midnightblue" points="264.228,-85.5505 268.256,-75.7511 258.996,-80.8999 264.228,-85.5505"/>
</g>
<!-- Node11&#45;&gt;Node8 -->
<g id="edge16" class="edge"><title>Node11&#45;&gt;Node8</title>
<path fill="none" stroke="midnightblue" d="M210.361,-112.324C192.641,-103.625 165.131,-90.1202 144.746,-80.113"/>
<polygon fill="midnightblue" stroke="midnightblue" points="146.183,-76.9195 135.664,-75.6545 143.099,-83.2031 146.183,-76.9195"/>
</g>
<!-- Node11&#45;&gt;Node9 -->
<g id="edge15" class="edge"><title>Node11&#45;&gt;Node9</title>
<path fill="none" stroke="midnightblue" d="M228.708,-112.392C230.06,-99.336 233.995,-74.1326 245.035,-56 252.175,-44.273 263.301,-33.8267 273.247,-25.9579"/>
<polygon fill="midnightblue" stroke="midnightblue" points="275.647,-28.534 281.554,-19.739 271.451,-22.9303 275.647,-28.534"/>
</g>
<!-- Node12&#45;&gt;Node2 -->
<g id="edge20" class="edge"><title>Node12&#45;&gt;Node2</title>
<path fill="none" stroke="midnightblue" d="M374.737,-112.234C362.374,-98.0071 335.83,-70.0691 307.035,-56 242.798,-24.6148 158.251,-15.1179 112.286,-12.2451"/>
<polygon fill="midnightblue" stroke="midnightblue" points="112.455,-8.74915 102.275,-11.6871 112.065,-15.7383 112.455,-8.74915"/>
</g>
<!-- Node12&#45;&gt;Node9 -->
<g id="edge19" class="edge"><title>Node12&#45;&gt;Node9</title>
<path fill="none" stroke="midnightblue" d="M377.146,-112.189C369.823,-99.3046 355.233,-74.8119 340.035,-56 331.636,-45.6036 321.126,-34.9845 312.376,-26.6746"/>
<polygon fill="midnightblue" stroke="midnightblue" points="314.653,-24.012 304.946,-19.7649 309.886,-29.138 314.653,-24.012"/>
</g>
<!-- Node13 -->
<g id="node13" class="node"><title>Node13</title>
<g id="a_node13"><a xlink:href="_byte_reader_8hpp.html" target="_top" xlink:title="Declarações das funções do ByteReader para leitura dos bytes no arquivo .class. ">
<polygon fill="white" stroke="black" points="392.535,-56.5 392.535,-75.5 479.535,-75.5 479.535,-56.5 392.535,-56.5"/>
<text text-anchor="middle" x="436.035" y="-63.5" font-family="Helvetica,sans-Serif" font-size="10.00">ByteReader.hpp</text>
</a>
</g>
</g>
<!-- Node12&#45;&gt;Node13 -->
<g id="edge21" class="edge"><title>Node12&#45;&gt;Node13</title>
<path fill="none" stroke="midnightblue" d="M390.952,-112.083C398.815,-104.22 410.466,-92.5688 419.953,-83.0813"/>
<polygon fill="midnightblue" stroke="midnightblue" points="422.687,-85.2971 427.284,-75.7511 417.738,-80.3473 422.687,-85.2971"/>
</g>
<!-- Node13&#45;&gt;Node9 -->
<g id="edge22" class="edge"><title>Node13&#45;&gt;Node9</title>
<path fill="none" stroke="midnightblue" d="M413.693,-56.4435C390.282,-47.4776 353.299,-33.314 326.845,-23.1827"/>
<polygon fill="midnightblue" stroke="midnightblue" points="327.862,-19.8245 317.272,-19.5164 325.359,-26.3615 327.862,-19.8245"/>
</g>
<!-- Node14&#45;&gt;Node2 -->
<g id="edge26" class="edge"><title>Node14&#45;&gt;Node2</title>
<path fill="none" stroke="midnightblue" d="M185.71,-168.39C155.269,-154.231 98.9635,-122.85 76.0347,-76 68.9738,-61.5727 70.6819,-43.1198 73.5962,-29.5639"/>
<polygon fill="midnightblue" stroke="midnightblue" points="77.0768,-30.0798 76.162,-19.5246 70.2948,-28.3465 77.0768,-30.0798"/>
</g>
<!-- Node14&#45;&gt;Node8 -->
<g id="edge24" class="edge"><title>Node14&#45;&gt;Node8</title>
<path fill="none" stroke="midnightblue" d="M199.129,-168.368C184.543,-150.135 150.375,-107.426 131.375,-83.6752"/>
<polygon fill="midnightblue" stroke="midnightblue" points="133.888,-81.2137 124.908,-75.5914 128.422,-85.5866 133.888,-81.2137"/>
</g>
<!-- Node14&#45;&gt;Node11 -->
<g id="edge25" class="edge"><title>Node14&#45;&gt;Node11</title>
<path fill="none" stroke="midnightblue" d="M209.668,-168.083C212.647,-160.77 216.961,-150.181 220.659,-141.103"/>
<polygon fill="midnightblue" stroke="midnightblue" points="223.938,-142.333 224.469,-131.751 217.455,-139.691 223.938,-142.333"/>
</g>
</g>
</svg>
