<?xml version="1.0" encoding="UTF-8" standalone="no"?>
<!DOCTYPE svg PUBLIC "-//W3C//DTD SVG 1.1//EN"
 "http://www.w3.org/Graphics/SVG/1.1/DTD/svg11.dtd">
<!-- Generated by graphviz version 2.38.0 (20140413.2041)
 -->
<!-- Title: ClassLoader.cpp Pages: 1 -->
<svg width="762pt" height="308pt"
 viewBox="0.00 0.00 762.19 308.00" xmlns="http://www.w3.org/2000/svg" xmlns:xlink="http://www.w3.org/1999/xlink">
<g id="graph0" class="graph" transform="scale(1 1) rotate(0) translate(4 304)">
<title>ClassLoader.cpp</title>
<polygon fill="white" stroke="none" points="-4,4 -4,-304 758.193,-304 758.193,4 -4,4"/>
<!-- Node1 -->
<g id="node1" class="node"><title>Node1</title>
<polygon fill="#bfbfbf" stroke="black" points="567.193,-280.5 567.193,-299.5 657.193,-299.5 657.193,-280.5 567.193,-280.5"/>
<text text-anchor="middle" x="612.193" y="-287.5" font-family="Helvetica,sans-Serif" font-size="10.00">ClassLoader.cpp</text>
</g>
<!-- Node2 -->
<g id="node2" class="node"><title>Node2</title>
<g id="a_node2"><a xlink:href="_class_loader_8hpp.html" target="_top" xlink:title="Declarações das funções do ClassLoader para salvar todos os bytes de .class corretamente. ">
<polygon fill="white" stroke="black" points="222.193,-224.5 222.193,-243.5 312.193,-243.5 312.193,-224.5 222.193,-224.5"/>
<text text-anchor="middle" x="267.193" y="-231.5" font-family="Helvetica,sans-Serif" font-size="10.00">ClassLoader.hpp</text>
</a>
</g>
</g>
<!-- Node1&#45;&gt;Node2 -->
<g id="edge1" class="edge"><title>Node1&#45;&gt;Node2</title>
<path fill="none" stroke="midnightblue" d="M567.09,-281.94C504.2,-272.097 390.264,-254.263 322.383,-243.639"/>
<polygon fill="midnightblue" stroke="midnightblue" points="322.728,-240.15 312.307,-242.061 321.645,-247.066 322.728,-240.15"/>
</g>
<!-- Node4 -->
<g id="node4" class="node"><title>Node4</title>
<polygon fill="white" stroke="#bfbfbf" points="530.193,-168.5 530.193,-187.5 584.193,-187.5 584.193,-168.5 530.193,-168.5"/>
<text text-anchor="middle" x="557.193" y="-175.5" font-family="Helvetica,sans-Serif" font-size="10.00">iostream</text>
</g>
<!-- Node1&#45;&gt;Node4 -->
<g id="edge31" class="edge"><title>Node1&#45;&gt;Node4</title>
<path fill="none" stroke="midnightblue" d="M607.877,-280.368C598.881,-262.376 577.968,-220.55 566.006,-196.627"/>
<polygon fill="midnightblue" stroke="midnightblue" points="569.091,-194.97 561.489,-187.591 562.83,-198.101 569.091,-194.97"/>
</g>
<!-- Node14 -->
<g id="node14" class="node"><title>Node14</title>
<g id="a_node14"><a xlink:href="_byte_reader_8hpp.html" target="_top" xlink:title="Declarações das funções do ByteReader para leitura dos bytes no arquivo .class. ">
<polygon fill="white" stroke="black" points="566.693,-56.5 566.693,-75.5 653.693,-75.5 653.693,-56.5 566.693,-56.5"/>
<text text-anchor="middle" x="610.193" y="-63.5" font-family="Helvetica,sans-Serif" font-size="10.00">ByteReader.hpp</text>
</a>
</g>
</g>
<!-- Node1&#45;&gt;Node14 -->
<g id="edge29" class="edge"><title>Node1&#45;&gt;Node14</title>
<path fill="none" stroke="midnightblue" d="M612.114,-280.297C611.82,-247.633 610.777,-131.866 610.364,-85.9573"/>
<polygon fill="midnightblue" stroke="midnightblue" points="613.863,-85.8518 610.273,-75.8837 606.863,-85.9149 613.863,-85.8518"/>
</g>
<!-- Node16 -->
<g id="node16" class="node"><title>Node16</title>
<polygon fill="white" stroke="#bfbfbf" points="640.193,-224.5 640.193,-243.5 686.193,-243.5 686.193,-224.5 640.193,-224.5"/>
<text text-anchor="middle" x="663.193" y="-231.5" font-family="Helvetica,sans-Serif" font-size="10.00">stdio.h</text>
</g>
<!-- Node1&#45;&gt;Node16 -->
<g id="edge30" class="edge"><title>Node1&#45;&gt;Node16</title>
<path fill="none" stroke="midnightblue" d="M620.614,-280.083C628.041,-272.22 639.044,-260.569 648.005,-251.081"/>
<polygon fill="midnightblue" stroke="midnightblue" points="650.606,-253.424 654.928,-243.751 645.517,-248.618 650.606,-253.424"/>
</g>
<!-- Node17 -->
<g id="node17" class="node"><title>Node17</title>
<polygon fill="white" stroke="#bfbfbf" points="704.193,-224.5 704.193,-243.5 754.193,-243.5 754.193,-224.5 704.193,-224.5"/>
<text text-anchor="middle" x="729.193" y="-231.5" font-family="Helvetica,sans-Serif" font-size="10.00">iomanip</text>
</g>
<!-- Node1&#45;&gt;Node17 -->
<g id="edge32" class="edge"><title>Node1&#45;&gt;Node17</title>
<path fill="none" stroke="midnightblue" d="M630.732,-280.444C649.816,-271.636 679.768,-257.812 701.629,-247.722"/>
<polygon fill="midnightblue" stroke="midnightblue" points="703.128,-250.885 710.741,-243.516 700.194,-244.529 703.128,-250.885"/>
</g>
<!-- Node3 -->
<g id="node3" class="node"><title>Node3</title>
<polygon fill="white" stroke="#bfbfbf" points="298.193,-0.5 298.193,-19.5 344.193,-19.5 344.193,-0.5 298.193,-0.5"/>
<text text-anchor="middle" x="321.193" y="-7.5" font-family="Helvetica,sans-Serif" font-size="10.00">cstdint</text>
</g>
<!-- Node2&#45;&gt;Node3 -->
<g id="edge2" class="edge"><title>Node2&#45;&gt;Node3</title>
<path fill="none" stroke="midnightblue" d="M222.007,-232.051C154.082,-229.561 30.6688,-220.556 3.19282,-188 -2.54023,-181.207 1.88765,-176.793 3.19282,-168 7.01199,-142.271 2.06939,-130.657 20.1928,-112 93.742,-36.2854 225.689,-17.3299 287.507,-12.5846"/>
<polygon fill="midnightblue" stroke="midnightblue" points="288.119,-16.0509 297.856,-11.8743 287.639,-9.06733 288.119,-16.0509"/>
</g>
<!-- Node2&#45;&gt;Node4 -->
<g id="edge3" class="edge"><title>Node2&#45;&gt;Node4</title>
<path fill="none" stroke="midnightblue" d="M312.271,-225.374C362.223,-216.802 445.117,-202.218 516.193,-188 517.439,-187.751 518.705,-187.494 519.984,-187.231"/>
<polygon fill="midnightblue" stroke="midnightblue" points="520.813,-190.633 529.876,-185.145 519.369,-183.784 520.813,-190.633"/>
</g>
<!-- Node5 -->
<g id="node5" class="node"><title>Node5</title>
<polygon fill="white" stroke="#bfbfbf" points="26.1928,-168.5 26.1928,-187.5 72.1928,-187.5 72.1928,-168.5 26.1928,-168.5"/>
<text text-anchor="middle" x="49.1928" y="-175.5" font-family="Helvetica,sans-Serif" font-size="10.00">cstring</text>
</g>
<!-- Node2&#45;&gt;Node5 -->
<g id="edge4" class="edge"><title>Node2&#45;&gt;Node5</title>
<path fill="none" stroke="midnightblue" d="M230.037,-224.435C194.477,-216.144 139.095,-202.987 82.1352,-188.177"/>
<polygon fill="midnightblue" stroke="midnightblue" points="82.7973,-184.732 72.2373,-185.591 81.0276,-191.505 82.7973,-184.732"/>
</g>
<!-- Node6 -->
<g id="node6" class="node"><title>Node6</title>
<polygon fill="white" stroke="#bfbfbf" points="230.193,-56.5 230.193,-75.5 274.193,-75.5 274.193,-56.5 230.193,-56.5"/>
<text text-anchor="middle" x="252.193" y="-63.5" font-family="Helvetica,sans-Serif" font-size="10.00">vector</text>
</g>
<!-- Node2&#45;&gt;Node6 -->
<g id="edge5" class="edge"><title>Node2&#45;&gt;Node6</title>
<path fill="none" stroke="midnightblue" d="M221.984,-231.56C157.166,-228.436 42.7925,-218.619 17.1928,-188 -42.8266,-116.213 141.862,-82.0176 219.508,-71.074"/>
<polygon fill="midnightblue" stroke="midnightblue" points="220.281,-74.501 229.717,-69.6826 219.336,-67.5651 220.281,-74.501"/>
</g>
<!-- Node7 -->
<g id="node7" class="node"><title>Node7</title>
<polygon fill="white" stroke="#bfbfbf" points="90.1928,-168.5 90.1928,-187.5 142.193,-187.5 142.193,-168.5 90.1928,-168.5"/>
<text text-anchor="middle" x="116.193" y="-175.5" font-family="Helvetica,sans-Serif" font-size="10.00">memory</text>
</g>
<!-- Node2&#45;&gt;Node7 -->
<g id="edge6" class="edge"><title>Node2&#45;&gt;Node7</title>
<path fill="none" stroke="midnightblue" d="M243.266,-224.444C217.974,-215.399 177.89,-201.064 149.513,-190.916"/>
<polygon fill="midnightblue" stroke="midnightblue" points="150.602,-187.588 140.007,-187.516 148.245,-194.179 150.602,-187.588"/>
</g>
<!-- Node8 -->
<g id="node8" class="node"><title>Node8</title>
<polygon fill="white" stroke="#bfbfbf" points="160.693,-168.5 160.693,-187.5 203.693,-187.5 203.693,-168.5 160.693,-168.5"/>
<text text-anchor="middle" x="182.193" y="-175.5" font-family="Helvetica,sans-Serif" font-size="10.00">cstdio</text>
</g>
<!-- Node2&#45;&gt;Node8 -->
<g id="edge7" class="edge"><title>Node2&#45;&gt;Node8</title>
<path fill="none" stroke="midnightblue" d="M253.536,-224.324C240.277,-215.9 219.925,-202.971 204.347,-193.074"/>
<polygon fill="midnightblue" stroke="midnightblue" points="206.133,-190.063 195.816,-187.655 202.38,-195.971 206.133,-190.063"/>
</g>
<!-- Node9 -->
<g id="node9" class="node"><title>Node9</title>
<g id="a_node9"><a xlink:href="_cp_info_8hpp.html" target="_top" xlink:title="Declarações das funções e dos atributos do Pool de constantes. ">
<polygon fill="white" stroke="black" points="406.693,-56.5 406.693,-75.5 471.693,-75.5 471.693,-56.5 406.693,-56.5"/>
<text text-anchor="middle" x="439.193" y="-63.5" font-family="Helvetica,sans-Serif" font-size="10.00">CpInfo.hpp</text>
</a>
</g>
</g>
<!-- Node2&#45;&gt;Node9 -->
<g id="edge8" class="edge"><title>Node2&#45;&gt;Node9</title>
<path fill="none" stroke="midnightblue" d="M312.302,-227.812C359.248,-221.375 428.136,-208.65 444.193,-188 467.23,-158.373 455.71,-111.234 446.624,-85.4082"/>
<polygon fill="midnightblue" stroke="midnightblue" points="449.789,-83.881 442.987,-75.758 443.239,-86.3499 449.789,-83.881"/>
</g>
<!-- Node11 -->
<g id="node11" class="node"><title>Node11</title>
<g id="a_node11"><a xlink:href="_method_info_8hpp.html" target="_top" xlink:title="Declarações das funções do MethodInfo estrutura responsável por guardas as informaçoes dos metodos do...">
<polygon fill="white" stroke="black" points="260.193,-168.5 260.193,-187.5 344.193,-187.5 344.193,-168.5 260.193,-168.5"/>
<text text-anchor="middle" x="302.193" y="-175.5" font-family="Helvetica,sans-Serif" font-size="10.00">MethodInfo.hpp</text>
</a>
</g>
</g>
<!-- Node2&#45;&gt;Node11 -->
<g id="edge11" class="edge"><title>Node2&#45;&gt;Node11</title>
<path fill="none" stroke="midnightblue" d="M272.972,-224.083C277.865,-216.534 285.02,-205.495 291.025,-196.23"/>
<polygon fill="midnightblue" stroke="midnightblue" points="294.019,-198.046 296.521,-187.751 288.145,-194.239 294.019,-198.046"/>
</g>
<!-- Node12 -->
<g id="node12" class="node"><title>Node12</title>
<g id="a_node12"><a xlink:href="_attribute_info_8hpp.html" target="_top" xlink:title="Declarações das funções do AttributeInfo para tratamento dos atributos do arquivo ...">
<polygon fill="white" stroke="black" points="231.693,-112.5 231.693,-131.5 320.693,-131.5 320.693,-112.5 231.693,-112.5"/>
<text text-anchor="middle" x="276.193" y="-119.5" font-family="Helvetica,sans-Serif" font-size="10.00">AttributeInfo.hpp</text>
</a>
</g>
</g>
<!-- Node2&#45;&gt;Node12 -->
<g id="edge28" class="edge"><title>Node2&#45;&gt;Node12</title>
<path fill="none" stroke="midnightblue" d="M262.197,-224.151C255.766,-211.628 246.004,-188.025 251.193,-168 253.739,-158.175 258.945,-148.212 263.951,-140.166"/>
<polygon fill="midnightblue" stroke="midnightblue" points="266.941,-141.99 269.564,-131.725 261.112,-138.114 266.941,-141.99"/>
</g>
<!-- Node13 -->
<g id="node13" class="node"><title>Node13</title>
<g id="a_node13"><a xlink:href="_interface_info_8hpp.html" target="_top" xlink:title="Declarações das funções e atributos de InterfaceInfo. ">
<polygon fill="white" stroke="black" points="493.193,-112.5 493.193,-131.5 583.193,-131.5 583.193,-112.5 493.193,-112.5"/>
<text text-anchor="middle" x="538.193" y="-119.5" font-family="Helvetica,sans-Serif" font-size="10.00">InterfaceInfo.hpp</text>
</a>
</g>
</g>
<!-- Node2&#45;&gt;Node13 -->
<g id="edge19" class="edge"><title>Node2&#45;&gt;Node13</title>
<path fill="none" stroke="midnightblue" d="M312.406,-231.242C357.149,-227.76 426.281,-217.568 478.193,-188 498.748,-176.292 516.289,-155.142 527.002,-140.15"/>
<polygon fill="midnightblue" stroke="midnightblue" points="529.991,-141.979 532.755,-131.751 524.216,-138.023 529.991,-141.979"/>
</g>
<!-- Node15 -->
<g id="node15" class="node"><title>Node15</title>
<g id="a_node15"><a xlink:href="_field_info_8hpp.html" target="_top" xlink:title="Declarações das funções do FieldInfo para tratamento dos fields do arquivo .class. ">
<polygon fill="white" stroke="black" points="362.693,-168.5 362.693,-187.5 435.693,-187.5 435.693,-168.5 362.693,-168.5"/>
<text text-anchor="middle" x="399.193" y="-175.5" font-family="Helvetica,sans-Serif" font-size="10.00">FieldInfo.hpp</text>
</a>
</g>
</g>
<!-- Node2&#45;&gt;Node15 -->
<g id="edge24" class="edge"><title>Node2&#45;&gt;Node15</title>
<path fill="none" stroke="midnightblue" d="M288.109,-224.444C309.929,-215.517 344.343,-201.439 369.085,-191.317"/>
<polygon fill="midnightblue" stroke="midnightblue" points="370.445,-194.542 378.375,-187.516 367.794,-188.063 370.445,-194.542"/>
</g>
<!-- Node9&#45;&gt;Node3 -->
<g id="edge9" class="edge"><title>Node9&#45;&gt;Node3</title>
<path fill="none" stroke="midnightblue" d="M420.495,-56.4435C401.248,-47.6356 371.04,-33.8116 348.993,-23.722"/>
<polygon fill="midnightblue" stroke="midnightblue" points="350.352,-20.4951 339.803,-19.5164 347.439,-26.8603 350.352,-20.4951"/>
</g>
<!-- Node10 -->
<g id="node10" class="node"><title>Node10</title>
<polygon fill="white" stroke="#bfbfbf" points="463.193,-0.5 463.193,-19.5 513.193,-19.5 513.193,-0.5 463.193,-0.5"/>
<text text-anchor="middle" x="488.193" y="-7.5" font-family="Helvetica,sans-Serif" font-size="10.00">fstream</text>
</g>
<!-- Node9&#45;&gt;Node10 -->
<g id="edge10" class="edge"><title>Node9&#45;&gt;Node10</title>
<path fill="none" stroke="midnightblue" d="M447.284,-56.083C454.348,-48.2982 464.78,-36.8015 473.342,-27.3665"/>
<polygon fill="midnightblue" stroke="midnightblue" points="476.124,-29.5087 480.252,-19.7511 470.94,-24.8047 476.124,-29.5087"/>
</g>
<!-- Node11&#45;&gt;Node3 -->
<g id="edge12" class="edge"><title>Node11&#45;&gt;Node3</title>
<path fill="none" stroke="midnightblue" d="M272.058,-168.421C254.224,-161.634 233.055,-150.199 222.193,-132 204.879,-102.994 202.851,-84.3674 221.193,-56 235.87,-33.3001 265.029,-21.9376 288.09,-16.3192"/>
<polygon fill="midnightblue" stroke="midnightblue" points="288.838,-19.7384 297.861,-14.1842 287.344,-12.8997 288.838,-19.7384"/>
</g>
<!-- Node11&#45;&gt;Node9 -->
<g id="edge18" class="edge"><title>Node11&#45;&gt;Node9</title>
<path fill="none" stroke="midnightblue" d="M312.943,-168.368C336.152,-149.733 391.203,-105.532 420.344,-82.1338"/>
<polygon fill="midnightblue" stroke="midnightblue" points="422.886,-84.5814 428.493,-75.5914 418.504,-79.1231 422.886,-84.5814"/>
</g>
<!-- Node11&#45;&gt;Node12 -->
<g id="edge13" class="edge"><title>Node11&#45;&gt;Node12</title>
<path fill="none" stroke="midnightblue" d="M297.899,-168.083C294.341,-160.691 289.17,-149.953 284.769,-140.811"/>
<polygon fill="midnightblue" stroke="midnightblue" points="287.898,-139.243 280.406,-131.751 281.591,-142.279 287.898,-139.243"/>
</g>
<!-- Node12&#45;&gt;Node3 -->
<g id="edge14" class="edge"><title>Node12&#45;&gt;Node3</title>
<path fill="none" stroke="midnightblue" d="M279.724,-112.368C287.052,-94.4563 304.042,-52.9233 313.85,-28.9482"/>
<polygon fill="midnightblue" stroke="midnightblue" points="317.131,-30.1721 317.678,-19.5914 310.652,-27.5217 317.131,-30.1721"/>
</g>
<!-- Node12&#45;&gt;Node6 -->
<g id="edge15" class="edge"><title>Node12&#45;&gt;Node6</title>
<path fill="none" stroke="midnightblue" d="M272.23,-112.083C268.979,-104.77 264.273,-94.1814 260.239,-85.1034"/>
<polygon fill="midnightblue" stroke="midnightblue" points="263.342,-83.4677 256.082,-75.7511 256.945,-86.3107 263.342,-83.4677"/>
</g>
<!-- Node12&#45;&gt;Node9 -->
<g id="edge17" class="edge"><title>Node12&#45;&gt;Node9</title>
<path fill="none" stroke="midnightblue" d="M302.021,-112.444C329.442,-103.359 372.97,-88.9388 403.625,-78.7831"/>
<polygon fill="midnightblue" stroke="midnightblue" points="405.094,-81.9837 413.486,-75.5164 402.892,-75.3389 405.094,-81.9837"/>
</g>
<!-- Node12&#45;&gt;Node10 -->
<g id="edge16" class="edge"><title>Node12&#45;&gt;Node10</title>
<path fill="none" stroke="midnightblue" d="M291.767,-112.417C314.721,-99.8154 359.043,-75.6723 397.193,-56 418.472,-45.027 442.792,-33.0284 460.933,-24.1824"/>
<polygon fill="midnightblue" stroke="midnightblue" points="462.856,-27.1396 470.318,-19.6188 459.794,-20.8445 462.856,-27.1396"/>
</g>
<!-- Node13&#45;&gt;Node3 -->
<g id="edge21" class="edge"><title>Node13&#45;&gt;Node3</title>
<path fill="none" stroke="midnightblue" d="M532.904,-112.425C523.853,-98.4722 504.041,-70.9195 480.193,-56 441.129,-31.5617 388.494,-20.0751 354.694,-14.9082"/>
<polygon fill="midnightblue" stroke="midnightblue" points="354.817,-11.3904 344.423,-13.4442 353.829,-18.3203 354.817,-11.3904"/>
</g>
<!-- Node13&#45;&gt;Node10 -->
<g id="edge20" class="edge"><title>Node13&#45;&gt;Node10</title>
<path fill="none" stroke="midnightblue" d="M535.535,-112.398C531.52,-99.7734 523.392,-75.6014 514.193,-56 509.784,-46.6069 504.09,-36.572 499.154,-28.3675"/>
<polygon fill="midnightblue" stroke="midnightblue" points="502.056,-26.4043 493.832,-19.7249 496.096,-30.0751 502.056,-26.4043"/>
</g>
<!-- Node13&#45;&gt;Node14 -->
<g id="edge22" class="edge"><title>Node13&#45;&gt;Node14</title>
<path fill="none" stroke="midnightblue" d="M549.761,-112.324C560.613,-104.185 577.073,-91.8395 590.076,-82.0874"/>
<polygon fill="midnightblue" stroke="midnightblue" points="592.514,-84.6339 598.414,-75.8339 588.314,-79.0339 592.514,-84.6339"/>
</g>
<!-- Node14&#45;&gt;Node10 -->
<g id="edge23" class="edge"><title>Node14&#45;&gt;Node10</title>
<path fill="none" stroke="midnightblue" d="M590.862,-56.4435C570.873,-47.5961 539.45,-33.6875 516.629,-23.5865"/>
<polygon fill="midnightblue" stroke="midnightblue" points="517.995,-20.3635 507.434,-19.5164 515.161,-26.7645 517.995,-20.3635"/>
</g>
<!-- Node15&#45;&gt;Node3 -->
<g id="edge27" class="edge"><title>Node15&#45;&gt;Node3</title>
<path fill="none" stroke="midnightblue" d="M394.999,-168.075C382.615,-141.719 346.039,-63.878 329.491,-28.6608"/>
<polygon fill="midnightblue" stroke="midnightblue" points="332.639,-27.1303 325.219,-19.5681 326.304,-30.1072 332.639,-27.1303"/>
</g>
<!-- Node15&#45;&gt;Node9 -->
<g id="edge25" class="edge"><title>Node15&#45;&gt;Node9</title>
<path fill="none" stroke="midnightblue" d="M402.332,-168.368C408.816,-150.537 423.813,-109.295 432.549,-85.2717"/>
<polygon fill="midnightblue" stroke="midnightblue" points="435.94,-86.1855 436.069,-75.5914 429.362,-83.7932 435.94,-86.1855"/>
</g>
<!-- Node15&#45;&gt;Node12 -->
<g id="edge26" class="edge"><title>Node15&#45;&gt;Node12</title>
<path fill="none" stroke="midnightblue" d="M379.703,-168.444C359.551,-159.596 327.87,-145.687 304.862,-135.586"/>
<polygon fill="midnightblue" stroke="midnightblue" points="306.155,-132.332 295.591,-131.516 303.341,-138.741 306.155,-132.332"/>
</g>
</g>
</svg>
