<?xml version="1.0" encoding="UTF-8" standalone="no"?>
<!DOCTYPE svg PUBLIC "-//W3C//DTD SVG 1.1//EN"
 "http://www.w3.org/Graphics/SVG/1.1/DTD/svg11.dtd">
<!-- Generated by graphviz version 2.38.0 (20140413.2041)
 -->
<!-- Title: CpAttributeInterface.cpp Pages: 1 -->
<svg width="221pt" height="196pt"
 viewBox="0.00 0.00 220.50 196.00" xmlns="http://www.w3.org/2000/svg" xmlns:xlink="http://www.w3.org/1999/xlink">
<g id="graph0" class="graph" transform="scale(1 1) rotate(0) translate(4 192)">
<title>CpAttributeInterface.cpp</title>
<polygon fill="white" stroke="none" points="-4,4 -4,-192 216.5,-192 216.5,4 -4,4"/>
<!-- Node1 -->
<g id="node1" class="node"><title>Node1</title>
<polygon fill="#bfbfbf" stroke="black" points="20,-168.5 20,-187.5 143,-187.5 143,-168.5 20,-168.5"/>
<text text-anchor="middle" x="81.5" y="-175.5" font-family="Helvetica,sans-Serif" font-size="10.00">CpAttributeInterface.cpp</text>
</g>
<!-- Node2 -->
<g id="node2" class="node"><title>Node2</title>
<g id="a_node2"><a xlink:href="_cp_attribute_interface_8hpp.html" target="_top" xlink:title="Declarações da interface entre ConstantPool e AttributeInfo para traduzir as strings UTF8...">
<polygon fill="white" stroke="black" points="20,-112.5 20,-131.5 143,-131.5 143,-112.5 20,-112.5"/>
<text text-anchor="middle" x="81.5" y="-119.5" font-family="Helvetica,sans-Serif" font-size="10.00">CpAttributeInterface.hpp</text>
</a>
</g>
</g>
<!-- Node1&#45;&gt;Node2 -->
<g id="edge1" class="edge"><title>Node1&#45;&gt;Node2</title>
<path fill="none" stroke="midnightblue" d="M81.5,-168.083C81.5,-161.006 81.5,-150.861 81.5,-141.986"/>
<polygon fill="midnightblue" stroke="midnightblue" points="85.0001,-141.751 81.5,-131.751 78.0001,-141.751 85.0001,-141.751"/>
</g>
<!-- Node3 -->
<g id="node3" class="node"><title>Node3</title>
<polygon fill="white" stroke="#bfbfbf" points="0,-56.5 0,-75.5 41,-75.5 41,-56.5 0,-56.5"/>
<text text-anchor="middle" x="20.5" y="-63.5" font-family="Helvetica,sans-Serif" font-size="10.00">string</text>
</g>
<!-- Node2&#45;&gt;Node3 -->
<g id="edge2" class="edge"><title>Node2&#45;&gt;Node3</title>
<path fill="none" stroke="midnightblue" d="M71.6993,-112.324C62.6819,-104.341 49.094,-92.3128 38.182,-82.6529"/>
<polygon fill="midnightblue" stroke="midnightblue" points="40.2866,-79.8416 30.479,-75.8339 35.6467,-85.083 40.2866,-79.8416"/>
</g>
<!-- Node4 -->
<g id="node4" class="node"><title>Node4</title>
<polygon fill="white" stroke="#bfbfbf" points="59.5,-56.5 59.5,-75.5 103.5,-75.5 103.5,-56.5 59.5,-56.5"/>
<text text-anchor="middle" x="81.5" y="-63.5" font-family="Helvetica,sans-Serif" font-size="10.00">vector</text>
</g>
<!-- Node2&#45;&gt;Node4 -->
<g id="edge3" class="edge"><title>Node2&#45;&gt;Node4</title>
<path fill="none" stroke="midnightblue" d="M81.5,-112.083C81.5,-105.006 81.5,-94.8611 81.5,-85.9865"/>
<polygon fill="midnightblue" stroke="midnightblue" points="85.0001,-85.751 81.5,-75.7511 78.0001,-85.7511 85.0001,-85.751"/>
</g>
<!-- Node5 -->
<g id="node5" class="node"><title>Node5</title>
<g id="a_node5"><a xlink:href="_cp_info_8hpp.html" target="_top" xlink:title="Declarações das funções e dos atributos do Pool de constantes. ">
<polygon fill="white" stroke="black" points="122,-56.5 122,-75.5 187,-75.5 187,-56.5 122,-56.5"/>
<text text-anchor="middle" x="154.5" y="-63.5" font-family="Helvetica,sans-Serif" font-size="10.00">CpInfo.hpp</text>
</a>
</g>
</g>
<!-- Node2&#45;&gt;Node5 -->
<g id="edge4" class="edge"><title>Node2&#45;&gt;Node5</title>
<path fill="none" stroke="midnightblue" d="M93.2287,-112.324C104.337,-104.107 121.242,-91.6017 134.483,-81.8069"/>
<polygon fill="midnightblue" stroke="midnightblue" points="136.6,-84.5948 142.558,-75.8339 132.437,-78.9671 136.6,-84.5948"/>
</g>
<!-- Node6 -->
<g id="node6" class="node"><title>Node6</title>
<polygon fill="white" stroke="#bfbfbf" points="98.5,-0.5 98.5,-19.5 144.5,-19.5 144.5,-0.5 98.5,-0.5"/>
<text text-anchor="middle" x="121.5" y="-7.5" font-family="Helvetica,sans-Serif" font-size="10.00">cstdint</text>
</g>
<!-- Node5&#45;&gt;Node6 -->
<g id="edge5" class="edge"><title>Node5&#45;&gt;Node6</title>
<path fill="none" stroke="midnightblue" d="M149.051,-56.083C144.486,-48.6127 137.832,-37.7244 132.207,-28.5199"/>
<polygon fill="midnightblue" stroke="midnightblue" points="135.049,-26.4588 126.848,-19.7511 129.076,-30.109 135.049,-26.4588"/>
</g>
<!-- Node7 -->
<g id="node7" class="node"><title>Node7</title>
<polygon fill="white" stroke="#bfbfbf" points="162.5,-0.5 162.5,-19.5 212.5,-19.5 212.5,-0.5 162.5,-0.5"/>
<text text-anchor="middle" x="187.5" y="-7.5" font-family="Helvetica,sans-Serif" font-size="10.00">fstream</text>
</g>
<!-- Node5&#45;&gt;Node7 -->
<g id="edge6" class="edge"><title>Node5&#45;&gt;Node7</title>
<path fill="none" stroke="midnightblue" d="M159.949,-56.083C164.514,-48.6127 171.168,-37.7244 176.793,-28.5199"/>
<polygon fill="midnightblue" stroke="midnightblue" points="179.924,-30.109 182.152,-19.7511 173.951,-26.4588 179.924,-30.109"/>
</g>
</g>
</svg>
