<?xml version="1.0" encoding="UTF-8" standalone="no"?>
<!DOCTYPE svg PUBLIC "-//W3C//DTD SVG 1.1//EN"
 "http://www.w3.org/Graphics/SVG/1.1/DTD/svg11.dtd">
<!-- Generated by graphviz version 2.38.0 (20140413.2041)
 -->
<!-- Title: CpAttributeInterface.hpp Pages: 1 -->
<svg width="807pt" height="84pt"
 viewBox="0.00 0.00 807.00 84.00" xmlns="http://www.w3.org/2000/svg" xmlns:xlink="http://www.w3.org/1999/xlink">
<g id="graph0" class="graph" transform="scale(1 1) rotate(0) translate(4 80)">
<title>CpAttributeInterface.hpp</title>
<polygon fill="white" stroke="none" points="-4,4 -4,-80 803,-80 803,4 -4,4"/>
<!-- Node1 -->
<g id="node1" class="node"><title>Node1</title>
<polygon fill="#bfbfbf" stroke="black" points="364,-56.5 364,-75.5 487,-75.5 487,-56.5 364,-56.5"/>
<text text-anchor="middle" x="425.5" y="-63.5" font-family="Helvetica,sans-Serif" font-size="10.00">CpAttributeInterface.hpp</text>
</g>
<!-- Node2 -->
<g id="node2" class="node"><title>Node2</title>
<g id="a_node2"><a xlink:href="_attribute_info_8cpp.html" target="_top" xlink:title="Tem os métodos para adiquirir as informações dos atributos;. ">
<polygon fill="white" stroke="black" points="0,-0.5 0,-19.5 89,-19.5 89,-0.5 0,-0.5"/>
<text text-anchor="middle" x="44.5" y="-7.5" font-family="Helvetica,sans-Serif" font-size="10.00">AttributeInfo.cpp</text>
</a>
</g>
</g>
<!-- Node1&#45;&gt;Node2 -->
<g id="edge1" class="edge"><title>Node1&#45;&gt;Node2</title>
<path fill="none" stroke="midnightblue" d="M353.795,-55.831C287.281,-47.1672 185.583,-33.5175 97.5,-20 94.7325,-19.5753 91.8857,-19.1265 89.0164,-18.6652"/>
<polygon fill="midnightblue" stroke="midnightblue" points="353.386,-59.3072 363.753,-57.1251 354.288,-52.3655 353.386,-59.3072"/>
</g>
<!-- Node3 -->
<g id="node3" class="node"><title>Node3</title>
<g id="a_node3"><a xlink:href="_cp_attribute_interface_8cpp.html" target="_top" xlink:title="Funções que verificam, a partir da tag, qual o tipo do bytecode que está sendo lido;. ">
<polygon fill="white" stroke="black" points="107,-0.5 107,-19.5 230,-19.5 230,-0.5 107,-0.5"/>
<text text-anchor="middle" x="168.5" y="-7.5" font-family="Helvetica,sans-Serif" font-size="10.00">CpAttributeInterface.cpp</text>
</a>
</g>
</g>
<!-- Node1&#45;&gt;Node3 -->
<g id="edge2" class="edge"><title>Node1&#45;&gt;Node3</title>
<path fill="none" stroke="midnightblue" d="M374.793,-54.3456C326.224,-44.1405 253.881,-28.94 209.032,-19.5164"/>
<polygon fill="midnightblue" stroke="midnightblue" points="374.272,-57.8124 384.778,-56.4435 375.711,-50.962 374.272,-57.8124"/>
</g>
<!-- Node4 -->
<g id="node4" class="node"><title>Node4</title>
<g id="a_node4"><a xlink:href="_frame_8cpp.html" target="_top" xlink:title="Contrutor, destrutor e metodos para o funcionamento da lógica do frame;. ">
<polygon fill="white" stroke="black" points="248,-0.5 248,-19.5 311,-19.5 311,-0.5 248,-0.5"/>
<text text-anchor="middle" x="279.5" y="-7.5" font-family="Helvetica,sans-Serif" font-size="10.00">Frame.cpp</text>
</a>
</g>
</g>
<!-- Node1&#45;&gt;Node4 -->
<g id="edge3" class="edge"><title>Node1&#45;&gt;Node4</title>
<path fill="none" stroke="midnightblue" d="M392.801,-52.9058C365.352,-42.7536 326.832,-28.5063 302.526,-19.5164"/>
<polygon fill="midnightblue" stroke="midnightblue" points="391.773,-56.2572 402.366,-56.4435 394.201,-49.6919 391.773,-56.2572"/>
</g>
<!-- Node5 -->
<g id="node5" class="node"><title>Node5</title>
<g id="a_node5"><a xlink:href="_g_l_o_b_a_l__file_8cpp.html" target="_top" xlink:title="Contém métodos que serão utilizados de forma global, ao invés de termos que setar o mesmo para todos ...">
<polygon fill="white" stroke="black" points="329.5,-0.5 329.5,-19.5 421.5,-19.5 421.5,-0.5 329.5,-0.5"/>
<text text-anchor="middle" x="375.5" y="-7.5" font-family="Helvetica,sans-Serif" font-size="10.00">GLOBAL_file.cpp</text>
</a>
</g>
</g>
<!-- Node1&#45;&gt;Node5 -->
<g id="edge4" class="edge"><title>Node1&#45;&gt;Node5</title>
<path fill="none" stroke="midnightblue" d="M410.424,-48.7175C401.611,-39.1997 390.834,-27.5608 383.603,-19.7511"/>
<polygon fill="midnightblue" stroke="midnightblue" points="407.881,-51.1233 417.244,-56.083 413.018,-46.3674 407.881,-51.1233"/>
</g>
<!-- Node6 -->
<g id="node6" class="node"><title>Node6</title>
<g id="a_node6"><a xlink:href="_instance_8cpp.html" target="_top" xlink:title="Contém métodos para carregar as informações do Classloader na Instância;. ">
<polygon fill="white" stroke="black" points="440,-0.5 440,-19.5 513,-19.5 513,-0.5 440,-0.5"/>
<text text-anchor="middle" x="476.5" y="-7.5" font-family="Helvetica,sans-Serif" font-size="10.00">Instance.cpp</text>
</a>
</g>
</g>
<!-- Node1&#45;&gt;Node6 -->
<g id="edge5" class="edge"><title>Node1&#45;&gt;Node6</title>
<path fill="none" stroke="midnightblue" d="M440.878,-48.7175C449.867,-39.1997 460.859,-27.5608 468.235,-19.7511"/>
<polygon fill="midnightblue" stroke="midnightblue" points="438.243,-46.4096 433.922,-56.083 443.332,-51.216 438.243,-46.4096"/>
</g>
<!-- Node7 -->
<g id="node7" class="node"><title>Node7</title>
<g id="a_node7"><a xlink:href="_instruction_impl_8cpp.html" target="_top" xlink:title="Métodos referentes a execução de cada instrução ;. ">
<polygon fill="white" stroke="black" points="531.5,-0.5 531.5,-19.5 631.5,-19.5 631.5,-0.5 531.5,-0.5"/>
<text text-anchor="middle" x="581.5" y="-7.5" font-family="Helvetica,sans-Serif" font-size="10.00">InstructionImpl.cpp</text>
</a>
</g>
</g>
<!-- Node1&#45;&gt;Node7 -->
<g id="edge6" class="edge"><title>Node1&#45;&gt;Node7</title>
<path fill="none" stroke="midnightblue" d="M459.67,-53.172C489.044,-43.0039 530.698,-28.5852 556.897,-19.5164"/>
<polygon fill="midnightblue" stroke="midnightblue" points="458.524,-49.8649 450.219,-56.4435 460.813,-56.4798 458.524,-49.8649"/>
</g>
<!-- Node8 -->
<g id="node8" class="node"><title>Node8</title>
<g id="a_node8"><a xlink:href="_interpreter_8cpp.html" target="_top" xlink:title="Métodos que fazem a atuação do interpretador;. ">
<polygon fill="white" stroke="black" points="649.5,-0.5 649.5,-19.5 729.5,-19.5 729.5,-0.5 649.5,-0.5"/>
<text text-anchor="middle" x="689.5" y="-7.5" font-family="Helvetica,sans-Serif" font-size="10.00">Interpreter.cpp</text>
</a>
</g>
</g>
<!-- Node1&#45;&gt;Node8 -->
<g id="edge7" class="edge"><title>Node1&#45;&gt;Node8</title>
<path fill="none" stroke="midnightblue" d="M477.366,-54.391C527.73,-44.0893 603.133,-28.6661 649.163,-19.2508"/>
<polygon fill="midnightblue" stroke="midnightblue" points="476.427,-51.0105 467.332,-56.4435 477.83,-57.8685 476.427,-51.0105"/>
</g>
<!-- Node9 -->
<g id="node9" class="node"><title>Node9</title>
<g id="a_node9"><a xlink:href="jvm_8cpp.html" target="_top" xlink:title="Arquivo inicial em que é selecionado ou a exibição do leitor ou do interpretador dependendo da chamad...">
<polygon fill="white" stroke="black" points="748,-0.5 748,-19.5 799,-19.5 799,-0.5 748,-0.5"/>
<text text-anchor="middle" x="773.5" y="-7.5" font-family="Helvetica,sans-Serif" font-size="10.00">jvm.cpp</text>
</a>
</g>
</g>
<!-- Node1&#45;&gt;Node9 -->
<g id="edge8" class="edge"><title>Node1&#45;&gt;Node9</title>
<path fill="none" stroke="midnightblue" d="M496.952,-56.9752C560.639,-49.2894 656.228,-36.4412 738.5,-20 741.576,-19.3853 744.786,-18.6673 747.96,-17.91"/>
<polygon fill="midnightblue" stroke="midnightblue" points="496.525,-53.5012 487.012,-58.1642 497.357,-60.4517 496.525,-53.5012"/>
</g>
</g>
</svg>
