<?xml version="1.0" encoding="UTF-8" standalone="no"?>
<!DOCTYPE svg PUBLIC "-//W3C//DTD SVG 1.1//EN"
 "http://www.w3.org/Graphics/SVG/1.1/DTD/svg11.dtd">
<!-- Generated by graphviz version 2.38.0 (20140413.2041)
 -->
<!-- Title: CpInfo.hpp Pages: 1 -->
<svg width="926pt" height="420pt"
 viewBox="0.00 0.00 925.50 420.00" xmlns="http://www.w3.org/2000/svg" xmlns:xlink="http://www.w3.org/1999/xlink">
<g id="graph0" class="graph" transform="scale(1 1) rotate(0) translate(4 416)">
<title>CpInfo.hpp</title>
<polygon fill="white" stroke="none" points="-4,4 -4,-416 921.5,-416 921.5,4 -4,4"/>
<!-- Node1 -->
<g id="node1" class="node"><title>Node1</title>
<polygon fill="#bfbfbf" stroke="black" points="461.5,-392.5 461.5,-411.5 526.5,-411.5 526.5,-392.5 461.5,-392.5"/>
<text text-anchor="middle" x="494" y="-399.5" font-family="Helvetica,sans-Serif" font-size="10.00">CpInfo.hpp</text>
</g>
<!-- Node2 -->
<g id="node2" class="node"><title>Node2</title>
<g id="a_node2"><a xlink:href="_frame_8hpp.html" target="_top" xlink:title="Declarações das funções e da estrutura do Frame, utilizado para salvar resultados parciais...">
<polygon fill="white" stroke="black" points="270.5,-168.5 270.5,-187.5 333.5,-187.5 333.5,-168.5 270.5,-168.5"/>
<text text-anchor="middle" x="302" y="-175.5" font-family="Helvetica,sans-Serif" font-size="10.00">Frame.hpp</text>
</a>
</g>
</g>
<!-- Node1&#45;&gt;Node2 -->
<g id="edge1" class="edge"><title>Node1&#45;&gt;Node2</title>
<path fill="none" stroke="midnightblue" d="M451.313,-398.329C418.903,-394.082 375.385,-383.278 348,-356 299.862,-308.05 300.06,-216.58 301.421,-187.857"/>
<polygon fill="midnightblue" stroke="midnightblue" points="451.076,-401.824 461.41,-399.489 451.875,-394.87 451.076,-401.824"/>
</g>
<!-- Node12 -->
<g id="node12" class="node"><title>Node12</title>
<g id="a_node12"><a xlink:href="jvm_8cpp.html" target="_top" xlink:title="Arquivo inicial em que é selecionado ou a exibição do leitor ou do interpretador dependendo da chamad...">
<polygon fill="white" stroke="black" points="226.5,-0.5 226.5,-19.5 277.5,-19.5 277.5,-0.5 226.5,-0.5"/>
<text text-anchor="middle" x="252" y="-7.5" font-family="Helvetica,sans-Serif" font-size="10.00">jvm.cpp</text>
</a>
</g>
</g>
<!-- Node1&#45;&gt;Node12 -->
<g id="edge55" class="edge"><title>Node1&#45;&gt;Node12</title>
<path fill="none" stroke="midnightblue" d="M451.327,-395.804C362.517,-383.798 166,-350.507 166,-291 166,-291 166,-291 166,-177 166,-109.813 222.229,-42.7453 243.754,-19.5323"/>
<polygon fill="midnightblue" stroke="midnightblue" points="450.978,-399.288 461.351,-397.13 451.897,-392.349 450.978,-399.288"/>
</g>
<!-- Node16 -->
<g id="node16" class="node"><title>Node16</title>
<g id="a_node16"><a xlink:href="_attribute_info_8hpp.html" target="_top" xlink:title="Declarações das funções do AttributeInfo para tratamento dos atributos do arquivo ...">
<polygon fill="white" stroke="black" points="357.5,-336.5 357.5,-355.5 446.5,-355.5 446.5,-336.5 357.5,-336.5"/>
<text text-anchor="middle" x="402" y="-343.5" font-family="Helvetica,sans-Serif" font-size="10.00">AttributeInfo.hpp</text>
</a>
</g>
</g>
<!-- Node1&#45;&gt;Node16 -->
<g id="edge23" class="edge"><title>Node1&#45;&gt;Node16</title>
<path fill="none" stroke="midnightblue" d="M470.45,-387.177C453.521,-377.241 431.217,-364.149 416.745,-355.655"/>
<polygon fill="midnightblue" stroke="midnightblue" points="468.823,-390.28 479.219,-392.324 472.366,-384.243 468.823,-390.28"/>
</g>
<!-- Node17 -->
<g id="node17" class="node"><title>Node17</title>
<g id="a_node17"><a xlink:href="_method_info_8hpp.html" target="_top" xlink:title="Declarações das funções do MethodInfo estrutura responsável por guardas as informaçoes dos metodos do...">
<polygon fill="white" stroke="black" points="363,-280.5 363,-299.5 447,-299.5 447,-280.5 363,-280.5"/>
<text text-anchor="middle" x="405" y="-287.5" font-family="Helvetica,sans-Serif" font-size="10.00">MethodInfo.hpp</text>
</a>
</g>
</g>
<!-- Node1&#45;&gt;Node17 -->
<g id="edge42" class="edge"><title>Node1&#45;&gt;Node17</title>
<path fill="none" stroke="midnightblue" d="M485.211,-383.251C478.04,-369.632 467.137,-350.73 455,-336 443.415,-321.94 427.382,-308.305 416.624,-299.799"/>
<polygon fill="midnightblue" stroke="midnightblue" points="482.259,-385.167 489.926,-392.48 488.493,-381.982 482.259,-385.167"/>
</g>
<!-- Node18 -->
<g id="node18" class="node"><title>Node18</title>
<g id="a_node18"><a xlink:href="_class_loader_8hpp.html" target="_top" xlink:title="Declarações das funções do ClassLoader para salvar todos os bytes de .class corretamente. ">
<polygon fill="white" stroke="black" points="486,-224.5 486,-243.5 576,-243.5 576,-224.5 486,-224.5"/>
<text text-anchor="middle" x="531" y="-231.5" font-family="Helvetica,sans-Serif" font-size="10.00">ClassLoader.hpp</text>
</a>
</g>
</g>
<!-- Node1&#45;&gt;Node18 -->
<g id="edge43" class="edge"><title>Node1&#45;&gt;Node18</title>
<path fill="none" stroke="midnightblue" d="M498.251,-381.93C506.277,-345.92 523.37,-269.231 529.09,-243.568"/>
<polygon fill="midnightblue" stroke="midnightblue" points="494.749,-381.553 495.989,-392.075 501.581,-383.076 494.749,-381.553"/>
</g>
<!-- Node23 -->
<g id="node23" class="node"><title>Node23</title>
<g id="a_node23"><a xlink:href="_field_info_8hpp.html" target="_top" xlink:title="Declarações das funções do FieldInfo para tratamento dos fields do arquivo .class. ">
<polygon fill="white" stroke="black" points="541.5,-280.5 541.5,-299.5 614.5,-299.5 614.5,-280.5 541.5,-280.5"/>
<text text-anchor="middle" x="578" y="-287.5" font-family="Helvetica,sans-Serif" font-size="10.00">FieldInfo.hpp</text>
</a>
</g>
</g>
<!-- Node1&#45;&gt;Node23 -->
<g id="edge44" class="edge"><title>Node1&#45;&gt;Node23</title>
<path fill="none" stroke="midnightblue" d="M506.774,-384.272C524.932,-360.494 557.543,-317.789 571.439,-299.591"/>
<polygon fill="midnightblue" stroke="midnightblue" points="503.879,-382.297 500.591,-392.368 509.442,-386.545 503.879,-382.297"/>
</g>
<!-- Node25 -->
<g id="node25" class="node"><title>Node25</title>
<g id="a_node25"><a xlink:href="_cp_attribute_interface_8hpp.html" target="_top" xlink:title="Declarações da interface entre ConstantPool e AttributeInfo para traduzir as strings UTF8...">
<polygon fill="white" stroke="black" points="595.5,-56.5 595.5,-75.5 718.5,-75.5 718.5,-56.5 595.5,-56.5"/>
<text text-anchor="middle" x="657" y="-63.5" font-family="Helvetica,sans-Serif" font-size="10.00">CpAttributeInterface.hpp</text>
</a>
</g>
</g>
<!-- Node1&#45;&gt;Node25 -->
<g id="edge45" class="edge"><title>Node1&#45;&gt;Node25</title>
<path fill="none" stroke="midnightblue" d="M537.126,-396.635C596.456,-387.978 696,-362.762 696,-291 696,-291 696,-291 696,-177 696,-137.287 673.139,-93.9043 662.423,-75.7504"/>
<polygon fill="midnightblue" stroke="midnightblue" points="536.343,-393.209 526.904,-398.021 537.284,-400.145 536.343,-393.209"/>
</g>
<!-- Node27 -->
<g id="node27" class="node"><title>Node27</title>
<g id="a_node27"><a xlink:href="_cp_info_8cpp.html" target="_top" xlink:title="Ocorre os set&#39;s a partir dos bytes lidos no problema;. ">
<polygon fill="white" stroke="black" points="724.5,-336.5 724.5,-355.5 789.5,-355.5 789.5,-336.5 724.5,-336.5"/>
<text text-anchor="middle" x="757" y="-343.5" font-family="Helvetica,sans-Serif" font-size="10.00">CpInfo.cpp</text>
</a>
</g>
</g>
<!-- Node1&#45;&gt;Node27 -->
<g id="edge54" class="edge"><title>Node1&#45;&gt;Node27</title>
<path fill="none" stroke="midnightblue" d="M536.488,-392.276C588.841,-381.527 676.67,-363.494 724.149,-353.745"/>
<polygon fill="midnightblue" stroke="midnightblue" points="535.604,-388.885 526.513,-394.324 537.012,-395.742 535.604,-388.885"/>
</g>
<!-- Node3 -->
<g id="node3" class="node"><title>Node3</title>
<g id="a_node3"><a xlink:href="_instruction_impl_8hpp.html" target="_top" xlink:title="Declarações das funções do ClassLoader para salvar todos os bytes de .class corretamente. ">
<polygon fill="white" stroke="black" points="0,-112.5 0,-131.5 100,-131.5 100,-112.5 0,-112.5"/>
<text text-anchor="middle" x="50" y="-119.5" font-family="Helvetica,sans-Serif" font-size="10.00">InstructionImpl.hpp</text>
</a>
</g>
</g>
<!-- Node2&#45;&gt;Node3 -->
<g id="edge2" class="edge"><title>Node2&#45;&gt;Node3</title>
<path fill="none" stroke="midnightblue" d="M260.439,-168.094C213.203,-157.972 136.637,-141.565 90.0422,-131.58"/>
<polygon fill="midnightblue" stroke="midnightblue" points="259.828,-171.542 270.339,-170.216 261.295,-164.698 259.828,-171.542"/>
</g>
<!-- Node7 -->
<g id="node7" class="node"><title>Node7</title>
<g id="a_node7"><a xlink:href="_instance_8hpp.html" target="_top" xlink:title="Declaração da struct Instance. ">
<polygon fill="white" stroke="black" points="488.5,-112.5 488.5,-131.5 561.5,-131.5 561.5,-112.5 488.5,-112.5"/>
<text text-anchor="middle" x="525" y="-119.5" font-family="Helvetica,sans-Serif" font-size="10.00">Instance.hpp</text>
</a>
</g>
</g>
<!-- Node2&#45;&gt;Node7 -->
<g id="edge8" class="edge"><title>Node2&#45;&gt;Node7</title>
<path fill="none" stroke="midnightblue" d="M342.036,-165.957C383.59,-155.465 447.845,-139.959 488.183,-130.729"/>
<polygon fill="midnightblue" stroke="midnightblue" points="341.077,-162.589 332.246,-168.444 342.8,-169.374 341.077,-162.589"/>
</g>
<!-- Node10 -->
<g id="node10" class="node"><title>Node10</title>
<g id="a_node10"><a xlink:href="_instruction_impl_8cpp.html" target="_top" xlink:title="Métodos referentes a execução de cada instrução ;. ">
<polygon fill="white" stroke="black" points="377,-0.5 377,-19.5 477,-19.5 477,-0.5 377,-0.5"/>
<text text-anchor="middle" x="427" y="-7.5" font-family="Helvetica,sans-Serif" font-size="10.00">InstructionImpl.cpp</text>
</a>
</g>
</g>
<!-- Node2&#45;&gt;Node10 -->
<g id="edge21" class="edge"><title>Node2&#45;&gt;Node10</title>
<path fill="none" stroke="midnightblue" d="M311.099,-159.406C324.172,-134.942 349.817,-89.8443 378,-56 389.678,-41.9764 405.606,-28.1218 416.089,-19.5694"/>
<polygon fill="midnightblue" stroke="midnightblue" points="307.999,-157.781 306.438,-168.26 314.194,-161.042 307.999,-157.781"/>
</g>
<!-- Node14 -->
<g id="node14" class="node"><title>Node14</title>
<g id="a_node14"><a xlink:href="_interpreter_8hpp.html" target="_top" xlink:title="Declarações das funções e atributos do Interpretador para interpretar o que foi lido do ...">
<polygon fill="white" stroke="black" points="387,-56.5 387,-75.5 467,-75.5 467,-56.5 387,-56.5"/>
<text text-anchor="middle" x="427" y="-63.5" font-family="Helvetica,sans-Serif" font-size="10.00">Interpreter.hpp</text>
</a>
</g>
</g>
<!-- Node2&#45;&gt;Node14 -->
<g id="edge22" class="edge"><title>Node2&#45;&gt;Node14</title>
<path fill="none" stroke="midnightblue" d="M327.263,-163.588C341.458,-155.435 359.065,-144.253 373,-132 393.052,-114.369 411.886,-88.9539 421.099,-75.7341"/>
<polygon fill="midnightblue" stroke="midnightblue" points="325.521,-160.552 318.502,-168.488 328.938,-166.661 325.521,-160.552"/>
</g>
<!-- Node15 -->
<g id="node15" class="node"><title>Node15</title>
<g id="a_node15"><a xlink:href="_frame_8cpp.html" target="_top" xlink:title="Contrutor, destrutor e metodos para o funcionamento da lógica do frame;. ">
<polygon fill="white" stroke="black" points="295.5,-0.5 295.5,-19.5 358.5,-19.5 358.5,-0.5 295.5,-0.5"/>
<text text-anchor="middle" x="327" y="-7.5" font-family="Helvetica,sans-Serif" font-size="10.00">Frame.cpp</text>
</a>
</g>
</g>
<!-- Node2&#45;&gt;Node15 -->
<g id="edge20" class="edge"><title>Node2&#45;&gt;Node15</title>
<path fill="none" stroke="midnightblue" d="M304.872,-157.93C310.295,-121.92 321.845,-45.2312 325.71,-19.5681"/>
<polygon fill="midnightblue" stroke="midnightblue" points="301.372,-157.665 303.344,-168.075 308.294,-158.708 301.372,-157.665"/>
</g>
<!-- Node4 -->
<g id="node4" class="node"><title>Node4</title>
<g id="a_node4"><a xlink:href="_instruction_8hpp.html" target="_top" xlink:title="Declarações das instruçoes referentes ao interpretador da JVM. ">
<polygon fill="white" stroke="black" points="56.5,-56.5 56.5,-75.5 137.5,-75.5 137.5,-56.5 56.5,-56.5"/>
<text text-anchor="middle" x="97" y="-63.5" font-family="Helvetica,sans-Serif" font-size="10.00">Instruction.hpp</text>
</a>
</g>
</g>
<!-- Node3&#45;&gt;Node4 -->
<g id="edge3" class="edge"><title>Node3&#45;&gt;Node4</title>
<path fill="none" stroke="midnightblue" d="M64.4208,-104.431C72.6581,-94.9673 82.6539,-83.4827 89.3833,-75.7511"/>
<polygon fill="midnightblue" stroke="midnightblue" points="61.6863,-102.242 57.7611,-112.083 66.9664,-106.838 61.6863,-102.242"/>
</g>
<!-- Node6 -->
<g id="node6" class="node"><title>Node6</title>
<g id="a_node6"><a xlink:href="_instruction_8cpp.html" target="_top" xlink:title="Métodos que servem para inicializar todas as intruções contidas na documentação;. ...">
<polygon fill="white" stroke="black" points="3.5,-0.5 3.5,-19.5 84.5,-19.5 84.5,-0.5 3.5,-0.5"/>
<text text-anchor="middle" x="44" y="-7.5" font-family="Helvetica,sans-Serif" font-size="10.00">Instruction.cpp</text>
</a>
</g>
</g>
<!-- Node3&#45;&gt;Node6 -->
<g id="edge7" class="edge"><title>Node3&#45;&gt;Node6</title>
<path fill="none" stroke="midnightblue" d="M48.6606,-102.2C48.1084,-94.1358 47.4855,-84.6077 47,-76 45.8676,-55.9237 44.8596,-32.3412 44.3504,-19.8343"/>
<polygon fill="midnightblue" stroke="midnightblue" points="45.1831,-102.645 49.3725,-112.376 52.166,-102.157 45.1831,-102.645"/>
</g>
<!-- Node4&#45;&gt;Node2 -->
<g id="edge5" class="edge"><title>Node4&#45;&gt;Node2</title>
<path fill="none" stroke="midnightblue" d="M121.9,-80.361C164.518,-103.229 250.287,-149.251 285.914,-168.368"/>
<polygon fill="midnightblue" stroke="midnightblue" points="123.478,-77.2356 113.011,-75.5914 120.168,-83.4037 123.478,-77.2356"/>
</g>
<!-- Node5 -->
<g id="node5" class="node"><title>Node5</title>
<g id="a_node5"><a xlink:href="_attribute_info_8cpp.html" target="_top" xlink:title="Tem os métodos para adiquirir as informações dos atributos;. ">
<polygon fill="white" stroke="black" points="119.5,-0.5 119.5,-19.5 208.5,-19.5 208.5,-0.5 119.5,-0.5"/>
<text text-anchor="middle" x="164" y="-7.5" font-family="Helvetica,sans-Serif" font-size="10.00">AttributeInfo.cpp</text>
</a>
</g>
</g>
<!-- Node4&#45;&gt;Node5 -->
<g id="edge4" class="edge"><title>Node4&#45;&gt;Node5</title>
<path fill="none" stroke="midnightblue" d="M115.835,-49.8197C127.838,-40.1452 142.972,-27.9481 153.039,-19.8339"/>
<polygon fill="midnightblue" stroke="midnightblue" points="113.354,-47.3236 107.765,-56.324 117.747,-52.7738 113.354,-47.3236"/>
</g>
<!-- Node4&#45;&gt;Node6 -->
<g id="edge6" class="edge"><title>Node4&#45;&gt;Node6</title>
<path fill="none" stroke="midnightblue" d="M81.0191,-48.7175C71.6775,-39.1997 60.2541,-27.5608 52.589,-19.7511"/>
<polygon fill="midnightblue" stroke="midnightblue" points="78.7455,-51.3978 88.2481,-56.083 83.7413,-46.4945 78.7455,-51.3978"/>
</g>
<!-- Node7&#45;&gt;Node2 -->
<g id="edge9" class="edge"><title>Node7&#45;&gt;Node2</title>
<path fill="none" stroke="midnightblue" d="M484.892,-134.061C441.623,-144.985 373.802,-161.331 333.958,-170.379"/>
<polygon fill="midnightblue" stroke="midnightblue" points="485.967,-137.4 494.797,-131.545 484.244,-130.615 485.967,-137.4"/>
</g>
<!-- Node8 -->
<g id="node8" class="node"><title>Node8</title>
<g id="a_node8"><a xlink:href="_g_l_o_b_a_l__file_8hpp.html" target="_top" xlink:title="Armazenas classes estáticas para serem usadas por todo o código. ">
<polygon fill="white" stroke="black" points="485,-56.5 485,-75.5 577,-75.5 577,-56.5 485,-56.5"/>
<text text-anchor="middle" x="531" y="-63.5" font-family="Helvetica,sans-Serif" font-size="10.00">GLOBAL_file.hpp</text>
</a>
</g>
</g>
<!-- Node7&#45;&gt;Node8 -->
<g id="edge10" class="edge"><title>Node7&#45;&gt;Node8</title>
<path fill="none" stroke="midnightblue" d="M527.1,-102.101C528.096,-93.1357 529.238,-82.8579 530.028,-75.7511"/>
<polygon fill="midnightblue" stroke="midnightblue" points="523.617,-101.758 525.991,-112.083 530.574,-102.531 523.617,-101.758"/>
</g>
<!-- Node13 -->
<g id="node13" class="node"><title>Node13</title>
<g id="a_node13"><a xlink:href="_instance_8cpp.html" target="_top" xlink:title="Contém métodos para carregar as informações do Classloader na Instância;. ">
<polygon fill="white" stroke="black" points="844.5,-0.5 844.5,-19.5 917.5,-19.5 917.5,-0.5 844.5,-0.5"/>
<text text-anchor="middle" x="881" y="-7.5" font-family="Helvetica,sans-Serif" font-size="10.00">Instance.cpp</text>
</a>
</g>
</g>
<!-- Node7&#45;&gt;Node13 -->
<g id="edge15" class="edge"><title>Node7&#45;&gt;Node13</title>
<path fill="none" stroke="midnightblue" d="M571.758,-111.602C622.037,-101.315 698.584,-85.0804 727,-76 777.863,-59.7468 835.167,-33.2785 863.377,-19.6757"/>
<polygon fill="midnightblue" stroke="midnightblue" points="570.864,-108.212 561.765,-113.639 572.262,-115.071 570.864,-108.212"/>
</g>
<!-- Node7&#45;&gt;Node14 -->
<g id="edge16" class="edge"><title>Node7&#45;&gt;Node14</title>
<path fill="none" stroke="midnightblue" d="M500.414,-107.453C482.322,-97.4835 458.265,-84.2279 442.706,-75.6545"/>
<polygon fill="midnightblue" stroke="midnightblue" points="498.807,-110.563 509.255,-112.324 502.185,-104.432 498.807,-110.563"/>
</g>
<!-- Node9 -->
<g id="node9" class="node"><title>Node9</title>
<g id="a_node9"><a xlink:href="_g_l_o_b_a_l__file_8cpp.html" target="_top" xlink:title="Contém métodos que serão utilizados de forma global, ao invés de termos que setar o mesmo para todos ...">
<polygon fill="white" stroke="black" points="593,-0.5 593,-19.5 685,-19.5 685,-0.5 593,-0.5"/>
<text text-anchor="middle" x="639" y="-7.5" font-family="Helvetica,sans-Serif" font-size="10.00">GLOBAL_file.cpp</text>
</a>
</g>
</g>
<!-- Node8&#45;&gt;Node9 -->
<g id="edge11" class="edge"><title>Node8&#45;&gt;Node9</title>
<path fill="none" stroke="midnightblue" d="M557.548,-51.7261C577.546,-41.7271 604.387,-28.3065 621.691,-19.6545"/>
<polygon fill="midnightblue" stroke="midnightblue" points="555.731,-48.7213 548.352,-56.324 558.862,-54.9823 555.731,-48.7213"/>
</g>
<!-- Node8&#45;&gt;Node10 -->
<g id="edge12" class="edge"><title>Node8&#45;&gt;Node10</title>
<path fill="none" stroke="midnightblue" d="M505.172,-51.5895C485.943,-41.6052 460.255,-28.2672 443.668,-19.6545"/>
<polygon fill="midnightblue" stroke="midnightblue" points="503.803,-54.822 514.291,-56.324 507.029,-48.6095 503.803,-54.822"/>
</g>
<!-- Node11 -->
<g id="node11" class="node"><title>Node11</title>
<g id="a_node11"><a xlink:href="_interpreter_8cpp.html" target="_top" xlink:title="Métodos que fazem a atuação do interpretador;. ">
<polygon fill="white" stroke="black" points="495,-0.5 495,-19.5 575,-19.5 575,-0.5 495,-0.5"/>
<text text-anchor="middle" x="535" y="-7.5" font-family="Helvetica,sans-Serif" font-size="10.00">Interpreter.cpp</text>
</a>
</g>
</g>
<!-- Node8&#45;&gt;Node11 -->
<g id="edge13" class="edge"><title>Node8&#45;&gt;Node11</title>
<path fill="none" stroke="midnightblue" d="M532.4,-46.1005C533.064,-37.1357 533.825,-26.8579 534.352,-19.7511"/>
<polygon fill="midnightblue" stroke="midnightblue" points="528.909,-45.8517 531.661,-56.083 535.89,-46.3689 528.909,-45.8517"/>
</g>
<!-- Node8&#45;&gt;Node12 -->
<g id="edge14" class="edge"><title>Node8&#45;&gt;Node12</title>
<path fill="none" stroke="midnightblue" d="M474.588,-55.1592C413.799,-44.4618 321.057,-27.8471 286,-20 283.259,-19.3865 280.405,-18.7028 277.568,-17.9941"/>
<polygon fill="midnightblue" stroke="midnightblue" points="474.345,-58.67 484.8,-56.9535 475.557,-51.7757 474.345,-58.67"/>
</g>
<!-- Node14&#45;&gt;Node10 -->
<g id="edge17" class="edge"><title>Node14&#45;&gt;Node10</title>
<path fill="none" stroke="midnightblue" d="M427,-45.8045C427,-36.9102 427,-26.7798 427,-19.7511"/>
<polygon fill="midnightblue" stroke="midnightblue" points="423.5,-46.083 427,-56.083 430.5,-46.083 423.5,-46.083"/>
</g>
<!-- Node14&#45;&gt;Node11 -->
<g id="edge18" class="edge"><title>Node14&#45;&gt;Node11</title>
<path fill="none" stroke="midnightblue" d="M453.548,-51.7261C473.546,-41.7271 500.387,-28.3065 517.691,-19.6545"/>
<polygon fill="midnightblue" stroke="midnightblue" points="451.731,-48.7213 444.352,-56.324 454.862,-54.9823 451.731,-48.7213"/>
</g>
<!-- Node14&#45;&gt;Node12 -->
<g id="edge19" class="edge"><title>Node14&#45;&gt;Node12</title>
<path fill="none" stroke="midnightblue" d="M389.314,-53.3712C355.578,-42.9612 307.027,-27.9798 277.607,-18.9015"/>
<polygon fill="midnightblue" stroke="midnightblue" points="388.683,-56.8393 399.271,-56.4435 390.747,-50.1505 388.683,-56.8393"/>
</g>
<!-- Node16&#45;&gt;Node2 -->
<g id="edge35" class="edge"><title>Node16&#45;&gt;Node2</title>
<path fill="none" stroke="midnightblue" d="M382.574,-330.027C373.032,-321.926 361.915,-311.283 354,-300 327.343,-262.003 310.265,-208.182 304.336,-187.526"/>
<polygon fill="midnightblue" stroke="midnightblue" points="380.474,-332.83 390.434,-336.443 384.901,-327.408 380.474,-332.83"/>
</g>
<!-- Node16&#45;&gt;Node5 -->
<g id="edge40" class="edge"><title>Node16&#45;&gt;Node5</title>
<path fill="none" stroke="midnightblue" d="M347.183,-338.232C288.583,-327.575 204,-300.796 204,-235 204,-235 204,-235 204,-177 204,-115.34 177.594,-44.2915 167.691,-19.8161"/>
<polygon fill="midnightblue" stroke="midnightblue" points="346.624,-341.687 357.071,-339.924 347.804,-334.787 346.624,-341.687"/>
</g>
<!-- Node16&#45;&gt;Node12 -->
<g id="edge41" class="edge"><title>Node16&#45;&gt;Node12</title>
<path fill="none" stroke="midnightblue" d="M353.513,-333.605C306.425,-319.315 242,-289.759 242,-235 242,-235 242,-235 242,-121 242,-83.0316 247.982,-37.9929 250.693,-19.5338"/>
<polygon fill="midnightblue" stroke="midnightblue" points="352.69,-337.01 363.268,-336.426 354.634,-330.286 352.69,-337.01"/>
</g>
<!-- Node16&#45;&gt;Node17 -->
<g id="edge24" class="edge"><title>Node16&#45;&gt;Node17</title>
<path fill="none" stroke="midnightblue" d="M403.066,-325.805C403.561,-316.91 404.123,-306.78 404.514,-299.751"/>
<polygon fill="midnightblue" stroke="midnightblue" points="399.556,-325.904 402.495,-336.083 406.545,-326.293 399.556,-325.904"/>
</g>
<!-- Node16&#45;&gt;Node18 -->
<g id="edge39" class="edge"><title>Node16&#45;&gt;Node18</title>
<path fill="none" stroke="midnightblue" d="M420.115,-330.052C430.634,-321.335 444.113,-310.102 456,-300 479.37,-280.138 506.501,-256.472 520.864,-243.894"/>
<polygon fill="midnightblue" stroke="midnightblue" points="417.876,-327.361 412.402,-336.432 422.338,-332.755 417.876,-327.361"/>
</g>
<!-- Node16&#45;&gt;Node23 -->
<g id="edge36" class="edge"><title>Node16&#45;&gt;Node23</title>
<path fill="none" stroke="midnightblue" d="M439.689,-333.436C472.872,-323.255 520.428,-308.664 550.243,-299.516"/>
<polygon fill="midnightblue" stroke="midnightblue" points="438.421,-330.164 429.888,-336.444 440.475,-336.856 438.421,-330.164"/>
</g>
<!-- Node17&#45;&gt;Node2 -->
<g id="edge25" class="edge"><title>Node17&#45;&gt;Node2</title>
<path fill="none" stroke="midnightblue" d="M389.921,-272.897C367.778,-249.249 327.234,-205.949 310.045,-187.591"/>
<polygon fill="midnightblue" stroke="midnightblue" points="387.528,-275.461 396.918,-280.368 392.638,-270.677 387.528,-275.461"/>
</g>
<!-- Node17&#45;&gt;Node18 -->
<g id="edge26" class="edge"><title>Node17&#45;&gt;Node18</title>
<path fill="none" stroke="midnightblue" d="M434.16,-276.503C457.781,-266.38 490.428,-252.388 511.128,-243.516"/>
<polygon fill="midnightblue" stroke="midnightblue" points="432.778,-273.287 424.965,-280.444 435.535,-279.721 432.778,-273.287"/>
</g>
<!-- Node22 -->
<g id="node22" class="node"><title>Node22</title>
<g id="a_node22"><a xlink:href="_method_info_8cpp.html" target="_top" xlink:title="Métodos que simulam as a leitura dos methods assim como um destrutor;. ">
<polygon fill="white" stroke="black" points="384,-224.5 384,-243.5 468,-243.5 468,-224.5 384,-224.5"/>
<text text-anchor="middle" x="426" y="-231.5" font-family="Helvetica,sans-Serif" font-size="10.00">MethodInfo.cpp</text>
</a>
</g>
</g>
<!-- Node17&#45;&gt;Node22 -->
<g id="edge34" class="edge"><title>Node17&#45;&gt;Node22</title>
<path fill="none" stroke="midnightblue" d="M412.121,-270.69C415.66,-261.589 419.772,-251.014 422.597,-243.751"/>
<polygon fill="midnightblue" stroke="midnightblue" points="408.83,-269.494 408.468,-280.083 415.354,-272.032 408.83,-269.494"/>
</g>
<!-- Node18&#45;&gt;Node2 -->
<g id="edge27" class="edge"><title>Node18&#45;&gt;Node2</title>
<path fill="none" stroke="midnightblue" d="M484.926,-222.135C440.012,-211.544 372.914,-195.722 333.691,-186.473"/>
<polygon fill="midnightblue" stroke="midnightblue" points="484.178,-225.555 494.714,-224.444 485.785,-218.742 484.178,-225.555"/>
</g>
<!-- Node18&#45;&gt;Node7 -->
<g id="edge28" class="edge"><title>Node18&#45;&gt;Node7</title>
<path fill="none" stroke="midnightblue" d="M529.983,-214.348C528.668,-190.254 526.435,-149.308 525.469,-131.591"/>
<polygon fill="midnightblue" stroke="midnightblue" points="526.49,-214.574 530.529,-224.368 533.479,-214.193 526.49,-214.574"/>
</g>
<!-- Node18&#45;&gt;Node12 -->
<g id="edge31" class="edge"><title>Node18&#45;&gt;Node12</title>
<path fill="none" stroke="midnightblue" d="M482.605,-222.038C445.332,-212.947 397.478,-199.67 381,-188 314.285,-140.75 268.642,-48.0206 255.733,-19.5301"/>
<polygon fill="midnightblue" stroke="midnightblue" points="482.262,-225.555 492.802,-224.486 483.896,-218.748 482.262,-225.555"/>
</g>
<!-- Node18&#45;&gt;Node14 -->
<g id="edge30" class="edge"><title>Node18&#45;&gt;Node14</title>
<path fill="none" stroke="midnightblue" d="M519.918,-215.312C497.746,-179.921 448.655,-101.565 432.368,-75.5681"/>
<polygon fill="midnightblue" stroke="midnightblue" points="517.133,-217.459 525.409,-224.075 523.065,-213.743 517.133,-217.459"/>
</g>
<!-- Node19 -->
<g id="node19" class="node"><title>Node19</title>
<g id="a_node19"><a xlink:href="_class_loader_8cpp.html" target="_top" xlink:title="Arquivo que obtém os bytecodes do .class e realiza o carregamento dessas informações;. ">
<polygon fill="white" stroke="black" points="390,-168.5 390,-187.5 480,-187.5 480,-168.5 390,-168.5"/>
<text text-anchor="middle" x="435" y="-175.5" font-family="Helvetica,sans-Serif" font-size="10.00">ClassLoader.cpp</text>
</a>
</g>
</g>
<!-- Node18&#45;&gt;Node19 -->
<g id="edge29" class="edge"><title>Node18&#45;&gt;Node19</title>
<path fill="none" stroke="midnightblue" d="M506.426,-219.177C488.761,-209.241 465.487,-196.149 450.386,-187.655"/>
<polygon fill="midnightblue" stroke="midnightblue" points="505.144,-222.472 515.576,-224.324 508.576,-216.371 505.144,-222.472"/>
</g>
<!-- Node20 -->
<g id="node20" class="node"><title>Node20</title>
<g id="a_node20"><a xlink:href="_method_area_8hpp.html" target="_top" xlink:title="Declarações do MethodArea, estrutura responsável por guardar todas as estruturas ClassLoader. ">
<polygon fill="white" stroke="black" points="577,-168.5 577,-187.5 665,-187.5 665,-168.5 577,-168.5"/>
<text text-anchor="middle" x="621" y="-175.5" font-family="Helvetica,sans-Serif" font-size="10.00">MethodArea.hpp</text>
</a>
</g>
</g>
<!-- Node18&#45;&gt;Node20 -->
<g id="edge32" class="edge"><title>Node18&#45;&gt;Node20</title>
<path fill="none" stroke="midnightblue" d="M554.038,-219.177C570.599,-209.241 592.418,-196.149 606.576,-187.655"/>
<polygon fill="midnightblue" stroke="midnightblue" points="552.234,-216.178 545.46,-224.324 555.836,-222.18 552.234,-216.178"/>
</g>
<!-- Node21 -->
<g id="node21" class="node"><title>Node21</title>
<g id="a_node21"><a xlink:href="_method_area_8cpp.html" target="_top" xlink:title="Métodos que simulam a funcionalidade do MethodArea ;. ">
<polygon fill="white" stroke="black" points="580,-112.5 580,-131.5 668,-131.5 668,-112.5 580,-112.5"/>
<text text-anchor="middle" x="624" y="-119.5" font-family="Helvetica,sans-Serif" font-size="10.00">MethodArea.cpp</text>
</a>
</g>
</g>
<!-- Node20&#45;&gt;Node21 -->
<g id="edge33" class="edge"><title>Node20&#45;&gt;Node21</title>
<path fill="none" stroke="midnightblue" d="M622.066,-157.805C622.561,-148.91 623.123,-138.78 623.514,-131.751"/>
<polygon fill="midnightblue" stroke="midnightblue" points="618.556,-157.904 621.495,-168.083 625.545,-158.293 618.556,-157.904"/>
</g>
<!-- Node23&#45;&gt;Node18 -->
<g id="edge37" class="edge"><title>Node23&#45;&gt;Node18</title>
<path fill="none" stroke="midnightblue" d="M563.579,-272.431C555.342,-262.967 545.346,-251.483 538.617,-243.751"/>
<polygon fill="midnightblue" stroke="midnightblue" points="561.034,-274.838 570.239,-280.083 566.314,-270.242 561.034,-274.838"/>
</g>
<!-- Node24 -->
<g id="node24" class="node"><title>Node24</title>
<g id="a_node24"><a xlink:href="_field_info_8cpp.html" target="_top" xlink:title="Funções que mexerão com as informações das fields, armazendo os mesmos a partir da leitura dos byteco...">
<polygon fill="white" stroke="black" points="594.5,-224.5 594.5,-243.5 667.5,-243.5 667.5,-224.5 594.5,-224.5"/>
<text text-anchor="middle" x="631" y="-231.5" font-family="Helvetica,sans-Serif" font-size="10.00">FieldInfo.cpp</text>
</a>
</g>
</g>
<!-- Node23&#45;&gt;Node24 -->
<g id="edge38" class="edge"><title>Node23&#45;&gt;Node24</title>
<path fill="none" stroke="midnightblue" d="M593.981,-272.718C603.322,-263.2 614.746,-251.561 622.411,-243.751"/>
<polygon fill="midnightblue" stroke="midnightblue" points="591.259,-270.494 586.752,-280.083 596.254,-275.398 591.259,-270.494"/>
</g>
<!-- Node25&#45;&gt;Node5 -->
<g id="edge46" class="edge"><title>Node25&#45;&gt;Node5</title>
<path fill="none" stroke="midnightblue" d="M585.44,-55.9733C420.564,-37.7902 377.139,-41.381 217,-20 214.317,-19.6418 211.562,-19.2493 208.785,-18.8348"/>
<polygon fill="midnightblue" stroke="midnightblue" points="585.114,-59.4586 595.439,-57.0863 585.888,-52.5015 585.114,-59.4586"/>
</g>
<!-- Node25&#45;&gt;Node9 -->
<g id="edge49" class="edge"><title>Node25&#45;&gt;Node9</title>
<path fill="none" stroke="midnightblue" d="M650.799,-46.3956C647.787,-37.362 644.312,-26.936 641.917,-19.7511"/>
<polygon fill="midnightblue" stroke="midnightblue" points="647.545,-47.703 654.028,-56.083 654.186,-45.4893 647.545,-47.703"/>
</g>
<!-- Node25&#45;&gt;Node10 -->
<g id="edge51" class="edge"><title>Node25&#45;&gt;Node10</title>
<path fill="none" stroke="midnightblue" d="M610.799,-54.1529C567.342,-43.95 503.159,-28.8809 463.274,-19.5164"/>
<polygon fill="midnightblue" stroke="midnightblue" points="610.021,-57.5651 620.556,-56.4435 611.621,-50.7504 610.021,-57.5651"/>
</g>
<!-- Node25&#45;&gt;Node11 -->
<g id="edge52" class="edge"><title>Node25&#45;&gt;Node11</title>
<path fill="none" stroke="midnightblue" d="M628.461,-52.3678C605.614,-42.2553 574.195,-28.3486 554.241,-19.5164"/>
<polygon fill="midnightblue" stroke="midnightblue" points="627.108,-55.5965 637.669,-56.4435 629.941,-49.1955 627.108,-55.5965"/>
</g>
<!-- Node25&#45;&gt;Node12 -->
<g id="edge53" class="edge"><title>Node25&#45;&gt;Node12</title>
<path fill="none" stroke="midnightblue" d="M585.167,-55.9206C450.962,-39.8154 414.676,-44.6268 286,-20 283.241,-19.472 280.376,-18.8432 277.532,-18.1668"/>
<polygon fill="midnightblue" stroke="midnightblue" points="585.08,-59.4358 595.43,-57.1698 585.926,-52.4871 585.08,-59.4358"/>
</g>
<!-- Node25&#45;&gt;Node13 -->
<g id="edge50" class="edge"><title>Node25&#45;&gt;Node13</title>
<path fill="none" stroke="midnightblue" d="M702.263,-54.0884C744.582,-43.8865 806.909,-28.8612 845.673,-19.5164"/>
<polygon fill="midnightblue" stroke="midnightblue" points="701.395,-50.6974 692.493,-56.4435 703.035,-57.5024 701.395,-50.6974"/>
</g>
<!-- Node25&#45;&gt;Node15 -->
<g id="edge48" class="edge"><title>Node25&#45;&gt;Node15</title>
<path fill="none" stroke="midnightblue" d="M585.461,-55.1125C526.849,-46.7113 441.836,-33.8389 368,-20 364.992,-19.4361 361.867,-18.8151 358.745,-18.1707"/>
<polygon fill="midnightblue" stroke="midnightblue" points="584.967,-58.5774 595.361,-56.525 585.956,-51.6476 584.967,-58.5774"/>
</g>
<!-- Node26 -->
<g id="node26" class="node"><title>Node26</title>
<g id="a_node26"><a xlink:href="_cp_attribute_interface_8cpp.html" target="_top" xlink:title="Funções que verificam, a partir da tag, qual o tipo do bytecode que está sendo lido;. ">
<polygon fill="white" stroke="black" points="703.5,-0.5 703.5,-19.5 826.5,-19.5 826.5,-0.5 703.5,-0.5"/>
<text text-anchor="middle" x="765" y="-7.5" font-family="Helvetica,sans-Serif" font-size="10.00">CpAttributeInterface.cpp</text>
</a>
</g>
</g>
<!-- Node25&#45;&gt;Node26 -->
<g id="edge47" class="edge"><title>Node25&#45;&gt;Node26</title>
<path fill="none" stroke="midnightblue" d="M683.548,-51.7261C703.546,-41.7271 730.387,-28.3065 747.691,-19.6545"/>
<polygon fill="midnightblue" stroke="midnightblue" points="681.731,-48.7213 674.352,-56.324 684.862,-54.9823 681.731,-48.7213"/>
</g>
</g>
</svg>
