<?xml version="1.0" encoding="UTF-8" standalone="no"?>
<!DOCTYPE svg PUBLIC "-//W3C//DTD SVG 1.1//EN"
 "http://www.w3.org/Graphics/SVG/1.1/DTD/svg11.dtd">
<!-- Generated by graphviz version 2.38.0 (20140413.2041)
 -->
<!-- Title: CpInfo.cpp Pages: 1 -->
<svg width="251pt" height="140pt"
 viewBox="0.00 0.00 250.50 140.00" xmlns="http://www.w3.org/2000/svg" xmlns:xlink="http://www.w3.org/1999/xlink">
<g id="graph0" class="graph" transform="scale(1 1) rotate(0) translate(4 136)">
<title>CpInfo.cpp</title>
<polygon fill="white" stroke="none" points="-4,4 -4,-136 246.5,-136 246.5,4 -4,4"/>
<!-- Node1 -->
<g id="node1" class="node"><title>Node1</title>
<polygon fill="#bfbfbf" stroke="black" points="94,-112.5 94,-131.5 159,-131.5 159,-112.5 94,-112.5"/>
<text text-anchor="middle" x="126.5" y="-119.5" font-family="Helvetica,sans-Serif" font-size="10.00">CpInfo.cpp</text>
</g>
<!-- Node2 -->
<g id="node2" class="node"><title>Node2</title>
<g id="a_node2"><a xlink:href="_cp_info_8hpp.html" target="_top" xlink:title="Declarações das funções e dos atributos do Pool de constantes. ">
<polygon fill="white" stroke="black" points="0,-56.5 0,-75.5 65,-75.5 65,-56.5 0,-56.5"/>
<text text-anchor="middle" x="32.5" y="-63.5" font-family="Helvetica,sans-Serif" font-size="10.00">CpInfo.hpp</text>
</a>
</g>
</g>
<!-- Node1&#45;&gt;Node2 -->
<g id="edge1" class="edge"><title>Node1&#45;&gt;Node2</title>
<path fill="none" stroke="midnightblue" d="M111.397,-112.324C96.5967,-103.822 73.8058,-90.7288 56.5178,-80.7975"/>
<polygon fill="midnightblue" stroke="midnightblue" points="57.9798,-77.6009 47.5652,-75.6545 54.4929,-83.6707 57.9798,-77.6009"/>
</g>
<!-- Node5 -->
<g id="node5" class="node"><title>Node5</title>
<g id="a_node5"><a xlink:href="_byte_reader_8hpp.html" target="_top" xlink:title="Declarações das funções do ByteReader para leitura dos bytes no arquivo .class. ">
<polygon fill="white" stroke="black" points="83,-56.5 83,-75.5 170,-75.5 170,-56.5 83,-56.5"/>
<text text-anchor="middle" x="126.5" y="-63.5" font-family="Helvetica,sans-Serif" font-size="10.00">ByteReader.hpp</text>
</a>
</g>
</g>
<!-- Node1&#45;&gt;Node5 -->
<g id="edge4" class="edge"><title>Node1&#45;&gt;Node5</title>
<path fill="none" stroke="midnightblue" d="M126.5,-112.083C126.5,-105.006 126.5,-94.8611 126.5,-85.9865"/>
<polygon fill="midnightblue" stroke="midnightblue" points="130,-85.751 126.5,-75.7511 123,-85.7511 130,-85.751"/>
</g>
<!-- Node6 -->
<g id="node6" class="node"><title>Node6</title>
<polygon fill="white" stroke="#bfbfbf" points="188.5,-56.5 188.5,-75.5 242.5,-75.5 242.5,-56.5 188.5,-56.5"/>
<text text-anchor="middle" x="215.5" y="-63.5" font-family="Helvetica,sans-Serif" font-size="10.00">iostream</text>
</g>
<!-- Node1&#45;&gt;Node6 -->
<g id="edge6" class="edge"><title>Node1&#45;&gt;Node6</title>
<path fill="none" stroke="midnightblue" d="M140.799,-112.324C154.683,-103.9 175.992,-90.9709 192.304,-81.0741"/>
<polygon fill="midnightblue" stroke="midnightblue" points="194.502,-83.8341 201.236,-75.6545 190.871,-77.8495 194.502,-83.8341"/>
</g>
<!-- Node3 -->
<g id="node3" class="node"><title>Node3</title>
<polygon fill="white" stroke="#bfbfbf" points="9.5,-0.5 9.5,-19.5 55.5,-19.5 55.5,-0.5 9.5,-0.5"/>
<text text-anchor="middle" x="32.5" y="-7.5" font-family="Helvetica,sans-Serif" font-size="10.00">cstdint</text>
</g>
<!-- Node2&#45;&gt;Node3 -->
<g id="edge2" class="edge"><title>Node2&#45;&gt;Node3</title>
<path fill="none" stroke="midnightblue" d="M32.5,-56.083C32.5,-49.0059 32.5,-38.8611 32.5,-29.9865"/>
<polygon fill="midnightblue" stroke="midnightblue" points="36.0001,-29.751 32.5,-19.7511 29.0001,-29.7511 36.0001,-29.751"/>
</g>
<!-- Node4 -->
<g id="node4" class="node"><title>Node4</title>
<polygon fill="white" stroke="#bfbfbf" points="87.5,-0.5 87.5,-19.5 137.5,-19.5 137.5,-0.5 87.5,-0.5"/>
<text text-anchor="middle" x="112.5" y="-7.5" font-family="Helvetica,sans-Serif" font-size="10.00">fstream</text>
</g>
<!-- Node2&#45;&gt;Node4 -->
<g id="edge3" class="edge"><title>Node2&#45;&gt;Node4</title>
<path fill="none" stroke="midnightblue" d="M45.3534,-56.324C57.7164,-47.979 76.6301,-35.2122 91.2372,-25.3524"/>
<polygon fill="midnightblue" stroke="midnightblue" points="93.3482,-28.1503 99.6785,-19.6545 89.4318,-22.3483 93.3482,-28.1503"/>
</g>
<!-- Node5&#45;&gt;Node4 -->
<g id="edge5" class="edge"><title>Node5&#45;&gt;Node4</title>
<path fill="none" stroke="midnightblue" d="M124.188,-56.083C122.333,-48.9272 119.665,-38.6353 117.346,-29.6911"/>
<polygon fill="midnightblue" stroke="midnightblue" points="120.666,-28.5527 114.769,-19.7511 113.891,-30.3094 120.666,-28.5527"/>
</g>
</g>
</svg>
