<?xml version="1.0" encoding="UTF-8" standalone="no"?>
<!DOCTYPE svg PUBLIC "-//W3C//DTD SVG 1.1//EN"
 "http://www.w3.org/Graphics/SVG/1.1/DTD/svg11.dtd">
<!-- Generated by graphviz version 2.38.0 (20140413.2041)
 -->
<!-- Title: FieldInfo.cpp Pages: 1 -->
<svg width="297pt" height="252pt"
 viewBox="0.00 0.00 296.50 252.00" xmlns="http://www.w3.org/2000/svg" xmlns:xlink="http://www.w3.org/1999/xlink">
<g id="graph0" class="graph" transform="scale(1 1) rotate(0) translate(4 248)">
<title>FieldInfo.cpp</title>
<polygon fill="white" stroke="none" points="-4,4 -4,-248 292.5,-248 292.5,4 -4,4"/>
<!-- Node1 -->
<g id="node1" class="node"><title>Node1</title>
<polygon fill="#bfbfbf" stroke="black" points="135.5,-224.5 135.5,-243.5 208.5,-243.5 208.5,-224.5 135.5,-224.5"/>
<text text-anchor="middle" x="172" y="-231.5" font-family="Helvetica,sans-Serif" font-size="10.00">FieldInfo.cpp</text>
</g>
<!-- Node2 -->
<g id="node2" class="node"><title>Node2</title>
<g id="a_node2"><a xlink:href="_field_info_8hpp.html" target="_top" xlink:title="Declarações das funções do FieldInfo para tratamento dos fields do arquivo .class. ">
<polygon fill="white" stroke="black" points="83.5,-168.5 83.5,-187.5 156.5,-187.5 156.5,-168.5 83.5,-168.5"/>
<text text-anchor="middle" x="120" y="-175.5" font-family="Helvetica,sans-Serif" font-size="10.00">FieldInfo.hpp</text>
</a>
</g>
</g>
<!-- Node1&#45;&gt;Node2 -->
<g id="edge1" class="edge"><title>Node1&#45;&gt;Node2</title>
<path fill="none" stroke="midnightblue" d="M163.413,-224.083C155.841,-216.22 144.622,-204.569 135.486,-195.081"/>
<polygon fill="midnightblue" stroke="midnightblue" points="137.885,-192.527 128.427,-187.751 132.842,-197.382 137.885,-192.527"/>
</g>
<!-- Node8 -->
<g id="node8" class="node"><title>Node8</title>
<g id="a_node8"><a xlink:href="_byte_reader_8hpp.html" target="_top" xlink:title="Declarações das funções do ByteReader para leitura dos bytes no arquivo .class. ">
<polygon fill="white" stroke="black" points="201.5,-112.5 201.5,-131.5 288.5,-131.5 288.5,-112.5 201.5,-112.5"/>
<text text-anchor="middle" x="245" y="-119.5" font-family="Helvetica,sans-Serif" font-size="10.00">ByteReader.hpp</text>
</a>
</g>
</g>
<!-- Node1&#45;&gt;Node8 -->
<g id="edge11" class="edge"><title>Node1&#45;&gt;Node8</title>
<path fill="none" stroke="midnightblue" d="M177.728,-224.368C189.775,-206.215 217.923,-163.802 233.725,-139.99"/>
<polygon fill="midnightblue" stroke="midnightblue" points="236.685,-141.859 239.298,-131.591 230.853,-137.988 236.685,-141.859"/>
</g>
<!-- Node3 -->
<g id="node3" class="node"><title>Node3</title>
<g id="a_node3"><a xlink:href="_cp_info_8hpp.html" target="_top" xlink:title="Declarações das funções e dos atributos do Pool de constantes. ">
<polygon fill="white" stroke="black" points="151.5,-56.5 151.5,-75.5 216.5,-75.5 216.5,-56.5 151.5,-56.5"/>
<text text-anchor="middle" x="184" y="-63.5" font-family="Helvetica,sans-Serif" font-size="10.00">CpInfo.hpp</text>
</a>
</g>
</g>
<!-- Node2&#45;&gt;Node3 -->
<g id="edge2" class="edge"><title>Node2&#45;&gt;Node3</title>
<path fill="none" stroke="midnightblue" d="M127.086,-168.374C134.143,-159.556 145.045,-145.304 153,-132 162.113,-116.759 170.656,-98.422 176.457,-85.1155"/>
<polygon fill="midnightblue" stroke="midnightblue" points="179.778,-86.2494 180.479,-75.6778 173.338,-83.5048 179.778,-86.2494"/>
</g>
<!-- Node4 -->
<g id="node4" class="node"><title>Node4</title>
<polygon fill="white" stroke="#bfbfbf" points="0,-0.5 0,-19.5 46,-19.5 46,-0.5 0,-0.5"/>
<text text-anchor="middle" x="23" y="-7.5" font-family="Helvetica,sans-Serif" font-size="10.00">cstdint</text>
</g>
<!-- Node2&#45;&gt;Node4 -->
<g id="edge10" class="edge"><title>Node2&#45;&gt;Node4</title>
<path fill="none" stroke="midnightblue" d="M97.1757,-168.369C80.7219,-161.042 59.176,-148.992 46,-132 22.8195,-102.107 20.693,-55.7463 21.5917,-29.953"/>
<polygon fill="midnightblue" stroke="midnightblue" points="25.102,-29.8583 22.1527,-19.6822 18.1124,-29.4764 25.102,-29.8583"/>
</g>
<!-- Node6 -->
<g id="node6" class="node"><title>Node6</title>
<g id="a_node6"><a xlink:href="_attribute_info_8hpp.html" target="_top" xlink:title="Declarações das funções do AttributeInfo para tratamento dos atributos do arquivo ...">
<polygon fill="white" stroke="black" points="55.5,-112.5 55.5,-131.5 144.5,-131.5 144.5,-112.5 55.5,-112.5"/>
<text text-anchor="middle" x="100" y="-119.5" font-family="Helvetica,sans-Serif" font-size="10.00">AttributeInfo.hpp</text>
</a>
</g>
</g>
<!-- Node2&#45;&gt;Node6 -->
<g id="edge5" class="edge"><title>Node2&#45;&gt;Node6</title>
<path fill="none" stroke="midnightblue" d="M116.697,-168.083C114.018,-160.849 110.151,-150.409 106.814,-141.397"/>
<polygon fill="midnightblue" stroke="midnightblue" points="109.996,-139.913 103.241,-131.751 103.432,-142.344 109.996,-139.913"/>
</g>
<!-- Node3&#45;&gt;Node4 -->
<g id="edge3" class="edge"><title>Node3&#45;&gt;Node4</title>
<path fill="none" stroke="midnightblue" d="M158.489,-56.4435C130.687,-47.1186 86.1227,-32.1716 55.754,-21.9858"/>
<polygon fill="midnightblue" stroke="midnightblue" points="56.6379,-18.5907 46.044,-18.729 54.4119,-25.2274 56.6379,-18.5907"/>
</g>
<!-- Node5 -->
<g id="node5" class="node"><title>Node5</title>
<polygon fill="white" stroke="#bfbfbf" points="159,-0.5 159,-19.5 209,-19.5 209,-0.5 159,-0.5"/>
<text text-anchor="middle" x="184" y="-7.5" font-family="Helvetica,sans-Serif" font-size="10.00">fstream</text>
</g>
<!-- Node3&#45;&gt;Node5 -->
<g id="edge4" class="edge"><title>Node3&#45;&gt;Node5</title>
<path fill="none" stroke="midnightblue" d="M184,-56.083C184,-49.0059 184,-38.8611 184,-29.9865"/>
<polygon fill="midnightblue" stroke="midnightblue" points="187.5,-29.751 184,-19.7511 180.5,-29.7511 187.5,-29.751"/>
</g>
<!-- Node6&#45;&gt;Node3 -->
<g id="edge9" class="edge"><title>Node6&#45;&gt;Node3</title>
<path fill="none" stroke="midnightblue" d="M113.496,-112.324C126.6,-103.9 146.712,-90.9709 162.107,-81.0741"/>
<polygon fill="midnightblue" stroke="midnightblue" points="164.018,-84.0063 170.537,-75.6545 160.233,-78.118 164.018,-84.0063"/>
</g>
<!-- Node6&#45;&gt;Node4 -->
<g id="edge6" class="edge"><title>Node6&#45;&gt;Node4</title>
<path fill="none" stroke="midnightblue" d="M83.936,-112.372C70.8213,-104.537 52.7575,-91.8032 42,-76 32.5931,-62.181 27.7745,-43.6607 25.3492,-29.9246"/>
<polygon fill="midnightblue" stroke="midnightblue" points="28.764,-29.0938 23.8267,-19.7197 21.8407,-30.1268 28.764,-29.0938"/>
</g>
<!-- Node6&#45;&gt;Node5 -->
<g id="edge8" class="edge"><title>Node6&#45;&gt;Node5</title>
<path fill="none" stroke="midnightblue" d="M104.975,-112.258C112.406,-99.4584 127.129,-75.071 142,-56 149.968,-45.7819 159.81,-35.1483 167.963,-26.785"/>
<polygon fill="midnightblue" stroke="midnightblue" points="170.585,-29.1123 175.147,-19.5499 165.617,-24.1803 170.585,-29.1123"/>
</g>
<!-- Node7 -->
<g id="node7" class="node"><title>Node7</title>
<polygon fill="white" stroke="#bfbfbf" points="51,-56.5 51,-75.5 95,-75.5 95,-56.5 51,-56.5"/>
<text text-anchor="middle" x="73" y="-63.5" font-family="Helvetica,sans-Serif" font-size="10.00">vector</text>
</g>
<!-- Node6&#45;&gt;Node7 -->
<g id="edge7" class="edge"><title>Node6&#45;&gt;Node7</title>
<path fill="none" stroke="midnightblue" d="M95.5415,-112.083C91.8457,-104.691 86.4766,-93.9533 81.9055,-84.8111"/>
<polygon fill="midnightblue" stroke="midnightblue" points="84.9782,-83.1301 77.3755,-75.7511 78.7172,-86.2606 84.9782,-83.1301"/>
</g>
<!-- Node8&#45;&gt;Node5 -->
<g id="edge12" class="edge"><title>Node8&#45;&gt;Node5</title>
<path fill="none" stroke="midnightblue" d="M243.544,-112.095C241.143,-99.0937 235.536,-74.4568 225,-56 218.87,-45.261 209.779,-34.9386 201.714,-26.8952"/>
<polygon fill="midnightblue" stroke="midnightblue" points="203.794,-24.0428 194.139,-19.6804 198.966,-29.1116 203.794,-24.0428"/>
</g>
</g>
</svg>
