<?xml version="1.0" encoding="UTF-8" standalone="no"?>
<!DOCTYPE svg PUBLIC "-//W3C//DTD SVG 1.1//EN"
 "http://www.w3.org/Graphics/SVG/1.1/DTD/svg11.dtd">
<!-- Generated by graphviz version 2.38.0 (20140413.2041)
 -->
<!-- Title: FieldInfo.hpp Pages: 1 -->
<svg width="226pt" height="196pt"
 viewBox="0.00 0.00 225.66 196.00" xmlns="http://www.w3.org/2000/svg" xmlns:xlink="http://www.w3.org/1999/xlink">
<g id="graph0" class="graph" transform="scale(1 1) rotate(0) translate(4 192)">
<title>FieldInfo.hpp</title>
<polygon fill="white" stroke="none" points="-4,4 -4,-192 221.657,-192 221.657,4 -4,4"/>
<!-- Node1 -->
<g id="node1" class="node"><title>Node1</title>
<polygon fill="#bfbfbf" stroke="black" points="4.15717,-168.5 4.15717,-187.5 77.1572,-187.5 77.1572,-168.5 4.15717,-168.5"/>
<text text-anchor="middle" x="40.6572" y="-175.5" font-family="Helvetica,sans-Serif" font-size="10.00">FieldInfo.hpp</text>
</g>
<!-- Node2 -->
<g id="node2" class="node"><title>Node2</title>
<g id="a_node2"><a xlink:href="_cp_info_8hpp.html" target="_top" xlink:title="Declarações das funções e dos atributos do Pool de constantes. ">
<polygon fill="white" stroke="black" points="14.1572,-56.5 14.1572,-75.5 79.1572,-75.5 79.1572,-56.5 14.1572,-56.5"/>
<text text-anchor="middle" x="46.6572" y="-63.5" font-family="Helvetica,sans-Serif" font-size="10.00">CpInfo.hpp</text>
</a>
</g>
</g>
<!-- Node1&#45;&gt;Node2 -->
<g id="edge1" class="edge"><title>Node1&#45;&gt;Node2</title>
<path fill="none" stroke="midnightblue" d="M41.128,-168.368C42.0962,-150.617 44.3299,-109.666 45.6428,-85.5974"/>
<polygon fill="midnightblue" stroke="midnightblue" points="49.1386,-85.7672 46.1885,-75.5914 42.149,-85.3859 49.1386,-85.7672"/>
</g>
<!-- Node3 -->
<g id="node3" class="node"><title>Node3</title>
<polygon fill="white" stroke="#bfbfbf" points="23.6572,-0.5 23.6572,-19.5 69.6572,-19.5 69.6572,-0.5 23.6572,-0.5"/>
<text text-anchor="middle" x="46.6572" y="-7.5" font-family="Helvetica,sans-Serif" font-size="10.00">cstdint</text>
</g>
<!-- Node1&#45;&gt;Node3 -->
<g id="edge9" class="edge"><title>Node1&#45;&gt;Node3</title>
<path fill="none" stroke="midnightblue" d="M34.1492,-168.32C19.9087,-148.203 -11.4973,-96.9843 4.65717,-56 9.17117,-44.5479 18.1262,-34.291 26.6118,-26.4724"/>
<polygon fill="midnightblue" stroke="midnightblue" points="29.1258,-28.9275 34.4434,-19.7638 24.5719,-23.6113 29.1258,-28.9275"/>
</g>
<!-- Node5 -->
<g id="node5" class="node"><title>Node5</title>
<g id="a_node5"><a xlink:href="_attribute_info_8hpp.html" target="_top" xlink:title="Declarações das funções do AttributeInfo para tratamento dos atributos do arquivo ...">
<polygon fill="white" stroke="black" points="69.1572,-112.5 69.1572,-131.5 158.157,-131.5 158.157,-112.5 69.1572,-112.5"/>
<text text-anchor="middle" x="113.657" y="-119.5" font-family="Helvetica,sans-Serif" font-size="10.00">AttributeInfo.hpp</text>
</a>
</g>
</g>
<!-- Node1&#45;&gt;Node5 -->
<g id="edge4" class="edge"><title>Node1&#45;&gt;Node5</title>
<path fill="none" stroke="midnightblue" d="M52.3859,-168.324C63.4945,-160.107 80.3993,-147.602 93.6405,-137.807"/>
<polygon fill="midnightblue" stroke="midnightblue" points="95.757,-140.595 101.715,-131.834 91.5941,-134.967 95.757,-140.595"/>
</g>
<!-- Node2&#45;&gt;Node3 -->
<g id="edge2" class="edge"><title>Node2&#45;&gt;Node3</title>
<path fill="none" stroke="midnightblue" d="M46.6572,-56.083C46.6572,-49.0059 46.6572,-38.8611 46.6572,-29.9865"/>
<polygon fill="midnightblue" stroke="midnightblue" points="50.1573,-29.751 46.6572,-19.7511 43.1573,-29.7511 50.1573,-29.751"/>
</g>
<!-- Node4 -->
<g id="node4" class="node"><title>Node4</title>
<polygon fill="white" stroke="#bfbfbf" points="103.657,-0.5 103.657,-19.5 153.657,-19.5 153.657,-0.5 103.657,-0.5"/>
<text text-anchor="middle" x="128.657" y="-7.5" font-family="Helvetica,sans-Serif" font-size="10.00">fstream</text>
</g>
<!-- Node2&#45;&gt;Node4 -->
<g id="edge3" class="edge"><title>Node2&#45;&gt;Node4</title>
<path fill="none" stroke="midnightblue" d="M59.8319,-56.324C72.5039,-47.979 91.8905,-35.2122 106.863,-25.3524"/>
<polygon fill="midnightblue" stroke="midnightblue" points="109.088,-28.0776 115.515,-19.6545 105.238,-22.2313 109.088,-28.0776"/>
</g>
<!-- Node5&#45;&gt;Node2 -->
<g id="edge8" class="edge"><title>Node5&#45;&gt;Node2</title>
<path fill="none" stroke="midnightblue" d="M102.892,-112.324C92.891,-104.263 77.7706,-92.0765 65.7267,-82.3695"/>
<polygon fill="midnightblue" stroke="midnightblue" points="67.6001,-79.3841 57.6177,-75.8339 63.2074,-84.8343 67.6001,-79.3841"/>
</g>
<!-- Node5&#45;&gt;Node3 -->
<g id="edge5" class="edge"><title>Node5&#45;&gt;Node3</title>
<path fill="none" stroke="midnightblue" d="M111.214,-112.117C107.408,-99.1425 99.2727,-74.5389 87.6572,-56 81.0075,-45.3869 71.729,-34.9572 63.6802,-26.8151"/>
<polygon fill="midnightblue" stroke="midnightblue" points="65.7897,-23.9839 56.1842,-19.5135 60.9054,-28.9983 65.7897,-23.9839"/>
</g>
<!-- Node5&#45;&gt;Node4 -->
<g id="edge7" class="edge"><title>Node5&#45;&gt;Node4</title>
<path fill="none" stroke="midnightblue" d="M115.367,-112.401C117.121,-103.366 119.843,-88.726 121.657,-76 123.863,-60.5307 125.72,-42.901 126.967,-29.9085"/>
<polygon fill="midnightblue" stroke="midnightblue" points="130.46,-30.1355 127.898,-19.8553 123.49,-29.4899 130.46,-30.1355"/>
</g>
<!-- Node6 -->
<g id="node6" class="node"><title>Node6</title>
<polygon fill="white" stroke="#bfbfbf" points="173.657,-56.5 173.657,-75.5 217.657,-75.5 217.657,-56.5 173.657,-56.5"/>
<text text-anchor="middle" x="195.657" y="-63.5" font-family="Helvetica,sans-Serif" font-size="10.00">vector</text>
</g>
<!-- Node5&#45;&gt;Node6 -->
<g id="edge6" class="edge"><title>Node5&#45;&gt;Node6</title>
<path fill="none" stroke="midnightblue" d="M126.832,-112.324C139.504,-103.979 158.891,-91.2122 173.863,-81.3524"/>
<polygon fill="midnightblue" stroke="midnightblue" points="176.088,-84.0776 182.515,-75.6545 172.238,-78.2313 176.088,-84.0776"/>
</g>
</g>
</svg>
