<?xml version="1.0" encoding="UTF-8" standalone="no"?>
<!DOCTYPE svg PUBLIC "-//W3C//DTD SVG 1.1//EN"
 "http://www.w3.org/Graphics/SVG/1.1/DTD/svg11.dtd">
<!-- Generated by graphviz version 2.38.0 (20140413.2041)
 -->
<!-- Title: FieldInfo.hpp Pages: 1 -->
<svg width="852pt" height="308pt"
 viewBox="0.00 0.00 851.50 308.00" xmlns="http://www.w3.org/2000/svg" xmlns:xlink="http://www.w3.org/1999/xlink">
<g id="graph0" class="graph" transform="scale(1 1) rotate(0) translate(4 304)">
<title>FieldInfo.hpp</title>
<polygon fill="white" stroke="none" points="-4,4 -4,-304 847.5,-304 847.5,4 -4,4"/>
<!-- Node1 -->
<g id="node1" class="node"><title>Node1</title>
<polygon fill="#bfbfbf" stroke="black" points="614,-280.5 614,-299.5 687,-299.5 687,-280.5 614,-280.5"/>
<text text-anchor="middle" x="650.5" y="-287.5" font-family="Helvetica,sans-Serif" font-size="10.00">FieldInfo.hpp</text>
</g>
<!-- Node2 -->
<g id="node2" class="node"><title>Node2</title>
<g id="a_node2"><a xlink:href="_class_loader_8hpp.html" target="_top" xlink:title="Declarações das funções do ClassLoader para salvar todos os bytes de .class corretamente. ">
<polygon fill="white" stroke="black" points="555.5,-224.5 555.5,-243.5 645.5,-243.5 645.5,-224.5 555.5,-224.5"/>
<text text-anchor="middle" x="600.5" y="-231.5" font-family="Helvetica,sans-Serif" font-size="10.00">ClassLoader.hpp</text>
</a>
</g>
</g>
<!-- Node1&#45;&gt;Node2 -->
<g id="edge1" class="edge"><title>Node1&#45;&gt;Node2</title>
<path fill="none" stroke="midnightblue" d="M635.424,-272.718C626.611,-263.2 615.834,-251.561 608.603,-243.751"/>
<polygon fill="midnightblue" stroke="midnightblue" points="632.881,-275.123 642.244,-280.083 638.018,-270.367 632.881,-275.123"/>
</g>
<!-- Node20 -->
<g id="node20" class="node"><title>Node20</title>
<g id="a_node20"><a xlink:href="_field_info_8cpp.html" target="_top" xlink:title="Funções que mexerão com as informações das fields, armazendo os mesmos a partir da leitura dos byteco...">
<polygon fill="white" stroke="black" points="664,-224.5 664,-243.5 737,-243.5 737,-224.5 664,-224.5"/>
<text text-anchor="middle" x="700.5" y="-231.5" font-family="Helvetica,sans-Serif" font-size="10.00">FieldInfo.cpp</text>
</a>
</g>
</g>
<!-- Node1&#45;&gt;Node20 -->
<g id="edge30" class="edge"><title>Node1&#45;&gt;Node20</title>
<path fill="none" stroke="midnightblue" d="M665.576,-272.718C674.389,-263.2 685.166,-251.561 692.397,-243.751"/>
<polygon fill="midnightblue" stroke="midnightblue" points="662.982,-270.367 658.756,-280.083 668.119,-275.123 662.982,-270.367"/>
</g>
<!-- Node3 -->
<g id="node3" class="node"><title>Node3</title>
<g id="a_node3"><a xlink:href="_frame_8hpp.html" target="_top" xlink:title="Declarações das funções e da estrutura do Frame, utilizado para salvar resultados parciais...">
<polygon fill="white" stroke="black" points="355,-168.5 355,-187.5 418,-187.5 418,-168.5 355,-168.5"/>
<text text-anchor="middle" x="386.5" y="-175.5" font-family="Helvetica,sans-Serif" font-size="10.00">Frame.hpp</text>
</a>
</g>
</g>
<!-- Node2&#45;&gt;Node3 -->
<g id="edge2" class="edge"><title>Node2&#45;&gt;Node3</title>
<path fill="none" stroke="midnightblue" d="M556.825,-221.979C515.631,-211.584 454.877,-196.254 418.157,-186.988"/>
<polygon fill="midnightblue" stroke="midnightblue" points="556.039,-225.39 566.591,-224.444 557.751,-218.603 556.039,-225.39"/>
</g>
<!-- Node8 -->
<g id="node8" class="node"><title>Node8</title>
<g id="a_node8"><a xlink:href="_instance_8hpp.html" target="_top" xlink:title="Declaração da struct Instance. ">
<polygon fill="white" stroke="black" points="389,-112.5 389,-131.5 462,-131.5 462,-112.5 389,-112.5"/>
<text text-anchor="middle" x="425.5" y="-119.5" font-family="Helvetica,sans-Serif" font-size="10.00">Instance.hpp</text>
</a>
</g>
</g>
<!-- Node2&#45;&gt;Node8 -->
<g id="edge24" class="edge"><title>Node2&#45;&gt;Node8</title>
<path fill="none" stroke="midnightblue" d="M578.241,-219.009C541.508,-195.919 469.267,-150.51 439.168,-131.591"/>
<polygon fill="midnightblue" stroke="midnightblue" points="576.439,-222.01 586.768,-224.368 580.164,-216.083 576.439,-222.01"/>
</g>
<!-- Node13 -->
<g id="node13" class="node"><title>Node13</title>
<g id="a_node13"><a xlink:href="jvm_8cpp.html" target="_top" xlink:title="Arquivo inicial em que é selecionado ou a exibição do leitor ou do interpretador dependendo da chamad...">
<polygon fill="white" stroke="black" points="558,-0.5 558,-19.5 609,-19.5 609,-0.5 558,-0.5"/>
<text text-anchor="middle" x="583.5" y="-7.5" font-family="Helvetica,sans-Serif" font-size="10.00">jvm.cpp</text>
</a>
</g>
</g>
<!-- Node2&#45;&gt;Node13 -->
<g id="edge27" class="edge"><title>Node2&#45;&gt;Node13</title>
<path fill="none" stroke="midnightblue" d="M602.701,-214.158C606.017,-181.592 610.873,-112.808 600.5,-56 598.1,-42.8551 592.059,-28.5632 587.866,-19.6928"/>
<polygon fill="midnightblue" stroke="midnightblue" points="599.185,-214.107 601.58,-224.428 606.144,-214.867 599.185,-214.107"/>
</g>
<!-- Node15 -->
<g id="node15" class="node"><title>Node15</title>
<g id="a_node15"><a xlink:href="_interpreter_8hpp.html" target="_top" xlink:title="Declarações das funções e atributos do Interpretador para interpretar o que foi lido do ...">
<polygon fill="white" stroke="black" points="511.5,-56.5 511.5,-75.5 591.5,-75.5 591.5,-56.5 511.5,-56.5"/>
<text text-anchor="middle" x="551.5" y="-63.5" font-family="Helvetica,sans-Serif" font-size="10.00">Interpreter.hpp</text>
</a>
</g>
</g>
<!-- Node2&#45;&gt;Node15 -->
<g id="edge26" class="edge"><title>Node2&#45;&gt;Node15</title>
<path fill="none" stroke="midnightblue" d="M595.008,-214.395C584.438,-178.585 561.637,-101.342 554.029,-75.5681"/>
<polygon fill="midnightblue" stroke="midnightblue" points="591.678,-215.475 597.866,-224.075 598.391,-213.493 591.678,-215.475"/>
</g>
<!-- Node17 -->
<g id="node17" class="node"><title>Node17</title>
<g id="a_node17"><a xlink:href="_class_loader_8cpp.html" target="_top" xlink:title="Arquivo que obtém os bytecodes do .class e realiza o carregamento dessas informações;. ">
<polygon fill="white" stroke="black" points="647.5,-168.5 647.5,-187.5 737.5,-187.5 737.5,-168.5 647.5,-168.5"/>
<text text-anchor="middle" x="692.5" y="-175.5" font-family="Helvetica,sans-Serif" font-size="10.00">ClassLoader.cpp</text>
</a>
</g>
</g>
<!-- Node2&#45;&gt;Node17 -->
<g id="edge25" class="edge"><title>Node2&#45;&gt;Node17</title>
<path fill="none" stroke="midnightblue" d="M624.05,-219.177C640.979,-209.241 663.283,-196.149 677.755,-187.655"/>
<polygon fill="midnightblue" stroke="midnightblue" points="622.134,-216.243 615.281,-224.324 625.677,-222.28 622.134,-216.243"/>
</g>
<!-- Node18 -->
<g id="node18" class="node"><title>Node18</title>
<g id="a_node18"><a xlink:href="_method_area_8hpp.html" target="_top" xlink:title="Declarações do MethodArea, estrutura responsável por guardar todas as estruturas ClassLoader. ">
<polygon fill="white" stroke="black" points="755.5,-168.5 755.5,-187.5 843.5,-187.5 843.5,-168.5 755.5,-168.5"/>
<text text-anchor="middle" x="799.5" y="-175.5" font-family="Helvetica,sans-Serif" font-size="10.00">MethodArea.hpp</text>
</a>
</g>
</g>
<!-- Node2&#45;&gt;Node18 -->
<g id="edge28" class="edge"><title>Node2&#45;&gt;Node18</title>
<path fill="none" stroke="midnightblue" d="M642.148,-221.699C679.706,-211.507 734.114,-196.743 768.115,-187.516"/>
<polygon fill="midnightblue" stroke="midnightblue" points="640.767,-218.447 632.032,-224.444 642.6,-225.202 640.767,-218.447"/>
</g>
<!-- Node4 -->
<g id="node4" class="node"><title>Node4</title>
<g id="a_node4"><a xlink:href="_instruction_impl_8hpp.html" target="_top" xlink:title="Declarações das funções do ClassLoader para salvar todos os bytes de .class corretamente. ">
<polygon fill="white" stroke="black" points="97.5,-112.5 97.5,-131.5 197.5,-131.5 197.5,-112.5 97.5,-112.5"/>
<text text-anchor="middle" x="147.5" y="-119.5" font-family="Helvetica,sans-Serif" font-size="10.00">InstructionImpl.hpp</text>
</a>
</g>
</g>
<!-- Node3&#45;&gt;Node4 -->
<g id="edge3" class="edge"><title>Node3&#45;&gt;Node4</title>
<path fill="none" stroke="midnightblue" d="M344.741,-167.565C299.723,-157.393 228.697,-141.346 185.285,-131.537"/>
<polygon fill="midnightblue" stroke="midnightblue" points="344.237,-171.039 354.763,-169.829 345.78,-164.211 344.237,-171.039"/>
</g>
<!-- Node3&#45;&gt;Node8 -->
<g id="edge9" class="edge"><title>Node3&#45;&gt;Node8</title>
<path fill="none" stroke="midnightblue" d="M392.919,-159.275C398.826,-150.045 407.097,-139.17 414.049,-131.751"/>
<polygon fill="midnightblue" stroke="midnightblue" points="389.795,-157.683 387.774,-168.083 395.84,-161.213 389.795,-157.683"/>
</g>
<!-- Node11 -->
<g id="node11" class="node"><title>Node11</title>
<g id="a_node11"><a xlink:href="_instruction_impl_8cpp.html" target="_top" xlink:title="Métodos referentes a execução de cada instrução ;. ">
<polygon fill="white" stroke="black" points="231.5,-0.5 231.5,-19.5 331.5,-19.5 331.5,-0.5 231.5,-0.5"/>
<text text-anchor="middle" x="281.5" y="-7.5" font-family="Helvetica,sans-Serif" font-size="10.00">InstructionImpl.cpp</text>
</a>
</g>
</g>
<!-- Node3&#45;&gt;Node11 -->
<g id="edge22" class="edge"><title>Node3&#45;&gt;Node11</title>
<path fill="none" stroke="midnightblue" d="M369.211,-161.18C349.844,-142.563 318.779,-109.872 300.5,-76 290.45,-57.3764 285.139,-32.8072 282.872,-19.8607"/>
<polygon fill="midnightblue" stroke="midnightblue" points="367.045,-163.948 376.723,-168.259 371.846,-158.854 367.045,-163.948"/>
</g>
<!-- Node3&#45;&gt;Node15 -->
<g id="edge23" class="edge"><title>Node3&#45;&gt;Node15</title>
<path fill="none" stroke="midnightblue" d="M413.999,-163.885C430.768,-155.496 452.386,-143.972 470.5,-132 497.876,-113.906 527.267,-88.6863 541.971,-75.6181"/>
<polygon fill="midnightblue" stroke="midnightblue" points="412.173,-160.882 404.749,-168.441 415.266,-167.162 412.173,-160.882"/>
</g>
<!-- Node16 -->
<g id="node16" class="node"><title>Node16</title>
<g id="a_node16"><a xlink:href="_frame_8cpp.html" target="_top" xlink:title="Contrutor, destrutor e metodos para o funcionamento da lógica do frame;. ">
<polygon fill="white" stroke="black" points="216,-112.5 216,-131.5 279,-131.5 279,-112.5 216,-112.5"/>
<text text-anchor="middle" x="247.5" y="-119.5" font-family="Helvetica,sans-Serif" font-size="10.00">Frame.cpp</text>
</a>
</g>
</g>
<!-- Node3&#45;&gt;Node16 -->
<g id="edge21" class="edge"><title>Node3&#45;&gt;Node16</title>
<path fill="none" stroke="midnightblue" d="M355.024,-164.772C328.915,-154.629 292.461,-140.467 269.422,-131.516"/>
<polygon fill="midnightblue" stroke="midnightblue" points="353.886,-168.085 364.475,-168.444 356.421,-161.56 353.886,-168.085"/>
</g>
<!-- Node5 -->
<g id="node5" class="node"><title>Node5</title>
<g id="a_node5"><a xlink:href="_instruction_8hpp.html" target="_top" xlink:title="Declarações das instruçoes referentes ao interpretador da JVM. ">
<polygon fill="white" stroke="black" points="33,-56.5 33,-75.5 114,-75.5 114,-56.5 33,-56.5"/>
<text text-anchor="middle" x="73.5" y="-63.5" font-family="Helvetica,sans-Serif" font-size="10.00">Instruction.hpp</text>
</a>
</g>
</g>
<!-- Node4&#45;&gt;Node5 -->
<g id="edge4" class="edge"><title>Node4&#45;&gt;Node5</title>
<path fill="none" stroke="midnightblue" d="M127.466,-106.38C114.091,-96.6204 96.9412,-84.1057 85.6057,-75.8339"/>
<polygon fill="midnightblue" stroke="midnightblue" points="125.47,-109.257 135.611,-112.324 129.596,-103.602 125.47,-109.257"/>
</g>
<!-- Node7 -->
<g id="node7" class="node"><title>Node7</title>
<g id="a_node7"><a xlink:href="_instruction_8cpp.html" target="_top" xlink:title="Métodos que servem para inicializar todas as intruções contidas na documentação;. ...">
<polygon fill="white" stroke="black" points="107,-0.5 107,-19.5 188,-19.5 188,-0.5 107,-0.5"/>
<text text-anchor="middle" x="147.5" y="-7.5" font-family="Helvetica,sans-Serif" font-size="10.00">Instruction.cpp</text>
</a>
</g>
</g>
<!-- Node4&#45;&gt;Node7 -->
<g id="edge8" class="edge"><title>Node4&#45;&gt;Node7</title>
<path fill="none" stroke="midnightblue" d="M147.5,-102.348C147.5,-78.2538 147.5,-37.3079 147.5,-19.5914"/>
<polygon fill="midnightblue" stroke="midnightblue" points="144,-102.368 147.5,-112.368 151,-102.369 144,-102.368"/>
</g>
<!-- Node5&#45;&gt;Node3 -->
<g id="edge6" class="edge"><title>Node5&#45;&gt;Node3</title>
<path fill="none" stroke="midnightblue" d="M72.5397,-85.6619C72.8656,-100.391 75.9043,-120.338 88.5,-132 126.797,-167.459 286.381,-174.98 354.957,-176.573"/>
<polygon fill="midnightblue" stroke="midnightblue" points="76.0395,-85.696 72.7058,-75.6393 69.0404,-85.5799 76.0395,-85.696"/>
</g>
<!-- Node6 -->
<g id="node6" class="node"><title>Node6</title>
<g id="a_node6"><a xlink:href="_attribute_info_8cpp.html" target="_top" xlink:title="Tem os métodos para adiquirir as informações dos atributos;. ">
<polygon fill="white" stroke="black" points="0,-0.5 0,-19.5 89,-19.5 89,-0.5 0,-0.5"/>
<text text-anchor="middle" x="44.5" y="-7.5" font-family="Helvetica,sans-Serif" font-size="10.00">AttributeInfo.cpp</text>
</a>
</g>
</g>
<!-- Node5&#45;&gt;Node6 -->
<g id="edge5" class="edge"><title>Node5&#45;&gt;Node6</title>
<path fill="none" stroke="midnightblue" d="M63.8241,-46.9827C58.9016,-37.8168 53.1421,-27.0922 49.1997,-19.7511"/>
<polygon fill="midnightblue" stroke="midnightblue" points="60.8964,-48.929 68.7112,-56.083 67.0634,-45.6171 60.8964,-48.929"/>
</g>
<!-- Node5&#45;&gt;Node7 -->
<g id="edge7" class="edge"><title>Node5&#45;&gt;Node7</title>
<path fill="none" stroke="midnightblue" d="M93.5343,-50.3804C106.909,-40.6204 124.059,-28.1057 135.394,-19.8339"/>
<polygon fill="midnightblue" stroke="midnightblue" points="91.4042,-47.602 85.3894,-56.324 95.5305,-53.2565 91.4042,-47.602"/>
</g>
<!-- Node8&#45;&gt;Node3 -->
<g id="edge10" class="edge"><title>Node8&#45;&gt;Node3</title>
<path fill="none" stroke="midnightblue" d="M419.212,-140.52C413.341,-149.724 405.077,-160.613 398.106,-168.083"/>
<polygon fill="midnightblue" stroke="midnightblue" points="422.31,-142.155 424.311,-131.751 416.259,-138.637 422.31,-142.155"/>
</g>
<!-- Node9 -->
<g id="node9" class="node"><title>Node9</title>
<g id="a_node9"><a xlink:href="_g_l_o_b_a_l__file_8hpp.html" target="_top" xlink:title="Armazenas classes estáticas para serem usadas por todo o código. ">
<polygon fill="white" stroke="black" points="309.5,-56.5 309.5,-75.5 401.5,-75.5 401.5,-56.5 309.5,-56.5"/>
<text text-anchor="middle" x="355.5" y="-63.5" font-family="Helvetica,sans-Serif" font-size="10.00">GLOBAL_file.hpp</text>
</a>
</g>
</g>
<!-- Node8&#45;&gt;Node9 -->
<g id="edge11" class="edge"><title>Node8&#45;&gt;Node9</title>
<path fill="none" stroke="midnightblue" d="M406.186,-106.101C393.588,-96.3824 377.572,-84.0269 366.951,-75.8339"/>
<polygon fill="midnightblue" stroke="midnightblue" points="404.198,-108.987 414.253,-112.324 408.473,-103.445 404.198,-108.987"/>
</g>
<!-- Node14 -->
<g id="node14" class="node"><title>Node14</title>
<g id="a_node14"><a xlink:href="_instance_8cpp.html" target="_top" xlink:title="Contém métodos para carregar as informações do Classloader na Instância;. ">
<polygon fill="white" stroke="black" points="420,-56.5 420,-75.5 493,-75.5 493,-56.5 420,-56.5"/>
<text text-anchor="middle" x="456.5" y="-63.5" font-family="Helvetica,sans-Serif" font-size="10.00">Instance.cpp</text>
</a>
</g>
</g>
<!-- Node8&#45;&gt;Node14 -->
<g id="edge16" class="edge"><title>Node8&#45;&gt;Node14</title>
<path fill="none" stroke="midnightblue" d="M435.676,-103.275C440.974,-94.0454 447.217,-83.1703 451.476,-75.7511"/>
<polygon fill="midnightblue" stroke="midnightblue" points="432.562,-101.668 430.619,-112.083 438.633,-105.153 432.562,-101.668"/>
</g>
<!-- Node8&#45;&gt;Node15 -->
<g id="edge17" class="edge"><title>Node8&#45;&gt;Node15</title>
<path fill="none" stroke="midnightblue" d="M454.66,-108.503C478.281,-98.3795 510.928,-84.388 531.628,-75.5164"/>
<polygon fill="midnightblue" stroke="midnightblue" points="453.278,-105.287 445.465,-112.444 456.035,-111.721 453.278,-105.287"/>
</g>
<!-- Node10 -->
<g id="node10" class="node"><title>Node10</title>
<g id="a_node10"><a xlink:href="_g_l_o_b_a_l__file_8cpp.html" target="_top" xlink:title="Contém métodos que serão utilizados de forma global, ao invés de termos que setar o mesmo para todos ...">
<polygon fill="white" stroke="black" points="349.5,-0.5 349.5,-19.5 441.5,-19.5 441.5,-0.5 349.5,-0.5"/>
<text text-anchor="middle" x="395.5" y="-7.5" font-family="Helvetica,sans-Serif" font-size="10.00">GLOBAL_file.cpp</text>
</a>
</g>
</g>
<!-- Node9&#45;&gt;Node10 -->
<g id="edge12" class="edge"><title>Node9&#45;&gt;Node10</title>
<path fill="none" stroke="midnightblue" d="M368.2,-47.8554C375.126,-38.5048 383.406,-27.3265 389.018,-19.7511"/>
<polygon fill="midnightblue" stroke="midnightblue" points="365.245,-45.9641 362.105,-56.083 370.87,-50.1307 365.245,-45.9641"/>
</g>
<!-- Node9&#45;&gt;Node11 -->
<g id="edge13" class="edge"><title>Node9&#45;&gt;Node11</title>
<path fill="none" stroke="midnightblue" d="M335.466,-50.3804C322.091,-40.6204 304.941,-28.1057 293.606,-19.8339"/>
<polygon fill="midnightblue" stroke="midnightblue" points="333.47,-53.2565 343.611,-56.324 337.596,-47.602 333.47,-53.2565"/>
</g>
<!-- Node12 -->
<g id="node12" class="node"><title>Node12</title>
<g id="a_node12"><a xlink:href="_interpreter_8cpp.html" target="_top" xlink:title="Métodos que fazem a atuação do interpretador;. ">
<polygon fill="white" stroke="black" points="459.5,-0.5 459.5,-19.5 539.5,-19.5 539.5,-0.5 459.5,-0.5"/>
<text text-anchor="middle" x="499.5" y="-7.5" font-family="Helvetica,sans-Serif" font-size="10.00">Interpreter.cpp</text>
</a>
</g>
</g>
<!-- Node9&#45;&gt;Node12 -->
<g id="edge14" class="edge"><title>Node9&#45;&gt;Node12</title>
<path fill="none" stroke="midnightblue" d="M387.751,-52.9058C414.824,-42.7536 452.817,-28.5063 476.79,-19.5164"/>
<polygon fill="midnightblue" stroke="midnightblue" points="386.452,-49.6551 378.317,-56.4435 388.909,-56.2094 386.452,-49.6551"/>
</g>
<!-- Node9&#45;&gt;Node13 -->
<g id="edge15" class="edge"><title>Node9&#45;&gt;Node13</title>
<path fill="none" stroke="midnightblue" d="M403.075,-54.2227C442.183,-45.2879 499.008,-32.1315 548.5,-20 551.547,-19.2532 554.739,-18.4547 557.903,-17.6534"/>
<polygon fill="midnightblue" stroke="midnightblue" points="402.253,-50.8203 393.282,-56.4566 403.81,-57.645 402.253,-50.8203"/>
</g>
<!-- Node15&#45;&gt;Node11 -->
<g id="edge18" class="edge"><title>Node15&#45;&gt;Node11</title>
<path fill="none" stroke="midnightblue" d="M501.551,-55.0103C450.553,-44.8106 372.233,-29.1466 324.081,-19.5162"/>
<polygon fill="midnightblue" stroke="midnightblue" points="500.878,-58.4448 511.37,-56.974 502.25,-51.5807 500.878,-58.4448"/>
</g>
<!-- Node15&#45;&gt;Node12 -->
<g id="edge19" class="edge"><title>Node15&#45;&gt;Node12</title>
<path fill="none" stroke="midnightblue" d="M535.821,-48.7175C526.655,-39.1997 515.447,-27.5608 507.927,-19.7511"/>
<polygon fill="midnightblue" stroke="midnightblue" points="533.456,-51.3075 542.913,-56.083 538.498,-46.452 533.456,-51.3075"/>
</g>
<!-- Node15&#45;&gt;Node13 -->
<g id="edge20" class="edge"><title>Node15&#45;&gt;Node13</title>
<path fill="none" stroke="midnightblue" d="M562.004,-47.2747C567.473,-38.0454 573.918,-27.1703 578.314,-19.7511"/>
<polygon fill="midnightblue" stroke="midnightblue" points="558.871,-45.6957 556.784,-56.083 564.893,-49.2644 558.871,-45.6957"/>
</g>
<!-- Node19 -->
<g id="node19" class="node"><title>Node19</title>
<g id="a_node19"><a xlink:href="_method_area_8cpp.html" target="_top" xlink:title="Métodos que simulam a funcionalidade do MethodArea ;. ">
<polygon fill="white" stroke="black" points="755.5,-112.5 755.5,-131.5 843.5,-131.5 843.5,-112.5 755.5,-112.5"/>
<text text-anchor="middle" x="799.5" y="-119.5" font-family="Helvetica,sans-Serif" font-size="10.00">MethodArea.cpp</text>
</a>
</g>
</g>
<!-- Node18&#45;&gt;Node19 -->
<g id="edge29" class="edge"><title>Node18&#45;&gt;Node19</title>
<path fill="none" stroke="midnightblue" d="M799.5,-157.805C799.5,-148.91 799.5,-138.78 799.5,-131.751"/>
<polygon fill="midnightblue" stroke="midnightblue" points="796,-158.083 799.5,-168.083 803,-158.083 796,-158.083"/>
</g>
</g>
</svg>
