<?xml version="1.0" encoding="UTF-8" standalone="no"?>
<!DOCTYPE svg PUBLIC "-//W3C//DTD SVG 1.1//EN"
 "http://www.w3.org/Graphics/SVG/1.1/DTD/svg11.dtd">
<!-- Generated by graphviz version 2.38.0 (20140413.2041)
 -->
<!-- Title: Frame.cpp Pages: 1 -->
<svg width="859pt" height="420pt"
 viewBox="0.00 0.00 859.00 420.00" xmlns="http://www.w3.org/2000/svg" xmlns:xlink="http://www.w3.org/1999/xlink">
<g id="graph0" class="graph" transform="scale(1 1) rotate(0) translate(4 416)">
<title>Frame.cpp</title>
<polygon fill="white" stroke="none" points="-4,4 -4,-416 855,-416 855,4 -4,4"/>
<!-- Node1 -->
<g id="node1" class="node"><title>Node1</title>
<polygon fill="#bfbfbf" stroke="black" points="368.5,-392.5 368.5,-411.5 431.5,-411.5 431.5,-392.5 368.5,-392.5"/>
<text text-anchor="middle" x="400" y="-399.5" font-family="Helvetica,sans-Serif" font-size="10.00">Frame.cpp</text>
</g>
<!-- Node2 -->
<g id="node2" class="node"><title>Node2</title>
<g id="a_node2"><a xlink:href="_frame_8hpp.html" target="_top" xlink:title="Declarações das funções e da estrutura do Frame, utilizado para salvar resultados parciais...">
<polygon fill="white" stroke="black" points="368.5,-336.5 368.5,-355.5 431.5,-355.5 431.5,-336.5 368.5,-336.5"/>
<text text-anchor="middle" x="400" y="-343.5" font-family="Helvetica,sans-Serif" font-size="10.00">Frame.hpp</text>
</a>
</g>
</g>
<!-- Node1&#45;&gt;Node2 -->
<g id="edge1" class="edge"><title>Node1&#45;&gt;Node2</title>
<path fill="none" stroke="midnightblue" d="M400,-392.083C400,-385.006 400,-374.861 400,-365.986"/>
<polygon fill="midnightblue" stroke="midnightblue" points="403.5,-365.751 400,-355.751 396.5,-365.751 403.5,-365.751"/>
</g>
<!-- Node14 -->
<g id="node14" class="node"><title>Node14</title>
<polygon fill="white" stroke="#bfbfbf" points="797,-168.5 797,-187.5 851,-187.5 851,-168.5 797,-168.5"/>
<text text-anchor="middle" x="824" y="-175.5" font-family="Helvetica,sans-Serif" font-size="10.00">iostream</text>
</g>
<!-- Node1&#45;&gt;Node14 -->
<g id="edge52" class="edge"><title>Node1&#45;&gt;Node14</title>
<path fill="none" stroke="midnightblue" d="M431.504,-397.376C516.701,-386.93 748.703,-354.011 800,-300 826.337,-272.27 827.609,-224.35 825.969,-197.9"/>
<polygon fill="midnightblue" stroke="midnightblue" points="829.438,-197.379 825.122,-187.703 822.462,-197.959 829.438,-197.379"/>
</g>
<!-- Node24 -->
<g id="node24" class="node"><title>Node24</title>
<g id="a_node24"><a xlink:href="_cp_attribute_interface_8hpp.html" target="_top" xlink:title="Declarações da interface entre ConstantPool e AttributeInfo para traduzir as strings UTF8...">
<polygon fill="white" stroke="black" points="113.5,-280.5 113.5,-299.5 236.5,-299.5 236.5,-280.5 113.5,-280.5"/>
<text text-anchor="middle" x="175" y="-287.5" font-family="Helvetica,sans-Serif" font-size="10.00">CpAttributeInterface.hpp</text>
</a>
</g>
</g>
<!-- Node1&#45;&gt;Node24 -->
<g id="edge48" class="edge"><title>Node1&#45;&gt;Node24</title>
<path fill="none" stroke="midnightblue" d="M382.345,-392.368C343.077,-373.171 248.313,-326.842 201.742,-304.074"/>
<polygon fill="midnightblue" stroke="midnightblue" points="203.094,-300.839 192.573,-299.591 200.02,-307.128 203.094,-300.839"/>
</g>
<!-- Node3 -->
<g id="node3" class="node"><title>Node3</title>
<polygon fill="white" stroke="#bfbfbf" points="310,-0.5 310,-19.5 356,-19.5 356,-0.5 310,-0.5"/>
<text text-anchor="middle" x="333" y="-7.5" font-family="Helvetica,sans-Serif" font-size="10.00">cstdint</text>
</g>
<!-- Node2&#45;&gt;Node3 -->
<g id="edge2" class="edge"><title>Node2&#45;&gt;Node3</title>
<path fill="none" stroke="midnightblue" d="M368.407,-343.773C293.768,-340.42 108.763,-329.31 55,-300 21.7736,-281.886 0,-272.843 0,-235 0,-235 0,-235 0,-121 0,-58.3061 215.503,-25.2945 299.782,-14.7815"/>
<polygon fill="midnightblue" stroke="midnightblue" points="300.345,-18.2389 309.848,-13.5555 299.499,-11.2902 300.345,-18.2389"/>
</g>
<!-- Node4 -->
<g id="node4" class="node"><title>Node4</title>
<polygon fill="white" stroke="#bfbfbf" points="475.5,-224.5 475.5,-243.5 516.5,-243.5 516.5,-224.5 475.5,-224.5"/>
<text text-anchor="middle" x="496" y="-231.5" font-family="Helvetica,sans-Serif" font-size="10.00">string</text>
</g>
<!-- Node2&#45;&gt;Node4 -->
<g id="edge3" class="edge"><title>Node2&#45;&gt;Node4</title>
<path fill="none" stroke="midnightblue" d="M406.47,-336.366C416.056,-323.701 434.761,-299.48 452,-280 460.871,-269.977 471.327,-259.242 479.82,-250.772"/>
<polygon fill="midnightblue" stroke="midnightblue" points="482.31,-253.232 486.966,-243.715 477.391,-248.251 482.31,-253.232"/>
</g>
<!-- Node5 -->
<g id="node5" class="node"><title>Node5</title>
<polygon fill="white" stroke="#bfbfbf" points="155,-56.5 155,-75.5 199,-75.5 199,-56.5 155,-56.5"/>
<text text-anchor="middle" x="177" y="-63.5" font-family="Helvetica,sans-Serif" font-size="10.00">vector</text>
</g>
<!-- Node2&#45;&gt;Node5 -->
<g id="edge4" class="edge"><title>Node2&#45;&gt;Node5</title>
<path fill="none" stroke="midnightblue" d="M368.384,-343.39C299.07,-339.39 136.16,-327.291 89,-300 57.2181,-281.608 38,-271.72 38,-235 38,-235 38,-235 38,-177 38,-122.556 104.383,-90.828 145.398,-76.4203"/>
<polygon fill="midnightblue" stroke="midnightblue" points="146.608,-79.7062 154.975,-73.2066 144.381,-73.0699 146.608,-79.7062"/>
</g>
<!-- Node6 -->
<g id="node6" class="node"><title>Node6</title>
<polygon fill="white" stroke="#bfbfbf" points="637.5,-280.5 637.5,-299.5 678.5,-299.5 678.5,-280.5 637.5,-280.5"/>
<text text-anchor="middle" x="658" y="-287.5" font-family="Helvetica,sans-Serif" font-size="10.00">stack</text>
</g>
<!-- Node2&#45;&gt;Node6 -->
<g id="edge5" class="edge"><title>Node2&#45;&gt;Node6</title>
<path fill="none" stroke="midnightblue" d="M431.503,-339.184C474.797,-331.067 555.054,-315.58 623,-300 624.452,-299.667 625.937,-299.318 627.434,-298.96"/>
<polygon fill="midnightblue" stroke="midnightblue" points="628.451,-302.314 637.316,-296.511 626.767,-295.519 628.451,-302.314"/>
</g>
<!-- Node7 -->
<g id="node7" class="node"><title>Node7</title>
<polygon fill="white" stroke="#bfbfbf" points="534.5,-224.5 534.5,-243.5 569.5,-243.5 569.5,-224.5 534.5,-224.5"/>
<text text-anchor="middle" x="552" y="-231.5" font-family="Helvetica,sans-Serif" font-size="10.00">map</text>
</g>
<!-- Node2&#45;&gt;Node7 -->
<g id="edge6" class="edge"><title>Node2&#45;&gt;Node7</title>
<path fill="none" stroke="midnightblue" d="M431.742,-345.679C467.228,-344.517 523.334,-336.524 551,-300 560.894,-286.938 559.887,-267.785 557.162,-253.651"/>
<polygon fill="midnightblue" stroke="midnightblue" points="560.493,-252.529 554.783,-243.604 553.681,-254.142 560.493,-252.529"/>
</g>
<!-- Node8 -->
<g id="node8" class="node"><title>Node8</title>
<polygon fill="white" stroke="#bfbfbf" points="696.5,-280.5 696.5,-299.5 757.5,-299.5 757.5,-280.5 696.5,-280.5"/>
<text text-anchor="middle" x="727" y="-287.5" font-family="Helvetica,sans-Serif" font-size="10.00">Stack.hpp</text>
</g>
<!-- Node2&#45;&gt;Node8 -->
<g id="edge7" class="edge"><title>Node2&#45;&gt;Node8</title>
<path fill="none" stroke="midnightblue" d="M431.544,-340.746C482.804,-333.685 587.567,-318.63 686.597,-299.963"/>
<polygon fill="midnightblue" stroke="midnightblue" points="687.298,-303.393 696.468,-298.087 685.991,-296.516 687.298,-303.393"/>
</g>
<!-- Node9 -->
<g id="node9" class="node"><title>Node9</title>
<g id="a_node9"><a xlink:href="_cp_info_8hpp.html" target="_top" xlink:title="Declarações das funções e dos atributos do Pool de constantes. ">
<polygon fill="white" stroke="black" points="561.5,-56.5 561.5,-75.5 626.5,-75.5 626.5,-56.5 561.5,-56.5"/>
<text text-anchor="middle" x="594" y="-63.5" font-family="Helvetica,sans-Serif" font-size="10.00">CpInfo.hpp</text>
</a>
</g>
</g>
<!-- Node2&#45;&gt;Node9 -->
<g id="edge8" class="edge"><title>Node2&#45;&gt;Node9</title>
<path fill="none" stroke="midnightblue" d="M431.756,-343.461C516.659,-339.024 743.97,-324.905 766,-300 790.146,-272.703 834.167,-282.529 667,-112 654.176,-98.9179 636.815,-88.0155 622.241,-80.2198"/>
<polygon fill="midnightblue" stroke="midnightblue" points="623.637,-77.0025 613.142,-75.5538 620.443,-83.2312 623.637,-77.0025"/>
</g>
<!-- Node11 -->
<g id="node11" class="node"><title>Node11</title>
<g id="a_node11"><a xlink:href="_method_info_8hpp.html" target="_top" xlink:title="Declarações das funções do MethodInfo estrutura responsável por guardas as informaçoes dos metodos do...">
<polygon fill="white" stroke="black" points="218,-168.5 218,-187.5 302,-187.5 302,-168.5 218,-168.5"/>
<text text-anchor="middle" x="260" y="-175.5" font-family="Helvetica,sans-Serif" font-size="10.00">MethodInfo.hpp</text>
</a>
</g>
</g>
<!-- Node2&#45;&gt;Node11 -->
<g id="edge11" class="edge"><title>Node2&#45;&gt;Node11</title>
<path fill="none" stroke="midnightblue" d="M374.114,-336.447C355.628,-329.221 331.253,-317.263 315,-300 286.892,-270.144 271.305,-223.434 264.399,-197.654"/>
<polygon fill="midnightblue" stroke="midnightblue" points="267.73,-196.548 261.892,-187.707 260.943,-198.259 267.73,-196.548"/>
</g>
<!-- Node12 -->
<g id="node12" class="node"><title>Node12</title>
<g id="a_node12"><a xlink:href="_attribute_info_8hpp.html" target="_top" xlink:title="Declarações das funções do AttributeInfo para tratamento dos atributos do arquivo ...">
<polygon fill="white" stroke="black" points="288.5,-112.5 288.5,-131.5 377.5,-131.5 377.5,-112.5 288.5,-112.5"/>
<text text-anchor="middle" x="333" y="-119.5" font-family="Helvetica,sans-Serif" font-size="10.00">AttributeInfo.hpp</text>
</a>
</g>
</g>
<!-- Node2&#45;&gt;Node12 -->
<g id="edge19" class="edge"><title>Node2&#45;&gt;Node12</title>
<path fill="none" stroke="midnightblue" d="M368.309,-345.139C299.083,-344.699 137.838,-339.371 104,-300 39.2194,-224.627 211.24,-160.065 292.817,-134.601"/>
<polygon fill="midnightblue" stroke="midnightblue" points="294.228,-137.829 302.762,-131.551 292.176,-131.137 294.228,-137.829"/>
</g>
<!-- Node13 -->
<g id="node13" class="node"><title>Node13</title>
<g id="a_node13"><a xlink:href="_class_loader_8hpp.html" target="_top" xlink:title="Declarações das funções do ClassLoader para salvar todos os bytes de .class corretamente. ">
<polygon fill="white" stroke="black" points="329,-224.5 329,-243.5 419,-243.5 419,-224.5 329,-224.5"/>
<text text-anchor="middle" x="374" y="-231.5" font-family="Helvetica,sans-Serif" font-size="10.00">ClassLoader.hpp</text>
</a>
</g>
</g>
<!-- Node2&#45;&gt;Node13 -->
<g id="edge20" class="edge"><title>Node2&#45;&gt;Node13</title>
<path fill="none" stroke="midnightblue" d="M370.879,-336.441C353.357,-329.62 332.477,-318.141 322,-300 311.068,-281.072 331.205,-261.821 349.515,-249.235"/>
<polygon fill="midnightblue" stroke="midnightblue" points="351.708,-251.986 358.213,-243.623 347.912,-246.104 351.708,-251.986"/>
</g>
<!-- Node21 -->
<g id="node21" class="node"><title>Node21</title>
<g id="a_node21"><a xlink:href="_instruction_8hpp.html" target="_top" xlink:title="Declarações das instruçoes referentes ao interpretador da JVM. ">
<polygon fill="white" stroke="black" points="461.5,-280.5 461.5,-299.5 542.5,-299.5 542.5,-280.5 461.5,-280.5"/>
<text text-anchor="middle" x="502" y="-287.5" font-family="Helvetica,sans-Serif" font-size="10.00">Instruction.hpp</text>
</a>
</g>
</g>
<!-- Node2&#45;&gt;Node21 -->
<g id="edge39" class="edge"><title>Node2&#45;&gt;Node21</title>
<path fill="none" stroke="midnightblue" d="M416.388,-336.324C432.671,-327.703 457.867,-314.364 476.716,-304.386"/>
<polygon fill="midnightblue" stroke="midnightblue" points="478.452,-307.427 485.653,-299.655 475.177,-301.24 478.452,-307.427"/>
</g>
<!-- Node23 -->
<g id="node23" class="node"><title>Node23</title>
<g id="a_node23"><a xlink:href="_instance_8hpp.html" target="_top" xlink:title="Declaração da struct Instance. ">
<polygon fill="white" stroke="black" points="331.5,-280.5 331.5,-299.5 404.5,-299.5 404.5,-280.5 331.5,-280.5"/>
<text text-anchor="middle" x="368" y="-287.5" font-family="Helvetica,sans-Serif" font-size="10.00">Instance.hpp</text>
</a>
</g>
</g>
<!-- Node2&#45;&gt;Node23 -->
<g id="edge43" class="edge"><title>Node2&#45;&gt;Node23</title>
<path fill="none" stroke="midnightblue" d="M389.55,-336.083C383.673,-328.77 376.983,-318.181 372.315,-309.103"/>
<polygon fill="midnightblue" stroke="midnightblue" points="375.385,-307.401 368.055,-299.751 369.015,-310.302 375.385,-307.401"/>
</g>
<!-- Node9&#45;&gt;Node3 -->
<g id="edge9" class="edge"><title>Node9&#45;&gt;Node3</title>
<path fill="none" stroke="midnightblue" d="M561.472,-58.27C511.589,-47.9495 416.7,-28.3173 366.336,-17.8972"/>
<polygon fill="midnightblue" stroke="midnightblue" points="366.799,-14.4189 356.297,-15.8201 365.381,-21.2737 366.799,-14.4189"/>
</g>
<!-- Node10 -->
<g id="node10" class="node"><title>Node10</title>
<polygon fill="white" stroke="#bfbfbf" points="637,-0.5 637,-19.5 687,-19.5 687,-0.5 637,-0.5"/>
<text text-anchor="middle" x="662" y="-7.5" font-family="Helvetica,sans-Serif" font-size="10.00">fstream</text>
</g>
<!-- Node9&#45;&gt;Node10 -->
<g id="edge10" class="edge"><title>Node9&#45;&gt;Node10</title>
<path fill="none" stroke="midnightblue" d="M604.925,-56.324C615.175,-48.1849 630.721,-35.8395 643.001,-26.0874"/>
<polygon fill="midnightblue" stroke="midnightblue" points="645.221,-28.7937 650.876,-19.8339 640.868,-23.3119 645.221,-28.7937"/>
</g>
<!-- Node11&#45;&gt;Node3 -->
<g id="edge12" class="edge"><title>Node11&#45;&gt;Node3</title>
<path fill="none" stroke="midnightblue" d="M261.914,-168.395C264.856,-155.768 271,-131.592 279,-112 291.475,-81.45 310.47,-48.0626 322.289,-28.356"/>
<polygon fill="midnightblue" stroke="midnightblue" points="325.396,-29.9824 327.598,-19.619 319.414,-26.347 325.396,-29.9824"/>
</g>
<!-- Node11&#45;&gt;Node9 -->
<g id="edge18" class="edge"><title>Node11&#45;&gt;Node9</title>
<path fill="none" stroke="midnightblue" d="M285.93,-168.46C345.12,-148.966 490.281,-101.159 558.053,-78.839"/>
<polygon fill="midnightblue" stroke="midnightblue" points="559.452,-82.0629 567.856,-75.6104 557.263,-75.4142 559.452,-82.0629"/>
</g>
<!-- Node11&#45;&gt;Node12 -->
<g id="edge13" class="edge"><title>Node11&#45;&gt;Node12</title>
<path fill="none" stroke="midnightblue" d="M271.729,-168.324C282.837,-160.107 299.742,-147.602 312.983,-137.807"/>
<polygon fill="midnightblue" stroke="midnightblue" points="315.1,-140.595 321.058,-131.834 310.937,-134.967 315.1,-140.595"/>
</g>
<!-- Node12&#45;&gt;Node3 -->
<g id="edge14" class="edge"><title>Node12&#45;&gt;Node3</title>
<path fill="none" stroke="midnightblue" d="M333,-112.368C333,-94.617 333,-53.6664 333,-29.5974"/>
<polygon fill="midnightblue" stroke="midnightblue" points="336.5,-29.5914 333,-19.5914 329.5,-29.5915 336.5,-29.5914"/>
</g>
<!-- Node12&#45;&gt;Node5 -->
<g id="edge15" class="edge"><title>Node12&#45;&gt;Node5</title>
<path fill="none" stroke="midnightblue" d="M308.281,-112.444C281.383,-103.133 238.291,-88.2163 208.869,-78.0315"/>
<polygon fill="midnightblue" stroke="midnightblue" points="209.676,-74.607 199.081,-74.6433 207.386,-81.222 209.676,-74.607"/>
</g>
<!-- Node12&#45;&gt;Node9 -->
<g id="edge17" class="edge"><title>Node12&#45;&gt;Node9</title>
<path fill="none" stroke="midnightblue" d="M374.356,-112.444C422.801,-102.421 502.639,-85.9022 551.55,-75.7827"/>
<polygon fill="midnightblue" stroke="midnightblue" points="552.412,-79.1786 561.496,-73.7251 550.994,-72.3238 552.412,-79.1786"/>
</g>
<!-- Node12&#45;&gt;Node10 -->
<g id="edge16" class="edge"><title>Node12&#45;&gt;Node10</title>
<path fill="none" stroke="midnightblue" d="M358.542,-112.46C416.989,-92.9184 560.538,-44.9234 627.083,-22.6745"/>
<polygon fill="midnightblue" stroke="midnightblue" points="628.326,-25.9494 636.7,-19.459 626.106,-19.3106 628.326,-25.9494"/>
</g>
<!-- Node13&#45;&gt;Node3 -->
<g id="edge21" class="edge"><title>Node13&#45;&gt;Node3</title>
<path fill="none" stroke="midnightblue" d="M328.904,-233.038C288.303,-230.729 229.294,-221.245 191,-188 150.49,-152.832 156.185,-128.67 146,-76 144.312,-67.2728 140.499,-62.9821 146,-56 164.82,-32.1139 251.517,-19.4378 299.98,-14.1114"/>
<polygon fill="midnightblue" stroke="midnightblue" points="300.411,-17.5855 309.989,-13.0561 299.677,-10.6241 300.411,-17.5855"/>
</g>
<!-- Node13&#45;&gt;Node5 -->
<g id="edge24" class="edge"><title>Node13&#45;&gt;Node5</title>
<path fill="none" stroke="midnightblue" d="M328.696,-232.504C291.628,-229.63 240.372,-219.614 209,-188 181.668,-160.457 176.897,-112.463 176.51,-85.9512"/>
<polygon fill="midnightblue" stroke="midnightblue" points="180.012,-85.7483 176.568,-75.7287 173.012,-85.7087 180.012,-85.7483"/>
</g>
<!-- Node13&#45;&gt;Node9 -->
<g id="edge27" class="edge"><title>Node13&#45;&gt;Node9</title>
<path fill="none" stroke="midnightblue" d="M419.02,-225.99C492.762,-214.405 631.524,-192.127 635,-188 661.076,-157.044 629.143,-108.737 608.653,-83.5458"/>
<polygon fill="midnightblue" stroke="midnightblue" points="611.123,-81.0462 601.996,-75.6656 605.775,-85.5634 611.123,-81.0462"/>
</g>
<!-- Node13&#45;&gt;Node11 -->
<g id="edge28" class="edge"><title>Node13&#45;&gt;Node11</title>
<path fill="none" stroke="midnightblue" d="M355.936,-224.444C337.425,-215.675 308.419,-201.935 287.145,-191.858"/>
<polygon fill="midnightblue" stroke="midnightblue" points="288.515,-188.634 277.979,-187.516 285.518,-194.96 288.515,-188.634"/>
</g>
<!-- Node13&#45;&gt;Node12 -->
<g id="edge38" class="edge"><title>Node13&#45;&gt;Node12</title>
<path fill="none" stroke="midnightblue" d="M368.295,-224.377C362.686,-215.56 354.227,-201.31 349,-188 343.086,-172.94 338.872,-155.037 336.259,-141.837"/>
<polygon fill="midnightblue" stroke="midnightblue" points="339.632,-140.833 334.371,-131.637 332.749,-142.107 339.632,-140.833"/>
</g>
<!-- Node13&#45;&gt;Node14 -->
<g id="edge22" class="edge"><title>Node13&#45;&gt;Node14</title>
<path fill="none" stroke="midnightblue" d="M419.208,-227.575C508.246,-216.891 704.775,-193.307 786.848,-183.458"/>
<polygon fill="midnightblue" stroke="midnightblue" points="787.451,-186.911 796.963,-182.244 786.617,-179.961 787.451,-186.911"/>
</g>
<!-- Node15 -->
<g id="node15" class="node"><title>Node15</title>
<polygon fill="white" stroke="#bfbfbf" points="358,-168.5 358,-187.5 404,-187.5 404,-168.5 358,-168.5"/>
<text text-anchor="middle" x="381" y="-175.5" font-family="Helvetica,sans-Serif" font-size="10.00">cstring</text>
</g>
<!-- Node13&#45;&gt;Node15 -->
<g id="edge23" class="edge"><title>Node13&#45;&gt;Node15</title>
<path fill="none" stroke="midnightblue" d="M375.156,-224.083C376.084,-216.927 377.418,-206.635 378.577,-197.691"/>
<polygon fill="midnightblue" stroke="midnightblue" points="382.051,-198.118 379.866,-187.751 375.109,-197.218 382.051,-198.118"/>
</g>
<!-- Node16 -->
<g id="node16" class="node"><title>Node16</title>
<polygon fill="white" stroke="#bfbfbf" points="422,-168.5 422,-187.5 474,-187.5 474,-168.5 422,-168.5"/>
<text text-anchor="middle" x="448" y="-175.5" font-family="Helvetica,sans-Serif" font-size="10.00">memory</text>
</g>
<!-- Node13&#45;&gt;Node16 -->
<g id="edge25" class="edge"><title>Node13&#45;&gt;Node16</title>
<path fill="none" stroke="midnightblue" d="M385.889,-224.324C397.15,-216.107 414.287,-203.602 427.709,-193.807"/>
<polygon fill="midnightblue" stroke="midnightblue" points="429.88,-196.556 435.894,-187.834 425.753,-190.901 429.88,-196.556"/>
</g>
<!-- Node17 -->
<g id="node17" class="node"><title>Node17</title>
<polygon fill="white" stroke="#bfbfbf" points="492.5,-168.5 492.5,-187.5 535.5,-187.5 535.5,-168.5 492.5,-168.5"/>
<text text-anchor="middle" x="514" y="-175.5" font-family="Helvetica,sans-Serif" font-size="10.00">cstdio</text>
</g>
<!-- Node13&#45;&gt;Node17 -->
<g id="edge26" class="edge"><title>Node13&#45;&gt;Node17</title>
<path fill="none" stroke="midnightblue" d="M396.183,-224.444C419.565,-215.425 456.581,-201.147 482.878,-191.004"/>
<polygon fill="midnightblue" stroke="midnightblue" points="484.31,-194.203 492.38,-187.339 481.791,-187.672 484.31,-194.203"/>
</g>
<!-- Node18 -->
<g id="node18" class="node"><title>Node18</title>
<g id="a_node18"><a xlink:href="_interface_info_8hpp.html" target="_top" xlink:title="Declarações das funções e atributos de InterfaceInfo. ">
<polygon fill="white" stroke="black" points="759,-112.5 759,-131.5 849,-131.5 849,-112.5 759,-112.5"/>
<text text-anchor="middle" x="804" y="-119.5" font-family="Helvetica,sans-Serif" font-size="10.00">InterfaceInfo.hpp</text>
</a>
</g>
</g>
<!-- Node13&#45;&gt;Node18 -->
<g id="edge29" class="edge"><title>Node13&#45;&gt;Node18</title>
<path fill="none" stroke="midnightblue" d="M419.21,-227.77C489.908,-219.311 623.281,-202.145 669,-188 710.166,-175.264 754.584,-151.793 780.808,-136.813"/>
<polygon fill="midnightblue" stroke="midnightblue" points="782.71,-139.757 789.607,-131.714 779.2,-133.7 782.71,-139.757"/>
</g>
<!-- Node20 -->
<g id="node20" class="node"><title>Node20</title>
<g id="a_node20"><a xlink:href="_field_info_8hpp.html" target="_top" xlink:title="Declarações das funções do FieldInfo para tratamento dos fields do arquivo .class. ">
<polygon fill="white" stroke="black" points="553.5,-168.5 553.5,-187.5 626.5,-187.5 626.5,-168.5 553.5,-168.5"/>
<text text-anchor="middle" x="590" y="-175.5" font-family="Helvetica,sans-Serif" font-size="10.00">FieldInfo.hpp</text>
</a>
</g>
</g>
<!-- Node13&#45;&gt;Node20 -->
<g id="edge34" class="edge"><title>Node13&#45;&gt;Node20</title>
<path fill="none" stroke="midnightblue" d="M408.226,-224.444C445.512,-215.122 505.269,-200.183 546.011,-189.997"/>
<polygon fill="midnightblue" stroke="midnightblue" points="547.082,-193.337 555.934,-187.516 545.384,-186.546 547.082,-193.337"/>
</g>
<!-- Node18&#45;&gt;Node3 -->
<g id="edge31" class="edge"><title>Node18&#45;&gt;Node3</title>
<path fill="none" stroke="midnightblue" d="M777.429,-112.48C751.522,-103.964 711.149,-90.1359 677,-76 657.897,-68.0923 654.775,-62.0342 635,-56 540.213,-27.0764 422.809,-16.3986 366.372,-12.7427"/>
<polygon fill="midnightblue" stroke="midnightblue" points="366.438,-9.24021 356.243,-12.1203 366.009,-16.227 366.438,-9.24021"/>
</g>
<!-- Node18&#45;&gt;Node10 -->
<g id="edge30" class="edge"><title>Node18&#45;&gt;Node10</title>
<path fill="none" stroke="midnightblue" d="M803.376,-112.205C801.942,-98.4383 797.247,-71.7496 782,-56 759.457,-32.7141 723.716,-21.3583 697.096,-15.8952"/>
<polygon fill="midnightblue" stroke="midnightblue" points="697.501,-12.4106 687.029,-14.017 696.218,-19.2918 697.501,-12.4106"/>
</g>
<!-- Node19 -->
<g id="node19" class="node"><title>Node19</title>
<g id="a_node19"><a xlink:href="_byte_reader_8hpp.html" target="_top" xlink:title="Declarações das funções do ByteReader para leitura dos bytes no arquivo .class. ">
<polygon fill="white" stroke="black" points="686.5,-56.5 686.5,-75.5 773.5,-75.5 773.5,-56.5 686.5,-56.5"/>
<text text-anchor="middle" x="730" y="-63.5" font-family="Helvetica,sans-Serif" font-size="10.00">ByteReader.hpp</text>
</a>
</g>
</g>
<!-- Node18&#45;&gt;Node19 -->
<g id="edge32" class="edge"><title>Node18&#45;&gt;Node19</title>
<path fill="none" stroke="midnightblue" d="M792.111,-112.324C780.85,-104.107 763.713,-91.6017 750.291,-81.8069"/>
<polygon fill="midnightblue" stroke="midnightblue" points="752.247,-78.9014 742.106,-75.8339 748.12,-84.5559 752.247,-78.9014"/>
</g>
<!-- Node19&#45;&gt;Node10 -->
<g id="edge33" class="edge"><title>Node19&#45;&gt;Node10</title>
<path fill="none" stroke="midnightblue" d="M719.075,-56.324C708.825,-48.1849 693.279,-35.8395 680.999,-26.0874"/>
<polygon fill="midnightblue" stroke="midnightblue" points="683.132,-23.3119 673.124,-19.8339 678.779,-28.7937 683.132,-23.3119"/>
</g>
<!-- Node20&#45;&gt;Node3 -->
<g id="edge37" class="edge"><title>Node20&#45;&gt;Node3</title>
<path fill="none" stroke="midnightblue" d="M576.544,-168.309C534.649,-141.248 406.266,-58.3239 354.737,-25.0406"/>
<polygon fill="midnightblue" stroke="midnightblue" points="356.622,-22.0909 346.322,-19.6051 352.823,-27.9709 356.622,-22.0909"/>
</g>
<!-- Node20&#45;&gt;Node9 -->
<g id="edge35" class="edge"><title>Node20&#45;&gt;Node9</title>
<path fill="none" stroke="midnightblue" d="M590.314,-168.368C590.959,-150.617 592.448,-109.666 593.324,-85.5974"/>
<polygon fill="midnightblue" stroke="midnightblue" points="596.822,-85.712 593.688,-75.5914 589.826,-85.4576 596.822,-85.712"/>
</g>
<!-- Node20&#45;&gt;Node12 -->
<g id="edge36" class="edge"><title>Node20&#45;&gt;Node12</title>
<path fill="none" stroke="midnightblue" d="M553.451,-169.32C508.982,-159.977 433.659,-144.15 383.626,-133.637"/>
<polygon fill="midnightblue" stroke="midnightblue" points="384.169,-130.175 373.663,-131.544 382.73,-137.026 384.169,-130.175"/>
</g>
<!-- Node21&#45;&gt;Node4 -->
<g id="edge40" class="edge"><title>Node21&#45;&gt;Node4</title>
<path fill="none" stroke="midnightblue" d="M501.009,-280.083C500.214,-272.927 499.071,-262.635 498.077,-253.691"/>
<polygon fill="midnightblue" stroke="midnightblue" points="501.555,-253.303 496.972,-243.751 494.598,-254.076 501.555,-253.303"/>
</g>
<!-- Node22 -->
<g id="node22" class="node"><title>Node22</title>
<g id="a_node22"><a xlink:href="_instruction_impl_8hpp.html" target="_top" xlink:title="Declarações das funções do ClassLoader para salvar todos os bytes de .class corretamente. ">
<polygon fill="white" stroke="black" points="588,-224.5 588,-243.5 688,-243.5 688,-224.5 588,-224.5"/>
<text text-anchor="middle" x="638" y="-231.5" font-family="Helvetica,sans-Serif" font-size="10.00">InstructionImpl.hpp</text>
</a>
</g>
</g>
<!-- Node21&#45;&gt;Node22 -->
<g id="edge41" class="edge"><title>Node21&#45;&gt;Node22</title>
<path fill="none" stroke="midnightblue" d="M523.55,-280.444C546.031,-271.517 581.488,-257.439 606.98,-247.317"/>
<polygon fill="midnightblue" stroke="midnightblue" points="608.549,-250.46 616.551,-243.516 605.965,-243.954 608.549,-250.46"/>
</g>
<!-- Node22&#45;&gt;Node2 -->
<g id="edge42" class="edge"><title>Node22&#45;&gt;Node2</title>
<path fill="none" stroke="midnightblue" d="M631.344,-243.583C620.052,-257.546 595.747,-285.113 569,-300 528.917,-322.31 477.282,-333.96 441.691,-339.762"/>
<polygon fill="midnightblue" stroke="midnightblue" points="440.995,-336.328 431.647,-341.314 442.064,-343.246 440.995,-336.328"/>
</g>
<!-- Node23&#45;&gt;Node2 -->
<g id="edge47" class="edge"><title>Node23&#45;&gt;Node2</title>
<path fill="none" stroke="midnightblue" d="M378.317,-299.751C384.244,-307.092 391.024,-317.817 395.729,-326.983"/>
<polygon fill="midnightblue" stroke="midnightblue" points="392.547,-328.438 399.882,-336.083 398.915,-325.532 392.547,-328.438"/>
</g>
<!-- Node23&#45;&gt;Node4 -->
<g id="edge45" class="edge"><title>Node23&#45;&gt;Node4</title>
<path fill="none" stroke="midnightblue" d="M388.282,-280.444C409.347,-271.557 442.517,-257.563 466.486,-247.451"/>
<polygon fill="midnightblue" stroke="midnightblue" points="467.96,-250.628 475.813,-243.516 465.239,-244.179 467.96,-250.628"/>
</g>
<!-- Node23&#45;&gt;Node7 -->
<g id="edge44" class="edge"><title>Node23&#45;&gt;Node7</title>
<path fill="none" stroke="midnightblue" d="M399.394,-280.426C429.185,-272.196 475.426,-259.183 524.473,-244.065"/>
<polygon fill="midnightblue" stroke="midnightblue" points="525.801,-247.318 534.316,-241.014 523.728,-240.632 525.801,-247.318"/>
</g>
<!-- Node23&#45;&gt;Node13 -->
<g id="edge46" class="edge"><title>Node23&#45;&gt;Node13</title>
<path fill="none" stroke="midnightblue" d="M368.991,-280.083C369.786,-272.927 370.929,-262.635 371.923,-253.691"/>
<polygon fill="midnightblue" stroke="midnightblue" points="375.402,-254.076 373.028,-243.751 368.445,-253.303 375.402,-254.076"/>
</g>
<!-- Node24&#45;&gt;Node4 -->
<g id="edge49" class="edge"><title>Node24&#45;&gt;Node4</title>
<path fill="none" stroke="midnightblue" d="M236.676,-281.032C294.807,-273.113 384.213,-259.876 461,-244 462.459,-243.698 463.949,-243.375 465.451,-243.037"/>
<polygon fill="midnightblue" stroke="midnightblue" points="466.442,-246.399 475.348,-240.659 464.807,-239.592 466.442,-246.399"/>
</g>
<!-- Node24&#45;&gt;Node5 -->
<g id="edge50" class="edge"><title>Node24&#45;&gt;Node5</title>
<path fill="none" stroke="midnightblue" d="M174.861,-280.158C174.485,-254.291 173.567,-176.515 175,-112 175.191,-103.391 175.588,-93.8632 175.978,-85.799"/>
<polygon fill="midnightblue" stroke="midnightblue" points="179.483,-85.79 176.503,-75.623 172.492,-85.4294 179.483,-85.79"/>
</g>
<!-- Node24&#45;&gt;Node9 -->
<g id="edge51" class="edge"><title>Node24&#45;&gt;Node9</title>
<path fill="none" stroke="midnightblue" d="M236.648,-283.405C288.716,-277.42 364.697,-265.701 428,-244 446.054,-237.811 447.987,-230.308 466,-224 546.293,-195.883 599.795,-253.569 654,-188 663.09,-177.004 664.651,-143.113 648,-112 641.23,-99.35 629.289,-88.8279 618.354,-81.1473"/>
<polygon fill="midnightblue" stroke="midnightblue" points="620.199,-78.1718 609.918,-75.6105 616.358,-84.0238 620.199,-78.1718"/>
</g>
</g>
</svg>
