<?xml version="1.0" encoding="UTF-8" standalone="no"?>
<!DOCTYPE svg PUBLIC "-//W3C//DTD SVG 1.1//EN"
 "http://www.w3.org/Graphics/SVG/1.1/DTD/svg11.dtd">
<!-- Generated by graphviz version 2.38.0 (20140413.2041)
 -->
<!-- Title: Frame.hpp Pages: 1 -->
<svg width="607pt" height="196pt"
 viewBox="0.00 0.00 606.50 196.00" xmlns="http://www.w3.org/2000/svg" xmlns:xlink="http://www.w3.org/1999/xlink">
<g id="graph0" class="graph" transform="scale(1 1) rotate(0) translate(4 192)">
<title>Frame.hpp</title>
<polygon fill="white" stroke="none" points="-4,4 -4,-192 602.5,-192 602.5,4 -4,4"/>
<!-- Node1 -->
<g id="node1" class="node"><title>Node1</title>
<polygon fill="#bfbfbf" stroke="black" points="331,-168.5 331,-187.5 394,-187.5 394,-168.5 331,-168.5"/>
<text text-anchor="middle" x="362.5" y="-175.5" font-family="Helvetica,sans-Serif" font-size="10.00">Frame.hpp</text>
</g>
<!-- Node2 -->
<g id="node2" class="node"><title>Node2</title>
<g id="a_node2"><a xlink:href="_instruction_impl_8hpp.html" target="_top" xlink:title="Declarações das funções do ClassLoader para salvar todos os bytes de .class corretamente. ">
<polygon fill="white" stroke="black" points="160.5,-112.5 160.5,-131.5 260.5,-131.5 260.5,-112.5 160.5,-112.5"/>
<text text-anchor="middle" x="210.5" y="-119.5" font-family="Helvetica,sans-Serif" font-size="10.00">InstructionImpl.hpp</text>
</a>
</g>
</g>
<!-- Node1&#45;&gt;Node2 -->
<g id="edge1" class="edge"><title>Node1&#45;&gt;Node2</title>
<path fill="none" stroke="midnightblue" d="M328.832,-165.039C300.232,-154.879 259.888,-140.546 234.472,-131.516"/>
<polygon fill="midnightblue" stroke="midnightblue" points="327.82,-168.394 338.415,-168.444 330.164,-161.798 327.82,-168.394"/>
</g>
<!-- Node6 -->
<g id="node6" class="node"><title>Node6</title>
<g id="a_node6"><a xlink:href="_instance_8hpp.html" target="_top" xlink:title="Declaração da struct Instance. ">
<polygon fill="white" stroke="black" points="326,-112.5 326,-131.5 399,-131.5 399,-112.5 326,-112.5"/>
<text text-anchor="middle" x="362.5" y="-119.5" font-family="Helvetica,sans-Serif" font-size="10.00">Instance.hpp</text>
</a>
</g>
</g>
<!-- Node1&#45;&gt;Node6 -->
<g id="edge7" class="edge"><title>Node1&#45;&gt;Node6</title>
<path fill="none" stroke="midnightblue" d="M356.028,-158.101C355.396,-149.136 355.843,-138.858 357.369,-131.751"/>
<polygon fill="midnightblue" stroke="midnightblue" points="352.566,-158.622 357.334,-168.083 359.507,-157.713 352.566,-158.622"/>
</g>
<!-- Node9 -->
<g id="node9" class="node"><title>Node9</title>
<g id="a_node9"><a xlink:href="_instruction_impl_8cpp.html" target="_top" xlink:title="Métodos referentes a execução de cada instrução ;. ">
<polygon fill="white" stroke="black" points="316.5,-0.5 316.5,-19.5 416.5,-19.5 416.5,-0.5 316.5,-0.5"/>
<text text-anchor="middle" x="366.5" y="-7.5" font-family="Helvetica,sans-Serif" font-size="10.00">InstructionImpl.cpp</text>
</a>
</g>
</g>
<!-- Node1&#45;&gt;Node9 -->
<g id="edge20" class="edge"><title>Node1&#45;&gt;Node9</title>
<path fill="none" stroke="midnightblue" d="M341.711,-161.746C332.528,-153.893 322.479,-143.545 316.5,-132 300.857,-101.797 292.412,-86.4841 307.5,-56 315.786,-39.259 333.614,-27.0457 347.516,-19.6018"/>
<polygon fill="midnightblue" stroke="midnightblue" points="339.774,-164.679 349.76,-168.22 344.161,-159.225 339.774,-164.679"/>
</g>
<!-- Node13 -->
<g id="node13" class="node"><title>Node13</title>
<g id="a_node13"><a xlink:href="_interpreter_8hpp.html" target="_top" xlink:title="Declarações das funções e atributos do Interpretador para interpretar o que foi lido do ...">
<polygon fill="white" stroke="black" points="518.5,-56.5 518.5,-75.5 598.5,-75.5 598.5,-56.5 518.5,-56.5"/>
<text text-anchor="middle" x="558.5" y="-63.5" font-family="Helvetica,sans-Serif" font-size="10.00">Interpreter.hpp</text>
</a>
</g>
</g>
<!-- Node1&#45;&gt;Node13 -->
<g id="edge21" class="edge"><title>Node1&#45;&gt;Node13</title>
<path fill="none" stroke="midnightblue" d="M379.298,-161.728C395.581,-147.495 421.431,-126.364 446.5,-112 473.955,-96.2691 507.988,-83.4396 531.287,-75.5617"/>
<polygon fill="midnightblue" stroke="midnightblue" points="376.861,-159.212 371.71,-168.47 381.51,-164.445 376.861,-159.212"/>
</g>
<!-- Node14 -->
<g id="node14" class="node"><title>Node14</title>
<g id="a_node14"><a xlink:href="_frame_8cpp.html" target="_top" xlink:title="Contrutor, destrutor e metodos para o funcionamento da lógica do frame;. ">
<polygon fill="white" stroke="black" points="456,-112.5 456,-131.5 519,-131.5 519,-112.5 456,-112.5"/>
<text text-anchor="middle" x="487.5" y="-119.5" font-family="Helvetica,sans-Serif" font-size="10.00">Frame.cpp</text>
</a>
</g>
</g>
<!-- Node1&#45;&gt;Node14 -->
<g id="edge19" class="edge"><title>Node1&#45;&gt;Node14</title>
<path fill="none" stroke="midnightblue" d="M391.741,-164.368C415.15,-154.255 447.341,-140.349 467.786,-131.516"/>
<polygon fill="midnightblue" stroke="midnightblue" points="390.099,-161.265 382.307,-168.444 392.875,-167.691 390.099,-161.265"/>
</g>
<!-- Node3 -->
<g id="node3" class="node"><title>Node3</title>
<g id="a_node3"><a xlink:href="_instruction_8hpp.html" target="_top" xlink:title="Declarações das instruçoes referentes ao interpretador da JVM. ">
<polygon fill="white" stroke="black" points="96,-56.5 96,-75.5 177,-75.5 177,-56.5 96,-56.5"/>
<text text-anchor="middle" x="136.5" y="-63.5" font-family="Helvetica,sans-Serif" font-size="10.00">Instruction.hpp</text>
</a>
</g>
</g>
<!-- Node2&#45;&gt;Node3 -->
<g id="edge2" class="edge"><title>Node2&#45;&gt;Node3</title>
<path fill="none" stroke="midnightblue" d="M190.466,-106.38C177.091,-96.6204 159.941,-84.1057 148.606,-75.8339"/>
<polygon fill="midnightblue" stroke="midnightblue" points="188.47,-109.257 198.611,-112.324 192.596,-103.602 188.47,-109.257"/>
</g>
<!-- Node5 -->
<g id="node5" class="node"><title>Node5</title>
<g id="a_node5"><a xlink:href="_instruction_8cpp.html" target="_top" xlink:title="Métodos que servem para inicializar todas as intruções contidas na documentação;. ...">
<polygon fill="white" stroke="black" points="107,-0.5 107,-19.5 188,-19.5 188,-0.5 107,-0.5"/>
<text text-anchor="middle" x="147.5" y="-7.5" font-family="Helvetica,sans-Serif" font-size="10.00">Instruction.cpp</text>
</a>
</g>
</g>
<!-- Node2&#45;&gt;Node5 -->
<g id="edge6" class="edge"><title>Node2&#45;&gt;Node5</title>
<path fill="none" stroke="midnightblue" d="M205.119,-102.21C200.847,-88.8038 194.157,-70.6334 185.5,-56 177.274,-42.095 164.727,-28.2125 156.326,-19.6215"/>
<polygon fill="midnightblue" stroke="midnightblue" points="201.885,-103.608 208.128,-112.168 208.585,-101.583 201.885,-103.608"/>
</g>
<!-- Node3&#45;&gt;Node1 -->
<g id="edge4" class="edge"><title>Node3&#45;&gt;Node1</title>
<path fill="none" stroke="midnightblue" d="M135.743,-85.8942C136.228,-100.465 139.381,-120.082 151.5,-132 176.536,-156.622 278.087,-169.316 330.641,-174.347"/>
<polygon fill="midnightblue" stroke="midnightblue" points="139.245,-85.5552 135.806,-75.534 132.245,-85.5125 139.245,-85.5552"/>
</g>
<!-- Node4 -->
<g id="node4" class="node"><title>Node4</title>
<g id="a_node4"><a xlink:href="_attribute_info_8cpp.html" target="_top" xlink:title="Tem os métodos para adiquirir as informações dos atributos;. ">
<polygon fill="white" stroke="black" points="0,-0.5 0,-19.5 89,-19.5 89,-0.5 0,-0.5"/>
<text text-anchor="middle" x="44.5" y="-7.5" font-family="Helvetica,sans-Serif" font-size="10.00">AttributeInfo.cpp</text>
</a>
</g>
</g>
<!-- Node3&#45;&gt;Node4 -->
<g id="edge3" class="edge"><title>Node3&#45;&gt;Node4</title>
<path fill="none" stroke="midnightblue" d="M112.95,-51.1774C96.0211,-41.2407 73.7172,-28.1492 59.2447,-19.6545"/>
<polygon fill="midnightblue" stroke="midnightblue" points="111.323,-54.2804 121.719,-56.324 114.866,-48.2435 111.323,-54.2804"/>
</g>
<!-- Node3&#45;&gt;Node5 -->
<g id="edge5" class="edge"><title>Node3&#45;&gt;Node5</title>
<path fill="none" stroke="midnightblue" d="M140.35,-46.1005C142.176,-37.1357 144.27,-26.8579 145.717,-19.7511"/>
<polygon fill="midnightblue" stroke="midnightblue" points="136.883,-45.5856 138.316,-56.083 143.742,-46.9829 136.883,-45.5856"/>
</g>
<!-- Node6&#45;&gt;Node1 -->
<g id="edge8" class="edge"><title>Node6&#45;&gt;Node1</title>
<path fill="none" stroke="midnightblue" d="M368.958,-141.691C369.606,-150.635 369.176,-160.927 367.666,-168.083"/>
<polygon fill="midnightblue" stroke="midnightblue" points="372.423,-141.2 367.631,-131.751 365.485,-142.126 372.423,-141.2"/>
</g>
<!-- Node7 -->
<g id="node7" class="node"><title>Node7</title>
<g id="a_node7"><a xlink:href="_g_l_o_b_a_l__file_8hpp.html" target="_top" xlink:title="Armazenas classes estáticas para serem usadas por todo o código. ">
<polygon fill="white" stroke="black" points="316.5,-56.5 316.5,-75.5 408.5,-75.5 408.5,-56.5 316.5,-56.5"/>
<text text-anchor="middle" x="362.5" y="-63.5" font-family="Helvetica,sans-Serif" font-size="10.00">GLOBAL_file.hpp</text>
</a>
</g>
</g>
<!-- Node6&#45;&gt;Node7 -->
<g id="edge9" class="edge"><title>Node6&#45;&gt;Node7</title>
<path fill="none" stroke="midnightblue" d="M362.5,-101.805C362.5,-92.9102 362.5,-82.7798 362.5,-75.7511"/>
<polygon fill="midnightblue" stroke="midnightblue" points="359,-102.083 362.5,-112.083 366,-102.083 359,-102.083"/>
</g>
<!-- Node12 -->
<g id="node12" class="node"><title>Node12</title>
<g id="a_node12"><a xlink:href="_instance_8cpp.html" target="_top" xlink:title="Contém métodos para carregar as informações do Classloader na Instância;. ">
<polygon fill="white" stroke="black" points="427,-56.5 427,-75.5 500,-75.5 500,-56.5 427,-56.5"/>
<text text-anchor="middle" x="463.5" y="-63.5" font-family="Helvetica,sans-Serif" font-size="10.00">Instance.cpp</text>
</a>
</g>
</g>
<!-- Node6&#45;&gt;Node12 -->
<g id="edge14" class="edge"><title>Node6&#45;&gt;Node12</title>
<path fill="none" stroke="midnightblue" d="M387.583,-107.59C406.257,-97.6052 431.204,-84.2672 447.313,-75.6545"/>
<polygon fill="midnightblue" stroke="midnightblue" points="385.896,-104.522 378.727,-112.324 389.196,-110.696 385.896,-104.522"/>
</g>
<!-- Node6&#45;&gt;Node13 -->
<g id="edge15" class="edge"><title>Node6&#45;&gt;Node13</title>
<path fill="none" stroke="midnightblue" d="M403.52,-109.699C440.511,-99.507 494.1,-84.7429 527.589,-75.5164"/>
<polygon fill="midnightblue" stroke="midnightblue" points="402.268,-106.413 393.557,-112.444 404.127,-113.162 402.268,-106.413"/>
</g>
<!-- Node8 -->
<g id="node8" class="node"><title>Node8</title>
<g id="a_node8"><a xlink:href="_g_l_o_b_a_l__file_8cpp.html" target="_top" xlink:title="Contém métodos que serão utilizados de forma global, ao invés de termos que setar o mesmo para todos ...">
<polygon fill="white" stroke="black" points="206.5,-0.5 206.5,-19.5 298.5,-19.5 298.5,-0.5 206.5,-0.5"/>
<text text-anchor="middle" x="252.5" y="-7.5" font-family="Helvetica,sans-Serif" font-size="10.00">GLOBAL_file.cpp</text>
</a>
</g>
</g>
<!-- Node7&#45;&gt;Node8 -->
<g id="edge10" class="edge"><title>Node7&#45;&gt;Node8</title>
<path fill="none" stroke="midnightblue" d="M335.738,-51.8622C315.341,-41.8492 287.834,-28.3458 270.13,-19.6545"/>
<polygon fill="midnightblue" stroke="midnightblue" points="334.308,-55.059 344.827,-56.324 337.392,-48.7753 334.308,-55.059"/>
</g>
<!-- Node7&#45;&gt;Node9 -->
<g id="edge11" class="edge"><title>Node7&#45;&gt;Node9</title>
<path fill="none" stroke="midnightblue" d="M363.9,-46.1005C364.564,-37.1357 365.325,-26.8579 365.852,-19.7511"/>
<polygon fill="midnightblue" stroke="midnightblue" points="360.409,-45.8517 363.161,-56.083 367.39,-46.3689 360.409,-45.8517"/>
</g>
<!-- Node10 -->
<g id="node10" class="node"><title>Node10</title>
<g id="a_node10"><a xlink:href="_interpreter_8cpp.html" target="_top" xlink:title="Métodos que fazem a atuação do interpretador;. ">
<polygon fill="white" stroke="black" points="434.5,-0.5 434.5,-19.5 514.5,-19.5 514.5,-0.5 434.5,-0.5"/>
<text text-anchor="middle" x="474.5" y="-7.5" font-family="Helvetica,sans-Serif" font-size="10.00">Interpreter.cpp</text>
</a>
</g>
</g>
<!-- Node7&#45;&gt;Node10 -->
<g id="edge12" class="edge"><title>Node7&#45;&gt;Node10</title>
<path fill="none" stroke="midnightblue" d="M389.749,-51.8622C410.516,-41.8492 438.523,-28.3458 456.55,-19.6545"/>
<polygon fill="midnightblue" stroke="midnightblue" points="387.982,-48.8282 380.495,-56.324 391.023,-55.1336 387.982,-48.8282"/>
</g>
<!-- Node11 -->
<g id="node11" class="node"><title>Node11</title>
<g id="a_node11"><a xlink:href="jvm_8cpp.html" target="_top" xlink:title="Arquivo inicial em que é selecionado ou a exibição do leitor ou do interpretador dependendo da chamad...">
<polygon fill="white" stroke="black" points="533,-0.5 533,-19.5 584,-19.5 584,-0.5 533,-0.5"/>
<text text-anchor="middle" x="558.5" y="-7.5" font-family="Helvetica,sans-Serif" font-size="10.00">jvm.cpp</text>
</a>
</g>
</g>
<!-- Node7&#45;&gt;Node11 -->
<g id="edge13" class="edge"><title>Node7&#45;&gt;Node11</title>
<path fill="none" stroke="midnightblue" d="M403.543,-53.6921C442.558,-42.9431 500.019,-27.1121 532.898,-18.0537"/>
<polygon fill="midnightblue" stroke="midnightblue" points="402.268,-50.4131 393.557,-56.4435 404.127,-57.1616 402.268,-50.4131"/>
</g>
<!-- Node13&#45;&gt;Node9 -->
<g id="edge16" class="edge"><title>Node13&#45;&gt;Node9</title>
<path fill="none" stroke="midnightblue" d="M518.317,-53.6986C482.081,-43.507 429.586,-28.7429 396.781,-19.5164"/>
<polygon fill="midnightblue" stroke="midnightblue" points="517.503,-57.1053 528.077,-56.4435 519.398,-50.3667 517.503,-57.1053"/>
</g>
<!-- Node13&#45;&gt;Node10 -->
<g id="edge17" class="edge"><title>Node13&#45;&gt;Node10</title>
<path fill="none" stroke="midnightblue" d="M536.568,-50.9005C521.165,-40.9986 501.054,-28.0705 487.963,-19.6545"/>
<polygon fill="midnightblue" stroke="midnightblue" points="534.699,-53.8605 545.004,-56.324 538.485,-47.9722 534.699,-53.8605"/>
</g>
<!-- Node13&#45;&gt;Node11 -->
<g id="edge18" class="edge"><title>Node13&#45;&gt;Node11</title>
<path fill="none" stroke="midnightblue" d="M558.5,-45.8045C558.5,-36.9102 558.5,-26.7798 558.5,-19.7511"/>
<polygon fill="midnightblue" stroke="midnightblue" points="555,-46.083 558.5,-56.083 562,-46.083 555,-46.083"/>
</g>
</g>
</svg>
