<?xml version="1.0" encoding="UTF-8" standalone="no"?>
<!DOCTYPE svg PUBLIC "-//W3C//DTD SVG 1.1//EN"
 "http://www.w3.org/Graphics/SVG/1.1/DTD/svg11.dtd">
<!-- Generated by graphviz version 2.38.0 (20140413.2041)
 -->
<!-- Title: Frame.hpp Pages: 1 -->
<svg width="854pt" height="364pt"
 viewBox="0.00 0.00 854.00 364.00" xmlns="http://www.w3.org/2000/svg" xmlns:xlink="http://www.w3.org/1999/xlink">
<g id="graph0" class="graph" transform="scale(1 1) rotate(0) translate(4 360)">
<title>Frame.hpp</title>
<polygon fill="white" stroke="none" points="-4,4 -4,-360 850,-360 850,4 -4,4"/>
<!-- Node1 -->
<g id="node1" class="node"><title>Node1</title>
<polygon fill="#bfbfbf" stroke="black" points="368.5,-336.5 368.5,-355.5 431.5,-355.5 431.5,-336.5 368.5,-336.5"/>
<text text-anchor="middle" x="400" y="-343.5" font-family="Helvetica,sans-Serif" font-size="10.00">Frame.hpp</text>
</g>
<!-- Node2 -->
<g id="node2" class="node"><title>Node2</title>
<polygon fill="white" stroke="#bfbfbf" points="364,-0.5 364,-19.5 410,-19.5 410,-0.5 364,-0.5"/>
<text text-anchor="middle" x="387" y="-7.5" font-family="Helvetica,sans-Serif" font-size="10.00">cstdint</text>
</g>
<!-- Node1&#45;&gt;Node2 -->
<g id="edge1" class="edge"><title>Node1&#45;&gt;Node2</title>
<path fill="none" stroke="midnightblue" d="M368.3,-342.751C297.882,-337.404 130.587,-322.66 79,-300 37.3708,-281.714 0,-280.468 0,-235 0,-235 0,-235 0,-121 0,-85.8636 15.0094,-74.3066 45,-56 96.2779,-24.6994 277.244,-14.8208 353.123,-12.0119"/>
<polygon fill="midnightblue" stroke="midnightblue" points="353.657,-15.4954 363.528,-11.6471 353.412,-8.49974 353.657,-15.4954"/>
</g>
<!-- Node3 -->
<g id="node3" class="node"><title>Node3</title>
<polygon fill="white" stroke="#bfbfbf" points="564.5,-224.5 564.5,-243.5 605.5,-243.5 605.5,-224.5 564.5,-224.5"/>
<text text-anchor="middle" x="585" y="-231.5" font-family="Helvetica,sans-Serif" font-size="10.00">string</text>
</g>
<!-- Node1&#45;&gt;Node3 -->
<g id="edge2" class="edge"><title>Node1&#45;&gt;Node3</title>
<path fill="none" stroke="midnightblue" d="M431.71,-342.551C464.551,-338.529 515.762,-327.923 550,-300 564.866,-287.876 574.313,-267.71 579.596,-253.05"/>
<polygon fill="midnightblue" stroke="midnightblue" points="582.923,-254.135 582.724,-243.542 576.274,-251.947 582.923,-254.135"/>
</g>
<!-- Node4 -->
<g id="node4" class="node"><title>Node4</title>
<polygon fill="white" stroke="#bfbfbf" points="54,-56.5 54,-75.5 98,-75.5 98,-56.5 54,-56.5"/>
<text text-anchor="middle" x="76" y="-63.5" font-family="Helvetica,sans-Serif" font-size="10.00">vector</text>
</g>
<!-- Node1&#45;&gt;Node4 -->
<g id="edge3" class="edge"><title>Node1&#45;&gt;Node4</title>
<path fill="none" stroke="midnightblue" d="M368.192,-342.21C279.858,-333.592 38,-303.723 38,-235 38,-235 38,-235 38,-177 38,-142.813 54.6005,-105.764 65.8573,-84.5707"/>
<polygon fill="midnightblue" stroke="midnightblue" points="68.9473,-86.2151 70.7163,-75.769 62.8191,-82.832 68.9473,-86.2151"/>
</g>
<!-- Node5 -->
<g id="node5" class="node"><title>Node5</title>
<polygon fill="white" stroke="#bfbfbf" points="180.5,-280.5 180.5,-299.5 221.5,-299.5 221.5,-280.5 180.5,-280.5"/>
<text text-anchor="middle" x="201" y="-287.5" font-family="Helvetica,sans-Serif" font-size="10.00">stack</text>
</g>
<!-- Node1&#45;&gt;Node5 -->
<g id="edge4" class="edge"><title>Node1&#45;&gt;Node5</title>
<path fill="none" stroke="midnightblue" d="M368.468,-336.444C330.902,-326.25 268.575,-309.337 231.479,-299.271"/>
<polygon fill="midnightblue" stroke="midnightblue" points="232.294,-295.865 221.727,-296.624 230.461,-302.621 232.294,-295.865"/>
</g>
<!-- Node6 -->
<g id="node6" class="node"><title>Node6</title>
<polygon fill="white" stroke="#bfbfbf" points="350.5,-224.5 350.5,-243.5 385.5,-243.5 385.5,-224.5 350.5,-224.5"/>
<text text-anchor="middle" x="368" y="-231.5" font-family="Helvetica,sans-Serif" font-size="10.00">map</text>
</g>
<!-- Node1&#45;&gt;Node6 -->
<g id="edge5" class="edge"><title>Node1&#45;&gt;Node6</title>
<path fill="none" stroke="midnightblue" d="M397.489,-336.368C392.302,-318.537 380.304,-277.295 373.315,-253.272"/>
<polygon fill="midnightblue" stroke="midnightblue" points="376.653,-252.216 370.499,-243.591 369.932,-254.171 376.653,-252.216"/>
</g>
<!-- Node7 -->
<g id="node7" class="node"><title>Node7</title>
<polygon fill="white" stroke="#bfbfbf" points="278.5,-280.5 278.5,-299.5 339.5,-299.5 339.5,-280.5 278.5,-280.5"/>
<text text-anchor="middle" x="309" y="-287.5" font-family="Helvetica,sans-Serif" font-size="10.00">Stack.hpp</text>
</g>
<!-- Node1&#45;&gt;Node7 -->
<g id="edge6" class="edge"><title>Node1&#45;&gt;Node7</title>
<path fill="none" stroke="midnightblue" d="M385.379,-336.324C371.051,-327.822 348.987,-314.729 332.251,-304.797"/>
<polygon fill="midnightblue" stroke="midnightblue" points="333.97,-301.748 323.584,-299.655 330.398,-307.768 333.97,-301.748"/>
</g>
<!-- Node8 -->
<g id="node8" class="node"><title>Node8</title>
<g id="a_node8"><a xlink:href="_cp_info_8hpp.html" target="_top" xlink:title="Declarações das funções e dos atributos do Pool de constantes. ">
<polygon fill="white" stroke="black" points="526.5,-56.5 526.5,-75.5 591.5,-75.5 591.5,-56.5 526.5,-56.5"/>
<text text-anchor="middle" x="559" y="-63.5" font-family="Helvetica,sans-Serif" font-size="10.00">CpInfo.hpp</text>
</a>
</g>
</g>
<!-- Node1&#45;&gt;Node8 -->
<g id="edge7" class="edge"><title>Node1&#45;&gt;Node8</title>
<path fill="none" stroke="midnightblue" d="M425.278,-336.461C445.26,-328.911 473.161,-316.526 494,-300 527.937,-273.088 518.712,-247.647 555,-224 607.026,-190.098 652.168,-237.242 690,-188 706.614,-166.374 681.111,-127.009 666,-112 655.494,-101.565 621.792,-88.2821 594.985,-78.8591"/>
<polygon fill="midnightblue" stroke="midnightblue" points="596.072,-75.5316 585.477,-75.5746 593.786,-82.1479 596.072,-75.5316"/>
</g>
<!-- Node10 -->
<g id="node10" class="node"><title>Node10</title>
<g id="a_node10"><a xlink:href="_method_info_8hpp.html" target="_top" xlink:title="Declarações das funções do MethodInfo estrutura responsável por guardas as informaçoes dos metodos do...">
<polygon fill="white" stroke="black" points="180,-168.5 180,-187.5 264,-187.5 264,-168.5 180,-168.5"/>
<text text-anchor="middle" x="222" y="-175.5" font-family="Helvetica,sans-Serif" font-size="10.00">MethodInfo.hpp</text>
</a>
</g>
</g>
<!-- Node1&#45;&gt;Node10 -->
<g id="edge10" class="edge"><title>Node1&#45;&gt;Node10</title>
<path fill="none" stroke="midnightblue" d="M368.408,-343.575C311.562,-340.278 195.646,-329.961 171,-300 144.456,-267.733 182.061,-219.647 205.567,-194.933"/>
<polygon fill="midnightblue" stroke="midnightblue" points="208.361,-197.084 212.885,-187.504 203.374,-192.171 208.361,-197.084"/>
</g>
<!-- Node11 -->
<g id="node11" class="node"><title>Node11</title>
<g id="a_node11"><a xlink:href="_attribute_info_8hpp.html" target="_top" xlink:title="Declarações das funções do AttributeInfo para tratamento dos atributos do arquivo ...">
<polygon fill="white" stroke="black" points="342.5,-112.5 342.5,-131.5 431.5,-131.5 431.5,-112.5 342.5,-112.5"/>
<text text-anchor="middle" x="387" y="-119.5" font-family="Helvetica,sans-Serif" font-size="10.00">AttributeInfo.hpp</text>
</a>
</g>
</g>
<!-- Node1&#45;&gt;Node11 -->
<g id="edge18" class="edge"><title>Node1&#45;&gt;Node11</title>
<path fill="none" stroke="midnightblue" d="M368.279,-338.97C340.37,-332.581 299.543,-320.514 269,-300 208.343,-259.262 124.902,-224.691 171,-168 190.948,-143.468 274.994,-131.862 332.173,-126.713"/>
<polygon fill="midnightblue" stroke="midnightblue" points="332.499,-130.198 342.162,-125.854 331.899,-123.224 332.499,-130.198"/>
</g>
<!-- Node12 -->
<g id="node12" class="node"><title>Node12</title>
<g id="a_node12"><a xlink:href="_class_loader_8hpp.html" target="_top" xlink:title="Declarações das funções do ClassLoader para salvar todos os bytes de .class corretamente. ">
<polygon fill="white" stroke="black" points="404,-224.5 404,-243.5 494,-243.5 494,-224.5 404,-224.5"/>
<text text-anchor="middle" x="449" y="-231.5" font-family="Helvetica,sans-Serif" font-size="10.00">ClassLoader.hpp</text>
</a>
</g>
</g>
<!-- Node1&#45;&gt;Node12 -->
<g id="edge19" class="edge"><title>Node1&#45;&gt;Node12</title>
<path fill="none" stroke="midnightblue" d="M429.121,-336.441C446.643,-329.62 467.523,-318.141 478,-300 487.212,-284.05 475.864,-264.636 464.776,-251.201"/>
<polygon fill="midnightblue" stroke="midnightblue" points="467.355,-248.834 458.091,-243.692 462.126,-253.489 467.355,-248.834"/>
</g>
<!-- Node20 -->
<g id="node20" class="node"><title>Node20</title>
<g id="a_node20"><a xlink:href="_instruction_8hpp.html" target="_top" xlink:title="Declarações das instruçoes referentes ao interpretador da JVM. ">
<polygon fill="white" stroke="black" points="602.5,-280.5 602.5,-299.5 683.5,-299.5 683.5,-280.5 602.5,-280.5"/>
<text text-anchor="middle" x="643" y="-287.5" font-family="Helvetica,sans-Serif" font-size="10.00">Instruction.hpp</text>
</a>
</g>
</g>
<!-- Node1&#45;&gt;Node20 -->
<g id="edge38" class="edge"><title>Node1&#45;&gt;Node20</title>
<path fill="none" stroke="midnightblue" d="M431.768,-337.94C473.204,-328.732 546.101,-312.533 594.477,-301.783"/>
<polygon fill="midnightblue" stroke="midnightblue" points="595.405,-305.162 604.408,-299.576 593.887,-298.329 595.405,-305.162"/>
</g>
<!-- Node22 -->
<g id="node22" class="node"><title>Node22</title>
<g id="a_node22"><a xlink:href="_instance_8hpp.html" target="_top" xlink:title="Declaração da struct Instance. ">
<polygon fill="white" stroke="black" points="396.5,-280.5 396.5,-299.5 469.5,-299.5 469.5,-280.5 396.5,-280.5"/>
<text text-anchor="middle" x="433" y="-287.5" font-family="Helvetica,sans-Serif" font-size="10.00">Instance.hpp</text>
</a>
</g>
</g>
<!-- Node1&#45;&gt;Node22 -->
<g id="edge42" class="edge"><title>Node1&#45;&gt;Node22</title>
<path fill="none" stroke="midnightblue" d="M400.283,-336.083C403.335,-328.455 409.791,-317.264 416.332,-307.941"/>
<polygon fill="midnightblue" stroke="midnightblue" points="419.284,-309.839 422.521,-299.751 413.7,-305.619 419.284,-309.839"/>
</g>
<!-- Node8&#45;&gt;Node2 -->
<g id="edge8" class="edge"><title>Node8&#45;&gt;Node2</title>
<path fill="none" stroke="midnightblue" d="M531.746,-56.4435C501.488,-46.9439 452.645,-31.6095 420.184,-21.4183"/>
<polygon fill="midnightblue" stroke="midnightblue" points="420.854,-17.9603 410.265,-18.3042 418.758,-24.6389 420.854,-17.9603"/>
</g>
<!-- Node9 -->
<g id="node9" class="node"><title>Node9</title>
<polygon fill="white" stroke="#bfbfbf" points="605,-0.5 605,-19.5 655,-19.5 655,-0.5 605,-0.5"/>
<text text-anchor="middle" x="630" y="-7.5" font-family="Helvetica,sans-Serif" font-size="10.00">fstream</text>
</g>
<!-- Node8&#45;&gt;Node9 -->
<g id="edge9" class="edge"><title>Node8&#45;&gt;Node9</title>
<path fill="none" stroke="midnightblue" d="M570.407,-56.324C581.109,-48.1849 597.341,-35.8395 610.163,-26.0874"/>
<polygon fill="midnightblue" stroke="midnightblue" points="612.544,-28.6734 618.385,-19.8339 608.307,-23.1018 612.544,-28.6734"/>
</g>
<!-- Node10&#45;&gt;Node2 -->
<g id="edge11" class="edge"><title>Node10&#45;&gt;Node2</title>
<path fill="none" stroke="midnightblue" d="M230.871,-168.075C257.518,-141.267 337.112,-61.1902 371.211,-26.8851"/>
<polygon fill="midnightblue" stroke="midnightblue" points="373.916,-29.1279 378.484,-19.5681 368.951,-24.1931 373.916,-29.1279"/>
</g>
<!-- Node10&#45;&gt;Node8 -->
<g id="edge17" class="edge"><title>Node10&#45;&gt;Node8</title>
<path fill="none" stroke="midnightblue" d="M264.405,-168.947C323.092,-157.695 423.72,-137.975 440,-132 476.127,-118.741 514.641,-95.9097 537.761,-81.1385"/>
<polygon fill="midnightblue" stroke="midnightblue" points="539.909,-83.9167 546.394,-75.5381 536.099,-78.0442 539.909,-83.9167"/>
</g>
<!-- Node10&#45;&gt;Node11 -->
<g id="edge12" class="edge"><title>Node10&#45;&gt;Node11</title>
<path fill="none" stroke="midnightblue" d="M248.145,-168.444C276.023,-159.32 320.348,-144.813 351.4,-134.651"/>
<polygon fill="midnightblue" stroke="midnightblue" points="352.562,-137.953 360.978,-131.516 350.385,-131.3 352.562,-137.953"/>
</g>
<!-- Node11&#45;&gt;Node2 -->
<g id="edge13" class="edge"><title>Node11&#45;&gt;Node2</title>
<path fill="none" stroke="midnightblue" d="M387,-112.368C387,-94.617 387,-53.6664 387,-29.5974"/>
<polygon fill="midnightblue" stroke="midnightblue" points="390.5,-29.5914 387,-19.5914 383.5,-29.5915 390.5,-29.5914"/>
</g>
<!-- Node11&#45;&gt;Node4 -->
<g id="edge14" class="edge"><title>Node11&#45;&gt;Node4</title>
<path fill="none" stroke="midnightblue" d="M342.441,-113.263C279.01,-102.249 164.19,-82.3127 108.303,-72.6088"/>
<polygon fill="midnightblue" stroke="midnightblue" points="108.712,-69.1277 98.261,-70.8653 107.515,-76.0245 108.712,-69.1277"/>
</g>
<!-- Node11&#45;&gt;Node8 -->
<g id="edge16" class="edge"><title>Node11&#45;&gt;Node8</title>
<path fill="none" stroke="midnightblue" d="M414.254,-112.444C443.441,-103.28 489.921,-88.6876 522.309,-78.5192"/>
<polygon fill="midnightblue" stroke="midnightblue" points="523.381,-81.8512 531.874,-75.5164 521.284,-75.1726 523.381,-81.8512"/>
</g>
<!-- Node11&#45;&gt;Node9 -->
<g id="edge15" class="edge"><title>Node11&#45;&gt;Node9</title>
<path fill="none" stroke="midnightblue" d="M403.204,-112.341C427.593,-99.4373 475.321,-74.6782 517,-56 543.689,-44.0391 574.576,-31.8485 597.306,-23.1779"/>
<polygon fill="midnightblue" stroke="midnightblue" points="598.71,-26.3887 606.821,-19.572 596.229,-19.843 598.71,-26.3887"/>
</g>
<!-- Node12&#45;&gt;Node2 -->
<g id="edge20" class="edge"><title>Node12&#45;&gt;Node2</title>
<path fill="none" stroke="midnightblue" d="M403.978,-225.625C400.602,-225.074 397.247,-224.528 394,-224 344.453,-215.947 203.544,-226.219 171,-188 107.508,-113.436 278.698,-46.3402 353.746,-21.3514"/>
<polygon fill="midnightblue" stroke="midnightblue" points="355.246,-24.5433 363.663,-18.1084 353.07,-17.89 355.246,-24.5433"/>
</g>
<!-- Node12&#45;&gt;Node4 -->
<g id="edge23" class="edge"><title>Node12&#45;&gt;Node4</title>
<path fill="none" stroke="midnightblue" d="M403.99,-225.55C400.611,-225.017 397.252,-224.495 394,-224 337.205,-215.361 184.806,-221.309 138,-188 103.181,-163.221 86.6007,-112.968 79.8773,-85.6681"/>
<polygon fill="midnightblue" stroke="midnightblue" points="83.2678,-84.793 77.6377,-75.8179 76.442,-86.345 83.2678,-84.793"/>
</g>
<!-- Node12&#45;&gt;Node8 -->
<g id="edge26" class="edge"><title>Node12&#45;&gt;Node8</title>
<path fill="none" stroke="midnightblue" d="M494.147,-226.933C555.762,-218.196 659.861,-201.624 671,-188 704.606,-146.899 630.727,-101.84 587.47,-80.1325"/>
<polygon fill="midnightblue" stroke="midnightblue" points="588.762,-76.868 578.241,-75.6197 585.687,-83.1566 588.762,-76.868"/>
</g>
<!-- Node12&#45;&gt;Node10 -->
<g id="edge27" class="edge"><title>Node12&#45;&gt;Node10</title>
<path fill="none" stroke="midnightblue" d="M413.031,-224.444C373.681,-215.083 310.513,-200.056 267.686,-189.868"/>
<polygon fill="midnightblue" stroke="midnightblue" points="268.339,-186.426 257.801,-187.516 266.719,-193.236 268.339,-186.426"/>
</g>
<!-- Node12&#45;&gt;Node11 -->
<g id="edge37" class="edge"><title>Node12&#45;&gt;Node11</title>
<path fill="none" stroke="midnightblue" d="M444.135,-224.368C433.948,-206.296 410.209,-164.176 396.755,-140.307"/>
<polygon fill="midnightblue" stroke="midnightblue" points="399.802,-138.584 391.842,-131.591 393.704,-142.022 399.802,-138.584"/>
</g>
<!-- Node13 -->
<g id="node13" class="node"><title>Node13</title>
<polygon fill="white" stroke="#bfbfbf" points="344,-168.5 344,-187.5 398,-187.5 398,-168.5 344,-168.5"/>
<text text-anchor="middle" x="371" y="-175.5" font-family="Helvetica,sans-Serif" font-size="10.00">iostream</text>
</g>
<!-- Node12&#45;&gt;Node13 -->
<g id="edge21" class="edge"><title>Node12&#45;&gt;Node13</title>
<path fill="none" stroke="midnightblue" d="M436.468,-224.324C424.414,-215.979 405.973,-203.212 391.731,-193.352"/>
<polygon fill="midnightblue" stroke="midnightblue" points="393.715,-190.469 383.501,-187.655 389.731,-196.224 393.715,-190.469"/>
</g>
<!-- Node14 -->
<g id="node14" class="node"><title>Node14</title>
<polygon fill="white" stroke="#bfbfbf" points="546,-168.5 546,-187.5 592,-187.5 592,-168.5 546,-168.5"/>
<text text-anchor="middle" x="569" y="-175.5" font-family="Helvetica,sans-Serif" font-size="10.00">cstring</text>
</g>
<!-- Node12&#45;&gt;Node14 -->
<g id="edge22" class="edge"><title>Node12&#45;&gt;Node14</title>
<path fill="none" stroke="midnightblue" d="M468.014,-224.444C487.588,-215.636 518.308,-201.812 540.729,-191.722"/>
<polygon fill="midnightblue" stroke="midnightblue" points="542.392,-194.812 550.075,-187.516 539.519,-188.428 542.392,-194.812"/>
</g>
<!-- Node15 -->
<g id="node15" class="node"><title>Node15</title>
<polygon fill="white" stroke="#bfbfbf" points="610,-168.5 610,-187.5 662,-187.5 662,-168.5 610,-168.5"/>
<text text-anchor="middle" x="636" y="-175.5" font-family="Helvetica,sans-Serif" font-size="10.00">memory</text>
</g>
<!-- Node12&#45;&gt;Node15 -->
<g id="edge24" class="edge"><title>Node12&#45;&gt;Node15</title>
<path fill="none" stroke="midnightblue" d="M478.631,-224.444C511.531,-214.943 564.642,-199.606 599.933,-189.415"/>
<polygon fill="midnightblue" stroke="midnightblue" points="601.191,-192.695 609.827,-186.558 599.248,-185.97 601.191,-192.695"/>
</g>
<!-- Node16 -->
<g id="node16" class="node"><title>Node16</title>
<polygon fill="white" stroke="#bfbfbf" points="282.5,-168.5 282.5,-187.5 325.5,-187.5 325.5,-168.5 282.5,-168.5"/>
<text text-anchor="middle" x="304" y="-175.5" font-family="Helvetica,sans-Serif" font-size="10.00">cstdio</text>
</g>
<!-- Node12&#45;&gt;Node16 -->
<g id="edge25" class="edge"><title>Node12&#45;&gt;Node16</title>
<path fill="none" stroke="midnightblue" d="M426.024,-224.444C401.559,-215.332 362.68,-200.853 335.398,-190.693"/>
<polygon fill="midnightblue" stroke="midnightblue" points="336.512,-187.373 325.919,-187.163 334.069,-193.933 336.512,-187.373"/>
</g>
<!-- Node17 -->
<g id="node17" class="node"><title>Node17</title>
<g id="a_node17"><a xlink:href="_interface_info_8hpp.html" target="_top" xlink:title="Declarações das funções e atributos de InterfaceInfo. ">
<polygon fill="white" stroke="black" points="756,-112.5 756,-131.5 846,-131.5 846,-112.5 756,-112.5"/>
<text text-anchor="middle" x="801" y="-119.5" font-family="Helvetica,sans-Serif" font-size="10.00">InterfaceInfo.hpp</text>
</a>
</g>
</g>
<!-- Node12&#45;&gt;Node17 -->
<g id="edge28" class="edge"><title>Node12&#45;&gt;Node17</title>
<path fill="none" stroke="midnightblue" d="M494.2,-227.312C556.874,-219.035 666.673,-203.018 704,-188 734.36,-175.785 765.003,-153.128 783.499,-138.056"/>
<polygon fill="midnightblue" stroke="midnightblue" points="785.88,-140.627 791.323,-131.537 781.4,-135.249 785.88,-140.627"/>
</g>
<!-- Node19 -->
<g id="node19" class="node"><title>Node19</title>
<g id="a_node19"><a xlink:href="_field_info_8hpp.html" target="_top" xlink:title="Declarações das funções do FieldInfo para tratamento dos fields do arquivo .class. ">
<polygon fill="white" stroke="black" points="454.5,-168.5 454.5,-187.5 527.5,-187.5 527.5,-168.5 454.5,-168.5"/>
<text text-anchor="middle" x="491" y="-175.5" font-family="Helvetica,sans-Serif" font-size="10.00">FieldInfo.hpp</text>
</a>
</g>
</g>
<!-- Node12&#45;&gt;Node19 -->
<g id="edge33" class="edge"><title>Node12&#45;&gt;Node19</title>
<path fill="none" stroke="midnightblue" d="M455.935,-224.083C461.929,-216.377 470.752,-205.033 478.048,-195.653"/>
<polygon fill="midnightblue" stroke="midnightblue" points="480.817,-197.793 484.194,-187.751 475.291,-193.496 480.817,-197.793"/>
</g>
<!-- Node17&#45;&gt;Node2 -->
<g id="edge30" class="edge"><title>Node17&#45;&gt;Node2</title>
<path fill="none" stroke="midnightblue" d="M777.415,-112.484C740.106,-99.2143 665.028,-73.3329 600,-56 537.042,-39.219 462.287,-24.6326 420.173,-16.8948"/>
<polygon fill="midnightblue" stroke="midnightblue" points="420.662,-13.4262 410.196,-15.0779 419.407,-20.313 420.662,-13.4262"/>
</g>
<!-- Node17&#45;&gt;Node9 -->
<g id="edge29" class="edge"><title>Node17&#45;&gt;Node9</title>
<path fill="none" stroke="midnightblue" d="M787.582,-112.368C758.238,-93.4924 688.117,-48.385 652.132,-25.2367"/>
<polygon fill="midnightblue" stroke="midnightblue" points="653.659,-22.058 643.356,-19.5914 649.872,-27.9451 653.659,-22.058"/>
</g>
<!-- Node18 -->
<g id="node18" class="node"><title>Node18</title>
<g id="a_node18"><a xlink:href="_byte_reader_8hpp.html" target="_top" xlink:title="Declarações das funções do ByteReader para leitura dos bytes no arquivo .class. ">
<polygon fill="white" stroke="black" points="748.5,-56.5 748.5,-75.5 835.5,-75.5 835.5,-56.5 748.5,-56.5"/>
<text text-anchor="middle" x="792" y="-63.5" font-family="Helvetica,sans-Serif" font-size="10.00">ByteReader.hpp</text>
</a>
</g>
</g>
<!-- Node17&#45;&gt;Node18 -->
<g id="edge31" class="edge"><title>Node17&#45;&gt;Node18</title>
<path fill="none" stroke="midnightblue" d="M799.514,-112.083C798.321,-104.927 796.606,-94.6353 795.115,-85.6911"/>
<polygon fill="midnightblue" stroke="midnightblue" points="798.555,-85.0396 793.459,-75.7511 791.65,-86.1904 798.555,-85.0396"/>
</g>
<!-- Node18&#45;&gt;Node9 -->
<g id="edge32" class="edge"><title>Node18&#45;&gt;Node9</title>
<path fill="none" stroke="midnightblue" d="M766.331,-56.4435C738.917,-47.3057 695.307,-32.7689 664.813,-22.6044"/>
<polygon fill="midnightblue" stroke="midnightblue" points="665.611,-19.1809 655.017,-19.339 663.397,-25.8217 665.611,-19.1809"/>
</g>
<!-- Node19&#45;&gt;Node2 -->
<g id="edge36" class="edge"><title>Node19&#45;&gt;Node2</title>
<path fill="none" stroke="midnightblue" d="M485.409,-168.075C468.825,-141.606 419.709,-63.2089 397.782,-28.2097"/>
<polygon fill="midnightblue" stroke="midnightblue" points="400.643,-26.1841 392.368,-19.5681 394.711,-29.9006 400.643,-26.1841"/>
</g>
<!-- Node19&#45;&gt;Node8 -->
<g id="edge34" class="edge"><title>Node19&#45;&gt;Node8</title>
<path fill="none" stroke="midnightblue" d="M497.677,-168.237C504.37,-159.313 514.827,-144.979 523,-132 532.86,-116.342 542.972,-97.8247 549.959,-84.5675"/>
<polygon fill="midnightblue" stroke="midnightblue" points="553.12,-86.0753 554.637,-75.5896 546.912,-82.8409 553.12,-86.0753"/>
</g>
<!-- Node19&#45;&gt;Node11 -->
<g id="edge35" class="edge"><title>Node19&#45;&gt;Node11</title>
<path fill="none" stroke="midnightblue" d="M474.291,-168.324C457.688,-159.703 431.998,-146.364 412.78,-136.386"/>
<polygon fill="midnightblue" stroke="midnightblue" points="414.156,-133.156 403.668,-131.655 410.93,-139.369 414.156,-133.156"/>
</g>
<!-- Node20&#45;&gt;Node3 -->
<g id="edge39" class="edge"><title>Node20&#45;&gt;Node3</title>
<path fill="none" stroke="midnightblue" d="M633.681,-280.324C625.107,-272.341 612.188,-260.313 601.812,-250.653"/>
<polygon fill="midnightblue" stroke="midnightblue" points="604.192,-248.086 594.488,-243.834 599.422,-253.21 604.192,-248.086"/>
</g>
<!-- Node21 -->
<g id="node21" class="node"><title>Node21</title>
<g id="a_node21"><a xlink:href="_instruction_impl_8hpp.html" target="_top" xlink:title="Declarações das funções do ClassLoader para salvar todos os bytes de .class corretamente. ">
<polygon fill="white" stroke="black" points="643,-224.5 643,-243.5 743,-243.5 743,-224.5 643,-224.5"/>
<text text-anchor="middle" x="693" y="-231.5" font-family="Helvetica,sans-Serif" font-size="10.00">InstructionImpl.hpp</text>
</a>
</g>
</g>
<!-- Node20&#45;&gt;Node21 -->
<g id="edge40" class="edge"><title>Node20&#45;&gt;Node21</title>
<path fill="none" stroke="midnightblue" d="M651.256,-280.083C658.465,-272.298 669.11,-260.801 677.846,-251.367"/>
<polygon fill="midnightblue" stroke="midnightblue" points="680.671,-253.467 684.897,-243.751 675.535,-248.711 680.671,-253.467"/>
</g>
<!-- Node21&#45;&gt;Node1 -->
<g id="edge41" class="edge"><title>Node21&#45;&gt;Node1</title>
<path fill="none" stroke="midnightblue" d="M696.044,-243.817C700.189,-257.613 705.64,-284.342 692,-300 660.008,-336.725 514.788,-343.726 441.939,-344.894"/>
<polygon fill="midnightblue" stroke="midnightblue" points="441.691,-341.397 431.738,-345.027 441.783,-348.396 441.691,-341.397"/>
</g>
<!-- Node22&#45;&gt;Node1 -->
<g id="edge46" class="edge"><title>Node22&#45;&gt;Node1</title>
<path fill="none" stroke="midnightblue" d="M432.783,-299.751C429.781,-307.327 423.35,-318.505 416.811,-327.855"/>
<polygon fill="midnightblue" stroke="midnightblue" points="413.835,-325.989 410.616,-336.083 419.427,-330.2 413.835,-325.989"/>
</g>
<!-- Node22&#45;&gt;Node3 -->
<g id="edge44" class="edge"><title>Node22&#45;&gt;Node3</title>
<path fill="none" stroke="midnightblue" d="M457.085,-280.444C483.593,-271.026 526.242,-255.875 554.926,-245.684"/>
<polygon fill="midnightblue" stroke="midnightblue" points="556.189,-248.95 564.44,-242.304 553.845,-242.354 556.189,-248.95"/>
</g>
<!-- Node22&#45;&gt;Node6 -->
<g id="edge43" class="edge"><title>Node22&#45;&gt;Node6</title>
<path fill="none" stroke="midnightblue" d="M422.557,-280.324C412.854,-272.263 398.185,-260.077 386.5,-250.369"/>
<polygon fill="midnightblue" stroke="midnightblue" points="388.562,-247.532 378.633,-243.834 384.089,-252.916 388.562,-247.532"/>
</g>
<!-- Node22&#45;&gt;Node12 -->
<g id="edge45" class="edge"><title>Node22&#45;&gt;Node12</title>
<path fill="none" stroke="midnightblue" d="M435.642,-280.083C437.786,-272.849 440.879,-262.409 443.549,-253.397"/>
<polygon fill="midnightblue" stroke="midnightblue" points="446.922,-254.333 446.407,-243.751 440.21,-252.345 446.922,-254.333"/>
</g>
</g>
</svg>
