<?xml version="1.0" encoding="UTF-8" standalone="no"?>
<!DOCTYPE svg PUBLIC "-//W3C//DTD SVG 1.1//EN"
 "http://www.w3.org/Graphics/SVG/1.1/DTD/svg11.dtd">
<!-- Generated by graphviz version 2.38.0 (20140413.2041)
 -->
<!-- Title: GLOBAL_file.hpp Pages: 1 -->
<svg width="386pt" height="84pt"
 viewBox="0.00 0.00 385.50 84.00" xmlns="http://www.w3.org/2000/svg" xmlns:xlink="http://www.w3.org/1999/xlink">
<g id="graph0" class="graph" transform="scale(1 1) rotate(0) translate(4 80)">
<title>GLOBAL_file.hpp</title>
<polygon fill="white" stroke="none" points="-4,4 -4,-80 381.5,-80 381.5,4 -4,4"/>
<!-- Node1 -->
<g id="node1" class="node"><title>Node1</title>
<polygon fill="#bfbfbf" stroke="black" points="168,-56.5 168,-75.5 260,-75.5 260,-56.5 168,-56.5"/>
<text text-anchor="middle" x="214" y="-63.5" font-family="Helvetica,sans-Serif" font-size="10.00">GLOBAL_file.hpp</text>
</g>
<!-- Node2 -->
<g id="node2" class="node"><title>Node2</title>
<g id="a_node2"><a xlink:href="_g_l_o_b_a_l__file_8cpp.html" target="_top" xlink:title="Contém métodos que serão utilizados de forma global, ao invés de termos que setar o mesmo para todos ...">
<polygon fill="white" stroke="black" points="0,-0.5 0,-19.5 92,-19.5 92,-0.5 0,-0.5"/>
<text text-anchor="middle" x="46" y="-7.5" font-family="Helvetica,sans-Serif" font-size="10.00">GLOBAL_file.cpp</text>
</a>
</g>
</g>
<!-- Node1&#45;&gt;Node2 -->
<g id="edge1" class="edge"><title>Node1&#45;&gt;Node2</title>
<path fill="none" stroke="midnightblue" d="M177.614,-53.3044C145.958,-43.1294 100.832,-28.6246 72.4956,-19.5164"/>
<polygon fill="midnightblue" stroke="midnightblue" points="176.789,-56.7155 187.38,-56.4435 178.931,-50.0513 176.789,-56.7155"/>
</g>
<!-- Node3 -->
<g id="node3" class="node"><title>Node3</title>
<g id="a_node3"><a xlink:href="_instruction_impl_8cpp.html" target="_top" xlink:title="Métodos referentes a execução de cada instrução ;. ">
<polygon fill="white" stroke="black" points="110,-0.5 110,-19.5 210,-19.5 210,-0.5 110,-0.5"/>
<text text-anchor="middle" x="160" y="-7.5" font-family="Helvetica,sans-Serif" font-size="10.00">InstructionImpl.cpp</text>
</a>
</g>
</g>
<!-- Node1&#45;&gt;Node3 -->
<g id="edge2" class="edge"><title>Node1&#45;&gt;Node3</title>
<path fill="none" stroke="midnightblue" d="M198.002,-49.0024C188.433,-39.4329 176.639,-27.6389 168.751,-19.7511"/>
<polygon fill="midnightblue" stroke="midnightblue" points="195.537,-51.4868 205.083,-56.083 200.487,-46.537 195.537,-51.4868"/>
</g>
<!-- Node4 -->
<g id="node4" class="node"><title>Node4</title>
<g id="a_node4"><a xlink:href="_interpreter_8cpp.html" target="_top" xlink:title="Métodos que fazem a atuação do interpretador;. ">
<polygon fill="white" stroke="black" points="228,-0.5 228,-19.5 308,-19.5 308,-0.5 228,-0.5"/>
<text text-anchor="middle" x="268" y="-7.5" font-family="Helvetica,sans-Serif" font-size="10.00">Interpreter.cpp</text>
</a>
</g>
</g>
<!-- Node1&#45;&gt;Node4 -->
<g id="edge3" class="edge"><title>Node1&#45;&gt;Node4</title>
<path fill="none" stroke="midnightblue" d="M229.998,-49.0024C239.567,-39.4329 251.361,-27.6389 259.249,-19.7511"/>
<polygon fill="midnightblue" stroke="midnightblue" points="227.513,-46.537 222.917,-56.083 232.463,-51.4868 227.513,-46.537"/>
</g>
<!-- Node5 -->
<g id="node5" class="node"><title>Node5</title>
<g id="a_node5"><a xlink:href="jvm_8cpp.html" target="_top" xlink:title="Arquivo inicial em que é selecionado ou a exibição do leitor ou do interpretador dependendo da chamad...">
<polygon fill="white" stroke="black" points="326.5,-0.5 326.5,-19.5 377.5,-19.5 377.5,-0.5 326.5,-0.5"/>
<text text-anchor="middle" x="352" y="-7.5" font-family="Helvetica,sans-Serif" font-size="10.00">jvm.cpp</text>
</a>
</g>
</g>
<!-- Node1&#45;&gt;Node5 -->
<g id="edge4" class="edge"><title>Node1&#45;&gt;Node5</title>
<path fill="none" stroke="midnightblue" d="M245.249,-52.772C271.171,-42.6287 307.362,-28.4669 330.236,-19.5164"/>
<polygon fill="midnightblue" stroke="midnightblue" points="243.904,-49.5401 235.867,-56.4435 246.454,-56.0588 243.904,-49.5401"/>
</g>
</g>
</svg>
