<?xml version="1.0" encoding="UTF-8" standalone="no"?>
<!DOCTYPE svg PUBLIC "-//W3C//DTD SVG 1.1//EN"
 "http://www.w3.org/Graphics/SVG/1.1/DTD/svg11.dtd">
<!-- Generated by graphviz version 2.38.0 (20140413.2041)
 -->
<!-- Title: Instruction.cpp Pages: 1 -->
<svg width="853pt" height="532pt"
 viewBox="0.00 0.00 853.00 532.00" xmlns="http://www.w3.org/2000/svg" xmlns:xlink="http://www.w3.org/1999/xlink">
<g id="graph0" class="graph" transform="scale(1 1) rotate(0) translate(4 528)">
<title>Instruction.cpp</title>
<polygon fill="white" stroke="none" points="-4,4 -4,-528 849,-528 849,4 -4,4"/>
<!-- Node1 -->
<g id="node1" class="node"><title>Node1</title>
<polygon fill="#bfbfbf" stroke="black" points="433.5,-504.5 433.5,-523.5 514.5,-523.5 514.5,-504.5 433.5,-504.5"/>
<text text-anchor="middle" x="474" y="-511.5" font-family="Helvetica,sans-Serif" font-size="10.00">Instruction.cpp</text>
</g>
<!-- Node2 -->
<g id="node2" class="node"><title>Node2</title>
<g id="a_node2"><a xlink:href="_instruction_8hpp.html" target="_top" xlink:title="Declarações das instruçoes referentes ao interpretador da JVM. ">
<polygon fill="white" stroke="black" points="360.5,-448.5 360.5,-467.5 441.5,-467.5 441.5,-448.5 360.5,-448.5"/>
<text text-anchor="middle" x="401" y="-455.5" font-family="Helvetica,sans-Serif" font-size="10.00">Instruction.hpp</text>
</a>
</g>
</g>
<!-- Node1&#45;&gt;Node2 -->
<g id="edge1" class="edge"><title>Node1&#45;&gt;Node2</title>
<path fill="none" stroke="midnightblue" d="M462.271,-504.324C451.163,-496.107 434.258,-483.602 421.017,-473.807"/>
<polygon fill="midnightblue" stroke="midnightblue" points="423.063,-470.967 412.942,-467.834 418.9,-476.595 423.063,-470.967"/>
</g>
<!-- Node4 -->
<g id="node4" class="node"><title>Node4</title>
<g id="a_node4"><a xlink:href="_instruction_impl_8hpp.html" target="_top" xlink:title="Declarações das funções do ClassLoader para salvar todos os bytes de .class corretamente. ">
<polygon fill="white" stroke="black" points="424,-392.5 424,-411.5 524,-411.5 524,-392.5 424,-392.5"/>
<text text-anchor="middle" x="474" y="-399.5" font-family="Helvetica,sans-Serif" font-size="10.00">InstructionImpl.hpp</text>
</a>
</g>
</g>
<!-- Node1&#45;&gt;Node4 -->
<g id="edge48" class="edge"><title>Node1&#45;&gt;Node4</title>
<path fill="none" stroke="midnightblue" d="M474,-504.368C474,-486.617 474,-445.666 474,-421.597"/>
<polygon fill="midnightblue" stroke="midnightblue" points="477.5,-421.591 474,-411.591 470.5,-421.591 477.5,-421.591"/>
</g>
<!-- Node16 -->
<g id="node16" class="node"><title>Node16</title>
<polygon fill="white" stroke="#bfbfbf" points="763,-168.5 763,-187.5 817,-187.5 817,-168.5 763,-168.5"/>
<text text-anchor="middle" x="790" y="-175.5" font-family="Helvetica,sans-Serif" font-size="10.00">iostream</text>
</g>
<!-- Node1&#45;&gt;Node16 -->
<g id="edge49" class="edge"><title>Node1&#45;&gt;Node16</title>
<path fill="none" stroke="midnightblue" d="M514.653,-506.239C594.04,-491.88 762,-455.319 762,-403 762,-403 762,-403 762,-289 762,-255.79 774.134,-218.634 782.427,-197.12"/>
<polygon fill="midnightblue" stroke="midnightblue" points="785.751,-198.233 786.224,-187.649 779.254,-195.628 785.751,-198.233"/>
</g>
<!-- Node3 -->
<g id="node3" class="node"><title>Node3</title>
<polygon fill="white" stroke="#bfbfbf" points="179.5,-224.5 179.5,-243.5 220.5,-243.5 220.5,-224.5 179.5,-224.5"/>
<text text-anchor="middle" x="200" y="-231.5" font-family="Helvetica,sans-Serif" font-size="10.00">string</text>
</g>
<!-- Node2&#45;&gt;Node3 -->
<g id="edge2" class="edge"><title>Node2&#45;&gt;Node3</title>
<path fill="none" stroke="midnightblue" d="M381.212,-448.381C339.384,-428.952 242.591,-377.316 203,-300 195.679,-285.703 195.565,-267.236 196.911,-253.641"/>
<polygon fill="midnightblue" stroke="midnightblue" points="200.401,-253.942 198.258,-243.566 193.463,-253.014 200.401,-253.942"/>
</g>
<!-- Node2&#45;&gt;Node4 -->
<g id="edge3" class="edge"><title>Node2&#45;&gt;Node4</title>
<path fill="none" stroke="midnightblue" d="M412.729,-448.324C423.837,-440.107 440.742,-427.602 453.983,-417.807"/>
<polygon fill="midnightblue" stroke="midnightblue" points="456.1,-420.595 462.058,-411.834 451.937,-414.967 456.1,-420.595"/>
</g>
<!-- Node5 -->
<g id="node5" class="node"><title>Node5</title>
<g id="a_node5"><a xlink:href="_frame_8hpp.html" target="_top" xlink:title="Declarações das funções e da estrutura do Frame, utilizado para salvar resultados parciais...">
<polygon fill="white" stroke="black" points="403.5,-336.5 403.5,-355.5 466.5,-355.5 466.5,-336.5 403.5,-336.5"/>
<text text-anchor="middle" x="435" y="-343.5" font-family="Helvetica,sans-Serif" font-size="10.00">Frame.hpp</text>
</a>
</g>
</g>
<!-- Node4&#45;&gt;Node5 -->
<g id="edge4" class="edge"><title>Node4&#45;&gt;Node5</title>
<path fill="none" stroke="midnightblue" d="M467.56,-392.083C462.051,-384.455 453.969,-373.264 447.235,-363.941"/>
<polygon fill="midnightblue" stroke="midnightblue" points="450.013,-361.809 441.32,-355.751 444.338,-365.907 450.013,-361.809"/>
</g>
<!-- Node5&#45;&gt;Node2 -->
<g id="edge42" class="edge"><title>Node5&#45;&gt;Node2</title>
<path fill="none" stroke="midnightblue" d="M430.461,-355.752C425.993,-364.668 419.24,-378.995 415,-392 410.018,-407.279 406.314,-425.163 403.972,-438.3"/>
<polygon fill="midnightblue" stroke="midnightblue" points="400.474,-437.996 402.266,-448.438 407.377,-439.158 400.474,-437.996"/>
</g>
<!-- Node5&#45;&gt;Node3 -->
<g id="edge6" class="edge"><title>Node5&#45;&gt;Node3</title>
<path fill="none" stroke="midnightblue" d="M403.399,-342.374C350.094,-337.318 245.516,-324.501 219,-300 206.327,-288.29 201.94,-268.643 200.503,-254.008"/>
<polygon fill="midnightblue" stroke="midnightblue" points="203.972,-253.367 199.882,-243.593 196.984,-253.784 203.972,-253.367"/>
</g>
<!-- Node6 -->
<g id="node6" class="node"><title>Node6</title>
<polygon fill="white" stroke="#bfbfbf" points="465,-0.5 465,-19.5 511,-19.5 511,-0.5 465,-0.5"/>
<text text-anchor="middle" x="488" y="-7.5" font-family="Helvetica,sans-Serif" font-size="10.00">cstdint</text>
</g>
<!-- Node5&#45;&gt;Node6 -->
<g id="edge5" class="edge"><title>Node5&#45;&gt;Node6</title>
<path fill="none" stroke="midnightblue" d="M466.831,-343.313C563.162,-337.348 845,-313.212 845,-235 845,-235 845,-235 845,-121 845,-53.6152 609.771,-23.1473 521.198,-14.0634"/>
<polygon fill="midnightblue" stroke="midnightblue" points="521.447,-10.571 511.149,-13.0606 520.752,-17.5364 521.447,-10.571"/>
</g>
<!-- Node7 -->
<g id="node7" class="node"><title>Node7</title>
<polygon fill="white" stroke="#bfbfbf" points="637,-56.5 637,-75.5 681,-75.5 681,-56.5 637,-56.5"/>
<text text-anchor="middle" x="659" y="-63.5" font-family="Helvetica,sans-Serif" font-size="10.00">vector</text>
</g>
<!-- Node5&#45;&gt;Node7 -->
<g id="edge7" class="edge"><title>Node5&#45;&gt;Node7</title>
<path fill="none" stroke="midnightblue" d="M466.603,-345.678C536.287,-345.362 697,-333.912 697,-235 697,-235 697,-235 697,-177 697,-142.813 680.4,-105.764 669.143,-84.5707"/>
<polygon fill="midnightblue" stroke="midnightblue" points="672.181,-82.832 664.284,-75.769 666.053,-86.2151 672.181,-82.832"/>
</g>
<!-- Node8 -->
<g id="node8" class="node"><title>Node8</title>
<polygon fill="white" stroke="#bfbfbf" points="228.5,-280.5 228.5,-299.5 269.5,-299.5 269.5,-280.5 228.5,-280.5"/>
<text text-anchor="middle" x="249" y="-287.5" font-family="Helvetica,sans-Serif" font-size="10.00">stack</text>
</g>
<!-- Node5&#45;&gt;Node8 -->
<g id="edge8" class="edge"><title>Node5&#45;&gt;Node8</title>
<path fill="none" stroke="midnightblue" d="M404.552,-336.485C374.859,-328.134 328.179,-314.884 279.365,-300.366"/>
<polygon fill="midnightblue" stroke="midnightblue" points="280.161,-296.952 269.578,-297.447 278.16,-303.66 280.161,-296.952"/>
</g>
<!-- Node9 -->
<g id="node9" class="node"><title>Node9</title>
<polygon fill="white" stroke="#bfbfbf" points="379.5,-224.5 379.5,-243.5 414.5,-243.5 414.5,-224.5 379.5,-224.5"/>
<text text-anchor="middle" x="397" y="-231.5" font-family="Helvetica,sans-Serif" font-size="10.00">map</text>
</g>
<!-- Node5&#45;&gt;Node9 -->
<g id="edge9" class="edge"><title>Node5&#45;&gt;Node9</title>
<path fill="none" stroke="midnightblue" d="M440.01,-336.207C446.632,-323.346 456.521,-298.881 448,-280 442.384,-267.555 431.437,-257.172 421.121,-249.527"/>
<polygon fill="midnightblue" stroke="midnightblue" points="422.958,-246.543 412.734,-243.764 418.994,-252.312 422.958,-246.543"/>
</g>
<!-- Node10 -->
<g id="node10" class="node"><title>Node10</title>
<polygon fill="white" stroke="#bfbfbf" points="287.5,-280.5 287.5,-299.5 348.5,-299.5 348.5,-280.5 287.5,-280.5"/>
<text text-anchor="middle" x="318" y="-287.5" font-family="Helvetica,sans-Serif" font-size="10.00">Stack.hpp</text>
</g>
<!-- Node5&#45;&gt;Node10 -->
<g id="edge10" class="edge"><title>Node5&#45;&gt;Node10</title>
<path fill="none" stroke="midnightblue" d="M416.461,-336.444C397.377,-327.636 367.425,-313.812 345.564,-303.722"/>
<polygon fill="midnightblue" stroke="midnightblue" points="346.999,-300.529 336.452,-299.516 344.065,-306.885 346.999,-300.529"/>
</g>
<!-- Node11 -->
<g id="node11" class="node"><title>Node11</title>
<g id="a_node11"><a xlink:href="_cp_info_8hpp.html" target="_top" xlink:title="Declarações das funções e dos atributos do Pool de constantes. ">
<polygon fill="white" stroke="black" points="303.5,-56.5 303.5,-75.5 368.5,-75.5 368.5,-56.5 303.5,-56.5"/>
<text text-anchor="middle" x="336" y="-63.5" font-family="Helvetica,sans-Serif" font-size="10.00">CpInfo.hpp</text>
</a>
</g>
</g>
<!-- Node5&#45;&gt;Node11 -->
<g id="edge11" class="edge"><title>Node5&#45;&gt;Node11</title>
<path fill="none" stroke="midnightblue" d="M403.227,-343.431C357.211,-340.161 270.179,-330.179 203,-300 159.619,-280.512 118,-282.558 118,-235 118,-235 118,-235 118,-177 118,-136.145 147.869,-132.855 183,-112 217.266,-91.6585 261.362,-79.9659 293.405,-73.6266"/>
<polygon fill="midnightblue" stroke="midnightblue" points="294.178,-77.0427 303.357,-71.7524 292.882,-70.1636 294.178,-77.0427"/>
</g>
<!-- Node13 -->
<g id="node13" class="node"><title>Node13</title>
<g id="a_node13"><a xlink:href="_method_info_8hpp.html" target="_top" xlink:title="Declarações das funções do MethodInfo estrutura responsável por guardas as informaçoes dos metodos do...">
<polygon fill="white" stroke="black" points="509,-168.5 509,-187.5 593,-187.5 593,-168.5 509,-168.5"/>
<text text-anchor="middle" x="551" y="-175.5" font-family="Helvetica,sans-Serif" font-size="10.00">MethodInfo.hpp</text>
</a>
</g>
</g>
<!-- Node5&#45;&gt;Node13 -->
<g id="edge14" class="edge"><title>Node5&#45;&gt;Node13</title>
<path fill="none" stroke="midnightblue" d="M446.548,-336.376C467.011,-320.461 509.586,-284.39 532,-244 540.022,-229.544 544.964,-211.356 547.789,-197.898"/>
<polygon fill="midnightblue" stroke="midnightblue" points="551.262,-198.369 549.686,-187.892 544.385,-197.066 551.262,-198.369"/>
</g>
<!-- Node14 -->
<g id="node14" class="node"><title>Node14</title>
<g id="a_node14"><a xlink:href="_attribute_info_8hpp.html" target="_top" xlink:title="Declarações das funções do AttributeInfo para tratamento dos atributos do arquivo ...">
<polygon fill="white" stroke="black" points="440.5,-112.5 440.5,-131.5 529.5,-131.5 529.5,-112.5 440.5,-112.5"/>
<text text-anchor="middle" x="485" y="-119.5" font-family="Helvetica,sans-Serif" font-size="10.00">AttributeInfo.hpp</text>
</a>
</g>
</g>
<!-- Node5&#45;&gt;Node14 -->
<g id="edge22" class="edge"><title>Node5&#45;&gt;Node14</title>
<path fill="none" stroke="midnightblue" d="M453.38,-336.448C469.555,-328.401 493.232,-315.32 511,-300 559.575,-258.118 580.541,-248.441 602,-188 613.121,-156.675 575.281,-140.063 539.724,-131.501"/>
<polygon fill="midnightblue" stroke="midnightblue" points="540.32,-128.048 529.799,-129.294 538.801,-134.881 540.32,-128.048"/>
</g>
<!-- Node15 -->
<g id="node15" class="node"><title>Node15</title>
<g id="a_node15"><a xlink:href="_class_loader_8hpp.html" target="_top" xlink:title="Declarações das funções do ClassLoader para salvar todos os bytes de .class corretamente. ">
<polygon fill="white" stroke="black" points="433,-224.5 433,-243.5 523,-243.5 523,-224.5 433,-224.5"/>
<text text-anchor="middle" x="478" y="-231.5" font-family="Helvetica,sans-Serif" font-size="10.00">ClassLoader.hpp</text>
</a>
</g>
</g>
<!-- Node5&#45;&gt;Node15 -->
<g id="edge23" class="edge"><title>Node5&#45;&gt;Node15</title>
<path fill="none" stroke="midnightblue" d="M442.027,-336.231C448.655,-327.53 458.386,-313.569 464,-300 470.144,-285.15 473.746,-267.228 475.754,-253.968"/>
<polygon fill="midnightblue" stroke="midnightblue" points="479.269,-254.085 477.131,-243.708 472.331,-253.153 479.269,-254.085"/>
</g>
<!-- Node23 -->
<g id="node23" class="node"><title>Node23</title>
<g id="a_node23"><a xlink:href="_instance_8hpp.html" target="_top" xlink:title="Declaração da struct Instance. ">
<polygon fill="white" stroke="black" points="366.5,-280.5 366.5,-299.5 439.5,-299.5 439.5,-280.5 366.5,-280.5"/>
<text text-anchor="middle" x="403" y="-287.5" font-family="Helvetica,sans-Serif" font-size="10.00">Instance.hpp</text>
</a>
</g>
</g>
<!-- Node5&#45;&gt;Node23 -->
<g id="edge43" class="edge"><title>Node5&#45;&gt;Node23</title>
<path fill="none" stroke="midnightblue" d="M424.55,-336.083C418.673,-328.77 411.983,-318.181 407.315,-309.103"/>
<polygon fill="midnightblue" stroke="midnightblue" points="410.385,-307.401 403.055,-299.751 404.015,-310.302 410.385,-307.401"/>
</g>
<!-- Node11&#45;&gt;Node6 -->
<g id="edge12" class="edge"><title>Node11&#45;&gt;Node6</title>
<path fill="none" stroke="midnightblue" d="M360.085,-56.4435C385.694,-47.3454 426.369,-32.8952 454.962,-22.7372"/>
<polygon fill="midnightblue" stroke="midnightblue" points="456.276,-25.9848 464.527,-19.339 453.933,-19.3887 456.276,-25.9848"/>
</g>
<!-- Node12 -->
<g id="node12" class="node"><title>Node12</title>
<polygon fill="white" stroke="#bfbfbf" points="228,-0.5 228,-19.5 278,-19.5 278,-0.5 228,-0.5"/>
<text text-anchor="middle" x="253" y="-7.5" font-family="Helvetica,sans-Serif" font-size="10.00">fstream</text>
</g>
<!-- Node11&#45;&gt;Node12 -->
<g id="edge13" class="edge"><title>Node11&#45;&gt;Node12</title>
<path fill="none" stroke="midnightblue" d="M322.665,-56.324C309.838,-47.979 290.215,-35.2122 275.06,-25.3524"/>
<polygon fill="midnightblue" stroke="midnightblue" points="276.593,-22.1742 266.302,-19.6545 272.776,-28.0417 276.593,-22.1742"/>
</g>
<!-- Node13&#45;&gt;Node6 -->
<g id="edge15" class="edge"><title>Node13&#45;&gt;Node6</title>
<path fill="none" stroke="midnightblue" d="M550.01,-168.399C548.396,-155.777 544.684,-131.607 538,-112 527.523,-81.2652 509.616,-47.9326 498.316,-28.2875"/>
<polygon fill="midnightblue" stroke="midnightblue" points="501.293,-26.4448 493.223,-19.581 495.252,-29.9797 501.293,-26.4448"/>
</g>
<!-- Node13&#45;&gt;Node11 -->
<g id="edge21" class="edge"><title>Node13&#45;&gt;Node11</title>
<path fill="none" stroke="midnightblue" d="M522.534,-168.478C497.686,-160.539 461.007,-147.6 431,-132 402.835,-117.358 373.047,-95.8613 354.493,-81.6535"/>
<polygon fill="midnightblue" stroke="midnightblue" points="356.621,-78.874 346.575,-75.5078 352.329,-84.404 356.621,-78.874"/>
</g>
<!-- Node13&#45;&gt;Node14 -->
<g id="edge16" class="edge"><title>Node13&#45;&gt;Node14</title>
<path fill="none" stroke="midnightblue" d="M540.396,-168.324C530.544,-160.263 515.649,-148.077 503.785,-138.369"/>
<polygon fill="midnightblue" stroke="midnightblue" points="505.753,-135.457 495.797,-131.834 501.32,-140.875 505.753,-135.457"/>
</g>
<!-- Node14&#45;&gt;Node6 -->
<g id="edge17" class="edge"><title>Node14&#45;&gt;Node6</title>
<path fill="none" stroke="midnightblue" d="M485.235,-112.368C485.72,-94.617 486.836,-53.6664 487.493,-29.5974"/>
<polygon fill="midnightblue" stroke="midnightblue" points="490.992,-29.6832 487.766,-19.5914 483.994,-29.4922 490.992,-29.6832"/>
</g>
<!-- Node14&#45;&gt;Node7 -->
<g id="edge18" class="edge"><title>Node14&#45;&gt;Node7</title>
<path fill="none" stroke="midnightblue" d="M512.571,-112.444C543.747,-102.768 594.428,-87.0397 627.236,-76.8577"/>
<polygon fill="midnightblue" stroke="midnightblue" points="628.29,-80.1954 636.803,-73.8886 626.215,-73.51 628.29,-80.1954"/>
</g>
<!-- Node14&#45;&gt;Node11 -->
<g id="edge20" class="edge"><title>Node14&#45;&gt;Node11</title>
<path fill="none" stroke="midnightblue" d="M461.391,-112.444C436.542,-103.438 397.226,-89.1891 369.246,-79.049"/>
<polygon fill="midnightblue" stroke="midnightblue" points="370.093,-75.6332 359.499,-75.5164 367.708,-82.2144 370.093,-75.6332"/>
</g>
<!-- Node14&#45;&gt;Node12 -->
<g id="edge19" class="edge"><title>Node14&#45;&gt;Node12</title>
<path fill="none" stroke="midnightblue" d="M472.481,-112.363C452.804,-99.0456 413.148,-73.2371 377,-56 347.801,-42.0768 313.074,-29.8184 287.808,-21.6264"/>
<polygon fill="midnightblue" stroke="midnightblue" points="288.872,-18.2922 278.281,-18.5847 286.743,-24.9606 288.872,-18.2922"/>
</g>
<!-- Node15&#45;&gt;Node6 -->
<g id="edge24" class="edge"><title>Node15&#45;&gt;Node6</title>
<path fill="none" stroke="midnightblue" d="M523.121,-227.906C554.445,-222.425 595.658,-211.136 625,-188 676.351,-147.51 730.905,-107.021 690,-56 669.237,-30.1025 573.216,-18.1464 521.39,-13.4979"/>
<polygon fill="midnightblue" stroke="midnightblue" points="521.609,-10.004 511.347,-12.6391 521.013,-16.9785 521.609,-10.004"/>
</g>
<!-- Node15&#45;&gt;Node7 -->
<g id="edge27" class="edge"><title>Node15&#45;&gt;Node7</title>
<path fill="none" stroke="midnightblue" d="M523.156,-225.461C548.855,-219.177 580.17,-207.906 602,-188 632.778,-159.934 648.409,-111.793 655.009,-85.4886"/>
<polygon fill="midnightblue" stroke="midnightblue" points="658.435,-86.2085 657.303,-75.6744 651.619,-84.6156 658.435,-86.2085"/>
</g>
<!-- Node15&#45;&gt;Node11 -->
<g id="edge30" class="edge"><title>Node15&#45;&gt;Node11</title>
<path fill="none" stroke="midnightblue" d="M432.988,-225.566C429.609,-225.029 426.251,-224.502 423,-224 367.963,-215.503 211.44,-230.111 175,-188 132.738,-139.16 235.286,-97.8042 295.672,-78.56"/>
<polygon fill="midnightblue" stroke="midnightblue" points="296.825,-81.8671 305.333,-75.5541 294.745,-75.1831 296.825,-81.8671"/>
</g>
<!-- Node15&#45;&gt;Node13 -->
<g id="edge31" class="edge"><title>Node15&#45;&gt;Node13</title>
<path fill="none" stroke="midnightblue" d="M489.729,-224.324C500.837,-216.107 517.742,-203.602 530.983,-193.807"/>
<polygon fill="midnightblue" stroke="midnightblue" points="533.1,-196.595 539.058,-187.834 528.937,-190.967 533.1,-196.595"/>
</g>
<!-- Node15&#45;&gt;Node14 -->
<g id="edge41" class="edge"><title>Node15&#45;&gt;Node14</title>
<path fill="none" stroke="midnightblue" d="M478.549,-224.368C479.679,-206.617 482.285,-165.666 483.817,-141.597"/>
<polygon fill="midnightblue" stroke="midnightblue" points="487.311,-141.794 484.453,-131.591 480.325,-141.349 487.311,-141.794"/>
</g>
<!-- Node15&#45;&gt;Node16 -->
<g id="edge25" class="edge"><title>Node15&#45;&gt;Node16</title>
<path fill="none" stroke="midnightblue" d="M523.201,-226.224C577.102,-217.975 669.854,-203.247 749,-188 750.248,-187.76 751.516,-187.51 752.796,-187.254"/>
<polygon fill="midnightblue" stroke="midnightblue" points="753.614,-190.659 762.693,-185.199 752.191,-183.805 753.614,-190.659"/>
</g>
<!-- Node17 -->
<g id="node17" class="node"><title>Node17</title>
<polygon fill="white" stroke="#bfbfbf" points="184,-168.5 184,-187.5 230,-187.5 230,-168.5 184,-168.5"/>
<text text-anchor="middle" x="207" y="-175.5" font-family="Helvetica,sans-Serif" font-size="10.00">cstring</text>
</g>
<!-- Node15&#45;&gt;Node17 -->
<g id="edge26" class="edge"><title>Node15&#45;&gt;Node17</title>
<path fill="none" stroke="midnightblue" d="M432.916,-225.001C378.3,-215.232 288.493,-198.896 239.989,-188.031"/>
<polygon fill="midnightblue" stroke="midnightblue" points="240.54,-184.567 230.009,-185.733 238.969,-191.388 240.54,-184.567"/>
</g>
<!-- Node18 -->
<g id="node18" class="node"><title>Node18</title>
<polygon fill="white" stroke="#bfbfbf" points="248,-168.5 248,-187.5 300,-187.5 300,-168.5 248,-168.5"/>
<text text-anchor="middle" x="274" y="-175.5" font-family="Helvetica,sans-Serif" font-size="10.00">memory</text>
</g>
<!-- Node15&#45;&gt;Node18 -->
<g id="edge28" class="edge"><title>Node15&#45;&gt;Node18</title>
<path fill="none" stroke="midnightblue" d="M445.676,-224.444C408.651,-214.643 348.165,-198.632 309.758,-188.465"/>
<polygon fill="midnightblue" stroke="midnightblue" points="310.586,-185.064 300.024,-185.889 308.795,-191.831 310.586,-185.064"/>
</g>
<!-- Node19 -->
<g id="node19" class="node"><title>Node19</title>
<polygon fill="white" stroke="#bfbfbf" points="318.5,-168.5 318.5,-187.5 361.5,-187.5 361.5,-168.5 318.5,-168.5"/>
<text text-anchor="middle" x="340" y="-175.5" font-family="Helvetica,sans-Serif" font-size="10.00">cstdio</text>
</g>
<!-- Node15&#45;&gt;Node19 -->
<g id="edge29" class="edge"><title>Node15&#45;&gt;Node19</title>
<path fill="none" stroke="midnightblue" d="M456.133,-224.444C433.221,-215.478 397.025,-201.314 371.134,-191.183"/>
<polygon fill="midnightblue" stroke="midnightblue" points="372.352,-187.901 361.764,-187.516 369.801,-194.42 372.352,-187.901"/>
</g>
<!-- Node20 -->
<g id="node20" class="node"><title>Node20</title>
<g id="a_node20"><a xlink:href="_interface_info_8hpp.html" target="_top" xlink:title="Declarações das funções e atributos de InterfaceInfo. ">
<polygon fill="white" stroke="black" points="0,-112.5 0,-131.5 90,-131.5 90,-112.5 0,-112.5"/>
<text text-anchor="middle" x="45" y="-119.5" font-family="Helvetica,sans-Serif" font-size="10.00">InterfaceInfo.hpp</text>
</a>
</g>
</g>
<!-- Node15&#45;&gt;Node20 -->
<g id="edge32" class="edge"><title>Node15&#45;&gt;Node20</title>
<path fill="none" stroke="midnightblue" d="M432.997,-225.505C429.616,-224.982 426.255,-224.475 423,-224 298.408,-205.831 259.887,-232.225 142,-188 111.499,-176.557 81.067,-153.867 62.6373,-138.559"/>
<polygon fill="midnightblue" stroke="midnightblue" points="64.4888,-135.538 54.6063,-131.719 59.9499,-140.867 64.4888,-135.538"/>
</g>
<!-- Node22 -->
<g id="node22" class="node"><title>Node22</title>
<g id="a_node22"><a xlink:href="_field_info_8hpp.html" target="_top" xlink:title="Declarações das funções do FieldInfo para tratamento dos fields do arquivo .class. ">
<polygon fill="white" stroke="black" points="379.5,-168.5 379.5,-187.5 452.5,-187.5 452.5,-168.5 379.5,-168.5"/>
<text text-anchor="middle" x="416" y="-175.5" font-family="Helvetica,sans-Serif" font-size="10.00">FieldInfo.hpp</text>
</a>
</g>
</g>
<!-- Node15&#45;&gt;Node22 -->
<g id="edge37" class="edge"><title>Node15&#45;&gt;Node22</title>
<path fill="none" stroke="midnightblue" d="M468.039,-224.324C458.873,-216.341 445.063,-204.313 433.972,-194.653"/>
<polygon fill="midnightblue" stroke="midnightblue" points="435.982,-191.762 426.143,-187.834 431.385,-197.041 435.982,-191.762"/>
</g>
<!-- Node20&#45;&gt;Node6 -->
<g id="edge34" class="edge"><title>Node20&#45;&gt;Node6</title>
<path fill="none" stroke="midnightblue" d="M79.8617,-112.481C115.8,-103.631 173.421,-89.2475 223,-76 254.672,-67.5372 262.246,-64.1505 294,-56 350.172,-41.5821 416.017,-26.7396 454.747,-18.2182"/>
<polygon fill="midnightblue" stroke="midnightblue" points="455.902,-21.5482 464.921,-15.988 454.403,-14.7105 455.902,-21.5482"/>
</g>
<!-- Node20&#45;&gt;Node12 -->
<g id="edge33" class="edge"><title>Node20&#45;&gt;Node12</title>
<path fill="none" stroke="midnightblue" d="M52.662,-112.179C65.0867,-98.3764 90.9752,-71.6396 118,-56 149.613,-37.705 189.738,-25.5328 217.999,-18.5131"/>
<polygon fill="midnightblue" stroke="midnightblue" points="218.926,-21.8901 227.837,-16.1582 217.297,-15.0824 218.926,-21.8901"/>
</g>
<!-- Node21 -->
<g id="node21" class="node"><title>Node21</title>
<g id="a_node21"><a xlink:href="_byte_reader_8hpp.html" target="_top" xlink:title="Declarações das funções do ByteReader para leitura dos bytes no arquivo .class. ">
<polygon fill="white" stroke="black" points="127.5,-56.5 127.5,-75.5 214.5,-75.5 214.5,-56.5 127.5,-56.5"/>
<text text-anchor="middle" x="171" y="-63.5" font-family="Helvetica,sans-Serif" font-size="10.00">ByteReader.hpp</text>
</a>
</g>
</g>
<!-- Node20&#45;&gt;Node21 -->
<g id="edge35" class="edge"><title>Node20&#45;&gt;Node21</title>
<path fill="none" stroke="midnightblue" d="M64.9651,-112.444C85.6091,-103.596 118.063,-89.6875 141.632,-79.5865"/>
<polygon fill="midnightblue" stroke="midnightblue" points="143.316,-82.6727 151.128,-75.5164 140.558,-76.2387 143.316,-82.6727"/>
</g>
<!-- Node21&#45;&gt;Node12 -->
<g id="edge36" class="edge"><title>Node21&#45;&gt;Node12</title>
<path fill="none" stroke="midnightblue" d="M184.175,-56.324C196.847,-47.979 216.233,-35.2122 231.206,-25.3524"/>
<polygon fill="midnightblue" stroke="midnightblue" points="233.431,-28.0776 239.858,-19.6545 229.581,-22.2313 233.431,-28.0776"/>
</g>
<!-- Node22&#45;&gt;Node6 -->
<g id="edge40" class="edge"><title>Node22&#45;&gt;Node6</title>
<path fill="none" stroke="midnightblue" d="M417.186,-168.353C419.105,-155.674 423.456,-131.433 431,-112 443.085,-80.8687 463.437,-47.681 476.271,-28.1691"/>
<polygon fill="midnightblue" stroke="midnightblue" points="479.246,-30.0157 481.898,-19.7581 473.428,-26.1233 479.246,-30.0157"/>
</g>
<!-- Node22&#45;&gt;Node11 -->
<g id="edge38" class="edge"><title>Node22&#45;&gt;Node11</title>
<path fill="none" stroke="midnightblue" d="M401.265,-168.373C388.739,-160.367 371.074,-147.387 360,-132 349.909,-117.978 343.587,-99.2331 339.981,-85.4766"/>
<polygon fill="midnightblue" stroke="midnightblue" points="343.374,-84.6155 337.651,-75.6992 336.565,-86.2382 343.374,-84.6155"/>
</g>
<!-- Node22&#45;&gt;Node14 -->
<g id="edge39" class="edge"><title>Node22&#45;&gt;Node14</title>
<path fill="none" stroke="midnightblue" d="M427.086,-168.324C437.486,-160.185 453.261,-147.839 465.722,-138.087"/>
<polygon fill="midnightblue" stroke="midnightblue" points="467.994,-140.753 473.712,-131.834 463.68,-135.241 467.994,-140.753"/>
</g>
<!-- Node23&#45;&gt;Node3 -->
<g id="edge45" class="edge"><title>Node23&#45;&gt;Node3</title>
<path fill="none" stroke="midnightblue" d="M370.834,-280.444C332.308,-270.195 268.255,-253.156 230.489,-243.11"/>
<polygon fill="midnightblue" stroke="midnightblue" points="231.14,-239.662 220.577,-240.474 229.341,-246.427 231.14,-239.662"/>
</g>
<!-- Node23&#45;&gt;Node5 -->
<g id="edge47" class="edge"><title>Node23&#45;&gt;Node5</title>
<path fill="none" stroke="midnightblue" d="M413.317,-299.751C419.244,-307.092 426.024,-317.817 430.729,-326.983"/>
<polygon fill="midnightblue" stroke="midnightblue" points="427.547,-328.438 434.882,-336.083 433.915,-325.532 427.547,-328.438"/>
</g>
<!-- Node23&#45;&gt;Node9 -->
<g id="edge44" class="edge"><title>Node23&#45;&gt;Node9</title>
<path fill="none" stroke="midnightblue" d="M402.009,-280.083C401.214,-272.927 400.071,-262.635 399.077,-253.691"/>
<polygon fill="midnightblue" stroke="midnightblue" points="402.555,-253.303 397.972,-243.751 395.598,-254.076 402.555,-253.303"/>
</g>
<!-- Node23&#45;&gt;Node15 -->
<g id="edge46" class="edge"><title>Node23&#45;&gt;Node15</title>
<path fill="none" stroke="midnightblue" d="M415.05,-280.324C426.463,-272.107 443.831,-259.602 457.435,-249.807"/>
<polygon fill="midnightblue" stroke="midnightblue" points="459.66,-252.517 465.731,-243.834 455.57,-246.837 459.66,-252.517"/>
</g>
</g>
</svg>
