<?xml version="1.0" encoding="UTF-8" standalone="no"?>
<!DOCTYPE svg PUBLIC "-//W3C//DTD SVG 1.1//EN"
 "http://www.w3.org/Graphics/SVG/1.1/DTD/svg11.dtd">
<!-- Generated by graphviz version 2.38.0 (20140413.2041)
 -->
<!-- Title: Instruction.hpp Pages: 1 -->
<svg width="611pt" height="252pt"
 viewBox="0.00 0.00 611.00 252.00" xmlns="http://www.w3.org/2000/svg" xmlns:xlink="http://www.w3.org/1999/xlink">
<g id="graph0" class="graph" transform="scale(1 1) rotate(0) translate(4 248)">
<title>Instruction.hpp</title>
<polygon fill="white" stroke="none" points="-4,4 -4,-248 607,-248 607,4 -4,4"/>
<!-- Node1 -->
<g id="node1" class="node"><title>Node1</title>
<polygon fill="#bfbfbf" stroke="black" points="116,-224.5 116,-243.5 197,-243.5 197,-224.5 116,-224.5"/>
<text text-anchor="middle" x="156.5" y="-231.5" font-family="Helvetica,sans-Serif" font-size="10.00">Instruction.hpp</text>
</g>
<!-- Node2 -->
<g id="node2" class="node"><title>Node2</title>
<g id="a_node2"><a xlink:href="_attribute_info_8cpp.html" target="_top" xlink:title="Tem os métodos para adiquirir as informações dos atributos;. ">
<polygon fill="white" stroke="black" points="0,-168.5 0,-187.5 89,-187.5 89,-168.5 0,-168.5"/>
<text text-anchor="middle" x="44.5" y="-175.5" font-family="Helvetica,sans-Serif" font-size="10.00">AttributeInfo.cpp</text>
</a>
</g>
</g>
<!-- Node1&#45;&gt;Node2 -->
<g id="edge1" class="edge"><title>Node1&#45;&gt;Node2</title>
<path fill="none" stroke="midnightblue" d="M129.251,-219.862C108.484,-209.849 80.4766,-196.346 62.4501,-187.655"/>
<polygon fill="midnightblue" stroke="midnightblue" points="127.977,-223.134 138.505,-224.324 131.018,-216.828 127.977,-223.134"/>
</g>
<!-- Node3 -->
<g id="node3" class="node"><title>Node3</title>
<g id="a_node3"><a xlink:href="_frame_8hpp.html" target="_top" xlink:title="Declarações das funções e da estrutura do Frame, utilizado para salvar resultados parciais...">
<polygon fill="white" stroke="black" points="302,-168.5 302,-187.5 365,-187.5 365,-168.5 302,-168.5"/>
<text text-anchor="middle" x="333.5" y="-175.5" font-family="Helvetica,sans-Serif" font-size="10.00">Frame.hpp</text>
</a>
</g>
</g>
<!-- Node1&#45;&gt;Node3 -->
<g id="edge2" class="edge"><title>Node1&#45;&gt;Node3</title>
<path fill="none" stroke="midnightblue" d="M194.403,-221.436C227.775,-211.255 275.601,-196.664 305.585,-187.516"/>
<polygon fill="midnightblue" stroke="midnightblue" points="193.09,-218.178 184.546,-224.444 195.132,-224.873 193.09,-218.178"/>
</g>
<!-- Node5 -->
<g id="node5" class="node"><title>Node5</title>
<g id="a_node5"><a xlink:href="_instruction_8cpp.html" target="_top" xlink:title="Métodos que servem para inicializar todas as intruções contidas na documentação;. ...">
<polygon fill="white" stroke="black" points="116,-56.5 116,-75.5 197,-75.5 197,-56.5 116,-56.5"/>
<text text-anchor="middle" x="156.5" y="-63.5" font-family="Helvetica,sans-Serif" font-size="10.00">Instruction.cpp</text>
</a>
</g>
</g>
<!-- Node1&#45;&gt;Node5 -->
<g id="edge21" class="edge"><title>Node1&#45;&gt;Node5</title>
<path fill="none" stroke="midnightblue" d="M149.336,-214.989C140.855,-191.266 128.796,-148.304 136.5,-112 139.34,-98.619 146.442,-84.3861 151.37,-75.5932"/>
<polygon fill="midnightblue" stroke="midnightblue" points="146.096,-216.318 152.897,-224.442 152.647,-213.85 146.096,-216.318"/>
</g>
<!-- Node4 -->
<g id="node4" class="node"><title>Node4</title>
<g id="a_node4"><a xlink:href="_instruction_impl_8hpp.html" target="_top" xlink:title="Declarações das funções do ClassLoader para salvar todos os bytes de .class corretamente. ">
<polygon fill="white" stroke="black" points="145.5,-112.5 145.5,-131.5 245.5,-131.5 245.5,-112.5 145.5,-112.5"/>
<text text-anchor="middle" x="195.5" y="-119.5" font-family="Helvetica,sans-Serif" font-size="10.00">InstructionImpl.hpp</text>
</a>
</g>
</g>
<!-- Node3&#45;&gt;Node4 -->
<g id="edge3" class="edge"><title>Node3&#45;&gt;Node4</title>
<path fill="none" stroke="midnightblue" d="M302.251,-164.772C276.329,-154.629 240.138,-140.467 217.264,-131.516"/>
<polygon fill="midnightblue" stroke="midnightblue" points="301.046,-168.059 311.633,-168.444 303.596,-161.54 301.046,-168.059"/>
</g>
<!-- Node6 -->
<g id="node6" class="node"><title>Node6</title>
<g id="a_node6"><a xlink:href="_instance_8hpp.html" target="_top" xlink:title="Declaração da struct Instance. ">
<polygon fill="white" stroke="black" points="422,-112.5 422,-131.5 495,-131.5 495,-112.5 422,-112.5"/>
<text text-anchor="middle" x="458.5" y="-119.5" font-family="Helvetica,sans-Serif" font-size="10.00">Instance.hpp</text>
</a>
</g>
</g>
<!-- Node3&#45;&gt;Node6 -->
<g id="edge6" class="edge"><title>Node3&#45;&gt;Node6</title>
<path fill="none" stroke="midnightblue" d="M357.515,-164.096C379.457,-154.007 411.515,-140.27 433.706,-131.516"/>
<polygon fill="midnightblue" stroke="midnightblue" points="355.794,-161.037 348.218,-168.444 358.759,-167.378 355.794,-161.037"/>
</g>
<!-- Node9 -->
<g id="node9" class="node"><title>Node9</title>
<g id="a_node9"><a xlink:href="_instruction_impl_8cpp.html" target="_top" xlink:title="Métodos referentes a execução de cada instrução ;. ">
<polygon fill="white" stroke="black" points="223.5,-0.5 223.5,-19.5 323.5,-19.5 323.5,-0.5 223.5,-0.5"/>
<text text-anchor="middle" x="273.5" y="-7.5" font-family="Helvetica,sans-Serif" font-size="10.00">InstructionImpl.cpp</text>
</a>
</g>
</g>
<!-- Node3&#45;&gt;Node9 -->
<g id="edge19" class="edge"><title>Node3&#45;&gt;Node9</title>
<path fill="none" stroke="midnightblue" d="M315.032,-161.407C306.827,-153.454 297.835,-143.121 292.5,-132 273.92,-93.2726 272.832,-40.3249 273.199,-19.7108"/>
<polygon fill="midnightblue" stroke="midnightblue" points="312.772,-164.083 322.513,-168.25 317.497,-158.918 312.772,-164.083"/>
</g>
<!-- Node13 -->
<g id="node13" class="node"><title>Node13</title>
<g id="a_node13"><a xlink:href="_interpreter_8hpp.html" target="_top" xlink:title="Declarações das funções e atributos do Interpretador para interpretar o que foi lido do ...">
<polygon fill="white" stroke="black" points="321.5,-56.5 321.5,-75.5 401.5,-75.5 401.5,-56.5 321.5,-56.5"/>
<text text-anchor="middle" x="361.5" y="-63.5" font-family="Helvetica,sans-Serif" font-size="10.00">Interpreter.hpp</text>
</a>
</g>
</g>
<!-- Node3&#45;&gt;Node13 -->
<g id="edge20" class="edge"><title>Node3&#45;&gt;Node13</title>
<path fill="none" stroke="midnightblue" d="M352.29,-161.657C360.469,-153.761 369.165,-143.402 373.5,-132 380.841,-112.693 371.926,-88.4012 365.986,-75.6799"/>
<polygon fill="midnightblue" stroke="midnightblue" points="349.858,-159.137 344.766,-168.427 354.541,-164.34 349.858,-159.137"/>
</g>
<!-- Node14 -->
<g id="node14" class="node"><title>Node14</title>
<g id="a_node14"><a xlink:href="_frame_8cpp.html" target="_top" xlink:title="Contrutor, destrutor e metodos para o funcionamento da lógica do frame;. ">
<polygon fill="white" stroke="black" points="302,-112.5 302,-131.5 365,-131.5 365,-112.5 302,-112.5"/>
<text text-anchor="middle" x="333.5" y="-119.5" font-family="Helvetica,sans-Serif" font-size="10.00">Frame.cpp</text>
</a>
</g>
</g>
<!-- Node3&#45;&gt;Node14 -->
<g id="edge18" class="edge"><title>Node3&#45;&gt;Node14</title>
<path fill="none" stroke="midnightblue" d="M333.5,-157.805C333.5,-148.91 333.5,-138.78 333.5,-131.751"/>
<polygon fill="midnightblue" stroke="midnightblue" points="330,-158.083 333.5,-168.083 337,-158.083 330,-158.083"/>
</g>
<!-- Node4&#45;&gt;Node1 -->
<g id="edge4" class="edge"><title>Node4&#45;&gt;Node1</title>
<path fill="none" stroke="midnightblue" d="M189.022,-141.272C180.504,-165.295 165.882,-206.537 159.56,-224.368"/>
<polygon fill="midnightblue" stroke="midnightblue" points="192.411,-142.186 192.454,-131.591 185.813,-139.847 192.411,-142.186"/>
</g>
<!-- Node4&#45;&gt;Node5 -->
<g id="edge5" class="edge"><title>Node4&#45;&gt;Node5</title>
<path fill="none" stroke="midnightblue" d="M183.118,-103.855C176.365,-94.5048 168.291,-83.3265 162.82,-75.7511"/>
<polygon fill="midnightblue" stroke="midnightblue" points="180.368,-106.025 189.06,-112.083 186.042,-101.927 180.368,-106.025"/>
</g>
<!-- Node6&#45;&gt;Node3 -->
<g id="edge7" class="edge"><title>Node6&#45;&gt;Node3</title>
<path fill="none" stroke="midnightblue" d="M434.585,-135.858C412.674,-145.935 380.616,-159.675 358.395,-168.444"/>
<polygon fill="midnightblue" stroke="midnightblue" points="436.291,-138.924 443.866,-131.516 433.325,-132.583 436.291,-138.924"/>
</g>
<!-- Node7 -->
<g id="node7" class="node"><title>Node7</title>
<g id="a_node7"><a xlink:href="_g_l_o_b_a_l__file_8hpp.html" target="_top" xlink:title="Armazenas classes estáticas para serem usadas por todo o código. ">
<polygon fill="white" stroke="black" points="419.5,-56.5 419.5,-75.5 511.5,-75.5 511.5,-56.5 419.5,-56.5"/>
<text text-anchor="middle" x="465.5" y="-63.5" font-family="Helvetica,sans-Serif" font-size="10.00">GLOBAL_file.hpp</text>
</a>
</g>
</g>
<!-- Node6&#45;&gt;Node7 -->
<g id="edge8" class="edge"><title>Node6&#45;&gt;Node7</title>
<path fill="none" stroke="midnightblue" d="M460.95,-102.101C462.112,-93.1357 463.444,-82.8579 464.366,-75.7511"/>
<polygon fill="midnightblue" stroke="midnightblue" points="457.471,-101.716 459.656,-112.083 464.412,-102.616 457.471,-101.716"/>
</g>
<!-- Node12 -->
<g id="node12" class="node"><title>Node12</title>
<g id="a_node12"><a xlink:href="_instance_8cpp.html" target="_top" xlink:title="Contém métodos para carregar as informações do Classloader na Instância;. ">
<polygon fill="white" stroke="black" points="530,-56.5 530,-75.5 603,-75.5 603,-56.5 530,-56.5"/>
<text text-anchor="middle" x="566.5" y="-63.5" font-family="Helvetica,sans-Serif" font-size="10.00">Instance.cpp</text>
</a>
</g>
</g>
<!-- Node6&#45;&gt;Node12 -->
<g id="edge13" class="edge"><title>Node6&#45;&gt;Node12</title>
<path fill="none" stroke="midnightblue" d="M485.048,-107.726C505.046,-97.7271 531.887,-84.3065 549.191,-75.6545"/>
<polygon fill="midnightblue" stroke="midnightblue" points="483.231,-104.721 475.852,-112.324 486.362,-110.982 483.231,-104.721"/>
</g>
<!-- Node6&#45;&gt;Node13 -->
<g id="edge14" class="edge"><title>Node6&#45;&gt;Node13</title>
<path fill="none" stroke="midnightblue" d="M434.165,-107.453C416.257,-97.4835 392.446,-84.2279 377.046,-75.6545"/>
<polygon fill="midnightblue" stroke="midnightblue" points="432.475,-110.518 442.915,-112.324 435.88,-104.402 432.475,-110.518"/>
</g>
<!-- Node8 -->
<g id="node8" class="node"><title>Node8</title>
<g id="a_node8"><a xlink:href="_g_l_o_b_a_l__file_8cpp.html" target="_top" xlink:title="Contém métodos que serão utilizados de forma global, ao invés de termos que setar o mesmo para todos ...">
<polygon fill="white" stroke="black" points="509.5,-0.5 509.5,-19.5 601.5,-19.5 601.5,-0.5 509.5,-0.5"/>
<text text-anchor="middle" x="555.5" y="-7.5" font-family="Helvetica,sans-Serif" font-size="10.00">GLOBAL_file.cpp</text>
</a>
</g>
</g>
<!-- Node7&#45;&gt;Node8 -->
<g id="edge9" class="edge"><title>Node7&#45;&gt;Node8</title>
<path fill="none" stroke="midnightblue" d="M488.538,-51.1774C505.099,-41.2407 526.918,-28.1492 541.076,-19.6545"/>
<polygon fill="midnightblue" stroke="midnightblue" points="486.734,-48.1777 479.96,-56.324 490.336,-54.1802 486.734,-48.1777"/>
</g>
<!-- Node7&#45;&gt;Node9 -->
<g id="edge10" class="edge"><title>Node7&#45;&gt;Node9</title>
<path fill="none" stroke="midnightblue" d="M425.317,-53.6986C389.081,-43.507 336.586,-28.7429 303.781,-19.5164"/>
<polygon fill="midnightblue" stroke="midnightblue" points="424.503,-57.1053 435.077,-56.4435 426.398,-50.3667 424.503,-57.1053"/>
</g>
<!-- Node10 -->
<g id="node10" class="node"><title>Node10</title>
<g id="a_node10"><a xlink:href="_interpreter_8cpp.html" target="_top" xlink:title="Métodos que fazem a atuação do interpretador;. ">
<polygon fill="white" stroke="black" points="341.5,-0.5 341.5,-19.5 421.5,-19.5 421.5,-0.5 341.5,-0.5"/>
<text text-anchor="middle" x="381.5" y="-7.5" font-family="Helvetica,sans-Serif" font-size="10.00">Interpreter.cpp</text>
</a>
</g>
</g>
<!-- Node7&#45;&gt;Node10 -->
<g id="edge11" class="edge"><title>Node7&#45;&gt;Node10</title>
<path fill="none" stroke="midnightblue" d="M443.568,-50.9005C428.165,-40.9986 408.054,-28.0705 394.963,-19.6545"/>
<polygon fill="midnightblue" stroke="midnightblue" points="441.699,-53.8605 452.004,-56.324 445.485,-47.9722 441.699,-53.8605"/>
</g>
<!-- Node11 -->
<g id="node11" class="node"><title>Node11</title>
<g id="a_node11"><a xlink:href="jvm_8cpp.html" target="_top" xlink:title="Arquivo inicial em que é selecionado ou a exibição do leitor ou do interpretador dependendo da chamad...">
<polygon fill="white" stroke="black" points="440,-0.5 440,-19.5 491,-19.5 491,-0.5 440,-0.5"/>
<text text-anchor="middle" x="465.5" y="-7.5" font-family="Helvetica,sans-Serif" font-size="10.00">jvm.cpp</text>
</a>
</g>
</g>
<!-- Node7&#45;&gt;Node11 -->
<g id="edge12" class="edge"><title>Node7&#45;&gt;Node11</title>
<path fill="none" stroke="midnightblue" d="M465.5,-45.8045C465.5,-36.9102 465.5,-26.7798 465.5,-19.7511"/>
<polygon fill="midnightblue" stroke="midnightblue" points="462,-46.083 465.5,-56.083 469,-46.083 462,-46.083"/>
</g>
<!-- Node13&#45;&gt;Node9 -->
<g id="edge15" class="edge"><title>Node13&#45;&gt;Node9</title>
<path fill="none" stroke="midnightblue" d="M338.523,-50.9005C322.387,-40.9986 301.319,-28.0705 287.604,-19.6545"/>
<polygon fill="midnightblue" stroke="midnightblue" points="337.007,-54.0769 347.361,-56.324 340.669,-48.1106 337.007,-54.0769"/>
</g>
<!-- Node13&#45;&gt;Node10 -->
<g id="edge16" class="edge"><title>Node13&#45;&gt;Node10</title>
<path fill="none" stroke="midnightblue" d="M368.282,-46.6897C371.652,-37.589 375.569,-27.0141 378.259,-19.7511"/>
<polygon fill="midnightblue" stroke="midnightblue" points="364.994,-45.4899 364.803,-56.083 371.558,-47.9211 364.994,-45.4899"/>
</g>
<!-- Node13&#45;&gt;Node11 -->
<g id="edge17" class="edge"><title>Node13&#45;&gt;Node11</title>
<path fill="none" stroke="midnightblue" d="M387.328,-51.5895C406.557,-41.6052 432.245,-28.2672 448.832,-19.6545"/>
<polygon fill="midnightblue" stroke="midnightblue" points="385.471,-48.6095 378.209,-56.324 388.697,-54.822 385.471,-48.6095"/>
</g>
</g>
</svg>
