<?xml version="1.0" encoding="UTF-8" standalone="no"?>
<!DOCTYPE svg PUBLIC "-//W3C//DTD SVG 1.1//EN"
 "http://www.w3.org/Graphics/SVG/1.1/DTD/svg11.dtd">
<!-- Generated by graphviz version 2.38.0 (20140413.2041)
 -->
<!-- Title: Instance.hpp Pages: 1 -->
<svg width="1071pt" height="364pt"
 viewBox="0.00 0.00 1071.01 364.00" xmlns="http://www.w3.org/2000/svg" xmlns:xlink="http://www.w3.org/1999/xlink">
<g id="graph0" class="graph" transform="scale(1 1) rotate(0) translate(4 360)">
<title>Instance.hpp</title>
<polygon fill="white" stroke="none" points="-4,4 -4,-360 1067.01,-360 1067.01,4 -4,4"/>
<!-- Node1 -->
<g id="node1" class="node"><title>Node1</title>
<polygon fill="#bfbfbf" stroke="black" points="255.506,-336.5 255.506,-355.5 328.506,-355.5 328.506,-336.5 255.506,-336.5"/>
<text text-anchor="middle" x="292.006" y="-343.5" font-family="Helvetica,sans-Serif" font-size="10.00">Instance.hpp</text>
</g>
<!-- Node2 -->
<g id="node2" class="node"><title>Node2</title>
<polygon fill="white" stroke="#bfbfbf" points="14.5055,-224.5 14.5055,-243.5 49.5055,-243.5 49.5055,-224.5 14.5055,-224.5"/>
<text text-anchor="middle" x="32.0055" y="-231.5" font-family="Helvetica,sans-Serif" font-size="10.00">map</text>
</g>
<!-- Node1&#45;&gt;Node2 -->
<g id="edge1" class="edge"><title>Node1&#45;&gt;Node2</title>
<path fill="none" stroke="midnightblue" d="M271.604,-336.368C225.044,-316.67 110.962,-268.405 58.8092,-246.34"/>
<polygon fill="midnightblue" stroke="midnightblue" points="60.1055,-243.088 49.532,-242.415 57.378,-249.535 60.1055,-243.088"/>
</g>
<!-- Node3 -->
<g id="node3" class="node"><title>Node3</title>
<polygon fill="white" stroke="#bfbfbf" points="106.506,-168.5 106.506,-187.5 147.506,-187.5 147.506,-168.5 106.506,-168.5"/>
<text text-anchor="middle" x="127.006" y="-175.5" font-family="Helvetica,sans-Serif" font-size="10.00">string</text>
</g>
<!-- Node1&#45;&gt;Node3 -->
<g id="edge2" class="edge"><title>Node1&#45;&gt;Node3</title>
<path fill="none" stroke="midnightblue" d="M255.361,-345.03C191.199,-342.824 60.1032,-327.727 5.00553,-244 -19.0045,-207.514 52.7824,-190.054 96.294,-183.008"/>
<polygon fill="midnightblue" stroke="midnightblue" points="97.049,-186.434 106.411,-181.473 95.9987,-179.513 97.049,-186.434"/>
</g>
<!-- Node4 -->
<g id="node4" class="node"><title>Node4</title>
<g id="a_node4"><a xlink:href="_class_loader_8hpp.html" target="_top" xlink:title="Declarações das funções do ClassLoader para salvar todos os bytes de .class corretamente. ">
<polygon fill="white" stroke="black" points="601.006,-224.5 601.006,-243.5 691.006,-243.5 691.006,-224.5 601.006,-224.5"/>
<text text-anchor="middle" x="646.006" y="-231.5" font-family="Helvetica,sans-Serif" font-size="10.00">ClassLoader.hpp</text>
</a>
</g>
</g>
<!-- Node1&#45;&gt;Node4 -->
<g id="edge3" class="edge"><title>Node1&#45;&gt;Node4</title>
<path fill="none" stroke="midnightblue" d="M319.489,-336.46C382.351,-316.926 536.708,-268.963 608.347,-246.702"/>
<polygon fill="midnightblue" stroke="midnightblue" points="609.785,-249.92 618.296,-243.61 607.708,-243.235 609.785,-249.92"/>
</g>
<!-- Node18 -->
<g id="node18" class="node"><title>Node18</title>
<g id="a_node18"><a xlink:href="_frame_8hpp.html" target="_top" xlink:title="Declarações das funções e da estrutura do Frame, utilizado para salvar resultados parciais...">
<polygon fill="white" stroke="black" points="260.506,-280.5 260.506,-299.5 323.506,-299.5 323.506,-280.5 260.506,-280.5"/>
<text text-anchor="middle" x="292.006" y="-287.5" font-family="Helvetica,sans-Serif" font-size="10.00">Frame.hpp</text>
</a>
</g>
</g>
<!-- Node1&#45;&gt;Node18 -->
<g id="edge31" class="edge"><title>Node1&#45;&gt;Node18</title>
<path fill="none" stroke="midnightblue" d="M286.839,-336.083C285.33,-328.927 284.899,-318.635 285.548,-309.691"/>
<polygon fill="midnightblue" stroke="midnightblue" points="289.021,-310.126 286.875,-299.751 282.082,-309.2 289.021,-310.126"/>
</g>
<!-- Node5 -->
<g id="node5" class="node"><title>Node5</title>
<polygon fill="white" stroke="#bfbfbf" points="564.006,-0.5 564.006,-19.5 610.006,-19.5 610.006,-0.5 564.006,-0.5"/>
<text text-anchor="middle" x="587.006" y="-7.5" font-family="Helvetica,sans-Serif" font-size="10.00">cstdint</text>
</g>
<!-- Node4&#45;&gt;Node5 -->
<g id="edge4" class="edge"><title>Node4&#45;&gt;Node5</title>
<path fill="none" stroke="midnightblue" d="M632.94,-224.379C622.035,-216.378 607.159,-203.401 600.006,-188 575.39,-135.006 580.11,-63.3956 584.211,-29.8313"/>
<polygon fill="midnightblue" stroke="midnightblue" points="587.718,-30.017 585.587,-19.6387 580.781,-29.0806 587.718,-30.017"/>
</g>
<!-- Node6 -->
<g id="node6" class="node"><title>Node6</title>
<polygon fill="white" stroke="#bfbfbf" points="973.006,-168.5 973.006,-187.5 1027.01,-187.5 1027.01,-168.5 973.006,-168.5"/>
<text text-anchor="middle" x="1000.01" y="-175.5" font-family="Helvetica,sans-Serif" font-size="10.00">iostream</text>
</g>
<!-- Node4&#45;&gt;Node6 -->
<g id="edge5" class="edge"><title>Node4&#45;&gt;Node6</title>
<path fill="none" stroke="midnightblue" d="M691.008,-227.583C751.964,-220.005 864.07,-205.22 959.006,-188 960.256,-187.773 961.526,-187.536 962.808,-187.29"/>
<polygon fill="midnightblue" stroke="midnightblue" points="963.608,-190.699 972.714,-185.283 962.219,-183.838 963.608,-190.699"/>
</g>
<!-- Node7 -->
<g id="node7" class="node"><title>Node7</title>
<polygon fill="white" stroke="#bfbfbf" points="701.006,-168.5 701.006,-187.5 747.006,-187.5 747.006,-168.5 701.006,-168.5"/>
<text text-anchor="middle" x="724.006" y="-175.5" font-family="Helvetica,sans-Serif" font-size="10.00">cstring</text>
</g>
<!-- Node4&#45;&gt;Node7 -->
<g id="edge6" class="edge"><title>Node4&#45;&gt;Node7</title>
<path fill="none" stroke="midnightblue" d="M658.538,-224.324C670.591,-215.979 689.032,-203.212 703.274,-193.352"/>
<polygon fill="midnightblue" stroke="midnightblue" points="705.275,-196.224 711.505,-187.655 701.29,-190.469 705.275,-196.224"/>
</g>
<!-- Node8 -->
<g id="node8" class="node"><title>Node8</title>
<polygon fill="white" stroke="#bfbfbf" points="369.006,-56.5 369.006,-75.5 413.006,-75.5 413.006,-56.5 369.006,-56.5"/>
<text text-anchor="middle" x="391.006" y="-63.5" font-family="Helvetica,sans-Serif" font-size="10.00">vector</text>
</g>
<!-- Node4&#45;&gt;Node8 -->
<g id="edge7" class="edge"><title>Node4&#45;&gt;Node8</title>
<path fill="none" stroke="midnightblue" d="M600.978,-229.556C543.16,-224.216 447.256,-211.957 422.006,-188 393.776,-161.216 389.89,-112.529 390.091,-85.8046"/>
<polygon fill="midnightblue" stroke="midnightblue" points="393.597,-85.6209 390.383,-75.5256 386.6,-85.4222 393.597,-85.6209"/>
</g>
<!-- Node9 -->
<g id="node9" class="node"><title>Node9</title>
<polygon fill="white" stroke="#bfbfbf" points="765.006,-168.5 765.006,-187.5 817.006,-187.5 817.006,-168.5 765.006,-168.5"/>
<text text-anchor="middle" x="791.006" y="-175.5" font-family="Helvetica,sans-Serif" font-size="10.00">memory</text>
</g>
<!-- Node4&#45;&gt;Node9 -->
<g id="edge8" class="edge"><title>Node4&#45;&gt;Node9</title>
<path fill="none" stroke="midnightblue" d="M668.981,-224.444C693.162,-215.438 731.424,-201.189 758.652,-191.049"/>
<polygon fill="midnightblue" stroke="midnightblue" points="759.988,-194.286 768.137,-187.516 757.545,-187.727 759.988,-194.286"/>
</g>
<!-- Node10 -->
<g id="node10" class="node"><title>Node10</title>
<polygon fill="white" stroke="#bfbfbf" points="835.506,-168.5 835.506,-187.5 878.506,-187.5 878.506,-168.5 835.506,-168.5"/>
<text text-anchor="middle" x="857.006" y="-175.5" font-family="Helvetica,sans-Serif" font-size="10.00">cstdio</text>
</g>
<!-- Node4&#45;&gt;Node10 -->
<g id="edge9" class="edge"><title>Node4&#45;&gt;Node10</title>
<path fill="none" stroke="midnightblue" d="M681.968,-224.431C716.385,-216.136 769.983,-202.976 825.672,-188.013"/>
<polygon fill="midnightblue" stroke="midnightblue" points="826.613,-191.384 835.354,-185.398 824.788,-184.626 826.613,-191.384"/>
</g>
<!-- Node11 -->
<g id="node11" class="node"><title>Node11</title>
<g id="a_node11"><a xlink:href="_cp_info_8hpp.html" target="_top" xlink:title="Declarações das funções e dos atributos do Pool de constantes. ">
<polygon fill="white" stroke="black" points="691.506,-56.5 691.506,-75.5 756.506,-75.5 756.506,-56.5 691.506,-56.5"/>
<text text-anchor="middle" x="724.006" y="-63.5" font-family="Helvetica,sans-Serif" font-size="10.00">CpInfo.hpp</text>
</a>
</g>
</g>
<!-- Node4&#45;&gt;Node11 -->
<g id="edge10" class="edge"><title>Node4&#45;&gt;Node11</title>
<path fill="none" stroke="midnightblue" d="M691.167,-231.219C753.933,-227.687 862.598,-217.387 887.006,-188 928.387,-138.177 826.362,-97.5325 765.495,-78.5632"/>
<polygon fill="midnightblue" stroke="midnightblue" points="766.329,-75.1589 755.744,-75.5988 764.293,-81.8562 766.329,-75.1589"/>
</g>
<!-- Node13 -->
<g id="node13" class="node"><title>Node13</title>
<g id="a_node13"><a xlink:href="_method_info_8hpp.html" target="_top" xlink:title="Declarações das funções do MethodInfo estrutura responsável por guardas as informaçoes dos metodos do...">
<polygon fill="white" stroke="black" points="431.006,-168.5 431.006,-187.5 515.006,-187.5 515.006,-168.5 431.006,-168.5"/>
<text text-anchor="middle" x="473.006" y="-175.5" font-family="Helvetica,sans-Serif" font-size="10.00">MethodInfo.hpp</text>
</a>
</g>
</g>
<!-- Node4&#45;&gt;Node13 -->
<g id="edge13" class="edge"><title>Node4&#45;&gt;Node13</title>
<path fill="none" stroke="midnightblue" d="M618.593,-224.444C589.236,-215.28 542.486,-200.688 509.91,-190.519"/>
<polygon fill="midnightblue" stroke="midnightblue" points="510.878,-187.155 500.29,-187.516 508.793,-193.837 510.878,-187.155"/>
</g>
<!-- Node14 -->
<g id="node14" class="node"><title>Node14</title>
<g id="a_node14"><a xlink:href="_attribute_info_8hpp.html" target="_top" xlink:title="Declarações das funções do AttributeInfo para tratamento dos atributos do arquivo ...">
<polygon fill="white" stroke="black" points="469.506,-112.5 469.506,-131.5 558.506,-131.5 558.506,-112.5 469.506,-112.5"/>
<text text-anchor="middle" x="514.006" y="-119.5" font-family="Helvetica,sans-Serif" font-size="10.00">AttributeInfo.hpp</text>
</a>
</g>
</g>
<!-- Node4&#45;&gt;Node14 -->
<g id="edge30" class="edge"><title>Node4&#45;&gt;Node14</title>
<path fill="none" stroke="midnightblue" d="M626.553,-224.427C609.737,-216.456 585.321,-203.498 567.006,-188 550.411,-173.958 535.146,-154.187 525.304,-140.145"/>
<polygon fill="midnightblue" stroke="midnightblue" points="528.183,-138.156 519.66,-131.863 522.399,-142.097 528.183,-138.156"/>
</g>
<!-- Node15 -->
<g id="node15" class="node"><title>Node15</title>
<g id="a_node15"><a xlink:href="_interface_info_8hpp.html" target="_top" xlink:title="Declarações das funções e atributos de InterfaceInfo. ">
<polygon fill="white" stroke="black" points="973.006,-112.5 973.006,-131.5 1063.01,-131.5 1063.01,-112.5 973.006,-112.5"/>
<text text-anchor="middle" x="1018.01" y="-119.5" font-family="Helvetica,sans-Serif" font-size="10.00">InterfaceInfo.hpp</text>
</a>
</g>
</g>
<!-- Node4&#45;&gt;Node15 -->
<g id="edge21" class="edge"><title>Node4&#45;&gt;Node15</title>
<path fill="none" stroke="midnightblue" d="M691.379,-231.466C747.213,-228.265 844.067,-218.4 921.006,-188 951.441,-175.974 982.064,-153.268 1000.54,-138.133"/>
<polygon fill="midnightblue" stroke="midnightblue" points="1002.93,-140.691 1008.35,-131.585 998.435,-135.326 1002.93,-140.691"/>
</g>
<!-- Node17 -->
<g id="node17" class="node"><title>Node17</title>
<g id="a_node17"><a xlink:href="_field_info_8hpp.html" target="_top" xlink:title="Declarações das funções do FieldInfo para tratamento dos fields do arquivo .class. ">
<polygon fill="white" stroke="black" points="609.506,-168.5 609.506,-187.5 682.506,-187.5 682.506,-168.5 609.506,-168.5"/>
<text text-anchor="middle" x="646.006" y="-175.5" font-family="Helvetica,sans-Serif" font-size="10.00">FieldInfo.hpp</text>
</a>
</g>
</g>
<!-- Node4&#45;&gt;Node17 -->
<g id="edge26" class="edge"><title>Node4&#45;&gt;Node17</title>
<path fill="none" stroke="midnightblue" d="M646.006,-224.083C646.006,-217.006 646.006,-206.861 646.006,-197.986"/>
<polygon fill="midnightblue" stroke="midnightblue" points="649.506,-197.751 646.006,-187.751 642.506,-197.751 649.506,-197.751"/>
</g>
<!-- Node11&#45;&gt;Node5 -->
<g id="edge11" class="edge"><title>Node11&#45;&gt;Node5</title>
<path fill="none" stroke="midnightblue" d="M702.297,-56.4435C679.651,-47.5171 643.933,-33.4387 618.254,-23.3168"/>
<polygon fill="midnightblue" stroke="midnightblue" points="619.199,-19.9273 608.612,-19.5164 616.632,-26.4397 619.199,-19.9273"/>
</g>
<!-- Node12 -->
<g id="node12" class="node"><title>Node12</title>
<polygon fill="white" stroke="#bfbfbf" points="794.006,-0.5 794.006,-19.5 844.006,-19.5 844.006,-0.5 794.006,-0.5"/>
<text text-anchor="middle" x="819.006" y="-7.5" font-family="Helvetica,sans-Serif" font-size="10.00">fstream</text>
</g>
<!-- Node11&#45;&gt;Node12 -->
<g id="edge12" class="edge"><title>Node11&#45;&gt;Node12</title>
<path fill="none" stroke="midnightblue" d="M739.269,-56.324C754.227,-47.8215 777.26,-34.7288 794.732,-24.7975"/>
<polygon fill="midnightblue" stroke="midnightblue" points="796.816,-27.639 803.78,-19.6545 793.357,-21.5534 796.816,-27.639"/>
</g>
<!-- Node13&#45;&gt;Node5 -->
<g id="edge14" class="edge"><title>Node13&#45;&gt;Node5</title>
<path fill="none" stroke="midnightblue" d="M468.045,-168.229C461.484,-155.395 451.671,-130.964 460.006,-112 478.699,-69.4618 526.023,-39.8115 557.325,-24.1"/>
<polygon fill="midnightblue" stroke="midnightblue" points="558.999,-27.1786 566.476,-19.6727 555.95,-20.8774 558.999,-27.1786"/>
</g>
<!-- Node13&#45;&gt;Node11 -->
<g id="edge20" class="edge"><title>Node13&#45;&gt;Node11</title>
<path fill="none" stroke="midnightblue" d="M492.701,-168.368C536.781,-149.051 643.55,-102.259 695.145,-79.6481"/>
<polygon fill="midnightblue" stroke="midnightblue" points="696.647,-82.8111 704.401,-75.5914 693.838,-76.3997 696.647,-82.8111"/>
</g>
<!-- Node13&#45;&gt;Node14 -->
<g id="edge15" class="edge"><title>Node13&#45;&gt;Node14</title>
<path fill="none" stroke="midnightblue" d="M479.776,-168.083C485.567,-160.455 494.064,-149.264 501.143,-139.941"/>
<polygon fill="midnightblue" stroke="midnightblue" points="504.102,-141.832 507.361,-131.751 498.526,-137.599 504.102,-141.832"/>
</g>
<!-- Node14&#45;&gt;Node5 -->
<g id="edge16" class="edge"><title>Node14&#45;&gt;Node5</title>
<path fill="none" stroke="midnightblue" d="M515.268,-112.357C517.502,-99.2563 523.088,-73.9948 535.006,-56 542.834,-44.1799 554.589,-33.6429 564.943,-25.742"/>
<polygon fill="midnightblue" stroke="midnightblue" points="567.155,-28.4608 573.194,-19.755 563.044,-22.7952 567.155,-28.4608"/>
</g>
<!-- Node14&#45;&gt;Node8 -->
<g id="edge17" class="edge"><title>Node14&#45;&gt;Node8</title>
<path fill="none" stroke="midnightblue" d="M494.516,-112.444C474.363,-103.596 442.683,-89.6875 419.675,-79.5865"/>
<polygon fill="midnightblue" stroke="midnightblue" points="420.968,-76.3316 410.404,-75.5164 418.154,-82.7411 420.968,-76.3316"/>
</g>
<!-- Node14&#45;&gt;Node11 -->
<g id="edge19" class="edge"><title>Node14&#45;&gt;Node11</title>
<path fill="none" stroke="midnightblue" d="M547.281,-112.444C583.56,-103.115 641.723,-88.1584 681.335,-77.9723"/>
<polygon fill="midnightblue" stroke="midnightblue" points="682.419,-81.3077 691.232,-75.4275 680.675,-74.5283 682.419,-81.3077"/>
</g>
<!-- Node14&#45;&gt;Node12 -->
<g id="edge18" class="edge"><title>Node14&#45;&gt;Node12</title>
<path fill="none" stroke="midnightblue" d="M535.09,-112.438C566.791,-99.6559 628.703,-75.0513 682.006,-56 716.439,-43.693 756.178,-30.7806 783.959,-21.96"/>
<polygon fill="midnightblue" stroke="midnightblue" points="785.143,-25.2568 793.622,-18.9041 783.032,-18.5826 785.143,-25.2568"/>
</g>
<!-- Node15&#45;&gt;Node5 -->
<g id="edge23" class="edge"><title>Node15&#45;&gt;Node5</title>
<path fill="none" stroke="midnightblue" d="M984.863,-112.442C936.535,-99.972 843.887,-76.104 765.006,-56 714.403,-43.1033 655.669,-28.2839 619.934,-19.2843"/>
<polygon fill="midnightblue" stroke="midnightblue" points="620.606,-15.8443 610.054,-16.7968 618.897,-22.6325 620.606,-15.8443"/>
</g>
<!-- Node15&#45;&gt;Node12 -->
<g id="edge22" class="edge"><title>Node15&#45;&gt;Node12</title>
<path fill="none" stroke="midnightblue" d="M1002.39,-112.368C967.879,-93.2916 884.897,-47.4223 843.438,-24.5054"/>
<polygon fill="midnightblue" stroke="midnightblue" points="844.993,-21.366 834.548,-19.5914 841.607,-27.4924 844.993,-21.366"/>
</g>
<!-- Node16 -->
<g id="node16" class="node"><title>Node16</title>
<g id="a_node16"><a xlink:href="_byte_reader_8hpp.html" target="_top" xlink:title="Declarações das funções do ByteReader para leitura dos bytes no arquivo .class. ">
<polygon fill="white" stroke="black" points="958.506,-56.5 958.506,-75.5 1045.51,-75.5 1045.51,-56.5 958.506,-56.5"/>
<text text-anchor="middle" x="1002.01" y="-63.5" font-family="Helvetica,sans-Serif" font-size="10.00">ByteReader.hpp</text>
</a>
</g>
</g>
<!-- Node15&#45;&gt;Node16 -->
<g id="edge24" class="edge"><title>Node15&#45;&gt;Node16</title>
<path fill="none" stroke="midnightblue" d="M1015.36,-112.083C1013.22,-104.849 1010.13,-94.4087 1007.46,-85.3968"/>
<polygon fill="midnightblue" stroke="midnightblue" points="1010.8,-84.3447 1004.6,-75.7511 1004.08,-86.3334 1010.8,-84.3447"/>
</g>
<!-- Node16&#45;&gt;Node12 -->
<g id="edge25" class="edge"><title>Node16&#45;&gt;Node12</title>
<path fill="none" stroke="midnightblue" d="M973.009,-56.4435C940.628,-46.8887 888.244,-31.4312 853.712,-21.2413"/>
<polygon fill="midnightblue" stroke="midnightblue" points="854.626,-17.8618 844.044,-18.3884 852.645,-24.5756 854.626,-17.8618"/>
</g>
<!-- Node17&#45;&gt;Node5 -->
<g id="edge29" class="edge"><title>Node17&#45;&gt;Node5</title>
<path fill="none" stroke="midnightblue" d="M642.833,-168.075C633.506,-141.832 606.037,-64.5453 593.445,-29.1165"/>
<polygon fill="midnightblue" stroke="midnightblue" points="596.698,-27.8185 590.051,-19.5681 590.102,-30.1628 596.698,-27.8185"/>
</g>
<!-- Node17&#45;&gt;Node11 -->
<g id="edge27" class="edge"><title>Node17&#45;&gt;Node11</title>
<path fill="none" stroke="midnightblue" d="M652.126,-168.368C664.998,-150.215 695.074,-107.802 711.958,-83.9902"/>
<polygon fill="midnightblue" stroke="midnightblue" points="714.984,-85.7733 717.913,-75.5914 709.274,-81.7243 714.984,-85.7733"/>
</g>
<!-- Node17&#45;&gt;Node14 -->
<g id="edge28" class="edge"><title>Node17&#45;&gt;Node14</title>
<path fill="none" stroke="midnightblue" d="M625.09,-168.444C603.27,-159.517 568.856,-145.439 544.113,-135.317"/>
<polygon fill="midnightblue" stroke="midnightblue" points="545.404,-132.063 534.823,-131.516 542.754,-138.542 545.404,-132.063"/>
</g>
<!-- Node18&#45;&gt;Node1 -->
<g id="edge46" class="edge"><title>Node18&#45;&gt;Node1</title>
<path fill="none" stroke="midnightblue" d="M297.137,-299.751C298.663,-306.858 299.11,-317.136 298.478,-326.101"/>
<polygon fill="midnightblue" stroke="midnightblue" points="294.999,-325.713 297.172,-336.083 301.94,-326.622 294.999,-325.713"/>
</g>
<!-- Node18&#45;&gt;Node2 -->
<g id="edge36" class="edge"><title>Node18&#45;&gt;Node2</title>
<path fill="none" stroke="midnightblue" d="M260.487,-283.595C216.334,-275.84 133.661,-260.642 64.0055,-244 62.5321,-243.648 61.0244,-243.274 59.5049,-242.885"/>
<polygon fill="midnightblue" stroke="midnightblue" points="60.1114,-239.424 49.5453,-240.203 58.2914,-246.183 60.1114,-239.424"/>
</g>
<!-- Node18&#45;&gt;Node3 -->
<g id="edge33" class="edge"><title>Node18&#45;&gt;Node3</title>
<path fill="none" stroke="midnightblue" d="M260.396,-289.553C224.239,-288.326 166.042,-280.324 135.006,-244 124.282,-231.45 123.149,-212.228 124.177,-197.939"/>
<polygon fill="midnightblue" stroke="midnightblue" points="127.682,-198.087 125.323,-187.758 120.726,-197.304 127.682,-198.087"/>
</g>
<!-- Node18&#45;&gt;Node4 -->
<g id="edge41" class="edge"><title>Node18&#45;&gt;Node4</title>
<path fill="none" stroke="midnightblue" d="M323.732,-284.16C383.946,-274.975 515.472,-254.912 590.556,-243.458"/>
<polygon fill="midnightblue" stroke="midnightblue" points="591.405,-246.869 600.763,-241.901 590.349,-239.95 591.405,-246.869"/>
</g>
<!-- Node18&#45;&gt;Node5 -->
<g id="edge32" class="edge"><title>Node18&#45;&gt;Node5</title>
<path fill="none" stroke="midnightblue" d="M260.429,-287.029C200.901,-281.425 78.0055,-260.041 78.0055,-179 78.0055,-179 78.0055,-179 78.0055,-121 78.0055,-23.3452 440.475,-12.1735 553.658,-11.0655"/>
<polygon fill="midnightblue" stroke="midnightblue" points="553.84,-14.5643 563.812,-10.9871 553.785,-7.56451 553.84,-14.5643"/>
</g>
<!-- Node18&#45;&gt;Node8 -->
<g id="edge34" class="edge"><title>Node18&#45;&gt;Node8</title>
<path fill="none" stroke="midnightblue" d="M293.971,-280.416C296.977,-267.814 303.199,-243.67 311.006,-224 331.902,-171.35 364.424,-112.725 380.82,-84.3146"/>
<polygon fill="midnightblue" stroke="midnightblue" points="383.896,-85.988 385.902,-75.5848 377.847,-82.4663 383.896,-85.988"/>
</g>
<!-- Node18&#45;&gt;Node11 -->
<g id="edge38" class="edge"><title>Node18&#45;&gt;Node11</title>
<path fill="none" stroke="midnightblue" d="M323.565,-287.162C459.345,-278.935 989.033,-243.449 1036.01,-188 1041.75,-181.218 1041.13,-175.265 1036.01,-168 1020.04,-145.358 848.008,-98.7639 766.445,-77.7259"/>
<polygon fill="midnightblue" stroke="midnightblue" points="767.286,-74.3283 756.729,-75.2305 765.544,-81.1083 767.286,-74.3283"/>
</g>
<!-- Node18&#45;&gt;Node13 -->
<g id="edge39" class="edge"><title>Node18&#45;&gt;Node13</title>
<path fill="none" stroke="midnightblue" d="M323.815,-286.196C372.9,-281.137 463.497,-268.639 483.006,-244 493.499,-230.746 488.51,-211.081 482.436,-196.853"/>
<polygon fill="midnightblue" stroke="midnightblue" points="485.496,-195.139 478.028,-187.624 479.18,-198.156 485.496,-195.139"/>
</g>
<!-- Node18&#45;&gt;Node14 -->
<g id="edge40" class="edge"><title>Node18&#45;&gt;Node14</title>
<path fill="none" stroke="midnightblue" d="M323.667,-284.458C365.022,-277.802 433.945,-263.983 449.006,-244 470.58,-215.373 403.027,-198.41 422.006,-168 431.763,-152.364 448.703,-142.013 465.408,-135.23"/>
<polygon fill="midnightblue" stroke="midnightblue" points="466.988,-138.378 475.16,-131.636 464.567,-131.81 466.988,-138.378"/>
</g>
<!-- Node19 -->
<g id="node19" class="node"><title>Node19</title>
<polygon fill="white" stroke="#bfbfbf" points="320.506,-224.5 320.506,-243.5 361.506,-243.5 361.506,-224.5 320.506,-224.5"/>
<text text-anchor="middle" x="341.006" y="-231.5" font-family="Helvetica,sans-Serif" font-size="10.00">stack</text>
</g>
<!-- Node18&#45;&gt;Node19 -->
<g id="edge35" class="edge"><title>Node18&#45;&gt;Node19</title>
<path fill="none" stroke="midnightblue" d="M300.097,-280.083C307.161,-272.298 317.593,-260.801 326.154,-251.367"/>
<polygon fill="midnightblue" stroke="midnightblue" points="328.937,-253.509 333.065,-243.751 323.753,-248.805 328.937,-253.509"/>
</g>
<!-- Node20 -->
<g id="node20" class="node"><title>Node20</title>
<polygon fill="white" stroke="#bfbfbf" points="379.506,-224.5 379.506,-243.5 440.506,-243.5 440.506,-224.5 379.506,-224.5"/>
<text text-anchor="middle" x="410.006" y="-231.5" font-family="Helvetica,sans-Serif" font-size="10.00">Stack.hpp</text>
</g>
<!-- Node18&#45;&gt;Node20 -->
<g id="edge37" class="edge"><title>Node18&#45;&gt;Node20</title>
<path fill="none" stroke="midnightblue" d="M310.703,-280.444C329.95,-271.636 360.158,-257.812 382.206,-247.722"/>
<polygon fill="midnightblue" stroke="midnightblue" points="383.759,-250.86 391.396,-243.516 380.846,-244.495 383.759,-250.86"/>
</g>
<!-- Node21 -->
<g id="node21" class="node"><title>Node21</title>
<g id="a_node21"><a xlink:href="_instruction_8hpp.html" target="_top" xlink:title="Declarações das instruçoes referentes ao interpretador da JVM. ">
<polygon fill="white" stroke="black" points="144.506,-224.5 144.506,-243.5 225.506,-243.5 225.506,-224.5 144.506,-224.5"/>
<text text-anchor="middle" x="185.006" y="-231.5" font-family="Helvetica,sans-Serif" font-size="10.00">Instruction.hpp</text>
</a>
</g>
</g>
<!-- Node18&#45;&gt;Node21 -->
<g id="edge42" class="edge"><title>Node18&#45;&gt;Node21</title>
<path fill="none" stroke="midnightblue" d="M274.814,-280.324C257.655,-271.664 231.06,-258.242 211.258,-248.249"/>
<polygon fill="midnightblue" stroke="midnightblue" points="212.659,-245.035 202.154,-243.655 209.505,-251.285 212.659,-245.035"/>
</g>
<!-- Node21&#45;&gt;Node3 -->
<g id="edge43" class="edge"><title>Node21&#45;&gt;Node3</title>
<path fill="none" stroke="midnightblue" d="M175.687,-224.324C167.113,-216.341 154.193,-204.313 143.818,-194.653"/>
<polygon fill="midnightblue" stroke="midnightblue" points="146.198,-192.086 136.494,-187.834 141.428,-197.21 146.198,-192.086"/>
</g>
<!-- Node22 -->
<g id="node22" class="node"><title>Node22</title>
<g id="a_node22"><a xlink:href="_instruction_impl_8hpp.html" target="_top" xlink:title="Declarações das funções do ClassLoader para salvar todos os bytes de .class corretamente. ">
<polygon fill="white" stroke="black" points="166.006,-168.5 166.006,-187.5 266.006,-187.5 266.006,-168.5 166.006,-168.5"/>
<text text-anchor="middle" x="216.006" y="-175.5" font-family="Helvetica,sans-Serif" font-size="10.00">InstructionImpl.hpp</text>
</a>
</g>
</g>
<!-- Node21&#45;&gt;Node22 -->
<g id="edge44" class="edge"><title>Node21&#45;&gt;Node22</title>
<path fill="none" stroke="midnightblue" d="M190.125,-224.083C194.413,-216.613 200.664,-205.724 205.948,-196.52"/>
<polygon fill="midnightblue" stroke="midnightblue" points="209.038,-198.166 210.982,-187.751 202.968,-194.681 209.038,-198.166"/>
</g>
<!-- Node22&#45;&gt;Node18 -->
<g id="edge45" class="edge"><title>Node22&#45;&gt;Node18</title>
<path fill="none" stroke="midnightblue" d="M221.941,-187.591C234.459,-205.709 263.76,-248.118 280.23,-271.957"/>
<polygon fill="midnightblue" stroke="midnightblue" points="277.478,-274.131 286.042,-280.368 283.237,-270.152 277.478,-274.131"/>
</g>
</g>
</svg>
