<?xml version="1.0" encoding="UTF-8" standalone="no"?>
<!DOCTYPE svg PUBLIC "-//W3C//DTD SVG 1.1//EN"
 "http://www.w3.org/Graphics/SVG/1.1/DTD/svg11.dtd">
<!-- Generated by graphviz version 2.38.0 (20140413.2041)
 -->
<!-- Title: Instruction.hpp Pages: 1 -->
<svg width="883pt" height="476pt"
 viewBox="0.00 0.00 883.00 476.00" xmlns="http://www.w3.org/2000/svg" xmlns:xlink="http://www.w3.org/1999/xlink">
<g id="graph0" class="graph" transform="scale(1 1) rotate(0) translate(4 472)">
<title>Instruction.hpp</title>
<polygon fill="white" stroke="none" points="-4,4 -4,-472 879,-472 879,4 -4,4"/>
<!-- Node1 -->
<g id="node1" class="node"><title>Node1</title>
<polygon fill="#bfbfbf" stroke="black" points="248.5,-448.5 248.5,-467.5 329.5,-467.5 329.5,-448.5 248.5,-448.5"/>
<text text-anchor="middle" x="289" y="-455.5" font-family="Helvetica,sans-Serif" font-size="10.00">Instruction.hpp</text>
</g>
<!-- Node2 -->
<g id="node2" class="node"><title>Node2</title>
<polygon fill="white" stroke="#bfbfbf" points="241.5,-224.5 241.5,-243.5 282.5,-243.5 282.5,-224.5 241.5,-224.5"/>
<text text-anchor="middle" x="262" y="-231.5" font-family="Helvetica,sans-Serif" font-size="10.00">string</text>
</g>
<!-- Node1&#45;&gt;Node2 -->
<g id="edge1" class="edge"><title>Node1&#45;&gt;Node2</title>
<path fill="none" stroke="midnightblue" d="M287.942,-448.297C283.969,-415.633 269.889,-299.866 264.306,-253.957"/>
<polygon fill="midnightblue" stroke="midnightblue" points="267.762,-253.388 263.08,-243.884 260.813,-254.233 267.762,-253.388"/>
</g>
<!-- Node3 -->
<g id="node3" class="node"><title>Node3</title>
<g id="a_node3"><a xlink:href="_instruction_impl_8hpp.html" target="_top" xlink:title="Declarações das funções do ClassLoader para salvar todos os bytes de .class corretamente. ">
<polygon fill="white" stroke="black" points="317,-392.5 317,-411.5 417,-411.5 417,-392.5 317,-392.5"/>
<text text-anchor="middle" x="367" y="-399.5" font-family="Helvetica,sans-Serif" font-size="10.00">InstructionImpl.hpp</text>
</a>
</g>
</g>
<!-- Node1&#45;&gt;Node3 -->
<g id="edge2" class="edge"><title>Node1&#45;&gt;Node3</title>
<path fill="none" stroke="midnightblue" d="M301.532,-448.324C313.586,-439.979 332.027,-427.212 346.269,-417.352"/>
<polygon fill="midnightblue" stroke="midnightblue" points="348.269,-420.224 354.499,-411.655 344.285,-414.469 348.269,-420.224"/>
</g>
<!-- Node4 -->
<g id="node4" class="node"><title>Node4</title>
<g id="a_node4"><a xlink:href="_frame_8hpp.html" target="_top" xlink:title="Declarações das funções e da estrutura do Frame, utilizado para salvar resultados parciais...">
<polygon fill="white" stroke="black" points="335.5,-336.5 335.5,-355.5 398.5,-355.5 398.5,-336.5 335.5,-336.5"/>
<text text-anchor="middle" x="367" y="-343.5" font-family="Helvetica,sans-Serif" font-size="10.00">Frame.hpp</text>
</a>
</g>
</g>
<!-- Node3&#45;&gt;Node4 -->
<g id="edge3" class="edge"><title>Node3&#45;&gt;Node4</title>
<path fill="none" stroke="midnightblue" d="M367,-392.083C367,-385.006 367,-374.861 367,-365.986"/>
<polygon fill="midnightblue" stroke="midnightblue" points="370.5,-365.751 367,-355.751 363.5,-365.751 370.5,-365.751"/>
</g>
<!-- Node4&#45;&gt;Node1 -->
<g id="edge41" class="edge"><title>Node4&#45;&gt;Node1</title>
<path fill="none" stroke="midnightblue" d="M350.657,-355.563C337.315,-363.359 318.94,-376.071 308,-392 298.536,-405.78 293.724,-424.305 291.315,-438.052"/>
<polygon fill="midnightblue" stroke="midnightblue" points="287.805,-437.864 289.808,-448.268 294.73,-438.886 287.805,-437.864"/>
</g>
<!-- Node4&#45;&gt;Node2 -->
<g id="edge5" class="edge"><title>Node4&#45;&gt;Node2</title>
<path fill="none" stroke="midnightblue" d="M355.751,-336.215C344.869,-327.502 328.142,-313.532 315,-300 300.165,-284.723 284.982,-265.687 274.691,-252.173"/>
<polygon fill="midnightblue" stroke="midnightblue" points="277.216,-249.707 268.412,-243.813 271.619,-253.911 277.216,-249.707"/>
</g>
<!-- Node5 -->
<g id="node5" class="node"><title>Node5</title>
<polygon fill="white" stroke="#bfbfbf" points="499,-0.5 499,-19.5 545,-19.5 545,-0.5 499,-0.5"/>
<text text-anchor="middle" x="522" y="-7.5" font-family="Helvetica,sans-Serif" font-size="10.00">cstdint</text>
</g>
<!-- Node4&#45;&gt;Node5 -->
<g id="edge4" class="edge"><title>Node4&#45;&gt;Node5</title>
<path fill="none" stroke="midnightblue" d="M335.392,-342.357C246.371,-334.05 0,-304.758 0,-235 0,-235 0,-235 0,-121 0,-20.7367 373.395,-11.3867 488.577,-10.8877"/>
<polygon fill="midnightblue" stroke="midnightblue" points="488.905,-14.387 498.897,-10.8643 488.889,-7.38706 488.905,-14.387"/>
</g>
<!-- Node6 -->
<g id="node6" class="node"><title>Node6</title>
<polygon fill="white" stroke="#bfbfbf" points="130,-56.5 130,-75.5 174,-75.5 174,-56.5 130,-56.5"/>
<text text-anchor="middle" x="152" y="-63.5" font-family="Helvetica,sans-Serif" font-size="10.00">vector</text>
</g>
<!-- Node4&#45;&gt;Node6 -->
<g id="edge6" class="edge"><title>Node4&#45;&gt;Node6</title>
<path fill="none" stroke="midnightblue" d="M335.333,-337.625C309.554,-330.646 272.984,-318.46 245,-300 216.395,-281.13 209.335,-273.56 192,-244 165.618,-199.013 166.841,-183.215 157,-132 154.06,-116.698 152.836,-99.0558 152.333,-86.0158"/>
<polygon fill="midnightblue" stroke="midnightblue" points="155.829,-85.8141 152.051,-75.9156 148.831,-86.0094 155.829,-85.8141"/>
</g>
<!-- Node7 -->
<g id="node7" class="node"><title>Node7</title>
<polygon fill="white" stroke="#bfbfbf" points="501.5,-280.5 501.5,-299.5 542.5,-299.5 542.5,-280.5 501.5,-280.5"/>
<text text-anchor="middle" x="522" y="-287.5" font-family="Helvetica,sans-Serif" font-size="10.00">stack</text>
</g>
<!-- Node4&#45;&gt;Node7 -->
<g id="edge7" class="edge"><title>Node4&#45;&gt;Node7</title>
<path fill="none" stroke="midnightblue" d="M391.56,-336.444C418.592,-327.026 462.082,-311.875 491.332,-301.684"/>
<polygon fill="midnightblue" stroke="midnightblue" points="492.742,-304.899 501.034,-298.304 490.439,-298.289 492.742,-304.899"/>
</g>
<!-- Node8 -->
<g id="node8" class="node"><title>Node8</title>
<polygon fill="white" stroke="#bfbfbf" points="409.5,-224.5 409.5,-243.5 444.5,-243.5 444.5,-224.5 409.5,-224.5"/>
<text text-anchor="middle" x="427" y="-231.5" font-family="Helvetica,sans-Serif" font-size="10.00">map</text>
</g>
<!-- Node4&#45;&gt;Node8 -->
<g id="edge8" class="edge"><title>Node4&#45;&gt;Node8</title>
<path fill="none" stroke="midnightblue" d="M378.811,-336.349C389.143,-328.143 403.752,-314.882 412,-300 419.983,-285.597 423.725,-267.142 425.475,-253.578"/>
<polygon fill="midnightblue" stroke="midnightblue" points="428.967,-253.842 426.526,-243.532 422.005,-253.114 428.967,-253.842"/>
</g>
<!-- Node9 -->
<g id="node9" class="node"><title>Node9</title>
<polygon fill="white" stroke="#bfbfbf" points="560.5,-280.5 560.5,-299.5 621.5,-299.5 621.5,-280.5 560.5,-280.5"/>
<text text-anchor="middle" x="591" y="-287.5" font-family="Helvetica,sans-Serif" font-size="10.00">Stack.hpp</text>
</g>
<!-- Node4&#45;&gt;Node9 -->
<g id="edge9" class="edge"><title>Node4&#45;&gt;Node9</title>
<path fill="none" stroke="midnightblue" d="M398.619,-337.378C438.365,-327.796 506.656,-311.333 550.274,-300.818"/>
<polygon fill="midnightblue" stroke="midnightblue" points="551.36,-304.156 560.261,-298.41 549.719,-297.351 551.36,-304.156"/>
</g>
<!-- Node10 -->
<g id="node10" class="node"><title>Node10</title>
<g id="a_node10"><a xlink:href="_cp_info_8hpp.html" target="_top" xlink:title="Declarações das funções e dos atributos do Pool de constantes. ">
<polygon fill="white" stroke="black" points="626.5,-56.5 626.5,-75.5 691.5,-75.5 691.5,-56.5 626.5,-56.5"/>
<text text-anchor="middle" x="659" y="-63.5" font-family="Helvetica,sans-Serif" font-size="10.00">CpInfo.hpp</text>
</a>
</g>
</g>
<!-- Node4&#45;&gt;Node10 -->
<g id="edge10" class="edge"><title>Node4&#45;&gt;Node10</title>
<path fill="none" stroke="midnightblue" d="M398.93,-343.037C460.666,-338.688 593.538,-326.457 630,-300 694.543,-253.167 690.157,-211.693 693,-132 693.317,-123.117 695.826,-120.428 693,-112 689.396,-101.251 682.097,-91.0204 675.183,-83.0378"/>
<polygon fill="midnightblue" stroke="midnightblue" points="677.655,-80.5561 668.288,-75.6053 672.523,-85.3168 677.655,-80.5561"/>
</g>
<!-- Node12 -->
<g id="node12" class="node"><title>Node12</title>
<g id="a_node12"><a xlink:href="_method_info_8hpp.html" target="_top" xlink:title="Declarações das funções do MethodInfo estrutura responsável por guardas as informaçoes dos metodos do...">
<polygon fill="white" stroke="black" points="577,-168.5 577,-187.5 661,-187.5 661,-168.5 577,-168.5"/>
<text text-anchor="middle" x="619" y="-175.5" font-family="Helvetica,sans-Serif" font-size="10.00">MethodInfo.hpp</text>
</a>
</g>
</g>
<!-- Node4&#45;&gt;Node12 -->
<g id="edge13" class="edge"><title>Node4&#45;&gt;Node12</title>
<path fill="none" stroke="midnightblue" d="M380.194,-336.309C421.189,-309.304 546.638,-226.667 597.371,-193.248"/>
<polygon fill="midnightblue" stroke="midnightblue" points="599.511,-196.029 605.937,-187.605 595.66,-190.183 599.511,-196.029"/>
</g>
<!-- Node13 -->
<g id="node13" class="node"><title>Node13</title>
<g id="a_node13"><a xlink:href="_attribute_info_8hpp.html" target="_top" xlink:title="Declarações das funções do AttributeInfo para tratamento dos atributos do arquivo ...">
<polygon fill="white" stroke="black" points="403.5,-112.5 403.5,-131.5 492.5,-131.5 492.5,-112.5 403.5,-112.5"/>
<text text-anchor="middle" x="448" y="-119.5" font-family="Helvetica,sans-Serif" font-size="10.00">AttributeInfo.hpp</text>
</a>
</g>
</g>
<!-- Node4&#45;&gt;Node13 -->
<g id="edge21" class="edge"><title>Node4&#45;&gt;Node13</title>
<path fill="none" stroke="midnightblue" d="M347.357,-336.489C292.336,-311.519 144.325,-235.934 201,-168 224.987,-139.248 328.029,-128.82 393.21,-125.071"/>
<polygon fill="midnightblue" stroke="midnightblue" points="393.532,-128.559 403.328,-124.525 393.154,-121.569 393.532,-128.559"/>
</g>
<!-- Node14 -->
<g id="node14" class="node"><title>Node14</title>
<g id="a_node14"><a xlink:href="_class_loader_8hpp.html" target="_top" xlink:title="Declarações das funções do ClassLoader para salvar todos os bytes de .class corretamente. ">
<polygon fill="white" stroke="black" points="301,-224.5 301,-243.5 391,-243.5 391,-224.5 301,-224.5"/>
<text text-anchor="middle" x="346" y="-231.5" font-family="Helvetica,sans-Serif" font-size="10.00">ClassLoader.hpp</text>
</a>
</g>
</g>
<!-- Node4&#45;&gt;Node14 -->
<g id="edge22" class="edge"><title>Node4&#45;&gt;Node14</title>
<path fill="none" stroke="midnightblue" d="M353.213,-336.189C342.174,-328.241 327.498,-315.447 321,-300 314.22,-283.882 323.079,-265.23 332.072,-252.052"/>
<polygon fill="midnightblue" stroke="midnightblue" points="334.973,-254.015 338.128,-243.901 329.354,-249.84 334.973,-254.015"/>
</g>
<!-- Node22 -->
<g id="node22" class="node"><title>Node22</title>
<g id="a_node22"><a xlink:href="_instance_8hpp.html" target="_top" xlink:title="Declaração da struct Instance. ">
<polygon fill="white" stroke="black" points="330.5,-280.5 330.5,-299.5 403.5,-299.5 403.5,-280.5 330.5,-280.5"/>
<text text-anchor="middle" x="367" y="-287.5" font-family="Helvetica,sans-Serif" font-size="10.00">Instance.hpp</text>
</a>
</g>
</g>
<!-- Node4&#45;&gt;Node22 -->
<g id="edge42" class="edge"><title>Node4&#45;&gt;Node22</title>
<path fill="none" stroke="midnightblue" d="M361.834,-336.083C360.324,-328.927 359.894,-318.635 360.542,-309.691"/>
<polygon fill="midnightblue" stroke="midnightblue" points="364.015,-310.126 361.869,-299.751 357.077,-309.2 364.015,-310.126"/>
</g>
<!-- Node10&#45;&gt;Node5 -->
<g id="edge11" class="edge"><title>Node10&#45;&gt;Node5</title>
<path fill="none" stroke="midnightblue" d="M637.292,-56.4435C614.645,-47.5171 578.928,-33.4387 553.248,-23.3168"/>
<polygon fill="midnightblue" stroke="midnightblue" points="554.193,-19.9273 543.606,-19.5164 551.626,-26.4397 554.193,-19.9273"/>
</g>
<!-- Node11 -->
<g id="node11" class="node"><title>Node11</title>
<polygon fill="white" stroke="#bfbfbf" points="683,-0.5 683,-19.5 733,-19.5 733,-0.5 683,-0.5"/>
<text text-anchor="middle" x="708" y="-7.5" font-family="Helvetica,sans-Serif" font-size="10.00">fstream</text>
</g>
<!-- Node10&#45;&gt;Node11 -->
<g id="edge12" class="edge"><title>Node10&#45;&gt;Node11</title>
<path fill="none" stroke="midnightblue" d="M667.091,-56.083C674.155,-48.2982 684.588,-36.8015 693.149,-27.3665"/>
<polygon fill="midnightblue" stroke="midnightblue" points="695.931,-29.5087 700.059,-19.7511 690.747,-24.8047 695.931,-29.5087"/>
</g>
<!-- Node12&#45;&gt;Node5 -->
<g id="edge14" class="edge"><title>Node12&#45;&gt;Node5</title>
<path fill="none" stroke="midnightblue" d="M613.785,-168.075C598.318,-141.606 552.508,-63.2089 532.056,-28.2097"/>
<polygon fill="midnightblue" stroke="midnightblue" points="535.074,-26.4363 527.007,-19.5681 529.03,-29.968 535.074,-26.4363"/>
</g>
<!-- Node12&#45;&gt;Node10 -->
<g id="edge20" class="edge"><title>Node12&#45;&gt;Node10</title>
<path fill="none" stroke="midnightblue" d="M622.139,-168.368C628.623,-150.537 643.62,-109.295 652.356,-85.2717"/>
<polygon fill="midnightblue" stroke="midnightblue" points="655.748,-86.1855 655.876,-75.5914 649.169,-83.7932 655.748,-86.1855"/>
</g>
<!-- Node12&#45;&gt;Node13 -->
<g id="edge15" class="edge"><title>Node12&#45;&gt;Node13</title>
<path fill="none" stroke="midnightblue" d="M591.905,-168.444C563.012,-159.32 517.075,-144.813 484.895,-134.651"/>
<polygon fill="midnightblue" stroke="midnightblue" points="485.559,-131.19 474.969,-131.516 483.451,-137.865 485.559,-131.19"/>
</g>
<!-- Node13&#45;&gt;Node5 -->
<g id="edge16" class="edge"><title>Node13&#45;&gt;Node5</title>
<path fill="none" stroke="midnightblue" d="M449.42,-112.357C451.887,-99.2559 457.902,-73.9941 470,-56 477.91,-44.2344 489.671,-33.7014 500.008,-25.7891"/>
<polygon fill="midnightblue" stroke="midnightblue" points="502.22,-28.5079 508.24,-19.7896 498.097,-22.8507 502.22,-28.5079"/>
</g>
<!-- Node13&#45;&gt;Node6 -->
<g id="edge17" class="edge"><title>Node13&#45;&gt;Node6</title>
<path fill="none" stroke="midnightblue" d="M403.365,-112.857C343.104,-101.864 237.177,-82.539 184.147,-72.8647"/>
<polygon fill="midnightblue" stroke="midnightblue" points="184.741,-69.4154 174.276,-71.0638 183.485,-76.3017 184.741,-69.4154"/>
</g>
<!-- Node13&#45;&gt;Node10 -->
<g id="edge19" class="edge"><title>Node13&#45;&gt;Node10</title>
<path fill="none" stroke="midnightblue" d="M481.434,-112.444C517.993,-103.087 576.669,-88.0706 616.476,-77.8828"/>
<polygon fill="midnightblue" stroke="midnightblue" points="617.596,-81.2091 626.416,-75.339 615.861,-74.4277 617.596,-81.2091"/>
</g>
<!-- Node13&#45;&gt;Node11 -->
<g id="edge18" class="edge"><title>Node13&#45;&gt;Node11</title>
<path fill="none" stroke="midnightblue" d="M468.402,-112.368C514.157,-93.0105 625.12,-46.0645 678.437,-23.5074"/>
<polygon fill="midnightblue" stroke="midnightblue" points="679.847,-26.7113 687.693,-19.5914 677.12,-20.2645 679.847,-26.7113"/>
</g>
<!-- Node14&#45;&gt;Node5 -->
<g id="edge23" class="edge"><title>Node14&#45;&gt;Node5</title>
<path fill="none" stroke="midnightblue" d="M300.837,-224.848C258.642,-216.504 199.464,-202.707 181,-188 130.593,-147.85 78.0479,-104.042 121,-56 145.394,-28.7153 397.174,-15.9898 488.849,-12.2354"/>
<polygon fill="midnightblue" stroke="midnightblue" points="489.109,-15.7279 498.961,-11.8313 488.83,-8.73349 489.109,-15.7279"/>
</g>
<!-- Node14&#45;&gt;Node6 -->
<g id="edge26" class="edge"><title>Node14&#45;&gt;Node6</title>
<path fill="none" stroke="midnightblue" d="M305.26,-224.462C267.969,-215.932 216.328,-202.094 201,-188 171.074,-160.484 159.028,-112.122 154.499,-85.6363"/>
<polygon fill="midnightblue" stroke="midnightblue" points="157.958,-85.1054 152.987,-75.7491 151.039,-86.1632 157.958,-85.1054"/>
</g>
<!-- Node14&#45;&gt;Node10 -->
<g id="edge29" class="edge"><title>Node14&#45;&gt;Node10</title>
<path fill="none" stroke="midnightblue" d="M391.064,-225.377C394.086,-224.9 397.086,-224.437 400,-224 459.862,-215.023 630.127,-233.543 670,-188 695.146,-159.278 679.241,-110.694 667.76,-84.6848"/>
<polygon fill="midnightblue" stroke="midnightblue" points="670.929,-83.2001 663.527,-75.6197 664.586,-86.1615 670.929,-83.2001"/>
</g>
<!-- Node14&#45;&gt;Node12 -->
<g id="edge30" class="edge"><title>Node14&#45;&gt;Node12</title>
<path fill="none" stroke="midnightblue" d="M389.258,-224.444C437.463,-214.908 515.388,-199.495 566.907,-189.304"/>
<polygon fill="midnightblue" stroke="midnightblue" points="567.711,-192.713 576.842,-187.339 566.353,-185.846 567.711,-192.713"/>
</g>
<!-- Node14&#45;&gt;Node13 -->
<g id="edge40" class="edge"><title>Node14&#45;&gt;Node13</title>
<path fill="none" stroke="midnightblue" d="M302.417,-224.463C266.669,-216.471 220.196,-203.461 209,-188 203.787,-180.8 203.326,-174.842 209,-168 231.946,-140.331 330.098,-129.561 393.264,-125.451"/>
<polygon fill="midnightblue" stroke="midnightblue" points="393.702,-128.93 403.469,-124.824 393.273,-121.944 393.702,-128.93"/>
</g>
<!-- Node15 -->
<g id="node15" class="node"><title>Node15</title>
<polygon fill="white" stroke="#bfbfbf" points="218,-168.5 218,-187.5 272,-187.5 272,-168.5 218,-168.5"/>
<text text-anchor="middle" x="245" y="-175.5" font-family="Helvetica,sans-Serif" font-size="10.00">iostream</text>
</g>
<!-- Node14&#45;&gt;Node15 -->
<g id="edge24" class="edge"><title>Node14&#45;&gt;Node15</title>
<path fill="none" stroke="midnightblue" d="M329.773,-224.324C313.649,-215.703 288.7,-202.364 270.036,-192.386"/>
<polygon fill="midnightblue" stroke="midnightblue" points="271.656,-189.283 261.187,-187.655 268.356,-195.456 271.656,-189.283"/>
</g>
<!-- Node16 -->
<g id="node16" class="node"><title>Node16</title>
<polygon fill="white" stroke="#bfbfbf" points="290,-168.5 290,-187.5 336,-187.5 336,-168.5 290,-168.5"/>
<text text-anchor="middle" x="313" y="-175.5" font-family="Helvetica,sans-Serif" font-size="10.00">cstring</text>
</g>
<!-- Node14&#45;&gt;Node16 -->
<g id="edge25" class="edge"><title>Node14&#45;&gt;Node16</title>
<path fill="none" stroke="midnightblue" d="M340.551,-224.083C335.986,-216.613 329.332,-205.724 323.707,-196.52"/>
<polygon fill="midnightblue" stroke="midnightblue" points="326.549,-194.459 318.348,-187.751 320.576,-198.109 326.549,-194.459"/>
</g>
<!-- Node17 -->
<g id="node17" class="node"><title>Node17</title>
<polygon fill="white" stroke="#bfbfbf" points="354,-168.5 354,-187.5 406,-187.5 406,-168.5 354,-168.5"/>
<text text-anchor="middle" x="380" y="-175.5" font-family="Helvetica,sans-Serif" font-size="10.00">memory</text>
</g>
<!-- Node14&#45;&gt;Node17 -->
<g id="edge27" class="edge"><title>Node14&#45;&gt;Node17</title>
<path fill="none" stroke="midnightblue" d="M351.614,-224.083C356.367,-216.534 363.318,-205.495 369.152,-196.23"/>
<polygon fill="midnightblue" stroke="midnightblue" points="372.124,-198.078 374.49,-187.751 366.2,-194.349 372.124,-198.078"/>
</g>
<!-- Node18 -->
<g id="node18" class="node"><title>Node18</title>
<polygon fill="white" stroke="#bfbfbf" points="424.5,-168.5 424.5,-187.5 467.5,-187.5 467.5,-168.5 424.5,-168.5"/>
<text text-anchor="middle" x="446" y="-175.5" font-family="Helvetica,sans-Serif" font-size="10.00">cstdio</text>
</g>
<!-- Node14&#45;&gt;Node18 -->
<g id="edge28" class="edge"><title>Node14&#45;&gt;Node18</title>
<path fill="none" stroke="midnightblue" d="M362.067,-224.324C377.958,-215.743 402.507,-202.486 420.958,-192.522"/>
<polygon fill="midnightblue" stroke="midnightblue" points="422.837,-195.486 429.973,-187.655 419.511,-189.326 422.837,-195.486"/>
</g>
<!-- Node19 -->
<g id="node19" class="node"><title>Node19</title>
<g id="a_node19"><a xlink:href="_interface_info_8hpp.html" target="_top" xlink:title="Declarações das funções e atributos de InterfaceInfo. ">
<polygon fill="white" stroke="black" points="785,-112.5 785,-131.5 875,-131.5 875,-112.5 785,-112.5"/>
<text text-anchor="middle" x="830" y="-119.5" font-family="Helvetica,sans-Serif" font-size="10.00">InterfaceInfo.hpp</text>
</a>
</g>
</g>
<!-- Node14&#45;&gt;Node19 -->
<g id="edge31" class="edge"><title>Node14&#45;&gt;Node19</title>
<path fill="none" stroke="midnightblue" d="M391.057,-225.328C394.081,-224.863 397.083,-224.416 400,-224 534.255,-204.847 573.27,-227.513 703,-188 742.289,-176.033 783.963,-152.299 808.449,-137.061"/>
<polygon fill="midnightblue" stroke="midnightblue" points="810.374,-139.985 816.951,-131.68 806.63,-134.07 810.374,-139.985"/>
</g>
<!-- Node21 -->
<g id="node21" class="node"><title>Node21</title>
<g id="a_node21"><a xlink:href="_field_info_8hpp.html" target="_top" xlink:title="Declarações das funções do FieldInfo para tratamento dos fields do arquivo .class. ">
<polygon fill="white" stroke="black" points="485.5,-168.5 485.5,-187.5 558.5,-187.5 558.5,-168.5 485.5,-168.5"/>
<text text-anchor="middle" x="522" y="-175.5" font-family="Helvetica,sans-Serif" font-size="10.00">FieldInfo.hpp</text>
</a>
</g>
</g>
<!-- Node14&#45;&gt;Node21 -->
<g id="edge36" class="edge"><title>Node14&#45;&gt;Node21</title>
<path fill="none" stroke="midnightblue" d="M373.888,-224.444C403.754,-215.28 451.315,-200.688 484.456,-190.519"/>
<polygon fill="midnightblue" stroke="midnightblue" points="485.709,-193.796 494.243,-187.516 483.656,-187.104 485.709,-193.796"/>
</g>
<!-- Node19&#45;&gt;Node5 -->
<g id="edge33" class="edge"><title>Node19&#45;&gt;Node5</title>
<path fill="none" stroke="midnightblue" d="M815.389,-112.289C791.965,-98.6381 744.242,-72.1049 701,-56 651.532,-37.5764 591.605,-24.2296 555.166,-17.055"/>
<polygon fill="midnightblue" stroke="midnightblue" points="555.576,-13.5696 545.094,-15.1118 554.25,-20.4429 555.576,-13.5696"/>
</g>
<!-- Node19&#45;&gt;Node11 -->
<g id="edge32" class="edge"><title>Node19&#45;&gt;Node11</title>
<path fill="none" stroke="midnightblue" d="M819.941,-112.476C809.399,-103.501 792.401,-88.9104 778,-76 759.419,-59.3428 738.498,-39.8111 724.406,-26.5385"/>
<polygon fill="midnightblue" stroke="midnightblue" points="726.642,-23.8361 716.968,-19.5162 721.837,-28.9261 726.642,-23.8361"/>
</g>
<!-- Node20 -->
<g id="node20" class="node"><title>Node20</title>
<g id="a_node20"><a xlink:href="_byte_reader_8hpp.html" target="_top" xlink:title="Declarações das funções do ByteReader para leitura dos bytes no arquivo .class. ">
<polygon fill="white" stroke="black" points="786.5,-56.5 786.5,-75.5 873.5,-75.5 873.5,-56.5 786.5,-56.5"/>
<text text-anchor="middle" x="830" y="-63.5" font-family="Helvetica,sans-Serif" font-size="10.00">ByteReader.hpp</text>
</a>
</g>
</g>
<!-- Node19&#45;&gt;Node20 -->
<g id="edge34" class="edge"><title>Node19&#45;&gt;Node20</title>
<path fill="none" stroke="midnightblue" d="M830,-112.083C830,-105.006 830,-94.8611 830,-85.9865"/>
<polygon fill="midnightblue" stroke="midnightblue" points="833.5,-85.751 830,-75.7511 826.5,-85.7511 833.5,-85.751"/>
</g>
<!-- Node20&#45;&gt;Node11 -->
<g id="edge35" class="edge"><title>Node20&#45;&gt;Node11</title>
<path fill="none" stroke="midnightblue" d="M810.669,-56.4435C790.68,-47.5961 759.257,-33.6875 736.436,-23.5865"/>
<polygon fill="midnightblue" stroke="midnightblue" points="737.802,-20.3635 727.241,-19.5164 734.968,-26.7645 737.802,-20.3635"/>
</g>
<!-- Node21&#45;&gt;Node5 -->
<g id="edge39" class="edge"><title>Node21&#45;&gt;Node5</title>
<path fill="none" stroke="midnightblue" d="M522,-168.075C522,-141.945 522,-65.2106 522,-29.577"/>
<polygon fill="midnightblue" stroke="midnightblue" points="525.5,-29.5681 522,-19.5681 518.5,-29.5681 525.5,-29.5681"/>
</g>
<!-- Node21&#45;&gt;Node10 -->
<g id="edge37" class="edge"><title>Node21&#45;&gt;Node10</title>
<path fill="none" stroke="midnightblue" d="M532.75,-168.368C555.959,-149.733 611.01,-105.532 640.151,-82.1338"/>
<polygon fill="midnightblue" stroke="midnightblue" points="642.693,-84.5814 648.3,-75.5914 638.311,-79.1231 642.693,-84.5814"/>
</g>
<!-- Node21&#45;&gt;Node13 -->
<g id="edge38" class="edge"><title>Node21&#45;&gt;Node13</title>
<path fill="none" stroke="midnightblue" d="M510.111,-168.324C498.85,-160.107 481.713,-147.602 468.291,-137.807"/>
<polygon fill="midnightblue" stroke="midnightblue" points="470.247,-134.901 460.106,-131.834 466.12,-140.556 470.247,-134.901"/>
</g>
<!-- Node22&#45;&gt;Node2 -->
<g id="edge44" class="edge"><title>Node22&#45;&gt;Node2</title>
<path fill="none" stroke="midnightblue" d="M350.13,-280.324C333.291,-271.664 307.193,-258.242 287.762,-248.249"/>
<polygon fill="midnightblue" stroke="midnightblue" points="289.322,-245.116 278.828,-243.655 286.12,-251.341 289.322,-245.116"/>
</g>
<!-- Node22&#45;&gt;Node4 -->
<g id="edge46" class="edge"><title>Node22&#45;&gt;Node4</title>
<path fill="none" stroke="midnightblue" d="M372.131,-299.751C373.657,-306.858 374.104,-317.136 373.472,-326.101"/>
<polygon fill="midnightblue" stroke="midnightblue" points="369.993,-325.713 372.166,-336.083 376.934,-326.622 369.993,-325.713"/>
</g>
<!-- Node22&#45;&gt;Node8 -->
<g id="edge43" class="edge"><title>Node22&#45;&gt;Node8</title>
<path fill="none" stroke="midnightblue" d="M376.64,-280.324C385.51,-272.341 398.875,-260.313 409.608,-250.653"/>
<polygon fill="midnightblue" stroke="midnightblue" points="412.093,-253.125 417.185,-243.834 407.41,-247.922 412.093,-253.125"/>
</g>
<!-- Node22&#45;&gt;Node14 -->
<g id="edge45" class="edge"><title>Node22&#45;&gt;Node14</title>
<path fill="none" stroke="midnightblue" d="M363.532,-280.083C360.688,-272.77 356.571,-262.181 353.04,-253.103"/>
<polygon fill="midnightblue" stroke="midnightblue" points="356.29,-251.803 349.403,-243.751 349.766,-254.34 356.29,-251.803"/>
</g>
</g>
</svg>
