<?xml version="1.0" encoding="UTF-8" standalone="no"?>
<!DOCTYPE svg PUBLIC "-//W3C//DTD SVG 1.1//EN"
 "http://www.w3.org/Graphics/SVG/1.1/DTD/svg11.dtd">
<!-- Generated by graphviz version 2.38.0 (20140413.2041)
 -->
<!-- Title: InstructionImpl.cpp Pages: 1 -->
<svg width="1150pt" height="476pt"
 viewBox="0.00 0.00 1149.51 476.00" xmlns="http://www.w3.org/2000/svg" xmlns:xlink="http://www.w3.org/1999/xlink">
<g id="graph0" class="graph" transform="scale(1 1) rotate(0) translate(4 472)">
<title>InstructionImpl.cpp</title>
<polygon fill="white" stroke="none" points="-4,4 -4,-472 1145.51,-472 1145.51,4 -4,4"/>
<!-- Node1 -->
<g id="node1" class="node"><title>Node1</title>
<polygon fill="#bfbfbf" stroke="black" points="752.514,-448.5 752.514,-467.5 852.514,-467.5 852.514,-448.5 752.514,-448.5"/>
<text text-anchor="middle" x="802.514" y="-455.5" font-family="Helvetica,sans-Serif" font-size="10.00">InstructionImpl.cpp</text>
</g>
<!-- Node2 -->
<g id="node2" class="node"><title>Node2</title>
<g id="a_node2"><a xlink:href="_frame_8hpp.html" target="_top" xlink:title="Declarações das funções e da estrutura do Frame, utilizado para salvar resultados parciais...">
<polygon fill="white" stroke="black" points="538.014,-336.5 538.014,-355.5 601.014,-355.5 601.014,-336.5 538.014,-336.5"/>
<text text-anchor="middle" x="569.514" y="-343.5" font-family="Helvetica,sans-Serif" font-size="10.00">Frame.hpp</text>
</a>
</g>
</g>
<!-- Node1&#45;&gt;Node2 -->
<g id="edge1" class="edge"><title>Node1&#45;&gt;Node2</title>
<path fill="none" stroke="midnightblue" d="M784.23,-448.368C743.482,-429.131 645.022,-382.648 596.905,-359.931"/>
<polygon fill="midnightblue" stroke="midnightblue" points="598.249,-356.696 587.712,-355.591 595.26,-363.026 598.249,-356.696"/>
</g>
<!-- Node4 -->
<g id="node4" class="node"><title>Node4</title>
<polygon fill="white" stroke="#bfbfbf" points="408.014,-224.5 408.014,-243.5 449.014,-243.5 449.014,-224.5 408.014,-224.5"/>
<text text-anchor="middle" x="428.514" y="-231.5" font-family="Helvetica,sans-Serif" font-size="10.00">string</text>
</g>
<!-- Node1&#45;&gt;Node4 -->
<g id="edge63" class="edge"><title>Node1&#45;&gt;Node4</title>
<path fill="none" stroke="midnightblue" d="M752.323,-449.884C631.171,-431.577 328.373,-378.698 269.514,-300 235.115,-254.008 342.458,-240.428 397.748,-236.523"/>
<polygon fill="midnightblue" stroke="midnightblue" points="397.982,-240.015 407.737,-235.882 397.533,-233.03 397.982,-240.015"/>
</g>
<!-- Node14 -->
<g id="node14" class="node"><title>Node14</title>
<polygon fill="white" stroke="#bfbfbf" points="972.514,-168.5 972.514,-187.5 1026.51,-187.5 1026.51,-168.5 972.514,-168.5"/>
<text text-anchor="middle" x="999.514" y="-175.5" font-family="Helvetica,sans-Serif" font-size="10.00">iostream</text>
</g>
<!-- Node1&#45;&gt;Node14 -->
<g id="edge61" class="edge"><title>Node1&#45;&gt;Node14</title>
<path fill="none" stroke="midnightblue" d="M852.735,-450.916C911.101,-440.717 999.514,-414.18 999.514,-347 999.514,-347 999.514,-347 999.514,-289 999.514,-256.948 999.514,-219.643 999.514,-197.749"/>
<polygon fill="midnightblue" stroke="midnightblue" points="1003.01,-197.558 999.514,-187.558 996.014,-197.558 1003.01,-197.558"/>
</g>
<!-- Node24 -->
<g id="node24" class="node"><title>Node24</title>
<g id="a_node24"><a xlink:href="_cp_attribute_interface_8hpp.html" target="_top" xlink:title="Declarações da interface entre ConstantPool e AttributeInfo para traduzir as strings UTF8...">
<polygon fill="white" stroke="black" points="61.0135,-280.5 61.0135,-299.5 184.014,-299.5 184.014,-280.5 61.0135,-280.5"/>
<text text-anchor="middle" x="122.514" y="-287.5" font-family="Helvetica,sans-Serif" font-size="10.00">CpAttributeInterface.hpp</text>
</a>
</g>
</g>
<!-- Node1&#45;&gt;Node24 -->
<g id="edge48" class="edge"><title>Node1&#45;&gt;Node24</title>
<path fill="none" stroke="midnightblue" d="M752.206,-455.836C615.701,-452.316 245.407,-440.248 198.514,-412 159.682,-388.609 137.562,-336.955 128.083,-309.308"/>
<polygon fill="midnightblue" stroke="midnightblue" points="131.378,-308.124 124.966,-299.69 124.719,-310.282 131.378,-308.124"/>
</g>
<!-- Node25 -->
<g id="node25" class="node"><title>Node25</title>
<g id="a_node25"><a xlink:href="_g_l_o_b_a_l__file_8hpp.html" target="_top" xlink:title="Armazenas classes estáticas para serem usadas por todo o código. ">
<polygon fill="white" stroke="black" points="689.514,-336.5 689.514,-355.5 781.514,-355.5 781.514,-336.5 689.514,-336.5"/>
<text text-anchor="middle" x="735.514" y="-343.5" font-family="Helvetica,sans-Serif" font-size="10.00">GLOBAL_file.hpp</text>
</a>
</g>
</g>
<!-- Node1&#45;&gt;Node25 -->
<g id="edge52" class="edge"><title>Node1&#45;&gt;Node25</title>
<path fill="none" stroke="midnightblue" d="M797.256,-448.368C786.248,-430.296 760.594,-388.176 746.055,-364.307"/>
<polygon fill="midnightblue" stroke="midnightblue" points="748.938,-362.311 740.746,-355.591 742.959,-365.953 748.938,-362.311"/>
</g>
<!-- Node26 -->
<g id="node26" class="node"><title>Node26</title>
<g id="a_node26"><a xlink:href="_interpreter_8hpp.html" target="_top" xlink:title="Declarações das funções e atributos do Interpretador para interpretar o que foi lido do ...">
<polygon fill="white" stroke="black" points="807.514,-392.5 807.514,-411.5 887.514,-411.5 887.514,-392.5 807.514,-392.5"/>
<text text-anchor="middle" x="847.514" y="-399.5" font-family="Helvetica,sans-Serif" font-size="10.00">Interpreter.hpp</text>
</a>
</g>
</g>
<!-- Node1&#45;&gt;Node26 -->
<g id="edge54" class="edge"><title>Node1&#45;&gt;Node26</title>
<path fill="none" stroke="midnightblue" d="M809.944,-448.083C816.366,-440.377 825.819,-429.033 833.636,-419.653"/>
<polygon fill="midnightblue" stroke="midnightblue" points="836.508,-421.674 840.221,-411.751 831.13,-417.193 836.508,-421.674"/>
</g>
<!-- Node27 -->
<g id="node27" class="node"><title>Node27</title>
<polygon fill="white" stroke="#bfbfbf" points="1027.51,-392.5 1027.51,-411.5 1079.51,-411.5 1079.51,-392.5 1027.51,-392.5"/>
<text text-anchor="middle" x="1053.51" y="-399.5" font-family="Helvetica,sans-Serif" font-size="10.00">sstream</text>
</g>
<!-- Node1&#45;&gt;Node27 -->
<g id="edge62" class="edge"><title>Node1&#45;&gt;Node27</title>
<path fill="none" stroke="midnightblue" d="M843.387,-448.424C885.915,-439.469 954.424,-424.948 1013.51,-412 1014.77,-411.726 1016.04,-411.446 1017.32,-411.162"/>
<polygon fill="midnightblue" stroke="midnightblue" points="1018.27,-414.537 1027.27,-408.948 1016.75,-407.704 1018.27,-414.537"/>
</g>
<!-- Node28 -->
<g id="node28" class="node"><title>Node28</title>
<polygon fill="white" stroke="#bfbfbf" points="1097.51,-392.5 1097.51,-411.5 1141.51,-411.5 1141.51,-392.5 1097.51,-392.5"/>
<text text-anchor="middle" x="1119.51" y="-399.5" font-family="Helvetica,sans-Serif" font-size="10.00">cmath</text>
</g>
<!-- Node1&#45;&gt;Node28 -->
<g id="edge64" class="edge"><title>Node1&#45;&gt;Node28</title>
<path fill="none" stroke="midnightblue" d="M852.731,-451.054C908.054,-444.069 999.778,-431.207 1087.41,-412.014"/>
<polygon fill="midnightblue" stroke="midnightblue" points="1088.25,-415.415 1097.25,-409.829 1086.73,-408.581 1088.25,-415.415"/>
</g>
<!-- Node3 -->
<g id="node3" class="node"><title>Node3</title>
<polygon fill="white" stroke="#bfbfbf" points="525.514,-0.5 525.514,-19.5 571.514,-19.5 571.514,-0.5 525.514,-0.5"/>
<text text-anchor="middle" x="548.514" y="-7.5" font-family="Helvetica,sans-Serif" font-size="10.00">cstdint</text>
</g>
<!-- Node2&#45;&gt;Node3 -->
<g id="edge2" class="edge"><title>Node2&#45;&gt;Node3</title>
<path fill="none" stroke="midnightblue" d="M537.918,-344.301C431.274,-341.667 89.1719,-330.862 51.5135,-300 28.2345,-280.922 32.5135,-265.098 32.5135,-235 32.5135,-235 32.5135,-235 32.5135,-121 32.5135,-21.9508 400.792,-11.7498 515.092,-10.969"/>
<polygon fill="midnightblue" stroke="midnightblue" points="515.356,-14.4679 525.34,-10.9202 515.323,-7.46795 515.356,-14.4679"/>
</g>
<!-- Node2&#45;&gt;Node4 -->
<g id="edge3" class="edge"><title>Node2&#45;&gt;Node4</title>
<path fill="none" stroke="midnightblue" d="M537.916,-340.886C494.921,-334.565 421.492,-320.953 405.514,-300 394.677,-285.789 404.302,-266.046 414.209,-252.057"/>
<polygon fill="midnightblue" stroke="midnightblue" points="417.228,-253.873 420.548,-243.811 411.678,-249.607 417.228,-253.873"/>
</g>
<!-- Node5 -->
<g id="node5" class="node"><title>Node5</title>
<polygon fill="white" stroke="#bfbfbf" points="123.514,-56.5 123.514,-75.5 167.514,-75.5 167.514,-56.5 123.514,-56.5"/>
<text text-anchor="middle" x="145.514" y="-63.5" font-family="Helvetica,sans-Serif" font-size="10.00">vector</text>
</g>
<!-- Node2&#45;&gt;Node5 -->
<g id="edge4" class="edge"><title>Node2&#45;&gt;Node5</title>
<path fill="none" stroke="midnightblue" d="M537.89,-344.854C426.026,-344.012 53.8417,-338.331 18.5135,-300 -45.9908,-230.013 76.3283,-121.241 125.942,-81.8641"/>
<polygon fill="midnightblue" stroke="midnightblue" points="128.308,-84.4578 134.037,-75.5454 124,-78.94 128.308,-84.4578"/>
</g>
<!-- Node6 -->
<g id="node6" class="node"><title>Node6</title>
<polygon fill="white" stroke="#bfbfbf" points="279.014,-280.5 279.014,-299.5 320.014,-299.5 320.014,-280.5 279.014,-280.5"/>
<text text-anchor="middle" x="299.514" y="-287.5" font-family="Helvetica,sans-Serif" font-size="10.00">stack</text>
</g>
<!-- Node2&#45;&gt;Node6 -->
<g id="edge5" class="edge"><title>Node2&#45;&gt;Node6</title>
<path fill="none" stroke="midnightblue" d="M537.835,-339.582C492.574,-331.695 406.868,-316.214 334.514,-300 333.059,-299.674 331.574,-299.331 330.075,-298.977"/>
<polygon fill="midnightblue" stroke="midnightblue" points="330.737,-295.536 320.19,-296.545 329.064,-302.333 330.737,-295.536"/>
</g>
<!-- Node7 -->
<g id="node7" class="node"><title>Node7</title>
<polygon fill="white" stroke="#bfbfbf" points="792.014,-224.5 792.014,-243.5 827.014,-243.5 827.014,-224.5 792.014,-224.5"/>
<text text-anchor="middle" x="809.514" y="-231.5" font-family="Helvetica,sans-Serif" font-size="10.00">map</text>
</g>
<!-- Node2&#45;&gt;Node7 -->
<g id="edge6" class="edge"><title>Node2&#45;&gt;Node7</title>
<path fill="none" stroke="midnightblue" d="M601.228,-342.454C655.321,-337.488 762.234,-324.761 789.514,-300 802.472,-288.238 807.129,-268.307 808.754,-253.609"/>
<polygon fill="midnightblue" stroke="midnightblue" points="812.246,-253.842 809.493,-243.611 805.265,-253.326 812.246,-253.842"/>
</g>
<!-- Node8 -->
<g id="node8" class="node"><title>Node8</title>
<polygon fill="white" stroke="#bfbfbf" points="415.014,-280.5 415.014,-299.5 476.014,-299.5 476.014,-280.5 415.014,-280.5"/>
<text text-anchor="middle" x="445.514" y="-287.5" font-family="Helvetica,sans-Serif" font-size="10.00">Stack.hpp</text>
</g>
<!-- Node2&#45;&gt;Node8 -->
<g id="edge7" class="edge"><title>Node2&#45;&gt;Node8</title>
<path fill="none" stroke="midnightblue" d="M549.865,-336.444C529.549,-327.596 497.611,-313.687 474.416,-303.586"/>
<polygon fill="midnightblue" stroke="midnightblue" points="475.636,-300.3 465.07,-299.516 472.841,-306.718 475.636,-300.3"/>
</g>
<!-- Node9 -->
<g id="node9" class="node"><title>Node9</title>
<g id="a_node9"><a xlink:href="_cp_info_8hpp.html" target="_top" xlink:title="Declarações das funções e dos atributos do Pool de constantes. ">
<polygon fill="white" stroke="black" points="516.014,-56.5 516.014,-75.5 581.014,-75.5 581.014,-56.5 516.014,-56.5"/>
<text text-anchor="middle" x="548.514" y="-63.5" font-family="Helvetica,sans-Serif" font-size="10.00">CpInfo.hpp</text>
</a>
</g>
</g>
<!-- Node2&#45;&gt;Node9 -->
<g id="edge8" class="edge"><title>Node2&#45;&gt;Node9</title>
<path fill="none" stroke="midnightblue" d="M577.336,-336.473C584.601,-327.952 594.962,-314.12 599.514,-300 607.155,-276.296 601.069,-268.901 601.514,-244 601.672,-235.113 605.13,-232.12 601.514,-224 591.783,-202.151 572.399,-209.297 561.514,-188 544.662,-155.031 544.79,-110.498 546.548,-85.6827"/>
<polygon fill="midnightblue" stroke="midnightblue" points="550.054,-85.7692 547.444,-75.5007 543.081,-85.1551 550.054,-85.7692"/>
</g>
<!-- Node11 -->
<g id="node11" class="node"><title>Node11</title>
<g id="a_node11"><a xlink:href="_method_info_8hpp.html" target="_top" xlink:title="Declarações das funções do MethodInfo estrutura responsável por guardas as informaçoes dos metodos do...">
<polygon fill="white" stroke="black" points="392.514,-168.5 392.514,-187.5 476.514,-187.5 476.514,-168.5 392.514,-168.5"/>
<text text-anchor="middle" x="434.514" y="-175.5" font-family="Helvetica,sans-Serif" font-size="10.00">MethodInfo.hpp</text>
</a>
</g>
</g>
<!-- Node2&#45;&gt;Node11 -->
<g id="edge11" class="edge"><title>Node2&#45;&gt;Node11</title>
<path fill="none" stroke="midnightblue" d="M537.899,-341.32C493.062,-335.377 414.537,-322.05 397.514,-300 391.809,-292.61 384.029,-264.141 398.514,-224 402.487,-212.989 410.348,-202.643 417.713,-194.655"/>
<polygon fill="midnightblue" stroke="midnightblue" points="420.224,-197.093 424.751,-187.514 415.238,-192.18 420.224,-197.093"/>
</g>
<!-- Node12 -->
<g id="node12" class="node"><title>Node12</title>
<g id="a_node12"><a xlink:href="_attribute_info_8hpp.html" target="_top" xlink:title="Declarações das funções do AttributeInfo para tratamento dos atributos do arquivo ...">
<polygon fill="white" stroke="black" points="393.014,-112.5 393.014,-131.5 482.014,-131.5 482.014,-112.5 393.014,-112.5"/>
<text text-anchor="middle" x="437.514" y="-119.5" font-family="Helvetica,sans-Serif" font-size="10.00">AttributeInfo.hpp</text>
</a>
</g>
</g>
<!-- Node2&#45;&gt;Node12 -->
<g id="edge19" class="edge"><title>Node2&#45;&gt;Node12</title>
<path fill="none" stroke="midnightblue" d="M537.923,-345.212C468.064,-344.938 303.924,-339.957 269.514,-300 214.403,-236.007 346.976,-164.355 408.365,-135.771"/>
<polygon fill="midnightblue" stroke="midnightblue" points="409.929,-138.904 417.566,-131.561 407.017,-132.539 409.929,-138.904"/>
</g>
<!-- Node13 -->
<g id="node13" class="node"><title>Node13</title>
<g id="a_node13"><a xlink:href="_class_loader_8hpp.html" target="_top" xlink:title="Declarações das funções do ClassLoader para salvar todos os bytes de .class corretamente. ">
<polygon fill="white" stroke="black" points="676.514,-224.5 676.514,-243.5 766.514,-243.5 766.514,-224.5 676.514,-224.5"/>
<text text-anchor="middle" x="721.514" y="-231.5" font-family="Helvetica,sans-Serif" font-size="10.00">ClassLoader.hpp</text>
</a>
</g>
</g>
<!-- Node2&#45;&gt;Node13 -->
<g id="edge20" class="edge"><title>Node2&#45;&gt;Node13</title>
<path fill="none" stroke="midnightblue" d="M589.958,-336.384C608.03,-328.295 634.68,-315.188 655.514,-300 675.1,-285.721 694.501,-265.725 707.145,-251.693"/>
<polygon fill="midnightblue" stroke="midnightblue" points="710.092,-253.644 714.086,-243.832 704.844,-249.011 710.092,-253.644"/>
</g>
<!-- Node21 -->
<g id="node21" class="node"><title>Node21</title>
<g id="a_node21"><a xlink:href="_instruction_8hpp.html" target="_top" xlink:title="Declarações das instruçoes referentes ao interpretador da JVM. ">
<polygon fill="white" stroke="black" points="494.014,-280.5 494.014,-299.5 575.014,-299.5 575.014,-280.5 494.014,-280.5"/>
<text text-anchor="middle" x="534.514" y="-287.5" font-family="Helvetica,sans-Serif" font-size="10.00">Instruction.hpp</text>
</a>
</g>
</g>
<!-- Node2&#45;&gt;Node21 -->
<g id="edge39" class="edge"><title>Node2&#45;&gt;Node21</title>
<path fill="none" stroke="midnightblue" d="M563.734,-336.083C558.841,-328.534 551.686,-317.495 545.681,-308.23"/>
<polygon fill="midnightblue" stroke="midnightblue" points="548.562,-306.239 540.186,-299.751 542.687,-310.046 548.562,-306.239"/>
</g>
<!-- Node23 -->
<g id="node23" class="node"><title>Node23</title>
<g id="a_node23"><a xlink:href="_instance_8hpp.html" target="_top" xlink:title="Declaração da struct Instance. ">
<polygon fill="white" stroke="black" points="708.014,-280.5 708.014,-299.5 781.014,-299.5 781.014,-280.5 708.014,-280.5"/>
<text text-anchor="middle" x="744.514" y="-287.5" font-family="Helvetica,sans-Serif" font-size="10.00">Instance.hpp</text>
</a>
</g>
</g>
<!-- Node2&#45;&gt;Node23 -->
<g id="edge43" class="edge"><title>Node2&#45;&gt;Node23</title>
<path fill="none" stroke="midnightblue" d="M592.154,-336.444C619.96,-327.241 667.351,-312.562 701.983,-302.388"/>
<polygon fill="midnightblue" stroke="midnightblue" points="703.213,-305.675 711.834,-299.516 701.254,-298.955 703.213,-305.675"/>
</g>
<!-- Node9&#45;&gt;Node3 -->
<g id="edge9" class="edge"><title>Node9&#45;&gt;Node3</title>
<path fill="none" stroke="midnightblue" d="M548.514,-56.083C548.514,-49.0059 548.514,-38.8611 548.514,-29.9865"/>
<polygon fill="midnightblue" stroke="midnightblue" points="552.014,-29.751 548.514,-19.7511 545.014,-29.7511 552.014,-29.751"/>
</g>
<!-- Node10 -->
<g id="node10" class="node"><title>Node10</title>
<polygon fill="white" stroke="#bfbfbf" points="675.514,-0.5 675.514,-19.5 725.514,-19.5 725.514,-0.5 675.514,-0.5"/>
<text text-anchor="middle" x="700.514" y="-7.5" font-family="Helvetica,sans-Serif" font-size="10.00">fstream</text>
</g>
<!-- Node9&#45;&gt;Node10 -->
<g id="edge10" class="edge"><title>Node9&#45;&gt;Node10</title>
<path fill="none" stroke="midnightblue" d="M572.598,-56.4435C598.058,-47.3986 638.407,-33.064 666.973,-22.9158"/>
<polygon fill="midnightblue" stroke="midnightblue" points="668.29,-26.1622 676.541,-19.5164 665.947,-19.5661 668.29,-26.1622"/>
</g>
<!-- Node11&#45;&gt;Node3 -->
<g id="edge12" class="edge"><title>Node11&#45;&gt;Node3</title>
<path fill="none" stroke="midnightblue" d="M419.235,-168.425C400.619,-156.764 372.883,-134.739 383.514,-112 408.165,-59.268 475.063,-31.6438 515.707,-19.3001"/>
<polygon fill="midnightblue" stroke="midnightblue" points="516.8,-22.6275 525.433,-16.4852 514.854,-15.9034 516.8,-22.6275"/>
</g>
<!-- Node11&#45;&gt;Node9 -->
<g id="edge18" class="edge"><title>Node11&#45;&gt;Node9</title>
<path fill="none" stroke="midnightblue" d="M446.568,-168.231C458.242,-159.531 476.224,-145.57 490.514,-132 506.707,-116.622 523.515,-97.3595 534.842,-83.8094"/>
<polygon fill="midnightblue" stroke="midnightblue" points="537.764,-85.7677 541.433,-75.8282 532.367,-81.3106 537.764,-85.7677"/>
</g>
<!-- Node11&#45;&gt;Node12 -->
<g id="edge13" class="edge"><title>Node11&#45;&gt;Node12</title>
<path fill="none" stroke="midnightblue" d="M435.009,-168.083C435.402,-161.006 435.966,-150.861 436.459,-141.986"/>
<polygon fill="midnightblue" stroke="midnightblue" points="439.967,-141.93 437.027,-131.751 432.978,-141.542 439.967,-141.93"/>
</g>
<!-- Node12&#45;&gt;Node3 -->
<g id="edge14" class="edge"><title>Node12&#45;&gt;Node3</title>
<path fill="none" stroke="midnightblue" d="M439.606,-112.445C443.265,-99.0084 451.958,-72.7631 467.514,-56 480.869,-41.6083 499.9,-30.7111 516.16,-23.2474"/>
<polygon fill="midnightblue" stroke="midnightblue" points="517.576,-26.4482 525.349,-19.2492 514.783,-20.0295 517.576,-26.4482"/>
</g>
<!-- Node12&#45;&gt;Node5 -->
<g id="edge15" class="edge"><title>Node12&#45;&gt;Node5</title>
<path fill="none" stroke="midnightblue" d="M392.847,-112.74C333.51,-101.766 230.107,-82.6441 177.796,-72.97"/>
<polygon fill="midnightblue" stroke="midnightblue" points="178.212,-69.4877 167.742,-71.1108 176.939,-76.371 178.212,-69.4877"/>
</g>
<!-- Node12&#45;&gt;Node9 -->
<g id="edge17" class="edge"><title>Node12&#45;&gt;Node9</title>
<path fill="none" stroke="midnightblue" d="M455.348,-112.324C473.229,-103.625 500.989,-90.1202 521.559,-80.113"/>
<polygon fill="midnightblue" stroke="midnightblue" points="523.263,-83.1765 530.724,-75.6545 520.2,-76.8819 523.263,-83.1765"/>
</g>
<!-- Node12&#45;&gt;Node10 -->
<g id="edge16" class="edge"><title>Node12&#45;&gt;Node10</title>
<path fill="none" stroke="midnightblue" d="M444.117,-112.32C455.332,-98.2172 479.53,-70.4532 506.514,-56 557.573,-28.651 624.886,-17.8256 665.313,-13.6096"/>
<polygon fill="midnightblue" stroke="midnightblue" points="665.858,-17.0734 675.476,-12.6306 665.187,-10.1057 665.858,-17.0734"/>
</g>
<!-- Node13&#45;&gt;Node3 -->
<g id="edge21" class="edge"><title>Node13&#45;&gt;Node3</title>
<path fill="none" stroke="midnightblue" d="M717.241,-224.143C703.819,-196.903 660.243,-112.781 607.514,-56 596.756,-44.4157 582.754,-33.5969 571.09,-25.4717"/>
<polygon fill="midnightblue" stroke="midnightblue" points="572.965,-22.5142 562.719,-19.8154 569.046,-28.3142 572.965,-22.5142"/>
</g>
<!-- Node13&#45;&gt;Node5 -->
<g id="edge24" class="edge"><title>Node13&#45;&gt;Node5</title>
<path fill="none" stroke="midnightblue" d="M676.408,-228.898C597.389,-221.395 437.218,-204.692 383.514,-188 298.714,-161.643 207.548,-106.971 167.034,-81.1241"/>
<polygon fill="midnightblue" stroke="midnightblue" points="168.817,-78.1096 158.515,-75.6357 165.026,-83.994 168.817,-78.1096"/>
</g>
<!-- Node13&#45;&gt;Node9 -->
<g id="edge27" class="edge"><title>Node13&#45;&gt;Node9</title>
<path fill="none" stroke="midnightblue" d="M712.212,-224.075C684.273,-197.267 600.82,-117.19 565.069,-82.8851"/>
<polygon fill="midnightblue" stroke="midnightblue" points="567.082,-79.9663 557.443,-75.5681 562.235,-85.0172 567.082,-79.9663"/>
</g>
<!-- Node13&#45;&gt;Node11 -->
<g id="edge28" class="edge"><title>Node13&#45;&gt;Node11</title>
<path fill="none" stroke="midnightblue" d="M676.354,-224.503C624.894,-214.821 540.924,-199.022 486.704,-188.82"/>
<polygon fill="midnightblue" stroke="midnightblue" points="487.083,-185.33 476.608,-186.92 485.788,-192.209 487.083,-185.33"/>
</g>
<!-- Node13&#45;&gt;Node12 -->
<g id="edge38" class="edge"><title>Node13&#45;&gt;Node12</title>
<path fill="none" stroke="midnightblue" d="M682.622,-224.47C649.752,-216.695 601.733,-203.994 561.514,-188 524.826,-173.411 484.772,-151.166 460.395,-136.854"/>
<polygon fill="midnightblue" stroke="midnightblue" points="461.946,-133.705 451.56,-131.611 458.373,-139.725 461.946,-133.705"/>
</g>
<!-- Node13&#45;&gt;Node14 -->
<g id="edge22" class="edge"><title>Node13&#45;&gt;Node14</title>
<path fill="none" stroke="midnightblue" d="M766.727,-225.443C813.371,-217.458 888.445,-204.079 962.467,-188.124"/>
<polygon fill="midnightblue" stroke="midnightblue" points="963.4,-191.503 972.428,-185.96 961.913,-184.663 963.4,-191.503"/>
</g>
<!-- Node15 -->
<g id="node15" class="node"><title>Node15</title>
<polygon fill="white" stroke="#bfbfbf" points="908.514,-168.5 908.514,-187.5 954.514,-187.5 954.514,-168.5 908.514,-168.5"/>
<text text-anchor="middle" x="931.514" y="-175.5" font-family="Helvetica,sans-Serif" font-size="10.00">cstring</text>
</g>
<!-- Node13&#45;&gt;Node15 -->
<g id="edge23" class="edge"><title>Node13&#45;&gt;Node15</title>
<path fill="none" stroke="midnightblue" d="M754.789,-224.444C794.176,-214.315 859.357,-197.555 898.59,-187.466"/>
<polygon fill="midnightblue" stroke="midnightblue" points="899.636,-190.811 908.449,-184.931 897.893,-184.032 899.636,-190.811"/>
</g>
<!-- Node16 -->
<g id="node16" class="node"><title>Node16</title>
<polygon fill="white" stroke="#bfbfbf" points="738.514,-168.5 738.514,-187.5 790.514,-187.5 790.514,-168.5 738.514,-168.5"/>
<text text-anchor="middle" x="764.514" y="-175.5" font-family="Helvetica,sans-Serif" font-size="10.00">memory</text>
</g>
<!-- Node13&#45;&gt;Node16 -->
<g id="edge25" class="edge"><title>Node13&#45;&gt;Node16</title>
<path fill="none" stroke="midnightblue" d="M728.614,-224.083C734.751,-216.377 743.783,-205.033 751.253,-195.653"/>
<polygon fill="midnightblue" stroke="midnightblue" points="754.054,-197.754 757.545,-187.751 748.578,-193.394 754.054,-197.754"/>
</g>
<!-- Node17 -->
<g id="node17" class="node"><title>Node17</title>
<polygon fill="white" stroke="#bfbfbf" points="809.014,-168.5 809.014,-187.5 852.014,-187.5 852.014,-168.5 809.014,-168.5"/>
<text text-anchor="middle" x="830.514" y="-175.5" font-family="Helvetica,sans-Serif" font-size="10.00">cstdio</text>
</g>
<!-- Node13&#45;&gt;Node17 -->
<g id="edge26" class="edge"><title>Node13&#45;&gt;Node17</title>
<path fill="none" stroke="midnightblue" d="M739.026,-224.324C756.586,-215.625 783.845,-202.12 804.045,-192.113"/>
<polygon fill="midnightblue" stroke="midnightblue" points="805.637,-195.23 813.044,-187.655 802.53,-188.958 805.637,-195.23"/>
</g>
<!-- Node18 -->
<g id="node18" class="node"><title>Node18</title>
<g id="a_node18"><a xlink:href="_interface_info_8hpp.html" target="_top" xlink:title="Declarações das funções e atributos de InterfaceInfo. ">
<polygon fill="white" stroke="black" points="777.514,-112.5 777.514,-131.5 867.514,-131.5 867.514,-112.5 777.514,-112.5"/>
<text text-anchor="middle" x="822.514" y="-119.5" font-family="Helvetica,sans-Serif" font-size="10.00">InterfaceInfo.hpp</text>
</a>
</g>
</g>
<!-- Node13&#45;&gt;Node18 -->
<g id="edge29" class="edge"><title>Node13&#45;&gt;Node18</title>
<path fill="none" stroke="midnightblue" d="M766.081,-224.473C802.297,-216.531 849.174,-203.59 860.514,-188 872.256,-171.856 856.465,-151.841 841.812,-138.32"/>
<polygon fill="midnightblue" stroke="midnightblue" points="843.825,-135.433 833.971,-131.541 839.247,-140.729 843.825,-135.433"/>
</g>
<!-- Node20 -->
<g id="node20" class="node"><title>Node20</title>
<g id="a_node20"><a xlink:href="_field_info_8hpp.html" target="_top" xlink:title="Declarações das funções do FieldInfo para tratamento dos fields do arquivo .class. ">
<polygon fill="white" stroke="black" points="571.014,-168.5 571.014,-187.5 644.014,-187.5 644.014,-168.5 571.014,-168.5"/>
<text text-anchor="middle" x="607.514" y="-175.5" font-family="Helvetica,sans-Serif" font-size="10.00">FieldInfo.hpp</text>
</a>
</g>
</g>
<!-- Node13&#45;&gt;Node20 -->
<g id="edge34" class="edge"><title>Node13&#45;&gt;Node20</title>
<path fill="none" stroke="midnightblue" d="M703.45,-224.444C684.939,-215.675 655.933,-201.935 634.658,-191.858"/>
<polygon fill="midnightblue" stroke="midnightblue" points="636.028,-188.634 625.493,-187.516 633.032,-194.96 636.028,-188.634"/>
</g>
<!-- Node18&#45;&gt;Node3 -->
<g id="edge31" class="edge"><title>Node18&#45;&gt;Node3</title>
<path fill="none" stroke="midnightblue" d="M812.046,-112.312C794.839,-98.4492 759.032,-71.3314 724.514,-56 677.03,-34.9102 617.777,-22.3287 581.564,-16.0385"/>
<polygon fill="midnightblue" stroke="midnightblue" points="581.989,-12.5609 571.547,-14.3575 580.83,-19.4644 581.989,-12.5609"/>
</g>
<!-- Node18&#45;&gt;Node10 -->
<g id="edge30" class="edge"><title>Node18&#45;&gt;Node10</title>
<path fill="none" stroke="midnightblue" d="M815.252,-112.071C804.444,-99.039 783.175,-74.3646 762.514,-56 749.874,-44.766 734.497,-33.5912 722.219,-25.1876"/>
<polygon fill="midnightblue" stroke="midnightblue" points="724.16,-22.2754 713.909,-19.5971 720.253,-28.0833 724.16,-22.2754"/>
</g>
<!-- Node19 -->
<g id="node19" class="node"><title>Node19</title>
<g id="a_node19"><a xlink:href="_byte_reader_8hpp.html" target="_top" xlink:title="Declarações das funções do ByteReader para leitura dos bytes no arquivo .class. ">
<polygon fill="white" stroke="black" points="815.014,-56.5 815.014,-75.5 902.014,-75.5 902.014,-56.5 815.014,-56.5"/>
<text text-anchor="middle" x="858.514" y="-63.5" font-family="Helvetica,sans-Serif" font-size="10.00">ByteReader.hpp</text>
</a>
</g>
</g>
<!-- Node18&#45;&gt;Node19 -->
<g id="edge32" class="edge"><title>Node18&#45;&gt;Node19</title>
<path fill="none" stroke="midnightblue" d="M828.458,-112.083C833.491,-104.534 840.85,-93.4948 847.027,-84.2298"/>
<polygon fill="midnightblue" stroke="midnightblue" points="850.045,-86.0131 852.679,-75.7511 844.22,-82.1301 850.045,-86.0131"/>
</g>
<!-- Node19&#45;&gt;Node10 -->
<g id="edge33" class="edge"><title>Node19&#45;&gt;Node10</title>
<path fill="none" stroke="midnightblue" d="M833.478,-56.4435C806.898,-47.3591 764.705,-32.9388 734.99,-22.7831"/>
<polygon fill="midnightblue" stroke="midnightblue" points="736.027,-19.4386 725.432,-19.5164 733.763,-26.0625 736.027,-19.4386"/>
</g>
<!-- Node20&#45;&gt;Node3 -->
<g id="edge37" class="edge"><title>Node20&#45;&gt;Node3</title>
<path fill="none" stroke="midnightblue" d="M607.905,-168.293C608.484,-147.686 607.915,-94.7542 589.514,-56 584.223,-44.858 575.236,-34.5227 567.021,-26.5743"/>
<polygon fill="midnightblue" stroke="midnightblue" points="569.274,-23.892 559.529,-19.7365 564.556,-29.0626 569.274,-23.892"/>
</g>
<!-- Node20&#45;&gt;Node9 -->
<g id="edge35" class="edge"><title>Node20&#45;&gt;Node9</title>
<path fill="none" stroke="midnightblue" d="M602.884,-168.368C593.233,-150.376 570.8,-108.55 557.968,-84.6267"/>
<polygon fill="midnightblue" stroke="midnightblue" points="560.933,-82.7495 553.122,-75.5914 554.764,-86.0582 560.933,-82.7495"/>
</g>
<!-- Node20&#45;&gt;Node12 -->
<g id="edge36" class="edge"><title>Node20&#45;&gt;Node12</title>
<path fill="none" stroke="midnightblue" d="M580.577,-168.444C551.853,-159.32 506.185,-144.813 474.192,-134.651"/>
<polygon fill="midnightblue" stroke="midnightblue" points="474.915,-131.208 464.325,-131.516 472.796,-137.88 474.915,-131.208"/>
</g>
<!-- Node21&#45;&gt;Node4 -->
<g id="edge40" class="edge"><title>Node21&#45;&gt;Node4</title>
<path fill="none" stroke="midnightblue" d="M517.483,-280.324C500.484,-271.664 474.137,-258.242 454.521,-248.249"/>
<polygon fill="midnightblue" stroke="midnightblue" points="456.001,-245.075 445.502,-243.655 452.824,-251.312 456.001,-245.075"/>
</g>
<!-- Node22 -->
<g id="node22" class="node"><title>Node22</title>
<g id="a_node22"><a xlink:href="_instruction_impl_8hpp.html" target="_top" xlink:title="Declarações das funções do ClassLoader para salvar todos os bytes de .class corretamente. ">
<polygon fill="white" stroke="black" points="492.514,-224.5 492.514,-243.5 592.514,-243.5 592.514,-224.5 492.514,-224.5"/>
<text text-anchor="middle" x="542.514" y="-231.5" font-family="Helvetica,sans-Serif" font-size="10.00">InstructionImpl.hpp</text>
</a>
</g>
</g>
<!-- Node21&#45;&gt;Node22 -->
<g id="edge41" class="edge"><title>Node21&#45;&gt;Node22</title>
<path fill="none" stroke="midnightblue" d="M535.835,-280.083C536.895,-272.927 538.419,-262.635 539.744,-253.691"/>
<polygon fill="midnightblue" stroke="midnightblue" points="543.214,-254.156 541.217,-243.751 536.289,-253.13 543.214,-254.156"/>
</g>
<!-- Node22&#45;&gt;Node2 -->
<g id="edge42" class="edge"><title>Node22&#45;&gt;Node2</title>
<path fill="none" stroke="midnightblue" d="M554.054,-243.51C563.993,-251.621 577.636,-264.822 583.514,-280 589.434,-295.289 584.476,-313.621 578.887,-326.913"/>
<polygon fill="midnightblue" stroke="midnightblue" points="575.544,-325.798 574.466,-336.338 581.882,-328.771 575.544,-325.798"/>
</g>
<!-- Node23&#45;&gt;Node2 -->
<g id="edge47" class="edge"><title>Node23&#45;&gt;Node2</title>
<path fill="none" stroke="midnightblue" d="M721.903,-299.547C693.811,-308.845 645.696,-323.742 610.964,-333.929"/>
<polygon fill="midnightblue" stroke="midnightblue" points="609.726,-330.644 601.102,-336.799 611.681,-337.366 609.726,-330.644"/>
</g>
<!-- Node23&#45;&gt;Node4 -->
<g id="edge45" class="edge"><title>Node23&#45;&gt;Node4</title>
<path fill="none" stroke="midnightblue" d="M707.956,-282.753C645.096,-272.011 517.658,-250.234 459.143,-240.234"/>
<polygon fill="midnightblue" stroke="midnightblue" points="459.497,-236.744 449.051,-238.51 458.318,-243.644 459.497,-236.744"/>
</g>
<!-- Node23&#45;&gt;Node7 -->
<g id="edge44" class="edge"><title>Node23&#45;&gt;Node7</title>
<path fill="none" stroke="midnightblue" d="M754.957,-280.324C764.66,-272.263 779.329,-260.077 791.013,-250.369"/>
<polygon fill="midnightblue" stroke="midnightblue" points="793.425,-252.916 798.88,-243.834 788.952,-247.532 793.425,-252.916"/>
</g>
<!-- Node23&#45;&gt;Node13 -->
<g id="edge46" class="edge"><title>Node23&#45;&gt;Node13</title>
<path fill="none" stroke="midnightblue" d="M740.716,-280.083C737.601,-272.77 733.091,-262.181 729.224,-253.103"/>
<polygon fill="midnightblue" stroke="midnightblue" points="732.38,-251.58 725.241,-243.751 725.939,-254.323 732.38,-251.58"/>
</g>
<!-- Node24&#45;&gt;Node4 -->
<g id="edge49" class="edge"><title>Node24&#45;&gt;Node4</title>
<path fill="none" stroke="midnightblue" d="M171,-280.444C234.67,-269.208 344.595,-249.809 397.841,-240.413"/>
<polygon fill="midnightblue" stroke="midnightblue" points="398.464,-243.857 407.704,-238.672 397.248,-236.964 398.464,-243.857"/>
</g>
<!-- Node24&#45;&gt;Node5 -->
<g id="edge50" class="edge"><title>Node24&#45;&gt;Node5</title>
<path fill="none" stroke="midnightblue" d="M123.415,-280.297C126.799,-247.633 138.793,-131.866 143.549,-85.9573"/>
<polygon fill="midnightblue" stroke="midnightblue" points="147.044,-86.1912 144.593,-75.8837 140.081,-85.4698 147.044,-86.1912"/>
</g>
<!-- Node24&#45;&gt;Node9 -->
<g id="edge51" class="edge"><title>Node24&#45;&gt;Node9</title>
<path fill="none" stroke="midnightblue" d="M132.689,-280.224C166.202,-251.75 277.069,-160.958 383.514,-112 423.117,-93.7849 471.563,-81.6621 505.684,-74.6347"/>
<polygon fill="midnightblue" stroke="midnightblue" points="506.667,-78.0075 515.788,-72.6162 505.296,-71.1431 506.667,-78.0075"/>
</g>
<!-- Node25&#45;&gt;Node23 -->
<g id="edge53" class="edge"><title>Node25&#45;&gt;Node23</title>
<path fill="none" stroke="midnightblue" d="M737,-336.083C738.192,-328.927 739.908,-318.635 741.398,-309.691"/>
<polygon fill="midnightblue" stroke="midnightblue" points="744.863,-310.19 743.055,-299.751 737.959,-309.04 744.863,-310.19"/>
</g>
<!-- Node26&#45;&gt;Node2 -->
<g id="edge56" class="edge"><title>Node26&#45;&gt;Node2</title>
<path fill="none" stroke="midnightblue" d="M807.387,-393.206C755.229,-383.074 664.562,-365.463 611.505,-355.157"/>
<polygon fill="midnightblue" stroke="midnightblue" points="611.901,-351.668 601.417,-353.197 610.567,-358.54 611.901,-351.668"/>
</g>
<!-- Node26&#45;&gt;Node4 -->
<g id="edge60" class="edge"><title>Node26&#45;&gt;Node4</title>
<path fill="none" stroke="midnightblue" d="M846.264,-392.48C842.455,-369.845 828.747,-308.037 789.514,-280 733.806,-240.191 551.316,-253.531 483.514,-244 475.586,-242.886 467.037,-241.551 459.097,-240.256"/>
<polygon fill="midnightblue" stroke="midnightblue" points="459.551,-236.783 449.113,-238.597 458.404,-243.689 459.551,-236.783"/>
</g>
<!-- Node26&#45;&gt;Node7 -->
<g id="edge59" class="edge"><title>Node26&#45;&gt;Node7</title>
<path fill="none" stroke="midnightblue" d="M863.297,-392.467C875.716,-384.769 892.119,-372.179 899.514,-356 913.555,-325.279 917.272,-308.733 899.514,-280 885.938,-258.035 858.035,-246.432 836.875,-240.549"/>
<polygon fill="midnightblue" stroke="midnightblue" points="837.673,-237.141 827.122,-238.1 835.968,-243.93 837.673,-237.141"/>
</g>
<!-- Node26&#45;&gt;Node13 -->
<g id="edge55" class="edge"><title>Node26&#45;&gt;Node13</title>
<path fill="none" stroke="midnightblue" d="M852.157,-392.366C862.947,-370.998 886.926,-314.861 861.514,-280 851.145,-265.776 811.329,-253.82 776.797,-245.815"/>
<polygon fill="midnightblue" stroke="midnightblue" points="777.282,-242.337 766.758,-243.561 775.749,-249.167 777.282,-242.337"/>
</g>
<!-- Node26&#45;&gt;Node15 -->
<g id="edge58" class="edge"><title>Node26&#45;&gt;Node15</title>
<path fill="none" stroke="midnightblue" d="M870.513,-392.395C886.287,-385.202 906.168,-373.309 916.514,-356 946.791,-305.342 940.184,-231.513 934.918,-197.463"/>
<polygon fill="midnightblue" stroke="midnightblue" points="938.357,-196.808 933.238,-187.531 931.455,-197.975 938.357,-196.808"/>
</g>
<!-- Node26&#45;&gt;Node23 -->
<g id="edge57" class="edge"><title>Node26&#45;&gt;Node23</title>
<path fill="none" stroke="midnightblue" d="M840.337,-392.402C829.723,-379.782 809.089,-355.617 790.514,-336 781.104,-326.063 770.166,-315.332 761.318,-306.842"/>
<polygon fill="midnightblue" stroke="midnightblue" points="763.539,-304.124 753.883,-299.763 758.712,-309.193 763.539,-304.124"/>
</g>
</g>
</svg>
