<?xml version="1.0" encoding="UTF-8" standalone="no"?>
<!DOCTYPE svg PUBLIC "-//W3C//DTD SVG 1.1//EN"
 "http://www.w3.org/Graphics/SVG/1.1/DTD/svg11.dtd">
<!-- Generated by graphviz version 2.38.0 (20140413.2041)
 -->
<!-- Title: Instance.cpp Pages: 1 -->
<svg width="1253pt" height="420pt"
 viewBox="0.00 0.00 1252.72 420.00" xmlns="http://www.w3.org/2000/svg" xmlns:xlink="http://www.w3.org/1999/xlink">
<g id="graph0" class="graph" transform="scale(1 1) rotate(0) translate(4 416)">
<title>Instance.cpp</title>
<polygon fill="white" stroke="none" points="-4,4 -4,-416 1248.72,-416 1248.72,4 -4,4"/>
<!-- Node1 -->
<g id="node1" class="node"><title>Node1</title>
<polygon fill="#bfbfbf" stroke="black" points="251.723,-392.5 251.723,-411.5 324.723,-411.5 324.723,-392.5 251.723,-392.5"/>
<text text-anchor="middle" x="288.223" y="-399.5" font-family="Helvetica,sans-Serif" font-size="10.00">Instance.cpp</text>
</g>
<!-- Node2 -->
<g id="node2" class="node"><title>Node2</title>
<g id="a_node2"><a xlink:href="_instance_8hpp.html" target="_top" xlink:title="Declaração da struct Instance. ">
<polygon fill="white" stroke="black" points="473.723,-336.5 473.723,-355.5 546.723,-355.5 546.723,-336.5 473.723,-336.5"/>
<text text-anchor="middle" x="510.223" y="-343.5" font-family="Helvetica,sans-Serif" font-size="10.00">Instance.hpp</text>
</a>
</g>
</g>
<!-- Node1&#45;&gt;Node2 -->
<g id="edge1" class="edge"><title>Node1&#45;&gt;Node2</title>
<path fill="none" stroke="midnightblue" d="M323.4,-392.444C361.802,-383.102 423.399,-368.119 465.278,-357.933"/>
<polygon fill="midnightblue" stroke="midnightblue" points="466.322,-361.281 475.211,-355.516 464.667,-354.479 466.322,-361.281"/>
</g>
<!-- Node24 -->
<g id="node24" class="node"><title>Node24</title>
<g id="a_node24"><a xlink:href="_cp_attribute_interface_8hpp.html" target="_top" xlink:title="Declarações da interface entre ConstantPool e AttributeInfo para traduzir as strings UTF8...">
<polygon fill="white" stroke="black" points="24.7232,-224.5 24.7232,-243.5 147.723,-243.5 147.723,-224.5 24.7232,-224.5"/>
<text text-anchor="middle" x="86.2232" y="-231.5" font-family="Helvetica,sans-Serif" font-size="10.00">CpAttributeInterface.hpp</text>
</a>
</g>
</g>
<!-- Node1&#45;&gt;Node24 -->
<g id="edge48" class="edge"><title>Node1&#45;&gt;Node24</title>
<path fill="none" stroke="midnightblue" d="M277.343,-392.468C255.397,-375.218 204.33,-334.867 162.223,-300 141.914,-283.182 118.953,-263.442 103.635,-250.166"/>
<polygon fill="midnightblue" stroke="midnightblue" points="105.822,-247.429 95.9766,-243.515 101.232,-252.714 105.822,-247.429"/>
</g>
<!-- Node3 -->
<g id="node3" class="node"><title>Node3</title>
<polygon fill="white" stroke="#bfbfbf" points="1209.72,-224.5 1209.72,-243.5 1244.72,-243.5 1244.72,-224.5 1209.72,-224.5"/>
<text text-anchor="middle" x="1227.22" y="-231.5" font-family="Helvetica,sans-Serif" font-size="10.00">map</text>
</g>
<!-- Node2&#45;&gt;Node3 -->
<g id="edge2" class="edge"><title>Node2&#45;&gt;Node3</title>
<path fill="none" stroke="midnightblue" d="M546.904,-341.262C649.879,-330.411 950.108,-296.316 1195.22,-244 1196.7,-243.684 1198.22,-243.338 1199.74,-242.971"/>
<polygon fill="midnightblue" stroke="midnightblue" points="1200.93,-246.278 1209.72,-240.359 1199.16,-239.507 1200.93,-246.278"/>
</g>
<!-- Node4 -->
<g id="node4" class="node"><title>Node4</title>
<polygon fill="white" stroke="#bfbfbf" points="265.723,-168.5 265.723,-187.5 306.723,-187.5 306.723,-168.5 265.723,-168.5"/>
<text text-anchor="middle" x="286.223" y="-175.5" font-family="Helvetica,sans-Serif" font-size="10.00">string</text>
</g>
<!-- Node2&#45;&gt;Node4 -->
<g id="edge3" class="edge"><title>Node2&#45;&gt;Node4</title>
<path fill="none" stroke="midnightblue" d="M473.721,-345.926C405.658,-345.416 260.378,-333.313 195.223,-244 175.78,-217.348 222.24,-197.44 255.682,-187.065"/>
<polygon fill="midnightblue" stroke="midnightblue" points="256.953,-190.339 265.555,-184.154 254.974,-183.625 256.953,-190.339"/>
</g>
<!-- Node5 -->
<g id="node5" class="node"><title>Node5</title>
<g id="a_node5"><a xlink:href="_class_loader_8hpp.html" target="_top" xlink:title="Declarações das funções do ClassLoader para salvar todos os bytes de .class corretamente. ">
<polygon fill="white" stroke="black" points="700.223,-224.5 700.223,-243.5 790.223,-243.5 790.223,-224.5 700.223,-224.5"/>
<text text-anchor="middle" x="745.223" y="-231.5" font-family="Helvetica,sans-Serif" font-size="10.00">ClassLoader.hpp</text>
</a>
</g>
</g>
<!-- Node2&#45;&gt;Node5 -->
<g id="edge4" class="edge"><title>Node2&#45;&gt;Node5</title>
<path fill="none" stroke="midnightblue" d="M528.663,-336.368C569.762,-317.131 669.067,-270.648 717.597,-247.931"/>
<polygon fill="midnightblue" stroke="midnightblue" points="719.296,-251.001 726.869,-243.591 716.328,-244.661 719.296,-251.001"/>
</g>
<!-- Node19 -->
<g id="node19" class="node"><title>Node19</title>
<g id="a_node19"><a xlink:href="_frame_8hpp.html" target="_top" xlink:title="Declarações das funções e da estrutura do Frame, utilizado para salvar resultados parciais...">
<polygon fill="white" stroke="black" points="478.723,-280.5 478.723,-299.5 541.723,-299.5 541.723,-280.5 478.723,-280.5"/>
<text text-anchor="middle" x="510.223" y="-287.5" font-family="Helvetica,sans-Serif" font-size="10.00">Frame.hpp</text>
</a>
</g>
</g>
<!-- Node2&#45;&gt;Node19 -->
<g id="edge32" class="edge"><title>Node2&#45;&gt;Node19</title>
<path fill="none" stroke="midnightblue" d="M505.057,-336.083C503.547,-328.927 503.117,-318.635 503.766,-309.691"/>
<polygon fill="midnightblue" stroke="midnightblue" points="507.239,-310.126 505.092,-299.751 500.3,-309.2 507.239,-310.126"/>
</g>
<!-- Node6 -->
<g id="node6" class="node"><title>Node6</title>
<polygon fill="white" stroke="#bfbfbf" points="783.223,-0.5 783.223,-19.5 829.223,-19.5 829.223,-0.5 783.223,-0.5"/>
<text text-anchor="middle" x="806.223" y="-7.5" font-family="Helvetica,sans-Serif" font-size="10.00">cstdint</text>
</g>
<!-- Node5&#45;&gt;Node6 -->
<g id="edge5" class="edge"><title>Node5&#45;&gt;Node6</title>
<path fill="none" stroke="midnightblue" d="M790.328,-230.948C886.003,-226.133 1102.36,-212.615 1124.22,-188 1213.09,-87.9568 937.286,-32.3038 839.36,-16.0634"/>
<polygon fill="midnightblue" stroke="midnightblue" points="839.822,-12.5927 829.39,-14.4449 838.7,-19.5022 839.822,-12.5927"/>
</g>
<!-- Node7 -->
<g id="node7" class="node"><title>Node7</title>
<polygon fill="white" stroke="#bfbfbf" points="865.223,-168.5 865.223,-187.5 919.223,-187.5 919.223,-168.5 865.223,-168.5"/>
<text text-anchor="middle" x="892.223" y="-175.5" font-family="Helvetica,sans-Serif" font-size="10.00">iostream</text>
</g>
<!-- Node5&#45;&gt;Node7 -->
<g id="edge6" class="edge"><title>Node5&#45;&gt;Node7</title>
<path fill="none" stroke="midnightblue" d="M768.516,-224.444C793.031,-215.438 831.819,-201.189 859.423,-191.049"/>
<polygon fill="midnightblue" stroke="midnightblue" points="860.86,-194.25 869.04,-187.516 858.446,-187.679 860.86,-194.25"/>
</g>
<!-- Node8 -->
<g id="node8" class="node"><title>Node8</title>
<polygon fill="white" stroke="#bfbfbf" points="937.223,-168.5 937.223,-187.5 983.223,-187.5 983.223,-168.5 937.223,-168.5"/>
<text text-anchor="middle" x="960.223" y="-175.5" font-family="Helvetica,sans-Serif" font-size="10.00">cstring</text>
</g>
<!-- Node5&#45;&gt;Node8 -->
<g id="edge7" class="edge"><title>Node5&#45;&gt;Node8</title>
<path fill="none" stroke="midnightblue" d="M781.424,-224.471C816.384,-216.152 871.054,-202.927 927.386,-188.158"/>
<polygon fill="midnightblue" stroke="midnightblue" points="928.397,-191.511 937.176,-185.58 926.614,-184.742 928.397,-191.511"/>
</g>
<!-- Node9 -->
<g id="node9" class="node"><title>Node9</title>
<polygon fill="white" stroke="#bfbfbf" points="218.223,-56.5 218.223,-75.5 262.223,-75.5 262.223,-56.5 218.223,-56.5"/>
<text text-anchor="middle" x="240.223" y="-63.5" font-family="Helvetica,sans-Serif" font-size="10.00">vector</text>
</g>
<!-- Node5&#45;&gt;Node9 -->
<g id="edge8" class="edge"><title>Node5&#45;&gt;Node9</title>
<path fill="none" stroke="midnightblue" d="M700.115,-224.744C628.029,-210.717 483.181,-179.093 367.223,-132 329.985,-116.877 288.928,-94.8096 263.855,-80.6779"/>
<polygon fill="midnightblue" stroke="midnightblue" points="265.493,-77.5827 255.07,-75.6814 262.032,-83.6675 265.493,-77.5827"/>
</g>
<!-- Node10 -->
<g id="node10" class="node"><title>Node10</title>
<polygon fill="white" stroke="#bfbfbf" points="1001.22,-168.5 1001.22,-187.5 1053.22,-187.5 1053.22,-168.5 1001.22,-168.5"/>
<text text-anchor="middle" x="1027.22" y="-175.5" font-family="Helvetica,sans-Serif" font-size="10.00">memory</text>
</g>
<!-- Node5&#45;&gt;Node10 -->
<g id="edge9" class="edge"><title>Node5&#45;&gt;Node10</title>
<path fill="none" stroke="midnightblue" d="M790.488,-225.751C838.035,-217.915 915.198,-204.573 990.736,-188.207"/>
<polygon fill="midnightblue" stroke="midnightblue" points="991.877,-191.54 1000.9,-185.984 990.381,-184.702 991.877,-191.54"/>
</g>
<!-- Node11 -->
<g id="node11" class="node"><title>Node11</title>
<polygon fill="white" stroke="#bfbfbf" points="1071.72,-168.5 1071.72,-187.5 1114.72,-187.5 1114.72,-168.5 1071.72,-168.5"/>
<text text-anchor="middle" x="1093.22" y="-175.5" font-family="Helvetica,sans-Serif" font-size="10.00">cstdio</text>
</g>
<!-- Node5&#45;&gt;Node11 -->
<g id="edge10" class="edge"><title>Node5&#45;&gt;Node11</title>
<path fill="none" stroke="midnightblue" d="M790.461,-228.615C850.356,-222.363 959.358,-209.435 1061.76,-187.809"/>
<polygon fill="midnightblue" stroke="midnightblue" points="1062.6,-191.207 1071.64,-185.688 1061.13,-184.363 1062.6,-191.207"/>
</g>
<!-- Node12 -->
<g id="node12" class="node"><title>Node12</title>
<g id="a_node12"><a xlink:href="_cp_info_8hpp.html" target="_top" xlink:title="Declarações das funções e dos atributos do Pool de constantes. ">
<polygon fill="white" stroke="black" points="645.723,-56.5 645.723,-75.5 710.723,-75.5 710.723,-56.5 645.723,-56.5"/>
<text text-anchor="middle" x="678.223" y="-63.5" font-family="Helvetica,sans-Serif" font-size="10.00">CpInfo.hpp</text>
</a>
</g>
</g>
<!-- Node5&#45;&gt;Node12 -->
<g id="edge11" class="edge"><title>Node5&#45;&gt;Node12</title>
<path fill="none" stroke="midnightblue" d="M743.186,-224.444C740.09,-211.877 733.758,-187.776 726.223,-168 714.804,-138.029 698.134,-104.679 687.745,-84.7926"/>
<polygon fill="midnightblue" stroke="midnightblue" points="690.712,-82.9164 682.946,-75.7097 684.523,-86.1866 690.712,-82.9164"/>
</g>
<!-- Node14 -->
<g id="node14" class="node"><title>Node14</title>
<g id="a_node14"><a xlink:href="_method_info_8hpp.html" target="_top" xlink:title="Declarações das funções do MethodInfo estrutura responsável por guardas as informaçoes dos metodos do...">
<polygon fill="white" stroke="black" points="633.223,-168.5 633.223,-187.5 717.223,-187.5 717.223,-168.5 633.223,-168.5"/>
<text text-anchor="middle" x="675.223" y="-175.5" font-family="Helvetica,sans-Serif" font-size="10.00">MethodInfo.hpp</text>
</a>
</g>
</g>
<!-- Node5&#45;&gt;Node14 -->
<g id="edge14" class="edge"><title>Node5&#45;&gt;Node14</title>
<path fill="none" stroke="midnightblue" d="M733.977,-224.324C723.426,-216.185 707.423,-203.839 694.781,-194.087"/>
<polygon fill="midnightblue" stroke="midnightblue" points="696.73,-191.171 686.675,-187.834 692.455,-196.713 696.73,-191.171"/>
</g>
<!-- Node15 -->
<g id="node15" class="node"><title>Node15</title>
<g id="a_node15"><a xlink:href="_attribute_info_8hpp.html" target="_top" xlink:title="Declarações das funções do AttributeInfo para tratamento dos atributos do arquivo ...">
<polygon fill="white" stroke="black" points="560.723,-112.5 560.723,-131.5 649.723,-131.5 649.723,-112.5 560.723,-112.5"/>
<text text-anchor="middle" x="605.223" y="-119.5" font-family="Helvetica,sans-Serif" font-size="10.00">AttributeInfo.hpp</text>
</a>
</g>
</g>
<!-- Node5&#45;&gt;Node15 -->
<g id="edge31" class="edge"><title>Node5&#45;&gt;Node15</title>
<path fill="none" stroke="midnightblue" d="M699.976,-226.389C674.492,-220.425 643.922,-209.163 624.223,-188 612.593,-175.505 608.044,-156.276 606.284,-141.97"/>
<polygon fill="midnightblue" stroke="midnightblue" points="609.75,-141.431 605.389,-131.775 602.777,-142.043 609.75,-141.431"/>
</g>
<!-- Node16 -->
<g id="node16" class="node"><title>Node16</title>
<g id="a_node16"><a xlink:href="_interface_info_8hpp.html" target="_top" xlink:title="Declarações das funções e atributos de InterfaceInfo. ">
<polygon fill="white" stroke="black" points="376.223,-112.5 376.223,-131.5 466.223,-131.5 466.223,-112.5 376.223,-112.5"/>
<text text-anchor="middle" x="421.223" y="-119.5" font-family="Helvetica,sans-Serif" font-size="10.00">InterfaceInfo.hpp</text>
</a>
</g>
</g>
<!-- Node5&#45;&gt;Node16 -->
<g id="edge22" class="edge"><title>Node5&#45;&gt;Node16</title>
<path fill="none" stroke="midnightblue" d="M719.117,-224.476C691.712,-215.502 647.388,-200.911 609.223,-188 555.169,-169.714 492.572,-147.954 454.979,-134.823"/>
<polygon fill="midnightblue" stroke="midnightblue" points="456.119,-131.514 445.524,-131.518 453.809,-138.121 456.119,-131.514"/>
</g>
<!-- Node18 -->
<g id="node18" class="node"><title>Node18</title>
<g id="a_node18"><a xlink:href="_field_info_8hpp.html" target="_top" xlink:title="Declarações das funções do FieldInfo para tratamento dos fields do arquivo .class. ">
<polygon fill="white" stroke="black" points="773.723,-168.5 773.723,-187.5 846.723,-187.5 846.723,-168.5 773.723,-168.5"/>
<text text-anchor="middle" x="810.223" y="-175.5" font-family="Helvetica,sans-Serif" font-size="10.00">FieldInfo.hpp</text>
</a>
</g>
</g>
<!-- Node5&#45;&gt;Node18 -->
<g id="edge27" class="edge"><title>Node5&#45;&gt;Node18</title>
<path fill="none" stroke="midnightblue" d="M755.667,-224.324C765.369,-216.263 780.039,-204.077 791.723,-194.369"/>
<polygon fill="midnightblue" stroke="midnightblue" points="794.134,-196.916 799.59,-187.834 789.661,-191.532 794.134,-196.916"/>
</g>
<!-- Node12&#45;&gt;Node6 -->
<g id="edge12" class="edge"><title>Node12&#45;&gt;Node6</title>
<path fill="none" stroke="midnightblue" d="M698.505,-56.4435C719.571,-47.5566 752.74,-33.5632 776.709,-23.4514"/>
<polygon fill="midnightblue" stroke="midnightblue" points="778.183,-26.6283 786.036,-19.5164 775.462,-20.1787 778.183,-26.6283"/>
</g>
<!-- Node13 -->
<g id="node13" class="node"><title>Node13</title>
<polygon fill="white" stroke="#bfbfbf" points="494.223,-0.5 494.223,-19.5 544.223,-19.5 544.223,-0.5 494.223,-0.5"/>
<text text-anchor="middle" x="519.223" y="-7.5" font-family="Helvetica,sans-Serif" font-size="10.00">fstream</text>
</g>
<!-- Node12&#45;&gt;Node13 -->
<g id="edge13" class="edge"><title>Node12&#45;&gt;Node13</title>
<path fill="none" stroke="midnightblue" d="M653.029,-56.4435C626.281,-47.3591 583.821,-32.9388 553.918,-22.7831"/>
<polygon fill="midnightblue" stroke="midnightblue" points="554.894,-19.4182 544.299,-19.5164 552.643,-26.0464 554.894,-19.4182"/>
</g>
<!-- Node14&#45;&gt;Node6 -->
<g id="edge15" class="edge"><title>Node14&#45;&gt;Node6</title>
<path fill="none" stroke="midnightblue" d="M682.266,-168.075C703.244,-141.493 765.552,-62.5379 792.994,-27.7633"/>
<polygon fill="midnightblue" stroke="midnightblue" points="796.014,-29.5864 799.462,-19.5681 790.519,-25.2499 796.014,-29.5864"/>
</g>
<!-- Node14&#45;&gt;Node12 -->
<g id="edge21" class="edge"><title>Node14&#45;&gt;Node12</title>
<path fill="none" stroke="midnightblue" d="M675.459,-168.368C675.943,-150.617 677.06,-109.666 677.716,-85.5974"/>
<polygon fill="midnightblue" stroke="midnightblue" points="681.215,-85.6832 677.989,-75.5914 674.217,-85.4922 681.215,-85.6832"/>
</g>
<!-- Node14&#45;&gt;Node15 -->
<g id="edge16" class="edge"><title>Node14&#45;&gt;Node15</title>
<path fill="none" stroke="midnightblue" d="M663.977,-168.324C653.426,-160.185 637.423,-147.839 624.781,-138.087"/>
<polygon fill="midnightblue" stroke="midnightblue" points="626.73,-135.171 616.675,-131.834 622.455,-140.713 626.73,-135.171"/>
</g>
<!-- Node15&#45;&gt;Node6 -->
<g id="edge17" class="edge"><title>Node15&#45;&gt;Node6</title>
<path fill="none" stroke="midnightblue" d="M606.894,-112.407C610.069,-98.4304 618.322,-70.8431 636.223,-56 675.368,-23.5423 735.538,-14.2711 772.804,-11.7547"/>
<polygon fill="midnightblue" stroke="midnightblue" points="773.334,-15.2311 783.128,-11.1912 772.952,-8.24149 773.334,-15.2311"/>
</g>
<!-- Node15&#45;&gt;Node9 -->
<g id="edge18" class="edge"><title>Node15&#45;&gt;Node9</title>
<path fill="none" stroke="midnightblue" d="M560.467,-114.379C485.813,-103.334 337.64,-81.4123 272.371,-71.756"/>
<polygon fill="midnightblue" stroke="midnightblue" points="272.672,-68.2627 262.268,-70.2614 271.648,-75.1873 272.672,-68.2627"/>
</g>
<!-- Node15&#45;&gt;Node12 -->
<g id="edge20" class="edge"><title>Node15&#45;&gt;Node12</title>
<path fill="none" stroke="midnightblue" d="M616.952,-112.324C628.061,-104.107 644.965,-91.6017 658.207,-81.8069"/>
<polygon fill="midnightblue" stroke="midnightblue" points="660.323,-84.5948 666.281,-75.8339 656.16,-78.9671 660.323,-84.5948"/>
</g>
<!-- Node15&#45;&gt;Node13 -->
<g id="edge19" class="edge"><title>Node15&#45;&gt;Node13</title>
<path fill="none" stroke="midnightblue" d="M598.475,-112.368C584.22,-94.135 550.829,-51.4257 532.26,-27.6752"/>
<polygon fill="midnightblue" stroke="midnightblue" points="534.857,-25.3138 525.94,-19.5914 529.342,-29.6253 534.857,-25.3138"/>
</g>
<!-- Node16&#45;&gt;Node6 -->
<g id="edge24" class="edge"><title>Node16&#45;&gt;Node6</title>
<path fill="none" stroke="midnightblue" d="M444.853,-112.427C481.476,-99.3073 554.29,-73.8911 617.223,-56 671.345,-40.6137 735.185,-26.1719 773.097,-17.9769"/>
<polygon fill="midnightblue" stroke="midnightblue" points="774.03,-21.3564 783.073,-15.8356 772.561,-14.5123 774.03,-21.3564"/>
</g>
<!-- Node16&#45;&gt;Node13 -->
<g id="edge23" class="edge"><title>Node16&#45;&gt;Node13</title>
<path fill="none" stroke="midnightblue" d="M432.947,-112.479C444.23,-103.962 461.417,-90.1326 474.223,-76 487.72,-61.1047 500.502,-41.979 508.97,-28.338"/>
<polygon fill="midnightblue" stroke="midnightblue" points="512.128,-29.879 514.321,-19.5136 506.143,-26.2491 512.128,-29.879"/>
</g>
<!-- Node17 -->
<g id="node17" class="node"><title>Node17</title>
<g id="a_node17"><a xlink:href="_byte_reader_8hpp.html" target="_top" xlink:title="Declarações das funções do ByteReader para leitura dos bytes no arquivo .class. ">
<polygon fill="white" stroke="black" points="378.723,-56.5 378.723,-75.5 465.723,-75.5 465.723,-56.5 378.723,-56.5"/>
<text text-anchor="middle" x="422.223" y="-63.5" font-family="Helvetica,sans-Serif" font-size="10.00">ByteReader.hpp</text>
</a>
</g>
</g>
<!-- Node16&#45;&gt;Node17 -->
<g id="edge25" class="edge"><title>Node16&#45;&gt;Node17</title>
<path fill="none" stroke="midnightblue" d="M421.388,-112.083C421.519,-105.006 421.707,-94.8611 421.872,-85.9865"/>
<polygon fill="midnightblue" stroke="midnightblue" points="425.375,-85.8142 422.061,-75.7511 418.377,-85.6845 425.375,-85.8142"/>
</g>
<!-- Node17&#45;&gt;Node13 -->
<g id="edge26" class="edge"><title>Node17&#45;&gt;Node13</title>
<path fill="none" stroke="midnightblue" d="M437.808,-56.324C453.222,-47.7428 477.035,-34.486 494.933,-24.5224"/>
<polygon fill="midnightblue" stroke="midnightblue" points="496.642,-27.5767 503.677,-19.6545 493.237,-21.4606 496.642,-27.5767"/>
</g>
<!-- Node18&#45;&gt;Node6 -->
<g id="edge30" class="edge"><title>Node18&#45;&gt;Node6</title>
<path fill="none" stroke="midnightblue" d="M812.706,-168.467C815.18,-159.485 818.809,-144.888 820.223,-132 823.909,-98.4239 825.298,-89.3944 820.223,-56 818.856,-47.001 816.033,-37.3251 813.278,-29.2601"/>
<polygon fill="midnightblue" stroke="midnightblue" points="816.535,-27.9759 809.823,-19.7782 809.958,-30.3722 816.535,-27.9759"/>
</g>
<!-- Node18&#45;&gt;Node12 -->
<g id="edge28" class="edge"><title>Node18&#45;&gt;Node12</title>
<path fill="none" stroke="midnightblue" d="M802.139,-168.076C790.13,-155.05 766.584,-130.384 744.223,-112 730.603,-100.802 714.232,-89.6278 701.203,-81.2153"/>
<polygon fill="midnightblue" stroke="midnightblue" points="702.71,-78.0262 692.393,-75.617 698.956,-83.9343 702.71,-78.0262"/>
</g>
<!-- Node18&#45;&gt;Node15 -->
<g id="edge29" class="edge"><title>Node18&#45;&gt;Node15</title>
<path fill="none" stroke="midnightblue" d="M777.74,-168.444C742.503,-159.162 686.119,-144.309 647.464,-134.127"/>
<polygon fill="midnightblue" stroke="midnightblue" points="648.116,-130.679 637.554,-131.516 646.333,-137.448 648.116,-130.679"/>
</g>
<!-- Node19&#45;&gt;Node2 -->
<g id="edge47" class="edge"><title>Node19&#45;&gt;Node2</title>
<path fill="none" stroke="midnightblue" d="M515.354,-299.751C516.88,-306.858 517.328,-317.136 516.696,-326.101"/>
<polygon fill="midnightblue" stroke="midnightblue" points="513.217,-325.713 515.39,-336.083 520.157,-326.622 513.217,-325.713"/>
</g>
<!-- Node19&#45;&gt;Node3 -->
<g id="edge37" class="edge"><title>Node19&#45;&gt;Node3</title>
<path fill="none" stroke="midnightblue" d="M541.905,-289.255C639.854,-289.544 946.199,-286.717 1195.22,-244 1196.68,-243.75 1198.17,-243.46 1199.66,-243.14"/>
<polygon fill="midnightblue" stroke="midnightblue" points="1200.57,-246.52 1209.43,-240.713 1198.88,-239.727 1200.57,-246.52"/>
</g>
<!-- Node19&#45;&gt;Node4 -->
<g id="edge34" class="edge"><title>Node19&#45;&gt;Node4</title>
<path fill="none" stroke="midnightblue" d="M478.621,-281.886C449.854,-274.68 406.736,-262.021 372.223,-244 346.229,-230.427 319.838,-209.119 303.273,-194.629"/>
<polygon fill="midnightblue" stroke="midnightblue" points="305.354,-191.795 295.561,-187.75 300.694,-197.019 305.354,-191.795"/>
</g>
<!-- Node19&#45;&gt;Node5 -->
<g id="edge42" class="edge"><title>Node19&#45;&gt;Node5</title>
<path fill="none" stroke="midnightblue" d="M541.916,-281.717C582.068,-272.491 651.611,-256.511 698.019,-245.847"/>
<polygon fill="midnightblue" stroke="midnightblue" points="698.879,-249.241 707.841,-243.59 697.311,-242.419 698.879,-249.241"/>
</g>
<!-- Node19&#45;&gt;Node6 -->
<g id="edge33" class="edge"><title>Node19&#45;&gt;Node6</title>
<path fill="none" stroke="midnightblue" d="M542.136,-287.188C675.485,-279.202 1181.22,-244.59 1181.22,-179 1181.22,-179 1181.22,-179 1181.22,-121 1181.22,-50.1078 931.336,-21.6557 839.534,-13.5951"/>
<polygon fill="midnightblue" stroke="midnightblue" points="839.659,-10.0932 829.398,-12.7322 839.065,-17.068 839.659,-10.0932"/>
</g>
<!-- Node19&#45;&gt;Node9 -->
<g id="edge35" class="edge"><title>Node19&#45;&gt;Node9</title>
<path fill="none" stroke="midnightblue" d="M478.607,-288.542C374.384,-286.711 46.5003,-278.249 15.2232,-244 -53.2569,-169.012 130.912,-100.971 208.052,-76.5577"/>
<polygon fill="midnightblue" stroke="midnightblue" points="209.253,-79.8494 217.762,-73.5366 207.174,-73.1654 209.253,-79.8494"/>
</g>
<!-- Node19&#45;&gt;Node12 -->
<g id="edge39" class="edge"><title>Node19&#45;&gt;Node12</title>
<path fill="none" stroke="midnightblue" d="M509.541,-280.336C507.82,-252.206 506.261,-162.348 551.223,-112 572.663,-87.9921 607.746,-76.7919 635.613,-71.5672"/>
<polygon fill="midnightblue" stroke="midnightblue" points="636.234,-75.0119 645.514,-69.9 635.071,-68.1091 636.234,-75.0119"/>
</g>
<!-- Node19&#45;&gt;Node14 -->
<g id="edge40" class="edge"><title>Node19&#45;&gt;Node14</title>
<path fill="none" stroke="midnightblue" d="M524.206,-280.368C538.602,-271.427 561.634,-256.973 581.223,-244 606.928,-226.976 636.061,-206.67 654.99,-193.339"/>
<polygon fill="midnightblue" stroke="midnightblue" points="657.01,-196.197 663.161,-187.571 652.973,-190.479 657.01,-196.197"/>
</g>
<!-- Node19&#45;&gt;Node15 -->
<g id="edge41" class="edge"><title>Node19&#45;&gt;Node15</title>
<path fill="none" stroke="midnightblue" d="M517.229,-280.326C524.225,-271.47 535.08,-257.189 543.223,-244 564.935,-208.834 585.95,-165.17 597.065,-141.082"/>
<polygon fill="midnightblue" stroke="midnightblue" points="600.349,-142.316 601.319,-131.765 593.982,-139.408 600.349,-142.316"/>
</g>
<!-- Node20 -->
<g id="node20" class="node"><title>Node20</title>
<polygon fill="white" stroke="#bfbfbf" points="204.723,-224.5 204.723,-243.5 245.723,-243.5 245.723,-224.5 204.723,-224.5"/>
<text text-anchor="middle" x="225.223" y="-231.5" font-family="Helvetica,sans-Serif" font-size="10.00">stack</text>
</g>
<!-- Node19&#45;&gt;Node20 -->
<g id="edge36" class="edge"><title>Node19&#45;&gt;Node20</title>
<path fill="none" stroke="midnightblue" d="M478.427,-284.736C431.568,-278.167 341.087,-264.392 255.589,-244.093"/>
<polygon fill="midnightblue" stroke="midnightblue" points="256.27,-240.657 245.729,-241.717 254.63,-247.462 256.27,-240.657"/>
</g>
<!-- Node21 -->
<g id="node21" class="node"><title>Node21</title>
<polygon fill="white" stroke="#bfbfbf" points="263.723,-224.5 263.723,-243.5 324.723,-243.5 324.723,-224.5 263.723,-224.5"/>
<text text-anchor="middle" x="294.223" y="-231.5" font-family="Helvetica,sans-Serif" font-size="10.00">Stack.hpp</text>
</g>
<!-- Node19&#45;&gt;Node21 -->
<g id="edge38" class="edge"><title>Node19&#45;&gt;Node21</title>
<path fill="none" stroke="midnightblue" d="M478.352,-281.032C440.19,-271.492 376.228,-255.501 334.633,-245.102"/>
<polygon fill="midnightblue" stroke="midnightblue" points="335.377,-241.681 324.827,-242.651 333.679,-248.472 335.377,-241.681"/>
</g>
<!-- Node22 -->
<g id="node22" class="node"><title>Node22</title>
<g id="a_node22"><a xlink:href="_instruction_8hpp.html" target="_top" xlink:title="Declarações das instruçoes referentes ao interpretador da JVM. ">
<polygon fill="white" stroke="black" points="381.723,-224.5 381.723,-243.5 462.723,-243.5 462.723,-224.5 381.723,-224.5"/>
<text text-anchor="middle" x="422.223" y="-231.5" font-family="Helvetica,sans-Serif" font-size="10.00">Instruction.hpp</text>
</a>
</g>
</g>
<!-- Node19&#45;&gt;Node22 -->
<g id="edge43" class="edge"><title>Node19&#45;&gt;Node22</title>
<path fill="none" stroke="midnightblue" d="M496.084,-280.324C482.357,-271.9 461.287,-258.971 445.159,-249.074"/>
<polygon fill="midnightblue" stroke="midnightblue" points="446.681,-245.902 436.327,-243.655 443.02,-251.868 446.681,-245.902"/>
</g>
<!-- Node22&#45;&gt;Node4 -->
<g id="edge44" class="edge"><title>Node22&#45;&gt;Node4</title>
<path fill="none" stroke="midnightblue" d="M400.674,-224.444C377.928,-215.412 341.899,-201.107 316.348,-190.961"/>
<polygon fill="midnightblue" stroke="midnightblue" points="317.368,-187.6 306.782,-187.163 314.784,-194.106 317.368,-187.6"/>
</g>
<!-- Node23 -->
<g id="node23" class="node"><title>Node23</title>
<g id="a_node23"><a xlink:href="_instruction_impl_8hpp.html" target="_top" xlink:title="Declarações das funções do ClassLoader para salvar todos os bytes de .class corretamente. ">
<polygon fill="white" stroke="black" points="325.223,-168.5 325.223,-187.5 425.223,-187.5 425.223,-168.5 325.223,-168.5"/>
<text text-anchor="middle" x="375.223" y="-175.5" font-family="Helvetica,sans-Serif" font-size="10.00">InstructionImpl.hpp</text>
</a>
</g>
</g>
<!-- Node22&#45;&gt;Node23 -->
<g id="edge45" class="edge"><title>Node22&#45;&gt;Node23</title>
<path fill="none" stroke="midnightblue" d="M414.462,-224.083C407.686,-216.298 397.68,-204.801 389.468,-195.367"/>
<polygon fill="midnightblue" stroke="midnightblue" points="392.045,-192.996 382.84,-187.751 386.765,-197.592 392.045,-192.996"/>
</g>
<!-- Node23&#45;&gt;Node19 -->
<g id="edge46" class="edge"><title>Node23&#45;&gt;Node19</title>
<path fill="none" stroke="midnightblue" d="M404.273,-187.555C424.793,-194.723 451.959,-206.608 471.223,-224 485.686,-237.057 496.465,-256.754 502.984,-271.042"/>
<polygon fill="midnightblue" stroke="midnightblue" points="499.806,-272.512 506.969,-280.318 506.237,-269.748 499.806,-272.512"/>
</g>
<!-- Node24&#45;&gt;Node4 -->
<g id="edge49" class="edge"><title>Node24&#45;&gt;Node4</title>
<path fill="none" stroke="midnightblue" d="M117.914,-224.444C155.77,-214.223 218.642,-197.247 255.889,-187.19"/>
<polygon fill="midnightblue" stroke="midnightblue" points="256.93,-190.535 265.672,-184.549 255.106,-183.776 256.93,-190.535"/>
</g>
<!-- Node24&#45;&gt;Node9 -->
<g id="edge50" class="edge"><title>Node24&#45;&gt;Node9</title>
<path fill="none" stroke="midnightblue" d="M94.5029,-224.075C119.269,-197.38 193.035,-117.865 225.081,-83.3218"/>
<polygon fill="midnightblue" stroke="midnightblue" points="228.039,-85.2796 232.274,-75.5681 222.907,-80.5188 228.039,-85.2796"/>
</g>
<!-- Node24&#45;&gt;Node12 -->
<g id="edge51" class="edge"><title>Node24&#45;&gt;Node12</title>
<path fill="none" stroke="midnightblue" d="M105.177,-224.295C136.143,-210.408 199.794,-183.257 256.223,-168 351.444,-142.254 380.964,-161.069 475.223,-132 495.364,-125.789 498.459,-119.321 518.223,-112 557.167,-97.5739 602.894,-85.1454 635.468,-77.028"/>
<polygon fill="midnightblue" stroke="midnightblue" points="636.681,-80.3339 645.556,-74.5469 635.009,-73.5364 636.681,-80.3339"/>
</g>
</g>
</svg>
