<?xml version="1.0" encoding="UTF-8" standalone="no"?>
<!DOCTYPE svg PUBLIC "-//W3C//DTD SVG 1.1//EN"
 "http://www.w3.org/Graphics/SVG/1.1/DTD/svg11.dtd">
<!-- Generated by graphviz version 2.38.0 (20140413.2041)
 -->
<!-- Title: InstructionImpl.hpp Pages: 1 -->
<svg width="555pt" height="308pt"
 viewBox="0.00 0.00 554.50 308.00" xmlns="http://www.w3.org/2000/svg" xmlns:xlink="http://www.w3.org/1999/xlink">
<g id="graph0" class="graph" transform="scale(1 1) rotate(0) translate(4 304)">
<title>InstructionImpl.hpp</title>
<polygon fill="white" stroke="none" points="-4,4 -4,-304 550.5,-304 550.5,4 -4,4"/>
<!-- Node1 -->
<g id="node1" class="node"><title>Node1</title>
<polygon fill="#bfbfbf" stroke="black" points="353,-280.5 353,-299.5 453,-299.5 453,-280.5 353,-280.5"/>
<text text-anchor="middle" x="403" y="-287.5" font-family="Helvetica,sans-Serif" font-size="10.00">InstructionImpl.hpp</text>
</g>
<!-- Node2 -->
<g id="node2" class="node"><title>Node2</title>
<g id="a_node2"><a xlink:href="_instruction_8hpp.html" target="_top" xlink:title="Declarações das instruçoes referentes ao interpretador da JVM. ">
<polygon fill="white" stroke="black" points="362.5,-224.5 362.5,-243.5 443.5,-243.5 443.5,-224.5 362.5,-224.5"/>
<text text-anchor="middle" x="403" y="-231.5" font-family="Helvetica,sans-Serif" font-size="10.00">Instruction.hpp</text>
</a>
</g>
</g>
<!-- Node1&#45;&gt;Node2 -->
<g id="edge1" class="edge"><title>Node1&#45;&gt;Node2</title>
<path fill="none" stroke="midnightblue" d="M403,-269.805C403,-260.91 403,-250.78 403,-243.751"/>
<polygon fill="midnightblue" stroke="midnightblue" points="399.5,-270.083 403,-280.083 406.5,-270.083 399.5,-270.083"/>
</g>
<!-- Node14 -->
<g id="node14" class="node"><title>Node14</title>
<g id="a_node14"><a xlink:href="_instruction_8cpp.html" target="_top" xlink:title="Métodos que servem para inicializar todas as intruções contidas na documentação;. ...">
<polygon fill="white" stroke="black" points="465.5,-168.5 465.5,-187.5 546.5,-187.5 546.5,-168.5 465.5,-168.5"/>
<text text-anchor="middle" x="506" y="-175.5" font-family="Helvetica,sans-Serif" font-size="10.00">Instruction.cpp</text>
</a>
</g>
</g>
<!-- Node1&#45;&gt;Node14 -->
<g id="edge21" class="edge"><title>Node1&#45;&gt;Node14</title>
<path fill="none" stroke="midnightblue" d="M420.831,-273.67C430.37,-265.214 442.147,-254.355 452,-244 470.204,-224.869 489.505,-200.506 499.361,-187.727"/>
<polygon fill="midnightblue" stroke="midnightblue" points="418.35,-271.19 413.13,-280.41 422.96,-276.458 418.35,-271.19"/>
</g>
<!-- Node3 -->
<g id="node3" class="node"><title>Node3</title>
<g id="a_node3"><a xlink:href="_attribute_info_8cpp.html" target="_top" xlink:title="Tem os métodos para adiquirir as informações dos atributos;. ">
<polygon fill="white" stroke="black" points="358.5,-168.5 358.5,-187.5 447.5,-187.5 447.5,-168.5 358.5,-168.5"/>
<text text-anchor="middle" x="403" y="-175.5" font-family="Helvetica,sans-Serif" font-size="10.00">AttributeInfo.cpp</text>
</a>
</g>
</g>
<!-- Node2&#45;&gt;Node3 -->
<g id="edge2" class="edge"><title>Node2&#45;&gt;Node3</title>
<path fill="none" stroke="midnightblue" d="M403,-213.805C403,-204.91 403,-194.78 403,-187.751"/>
<polygon fill="midnightblue" stroke="midnightblue" points="399.5,-214.083 403,-224.083 406.5,-214.083 399.5,-214.083"/>
</g>
<!-- Node4 -->
<g id="node4" class="node"><title>Node4</title>
<g id="a_node4"><a xlink:href="_frame_8hpp.html" target="_top" xlink:title="Declarações das funções e da estrutura do Frame, utilizado para salvar resultados parciais...">
<polygon fill="white" stroke="black" points="277.5,-168.5 277.5,-187.5 340.5,-187.5 340.5,-168.5 277.5,-168.5"/>
<text text-anchor="middle" x="309" y="-175.5" font-family="Helvetica,sans-Serif" font-size="10.00">Frame.hpp</text>
</a>
</g>
</g>
<!-- Node2&#45;&gt;Node4 -->
<g id="edge3" class="edge"><title>Node2&#45;&gt;Node4</title>
<path fill="none" stroke="midnightblue" d="M378.938,-219.177C361.641,-209.241 338.852,-196.149 324.065,-187.655"/>
<polygon fill="midnightblue" stroke="midnightblue" points="377.483,-222.378 387.897,-224.324 380.97,-216.308 377.483,-222.378"/>
</g>
<!-- Node2&#45;&gt;Node14 -->
<g id="edge20" class="edge"><title>Node2&#45;&gt;Node14</title>
<path fill="none" stroke="midnightblue" d="M428.579,-219.59C447.623,-209.605 473.064,-196.267 489.492,-187.655"/>
<polygon fill="midnightblue" stroke="midnightblue" points="426.78,-216.581 419.549,-224.324 430.031,-222.78 426.78,-216.581"/>
</g>
<!-- Node4&#45;&gt;Node1 -->
<g id="edge4" class="edge"><title>Node4&#45;&gt;Node1</title>
<path fill="none" stroke="midnightblue" d="M319.351,-196.703C327.657,-210.266 340.037,-229.116 353,-244 365.119,-257.915 381.324,-271.795 391.956,-280.383"/>
<polygon fill="midnightblue" stroke="midnightblue" points="322.214,-194.673 314.072,-187.894 316.21,-198.271 322.214,-194.673"/>
</g>
<!-- Node5 -->
<g id="node5" class="node"><title>Node5</title>
<g id="a_node5"><a xlink:href="_instance_8hpp.html" target="_top" xlink:title="Declaração da struct Instance. ">
<polygon fill="white" stroke="black" points="207.5,-112.5 207.5,-131.5 280.5,-131.5 280.5,-112.5 207.5,-112.5"/>
<text text-anchor="middle" x="244" y="-119.5" font-family="Helvetica,sans-Serif" font-size="10.00">Instance.hpp</text>
</a>
</g>
</g>
<!-- Node4&#45;&gt;Node5 -->
<g id="edge5" class="edge"><title>Node4&#45;&gt;Node5</title>
<path fill="none" stroke="midnightblue" d="M285.327,-162.38C272.436,-152.62 257.681,-140.106 249.485,-131.834"/>
<polygon fill="midnightblue" stroke="midnightblue" points="283.306,-165.238 293.442,-168.324 287.443,-159.591 283.306,-165.238"/>
</g>
<!-- Node8 -->
<g id="node8" class="node"><title>Node8</title>
<g id="a_node8"><a xlink:href="_instruction_impl_8cpp.html" target="_top" xlink:title="Métodos referentes a execução de cada instrução ;. ">
<polygon fill="white" stroke="black" points="278,-0.5 278,-19.5 378,-19.5 378,-0.5 278,-0.5"/>
<text text-anchor="middle" x="328" y="-7.5" font-family="Helvetica,sans-Serif" font-size="10.00">InstructionImpl.cpp</text>
</a>
</g>
</g>
<!-- Node4&#45;&gt;Node8 -->
<g id="edge18" class="edge"><title>Node4&#45;&gt;Node8</title>
<path fill="none" stroke="midnightblue" d="M319.057,-159.333C331.144,-136.015 349.089,-93.5245 343,-56 340.889,-42.994 335.558,-28.6674 331.856,-19.7514"/>
<polygon fill="midnightblue" stroke="midnightblue" points="315.859,-157.887 314.173,-168.347 322.014,-161.222 315.859,-157.887"/>
</g>
<!-- Node12 -->
<g id="node12" class="node"><title>Node12</title>
<g id="a_node12"><a xlink:href="_interpreter_8hpp.html" target="_top" xlink:title="Declarações das funções e atributos do Interpretador para interpretar o que foi lido do ...">
<polygon fill="white" stroke="black" points="254,-56.5 254,-75.5 334,-75.5 334,-56.5 254,-56.5"/>
<text text-anchor="middle" x="294" y="-63.5" font-family="Helvetica,sans-Serif" font-size="10.00">Interpreter.hpp</text>
</a>
</g>
</g>
<!-- Node4&#45;&gt;Node12 -->
<g id="edge19" class="edge"><title>Node4&#45;&gt;Node12</title>
<path fill="none" stroke="midnightblue" d="M306.457,-158.348C303.171,-134.254 297.587,-93.3079 295.172,-75.5914"/>
<polygon fill="midnightblue" stroke="midnightblue" points="303.004,-158.933 307.823,-168.368 309.94,-157.987 303.004,-158.933"/>
</g>
<!-- Node13 -->
<g id="node13" class="node"><title>Node13</title>
<g id="a_node13"><a xlink:href="_frame_8cpp.html" target="_top" xlink:title="Contrutor, destrutor e metodos para o funcionamento da lógica do frame;. ">
<polygon fill="white" stroke="black" points="390.5,-112.5 390.5,-131.5 453.5,-131.5 453.5,-112.5 390.5,-112.5"/>
<text text-anchor="middle" x="422" y="-119.5" font-family="Helvetica,sans-Serif" font-size="10.00">Frame.cpp</text>
</a>
</g>
</g>
<!-- Node4&#45;&gt;Node13 -->
<g id="edge17" class="edge"><title>Node4&#45;&gt;Node13</title>
<path fill="none" stroke="midnightblue" d="M336.003,-164.096C357.114,-154.007 385.862,-140.27 404.179,-131.516"/>
<polygon fill="midnightblue" stroke="midnightblue" points="334.419,-160.974 326.905,-168.444 337.437,-167.29 334.419,-160.974"/>
</g>
<!-- Node5&#45;&gt;Node4 -->
<g id="edge6" class="edge"><title>Node5&#45;&gt;Node4</title>
<path fill="none" stroke="midnightblue" d="M267.746,-137.675C280.577,-147.394 295.236,-159.826 303.433,-168.083"/>
<polygon fill="midnightblue" stroke="midnightblue" points="269.799,-134.841 259.665,-131.751 265.661,-140.486 269.799,-134.841"/>
</g>
<!-- Node6 -->
<g id="node6" class="node"><title>Node6</title>
<g id="a_node6"><a xlink:href="_g_l_o_b_a_l__file_8hpp.html" target="_top" xlink:title="Armazenas classes estáticas para serem usadas por todo o código. ">
<polygon fill="white" stroke="black" points="52,-56.5 52,-75.5 144,-75.5 144,-56.5 52,-56.5"/>
<text text-anchor="middle" x="98" y="-63.5" font-family="Helvetica,sans-Serif" font-size="10.00">GLOBAL_file.hpp</text>
</a>
</g>
</g>
<!-- Node5&#45;&gt;Node6 -->
<g id="edge7" class="edge"><title>Node5&#45;&gt;Node6</title>
<path fill="none" stroke="midnightblue" d="M211.301,-108.906C183.852,-98.7536 145.332,-84.5063 121.026,-75.5164"/>
<polygon fill="midnightblue" stroke="midnightblue" points="210.273,-112.257 220.866,-112.444 212.701,-105.692 210.273,-112.257"/>
</g>
<!-- Node11 -->
<g id="node11" class="node"><title>Node11</title>
<g id="a_node11"><a xlink:href="_instance_8cpp.html" target="_top" xlink:title="Contém métodos para carregar as informações do Classloader na Instância;. ">
<polygon fill="white" stroke="black" points="162.5,-56.5 162.5,-75.5 235.5,-75.5 235.5,-56.5 162.5,-56.5"/>
<text text-anchor="middle" x="199" y="-63.5" font-family="Helvetica,sans-Serif" font-size="10.00">Instance.cpp</text>
</a>
</g>
</g>
<!-- Node5&#45;&gt;Node11 -->
<g id="edge12" class="edge"><title>Node5&#45;&gt;Node11</title>
<path fill="none" stroke="midnightblue" d="M229.953,-104.144C222.113,-94.7357 212.671,-83.4046 206.293,-75.7511"/>
<polygon fill="midnightblue" stroke="midnightblue" points="227.479,-106.641 236.569,-112.083 232.856,-102.16 227.479,-106.641"/>
</g>
<!-- Node5&#45;&gt;Node12 -->
<g id="edge13" class="edge"><title>Node5&#45;&gt;Node12</title>
<path fill="none" stroke="midnightblue" d="M259.076,-104.718C267.889,-95.1997 278.666,-83.5608 285.897,-75.7511"/>
<polygon fill="midnightblue" stroke="midnightblue" points="256.482,-102.367 252.256,-112.083 261.619,-107.123 256.482,-102.367"/>
</g>
<!-- Node7 -->
<g id="node7" class="node"><title>Node7</title>
<g id="a_node7"><a xlink:href="_g_l_o_b_a_l__file_8cpp.html" target="_top" xlink:title="Contém métodos que serão utilizados de forma global, ao invés de termos que setar o mesmo para todos ...">
<polygon fill="white" stroke="black" points="0,-0.5 0,-19.5 92,-19.5 92,-0.5 0,-0.5"/>
<text text-anchor="middle" x="46" y="-7.5" font-family="Helvetica,sans-Serif" font-size="10.00">GLOBAL_file.cpp</text>
</a>
</g>
</g>
<!-- Node6&#45;&gt;Node7 -->
<g id="edge8" class="edge"><title>Node6&#45;&gt;Node7</title>
<path fill="none" stroke="midnightblue" d="M82.3206,-48.7175C73.1553,-39.1997 61.9474,-27.5608 54.427,-19.7511"/>
<polygon fill="midnightblue" stroke="midnightblue" points="79.9557,-51.3075 89.4133,-56.083 84.9979,-46.452 79.9557,-51.3075"/>
</g>
<!-- Node6&#45;&gt;Node8 -->
<g id="edge9" class="edge"><title>Node6&#45;&gt;Node8</title>
<path fill="none" stroke="midnightblue" d="M144.201,-54.1529C187.658,-43.95 251.841,-28.8809 291.726,-19.5164"/>
<polygon fill="midnightblue" stroke="midnightblue" points="143.379,-50.7504 134.444,-56.4435 144.979,-57.5651 143.379,-50.7504"/>
</g>
<!-- Node9 -->
<g id="node9" class="node"><title>Node9</title>
<g id="a_node9"><a xlink:href="_interpreter_8cpp.html" target="_top" xlink:title="Métodos que fazem a atuação do interpretador;. ">
<polygon fill="white" stroke="black" points="110,-0.5 110,-19.5 190,-19.5 190,-0.5 110,-0.5"/>
<text text-anchor="middle" x="150" y="-7.5" font-family="Helvetica,sans-Serif" font-size="10.00">Interpreter.cpp</text>
</a>
</g>
</g>
<!-- Node6&#45;&gt;Node9 -->
<g id="edge10" class="edge"><title>Node6&#45;&gt;Node9</title>
<path fill="none" stroke="midnightblue" d="M113.679,-48.7175C122.845,-39.1997 134.053,-27.5608 141.573,-19.7511"/>
<polygon fill="midnightblue" stroke="midnightblue" points="111.002,-46.452 106.587,-56.083 116.044,-51.3075 111.002,-46.452"/>
</g>
<!-- Node10 -->
<g id="node10" class="node"><title>Node10</title>
<g id="a_node10"><a xlink:href="jvm_8cpp.html" target="_top" xlink:title="Arquivo inicial em que é selecionado ou a exibição do leitor ou do interpretador dependendo da chamad...">
<polygon fill="white" stroke="black" points="208.5,-0.5 208.5,-19.5 259.5,-19.5 259.5,-0.5 208.5,-0.5"/>
<text text-anchor="middle" x="234" y="-7.5" font-family="Helvetica,sans-Serif" font-size="10.00">jvm.cpp</text>
</a>
</g>
</g>
<!-- Node6&#45;&gt;Node10 -->
<g id="edge11" class="edge"><title>Node6&#45;&gt;Node10</title>
<path fill="none" stroke="midnightblue" d="M129.135,-52.6377C154.657,-42.504 190.109,-28.4274 212.551,-19.5164"/>
<polygon fill="midnightblue" stroke="midnightblue" points="127.552,-49.5002 119.55,-56.4435 130.135,-56.0061 127.552,-49.5002"/>
</g>
<!-- Node12&#45;&gt;Node8 -->
<g id="edge14" class="edge"><title>Node12&#45;&gt;Node8</title>
<path fill="none" stroke="midnightblue" d="M304.977,-47.5656C310.827,-38.2747 317.77,-27.2484 322.49,-19.7511"/>
<polygon fill="midnightblue" stroke="midnightblue" points="301.981,-45.7558 299.614,-56.083 307.904,-49.4855 301.981,-45.7558"/>
</g>
<!-- Node12&#45;&gt;Node9 -->
<g id="edge15" class="edge"><title>Node12&#45;&gt;Node9</title>
<path fill="none" stroke="midnightblue" d="M261.749,-52.9058C234.676,-42.7536 196.683,-28.5063 172.71,-19.5164"/>
<polygon fill="midnightblue" stroke="midnightblue" points="260.591,-56.2094 271.183,-56.4435 263.048,-49.6551 260.591,-56.2094"/>
</g>
<!-- Node12&#45;&gt;Node10 -->
<g id="edge16" class="edge"><title>Node12&#45;&gt;Node10</title>
<path fill="none" stroke="midnightblue" d="M276.819,-49.5372C266.121,-39.9087 252.744,-27.8694 243.815,-19.8339"/>
<polygon fill="midnightblue" stroke="midnightblue" points="274.586,-52.2358 284.36,-56.324 279.268,-47.0327 274.586,-52.2358"/>
</g>
</g>
</svg>
