<?xml version="1.0" encoding="UTF-8" standalone="no"?>
<!DOCTYPE svg PUBLIC "-//W3C//DTD SVG 1.1//EN"
 "http://www.w3.org/Graphics/SVG/1.1/DTD/svg11.dtd">
<!-- Generated by graphviz version 2.38.0 (20140413.2041)
 -->
<!-- Title: InstructionImpl.hpp Pages: 1 -->
<svg width="854pt" height="420pt"
 viewBox="0.00 0.00 854.00 420.00" xmlns="http://www.w3.org/2000/svg" xmlns:xlink="http://www.w3.org/1999/xlink">
<g id="graph0" class="graph" transform="scale(1 1) rotate(0) translate(4 416)">
<title>InstructionImpl.hpp</title>
<polygon fill="white" stroke="none" points="-4,4 -4,-416 850,-416 850,4 -4,4"/>
<!-- Node1 -->
<g id="node1" class="node"><title>Node1</title>
<polygon fill="#bfbfbf" stroke="black" points="489,-392.5 489,-411.5 589,-411.5 589,-392.5 489,-392.5"/>
<text text-anchor="middle" x="539" y="-399.5" font-family="Helvetica,sans-Serif" font-size="10.00">InstructionImpl.hpp</text>
</g>
<!-- Node2 -->
<g id="node2" class="node"><title>Node2</title>
<g id="a_node2"><a xlink:href="_frame_8hpp.html" target="_top" xlink:title="Declarações das funções e da estrutura do Frame, utilizado para salvar resultados parciais...">
<polygon fill="white" stroke="black" points="405.5,-336.5 405.5,-355.5 468.5,-355.5 468.5,-336.5 405.5,-336.5"/>
<text text-anchor="middle" x="437" y="-343.5" font-family="Helvetica,sans-Serif" font-size="10.00">Frame.hpp</text>
</a>
</g>
</g>
<!-- Node1&#45;&gt;Node2 -->
<g id="edge1" class="edge"><title>Node1&#45;&gt;Node2</title>
<path fill="none" stroke="midnightblue" d="M522.612,-392.324C506.329,-383.703 481.133,-370.364 462.284,-360.386"/>
<polygon fill="midnightblue" stroke="midnightblue" points="463.823,-357.24 453.347,-355.655 460.548,-363.427 463.823,-357.24"/>
</g>
<!-- Node3 -->
<g id="node3" class="node"><title>Node3</title>
<polygon fill="white" stroke="#bfbfbf" points="388,-0.5 388,-19.5 434,-19.5 434,-0.5 388,-0.5"/>
<text text-anchor="middle" x="411" y="-7.5" font-family="Helvetica,sans-Serif" font-size="10.00">cstdint</text>
</g>
<!-- Node2&#45;&gt;Node3 -->
<g id="edge2" class="edge"><title>Node2&#45;&gt;Node3</title>
<path fill="none" stroke="midnightblue" d="M405.38,-343.389C328.704,-339.114 134.861,-325.988 76,-300 35.3401,-282.048 0,-279.447 0,-235 0,-235 0,-235 0,-121 0,-78.2177 32.2282,-74.0851 71,-56 125.132,-30.7503 303.25,-17.4382 377.764,-12.861"/>
<polygon fill="midnightblue" stroke="midnightblue" points="378.206,-16.3409 387.979,-12.2487 377.787,-9.35343 378.206,-16.3409"/>
</g>
<!-- Node4 -->
<g id="node4" class="node"><title>Node4</title>
<polygon fill="white" stroke="#bfbfbf" points="558.5,-224.5 558.5,-243.5 599.5,-243.5 599.5,-224.5 558.5,-224.5"/>
<text text-anchor="middle" x="579" y="-231.5" font-family="Helvetica,sans-Serif" font-size="10.00">string</text>
</g>
<!-- Node2&#45;&gt;Node4 -->
<g id="edge3" class="edge"><title>Node2&#45;&gt;Node4</title>
<path fill="none" stroke="midnightblue" d="M468.595,-343.441C499.403,-340.118 545.142,-330.054 570,-300 580.542,-287.255 582.021,-268.059 581.327,-253.829"/>
<polygon fill="midnightblue" stroke="midnightblue" points="584.799,-253.354 580.435,-243.7 577.825,-253.968 584.799,-253.354"/>
</g>
<!-- Node5 -->
<g id="node5" class="node"><title>Node5</title>
<polygon fill="white" stroke="#bfbfbf" points="80,-56.5 80,-75.5 124,-75.5 124,-56.5 80,-56.5"/>
<text text-anchor="middle" x="102" y="-63.5" font-family="Helvetica,sans-Serif" font-size="10.00">vector</text>
</g>
<!-- Node2&#45;&gt;Node5 -->
<g id="edge4" class="edge"><title>Node2&#45;&gt;Node5</title>
<path fill="none" stroke="midnightblue" d="M405.358,-343.096C310.986,-336.559 38,-311.077 38,-235 38,-235 38,-235 38,-177 38,-139.327 66.3915,-103.04 85.3544,-83.0052"/>
<polygon fill="midnightblue" stroke="midnightblue" points="88.0358,-85.2705 92.5566,-75.6885 83.0472,-80.3599 88.0358,-85.2705"/>
</g>
<!-- Node6 -->
<g id="node6" class="node"><title>Node6</title>
<polygon fill="white" stroke="#bfbfbf" points="441.5,-280.5 441.5,-299.5 482.5,-299.5 482.5,-280.5 441.5,-280.5"/>
<text text-anchor="middle" x="462" y="-287.5" font-family="Helvetica,sans-Serif" font-size="10.00">stack</text>
</g>
<!-- Node2&#45;&gt;Node6 -->
<g id="edge5" class="edge"><title>Node2&#45;&gt;Node6</title>
<path fill="none" stroke="midnightblue" d="M441.128,-336.083C444.514,-328.77 449.416,-318.181 453.619,-309.103"/>
<polygon fill="midnightblue" stroke="midnightblue" points="456.923,-310.296 457.949,-299.751 450.571,-307.355 456.923,-310.296"/>
</g>
<!-- Node7 -->
<g id="node7" class="node"><title>Node7</title>
<polygon fill="white" stroke="#bfbfbf" points="280.5,-224.5 280.5,-243.5 315.5,-243.5 315.5,-224.5 280.5,-224.5"/>
<text text-anchor="middle" x="298" y="-231.5" font-family="Helvetica,sans-Serif" font-size="10.00">map</text>
</g>
<!-- Node2&#45;&gt;Node7 -->
<g id="edge6" class="edge"><title>Node2&#45;&gt;Node7</title>
<path fill="none" stroke="midnightblue" d="M405.333,-344.064C373.678,-341.265 326.313,-331.636 302,-300 291.997,-286.985 292.054,-267.825 293.977,-253.677"/>
<polygon fill="midnightblue" stroke="midnightblue" points="297.461,-254.076 295.763,-243.618 290.569,-252.853 297.461,-254.076"/>
</g>
<!-- Node8 -->
<g id="node8" class="node"><title>Node8</title>
<polygon fill="white" stroke="#bfbfbf" points="500.5,-280.5 500.5,-299.5 561.5,-299.5 561.5,-280.5 500.5,-280.5"/>
<text text-anchor="middle" x="531" y="-287.5" font-family="Helvetica,sans-Serif" font-size="10.00">Stack.hpp</text>
</g>
<!-- Node2&#45;&gt;Node8 -->
<g id="edge7" class="edge"><title>Node2&#45;&gt;Node8</title>
<path fill="none" stroke="midnightblue" d="M452.103,-336.324C466.903,-327.822 489.694,-314.729 506.982,-304.797"/>
<polygon fill="midnightblue" stroke="midnightblue" points="509.007,-307.671 515.935,-299.655 505.52,-301.601 509.007,-307.671"/>
</g>
<!-- Node9 -->
<g id="node9" class="node"><title>Node9</title>
<g id="a_node9"><a xlink:href="_cp_info_8hpp.html" target="_top" xlink:title="Declarações das funções e dos atributos do Pool de constantes. ">
<polygon fill="white" stroke="black" points="588.5,-56.5 588.5,-75.5 653.5,-75.5 653.5,-56.5 588.5,-56.5"/>
<text text-anchor="middle" x="621" y="-63.5" font-family="Helvetica,sans-Serif" font-size="10.00">CpInfo.hpp</text>
</a>
</g>
</g>
<!-- Node2&#45;&gt;Node9 -->
<g id="edge8" class="edge"><title>Node2&#45;&gt;Node9</title>
<path fill="none" stroke="midnightblue" d="M468.599,-343.329C505.686,-339.99 567.621,-329.982 611,-300 661.11,-265.365 671.582,-246.064 690,-188 696.298,-168.146 685.449,-119.366 681,-112 673.115,-98.9438 659.883,-88.414 647.848,-80.8323"/>
<polygon fill="midnightblue" stroke="midnightblue" points="649.381,-77.673 638.988,-75.6161 645.83,-83.7054 649.381,-77.673"/>
</g>
<!-- Node11 -->
<g id="node11" class="node"><title>Node11</title>
<g id="a_node11"><a xlink:href="_method_info_8hpp.html" target="_top" xlink:title="Declarações das funções do MethodInfo estrutura responsável por guardas as informaçoes dos metodos do...">
<polygon fill="white" stroke="black" points="578,-168.5 578,-187.5 662,-187.5 662,-168.5 578,-168.5"/>
<text text-anchor="middle" x="620" y="-175.5" font-family="Helvetica,sans-Serif" font-size="10.00">MethodInfo.hpp</text>
</a>
</g>
</g>
<!-- Node2&#45;&gt;Node11 -->
<g id="edge11" class="edge"><title>Node2&#45;&gt;Node11</title>
<path fill="none" stroke="midnightblue" d="M468.556,-343.915C502.584,-341.069 556.266,-331.473 589,-300 617.051,-273.03 621.008,-224.417 620.867,-197.754"/>
<polygon fill="midnightblue" stroke="midnightblue" points="624.359,-197.406 620.599,-187.501 617.361,-197.589 624.359,-197.406"/>
</g>
<!-- Node12 -->
<g id="node12" class="node"><title>Node12</title>
<g id="a_node12"><a xlink:href="_attribute_info_8hpp.html" target="_top" xlink:title="Declarações das funções do AttributeInfo para tratamento dos atributos do arquivo ...">
<polygon fill="white" stroke="black" points="366.5,-112.5 366.5,-131.5 455.5,-131.5 455.5,-112.5 366.5,-112.5"/>
<text text-anchor="middle" x="411" y="-119.5" font-family="Helvetica,sans-Serif" font-size="10.00">AttributeInfo.hpp</text>
</a>
</g>
</g>
<!-- Node2&#45;&gt;Node12 -->
<g id="edge19" class="edge"><title>Node2&#45;&gt;Node12</title>
<path fill="none" stroke="midnightblue" d="M405.429,-339.558C374.678,-333.299 327.379,-321.07 291,-300 227.87,-263.437 200.076,-254.909 171,-188 167.457,-179.848 165.323,-174.84 171,-168 194.049,-140.227 292.61,-129.492 356.037,-125.416"/>
<polygon fill="midnightblue" stroke="midnightblue" points="356.514,-128.894 366.284,-124.795 356.091,-121.906 356.514,-128.894"/>
</g>
<!-- Node13 -->
<g id="node13" class="node"><title>Node13</title>
<g id="a_node13"><a xlink:href="_class_loader_8hpp.html" target="_top" xlink:title="Declarações das funções do ClassLoader para salvar todos os bytes de .class corretamente. ">
<polygon fill="white" stroke="black" points="342,-224.5 342,-243.5 432,-243.5 432,-224.5 342,-224.5"/>
<text text-anchor="middle" x="387" y="-231.5" font-family="Helvetica,sans-Serif" font-size="10.00">ClassLoader.hpp</text>
</a>
</g>
</g>
<!-- Node2&#45;&gt;Node13 -->
<g id="edge20" class="edge"><title>Node2&#45;&gt;Node13</title>
<path fill="none" stroke="midnightblue" d="M433.077,-336.368C424.935,-318.456 406.056,-276.923 395.158,-252.948"/>
<polygon fill="midnightblue" stroke="midnightblue" points="398.23,-251.247 390.905,-243.591 391.857,-254.143 398.23,-251.247"/>
</g>
<!-- Node21 -->
<g id="node21" class="node"><title>Node21</title>
<g id="a_node21"><a xlink:href="_instruction_8hpp.html" target="_top" xlink:title="Declarações das instruçoes referentes ao interpretador da JVM. ">
<polygon fill="white" stroke="black" points="721.5,-280.5 721.5,-299.5 802.5,-299.5 802.5,-280.5 721.5,-280.5"/>
<text text-anchor="middle" x="762" y="-287.5" font-family="Helvetica,sans-Serif" font-size="10.00">Instruction.hpp</text>
</a>
</g>
</g>
<!-- Node2&#45;&gt;Node21 -->
<g id="edge39" class="edge"><title>Node2&#45;&gt;Node21</title>
<path fill="none" stroke="midnightblue" d="M468.754,-339.724C525.194,-330.346 643.407,-310.705 711.244,-299.433"/>
<polygon fill="midnightblue" stroke="midnightblue" points="711.986,-302.858 721.277,-297.766 710.839,-295.953 711.986,-302.858"/>
</g>
<!-- Node22 -->
<g id="node22" class="node"><title>Node22</title>
<g id="a_node22"><a xlink:href="_instance_8hpp.html" target="_top" xlink:title="Declaração da struct Instance. ">
<polygon fill="white" stroke="black" points="311.5,-280.5 311.5,-299.5 384.5,-299.5 384.5,-280.5 311.5,-280.5"/>
<text text-anchor="middle" x="348" y="-287.5" font-family="Helvetica,sans-Serif" font-size="10.00">Instance.hpp</text>
</a>
</g>
</g>
<!-- Node2&#45;&gt;Node22 -->
<g id="edge42" class="edge"><title>Node2&#45;&gt;Node22</title>
<path fill="none" stroke="midnightblue" d="M417.586,-336.324C402.025,-327.979 380.674,-315.212 365.612,-305.352"/>
<polygon fill="midnightblue" stroke="midnightblue" points="367.403,-302.339 357.154,-299.655 363.492,-308.144 367.403,-302.339"/>
</g>
<!-- Node9&#45;&gt;Node3 -->
<g id="edge9" class="edge"><title>Node9&#45;&gt;Node3</title>
<path fill="none" stroke="midnightblue" d="M588.188,-56.5625C548.901,-46.4602 483.482,-29.6383 444.078,-19.5059"/>
<polygon fill="midnightblue" stroke="midnightblue" points="444.732,-16.0601 434.175,-16.9593 442.988,-22.8395 444.732,-16.0601"/>
</g>
<!-- Node10 -->
<g id="node10" class="node"><title>Node10</title>
<polygon fill="white" stroke="#bfbfbf" points="647,-0.5 647,-19.5 697,-19.5 697,-0.5 647,-0.5"/>
<text text-anchor="middle" x="672" y="-7.5" font-family="Helvetica,sans-Serif" font-size="10.00">fstream</text>
</g>
<!-- Node9&#45;&gt;Node10 -->
<g id="edge10" class="edge"><title>Node9&#45;&gt;Node10</title>
<path fill="none" stroke="midnightblue" d="M629.422,-56.083C636.848,-48.2195 647.852,-36.5688 656.812,-27.0813"/>
<polygon fill="midnightblue" stroke="midnightblue" points="659.413,-29.4244 663.735,-19.7511 654.324,-24.618 659.413,-29.4244"/>
</g>
<!-- Node11&#45;&gt;Node3 -->
<g id="edge12" class="edge"><title>Node11&#45;&gt;Node3</title>
<path fill="none" stroke="midnightblue" d="M609.058,-168.309C575.269,-141.472 472.307,-59.6935 429.731,-25.8776"/>
<polygon fill="midnightblue" stroke="midnightblue" points="431.842,-23.084 421.834,-19.6051 427.488,-28.5654 431.842,-23.084"/>
</g>
<!-- Node11&#45;&gt;Node9 -->
<g id="edge18" class="edge"><title>Node11&#45;&gt;Node9</title>
<path fill="none" stroke="midnightblue" d="M620.078,-168.368C620.24,-150.617 620.612,-109.666 620.831,-85.5974"/>
<polygon fill="midnightblue" stroke="midnightblue" points="624.331,-85.6229 620.922,-75.5914 617.331,-85.5592 624.331,-85.6229"/>
</g>
<!-- Node11&#45;&gt;Node12 -->
<g id="edge13" class="edge"><title>Node11&#45;&gt;Node12</title>
<path fill="none" stroke="midnightblue" d="M586.883,-168.444C550.882,-159.142 493.23,-144.246 453.814,-134.062"/>
<polygon fill="midnightblue" stroke="midnightblue" points="454.519,-130.629 443.962,-131.516 452.768,-137.407 454.519,-130.629"/>
</g>
<!-- Node12&#45;&gt;Node3 -->
<g id="edge14" class="edge"><title>Node12&#45;&gt;Node3</title>
<path fill="none" stroke="midnightblue" d="M411,-112.368C411,-94.617 411,-53.6664 411,-29.5974"/>
<polygon fill="midnightblue" stroke="midnightblue" points="414.5,-29.5914 411,-19.5914 407.5,-29.5915 414.5,-29.5914"/>
</g>
<!-- Node12&#45;&gt;Node5 -->
<g id="edge15" class="edge"><title>Node12&#45;&gt;Node5</title>
<path fill="none" stroke="midnightblue" d="M366.399,-113.206C303.28,-102.175 189.422,-82.2776 134.019,-72.5956"/>
<polygon fill="midnightblue" stroke="midnightblue" points="134.518,-69.1298 124.065,-70.856 133.313,-76.0253 134.518,-69.1298"/>
</g>
<!-- Node12&#45;&gt;Node9 -->
<g id="edge17" class="edge"><title>Node12&#45;&gt;Node9</title>
<path fill="none" stroke="midnightblue" d="M444.275,-112.444C480.555,-103.115 538.717,-88.1584 578.33,-77.9723"/>
<polygon fill="midnightblue" stroke="midnightblue" points="579.413,-81.3077 588.226,-75.4275 577.67,-74.5283 579.413,-81.3077"/>
</g>
<!-- Node12&#45;&gt;Node10 -->
<g id="edge16" class="edge"><title>Node12&#45;&gt;Node10</title>
<path fill="none" stroke="midnightblue" d="M431.48,-112.368C477.411,-93.0105 588.801,-46.0645 642.323,-23.5074"/>
<polygon fill="midnightblue" stroke="midnightblue" points="643.759,-26.7005 651.615,-19.5914 641.041,-20.2499 643.759,-26.7005"/>
</g>
<!-- Node13&#45;&gt;Node3 -->
<g id="edge21" class="edge"><title>Node13&#45;&gt;Node3</title>
<path fill="none" stroke="midnightblue" d="M341.804,-226.659C281.699,-217.768 181.739,-201.207 171,-188 165.392,-181.103 166.772,-175.819 171,-168 215.482,-85.7465 323.87,-39.6805 378.455,-20.9757"/>
<polygon fill="midnightblue" stroke="midnightblue" points="379.612,-24.2795 387.994,-17.7989 377.4,-17.6381 379.612,-24.2795"/>
</g>
<!-- Node13&#45;&gt;Node5 -->
<g id="edge24" class="edge"><title>Node13&#45;&gt;Node5</title>
<path fill="none" stroke="midnightblue" d="M341.912,-226.099C272.234,-215.259 145.569,-194.776 138,-188 108.698,-161.767 102.787,-112.858 101.872,-85.9522"/>
<polygon fill="midnightblue" stroke="midnightblue" points="105.367,-85.5504 101.734,-75.5979 98.3673,-85.6436 105.367,-85.5504"/>
</g>
<!-- Node13&#45;&gt;Node9 -->
<g id="edge27" class="edge"><title>Node13&#45;&gt;Node9</title>
<path fill="none" stroke="midnightblue" d="M432.029,-229.052C508.185,-221.916 655.682,-205.937 671,-188 698.172,-156.183 660.416,-107.561 637.056,-82.7514"/>
<polygon fill="midnightblue" stroke="midnightblue" points="639.562,-80.3079 630.078,-75.5847 634.547,-85.1911 639.562,-80.3079"/>
</g>
<!-- Node13&#45;&gt;Node11 -->
<g id="edge28" class="edge"><title>Node13&#45;&gt;Node11</title>
<path fill="none" stroke="midnightblue" d="M423.92,-224.444C464.395,-215.063 529.421,-199.993 573.384,-189.804"/>
<polygon fill="midnightblue" stroke="midnightblue" points="574.302,-193.184 583.253,-187.516 572.721,-186.365 574.302,-193.184"/>
</g>
<!-- Node13&#45;&gt;Node12 -->
<g id="edge38" class="edge"><title>Node13&#45;&gt;Node12</title>
<path fill="none" stroke="midnightblue" d="M373.212,-224.386C355.753,-212.328 329.274,-189.477 341,-168 348.819,-153.679 363.362,-143.236 377.176,-136.036"/>
<polygon fill="midnightblue" stroke="midnightblue" points="379.019,-139.034 386.531,-131.562 375.999,-132.719 379.019,-139.034"/>
</g>
<!-- Node14 -->
<g id="node14" class="node"><title>Node14</title>
<polygon fill="white" stroke="#bfbfbf" points="442,-168.5 442,-187.5 496,-187.5 496,-168.5 442,-168.5"/>
<text text-anchor="middle" x="469" y="-175.5" font-family="Helvetica,sans-Serif" font-size="10.00">iostream</text>
</g>
<!-- Node13&#45;&gt;Node14 -->
<g id="edge22" class="edge"><title>Node13&#45;&gt;Node14</title>
<path fill="none" stroke="midnightblue" d="M400.175,-224.324C412.847,-215.979 432.233,-203.212 447.206,-193.352"/>
<polygon fill="midnightblue" stroke="midnightblue" points="449.431,-196.078 455.858,-187.655 445.581,-190.231 449.431,-196.078"/>
</g>
<!-- Node15 -->
<g id="node15" class="node"><title>Node15</title>
<polygon fill="white" stroke="#bfbfbf" points="514,-168.5 514,-187.5 560,-187.5 560,-168.5 514,-168.5"/>
<text text-anchor="middle" x="537" y="-175.5" font-family="Helvetica,sans-Serif" font-size="10.00">cstring</text>
</g>
<!-- Node13&#45;&gt;Node15 -->
<g id="edge23" class="edge"><title>Node13&#45;&gt;Node15</title>
<path fill="none" stroke="midnightblue" d="M410.768,-224.444C436.041,-215.345 476.18,-200.895 504.397,-190.737"/>
<polygon fill="midnightblue" stroke="midnightblue" points="505.613,-194.019 513.836,-187.339 503.242,-187.433 505.613,-194.019"/>
</g>
<!-- Node16 -->
<g id="node16" class="node"><title>Node16</title>
<polygon fill="white" stroke="#bfbfbf" points="180,-168.5 180,-187.5 232,-187.5 232,-168.5 180,-168.5"/>
<text text-anchor="middle" x="206" y="-175.5" font-family="Helvetica,sans-Serif" font-size="10.00">memory</text>
</g>
<!-- Node13&#45;&gt;Node16 -->
<g id="edge25" class="edge"><title>Node13&#45;&gt;Node16</title>
<path fill="none" stroke="midnightblue" d="M358.32,-224.444C326.747,-215.024 275.946,-199.868 241.789,-189.677"/>
<polygon fill="midnightblue" stroke="midnightblue" points="242.778,-186.32 232.195,-186.815 240.777,-193.028 242.778,-186.32"/>
</g>
<!-- Node17 -->
<g id="node17" class="node"><title>Node17</title>
<polygon fill="white" stroke="#bfbfbf" points="250.5,-168.5 250.5,-187.5 293.5,-187.5 293.5,-168.5 250.5,-168.5"/>
<text text-anchor="middle" x="272" y="-175.5" font-family="Helvetica,sans-Serif" font-size="10.00">cstdio</text>
</g>
<!-- Node13&#45;&gt;Node17 -->
<g id="edge26" class="edge"><title>Node13&#45;&gt;Node17</title>
<path fill="none" stroke="midnightblue" d="M368.778,-224.444C350.104,-215.675 320.844,-201.935 299.383,-191.858"/>
<polygon fill="midnightblue" stroke="midnightblue" points="300.676,-188.599 290.137,-187.516 297.701,-194.935 300.676,-188.599"/>
</g>
<!-- Node18 -->
<g id="node18" class="node"><title>Node18</title>
<g id="a_node18"><a xlink:href="_interface_info_8hpp.html" target="_top" xlink:title="Declarações das funções e atributos de InterfaceInfo. ">
<polygon fill="white" stroke="black" points="756,-112.5 756,-131.5 846,-131.5 846,-112.5 756,-112.5"/>
<text text-anchor="middle" x="801" y="-119.5" font-family="Helvetica,sans-Serif" font-size="10.00">InterfaceInfo.hpp</text>
</a>
</g>
</g>
<!-- Node13&#45;&gt;Node18 -->
<g id="edge29" class="edge"><title>Node13&#45;&gt;Node18</title>
<path fill="none" stroke="midnightblue" d="M432.189,-229.089C507.51,-222.154 655.269,-206.66 704,-188 734.561,-176.297 765.151,-153.507 783.581,-138.265"/>
<polygon fill="midnightblue" stroke="midnightblue" points="786.004,-140.8 791.374,-131.666 781.481,-135.458 786.004,-140.8"/>
</g>
<!-- Node20 -->
<g id="node20" class="node"><title>Node20</title>
<g id="a_node20"><a xlink:href="_field_info_8hpp.html" target="_top" xlink:title="Declarações das funções do FieldInfo para tratamento dos fields do arquivo .class. ">
<polygon fill="white" stroke="black" points="350.5,-168.5 350.5,-187.5 423.5,-187.5 423.5,-168.5 350.5,-168.5"/>
<text text-anchor="middle" x="387" y="-175.5" font-family="Helvetica,sans-Serif" font-size="10.00">FieldInfo.hpp</text>
</a>
</g>
</g>
<!-- Node13&#45;&gt;Node20 -->
<g id="edge34" class="edge"><title>Node13&#45;&gt;Node20</title>
<path fill="none" stroke="midnightblue" d="M387,-224.083C387,-217.006 387,-206.861 387,-197.986"/>
<polygon fill="midnightblue" stroke="midnightblue" points="390.5,-197.751 387,-187.751 383.5,-197.751 390.5,-197.751"/>
</g>
<!-- Node18&#45;&gt;Node3 -->
<g id="edge31" class="edge"><title>Node18&#45;&gt;Node3</title>
<path fill="none" stroke="midnightblue" d="M786.099,-112.441C761.205,-98.5126 709.228,-70.9934 662,-56 586.129,-31.9133 493.013,-19.4626 444.305,-14.1849"/>
<polygon fill="midnightblue" stroke="midnightblue" points="444.636,-10.7004 434.325,-13.1372 443.905,-17.6622 444.636,-10.7004"/>
</g>
<!-- Node18&#45;&gt;Node10 -->
<g id="edge30" class="edge"><title>Node18&#45;&gt;Node10</title>
<path fill="none" stroke="midnightblue" d="M789.225,-112.308C777.348,-103.437 758.589,-89.1457 743,-76 723.777,-59.7893 702.623,-40.1792 688.448,-26.7662"/>
<polygon fill="midnightblue" stroke="midnightblue" points="690.634,-24.0148 680.977,-19.6574 685.809,-29.0862 690.634,-24.0148"/>
</g>
<!-- Node19 -->
<g id="node19" class="node"><title>Node19</title>
<g id="a_node19"><a xlink:href="_byte_reader_8hpp.html" target="_top" xlink:title="Declarações das funções do ByteReader para leitura dos bytes no arquivo .class. ">
<polygon fill="white" stroke="black" points="752.5,-56.5 752.5,-75.5 839.5,-75.5 839.5,-56.5 752.5,-56.5"/>
<text text-anchor="middle" x="796" y="-63.5" font-family="Helvetica,sans-Serif" font-size="10.00">ByteReader.hpp</text>
</a>
</g>
</g>
<!-- Node18&#45;&gt;Node19 -->
<g id="edge32" class="edge"><title>Node18&#45;&gt;Node19</title>
<path fill="none" stroke="midnightblue" d="M800.174,-112.083C799.519,-105.006 798.58,-94.8611 797.758,-85.9865"/>
<polygon fill="midnightblue" stroke="midnightblue" points="801.217,-85.3858 796.81,-75.7511 794.247,-86.0312 801.217,-85.3858"/>
</g>
<!-- Node19&#45;&gt;Node10 -->
<g id="edge33" class="edge"><title>Node19&#45;&gt;Node10</title>
<path fill="none" stroke="midnightblue" d="M776.352,-56.4435C756.035,-47.5961 724.097,-33.6875 700.902,-23.5865"/>
<polygon fill="midnightblue" stroke="midnightblue" points="702.122,-20.3002 691.556,-19.5164 699.327,-26.7181 702.122,-20.3002"/>
</g>
<!-- Node20&#45;&gt;Node3 -->
<g id="edge37" class="edge"><title>Node20&#45;&gt;Node3</title>
<path fill="none" stroke="midnightblue" d="M378.786,-168.182C371.456,-159.663 361.245,-146.019 357,-132 354.424,-123.493 354.84,-120.622 357,-112 365.015,-80.01 385.311,-47.0762 398.611,-27.8497"/>
<polygon fill="midnightblue" stroke="midnightblue" points="401.551,-29.7546 404.493,-19.5765 395.846,-25.6983 401.551,-29.7546"/>
</g>
<!-- Node20&#45;&gt;Node9 -->
<g id="edge35" class="edge"><title>Node20&#45;&gt;Node9</title>
<path fill="none" stroke="midnightblue" d="M405.362,-168.368C446.285,-149.131 545.167,-102.648 593.491,-79.9314"/>
<polygon fill="midnightblue" stroke="midnightblue" points="595.163,-83.0132 602.724,-75.5914 592.185,-76.6782 595.163,-83.0132"/>
</g>
<!-- Node20&#45;&gt;Node12 -->
<g id="edge36" class="edge"><title>Node20&#45;&gt;Node12</title>
<path fill="none" stroke="midnightblue" d="M390.963,-168.083C394.213,-160.77 398.919,-150.181 402.954,-141.103"/>
<polygon fill="midnightblue" stroke="midnightblue" points="406.248,-142.311 407.111,-131.751 399.851,-139.468 406.248,-142.311"/>
</g>
<!-- Node21&#45;&gt;Node1 -->
<g id="edge41" class="edge"><title>Node21&#45;&gt;Node1</title>
<path fill="none" stroke="midnightblue" d="M744.583,-299.591C705.741,-318.751 611.824,-365.078 565.601,-387.878"/>
<polygon fill="midnightblue" stroke="midnightblue" points="563.918,-384.806 556.498,-392.368 567.015,-391.084 563.918,-384.806"/>
</g>
<!-- Node21&#45;&gt;Node4 -->
<g id="edge40" class="edge"><title>Node21&#45;&gt;Node4</title>
<path fill="none" stroke="midnightblue" d="M733.003,-280.444C699.301,-270.499 643.927,-254.159 609.568,-244.02"/>
<polygon fill="midnightblue" stroke="midnightblue" points="610.208,-240.56 599.626,-241.086 608.227,-247.274 610.208,-240.56"/>
</g>
<!-- Node22&#45;&gt;Node2 -->
<g id="edge46" class="edge"><title>Node22&#45;&gt;Node2</title>
<path fill="none" stroke="midnightblue" d="M367.374,-299.655C382.925,-307.992 404.276,-320.757 419.349,-330.622"/>
<polygon fill="midnightblue" stroke="midnightblue" points="417.566,-333.641 427.815,-336.324 421.476,-327.835 417.566,-333.641"/>
</g>
<!-- Node22&#45;&gt;Node4 -->
<g id="edge44" class="edge"><title>Node22&#45;&gt;Node4</title>
<path fill="none" stroke="midnightblue" d="M384.603,-280.444C429.872,-269.861 506.117,-252.038 548.415,-242.15"/>
<polygon fill="midnightblue" stroke="midnightblue" points="549.456,-245.501 558.397,-239.816 547.863,-238.684 549.456,-245.501"/>
</g>
<!-- Node22&#45;&gt;Node7 -->
<g id="edge43" class="edge"><title>Node22&#45;&gt;Node7</title>
<path fill="none" stroke="midnightblue" d="M339.744,-280.083C332.535,-272.298 321.89,-260.801 313.154,-251.367"/>
<polygon fill="midnightblue" stroke="midnightblue" points="315.465,-248.711 306.103,-243.751 310.329,-253.467 315.465,-248.711"/>
</g>
<!-- Node22&#45;&gt;Node13 -->
<g id="edge45" class="edge"><title>Node22&#45;&gt;Node13</title>
<path fill="none" stroke="midnightblue" d="M354.44,-280.083C359.949,-272.455 368.031,-261.264 374.765,-251.941"/>
<polygon fill="midnightblue" stroke="midnightblue" points="377.662,-253.907 380.68,-243.751 371.987,-249.809 377.662,-253.907"/>
</g>
</g>
</svg>
