<?xml version="1.0" encoding="UTF-8" standalone="no"?>
<!DOCTYPE svg PUBLIC "-//W3C//DTD SVG 1.1//EN"
 "http://www.w3.org/Graphics/SVG/1.1/DTD/svg11.dtd">
<!-- Generated by graphviz version 2.38.0 (20140413.2041)
 -->
<!-- Title: Interpreter.cpp Pages: 1 -->
<svg width="1033pt" height="476pt"
 viewBox="0.00 0.00 1033.10 476.00" xmlns="http://www.w3.org/2000/svg" xmlns:xlink="http://www.w3.org/1999/xlink">
<g id="graph0" class="graph" transform="scale(1 1) rotate(0) translate(4 472)">
<title>Interpreter.cpp</title>
<polygon fill="white" stroke="none" points="-4,4 -4,-472 1029.1,-472 1029.1,4 -4,4"/>
<!-- Node1 -->
<g id="node1" class="node"><title>Node1</title>
<polygon fill="#bfbfbf" stroke="black" points="785,-448.5 785,-467.5 865,-467.5 865,-448.5 785,-448.5"/>
<text text-anchor="middle" x="825" y="-455.5" font-family="Helvetica,sans-Serif" font-size="10.00">Interpreter.cpp</text>
</g>
<!-- Node2 -->
<g id="node2" class="node"><title>Node2</title>
<g id="a_node2"><a xlink:href="_interpreter_8hpp.html" target="_top" xlink:title="Declarações das funções e atributos do Interpretador para interpretar o que foi lido do ...">
<polygon fill="white" stroke="black" points="157,-392.5 157,-411.5 237,-411.5 237,-392.5 157,-392.5"/>
<text text-anchor="middle" x="197" y="-399.5" font-family="Helvetica,sans-Serif" font-size="10.00">Interpreter.hpp</text>
</a>
</g>
</g>
<!-- Node1&#45;&gt;Node2 -->
<g id="edge1" class="edge"><title>Node1&#45;&gt;Node2</title>
<path fill="none" stroke="midnightblue" d="M784.76,-453.54C674.675,-444.074 368.693,-417.763 247.432,-407.337"/>
<polygon fill="midnightblue" stroke="midnightblue" points="247.573,-403.836 237.31,-406.466 246.973,-410.81 247.573,-403.836"/>
</g>
<!-- Node5 -->
<g id="node5" class="node"><title>Node5</title>
<polygon fill="white" stroke="#bfbfbf" points="719,-168.5 719,-187.5 773,-187.5 773,-168.5 719,-168.5"/>
<text text-anchor="middle" x="746" y="-175.5" font-family="Helvetica,sans-Serif" font-size="10.00">iostream</text>
</g>
<!-- Node1&#45;&gt;Node5 -->
<g id="edge61" class="edge"><title>Node1&#45;&gt;Node5</title>
<path fill="none" stroke="midnightblue" d="M825.943,-448.299C829.009,-416.211 836.204,-302.313 794,-224 787.629,-212.178 776.987,-201.724 767.34,-193.875"/>
<polygon fill="midnightblue" stroke="midnightblue" points="769.318,-190.981 759.251,-187.678 765.061,-196.538 769.318,-190.981"/>
</g>
<!-- Node18 -->
<g id="node18" class="node"><title>Node18</title>
<polygon fill="white" stroke="#bfbfbf" points="743.5,-224.5 743.5,-243.5 784.5,-243.5 784.5,-224.5 743.5,-224.5"/>
<text text-anchor="middle" x="764" y="-231.5" font-family="Helvetica,sans-Serif" font-size="10.00">string</text>
</g>
<!-- Node1&#45;&gt;Node18 -->
<g id="edge62" class="edge"><title>Node1&#45;&gt;Node18</title>
<path fill="none" stroke="midnightblue" d="M822.609,-448.297C813.614,-415.563 781.689,-299.375 769.129,-253.666"/>
<polygon fill="midnightblue" stroke="midnightblue" points="772.466,-252.599 766.441,-243.884 765.716,-254.454 772.466,-252.599"/>
</g>
<!-- Node25 -->
<g id="node25" class="node"><title>Node25</title>
<g id="a_node25"><a xlink:href="_cp_attribute_interface_8hpp.html" target="_top" xlink:title="Declarações da interface entre ConstantPool e AttributeInfo para traduzir as strings UTF8...">
<polygon fill="white" stroke="black" points="872.5,-280.5 872.5,-299.5 995.5,-299.5 995.5,-280.5 872.5,-280.5"/>
<text text-anchor="middle" x="934" y="-287.5" font-family="Helvetica,sans-Serif" font-size="10.00">CpAttributeInterface.hpp</text>
</a>
</g>
</g>
<!-- Node1&#45;&gt;Node25 -->
<g id="edge54" class="edge"><title>Node1&#45;&gt;Node25</title>
<path fill="none" stroke="midnightblue" d="M831.766,-448.171C838.576,-439.194 849.289,-424.821 858,-412 882.519,-375.912 909.219,-332.3 923.531,-308.535"/>
<polygon fill="midnightblue" stroke="midnightblue" points="926.721,-310.02 928.864,-299.644 920.718,-306.42 926.721,-310.02"/>
</g>
<!-- Node26 -->
<g id="node26" class="node"><title>Node26</title>
<g id="a_node26"><a xlink:href="_g_l_o_b_a_l__file_8hpp.html" target="_top" xlink:title="Armazenas classes estáticas para serem usadas por todo o código. ">
<polygon fill="white" stroke="black" points="241,-336.5 241,-355.5 333,-355.5 333,-336.5 241,-336.5"/>
<text text-anchor="middle" x="287" y="-343.5" font-family="Helvetica,sans-Serif" font-size="10.00">GLOBAL_file.hpp</text>
</a>
</g>
</g>
<!-- Node1&#45;&gt;Node26 -->
<g id="edge58" class="edge"><title>Node1&#45;&gt;Node26</title>
<path fill="none" stroke="midnightblue" d="M784.563,-448.732C688.212,-429.032 445.19,-379.344 338.533,-357.536"/>
<polygon fill="midnightblue" stroke="midnightblue" points="339.145,-354.089 328.646,-355.515 337.742,-360.947 339.145,-354.089"/>
</g>
<!-- Node27 -->
<g id="node27" class="node"><title>Node27</title>
<polygon fill="white" stroke="#bfbfbf" points="910,-392.5 910,-411.5 956,-411.5 956,-392.5 910,-392.5"/>
<text text-anchor="middle" x="933" y="-399.5" font-family="Helvetica,sans-Serif" font-size="10.00">stdio.h</text>
</g>
<!-- Node1&#45;&gt;Node27 -->
<g id="edge60" class="edge"><title>Node1&#45;&gt;Node27</title>
<path fill="none" stroke="midnightblue" d="M842.352,-448.324C859.672,-439.664 886.515,-426.242 906.502,-416.249"/>
<polygon fill="midnightblue" stroke="midnightblue" points="908.312,-419.257 915.691,-411.655 905.181,-412.996 908.312,-419.257"/>
</g>
<!-- Node3 -->
<g id="node3" class="node"><title>Node3</title>
<g id="a_node3"><a xlink:href="_class_loader_8hpp.html" target="_top" xlink:title="Declarações das funções do ClassLoader para salvar todos os bytes de .class corretamente. ">
<polygon fill="white" stroke="black" points="238,-224.5 238,-243.5 328,-243.5 328,-224.5 238,-224.5"/>
<text text-anchor="middle" x="283" y="-231.5" font-family="Helvetica,sans-Serif" font-size="10.00">ClassLoader.hpp</text>
</a>
</g>
</g>
<!-- Node2&#45;&gt;Node3 -->
<g id="edge2" class="edge"><title>Node2&#45;&gt;Node3</title>
<path fill="none" stroke="midnightblue" d="M188.488,-392.359C168.932,-371.447 124.451,-317.101 151,-280 168.443,-255.625 199.884,-244.301 227.706,-239.106"/>
<polygon fill="midnightblue" stroke="midnightblue" points="228.458,-242.53 237.76,-237.457 227.325,-235.622 228.458,-242.53"/>
</g>
<!-- Node6 -->
<g id="node6" class="node"><title>Node6</title>
<polygon fill="white" stroke="#bfbfbf" points="0,-168.5 0,-187.5 46,-187.5 46,-168.5 0,-168.5"/>
<text text-anchor="middle" x="23" y="-175.5" font-family="Helvetica,sans-Serif" font-size="10.00">cstring</text>
</g>
<!-- Node2&#45;&gt;Node6 -->
<g id="edge51" class="edge"><title>Node2&#45;&gt;Node6</title>
<path fill="none" stroke="midnightblue" d="M156.807,-397.343C127.593,-392.555 89.2459,-381.504 66,-356 25.0429,-311.065 21.352,-233.788 22.0528,-198.094"/>
<polygon fill="midnightblue" stroke="midnightblue" points="25.5647,-197.805 22.4113,-187.691 18.5689,-197.564 25.5647,-197.805"/>
</g>
<!-- Node17 -->
<g id="node17" class="node"><title>Node17</title>
<g id="a_node17"><a xlink:href="_frame_8hpp.html" target="_top" xlink:title="Declarações das funções e da estrutura do Frame, utilizado para salvar resultados parciais...">
<polygon fill="white" stroke="black" points="366.5,-336.5 366.5,-355.5 429.5,-355.5 429.5,-336.5 366.5,-336.5"/>
<text text-anchor="middle" x="398" y="-343.5" font-family="Helvetica,sans-Serif" font-size="10.00">Frame.hpp</text>
</a>
</g>
</g>
<!-- Node2&#45;&gt;Node17 -->
<g id="edge30" class="edge"><title>Node2&#45;&gt;Node17</title>
<path fill="none" stroke="midnightblue" d="M228.849,-392.444C263.398,-383.162 318.682,-368.309 356.583,-358.127"/>
<polygon fill="midnightblue" stroke="midnightblue" points="357.551,-361.491 366.3,-355.516 355.734,-354.731 357.551,-361.491"/>
</g>
<!-- Node2&#45;&gt;Node18 -->
<g id="edge53" class="edge"><title>Node2&#45;&gt;Node18</title>
<path fill="none" stroke="midnightblue" d="M237.378,-398.293C348.965,-390.077 658.415,-362.089 736,-300 750.219,-288.621 757.359,-268.629 760.851,-253.812"/>
<polygon fill="midnightblue" stroke="midnightblue" points="764.34,-254.211 762.867,-243.719 757.476,-252.84 764.34,-254.211"/>
</g>
<!-- Node20 -->
<g id="node20" class="node"><title>Node20</title>
<polygon fill="white" stroke="#bfbfbf" points="114.5,-224.5 114.5,-243.5 149.5,-243.5 149.5,-224.5 114.5,-224.5"/>
<text text-anchor="middle" x="132" y="-231.5" font-family="Helvetica,sans-Serif" font-size="10.00">map</text>
</g>
<!-- Node2&#45;&gt;Node20 -->
<g id="edge52" class="edge"><title>Node2&#45;&gt;Node20</title>
<path fill="none" stroke="midnightblue" d="M156.754,-397.019C130.148,-392.06 97.126,-380.936 80,-356 60.8772,-328.157 65.9584,-310.721 80,-280 85.7773,-267.36 97.0523,-256.911 107.631,-249.274"/>
<polygon fill="midnightblue" stroke="midnightblue" points="109.849,-252.001 116.217,-243.533 105.958,-246.182 109.849,-252.001"/>
</g>
<!-- Node24 -->
<g id="node24" class="node"><title>Node24</title>
<g id="a_node24"><a xlink:href="_instance_8hpp.html" target="_top" xlink:title="Declaração da struct Instance. ">
<polygon fill="white" stroke="black" points="160.5,-280.5 160.5,-299.5 233.5,-299.5 233.5,-280.5 160.5,-280.5"/>
<text text-anchor="middle" x="197" y="-287.5" font-family="Helvetica,sans-Serif" font-size="10.00">Instance.hpp</text>
</a>
</g>
</g>
<!-- Node2&#45;&gt;Node24 -->
<g id="edge50" class="edge"><title>Node2&#45;&gt;Node24</title>
<path fill="none" stroke="midnightblue" d="M197,-392.368C197,-374.617 197,-333.666 197,-309.597"/>
<polygon fill="midnightblue" stroke="midnightblue" points="200.5,-309.591 197,-299.591 193.5,-309.591 200.5,-309.591"/>
</g>
<!-- Node4 -->
<g id="node4" class="node"><title>Node4</title>
<polygon fill="white" stroke="#bfbfbf" points="367,-0.5 367,-19.5 413,-19.5 413,-0.5 367,-0.5"/>
<text text-anchor="middle" x="390" y="-7.5" font-family="Helvetica,sans-Serif" font-size="10.00">cstdint</text>
</g>
<!-- Node3&#45;&gt;Node4 -->
<g id="edge3" class="edge"><title>Node3&#45;&gt;Node4</title>
<path fill="none" stroke="midnightblue" d="M289.225,-224.241C297.271,-211.824 309.618,-188.348 304,-168 289.24,-114.544 216.287,-100.779 249,-56 273.483,-22.4869 323.201,-13.3494 356.564,-11.1696"/>
<polygon fill="midnightblue" stroke="midnightblue" points="356.947,-14.6554 366.769,-10.6842 356.614,-7.66333 356.947,-14.6554"/>
</g>
<!-- Node3&#45;&gt;Node5 -->
<g id="edge4" class="edge"><title>Node3&#45;&gt;Node5</title>
<path fill="none" stroke="midnightblue" d="M328.237,-227.724C419.559,-217.073 624.401,-193.182 708.685,-183.352"/>
<polygon fill="midnightblue" stroke="midnightblue" points="709.293,-186.805 718.82,-182.17 708.482,-179.852 709.293,-186.805"/>
</g>
<!-- Node3&#45;&gt;Node6 -->
<g id="edge5" class="edge"><title>Node3&#45;&gt;Node6</title>
<path fill="none" stroke="midnightblue" d="M240.572,-224.458C196.428,-215.528 125.318,-201.029 64,-188 61.5051,-187.47 58.926,-186.916 56.3324,-186.356"/>
<polygon fill="midnightblue" stroke="midnightblue" points="56.9202,-182.902 46.4045,-184.194 55.4309,-189.742 56.9202,-182.902"/>
</g>
<!-- Node7 -->
<g id="node7" class="node"><title>Node7</title>
<polygon fill="white" stroke="#bfbfbf" points="625,-56.5 625,-75.5 669,-75.5 669,-56.5 625,-56.5"/>
<text text-anchor="middle" x="647" y="-63.5" font-family="Helvetica,sans-Serif" font-size="10.00">vector</text>
</g>
<!-- Node3&#45;&gt;Node7 -->
<g id="edge6" class="edge"><title>Node3&#45;&gt;Node7</title>
<path fill="none" stroke="midnightblue" d="M328.265,-230.695C399.96,-226.281 535.561,-214.605 575,-188 611.69,-163.249 632.497,-112.984 641.534,-85.6753"/>
<polygon fill="midnightblue" stroke="midnightblue" points="644.971,-86.4102 644.611,-75.8215 638.289,-84.3242 644.971,-86.4102"/>
</g>
<!-- Node8 -->
<g id="node8" class="node"><title>Node8</title>
<polygon fill="white" stroke="#bfbfbf" points="182,-168.5 182,-187.5 234,-187.5 234,-168.5 182,-168.5"/>
<text text-anchor="middle" x="208" y="-175.5" font-family="Helvetica,sans-Serif" font-size="10.00">memory</text>
</g>
<!-- Node3&#45;&gt;Node8 -->
<g id="edge7" class="edge"><title>Node3&#45;&gt;Node8</title>
<path fill="none" stroke="midnightblue" d="M270.95,-224.324C259.537,-216.107 242.169,-203.602 228.565,-193.807"/>
<polygon fill="midnightblue" stroke="midnightblue" points="230.43,-190.837 220.269,-187.834 226.34,-196.517 230.43,-190.837"/>
</g>
<!-- Node9 -->
<g id="node9" class="node"><title>Node9</title>
<polygon fill="white" stroke="#bfbfbf" points="252.5,-168.5 252.5,-187.5 295.5,-187.5 295.5,-168.5 252.5,-168.5"/>
<text text-anchor="middle" x="274" y="-175.5" font-family="Helvetica,sans-Serif" font-size="10.00">cstdio</text>
</g>
<!-- Node3&#45;&gt;Node9 -->
<g id="edge8" class="edge"><title>Node3&#45;&gt;Node9</title>
<path fill="none" stroke="midnightblue" d="M281.514,-224.083C280.321,-216.927 278.606,-206.635 277.115,-197.691"/>
<polygon fill="midnightblue" stroke="midnightblue" points="280.555,-197.04 275.459,-187.751 273.65,-198.19 280.555,-197.04"/>
</g>
<!-- Node10 -->
<g id="node10" class="node"><title>Node10</title>
<g id="a_node10"><a xlink:href="_cp_info_8hpp.html" target="_top" xlink:title="Declarações das funções e dos atributos do Pool de constantes. ">
<polygon fill="white" stroke="black" points="258.5,-56.5 258.5,-75.5 323.5,-75.5 323.5,-56.5 258.5,-56.5"/>
<text text-anchor="middle" x="291" y="-63.5" font-family="Helvetica,sans-Serif" font-size="10.00">CpInfo.hpp</text>
</a>
</g>
</g>
<!-- Node3&#45;&gt;Node10 -->
<g id="edge9" class="edge"><title>Node3&#45;&gt;Node10</title>
<path fill="none" stroke="midnightblue" d="M237.724,-225.045C201.423,-216.249 158.715,-199.03 173,-168 191.743,-127.287 235.889,-96.8652 264.551,-80.5334"/>
<polygon fill="midnightblue" stroke="midnightblue" points="266.547,-83.4299 273.619,-75.5404 263.171,-77.2981 266.547,-83.4299"/>
</g>
<!-- Node12 -->
<g id="node12" class="node"><title>Node12</title>
<g id="a_node12"><a xlink:href="_method_info_8hpp.html" target="_top" xlink:title="Declarações das funções do MethodInfo estrutura responsável por guardas as informaçoes dos metodos do...">
<polygon fill="white" stroke="black" points="482,-168.5 482,-187.5 566,-187.5 566,-168.5 482,-168.5"/>
<text text-anchor="middle" x="524" y="-175.5" font-family="Helvetica,sans-Serif" font-size="10.00">MethodInfo.hpp</text>
</a>
</g>
</g>
<!-- Node3&#45;&gt;Node12 -->
<g id="edge12" class="edge"><title>Node3&#45;&gt;Node12</title>
<path fill="none" stroke="midnightblue" d="M321.187,-224.444C363.141,-215.043 430.594,-199.929 476.071,-189.739"/>
<polygon fill="midnightblue" stroke="midnightblue" points="476.999,-193.118 485.991,-187.516 475.468,-186.288 476.999,-193.118"/>
</g>
<!-- Node13 -->
<g id="node13" class="node"><title>Node13</title>
<g id="a_node13"><a xlink:href="_attribute_info_8hpp.html" target="_top" xlink:title="Declarações das funções do AttributeInfo para tratamento dos atributos do arquivo ...">
<polygon fill="white" stroke="black" points="417.5,-112.5 417.5,-131.5 506.5,-131.5 506.5,-112.5 417.5,-112.5"/>
<text text-anchor="middle" x="462" y="-119.5" font-family="Helvetica,sans-Serif" font-size="10.00">AttributeInfo.hpp</text>
</a>
</g>
</g>
<!-- Node3&#45;&gt;Node13 -->
<g id="edge29" class="edge"><title>Node3&#45;&gt;Node13</title>
<path fill="none" stroke="midnightblue" d="M328.203,-229.631C361.078,-224.989 404.769,-213.994 434,-188 447.609,-175.898 454.846,-156.02 458.527,-141.428"/>
<polygon fill="midnightblue" stroke="midnightblue" points="461.977,-142.032 460.695,-131.516 455.139,-140.536 461.977,-142.032"/>
</g>
<!-- Node14 -->
<g id="node14" class="node"><title>Node14</title>
<g id="a_node14"><a xlink:href="_interface_info_8hpp.html" target="_top" xlink:title="Declarações das funções e atributos de InterfaceInfo. ">
<polygon fill="white" stroke="black" points="33,-112.5 33,-131.5 123,-131.5 123,-112.5 33,-112.5"/>
<text text-anchor="middle" x="78" y="-119.5" font-family="Helvetica,sans-Serif" font-size="10.00">InterfaceInfo.hpp</text>
</a>
</g>
</g>
<!-- Node3&#45;&gt;Node14 -->
<g id="edge20" class="edge"><title>Node3&#45;&gt;Node14</title>
<path fill="none" stroke="midnightblue" d="M237.675,-224.866C208.245,-218.156 169.936,-206.641 140,-188 119.828,-175.439 101.704,-154.803 90.3366,-140.154"/>
<polygon fill="midnightblue" stroke="midnightblue" points="92.9725,-137.835 84.1739,-131.933 87.3714,-142.034 92.9725,-137.835"/>
</g>
<!-- Node16 -->
<g id="node16" class="node"><title>Node16</title>
<g id="a_node16"><a xlink:href="_field_info_8hpp.html" target="_top" xlink:title="Declarações das funções do FieldInfo para tratamento dos fields do arquivo .class. ">
<polygon fill="white" stroke="black" points="352.5,-168.5 352.5,-187.5 425.5,-187.5 425.5,-168.5 352.5,-168.5"/>
<text text-anchor="middle" x="389" y="-175.5" font-family="Helvetica,sans-Serif" font-size="10.00">FieldInfo.hpp</text>
</a>
</g>
</g>
<!-- Node3&#45;&gt;Node16 -->
<g id="edge25" class="edge"><title>Node3&#45;&gt;Node16</title>
<path fill="none" stroke="midnightblue" d="M300.031,-224.324C317.03,-215.664 343.376,-202.242 362.993,-192.249"/>
<polygon fill="midnightblue" stroke="midnightblue" points="364.69,-195.312 372.012,-187.655 361.512,-189.075 364.69,-195.312"/>
</g>
<!-- Node10&#45;&gt;Node4 -->
<g id="edge10" class="edge"><title>Node10&#45;&gt;Node4</title>
<path fill="none" stroke="midnightblue" d="M306.906,-56.324C322.638,-47.7428 346.942,-34.486 365.209,-24.5224"/>
<polygon fill="midnightblue" stroke="midnightblue" points="367.03,-27.5157 374.133,-19.6545 363.678,-21.3704 367.03,-27.5157"/>
</g>
<!-- Node11 -->
<g id="node11" class="node"><title>Node11</title>
<polygon fill="white" stroke="#bfbfbf" points="197,-0.5 197,-19.5 247,-19.5 247,-0.5 197,-0.5"/>
<text text-anchor="middle" x="222" y="-7.5" font-family="Helvetica,sans-Serif" font-size="10.00">fstream</text>
</g>
<!-- Node10&#45;&gt;Node11 -->
<g id="edge11" class="edge"><title>Node10&#45;&gt;Node11</title>
<path fill="none" stroke="midnightblue" d="M279.914,-56.324C269.514,-48.1849 253.739,-35.8395 241.278,-26.0874"/>
<polygon fill="midnightblue" stroke="midnightblue" points="243.32,-23.2407 233.288,-19.8339 239.006,-28.7533 243.32,-23.2407"/>
</g>
<!-- Node12&#45;&gt;Node4 -->
<g id="edge13" class="edge"><title>Node12&#45;&gt;Node4</title>
<path fill="none" stroke="midnightblue" d="M524.736,-168.371C525.447,-155.289 525.201,-130.051 515,-112 492.085,-71.4524 445.903,-40.8391 416.542,-24.4455"/>
<polygon fill="midnightblue" stroke="midnightblue" points="418.111,-21.3148 407.651,-19.628 414.776,-27.4694 418.111,-21.3148"/>
</g>
<!-- Node12&#45;&gt;Node10 -->
<g id="edge19" class="edge"><title>Node12&#45;&gt;Node10</title>
<path fill="none" stroke="midnightblue" d="M499.149,-168.477C475.377,-160.064 438.704,-146.402 408,-132 374.348,-116.216 337.07,-94.7788 313.836,-80.916"/>
<polygon fill="midnightblue" stroke="midnightblue" points="315.453,-77.8041 305.079,-75.6519 311.847,-83.8037 315.453,-77.8041"/>
</g>
<!-- Node12&#45;&gt;Node13 -->
<g id="edge14" class="edge"><title>Node12&#45;&gt;Node13</title>
<path fill="none" stroke="midnightblue" d="M514.039,-168.324C504.873,-160.341 491.063,-148.313 479.972,-138.653"/>
<polygon fill="midnightblue" stroke="midnightblue" points="481.982,-135.762 472.143,-131.834 477.385,-141.041 481.982,-135.762"/>
</g>
<!-- Node13&#45;&gt;Node4 -->
<g id="edge15" class="edge"><title>Node13&#45;&gt;Node4</title>
<path fill="none" stroke="midnightblue" d="M456.35,-112.368C444.468,-94.2153 416.706,-51.8015 401.121,-27.9902"/>
<polygon fill="midnightblue" stroke="midnightblue" points="404.029,-26.0416 395.623,-19.5914 398.172,-29.8753 404.029,-26.0416"/>
</g>
<!-- Node13&#45;&gt;Node7 -->
<g id="edge16" class="edge"><title>Node13&#45;&gt;Node7</title>
<path fill="none" stroke="midnightblue" d="M491.314,-112.444C525.068,-102.591 580.324,-86.4621 615.124,-76.3044"/>
<polygon fill="midnightblue" stroke="midnightblue" points="616.172,-79.6445 624.791,-73.4826 614.211,-72.9249 616.172,-79.6445"/>
</g>
<!-- Node13&#45;&gt;Node10 -->
<g id="edge18" class="edge"><title>Node13&#45;&gt;Node10</title>
<path fill="none" stroke="midnightblue" d="M434.905,-112.444C406.012,-103.32 360.075,-88.8133 327.895,-78.6509"/>
<polygon fill="midnightblue" stroke="midnightblue" points="328.559,-75.1903 317.969,-75.5164 326.451,-81.8654 328.559,-75.1903"/>
</g>
<!-- Node13&#45;&gt;Node11 -->
<g id="edge17" class="edge"><title>Node13&#45;&gt;Node11</title>
<path fill="none" stroke="midnightblue" d="M445.773,-112.392C421.356,-99.5512 373.591,-74.8726 332,-56 306.093,-44.244 276.182,-32.0974 254.097,-23.3913"/>
<polygon fill="midnightblue" stroke="midnightblue" points="255.13,-20.0372 244.543,-19.6471 252.576,-26.5546 255.13,-20.0372"/>
</g>
<!-- Node14&#45;&gt;Node4 -->
<g id="edge22" class="edge"><title>Node14&#45;&gt;Node4</title>
<path fill="none" stroke="midnightblue" d="M93.732,-112.396C118.929,-98.8911 170.17,-72.5548 216,-56 263.944,-38.6817 321.559,-25.1406 356.976,-17.6088"/>
<polygon fill="midnightblue" stroke="midnightblue" points="357.713,-21.0304 366.784,-15.5562 356.28,-14.1788 357.713,-21.0304"/>
</g>
<!-- Node14&#45;&gt;Node11 -->
<g id="edge21" class="edge"><title>Node14&#45;&gt;Node11</title>
<path fill="none" stroke="midnightblue" d="M89.2994,-112.368C113.8,-93.6531 172.057,-49.1509 202.583,-25.8324"/>
<polygon fill="midnightblue" stroke="midnightblue" points="204.931,-28.4432 210.753,-19.5914 200.682,-22.8805 204.931,-28.4432"/>
</g>
<!-- Node15 -->
<g id="node15" class="node"><title>Node15</title>
<g id="a_node15"><a xlink:href="_byte_reader_8hpp.html" target="_top" xlink:title="Declarações das funções do ByteReader para leitura dos bytes no arquivo .class. ">
<polygon fill="white" stroke="black" points="35.5,-56.5 35.5,-75.5 122.5,-75.5 122.5,-56.5 35.5,-56.5"/>
<text text-anchor="middle" x="79" y="-63.5" font-family="Helvetica,sans-Serif" font-size="10.00">ByteReader.hpp</text>
</a>
</g>
</g>
<!-- Node14&#45;&gt;Node15 -->
<g id="edge23" class="edge"><title>Node14&#45;&gt;Node15</title>
<path fill="none" stroke="midnightblue" d="M78.1651,-112.083C78.2962,-105.006 78.4841,-94.8611 78.6484,-85.9865"/>
<polygon fill="midnightblue" stroke="midnightblue" points="82.1521,-85.8142 78.8379,-75.7511 75.1533,-85.6845 82.1521,-85.8142"/>
</g>
<!-- Node15&#45;&gt;Node11 -->
<g id="edge24" class="edge"><title>Node15&#45;&gt;Node11</title>
<path fill="none" stroke="midnightblue" d="M101.659,-56.4435C125.402,-47.4776 162.909,-33.314 189.738,-23.1827"/>
<polygon fill="midnightblue" stroke="midnightblue" points="191.329,-26.3235 199.447,-19.5164 188.856,-19.7749 191.329,-26.3235"/>
</g>
<!-- Node16&#45;&gt;Node4 -->
<g id="edge28" class="edge"><title>Node16&#45;&gt;Node4</title>
<path fill="none" stroke="midnightblue" d="M389.054,-168.075C389.211,-141.945 389.673,-65.2106 389.888,-29.577"/>
<polygon fill="midnightblue" stroke="midnightblue" points="393.388,-29.589 389.948,-19.5681 386.388,-29.5468 393.388,-29.589"/>
</g>
<!-- Node16&#45;&gt;Node10 -->
<g id="edge26" class="edge"><title>Node16&#45;&gt;Node10</title>
<path fill="none" stroke="midnightblue" d="M376.566,-168.227C365.032,-159.738 347.774,-146.115 335,-132 321.609,-117.203 309.139,-98.0628 300.919,-84.3918"/>
<polygon fill="midnightblue" stroke="midnightblue" points="303.809,-82.4011 295.732,-75.5441 297.77,-85.9412 303.809,-82.4011"/>
</g>
<!-- Node16&#45;&gt;Node13 -->
<g id="edge27" class="edge"><title>Node16&#45;&gt;Node13</title>
<path fill="none" stroke="midnightblue" d="M400.729,-168.324C411.837,-160.107 428.742,-147.602 441.983,-137.807"/>
<polygon fill="midnightblue" stroke="midnightblue" points="444.1,-140.595 450.058,-131.834 439.937,-134.967 444.1,-140.595"/>
</g>
<!-- Node17&#45;&gt;Node3 -->
<g id="edge40" class="edge"><title>Node17&#45;&gt;Node3</title>
<path fill="none" stroke="midnightblue" d="M376.1,-336.45C358.936,-328.893 335.308,-316.505 319,-300 305.706,-286.545 295.831,-267.18 289.819,-253.089"/>
<polygon fill="midnightblue" stroke="midnightblue" points="292.954,-251.504 285.982,-243.526 286.458,-254.11 292.954,-251.504"/>
</g>
<!-- Node17&#45;&gt;Node4 -->
<g id="edge31" class="edge"><title>Node17&#45;&gt;Node4</title>
<path fill="none" stroke="midnightblue" d="M429.555,-344.732C547.779,-343.451 960.021,-336.388 1005,-300 1028.4,-281.07 1024,-265.098 1024,-235 1024,-235 1024,-235 1024,-121 1024,-59.4717 554.469,-22.3782 423.538,-13.2306"/>
<polygon fill="midnightblue" stroke="midnightblue" points="423.533,-9.72203 413.316,-12.5254 423.052,-16.7054 423.533,-9.72203"/>
</g>
<!-- Node17&#45;&gt;Node7 -->
<g id="edge33" class="edge"><title>Node17&#45;&gt;Node7</title>
<path fill="none" stroke="midnightblue" d="M429.814,-344.96C467.974,-343.247 531.813,-334.86 572,-300 587.276,-286.749 637.276,-151.663 642,-132 645.681,-116.679 646.837,-98.7986 647.126,-85.6735"/>
<polygon fill="midnightblue" stroke="midnightblue" points="650.626,-85.572 647.198,-75.5473 643.627,-85.522 650.626,-85.572"/>
</g>
<!-- Node17&#45;&gt;Node10 -->
<g id="edge37" class="edge"><title>Node17&#45;&gt;Node10</title>
<path fill="none" stroke="midnightblue" d="M368.994,-336.422C315.838,-318.853 204.801,-273.081 167,-188 152.384,-155.103 169.226,-137.13 195,-112 210.488,-96.8994 231.986,-86.18 250.712,-79.0015"/>
<polygon fill="midnightblue" stroke="midnightblue" points="251.994,-82.26 260.206,-75.5659 249.612,-75.6777 251.994,-82.26"/>
</g>
<!-- Node17&#45;&gt;Node12 -->
<g id="edge38" class="edge"><title>Node17&#45;&gt;Node12</title>
<path fill="none" stroke="midnightblue" d="M399.886,-336.461C403.018,-323.495 410.148,-298.408 422,-280 444.728,-244.698 481.718,-212.117 504.355,-193.965"/>
<polygon fill="midnightblue" stroke="midnightblue" points="506.573,-196.674 512.268,-187.739 502.244,-191.172 506.573,-196.674"/>
</g>
<!-- Node17&#45;&gt;Node13 -->
<g id="edge39" class="edge"><title>Node17&#45;&gt;Node13</title>
<path fill="none" stroke="midnightblue" d="M404.713,-336.072C414.719,-323.043 434.472,-298.371 454,-280 503.206,-233.711 544.987,-248.524 575,-188 589.429,-158.902 552.171,-142.002 516.641,-132.767"/>
<polygon fill="midnightblue" stroke="midnightblue" points="517.253,-129.314 506.71,-130.362 515.605,-136.117 517.253,-129.314"/>
</g>
<!-- Node17&#45;&gt;Node18 -->
<g id="edge32" class="edge"><title>Node17&#45;&gt;Node18</title>
<path fill="none" stroke="midnightblue" d="M429.52,-343.362C499.054,-339.291 663.216,-327.029 711,-300 730.337,-289.062 745.451,-268.073 754.507,-252.899"/>
<polygon fill="midnightblue" stroke="midnightblue" points="757.701,-254.36 759.566,-243.931 751.604,-250.921 757.701,-254.36"/>
</g>
<!-- Node19 -->
<g id="node19" class="node"><title>Node19</title>
<polygon fill="white" stroke="#bfbfbf" points="328.5,-280.5 328.5,-299.5 369.5,-299.5 369.5,-280.5 328.5,-280.5"/>
<text text-anchor="middle" x="349" y="-287.5" font-family="Helvetica,sans-Serif" font-size="10.00">stack</text>
</g>
<!-- Node17&#45;&gt;Node19 -->
<g id="edge34" class="edge"><title>Node17&#45;&gt;Node19</title>
<path fill="none" stroke="midnightblue" d="M389.909,-336.083C382.845,-328.298 372.412,-316.801 363.851,-307.367"/>
<polygon fill="midnightblue" stroke="midnightblue" points="366.253,-304.805 356.941,-299.751 361.069,-309.509 366.253,-304.805"/>
</g>
<!-- Node17&#45;&gt;Node20 -->
<g id="edge35" class="edge"><title>Node17&#45;&gt;Node20</title>
<path fill="none" stroke="midnightblue" d="M366.326,-339.673C300.573,-328.555 155.008,-303.61 151,-300 138.053,-288.336 133.729,-268.389 132.383,-253.661"/>
<polygon fill="midnightblue" stroke="midnightblue" points="135.876,-253.435 131.841,-243.639 128.886,-253.813 135.876,-253.435"/>
</g>
<!-- Node21 -->
<g id="node21" class="node"><title>Node21</title>
<polygon fill="white" stroke="#bfbfbf" points="502.5,-280.5 502.5,-299.5 563.5,-299.5 563.5,-280.5 502.5,-280.5"/>
<text text-anchor="middle" x="533" y="-287.5" font-family="Helvetica,sans-Serif" font-size="10.00">Stack.hpp</text>
</g>
<!-- Node17&#45;&gt;Node21 -->
<g id="edge36" class="edge"><title>Node17&#45;&gt;Node21</title>
<path fill="none" stroke="midnightblue" d="M419.391,-336.444C441.707,-327.517 476.903,-313.439 502.208,-303.317"/>
<polygon fill="midnightblue" stroke="midnightblue" points="503.724,-306.48 511.709,-299.516 501.124,-299.981 503.724,-306.48"/>
</g>
<!-- Node22 -->
<g id="node22" class="node"><title>Node22</title>
<g id="a_node22"><a xlink:href="_instruction_8hpp.html" target="_top" xlink:title="Declarações das instruçoes referentes ao interpretador da JVM. ">
<polygon fill="white" stroke="black" points="620.5,-280.5 620.5,-299.5 701.5,-299.5 701.5,-280.5 620.5,-280.5"/>
<text text-anchor="middle" x="661" y="-287.5" font-family="Helvetica,sans-Serif" font-size="10.00">Instruction.hpp</text>
</a>
</g>
</g>
<!-- Node17&#45;&gt;Node22 -->
<g id="edge41" class="edge"><title>Node17&#45;&gt;Node22</title>
<path fill="none" stroke="midnightblue" d="M429.724,-338.486C474.518,-329.289 556.782,-312.398 610.159,-301.439"/>
<polygon fill="midnightblue" stroke="midnightblue" points="611.01,-304.837 620.101,-299.397 609.602,-297.98 611.01,-304.837"/>
</g>
<!-- Node17&#45;&gt;Node24 -->
<g id="edge45" class="edge"><title>Node17&#45;&gt;Node24</title>
<path fill="none" stroke="midnightblue" d="M366.104,-337.717C329.963,-328.626 271.442,-312.978 233.52,-302.32"/>
<polygon fill="midnightblue" stroke="midnightblue" points="234.453,-298.946 223.878,-299.59 232.546,-305.682 234.453,-298.946"/>
</g>
<!-- Node22&#45;&gt;Node18 -->
<g id="edge42" class="edge"><title>Node22&#45;&gt;Node18</title>
<path fill="none" stroke="midnightblue" d="M677.549,-280.324C693.992,-271.703 719.435,-258.364 738.468,-248.386"/>
<polygon fill="midnightblue" stroke="midnightblue" points="740.261,-251.398 747.492,-243.655 737.011,-245.198 740.261,-251.398"/>
</g>
<!-- Node23 -->
<g id="node23" class="node"><title>Node23</title>
<g id="a_node23"><a xlink:href="_instruction_impl_8hpp.html" target="_top" xlink:title="Declarações das funções do ClassLoader para salvar todos os bytes de .class corretamente. ">
<polygon fill="white" stroke="black" points="620,-224.5 620,-243.5 720,-243.5 720,-224.5 620,-224.5"/>
<text text-anchor="middle" x="670" y="-231.5" font-family="Helvetica,sans-Serif" font-size="10.00">InstructionImpl.hpp</text>
</a>
</g>
</g>
<!-- Node22&#45;&gt;Node23 -->
<g id="edge43" class="edge"><title>Node22&#45;&gt;Node23</title>
<path fill="none" stroke="midnightblue" d="M662.486,-280.083C663.679,-272.927 665.394,-262.635 666.885,-253.691"/>
<polygon fill="midnightblue" stroke="midnightblue" points="670.35,-254.19 668.541,-243.751 663.445,-253.04 670.35,-254.19"/>
</g>
<!-- Node23&#45;&gt;Node17 -->
<g id="edge44" class="edge"><title>Node23&#45;&gt;Node17</title>
<path fill="none" stroke="midnightblue" d="M619.985,-242.864C583.647,-249.722 533.883,-261.521 493,-280 464.048,-293.086 434.417,-314.988 416.116,-329.708"/>
<polygon fill="midnightblue" stroke="midnightblue" points="413.607,-327.24 408.095,-336.288 418.046,-332.652 413.607,-327.24"/>
</g>
<!-- Node24&#45;&gt;Node3 -->
<g id="edge48" class="edge"><title>Node24&#45;&gt;Node3</title>
<path fill="none" stroke="midnightblue" d="M210.817,-280.324C224.233,-271.9 244.824,-258.971 260.586,-249.074"/>
<polygon fill="midnightblue" stroke="midnightblue" points="262.609,-251.936 269.217,-243.655 258.887,-246.008 262.609,-251.936"/>
</g>
<!-- Node24&#45;&gt;Node17 -->
<g id="edge49" class="edge"><title>Node24&#45;&gt;Node17</title>
<path fill="none" stroke="midnightblue" d="M233.78,-299.516C270.156,-308.743 325.288,-323.507 361.545,-333.699"/>
<polygon fill="midnightblue" stroke="midnightblue" points="360.664,-337.087 371.24,-336.444 362.571,-330.352 360.664,-337.087"/>
</g>
<!-- Node24&#45;&gt;Node18 -->
<g id="edge47" class="edge"><title>Node24&#45;&gt;Node18</title>
<path fill="none" stroke="midnightblue" d="M233.657,-286.257C345.937,-277.805 680.452,-252.236 729,-244 730.469,-243.751 731.967,-243.47 733.475,-243.167"/>
<polygon fill="midnightblue" stroke="midnightblue" points="734.421,-246.541 743.395,-240.909 732.868,-239.715 734.421,-246.541"/>
</g>
<!-- Node24&#45;&gt;Node20 -->
<g id="edge46" class="edge"><title>Node24&#45;&gt;Node20</title>
<path fill="none" stroke="midnightblue" d="M186.557,-280.324C176.854,-272.263 162.185,-260.077 150.5,-250.369"/>
<polygon fill="midnightblue" stroke="midnightblue" points="152.562,-247.532 142.633,-243.834 148.089,-252.916 152.562,-247.532"/>
</g>
<!-- Node25&#45;&gt;Node7 -->
<g id="edge56" class="edge"><title>Node25&#45;&gt;Node7</title>
<path fill="none" stroke="midnightblue" d="M926.809,-280.16C916.626,-267.647 897.415,-244.057 881,-224 860.601,-199.074 859.881,-188.454 835,-168 785.792,-127.547 717.883,-95.8749 678.588,-79.4352"/>
<polygon fill="midnightblue" stroke="midnightblue" points="679.822,-76.1584 669.243,-75.5878 677.157,-82.6313 679.822,-76.1584"/>
</g>
<!-- Node25&#45;&gt;Node10 -->
<g id="edge57" class="edge"><title>Node25&#45;&gt;Node10</title>
<path fill="none" stroke="midnightblue" d="M923.507,-280.179C891.801,-253.596 798.177,-175.607 782,-168 627.614,-95.4057 421.762,-74.7659 333.791,-69.0796"/>
<polygon fill="midnightblue" stroke="midnightblue" points="333.855,-65.577 323.659,-68.4578 333.426,-72.5639 333.855,-65.577"/>
</g>
<!-- Node25&#45;&gt;Node18 -->
<g id="edge55" class="edge"><title>Node25&#45;&gt;Node18</title>
<path fill="none" stroke="midnightblue" d="M907.063,-280.444C876.396,-270.702 826.415,-254.826 794.383,-244.651"/>
<polygon fill="midnightblue" stroke="midnightblue" points="795.252,-241.255 784.661,-241.563 793.133,-247.926 795.252,-241.255"/>
</g>
<!-- Node26&#45;&gt;Node24 -->
<g id="edge59" class="edge"><title>Node26&#45;&gt;Node24</title>
<path fill="none" stroke="midnightblue" d="M272.54,-336.324C258.5,-327.9 236.952,-314.971 220.457,-305.074"/>
<polygon fill="midnightblue" stroke="midnightblue" points="221.8,-301.798 211.424,-299.655 218.198,-307.801 221.8,-301.798"/>
</g>
</g>
</svg>
