<?xml version="1.0" encoding="UTF-8" standalone="no"?>
<!DOCTYPE svg PUBLIC "-//W3C//DTD SVG 1.1//EN"
 "http://www.w3.org/Graphics/SVG/1.1/DTD/svg11.dtd">
<!-- Generated by graphviz version 2.38.0 (20140413.2041)
 -->
<!-- Title: Interpreter.hpp Pages: 1 -->
<svg width="276pt" height="84pt"
 viewBox="0.00 0.00 275.50 84.00" xmlns="http://www.w3.org/2000/svg" xmlns:xlink="http://www.w3.org/1999/xlink">
<g id="graph0" class="graph" transform="scale(1 1) rotate(0) translate(4 80)">
<title>Interpreter.hpp</title>
<polygon fill="white" stroke="none" points="-4,4 -4,-80 271.5,-80 271.5,4 -4,4"/>
<!-- Node1 -->
<g id="node1" class="node"><title>Node1</title>
<polygon fill="#bfbfbf" stroke="black" points="118,-56.5 118,-75.5 198,-75.5 198,-56.5 118,-56.5"/>
<text text-anchor="middle" x="158" y="-63.5" font-family="Helvetica,sans-Serif" font-size="10.00">Interpreter.hpp</text>
</g>
<!-- Node2 -->
<g id="node2" class="node"><title>Node2</title>
<g id="a_node2"><a xlink:href="_instruction_impl_8cpp.html" target="_top" xlink:title="Métodos referentes a execução de cada instrução ;. ">
<polygon fill="white" stroke="black" points="0,-0.5 0,-19.5 100,-19.5 100,-0.5 0,-0.5"/>
<text text-anchor="middle" x="50" y="-7.5" font-family="Helvetica,sans-Serif" font-size="10.00">InstructionImpl.cpp</text>
</a>
</g>
</g>
<!-- Node1&#45;&gt;Node2 -->
<g id="edge1" class="edge"><title>Node1&#45;&gt;Node2</title>
<path fill="none" stroke="midnightblue" d="M131.452,-51.7261C111.454,-41.7271 84.613,-28.3065 67.309,-19.6545"/>
<polygon fill="midnightblue" stroke="midnightblue" points="130.138,-54.9823 140.648,-56.324 133.269,-48.7213 130.138,-54.9823"/>
</g>
<!-- Node3 -->
<g id="node3" class="node"><title>Node3</title>
<g id="a_node3"><a xlink:href="_interpreter_8cpp.html" target="_top" xlink:title="Métodos que fazem a atuação do interpretador;. ">
<polygon fill="white" stroke="black" points="118,-0.5 118,-19.5 198,-19.5 198,-0.5 118,-0.5"/>
<text text-anchor="middle" x="158" y="-7.5" font-family="Helvetica,sans-Serif" font-size="10.00">Interpreter.cpp</text>
</a>
</g>
</g>
<!-- Node1&#45;&gt;Node3 -->
<g id="edge2" class="edge"><title>Node1&#45;&gt;Node3</title>
<path fill="none" stroke="midnightblue" d="M158,-45.8045C158,-36.9102 158,-26.7798 158,-19.7511"/>
<polygon fill="midnightblue" stroke="midnightblue" points="154.5,-46.083 158,-56.083 161.5,-46.083 154.5,-46.083"/>
</g>
<!-- Node4 -->
<g id="node4" class="node"><title>Node4</title>
<g id="a_node4"><a xlink:href="jvm_8cpp.html" target="_top" xlink:title="Arquivo inicial em que é selecionado ou a exibição do leitor ou do interpretador dependendo da chamad...">
<polygon fill="white" stroke="black" points="216.5,-0.5 216.5,-19.5 267.5,-19.5 267.5,-0.5 216.5,-0.5"/>
<text text-anchor="middle" x="242" y="-7.5" font-family="Helvetica,sans-Serif" font-size="10.00">jvm.cpp</text>
</a>
</g>
</g>
<!-- Node1&#45;&gt;Node4 -->
<g id="edge3" class="edge"><title>Node1&#45;&gt;Node4</title>
<path fill="none" stroke="midnightblue" d="M179.932,-50.9005C195.335,-40.9986 215.446,-28.0705 228.537,-19.6545"/>
<polygon fill="midnightblue" stroke="midnightblue" points="178.015,-47.9722 171.496,-56.324 181.801,-53.8605 178.015,-47.9722"/>
</g>
</g>
</svg>
