<?xml version="1.0" encoding="UTF-8" standalone="no"?>
<!DOCTYPE svg PUBLIC "-//W3C//DTD SVG 1.1//EN"
 "http://www.w3.org/Graphics/SVG/1.1/DTD/svg11.dtd">
<!-- Generated by graphviz version 2.38.0 (20140413.2041)
 -->
<!-- Title: InterfaceInfo.cpp Pages: 1 -->
<svg width="182pt" height="196pt"
 viewBox="0.00 0.00 181.50 196.00" xmlns="http://www.w3.org/2000/svg" xmlns:xlink="http://www.w3.org/1999/xlink">
<g id="graph0" class="graph" transform="scale(1 1) rotate(0) translate(4 192)">
<title>InterfaceInfo.cpp</title>
<polygon fill="white" stroke="none" points="-4,4 -4,-192 177.5,-192 177.5,4 -4,4"/>
<!-- Node1 -->
<g id="node1" class="node"><title>Node1</title>
<polygon fill="#bfbfbf" stroke="black" points="0,-168.5 0,-187.5 90,-187.5 90,-168.5 0,-168.5"/>
<text text-anchor="middle" x="45" y="-175.5" font-family="Helvetica,sans-Serif" font-size="10.00">InterfaceInfo.cpp</text>
</g>
<!-- Node2 -->
<g id="node2" class="node"><title>Node2</title>
<g id="a_node2"><a xlink:href="_interface_info_8hpp.html" target="_top" xlink:title="Declarações das funções e atributos de InterfaceInfo. ">
<polygon fill="white" stroke="black" points="0,-112.5 0,-131.5 90,-131.5 90,-112.5 0,-112.5"/>
<text text-anchor="middle" x="45" y="-119.5" font-family="Helvetica,sans-Serif" font-size="10.00">InterfaceInfo.hpp</text>
</a>
</g>
</g>
<!-- Node1&#45;&gt;Node2 -->
<g id="edge1" class="edge"><title>Node1&#45;&gt;Node2</title>
<path fill="none" stroke="midnightblue" d="M45,-168.083C45,-161.006 45,-150.861 45,-141.986"/>
<polygon fill="midnightblue" stroke="midnightblue" points="48.5001,-141.751 45,-131.751 41.5001,-141.751 48.5001,-141.751"/>
</g>
<!-- Node3 -->
<g id="node3" class="node"><title>Node3</title>
<polygon fill="white" stroke="#bfbfbf" points="37,-0.5 37,-19.5 87,-19.5 87,-0.5 37,-0.5"/>
<text text-anchor="middle" x="62" y="-7.5" font-family="Helvetica,sans-Serif" font-size="10.00">fstream</text>
</g>
<!-- Node2&#45;&gt;Node3 -->
<g id="edge2" class="edge"><title>Node2&#45;&gt;Node3</title>
<path fill="none" stroke="midnightblue" d="M35.39,-112.283C22.9828,-99.9158 3.99421,-76.4979 13,-56 18.39,-43.732 28.9581,-33.3414 38.9041,-25.6461"/>
<polygon fill="midnightblue" stroke="midnightblue" points="41.2515,-28.2697 47.3386,-19.598 37.1724,-22.5811 41.2515,-28.2697"/>
</g>
<!-- Node4 -->
<g id="node4" class="node"><title>Node4</title>
<polygon fill="white" stroke="#bfbfbf" points="22,-56.5 22,-75.5 68,-75.5 68,-56.5 22,-56.5"/>
<text text-anchor="middle" x="45" y="-63.5" font-family="Helvetica,sans-Serif" font-size="10.00">cstdint</text>
</g>
<!-- Node2&#45;&gt;Node4 -->
<g id="edge3" class="edge"><title>Node2&#45;&gt;Node4</title>
<path fill="none" stroke="midnightblue" d="M45,-112.083C45,-105.006 45,-94.8611 45,-85.9865"/>
<polygon fill="midnightblue" stroke="midnightblue" points="48.5001,-85.751 45,-75.7511 41.5001,-85.7511 48.5001,-85.751"/>
</g>
<!-- Node5 -->
<g id="node5" class="node"><title>Node5</title>
<g id="a_node5"><a xlink:href="_byte_reader_8hpp.html" target="_top" xlink:title="Declarações das funções do ByteReader para leitura dos bytes no arquivo .class. ">
<polygon fill="white" stroke="black" points="86.5,-56.5 86.5,-75.5 173.5,-75.5 173.5,-56.5 86.5,-56.5"/>
<text text-anchor="middle" x="130" y="-63.5" font-family="Helvetica,sans-Serif" font-size="10.00">ByteReader.hpp</text>
</a>
</g>
</g>
<!-- Node2&#45;&gt;Node5 -->
<g id="edge4" class="edge"><title>Node2&#45;&gt;Node5</title>
<path fill="none" stroke="midnightblue" d="M58.6567,-112.324C71.9163,-103.9 92.268,-90.9709 107.846,-81.0741"/>
<polygon fill="midnightblue" stroke="midnightblue" points="109.813,-83.9711 116.377,-75.6545 106.06,-78.0626 109.813,-83.9711"/>
</g>
<!-- Node5&#45;&gt;Node3 -->
<g id="edge5" class="edge"><title>Node5&#45;&gt;Node3</title>
<path fill="none" stroke="midnightblue" d="M119.075,-56.324C108.825,-48.1849 93.2794,-35.8395 80.999,-26.0874"/>
<polygon fill="midnightblue" stroke="midnightblue" points="83.1319,-23.3119 73.1242,-19.8339 78.7787,-28.7937 83.1319,-23.3119"/>
</g>
</g>
</svg>
