<?xml version="1.0" encoding="UTF-8" standalone="no"?>
<!DOCTYPE svg PUBLIC "-//W3C//DTD SVG 1.1//EN"
 "http://www.w3.org/Graphics/SVG/1.1/DTD/svg11.dtd">
<!-- Generated by graphviz version 2.38.0 (20140413.2041)
 -->
<!-- Title: Interpreter.hpp Pages: 1 -->
<svg width="1005pt" height="420pt"
 viewBox="0.00 0.00 1004.50 420.00" xmlns="http://www.w3.org/2000/svg" xmlns:xlink="http://www.w3.org/1999/xlink">
<g id="graph0" class="graph" transform="scale(1 1) rotate(0) translate(4 416)">
<title>Interpreter.hpp</title>
<polygon fill="white" stroke="none" points="-4,4 -4,-416 1000.5,-416 1000.5,4 -4,4"/>
<!-- Node1 -->
<g id="node1" class="node"><title>Node1</title>
<polygon fill="#bfbfbf" stroke="black" points="670,-392.5 670,-411.5 750,-411.5 750,-392.5 670,-392.5"/>
<text text-anchor="middle" x="710" y="-399.5" font-family="Helvetica,sans-Serif" font-size="10.00">Interpreter.hpp</text>
</g>
<!-- Node2 -->
<g id="node2" class="node"><title>Node2</title>
<g id="a_node2"><a xlink:href="_class_loader_8hpp.html" target="_top" xlink:title="Declarações das funções do ClassLoader para salvar todos os bytes de .class corretamente. ">
<polygon fill="white" stroke="black" points="338,-224.5 338,-243.5 428,-243.5 428,-224.5 338,-224.5"/>
<text text-anchor="middle" x="383" y="-231.5" font-family="Helvetica,sans-Serif" font-size="10.00">ClassLoader.hpp</text>
</a>
</g>
</g>
<!-- Node1&#45;&gt;Node2 -->
<g id="edge1" class="edge"><title>Node1&#45;&gt;Node2</title>
<path fill="none" stroke="midnightblue" d="M669.982,-394.447C591.062,-380.633 419.959,-345.974 385,-300 375.078,-286.952 375.767,-267.797 378.223,-253.659"/>
<polygon fill="midnightblue" stroke="midnightblue" points="381.703,-254.123 380.402,-243.609 374.862,-252.64 381.703,-254.123"/>
</g>
<!-- Node5 -->
<g id="node5" class="node"><title>Node5</title>
<polygon fill="white" stroke="#bfbfbf" points="0,-168.5 0,-187.5 46,-187.5 46,-168.5 0,-168.5"/>
<text text-anchor="middle" x="23" y="-175.5" font-family="Helvetica,sans-Serif" font-size="10.00">cstring</text>
</g>
<!-- Node1&#45;&gt;Node5 -->
<g id="edge50" class="edge"><title>Node1&#45;&gt;Node5</title>
<path fill="none" stroke="midnightblue" d="M669.821,-400.175C542.683,-396.759 152.126,-379.843 60,-300 30.0781,-274.067 23.9492,-224.666 22.942,-197.701"/>
<polygon fill="midnightblue" stroke="midnightblue" points="26.4407,-197.591 22.7695,-187.653 19.4418,-197.711 26.4407,-197.591"/>
</g>
<!-- Node16 -->
<g id="node16" class="node"><title>Node16</title>
<g id="a_node16"><a xlink:href="_frame_8hpp.html" target="_top" xlink:title="Declarações das funções e da estrutura do Frame, utilizado para salvar resultados parciais...">
<polygon fill="white" stroke="black" points="603.5,-336.5 603.5,-355.5 666.5,-355.5 666.5,-336.5 603.5,-336.5"/>
<text text-anchor="middle" x="635" y="-343.5" font-family="Helvetica,sans-Serif" font-size="10.00">Frame.hpp</text>
</a>
</g>
</g>
<!-- Node1&#45;&gt;Node16 -->
<g id="edge29" class="edge"><title>Node1&#45;&gt;Node16</title>
<path fill="none" stroke="midnightblue" d="M697.95,-392.324C686.537,-384.107 669.169,-371.602 655.565,-361.807"/>
<polygon fill="midnightblue" stroke="midnightblue" points="657.43,-358.837 647.269,-355.834 653.34,-364.517 657.43,-358.837"/>
</g>
<!-- Node17 -->
<g id="node17" class="node"><title>Node17</title>
<polygon fill="white" stroke="#bfbfbf" points="801.5,-224.5 801.5,-243.5 842.5,-243.5 842.5,-224.5 801.5,-224.5"/>
<text text-anchor="middle" x="822" y="-231.5" font-family="Helvetica,sans-Serif" font-size="10.00">string</text>
</g>
<!-- Node1&#45;&gt;Node17 -->
<g id="edge52" class="edge"><title>Node1&#45;&gt;Node17</title>
<path fill="none" stroke="midnightblue" d="M750.177,-394.979C800.452,-385.047 884.498,-359.974 922,-300 940.985,-269.64 888.69,-250.636 852.752,-241.5"/>
<polygon fill="midnightblue" stroke="midnightblue" points="853.213,-238.012 842.672,-239.082 851.58,-244.818 853.213,-238.012"/>
</g>
<!-- Node19 -->
<g id="node19" class="node"><title>Node19</title>
<polygon fill="white" stroke="#bfbfbf" points="961.5,-224.5 961.5,-243.5 996.5,-243.5 996.5,-224.5 961.5,-224.5"/>
<text text-anchor="middle" x="979" y="-231.5" font-family="Helvetica,sans-Serif" font-size="10.00">map</text>
</g>
<!-- Node1&#45;&gt;Node19 -->
<g id="edge51" class="edge"><title>Node1&#45;&gt;Node19</title>
<path fill="none" stroke="midnightblue" d="M750.144,-397.107C788.177,-392.046 845.882,-380.722 890,-356 920.981,-338.639 926.196,-328.783 947,-300 957.581,-285.36 966.361,-266.691 972.031,-253.119"/>
<polygon fill="midnightblue" stroke="midnightblue" points="975.413,-254.087 975.886,-243.503 968.916,-251.483 975.413,-254.087"/>
</g>
<!-- Node23 -->
<g id="node23" class="node"><title>Node23</title>
<g id="a_node23"><a xlink:href="_instance_8hpp.html" target="_top" xlink:title="Declaração da struct Instance. ">
<polygon fill="white" stroke="black" points="839.5,-280.5 839.5,-299.5 912.5,-299.5 912.5,-280.5 839.5,-280.5"/>
<text text-anchor="middle" x="876" y="-287.5" font-family="Helvetica,sans-Serif" font-size="10.00">Instance.hpp</text>
</a>
</g>
</g>
<!-- Node1&#45;&gt;Node23 -->
<g id="edge49" class="edge"><title>Node1&#45;&gt;Node23</title>
<path fill="none" stroke="midnightblue" d="M723.026,-392.368C751.511,-373.492 819.583,-328.385 854.516,-305.237"/>
<polygon fill="midnightblue" stroke="midnightblue" points="856.632,-308.033 863.035,-299.591 852.765,-302.198 856.632,-308.033"/>
</g>
<!-- Node3 -->
<g id="node3" class="node"><title>Node3</title>
<polygon fill="white" stroke="#bfbfbf" points="437,-0.5 437,-19.5 483,-19.5 483,-0.5 437,-0.5"/>
<text text-anchor="middle" x="460" y="-7.5" font-family="Helvetica,sans-Serif" font-size="10.00">cstdint</text>
</g>
<!-- Node2&#45;&gt;Node3 -->
<g id="edge2" class="edge"><title>Node2&#45;&gt;Node3</title>
<path fill="none" stroke="midnightblue" d="M337.884,-232.753C276.813,-230.525 178.535,-219.164 207,-168 254.555,-82.5221 370.034,-37.6303 427.044,-20.0265"/>
<polygon fill="midnightblue" stroke="midnightblue" points="428.402,-23.2734 436.979,-17.0534 426.395,-16.5673 428.402,-23.2734"/>
</g>
<!-- Node4 -->
<g id="node4" class="node"><title>Node4</title>
<polygon fill="white" stroke="#bfbfbf" points="477,-168.5 477,-187.5 531,-187.5 531,-168.5 477,-168.5"/>
<text text-anchor="middle" x="504" y="-175.5" font-family="Helvetica,sans-Serif" font-size="10.00">iostream</text>
</g>
<!-- Node2&#45;&gt;Node4 -->
<g id="edge3" class="edge"><title>Node2&#45;&gt;Node4</title>
<path fill="none" stroke="midnightblue" d="M402.173,-224.444C421.909,-215.636 452.885,-201.812 475.493,-191.722"/>
<polygon fill="midnightblue" stroke="midnightblue" points="477.211,-194.788 484.917,-187.516 474.359,-188.396 477.211,-194.788"/>
</g>
<!-- Node2&#45;&gt;Node5 -->
<g id="edge4" class="edge"><title>Node2&#45;&gt;Node5</title>
<path fill="none" stroke="midnightblue" d="M337.77,-226.216C264.427,-215.214 121.234,-193.735 56.3621,-184.004"/>
<polygon fill="midnightblue" stroke="midnightblue" points="56.6902,-180.514 46.2817,-182.492 55.6518,-187.437 56.6902,-180.514"/>
</g>
<!-- Node6 -->
<g id="node6" class="node"><title>Node6</title>
<polygon fill="white" stroke="#bfbfbf" points="116,-56.5 116,-75.5 160,-75.5 160,-56.5 116,-56.5"/>
<text text-anchor="middle" x="138" y="-63.5" font-family="Helvetica,sans-Serif" font-size="10.00">vector</text>
</g>
<!-- Node2&#45;&gt;Node6 -->
<g id="edge5" class="edge"><title>Node2&#45;&gt;Node6</title>
<path fill="none" stroke="midnightblue" d="M337.826,-228.649C283.718,-222.544 197.424,-209.684 174,-188 145.139,-161.283 139.05,-112.568 137.99,-85.8224"/>
<polygon fill="midnightblue" stroke="midnightblue" points="141.484,-85.4651 137.792,-75.5343 134.485,-85.5998 141.484,-85.4651"/>
</g>
<!-- Node7 -->
<g id="node7" class="node"><title>Node7</title>
<polygon fill="white" stroke="#bfbfbf" points="216,-168.5 216,-187.5 268,-187.5 268,-168.5 216,-168.5"/>
<text text-anchor="middle" x="242" y="-175.5" font-family="Helvetica,sans-Serif" font-size="10.00">memory</text>
</g>
<!-- Node2&#45;&gt;Node7 -->
<g id="edge6" class="edge"><title>Node2&#45;&gt;Node7</title>
<path fill="none" stroke="midnightblue" d="M360.658,-224.444C337.247,-215.478 300.264,-201.314 273.81,-191.183"/>
<polygon fill="midnightblue" stroke="midnightblue" points="274.828,-187.824 264.237,-187.516 272.324,-194.361 274.828,-187.824"/>
</g>
<!-- Node8 -->
<g id="node8" class="node"><title>Node8</title>
<polygon fill="white" stroke="#bfbfbf" points="286.5,-168.5 286.5,-187.5 329.5,-187.5 329.5,-168.5 286.5,-168.5"/>
<text text-anchor="middle" x="308" y="-175.5" font-family="Helvetica,sans-Serif" font-size="10.00">cstdio</text>
</g>
<!-- Node2&#45;&gt;Node8 -->
<g id="edge7" class="edge"><title>Node2&#45;&gt;Node8</title>
<path fill="none" stroke="midnightblue" d="M370.95,-224.324C359.537,-216.107 342.169,-203.602 328.565,-193.807"/>
<polygon fill="midnightblue" stroke="midnightblue" points="330.43,-190.837 320.269,-187.834 326.34,-196.517 330.43,-190.837"/>
</g>
<!-- Node9 -->
<g id="node9" class="node"><title>Node9</title>
<g id="a_node9"><a xlink:href="_cp_info_8hpp.html" target="_top" xlink:title="Declarações das funções e dos atributos do Pool de constantes. ">
<polygon fill="white" stroke="black" points="599.5,-56.5 599.5,-75.5 664.5,-75.5 664.5,-56.5 599.5,-56.5"/>
<text text-anchor="middle" x="632" y="-63.5" font-family="Helvetica,sans-Serif" font-size="10.00">CpInfo.hpp</text>
</a>
</g>
</g>
<!-- Node2&#45;&gt;Node9 -->
<g id="edge8" class="edge"><title>Node2&#45;&gt;Node9</title>
<path fill="none" stroke="midnightblue" d="M428.267,-233.025C503.232,-231.997 648.08,-225.12 680,-188 707.006,-156.594 670.739,-108.136 647.956,-83.141"/>
<polygon fill="midnightblue" stroke="midnightblue" points="650.267,-80.4908 640.858,-75.6223 645.178,-85.2963 650.267,-80.4908"/>
</g>
<!-- Node11 -->
<g id="node11" class="node"><title>Node11</title>
<g id="a_node11"><a xlink:href="_method_info_8hpp.html" target="_top" xlink:title="Declarações das funções do MethodInfo estrutura responsável por guardas as informaçoes dos metodos do...">
<polygon fill="white" stroke="black" points="587,-168.5 587,-187.5 671,-187.5 671,-168.5 587,-168.5"/>
<text text-anchor="middle" x="629" y="-175.5" font-family="Helvetica,sans-Serif" font-size="10.00">MethodInfo.hpp</text>
</a>
</g>
</g>
<!-- Node2&#45;&gt;Node11 -->
<g id="edge11" class="edge"><title>Node2&#45;&gt;Node11</title>
<path fill="none" stroke="midnightblue" d="M421.979,-224.444C464.894,-215.023 533.946,-199.866 580.369,-189.675"/>
<polygon fill="midnightblue" stroke="midnightblue" points="581.186,-193.079 590.203,-187.516 579.685,-186.242 581.186,-193.079"/>
</g>
<!-- Node12 -->
<g id="node12" class="node"><title>Node12</title>
<g id="a_node12"><a xlink:href="_attribute_info_8hpp.html" target="_top" xlink:title="Declarações das funções do AttributeInfo para tratamento dos atributos do arquivo ...">
<polygon fill="white" stroke="black" points="415.5,-112.5 415.5,-131.5 504.5,-131.5 504.5,-112.5 415.5,-112.5"/>
<text text-anchor="middle" x="460" y="-119.5" font-family="Helvetica,sans-Serif" font-size="10.00">AttributeInfo.hpp</text>
</a>
</g>
</g>
<!-- Node2&#45;&gt;Node12 -->
<g id="edge28" class="edge"><title>Node2&#45;&gt;Node12</title>
<path fill="none" stroke="midnightblue" d="M393.933,-224.255C403.999,-215.786 418.864,-202.177 429,-188 439.443,-173.394 447.925,-154.721 453.359,-141.139"/>
<polygon fill="midnightblue" stroke="midnightblue" points="456.738,-142.104 457.044,-131.514 450.2,-139.602 456.738,-142.104"/>
</g>
<!-- Node13 -->
<g id="node13" class="node"><title>Node13</title>
<g id="a_node13"><a xlink:href="_interface_info_8hpp.html" target="_top" xlink:title="Declarações das funções e atributos de InterfaceInfo. ">
<polygon fill="white" stroke="black" points="765,-112.5 765,-131.5 855,-131.5 855,-112.5 765,-112.5"/>
<text text-anchor="middle" x="810" y="-119.5" font-family="Helvetica,sans-Serif" font-size="10.00">InterfaceInfo.hpp</text>
</a>
</g>
</g>
<!-- Node2&#45;&gt;Node13 -->
<g id="edge19" class="edge"><title>Node2&#45;&gt;Node13</title>
<path fill="none" stroke="midnightblue" d="M428.072,-233.214C493.112,-232.127 616.107,-224.798 713,-188 743.593,-176.381 774.175,-153.568 792.594,-138.3"/>
<polygon fill="midnightblue" stroke="midnightblue" points="795.024,-140.828 800.382,-131.687 790.494,-135.492 795.024,-140.828"/>
</g>
<!-- Node15 -->
<g id="node15" class="node"><title>Node15</title>
<g id="a_node15"><a xlink:href="_field_info_8hpp.html" target="_top" xlink:title="Declarações das funções do FieldInfo para tratamento dos fields do arquivo .class. ">
<polygon fill="white" stroke="black" points="347.5,-168.5 347.5,-187.5 420.5,-187.5 420.5,-168.5 347.5,-168.5"/>
<text text-anchor="middle" x="384" y="-175.5" font-family="Helvetica,sans-Serif" font-size="10.00">FieldInfo.hpp</text>
</a>
</g>
</g>
<!-- Node2&#45;&gt;Node15 -->
<g id="edge24" class="edge"><title>Node2&#45;&gt;Node15</title>
<path fill="none" stroke="midnightblue" d="M383.165,-224.083C383.296,-217.006 383.484,-206.861 383.648,-197.986"/>
<polygon fill="midnightblue" stroke="midnightblue" points="387.152,-197.814 383.838,-187.751 380.153,-197.685 387.152,-197.814"/>
</g>
<!-- Node9&#45;&gt;Node3 -->
<g id="edge9" class="edge"><title>Node9&#45;&gt;Node3</title>
<path fill="none" stroke="midnightblue" d="M604.746,-56.4435C574.488,-46.9439 525.645,-31.6095 493.184,-21.4183"/>
<polygon fill="midnightblue" stroke="midnightblue" points="493.854,-17.9603 483.265,-18.3042 491.758,-24.6389 493.854,-17.9603"/>
</g>
<!-- Node10 -->
<g id="node10" class="node"><title>Node10</title>
<polygon fill="white" stroke="#bfbfbf" points="657,-0.5 657,-19.5 707,-19.5 707,-0.5 657,-0.5"/>
<text text-anchor="middle" x="682" y="-7.5" font-family="Helvetica,sans-Serif" font-size="10.00">fstream</text>
</g>
<!-- Node9&#45;&gt;Node10 -->
<g id="edge10" class="edge"><title>Node9&#45;&gt;Node10</title>
<path fill="none" stroke="midnightblue" d="M640.256,-56.083C647.465,-48.2982 658.11,-36.8015 666.846,-27.3665"/>
<polygon fill="midnightblue" stroke="midnightblue" points="669.671,-29.4666 673.897,-19.7511 664.535,-24.7108 669.671,-29.4666"/>
</g>
<!-- Node11&#45;&gt;Node3 -->
<g id="edge12" class="edge"><title>Node11&#45;&gt;Node3</title>
<path fill="none" stroke="midnightblue" d="M619.914,-168.075C592.621,-141.267 511.097,-61.1902 476.172,-26.8851"/>
<polygon fill="midnightblue" stroke="midnightblue" points="478.31,-24.0787 468.723,-19.5681 473.404,-29.0725 478.31,-24.0787"/>
</g>
<!-- Node11&#45;&gt;Node9 -->
<g id="edge18" class="edge"><title>Node11&#45;&gt;Node9</title>
<path fill="none" stroke="midnightblue" d="M629.235,-168.368C629.72,-150.617 630.836,-109.666 631.493,-85.5974"/>
<polygon fill="midnightblue" stroke="midnightblue" points="634.992,-85.6832 631.766,-75.5914 627.994,-85.4922 634.992,-85.6832"/>
</g>
<!-- Node11&#45;&gt;Node12 -->
<g id="edge13" class="edge"><title>Node11&#45;&gt;Node12</title>
<path fill="none" stroke="midnightblue" d="M602.221,-168.444C573.667,-159.32 528.267,-144.813 496.463,-134.651"/>
<polygon fill="midnightblue" stroke="midnightblue" points="497.244,-131.226 486.653,-131.516 495.114,-137.894 497.244,-131.226"/>
</g>
<!-- Node12&#45;&gt;Node3 -->
<g id="edge14" class="edge"><title>Node12&#45;&gt;Node3</title>
<path fill="none" stroke="midnightblue" d="M460,-112.368C460,-94.617 460,-53.6664 460,-29.5974"/>
<polygon fill="midnightblue" stroke="midnightblue" points="463.5,-29.5914 460,-19.5914 456.5,-29.5915 463.5,-29.5914"/>
</g>
<!-- Node12&#45;&gt;Node6 -->
<g id="edge15" class="edge"><title>Node12&#45;&gt;Node6</title>
<path fill="none" stroke="midnightblue" d="M415.227,-113.492C349.342,-102.442 227.851,-82.0682 170.106,-72.3842"/>
<polygon fill="midnightblue" stroke="midnightblue" points="170.534,-68.9072 160.093,-70.705 169.376,-75.8108 170.534,-68.9072"/>
</g>
<!-- Node12&#45;&gt;Node9 -->
<g id="edge17" class="edge"><title>Node12&#45;&gt;Node9</title>
<path fill="none" stroke="midnightblue" d="M487.254,-112.444C516.441,-103.28 562.921,-88.6876 595.309,-78.5192"/>
<polygon fill="midnightblue" stroke="midnightblue" points="596.381,-81.8512 604.874,-75.5164 594.284,-75.1726 596.381,-81.8512"/>
</g>
<!-- Node12&#45;&gt;Node10 -->
<g id="edge16" class="edge"><title>Node12&#45;&gt;Node10</title>
<path fill="none" stroke="midnightblue" d="M477.22,-112.33C502.087,-99.8241 549.513,-76.023 590,-56 611.886,-45.1762 636.764,-33.0163 655.126,-24.0681"/>
<polygon fill="midnightblue" stroke="midnightblue" points="656.882,-27.1061 664.341,-19.5811 653.818,-20.8127 656.882,-27.1061"/>
</g>
<!-- Node13&#45;&gt;Node3 -->
<g id="edge21" class="edge"><title>Node13&#45;&gt;Node3</title>
<path fill="none" stroke="midnightblue" d="M795.001,-112.358C770.459,-98.5594 719.855,-71.53 674,-56 611.844,-34.9492 536.062,-21.8101 493.391,-15.4957"/>
<polygon fill="midnightblue" stroke="midnightblue" points="493.682,-12.0015 483.284,-14.0367 492.682,-18.9297 493.682,-12.0015"/>
</g>
<!-- Node13&#45;&gt;Node10 -->
<g id="edge20" class="edge"><title>Node13&#45;&gt;Node10</title>
<path fill="none" stroke="midnightblue" d="M798.448,-112.275C786.791,-103.38 768.367,-89.0696 753,-76 733.845,-59.7083 712.679,-40.1125 698.483,-26.7249"/>
<polygon fill="midnightblue" stroke="midnightblue" points="700.665,-23.97 690.999,-19.6318 695.85,-29.0509 700.665,-23.97"/>
</g>
<!-- Node14 -->
<g id="node14" class="node"><title>Node14</title>
<g id="a_node14"><a xlink:href="_byte_reader_8hpp.html" target="_top" xlink:title="Declarações das funções do ByteReader para leitura dos bytes no arquivo .class. ">
<polygon fill="white" stroke="black" points="761.5,-56.5 761.5,-75.5 848.5,-75.5 848.5,-56.5 761.5,-56.5"/>
<text text-anchor="middle" x="805" y="-63.5" font-family="Helvetica,sans-Serif" font-size="10.00">ByteReader.hpp</text>
</a>
</g>
</g>
<!-- Node13&#45;&gt;Node14 -->
<g id="edge22" class="edge"><title>Node13&#45;&gt;Node14</title>
<path fill="none" stroke="midnightblue" d="M809.174,-112.083C808.519,-105.006 807.58,-94.8611 806.758,-85.9865"/>
<polygon fill="midnightblue" stroke="midnightblue" points="810.217,-85.3858 805.81,-75.7511 803.247,-86.0312 810.217,-85.3858"/>
</g>
<!-- Node14&#45;&gt;Node10 -->
<g id="edge23" class="edge"><title>Node14&#45;&gt;Node10</title>
<path fill="none" stroke="midnightblue" d="M785.51,-56.4435C765.358,-47.5961 733.677,-33.6875 710.669,-23.5865"/>
<polygon fill="midnightblue" stroke="midnightblue" points="711.962,-20.3316 701.399,-19.5164 709.148,-26.7411 711.962,-20.3316"/>
</g>
<!-- Node15&#45;&gt;Node3 -->
<g id="edge27" class="edge"><title>Node15&#45;&gt;Node3</title>
<path fill="none" stroke="midnightblue" d="M386.412,-168.418C390.064,-155.819 397.478,-131.678 406,-112 419.113,-81.7185 437.919,-48.2515 449.525,-28.4557"/>
<polygon fill="midnightblue" stroke="midnightblue" points="452.642,-30.0614 454.729,-19.6742 446.62,-26.4927 452.642,-30.0614"/>
</g>
<!-- Node15&#45;&gt;Node9 -->
<g id="edge25" class="edge"><title>Node15&#45;&gt;Node9</title>
<path fill="none" stroke="midnightblue" d="M412.703,-168.479C439.195,-160.267 479.397,-146.917 513,-132 547.606,-116.638 585.701,-94.9211 609.241,-80.8989"/>
<polygon fill="midnightblue" stroke="midnightblue" points="611.326,-83.7292 618.094,-75.578 607.72,-77.7293 611.326,-83.7292"/>
</g>
<!-- Node15&#45;&gt;Node12 -->
<g id="edge26" class="edge"><title>Node15&#45;&gt;Node12</title>
<path fill="none" stroke="midnightblue" d="M396.211,-168.324C407.776,-160.107 425.375,-147.602 439.161,-137.807"/>
<polygon fill="midnightblue" stroke="midnightblue" points="441.443,-140.479 447.567,-131.834 437.388,-134.773 441.443,-140.479"/>
</g>
<!-- Node16&#45;&gt;Node2 -->
<g id="edge39" class="edge"><title>Node16&#45;&gt;Node2</title>
<path fill="none" stroke="midnightblue" d="M603.466,-342.986C546.609,-338.718 430.109,-326.864 401,-300 388.246,-288.229 384.227,-268.3 383.103,-253.604"/>
<polygon fill="midnightblue" stroke="midnightblue" points="386.6,-253.464 382.711,-243.609 379.606,-253.738 386.6,-253.464"/>
</g>
<!-- Node16&#45;&gt;Node3 -->
<g id="edge30" class="edge"><title>Node16&#45;&gt;Node3</title>
<path fill="none" stroke="midnightblue" d="M603.231,-345.581C484.555,-346.916 74,-343.679 74,-235 74,-235 74,-235 74,-121 74,-88.6012 80.5171,-74.6637 107,-56 158.005,-20.0547 348.301,-12.8177 426.314,-11.364"/>
<polygon fill="midnightblue" stroke="midnightblue" points="426.609,-14.8596 436.55,-11.1948 426.494,-7.86059 426.609,-14.8596"/>
</g>
<!-- Node16&#45;&gt;Node6 -->
<g id="edge32" class="edge"><title>Node16&#45;&gt;Node6</title>
<path fill="none" stroke="midnightblue" d="M603.476,-344.925C517.302,-342.895 276.232,-324.667 156,-188 130.949,-159.525 132.089,-111.899 135.069,-85.6955"/>
<polygon fill="midnightblue" stroke="midnightblue" points="138.562,-85.9802 136.434,-75.6013 131.626,-85.0419 138.562,-85.9802"/>
</g>
<!-- Node16&#45;&gt;Node9 -->
<g id="edge36" class="edge"><title>Node16&#45;&gt;Node9</title>
<path fill="none" stroke="midnightblue" d="M636.609,-336.424C640.634,-316.102 652.256,-263.739 672,-224 680.782,-206.325 691.928,-206.779 698,-188 700.735,-179.542 698.63,-176.867 698,-168 696.218,-142.922 702.632,-133.738 690,-112 682.448,-99.0042 669.544,-88.4318 657.823,-80.8082"/>
<polygon fill="midnightblue" stroke="midnightblue" points="659.561,-77.7686 649.198,-75.5618 655.923,-83.749 659.561,-77.7686"/>
</g>
<!-- Node16&#45;&gt;Node11 -->
<g id="edge37" class="edge"><title>Node16&#45;&gt;Node11</title>
<path fill="none" stroke="midnightblue" d="M631.4,-336.222C627.944,-327.285 622.967,-312.942 621,-300 615.537,-264.047 621.088,-221.524 625.278,-197.665"/>
<polygon fill="midnightblue" stroke="midnightblue" points="628.769,-198.036 627.171,-187.562 621.889,-196.747 628.769,-198.036"/>
</g>
<!-- Node16&#45;&gt;Node12 -->
<g id="edge38" class="edge"><title>Node16&#45;&gt;Node12</title>
<path fill="none" stroke="midnightblue" d="M631.101,-336.252C616.791,-304.412 566.613,-195.145 540,-168 526.512,-154.242 507.92,-143.442 492.053,-135.875"/>
<polygon fill="midnightblue" stroke="midnightblue" points="493.149,-132.528 482.596,-131.583 490.256,-138.903 493.149,-132.528"/>
</g>
<!-- Node16&#45;&gt;Node17 -->
<g id="edge31" class="edge"><title>Node16&#45;&gt;Node17</title>
<path fill="none" stroke="midnightblue" d="M666.633,-343.557C701.195,-340.403 756.375,-330.544 792,-300 805.985,-288.009 813.833,-268.114 817.961,-253.487"/>
<polygon fill="midnightblue" stroke="midnightblue" points="821.417,-254.096 820.434,-243.547 814.624,-252.406 821.417,-254.096"/>
</g>
<!-- Node18 -->
<g id="node18" class="node"><title>Node18</title>
<polygon fill="white" stroke="#bfbfbf" points="410.5,-280.5 410.5,-299.5 451.5,-299.5 451.5,-280.5 410.5,-280.5"/>
<text text-anchor="middle" x="431" y="-287.5" font-family="Helvetica,sans-Serif" font-size="10.00">stack</text>
</g>
<!-- Node16&#45;&gt;Node18 -->
<g id="edge33" class="edge"><title>Node16&#45;&gt;Node18</title>
<path fill="none" stroke="midnightblue" d="M603.26,-337.337C570.093,-329.22 516.328,-315.757 461.45,-300.318"/>
<polygon fill="midnightblue" stroke="midnightblue" points="462.133,-296.874 451.558,-297.517 460.226,-303.609 462.133,-296.874"/>
</g>
<!-- Node16&#45;&gt;Node19 -->
<g id="edge34" class="edge"><title>Node16&#45;&gt;Node19</title>
<path fill="none" stroke="midnightblue" d="M666.771,-342.749C731.985,-337.691 878.479,-323.957 922,-300 942.253,-288.851 958.77,-267.587 968.714,-252.416"/>
<polygon fill="midnightblue" stroke="midnightblue" points="971.702,-254.238 974.031,-243.902 965.765,-250.53 971.702,-254.238"/>
</g>
<!-- Node20 -->
<g id="node20" class="node"><title>Node20</title>
<polygon fill="white" stroke="#bfbfbf" points="469.5,-280.5 469.5,-299.5 530.5,-299.5 530.5,-280.5 469.5,-280.5"/>
<text text-anchor="middle" x="500" y="-287.5" font-family="Helvetica,sans-Serif" font-size="10.00">Stack.hpp</text>
</g>
<!-- Node16&#45;&gt;Node20 -->
<g id="edge35" class="edge"><title>Node16&#45;&gt;Node20</title>
<path fill="none" stroke="midnightblue" d="M613.609,-336.444C591.293,-327.517 556.097,-313.439 530.792,-303.317"/>
<polygon fill="midnightblue" stroke="midnightblue" points="531.876,-299.981 521.291,-299.516 529.276,-306.48 531.876,-299.981"/>
</g>
<!-- Node21 -->
<g id="node21" class="node"><title>Node21</title>
<g id="a_node21"><a xlink:href="_instruction_8hpp.html" target="_top" xlink:title="Declarações das instruçoes referentes ao interpretador da JVM. ">
<polygon fill="white" stroke="black" points="701.5,-280.5 701.5,-299.5 782.5,-299.5 782.5,-280.5 701.5,-280.5"/>
<text text-anchor="middle" x="742" y="-287.5" font-family="Helvetica,sans-Serif" font-size="10.00">Instruction.hpp</text>
</a>
</g>
</g>
<!-- Node16&#45;&gt;Node21 -->
<g id="edge40" class="edge"><title>Node16&#45;&gt;Node21</title>
<path fill="none" stroke="midnightblue" d="M652.191,-336.324C669.351,-327.664 695.946,-314.242 715.747,-304.249"/>
<polygon fill="midnightblue" stroke="midnightblue" points="717.501,-307.285 724.851,-299.655 714.347,-301.035 717.501,-307.285"/>
</g>
<!-- Node16&#45;&gt;Node23 -->
<g id="edge44" class="edge"><title>Node16&#45;&gt;Node23</title>
<path fill="none" stroke="midnightblue" d="M666.593,-336.799C708.238,-326.965 781.526,-310.527 829.484,-300.25"/>
<polygon fill="midnightblue" stroke="midnightblue" points="830.262,-303.662 839.313,-298.155 828.803,-296.816 830.262,-303.662"/>
</g>
<!-- Node21&#45;&gt;Node17 -->
<g id="edge41" class="edge"><title>Node21&#45;&gt;Node17</title>
<path fill="none" stroke="midnightblue" d="M754.853,-280.324C767.216,-271.979 786.13,-259.212 800.737,-249.352"/>
<polygon fill="midnightblue" stroke="midnightblue" points="802.848,-252.15 809.179,-243.655 798.932,-246.348 802.848,-252.15"/>
</g>
<!-- Node22 -->
<g id="node22" class="node"><title>Node22</title>
<g id="a_node22"><a xlink:href="_instruction_impl_8hpp.html" target="_top" xlink:title="Declarações das funções do ClassLoader para salvar todos os bytes de .class corretamente. ">
<polygon fill="white" stroke="black" points="681,-224.5 681,-243.5 781,-243.5 781,-224.5 681,-224.5"/>
<text text-anchor="middle" x="731" y="-231.5" font-family="Helvetica,sans-Serif" font-size="10.00">InstructionImpl.hpp</text>
</a>
</g>
</g>
<!-- Node21&#45;&gt;Node22 -->
<g id="edge42" class="edge"><title>Node21&#45;&gt;Node22</title>
<path fill="none" stroke="midnightblue" d="M740.184,-280.083C738.726,-272.927 736.629,-262.635 734.807,-253.691"/>
<polygon fill="midnightblue" stroke="midnightblue" points="738.208,-252.851 732.783,-243.751 731.349,-254.248 738.208,-252.851"/>
</g>
<!-- Node22&#45;&gt;Node16 -->
<g id="edge43" class="edge"><title>Node22&#45;&gt;Node16</title>
<path fill="none" stroke="midnightblue" d="M723.502,-243.591C707.551,-261.869 670.022,-304.871 649.325,-328.586"/>
<polygon fill="midnightblue" stroke="midnightblue" points="646.471,-326.533 642.533,-336.368 651.745,-331.136 646.471,-326.533"/>
</g>
<!-- Node23&#45;&gt;Node2 -->
<g id="edge47" class="edge"><title>Node23&#45;&gt;Node2</title>
<path fill="none" stroke="midnightblue" d="M839.348,-284.985C753.698,-275.604 540.009,-252.198 438.382,-241.066"/>
<polygon fill="midnightblue" stroke="midnightblue" points="438.639,-237.573 428.317,-239.964 437.877,-244.532 438.639,-237.573"/>
</g>
<!-- Node23&#45;&gt;Node16 -->
<g id="edge48" class="edge"><title>Node23&#45;&gt;Node16</title>
<path fill="none" stroke="midnightblue" d="M842.934,-299.549C799.56,-309.77 723.73,-326.755 676.541,-336.814"/>
<polygon fill="midnightblue" stroke="midnightblue" points="675.698,-333.414 666.641,-338.91 677.149,-340.263 675.698,-333.414"/>
</g>
<!-- Node23&#45;&gt;Node17 -->
<g id="edge46" class="edge"><title>Node23&#45;&gt;Node17</title>
<path fill="none" stroke="midnightblue" d="M867.083,-280.083C859.22,-272.22 847.569,-260.569 838.081,-251.081"/>
<polygon fill="midnightblue" stroke="midnightblue" points="840.297,-248.347 830.751,-243.751 835.347,-253.297 840.297,-248.347"/>
</g>
<!-- Node23&#45;&gt;Node19 -->
<g id="edge45" class="edge"><title>Node23&#45;&gt;Node19</title>
<path fill="none" stroke="midnightblue" d="M892.549,-280.324C908.992,-271.703 934.435,-258.364 953.468,-248.386"/>
<polygon fill="midnightblue" stroke="midnightblue" points="955.261,-251.398 962.492,-243.655 952.011,-245.198 955.261,-251.398"/>
</g>
</g>
</svg>
