<?xml version="1.0" encoding="UTF-8" standalone="no"?>
<!DOCTYPE svg PUBLIC "-//W3C//DTD SVG 1.1//EN"
 "http://www.w3.org/Graphics/SVG/1.1/DTD/svg11.dtd">
<!-- Generated by graphviz version 2.38.0 (20140413.2041)
 -->
<!-- Title: MethodInfo.hpp Pages: 1 -->
<svg width="201pt" height="196pt"
 viewBox="0.00 0.00 201.35 196.00" xmlns="http://www.w3.org/2000/svg" xmlns:xlink="http://www.w3.org/1999/xlink">
<g id="graph0" class="graph" transform="scale(1 1) rotate(0) translate(4 192)">
<title>MethodInfo.hpp</title>
<polygon fill="white" stroke="none" points="-4,4 -4,-192 197.346,-192 197.346,4 -4,4"/>
<!-- Node1 -->
<g id="node1" class="node"><title>Node1</title>
<polygon fill="#bfbfbf" stroke="black" points="0,-168.5 0,-187.5 84,-187.5 84,-168.5 0,-168.5"/>
<text text-anchor="middle" x="42" y="-175.5" font-family="Helvetica,sans-Serif" font-size="10.00">MethodInfo.hpp</text>
</g>
<!-- Node2 -->
<g id="node2" class="node"><title>Node2</title>
<polygon fill="white" stroke="#bfbfbf" points="25,-0.5 25,-19.5 71,-19.5 71,-0.5 25,-0.5"/>
<text text-anchor="middle" x="48" y="-7.5" font-family="Helvetica,sans-Serif" font-size="10.00">cstdint</text>
</g>
<!-- Node1&#45;&gt;Node2 -->
<g id="edge1" class="edge"><title>Node1&#45;&gt;Node2</title>
<path fill="none" stroke="midnightblue" d="M35.492,-168.32C21.2515,-148.203 -10.1545,-96.9843 6,-56 10.514,-44.5479 19.469,-34.291 27.9546,-26.4724"/>
<polygon fill="midnightblue" stroke="midnightblue" points="30.4686,-28.9275 35.7863,-19.7638 25.9147,-23.6113 30.4686,-28.9275"/>
</g>
<!-- Node3 -->
<g id="node3" class="node"><title>Node3</title>
<g id="a_node3"><a xlink:href="_attribute_info_8hpp.html" target="_top" xlink:title="Declarações das funções do AttributeInfo para tratamento dos atributos do arquivo ...">
<polygon fill="white" stroke="black" points="70.5,-112.5 70.5,-131.5 159.5,-131.5 159.5,-112.5 70.5,-112.5"/>
<text text-anchor="middle" x="115" y="-119.5" font-family="Helvetica,sans-Serif" font-size="10.00">AttributeInfo.hpp</text>
</a>
</g>
</g>
<!-- Node1&#45;&gt;Node3 -->
<g id="edge2" class="edge"><title>Node1&#45;&gt;Node3</title>
<path fill="none" stroke="midnightblue" d="M53.7287,-168.324C64.8374,-160.107 81.7422,-147.602 94.9833,-137.807"/>
<polygon fill="midnightblue" stroke="midnightblue" points="97.0999,-140.595 103.058,-131.834 92.9369,-134.967 97.0999,-140.595"/>
</g>
<!-- Node6 -->
<g id="node6" class="node"><title>Node6</title>
<g id="a_node6"><a xlink:href="_cp_info_8hpp.html" target="_top" xlink:title="Declarações das funções e dos atributos do Pool de constantes. ">
<polygon fill="white" stroke="black" points="15.5,-56.5 15.5,-75.5 80.5,-75.5 80.5,-56.5 15.5,-56.5"/>
<text text-anchor="middle" x="48" y="-63.5" font-family="Helvetica,sans-Serif" font-size="10.00">CpInfo.hpp</text>
</a>
</g>
</g>
<!-- Node1&#45;&gt;Node6 -->
<g id="edge9" class="edge"><title>Node1&#45;&gt;Node6</title>
<path fill="none" stroke="midnightblue" d="M42.4708,-168.368C43.4391,-150.617 45.6727,-109.666 46.9856,-85.5974"/>
<polygon fill="midnightblue" stroke="midnightblue" points="50.4814,-85.7672 47.5314,-75.5914 43.4918,-85.3859 50.4814,-85.7672"/>
</g>
<!-- Node3&#45;&gt;Node2 -->
<g id="edge3" class="edge"><title>Node3&#45;&gt;Node2</title>
<path fill="none" stroke="midnightblue" d="M112.557,-112.117C108.751,-99.1425 100.616,-74.5389 89,-56 82.3504,-45.3869 73.0719,-34.9572 65.0231,-26.8151"/>
<polygon fill="midnightblue" stroke="midnightblue" points="67.1326,-23.9839 57.5271,-19.5135 62.2483,-28.9983 67.1326,-23.9839"/>
</g>
<!-- Node4 -->
<g id="node4" class="node"><title>Node4</title>
<polygon fill="white" stroke="#bfbfbf" points="137,-56.5 137,-75.5 181,-75.5 181,-56.5 137,-56.5"/>
<text text-anchor="middle" x="159" y="-63.5" font-family="Helvetica,sans-Serif" font-size="10.00">vector</text>
</g>
<!-- Node3&#45;&gt;Node4 -->
<g id="edge4" class="edge"><title>Node3&#45;&gt;Node4</title>
<path fill="none" stroke="midnightblue" d="M122.266,-112.083C128.545,-104.377 137.788,-93.0333 145.431,-83.6531"/>
<polygon fill="midnightblue" stroke="midnightblue" points="148.266,-85.7143 151.869,-75.7511 142.839,-81.2926 148.266,-85.7143"/>
</g>
<!-- Node5 -->
<g id="node5" class="node"><title>Node5</title>
<polygon fill="white" stroke="#bfbfbf" points="136,-0.5 136,-19.5 186,-19.5 186,-0.5 136,-0.5"/>
<text text-anchor="middle" x="161" y="-7.5" font-family="Helvetica,sans-Serif" font-size="10.00">fstream</text>
</g>
<!-- Node3&#45;&gt;Node5 -->
<g id="edge5" class="edge"><title>Node3&#45;&gt;Node5</title>
<path fill="none" stroke="midnightblue" d="M142.282,-112.453C159.294,-105.548 179.825,-93.9707 190,-76 199.075,-59.9713 187.75,-40.571 176.704,-27.1598"/>
<polygon fill="midnightblue" stroke="midnightblue" points="179.306,-24.8186 170.048,-19.6672 174.073,-29.4677 179.306,-24.8186"/>
</g>
<!-- Node3&#45;&gt;Node6 -->
<g id="edge6" class="edge"><title>Node3&#45;&gt;Node6</title>
<path fill="none" stroke="midnightblue" d="M104.235,-112.324C94.2339,-104.263 79.1135,-92.0765 67.0695,-82.3695"/>
<polygon fill="midnightblue" stroke="midnightblue" points="68.9429,-79.3841 58.9606,-75.8339 64.5502,-84.8343 68.9429,-79.3841"/>
</g>
<!-- Node6&#45;&gt;Node2 -->
<g id="edge7" class="edge"><title>Node6&#45;&gt;Node2</title>
<path fill="none" stroke="midnightblue" d="M48,-56.083C48,-49.0059 48,-38.8611 48,-29.9865"/>
<polygon fill="midnightblue" stroke="midnightblue" points="51.5001,-29.751 48,-19.7511 44.5001,-29.7511 51.5001,-29.751"/>
</g>
<!-- Node6&#45;&gt;Node5 -->
<g id="edge8" class="edge"><title>Node6&#45;&gt;Node5</title>
<path fill="none" stroke="midnightblue" d="M65.9052,-56.4435C84.254,-47.6751 113.005,-33.9355 134.094,-23.8579"/>
<polygon fill="midnightblue" stroke="midnightblue" points="135.665,-26.9862 143.179,-19.5164 132.647,-20.6703 135.665,-26.9862"/>
</g>
</g>
</svg>
