<?xml version="1.0" encoding="UTF-8" standalone="no"?>
<!DOCTYPE svg PUBLIC "-//W3C//DTD SVG 1.1//EN"
 "http://www.w3.org/Graphics/SVG/1.1/DTD/svg11.dtd">
<!-- Generated by graphviz version 2.38.0 (20140413.2041)
 -->
<!-- Title: MethodInfo.cpp Pages: 1 -->
<svg width="297pt" height="252pt"
 viewBox="0.00 0.00 296.50 252.00" xmlns="http://www.w3.org/2000/svg" xmlns:xlink="http://www.w3.org/1999/xlink">
<g id="graph0" class="graph" transform="scale(1 1) rotate(0) translate(4 248)">
<title>MethodInfo.cpp</title>
<polygon fill="white" stroke="none" points="-4,4 -4,-248 292.5,-248 292.5,4 -4,4"/>
<!-- Node1 -->
<g id="node1" class="node"><title>Node1</title>
<polygon fill="#bfbfbf" stroke="black" points="73.5,-224.5 73.5,-243.5 157.5,-243.5 157.5,-224.5 73.5,-224.5"/>
<text text-anchor="middle" x="115.5" y="-231.5" font-family="Helvetica,sans-Serif" font-size="10.00">MethodInfo.cpp</text>
</g>
<!-- Node2 -->
<g id="node2" class="node"><title>Node2</title>
<g id="a_node2"><a xlink:href="_method_info_8hpp.html" target="_top" xlink:title="Declarações das funções do MethodInfo estrutura responsável por guardas as informaçoes dos metodos do...">
<polygon fill="white" stroke="black" points="109.5,-168.5 109.5,-187.5 193.5,-187.5 193.5,-168.5 109.5,-168.5"/>
<text text-anchor="middle" x="151.5" y="-175.5" font-family="Helvetica,sans-Serif" font-size="10.00">MethodInfo.hpp</text>
</a>
</g>
</g>
<!-- Node1&#45;&gt;Node2 -->
<g id="edge1" class="edge"><title>Node1&#45;&gt;Node2</title>
<path fill="none" stroke="midnightblue" d="M121.445,-224.083C126.477,-216.534 133.837,-205.495 140.013,-196.23"/>
<polygon fill="midnightblue" stroke="midnightblue" points="143.031,-198.013 145.666,-187.751 137.207,-194.13 143.031,-198.013"/>
</g>
<!-- Node8 -->
<g id="node8" class="node"><title>Node8</title>
<g id="a_node8"><a xlink:href="_byte_reader_8hpp.html" target="_top" xlink:title="Declarações das funções do ByteReader para leitura dos bytes no arquivo .class. ">
<polygon fill="white" stroke="black" points="0,-112.5 0,-131.5 87,-131.5 87,-112.5 0,-112.5"/>
<text text-anchor="middle" x="43.5" y="-119.5" font-family="Helvetica,sans-Serif" font-size="10.00">ByteReader.hpp</text>
</a>
</g>
</g>
<!-- Node1&#45;&gt;Node8 -->
<g id="edge11" class="edge"><title>Node1&#45;&gt;Node8</title>
<path fill="none" stroke="midnightblue" d="M109.85,-224.368C97.9682,-206.215 70.2065,-163.802 54.6208,-139.99"/>
<polygon fill="midnightblue" stroke="midnightblue" points="57.5286,-138.042 49.1235,-131.591 51.6717,-141.875 57.5286,-138.042"/>
</g>
<!-- Node3 -->
<g id="node3" class="node"><title>Node3</title>
<polygon fill="white" stroke="#bfbfbf" points="242.5,-0.5 242.5,-19.5 288.5,-19.5 288.5,-0.5 242.5,-0.5"/>
<text text-anchor="middle" x="265.5" y="-7.5" font-family="Helvetica,sans-Serif" font-size="10.00">cstdint</text>
</g>
<!-- Node2&#45;&gt;Node3 -->
<g id="edge2" class="edge"><title>Node2&#45;&gt;Node3</title>
<path fill="none" stroke="midnightblue" d="M180.275,-168.464C199.74,-161.416 224.842,-149.667 241.5,-132 267.736,-104.175 269.048,-56.2923 267.442,-29.8738"/>
<polygon fill="midnightblue" stroke="midnightblue" points="270.912,-29.3712 266.608,-19.6901 263.936,-29.9424 270.912,-29.3712"/>
</g>
<!-- Node4 -->
<g id="node4" class="node"><title>Node4</title>
<g id="a_node4"><a xlink:href="_attribute_info_8hpp.html" target="_top" xlink:title="Declarações das funções do AttributeInfo para tratamento dos atributos do arquivo ...">
<polygon fill="white" stroke="black" points="144,-112.5 144,-131.5 233,-131.5 233,-112.5 144,-112.5"/>
<text text-anchor="middle" x="188.5" y="-119.5" font-family="Helvetica,sans-Serif" font-size="10.00">AttributeInfo.hpp</text>
</a>
</g>
</g>
<!-- Node2&#45;&gt;Node4 -->
<g id="edge3" class="edge"><title>Node2&#45;&gt;Node4</title>
<path fill="none" stroke="midnightblue" d="M157.61,-168.083C162.782,-160.534 170.346,-149.495 176.694,-140.23"/>
<polygon fill="midnightblue" stroke="midnightblue" points="179.739,-141.979 182.504,-131.751 173.964,-138.022 179.739,-141.979"/>
</g>
<!-- Node7 -->
<g id="node7" class="node"><title>Node7</title>
<g id="a_node7"><a xlink:href="_cp_info_8hpp.html" target="_top" xlink:title="Declarações das funções e dos atributos do Pool de constantes. ">
<polygon fill="white" stroke="black" points="72,-56.5 72,-75.5 137,-75.5 137,-56.5 72,-56.5"/>
<text text-anchor="middle" x="104.5" y="-63.5" font-family="Helvetica,sans-Serif" font-size="10.00">CpInfo.hpp</text>
</a>
</g>
</g>
<!-- Node2&#45;&gt;Node7 -->
<g id="edge10" class="edge"><title>Node2&#45;&gt;Node7</title>
<path fill="none" stroke="midnightblue" d="M147.812,-168.368C140.159,-150.456 122.413,-108.923 112.169,-84.9482"/>
<polygon fill="midnightblue" stroke="midnightblue" points="115.319,-83.412 108.171,-75.5914 108.882,-86.1624 115.319,-83.412"/>
</g>
<!-- Node4&#45;&gt;Node3 -->
<g id="edge4" class="edge"><title>Node4&#45;&gt;Node3</title>
<path fill="none" stroke="midnightblue" d="M204.564,-112.372C217.679,-104.537 235.743,-91.8032 246.5,-76 255.907,-62.181 260.726,-43.6607 263.151,-29.9246"/>
<polygon fill="midnightblue" stroke="midnightblue" points="266.659,-30.1268 264.673,-19.7197 259.736,-29.0938 266.659,-30.1268"/>
</g>
<!-- Node5 -->
<g id="node5" class="node"><title>Node5</title>
<polygon fill="white" stroke="#bfbfbf" points="193.5,-56.5 193.5,-75.5 237.5,-75.5 237.5,-56.5 193.5,-56.5"/>
<text text-anchor="middle" x="215.5" y="-63.5" font-family="Helvetica,sans-Serif" font-size="10.00">vector</text>
</g>
<!-- Node4&#45;&gt;Node5 -->
<g id="edge5" class="edge"><title>Node4&#45;&gt;Node5</title>
<path fill="none" stroke="midnightblue" d="M192.959,-112.083C196.654,-104.691 202.023,-93.9533 206.594,-84.8111"/>
<polygon fill="midnightblue" stroke="midnightblue" points="209.783,-86.2606 211.124,-75.7511 203.522,-83.1301 209.783,-86.2606"/>
</g>
<!-- Node6 -->
<g id="node6" class="node"><title>Node6</title>
<polygon fill="white" stroke="#bfbfbf" points="79.5,-0.5 79.5,-19.5 129.5,-19.5 129.5,-0.5 79.5,-0.5"/>
<text text-anchor="middle" x="104.5" y="-7.5" font-family="Helvetica,sans-Serif" font-size="10.00">fstream</text>
</g>
<!-- Node4&#45;&gt;Node6 -->
<g id="edge6" class="edge"><title>Node4&#45;&gt;Node6</title>
<path fill="none" stroke="midnightblue" d="M183.338,-112.296C175.644,-99.544 160.465,-75.2151 145.5,-56 137.626,-45.8896 128.013,-35.2617 120.075,-26.8745"/>
<polygon fill="midnightblue" stroke="midnightblue" points="122.544,-24.3917 113.089,-19.6098 117.498,-29.2438 122.544,-24.3917"/>
</g>
<!-- Node4&#45;&gt;Node7 -->
<g id="edge7" class="edge"><title>Node4&#45;&gt;Node7</title>
<path fill="none" stroke="midnightblue" d="M175.004,-112.324C161.9,-103.9 141.788,-90.9709 126.393,-81.0741"/>
<polygon fill="midnightblue" stroke="midnightblue" points="128.267,-78.118 117.963,-75.6545 124.482,-84.0063 128.267,-78.118"/>
</g>
<!-- Node7&#45;&gt;Node3 -->
<g id="edge8" class="edge"><title>Node7&#45;&gt;Node3</title>
<path fill="none" stroke="midnightblue" d="M130.011,-56.4435C157.813,-47.1186 202.377,-32.1716 232.746,-21.9858"/>
<polygon fill="midnightblue" stroke="midnightblue" points="234.088,-25.2274 242.456,-18.729 231.862,-18.5907 234.088,-25.2274"/>
</g>
<!-- Node7&#45;&gt;Node6 -->
<g id="edge9" class="edge"><title>Node7&#45;&gt;Node6</title>
<path fill="none" stroke="midnightblue" d="M104.5,-56.083C104.5,-49.0059 104.5,-38.8611 104.5,-29.9865"/>
<polygon fill="midnightblue" stroke="midnightblue" points="108,-29.751 104.5,-19.7511 101,-29.7511 108,-29.751"/>
</g>
<!-- Node8&#45;&gt;Node6 -->
<g id="edge12" class="edge"><title>Node8&#45;&gt;Node6</title>
<path fill="none" stroke="midnightblue" d="M44.7605,-112.078C46.8888,-99.054 52.0278,-74.3898 62.5,-56 68.7517,-45.0217 78.186,-34.5864 86.5303,-26.5338"/>
<polygon fill="midnightblue" stroke="midnightblue" points="89.0713,-28.9518 94.0571,-19.6034 84.3298,-23.8023 89.0713,-28.9518"/>
</g>
</g>
</svg>
