<?xml version="1.0" encoding="UTF-8" standalone="no"?>
<!DOCTYPE svg PUBLIC "-//W3C//DTD SVG 1.1//EN"
 "http://www.w3.org/Graphics/SVG/1.1/DTD/svg11.dtd">
<!-- Generated by graphviz version 2.38.0 (20140413.2041)
 -->
<!-- Title: MethodArea.cpp Pages: 1 -->
<svg width="716pt" height="364pt"
 viewBox="0.00 0.00 716.00 364.00" xmlns="http://www.w3.org/2000/svg" xmlns:xlink="http://www.w3.org/1999/xlink">
<g id="graph0" class="graph" transform="scale(1 1) rotate(0) translate(4 360)">
<title>MethodArea.cpp</title>
<polygon fill="white" stroke="none" points="-4,4 -4,-360 712,-360 712,4 -4,4"/>
<!-- Node1 -->
<g id="node1" class="node"><title>Node1</title>
<polygon fill="#bfbfbf" stroke="black" points="99,-336.5 99,-355.5 187,-355.5 187,-336.5 99,-336.5"/>
<text text-anchor="middle" x="143" y="-343.5" font-family="Helvetica,sans-Serif" font-size="10.00">MethodArea.cpp</text>
</g>
<!-- Node2 -->
<g id="node2" class="node"><title>Node2</title>
<g id="a_node2"><a xlink:href="_method_area_8hpp.html" target="_top" xlink:title="Declarações do MethodArea, estrutura responsável por guardar todas as estruturas ClassLoader. ">
<polygon fill="white" stroke="black" points="99,-280.5 99,-299.5 187,-299.5 187,-280.5 99,-280.5"/>
<text text-anchor="middle" x="143" y="-287.5" font-family="Helvetica,sans-Serif" font-size="10.00">MethodArea.hpp</text>
</a>
</g>
</g>
<!-- Node1&#45;&gt;Node2 -->
<g id="edge1" class="edge"><title>Node1&#45;&gt;Node2</title>
<path fill="none" stroke="midnightblue" d="M143,-336.083C143,-329.006 143,-318.861 143,-309.986"/>
<polygon fill="midnightblue" stroke="midnightblue" points="146.5,-309.751 143,-299.751 139.5,-309.751 146.5,-309.751"/>
</g>
<!-- Node3 -->
<g id="node3" class="node"><title>Node3</title>
<polygon fill="white" stroke="#bfbfbf" points="0,-56.5 0,-75.5 44,-75.5 44,-56.5 0,-56.5"/>
<text text-anchor="middle" x="22" y="-63.5" font-family="Helvetica,sans-Serif" font-size="10.00">vector</text>
</g>
<!-- Node2&#45;&gt;Node3 -->
<g id="edge2" class="edge"><title>Node2&#45;&gt;Node3</title>
<path fill="none" stroke="midnightblue" d="M130.855,-280.424C109.292,-264.585 64.2197,-228.63 39,-188 25.2127,-165.788 25.0489,-157.828 21,-132 19.6233,-123.218 20.9013,-120.888 21,-112 21.0956,-103.396 21.2939,-93.8686 21.489,-85.8037"/>
<polygon fill="midnightblue" stroke="midnightblue" points="24.9924,-85.7128 21.7514,-75.6259 17.9947,-85.5323 24.9924,-85.7128"/>
</g>
<!-- Node4 -->
<g id="node4" class="node"><title>Node4</title>
<g id="a_node4"><a xlink:href="_class_loader_8hpp.html" target="_top" xlink:title="Declarações das funções do ClassLoader para salvar todos os bytes de .class corretamente. ">
<polygon fill="white" stroke="black" points="246,-224.5 246,-243.5 336,-243.5 336,-224.5 246,-224.5"/>
<text text-anchor="middle" x="291" y="-231.5" font-family="Helvetica,sans-Serif" font-size="10.00">ClassLoader.hpp</text>
</a>
</g>
</g>
<!-- Node2&#45;&gt;Node4 -->
<g id="edge3" class="edge"><title>Node2&#45;&gt;Node4</title>
<path fill="none" stroke="midnightblue" d="M166.451,-280.444C191.133,-271.438 230.185,-257.189 257.977,-247.049"/>
<polygon fill="midnightblue" stroke="midnightblue" points="259.464,-250.232 267.659,-243.516 257.065,-243.656 259.464,-250.232"/>
</g>
<!-- Node4&#45;&gt;Node3 -->
<g id="edge7" class="edge"><title>Node4&#45;&gt;Node3</title>
<path fill="none" stroke="midnightblue" d="M245.848,-229.783C186.059,-224.622 85.0186,-212.483 58,-188 28.8562,-161.591 22.8812,-112.753 21.9139,-85.9052"/>
<polygon fill="midnightblue" stroke="midnightblue" points="25.4085,-85.5197 21.7546,-75.5749 18.4093,-85.6277 25.4085,-85.5197"/>
</g>
<!-- Node5 -->
<g id="node5" class="node"><title>Node5</title>
<polygon fill="white" stroke="#bfbfbf" points="342,-0.5 342,-19.5 388,-19.5 388,-0.5 342,-0.5"/>
<text text-anchor="middle" x="365" y="-7.5" font-family="Helvetica,sans-Serif" font-size="10.00">cstdint</text>
</g>
<!-- Node4&#45;&gt;Node5 -->
<g id="edge4" class="edge"><title>Node4&#45;&gt;Node5</title>
<path fill="none" stroke="midnightblue" d="M245.763,-232.579C185.808,-230.097 90.5986,-218.382 118,-168 163.708,-83.9573 275.79,-38.6123 331.888,-20.5032"/>
<polygon fill="midnightblue" stroke="midnightblue" points="333.186,-23.7645 341.683,-17.4356 331.094,-17.0844 333.186,-23.7645"/>
</g>
<!-- Node6 -->
<g id="node6" class="node"><title>Node6</title>
<polygon fill="white" stroke="#bfbfbf" points="230,-168.5 230,-187.5 284,-187.5 284,-168.5 230,-168.5"/>
<text text-anchor="middle" x="257" y="-175.5" font-family="Helvetica,sans-Serif" font-size="10.00">iostream</text>
</g>
<!-- Node4&#45;&gt;Node6 -->
<g id="edge5" class="edge"><title>Node4&#45;&gt;Node6</title>
<path fill="none" stroke="midnightblue" d="M285.386,-224.083C280.633,-216.534 273.682,-205.495 267.848,-196.23"/>
<polygon fill="midnightblue" stroke="midnightblue" points="270.8,-194.349 262.51,-187.751 264.876,-198.078 270.8,-194.349"/>
</g>
<!-- Node7 -->
<g id="node7" class="node"><title>Node7</title>
<polygon fill="white" stroke="#bfbfbf" points="302,-168.5 302,-187.5 348,-187.5 348,-168.5 302,-168.5"/>
<text text-anchor="middle" x="325" y="-175.5" font-family="Helvetica,sans-Serif" font-size="10.00">cstring</text>
</g>
<!-- Node4&#45;&gt;Node7 -->
<g id="edge6" class="edge"><title>Node4&#45;&gt;Node7</title>
<path fill="none" stroke="midnightblue" d="M296.614,-224.083C301.367,-216.534 308.318,-205.495 314.152,-196.23"/>
<polygon fill="midnightblue" stroke="midnightblue" points="317.124,-198.078 319.49,-187.751 311.2,-194.349 317.124,-198.078"/>
</g>
<!-- Node8 -->
<g id="node8" class="node"><title>Node8</title>
<polygon fill="white" stroke="#bfbfbf" points="366,-168.5 366,-187.5 418,-187.5 418,-168.5 366,-168.5"/>
<text text-anchor="middle" x="392" y="-175.5" font-family="Helvetica,sans-Serif" font-size="10.00">memory</text>
</g>
<!-- Node4&#45;&gt;Node8 -->
<g id="edge8" class="edge"><title>Node4&#45;&gt;Node8</title>
<path fill="none" stroke="midnightblue" d="M307.227,-224.324C323.351,-215.703 348.3,-202.364 366.964,-192.386"/>
<polygon fill="midnightblue" stroke="midnightblue" points="368.644,-195.456 375.813,-187.655 365.344,-189.283 368.644,-195.456"/>
</g>
<!-- Node9 -->
<g id="node9" class="node"><title>Node9</title>
<polygon fill="white" stroke="#bfbfbf" points="436.5,-168.5 436.5,-187.5 479.5,-187.5 479.5,-168.5 436.5,-168.5"/>
<text text-anchor="middle" x="458" y="-175.5" font-family="Helvetica,sans-Serif" font-size="10.00">cstdio</text>
</g>
<!-- Node4&#45;&gt;Node9 -->
<g id="edge9" class="edge"><title>Node4&#45;&gt;Node9</title>
<path fill="none" stroke="midnightblue" d="M317.462,-224.444C347.172,-214.837 395.337,-199.262 426.843,-189.075"/>
<polygon fill="midnightblue" stroke="midnightblue" points="428.004,-192.378 436.442,-185.971 425.85,-185.718 428.004,-192.378"/>
</g>
<!-- Node10 -->
<g id="node10" class="node"><title>Node10</title>
<g id="a_node10"><a xlink:href="_cp_info_8hpp.html" target="_top" xlink:title="Declarações das funções e dos atributos do Pool de constantes. ">
<polygon fill="white" stroke="black" points="459.5,-56.5 459.5,-75.5 524.5,-75.5 524.5,-56.5 459.5,-56.5"/>
<text text-anchor="middle" x="492" y="-63.5" font-family="Helvetica,sans-Serif" font-size="10.00">CpInfo.hpp</text>
</a>
</g>
</g>
<!-- Node4&#45;&gt;Node10 -->
<g id="edge10" class="edge"><title>Node4&#45;&gt;Node10</title>
<path fill="none" stroke="midnightblue" d="M336.117,-233.105C411.655,-232.215 558.652,-225.563 591,-188 623.959,-149.729 556.696,-103.164 517.496,-80.5828"/>
<polygon fill="midnightblue" stroke="midnightblue" points="519.108,-77.4744 508.675,-75.6311 515.682,-83.5783 519.108,-77.4744"/>
</g>
<!-- Node12 -->
<g id="node12" class="node"><title>Node12</title>
<g id="a_node12"><a xlink:href="_method_info_8hpp.html" target="_top" xlink:title="Declarações das funções do MethodInfo estrutura responsável por guardas as informaçoes dos metodos do...">
<polygon fill="white" stroke="black" points="498,-168.5 498,-187.5 582,-187.5 582,-168.5 498,-168.5"/>
<text text-anchor="middle" x="540" y="-175.5" font-family="Helvetica,sans-Serif" font-size="10.00">MethodInfo.hpp</text>
</a>
</g>
</g>
<!-- Node4&#45;&gt;Node12 -->
<g id="edge13" class="edge"><title>Node4&#45;&gt;Node12</title>
<path fill="none" stroke="midnightblue" d="M330.455,-224.444C373.892,-215.023 443.786,-199.866 490.776,-189.675"/>
<polygon fill="midnightblue" stroke="midnightblue" points="491.699,-193.056 500.73,-187.516 490.215,-186.215 491.699,-193.056"/>
</g>
<!-- Node13 -->
<g id="node13" class="node"><title>Node13</title>
<g id="a_node13"><a xlink:href="_attribute_info_8hpp.html" target="_top" xlink:title="Declarações das funções do AttributeInfo para tratamento dos atributos do arquivo ...">
<polygon fill="white" stroke="black" points="275.5,-112.5 275.5,-131.5 364.5,-131.5 364.5,-112.5 275.5,-112.5"/>
<text text-anchor="middle" x="320" y="-119.5" font-family="Helvetica,sans-Serif" font-size="10.00">AttributeInfo.hpp</text>
</a>
</g>
</g>
<!-- Node4&#45;&gt;Node13 -->
<g id="edge30" class="edge"><title>Node4&#45;&gt;Node13</title>
<path fill="none" stroke="midnightblue" d="M245.721,-230.352C186.916,-225.196 95.5152,-210.291 129,-168 145.767,-146.823 215.049,-134.615 265.352,-128.39"/>
<polygon fill="midnightblue" stroke="midnightblue" points="265.939,-131.845 275.456,-127.188 265.112,-124.894 265.939,-131.845"/>
</g>
<!-- Node14 -->
<g id="node14" class="node"><title>Node14</title>
<g id="a_node14"><a xlink:href="_interface_info_8hpp.html" target="_top" xlink:title="Declarações das funções e atributos de InterfaceInfo. ">
<polygon fill="white" stroke="black" points="618,-112.5 618,-131.5 708,-131.5 708,-112.5 618,-112.5"/>
<text text-anchor="middle" x="663" y="-119.5" font-family="Helvetica,sans-Serif" font-size="10.00">InterfaceInfo.hpp</text>
</a>
</g>
</g>
<!-- Node4&#45;&gt;Node14 -->
<g id="edge21" class="edge"><title>Node4&#45;&gt;Node14</title>
<path fill="none" stroke="midnightblue" d="M336.129,-231.672C415.855,-228.557 577.592,-218.561 624,-188 640.45,-177.167 650.996,-156.783 656.919,-141.718"/>
<polygon fill="midnightblue" stroke="midnightblue" points="660.357,-142.497 660.432,-131.902 653.767,-140.138 660.357,-142.497"/>
</g>
<!-- Node16 -->
<g id="node16" class="node"><title>Node16</title>
<g id="a_node16"><a xlink:href="_field_info_8hpp.html" target="_top" xlink:title="Declarações das funções do FieldInfo para tratamento dos fields do arquivo .class. ">
<polygon fill="white" stroke="black" points="138.5,-168.5 138.5,-187.5 211.5,-187.5 211.5,-168.5 138.5,-168.5"/>
<text text-anchor="middle" x="175" y="-175.5" font-family="Helvetica,sans-Serif" font-size="10.00">FieldInfo.hpp</text>
</a>
</g>
</g>
<!-- Node4&#45;&gt;Node16 -->
<g id="edge26" class="edge"><title>Node4&#45;&gt;Node16</title>
<path fill="none" stroke="midnightblue" d="M272.619,-224.444C253.784,-215.675 224.269,-201.935 202.621,-191.858"/>
<polygon fill="midnightblue" stroke="midnightblue" points="203.838,-188.564 193.295,-187.516 200.883,-194.91 203.838,-188.564"/>
</g>
<!-- Node10&#45;&gt;Node5 -->
<g id="edge11" class="edge"><title>Node10&#45;&gt;Node5</title>
<path fill="none" stroke="midnightblue" d="M471.876,-56.4435C450.976,-47.5566 418.065,-33.5632 394.284,-23.4514"/>
<polygon fill="midnightblue" stroke="midnightblue" points="395.602,-20.2085 385.029,-19.5164 392.862,-26.6504 395.602,-20.2085"/>
</g>
<!-- Node11 -->
<g id="node11" class="node"><title>Node11</title>
<polygon fill="white" stroke="#bfbfbf" points="516,-0.5 516,-19.5 566,-19.5 566,-0.5 516,-0.5"/>
<text text-anchor="middle" x="541" y="-7.5" font-family="Helvetica,sans-Serif" font-size="10.00">fstream</text>
</g>
<!-- Node10&#45;&gt;Node11 -->
<g id="edge12" class="edge"><title>Node10&#45;&gt;Node11</title>
<path fill="none" stroke="midnightblue" d="M500.091,-56.083C507.155,-48.2982 517.588,-36.8015 526.149,-27.3665"/>
<polygon fill="midnightblue" stroke="midnightblue" points="528.931,-29.5087 533.059,-19.7511 523.747,-24.8047 528.931,-29.5087"/>
</g>
<!-- Node12&#45;&gt;Node5 -->
<g id="edge14" class="edge"><title>Node12&#45;&gt;Node5</title>
<path fill="none" stroke="midnightblue" d="M530.591,-168.075C502.21,-141.153 417.198,-60.5135 381.291,-26.4534"/>
<polygon fill="midnightblue" stroke="midnightblue" points="383.697,-23.9109 374.033,-19.5681 378.879,-28.9895 383.697,-23.9109"/>
</g>
<!-- Node12&#45;&gt;Node10 -->
<g id="edge20" class="edge"><title>Node12&#45;&gt;Node10</title>
<path fill="none" stroke="midnightblue" d="M536.234,-168.368C528.417,-150.456 510.294,-108.923 499.832,-84.9482"/>
<polygon fill="midnightblue" stroke="midnightblue" points="502.956,-83.357 495.749,-75.5914 496.541,-86.1566 502.956,-83.357"/>
</g>
<!-- Node12&#45;&gt;Node13 -->
<g id="edge15" class="edge"><title>Node12&#45;&gt;Node13</title>
<path fill="none" stroke="midnightblue" d="M505.14,-168.444C467.084,-159.102 406.042,-144.119 364.54,-133.933"/>
<polygon fill="midnightblue" stroke="midnightblue" points="365.243,-130.501 354.697,-131.516 363.574,-137.299 365.243,-130.501"/>
</g>
<!-- Node13&#45;&gt;Node3 -->
<g id="edge17" class="edge"><title>Node13&#45;&gt;Node3</title>
<path fill="none" stroke="midnightblue" d="M275.386,-112.916C214.651,-101.91 107.413,-82.4775 54.0391,-72.8057"/>
<polygon fill="midnightblue" stroke="midnightblue" points="54.5761,-69.3461 44.1123,-71.0069 53.328,-76.234 54.5761,-69.3461"/>
</g>
<!-- Node13&#45;&gt;Node5 -->
<g id="edge16" class="edge"><title>Node13&#45;&gt;Node5</title>
<path fill="none" stroke="midnightblue" d="M323.531,-112.368C330.859,-94.4563 347.85,-52.9233 357.658,-28.9482"/>
<polygon fill="midnightblue" stroke="midnightblue" points="360.938,-30.1721 361.485,-19.5914 354.46,-27.5217 360.938,-30.1721"/>
</g>
<!-- Node13&#45;&gt;Node10 -->
<g id="edge19" class="edge"><title>Node13&#45;&gt;Node10</title>
<path fill="none" stroke="midnightblue" d="M347.254,-112.444C376.441,-103.28 422.921,-88.6876 455.309,-78.5192"/>
<polygon fill="midnightblue" stroke="midnightblue" points="456.381,-81.8512 464.874,-75.5164 454.284,-75.1726 456.381,-81.8512"/>
</g>
<!-- Node13&#45;&gt;Node11 -->
<g id="edge18" class="edge"><title>Node13&#45;&gt;Node11</title>
<path fill="none" stroke="midnightblue" d="M337.231,-112.354C362.113,-99.8767 409.556,-76.1106 450,-56 471.571,-45.2737 496.05,-33.1728 514.182,-24.2231"/>
<polygon fill="midnightblue" stroke="midnightblue" points="516.124,-27.1676 523.543,-19.604 513.027,-20.8902 516.124,-27.1676"/>
</g>
<!-- Node14&#45;&gt;Node5 -->
<g id="edge23" class="edge"><title>Node14&#45;&gt;Node5</title>
<path fill="none" stroke="midnightblue" d="M648.236,-112.376C624.576,-98.8448 576.409,-72.4723 533,-56 487.332,-38.6707 432.298,-25.2739 397.969,-17.7591"/>
<polygon fill="midnightblue" stroke="midnightblue" points="398.526,-14.2989 388.013,-15.618 397.054,-21.1424 398.526,-14.2989"/>
</g>
<!-- Node14&#45;&gt;Node11 -->
<g id="edge22" class="edge"><title>Node14&#45;&gt;Node11</title>
<path fill="none" stroke="midnightblue" d="M652.303,-112.194C641.499,-103.235 624.395,-88.8757 610,-76 591.543,-59.4908 570.945,-39.9331 557.1,-26.614"/>
<polygon fill="midnightblue" stroke="midnightblue" points="559.421,-23.9899 549.795,-19.563 554.559,-29.0263 559.421,-23.9899"/>
</g>
<!-- Node15 -->
<g id="node15" class="node"><title>Node15</title>
<g id="a_node15"><a xlink:href="_byte_reader_8hpp.html" target="_top" xlink:title="Declarações das funções do ByteReader para leitura dos bytes no arquivo .class. ">
<polygon fill="white" stroke="black" points="619.5,-56.5 619.5,-75.5 706.5,-75.5 706.5,-56.5 619.5,-56.5"/>
<text text-anchor="middle" x="663" y="-63.5" font-family="Helvetica,sans-Serif" font-size="10.00">ByteReader.hpp</text>
</a>
</g>
</g>
<!-- Node14&#45;&gt;Node15 -->
<g id="edge24" class="edge"><title>Node14&#45;&gt;Node15</title>
<path fill="none" stroke="midnightblue" d="M663,-112.083C663,-105.006 663,-94.8611 663,-85.9865"/>
<polygon fill="midnightblue" stroke="midnightblue" points="666.5,-85.751 663,-75.7511 659.5,-85.7511 666.5,-85.751"/>
</g>
<!-- Node15&#45;&gt;Node11 -->
<g id="edge25" class="edge"><title>Node15&#45;&gt;Node11</title>
<path fill="none" stroke="midnightblue" d="M643.669,-56.4435C623.68,-47.5961 592.257,-33.6875 569.436,-23.5865"/>
<polygon fill="midnightblue" stroke="midnightblue" points="570.802,-20.3635 560.241,-19.5164 567.968,-26.7645 570.802,-20.3635"/>
</g>
<!-- Node16&#45;&gt;Node5 -->
<g id="edge29" class="edge"><title>Node16&#45;&gt;Node5</title>
<path fill="none" stroke="midnightblue" d="M184.948,-168.309C215.472,-141.64 308.096,-60.7157 347.238,-26.5186"/>
<polygon fill="midnightblue" stroke="midnightblue" points="349.923,-28.8203 355.151,-19.6051 345.317,-23.5488 349.923,-28.8203"/>
</g>
<!-- Node16&#45;&gt;Node10 -->
<g id="edge27" class="edge"><title>Node16&#45;&gt;Node10</title>
<path fill="none" stroke="midnightblue" d="M211.745,-169.223C264.766,-157.914 358.04,-137.66 373,-132 408.8,-118.455 447.13,-95.8944 470.333,-81.2348"/>
<polygon fill="midnightblue" stroke="midnightblue" points="472.486,-84.0124 479.016,-75.6697 468.709,-78.1189 472.486,-84.0124"/>
</g>
<!-- Node16&#45;&gt;Node13 -->
<g id="edge28" class="edge"><title>Node16&#45;&gt;Node13</title>
<path fill="none" stroke="midnightblue" d="M197.976,-168.444C222.157,-159.438 260.418,-145.189 287.646,-135.049"/>
<polygon fill="midnightblue" stroke="midnightblue" points="288.982,-138.286 297.132,-131.516 286.539,-131.727 288.982,-138.286"/>
</g>
</g>
</svg>
