<?xml version="1.0" encoding="UTF-8" standalone="no"?>
<!DOCTYPE svg PUBLIC "-//W3C//DTD SVG 1.1//EN"
 "http://www.w3.org/Graphics/SVG/1.1/DTD/svg11.dtd">
<!-- Generated by graphviz version 2.38.0 (20140413.2041)
 -->
<!-- Title: MethodInfo.hpp Pages: 1 -->
<svg width="633pt" height="308pt"
 viewBox="0.00 0.00 632.50 308.00" xmlns="http://www.w3.org/2000/svg" xmlns:xlink="http://www.w3.org/1999/xlink">
<g id="graph0" class="graph" transform="scale(1 1) rotate(0) translate(4 304)">
<title>MethodInfo.hpp</title>
<polygon fill="white" stroke="none" points="-4,4 -4,-304 628.5,-304 628.5,4 -4,4"/>
<!-- Node1 -->
<g id="node1" class="node"><title>Node1</title>
<polygon fill="#bfbfbf" stroke="black" points="332.5,-280.5 332.5,-299.5 416.5,-299.5 416.5,-280.5 332.5,-280.5"/>
<text text-anchor="middle" x="374.5" y="-287.5" font-family="Helvetica,sans-Serif" font-size="10.00">MethodInfo.hpp</text>
</g>
<!-- Node2 -->
<g id="node2" class="node"><title>Node2</title>
<g id="a_node2"><a xlink:href="_frame_8hpp.html" target="_top" xlink:title="Declarações das funções e da estrutura do Frame, utilizado para salvar resultados parciais...">
<polygon fill="white" stroke="black" points="210,-168.5 210,-187.5 273,-187.5 273,-168.5 210,-168.5"/>
<text text-anchor="middle" x="241.5" y="-175.5" font-family="Helvetica,sans-Serif" font-size="10.00">Frame.hpp</text>
</a>
</g>
</g>
<!-- Node1&#45;&gt;Node2 -->
<g id="edge1" class="edge"><title>Node1&#45;&gt;Node2</title>
<path fill="none" stroke="midnightblue" d="M356.141,-273.816C327.814,-250.387 274.375,-206.19 251.888,-187.591"/>
<polygon fill="midnightblue" stroke="midnightblue" points="354.127,-276.692 364.064,-280.368 358.588,-271.298 354.127,-276.692"/>
</g>
<!-- Node16 -->
<g id="node16" class="node"><title>Node16</title>
<g id="a_node16"><a xlink:href="_class_loader_8hpp.html" target="_top" xlink:title="Declarações das funções do ClassLoader para salvar todos os bytes de .class corretamente. ">
<polygon fill="white" stroke="black" points="329.5,-224.5 329.5,-243.5 419.5,-243.5 419.5,-224.5 329.5,-224.5"/>
<text text-anchor="middle" x="374.5" y="-231.5" font-family="Helvetica,sans-Serif" font-size="10.00">ClassLoader.hpp</text>
</a>
</g>
</g>
<!-- Node1&#45;&gt;Node16 -->
<g id="edge23" class="edge"><title>Node1&#45;&gt;Node16</title>
<path fill="none" stroke="midnightblue" d="M374.5,-269.805C374.5,-260.91 374.5,-250.78 374.5,-243.751"/>
<polygon fill="midnightblue" stroke="midnightblue" points="371,-270.083 374.5,-280.083 378,-270.083 371,-270.083"/>
</g>
<!-- Node20 -->
<g id="node20" class="node"><title>Node20</title>
<g id="a_node20"><a xlink:href="_method_info_8cpp.html" target="_top" xlink:title="Métodos que simulam as a leitura dos methods assim como um destrutor;. ">
<polygon fill="white" stroke="black" points="437.5,-224.5 437.5,-243.5 521.5,-243.5 521.5,-224.5 437.5,-224.5"/>
<text text-anchor="middle" x="479.5" y="-231.5" font-family="Helvetica,sans-Serif" font-size="10.00">MethodInfo.cpp</text>
</a>
</g>
</g>
<!-- Node1&#45;&gt;Node20 -->
<g id="edge31" class="edge"><title>Node1&#45;&gt;Node20</title>
<path fill="none" stroke="midnightblue" d="M400.31,-275.726C419.753,-265.727 445.848,-252.307 462.672,-243.655"/>
<polygon fill="midnightblue" stroke="midnightblue" points="398.662,-272.638 391.37,-280.324 401.864,-278.863 398.662,-272.638"/>
</g>
<!-- Node3 -->
<g id="node3" class="node"><title>Node3</title>
<g id="a_node3"><a xlink:href="_instruction_impl_8hpp.html" target="_top" xlink:title="Declarações das funções do ClassLoader para salvar todos os bytes de .class corretamente. ">
<polygon fill="white" stroke="black" points="97.5,-112.5 97.5,-131.5 197.5,-131.5 197.5,-112.5 97.5,-112.5"/>
<text text-anchor="middle" x="147.5" y="-119.5" font-family="Helvetica,sans-Serif" font-size="10.00">InstructionImpl.hpp</text>
</a>
</g>
</g>
<!-- Node2&#45;&gt;Node3 -->
<g id="edge2" class="edge"><title>Node2&#45;&gt;Node3</title>
<path fill="none" stroke="midnightblue" d="M217.438,-163.177C200.141,-153.241 177.352,-140.149 162.565,-131.655"/>
<polygon fill="midnightblue" stroke="midnightblue" points="215.983,-166.378 226.397,-168.324 219.47,-160.308 215.983,-166.378"/>
</g>
<!-- Node7 -->
<g id="node7" class="node"><title>Node7</title>
<g id="a_node7"><a xlink:href="_instance_8hpp.html" target="_top" xlink:title="Declaração da struct Instance. ">
<polygon fill="white" stroke="black" points="341,-112.5 341,-131.5 414,-131.5 414,-112.5 341,-112.5"/>
<text text-anchor="middle" x="377.5" y="-119.5" font-family="Helvetica,sans-Serif" font-size="10.00">Instance.hpp</text>
</a>
</g>
</g>
<!-- Node2&#45;&gt;Node7 -->
<g id="edge8" class="edge"><title>Node2&#45;&gt;Node7</title>
<path fill="none" stroke="midnightblue" d="M267.177,-164.503C291.197,-154.38 326.674,-140.388 350.971,-131.516"/>
<polygon fill="midnightblue" stroke="midnightblue" points="265.78,-161.294 257.961,-168.444 268.532,-167.73 265.78,-161.294"/>
</g>
<!-- Node10 -->
<g id="node10" class="node"><title>Node10</title>
<g id="a_node10"><a xlink:href="_instruction_impl_8cpp.html" target="_top" xlink:title="Métodos referentes a execução de cada instrução ;. ">
<polygon fill="white" stroke="black" points="243.5,-0.5 243.5,-19.5 343.5,-19.5 343.5,-0.5 243.5,-0.5"/>
<text text-anchor="middle" x="293.5" y="-7.5" font-family="Helvetica,sans-Serif" font-size="10.00">InstructionImpl.cpp</text>
</a>
</g>
</g>
<!-- Node2&#45;&gt;Node10 -->
<g id="edge21" class="edge"><title>Node2&#45;&gt;Node10</title>
<path fill="none" stroke="midnightblue" d="M237.599,-158.119C233.445,-133.419 229.346,-89.3633 244.5,-56 251.665,-40.2259 267.256,-27.4876 278.939,-19.643"/>
<polygon fill="midnightblue" stroke="midnightblue" points="234.221,-159.093 239.501,-168.279 241.101,-157.805 234.221,-159.093"/>
</g>
<!-- Node14 -->
<g id="node14" class="node"><title>Node14</title>
<g id="a_node14"><a xlink:href="_interpreter_8hpp.html" target="_top" xlink:title="Declarações das funções e atributos do Interpretador para interpretar o que foi lido do ...">
<polygon fill="white" stroke="black" points="253.5,-56.5 253.5,-75.5 333.5,-75.5 333.5,-56.5 253.5,-56.5"/>
<text text-anchor="middle" x="293.5" y="-63.5" font-family="Helvetica,sans-Serif" font-size="10.00">Interpreter.hpp</text>
</a>
</g>
</g>
<!-- Node2&#45;&gt;Node14 -->
<g id="edge22" class="edge"><title>Node2&#45;&gt;Node14</title>
<path fill="none" stroke="midnightblue" d="M249.858,-159.32C261.18,-135.37 280.95,-93.5484 289.439,-75.5914"/>
<polygon fill="midnightblue" stroke="midnightblue" points="246.69,-157.832 245.58,-168.368 253.018,-160.824 246.69,-157.832"/>
</g>
<!-- Node15 -->
<g id="node15" class="node"><title>Node15</title>
<g id="a_node15"><a xlink:href="_frame_8cpp.html" target="_top" xlink:title="Contrutor, destrutor e metodos para o funcionamento da lógica do frame;. ">
<polygon fill="white" stroke="black" points="16,-112.5 16,-131.5 79,-131.5 79,-112.5 16,-112.5"/>
<text text-anchor="middle" x="47.5" y="-119.5" font-family="Helvetica,sans-Serif" font-size="10.00">Frame.cpp</text>
</a>
</g>
</g>
<!-- Node2&#45;&gt;Node15 -->
<g id="edge20" class="edge"><title>Node2&#45;&gt;Node15</title>
<path fill="none" stroke="midnightblue" d="M200.899,-165.699C164.285,-155.507 111.243,-140.743 78.0961,-131.516"/>
<polygon fill="midnightblue" stroke="midnightblue" points="200.188,-169.134 210.76,-168.444 202.065,-162.39 200.188,-169.134"/>
</g>
<!-- Node4 -->
<g id="node4" class="node"><title>Node4</title>
<g id="a_node4"><a xlink:href="_instruction_8hpp.html" target="_top" xlink:title="Declarações das instruçoes referentes ao interpretador da JVM. ">
<polygon fill="white" stroke="black" points="21,-56.5 21,-75.5 102,-75.5 102,-56.5 21,-56.5"/>
<text text-anchor="middle" x="61.5" y="-63.5" font-family="Helvetica,sans-Serif" font-size="10.00">Instruction.hpp</text>
</a>
</g>
</g>
<!-- Node3&#45;&gt;Node4 -->
<g id="edge3" class="edge"><title>Node3&#45;&gt;Node4</title>
<path fill="none" stroke="midnightblue" d="M125.045,-106.901C109.276,-96.9986 88.6864,-84.0705 75.2831,-75.6545"/>
<polygon fill="midnightblue" stroke="midnightblue" points="123.352,-109.97 133.683,-112.324 127.075,-104.042 123.352,-109.97"/>
</g>
<!-- Node6 -->
<g id="node6" class="node"><title>Node6</title>
<g id="a_node6"><a xlink:href="_instruction_8cpp.html" target="_top" xlink:title="Métodos que servem para inicializar todas as intruções contidas na documentação;. ...">
<polygon fill="white" stroke="black" points="107,-0.5 107,-19.5 188,-19.5 188,-0.5 107,-0.5"/>
<text text-anchor="middle" x="147.5" y="-7.5" font-family="Helvetica,sans-Serif" font-size="10.00">Instruction.cpp</text>
</a>
</g>
</g>
<!-- Node3&#45;&gt;Node6 -->
<g id="edge7" class="edge"><title>Node3&#45;&gt;Node6</title>
<path fill="none" stroke="midnightblue" d="M147.5,-102.348C147.5,-78.2538 147.5,-37.3079 147.5,-19.5914"/>
<polygon fill="midnightblue" stroke="midnightblue" points="144,-102.368 147.5,-112.368 151,-102.369 144,-102.368"/>
</g>
<!-- Node4&#45;&gt;Node2 -->
<g id="edge5" class="edge"><title>Node4&#45;&gt;Node2</title>
<path fill="none" stroke="midnightblue" d="M36.4023,-80.7127C15.6346,-93.8151 -8.25201,-114.155 6.5,-132 31.9747,-162.816 152.015,-172.732 209.998,-175.755"/>
<polygon fill="midnightblue" stroke="midnightblue" points="38.2097,-83.71 44.99,-75.5689 34.6127,-77.7048 38.2097,-83.71"/>
</g>
<!-- Node5 -->
<g id="node5" class="node"><title>Node5</title>
<g id="a_node5"><a xlink:href="_attribute_info_8cpp.html" target="_top" xlink:title="Tem os métodos para adiquirir as informações dos atributos;. ">
<polygon fill="white" stroke="black" points="0,-0.5 0,-19.5 89,-19.5 89,-0.5 0,-0.5"/>
<text text-anchor="middle" x="44.5" y="-7.5" font-family="Helvetica,sans-Serif" font-size="10.00">AttributeInfo.cpp</text>
</a>
</g>
</g>
<!-- Node4&#45;&gt;Node5 -->
<g id="edge4" class="edge"><title>Node4&#45;&gt;Node5</title>
<path fill="none" stroke="midnightblue" d="M55.6431,-46.3956C52.7992,-37.362 49.5169,-26.936 47.255,-19.7511"/>
<polygon fill="midnightblue" stroke="midnightblue" points="52.3514,-47.5955 58.6928,-56.083 59.0283,-45.4935 52.3514,-47.5955"/>
</g>
<!-- Node4&#45;&gt;Node6 -->
<g id="edge6" class="edge"><title>Node4&#45;&gt;Node6</title>
<path fill="none" stroke="midnightblue" d="M83.9547,-50.9005C99.7244,-40.9986 120.314,-28.0705 133.717,-19.6545"/>
<polygon fill="midnightblue" stroke="midnightblue" points="81.9251,-48.0421 75.3174,-56.324 85.6475,-53.9704 81.9251,-48.0421"/>
</g>
<!-- Node7&#45;&gt;Node2 -->
<g id="edge9" class="edge"><title>Node7&#45;&gt;Node2</title>
<path fill="none" stroke="midnightblue" d="M351.931,-135.451C327.946,-145.563 292.47,-159.557 268.138,-168.444"/>
<polygon fill="midnightblue" stroke="midnightblue" points="353.313,-138.667 361.131,-131.516 350.56,-132.231 353.313,-138.667"/>
</g>
<!-- Node8 -->
<g id="node8" class="node"><title>Node8</title>
<g id="a_node8"><a xlink:href="_g_l_o_b_a_l__file_8hpp.html" target="_top" xlink:title="Armazenas classes estáticas para serem usadas por todo o código. ">
<polygon fill="white" stroke="black" points="443.5,-56.5 443.5,-75.5 535.5,-75.5 535.5,-56.5 443.5,-56.5"/>
<text text-anchor="middle" x="489.5" y="-63.5" font-family="Helvetica,sans-Serif" font-size="10.00">GLOBAL_file.hpp</text>
</a>
</g>
</g>
<!-- Node7&#45;&gt;Node8 -->
<g id="edge10" class="edge"><title>Node7&#45;&gt;Node8</title>
<path fill="none" stroke="midnightblue" d="M404.749,-107.862C425.516,-97.8492 453.523,-84.3458 471.55,-75.6545"/>
<polygon fill="midnightblue" stroke="midnightblue" points="402.982,-104.828 395.495,-112.324 406.023,-111.134 402.982,-104.828"/>
</g>
<!-- Node13 -->
<g id="node13" class="node"><title>Node13</title>
<g id="a_node13"><a xlink:href="_instance_8cpp.html" target="_top" xlink:title="Contém métodos para carregar as informações do Classloader na Instância;. ">
<polygon fill="white" stroke="black" points="352,-56.5 352,-75.5 425,-75.5 425,-56.5 352,-56.5"/>
<text text-anchor="middle" x="388.5" y="-63.5" font-family="Helvetica,sans-Serif" font-size="10.00">Instance.cpp</text>
</a>
</g>
</g>
<!-- Node7&#45;&gt;Node13 -->
<g id="edge15" class="edge"><title>Node7&#45;&gt;Node13</title>
<path fill="none" stroke="midnightblue" d="M381.35,-102.101C383.176,-93.1357 385.27,-82.8579 386.717,-75.7511"/>
<polygon fill="midnightblue" stroke="midnightblue" points="377.883,-101.586 379.316,-112.083 384.742,-102.983 377.883,-101.586"/>
</g>
<!-- Node7&#45;&gt;Node14 -->
<g id="edge16" class="edge"><title>Node7&#45;&gt;Node14</title>
<path fill="none" stroke="midnightblue" d="M355.568,-106.901C340.165,-96.9986 320.054,-84.0705 306.963,-75.6545"/>
<polygon fill="midnightblue" stroke="midnightblue" points="353.699,-109.86 364.004,-112.324 357.485,-103.972 353.699,-109.86"/>
</g>
<!-- Node9 -->
<g id="node9" class="node"><title>Node9</title>
<g id="a_node9"><a xlink:href="_g_l_o_b_a_l__file_8cpp.html" target="_top" xlink:title="Contém métodos que serão utilizados de forma global, ao invés de termos que setar o mesmo para todos ...">
<polygon fill="white" stroke="black" points="532.5,-0.5 532.5,-19.5 624.5,-19.5 624.5,-0.5 532.5,-0.5"/>
<text text-anchor="middle" x="578.5" y="-7.5" font-family="Helvetica,sans-Serif" font-size="10.00">GLOBAL_file.cpp</text>
</a>
</g>
</g>
<!-- Node8&#45;&gt;Node9 -->
<g id="edge11" class="edge"><title>Node8&#45;&gt;Node9</title>
<path fill="none" stroke="midnightblue" d="M512.738,-50.9005C529.058,-40.9986 550.365,-28.0705 564.236,-19.6545"/>
<polygon fill="midnightblue" stroke="midnightblue" points="510.533,-48.1444 503.799,-56.324 514.164,-54.1289 510.533,-48.1444"/>
</g>
<!-- Node8&#45;&gt;Node10 -->
<g id="edge12" class="edge"><title>Node8&#45;&gt;Node10</title>
<path fill="none" stroke="midnightblue" d="M448.48,-53.6986C411.489,-43.507 357.9,-28.7429 324.411,-19.5164"/>
<polygon fill="midnightblue" stroke="midnightblue" points="447.873,-57.1616 458.443,-56.4435 449.732,-50.4131 447.873,-57.1616"/>
</g>
<!-- Node11 -->
<g id="node11" class="node"><title>Node11</title>
<g id="a_node11"><a xlink:href="_interpreter_8cpp.html" target="_top" xlink:title="Métodos que fazem a atuação do interpretador;. ">
<polygon fill="white" stroke="black" points="363.5,-0.5 363.5,-19.5 443.5,-19.5 443.5,-0.5 363.5,-0.5"/>
<text text-anchor="middle" x="403.5" y="-7.5" font-family="Helvetica,sans-Serif" font-size="10.00">Interpreter.cpp</text>
</a>
</g>
</g>
<!-- Node8&#45;&gt;Node11 -->
<g id="edge13" class="edge"><title>Node8&#45;&gt;Node11</title>
<path fill="none" stroke="midnightblue" d="M467.045,-50.9005C451.276,-40.9986 430.686,-28.0705 417.283,-19.6545"/>
<polygon fill="midnightblue" stroke="midnightblue" points="465.352,-53.9704 475.683,-56.324 469.075,-48.0421 465.352,-53.9704"/>
</g>
<!-- Node12 -->
<g id="node12" class="node"><title>Node12</title>
<g id="a_node12"><a xlink:href="jvm_8cpp.html" target="_top" xlink:title="Arquivo inicial em que é selecionado ou a exibição do leitor ou do interpretador dependendo da chamad...">
<polygon fill="white" stroke="black" points="463,-0.5 463,-19.5 514,-19.5 514,-0.5 463,-0.5"/>
<text text-anchor="middle" x="488.5" y="-7.5" font-family="Helvetica,sans-Serif" font-size="10.00">jvm.cpp</text>
</a>
</g>
</g>
<!-- Node8&#45;&gt;Node12 -->
<g id="edge14" class="edge"><title>Node8&#45;&gt;Node12</title>
<path fill="none" stroke="midnightblue" d="M489.145,-45.8045C488.98,-36.9102 488.792,-26.7798 488.662,-19.7511"/>
<polygon fill="midnightblue" stroke="midnightblue" points="485.65,-46.1495 489.335,-56.083 492.649,-46.0199 485.65,-46.1495"/>
</g>
<!-- Node14&#45;&gt;Node10 -->
<g id="edge17" class="edge"><title>Node14&#45;&gt;Node10</title>
<path fill="none" stroke="midnightblue" d="M293.5,-45.8045C293.5,-36.9102 293.5,-26.7798 293.5,-19.7511"/>
<polygon fill="midnightblue" stroke="midnightblue" points="290,-46.083 293.5,-56.083 297,-46.083 290,-46.083"/>
</g>
<!-- Node14&#45;&gt;Node11 -->
<g id="edge18" class="edge"><title>Node14&#45;&gt;Node11</title>
<path fill="none" stroke="midnightblue" d="M320.262,-51.8622C340.659,-41.8492 368.166,-28.3458 385.87,-19.6545"/>
<polygon fill="midnightblue" stroke="midnightblue" points="318.608,-48.7753 311.173,-56.324 321.692,-55.059 318.608,-48.7753"/>
</g>
<!-- Node14&#45;&gt;Node12 -->
<g id="edge19" class="edge"><title>Node14&#45;&gt;Node12</title>
<path fill="none" stroke="midnightblue" d="M334.305,-53.7002C373.003,-42.9839 429.96,-27.211 462.728,-18.1368"/>
<polygon fill="midnightblue" stroke="midnightblue" points="333.102,-50.4016 324.398,-56.4435 334.97,-57.1477 333.102,-50.4016"/>
</g>
<!-- Node16&#45;&gt;Node2 -->
<g id="edge24" class="edge"><title>Node16&#45;&gt;Node2</title>
<path fill="none" stroke="midnightblue" d="M344.052,-220.638C319.093,-210.504 284.423,-196.427 262.476,-187.516"/>
<polygon fill="midnightblue" stroke="midnightblue" points="342.844,-223.924 353.426,-224.444 345.477,-217.439 342.844,-223.924"/>
</g>
<!-- Node16&#45;&gt;Node7 -->
<g id="edge25" class="edge"><title>Node16&#45;&gt;Node7</title>
<path fill="none" stroke="midnightblue" d="M399.677,-219C410.688,-211.401 422.455,-200.906 428.5,-188 439.147,-165.268 411.405,-143.241 392.784,-131.577"/>
<polygon fill="midnightblue" stroke="midnightblue" points="397.672,-216.128 391.133,-224.464 401.443,-222.025 397.672,-216.128"/>
</g>
<!-- Node16&#45;&gt;Node12 -->
<g id="edge28" class="edge"><title>Node16&#45;&gt;Node12</title>
<path fill="none" stroke="midnightblue" d="M428.5,-222.448C485.541,-211.045 567.923,-193.734 572.5,-188 609.914,-141.129 582.152,-102.679 544.5,-56 532.441,-41.0501 514.625,-27.8023 502.343,-19.6188"/>
<polygon fill="midnightblue" stroke="midnightblue" points="427.646,-219.05 418.521,-224.435 429.012,-225.915 427.646,-219.05"/>
</g>
<!-- Node16&#45;&gt;Node14 -->
<g id="edge27" class="edge"><title>Node16&#45;&gt;Node14</title>
<path fill="none" stroke="midnightblue" d="M350.979,-218.656C340.132,-210.878 328.023,-200.33 320.5,-188 297.744,-150.701 294.1,-96.471 293.567,-75.6153"/>
<polygon fill="midnightblue" stroke="midnightblue" points="349.052,-221.578 359.296,-224.281 352.973,-215.78 349.052,-221.578"/>
</g>
<!-- Node17 -->
<g id="node17" class="node"><title>Node17</title>
<g id="a_node17"><a xlink:href="_class_loader_8cpp.html" target="_top" xlink:title="Arquivo que obtém os bytecodes do .class e realiza o carregamento dessas informações;. ">
<polygon fill="white" stroke="black" points="329.5,-168.5 329.5,-187.5 419.5,-187.5 419.5,-168.5 329.5,-168.5"/>
<text text-anchor="middle" x="374.5" y="-175.5" font-family="Helvetica,sans-Serif" font-size="10.00">ClassLoader.cpp</text>
</a>
</g>
</g>
<!-- Node16&#45;&gt;Node17 -->
<g id="edge26" class="edge"><title>Node16&#45;&gt;Node17</title>
<path fill="none" stroke="midnightblue" d="M374.5,-213.805C374.5,-204.91 374.5,-194.78 374.5,-187.751"/>
<polygon fill="midnightblue" stroke="midnightblue" points="371,-214.083 374.5,-224.083 378,-214.083 371,-214.083"/>
</g>
<!-- Node18 -->
<g id="node18" class="node"><title>Node18</title>
<g id="a_node18"><a xlink:href="_method_area_8hpp.html" target="_top" xlink:title="Declarações do MethodArea, estrutura responsável por guardar todas as estruturas ClassLoader. ">
<polygon fill="white" stroke="black" points="475.5,-168.5 475.5,-187.5 563.5,-187.5 563.5,-168.5 475.5,-168.5"/>
<text text-anchor="middle" x="519.5" y="-175.5" font-family="Helvetica,sans-Serif" font-size="10.00">MethodArea.hpp</text>
</a>
</g>
</g>
<!-- Node16&#45;&gt;Node18 -->
<g id="edge29" class="edge"><title>Node16&#45;&gt;Node18</title>
<path fill="none" stroke="midnightblue" d="M406.975,-220.906C434.236,-210.754 472.492,-196.506 496.632,-187.516"/>
<polygon fill="midnightblue" stroke="midnightblue" points="405.625,-217.674 397.476,-224.444 408.068,-224.233 405.625,-217.674"/>
</g>
<!-- Node19 -->
<g id="node19" class="node"><title>Node19</title>
<g id="a_node19"><a xlink:href="_method_area_8cpp.html" target="_top" xlink:title="Métodos que simulam a funcionalidade do MethodArea ;. ">
<polygon fill="white" stroke="black" points="475.5,-112.5 475.5,-131.5 563.5,-131.5 563.5,-112.5 475.5,-112.5"/>
<text text-anchor="middle" x="519.5" y="-119.5" font-family="Helvetica,sans-Serif" font-size="10.00">MethodArea.cpp</text>
</a>
</g>
</g>
<!-- Node18&#45;&gt;Node19 -->
<g id="edge30" class="edge"><title>Node18&#45;&gt;Node19</title>
<path fill="none" stroke="midnightblue" d="M519.5,-157.805C519.5,-148.91 519.5,-138.78 519.5,-131.751"/>
<polygon fill="midnightblue" stroke="midnightblue" points="516,-158.083 519.5,-168.083 523,-158.083 516,-158.083"/>
</g>
</g>
</svg>
