<?xml version="1.0" encoding="UTF-8" standalone="no"?>
<!DOCTYPE svg PUBLIC "-//W3C//DTD SVG 1.1//EN"
 "http://www.w3.org/Graphics/SVG/1.1/DTD/svg11.dtd">
<!-- Generated by graphviz version 2.38.0 (20140413.2041)
 -->
<!-- Title: CodeAttribute::print Pages: 1 -->
<svg width="539pt" height="1809pt"
 viewBox="0.00 0.00 539.00 1809.05" xmlns="http://www.w3.org/2000/svg" xmlns:xlink="http://www.w3.org/1999/xlink">
<g id="graph0" class="graph" transform="scale(1 1) rotate(0) translate(4 1805.05)">
<title>CodeAttribute::print</title>
<polygon fill="white" stroke="none" points="-4,4 -4,-1805.05 535,-1805.05 535,4 -4,4"/>
<!-- Node1 -->
<g id="node1" class="node"><title>Node1</title>
<polygon fill="#bfbfbf" stroke="black" points="0,-441.55 0,-460.55 101,-460.55 101,-441.55 0,-441.55"/>
<text text-anchor="middle" x="50.5" y="-448.55" font-family="Helvetica,sans-Serif" font-size="10.00">CodeAttribute::print</text>
</g>
<!-- Node2 -->
<g id="node2" class="node"><title>Node2</title>
<g id="a_node2"><a xlink:href="class_instruction.html#a145a172552303c9cbd8a5856e31a701b" target="_top" xlink:title="Instruction::init">
<polygon fill="white" stroke="red" points="137,-888.55 137,-907.55 218,-907.55 218,-888.55 137,-888.55"/>
<text text-anchor="middle" x="177.5" y="-895.55" font-family="Helvetica,sans-Serif" font-size="10.00">Instruction::init</text>
</a>
</g>
</g>
<!-- Node1&#45;&gt;Node2 -->
<g id="edge1" class="edge"><title>Node1&#45;&gt;Node2</title>
<path fill="none" stroke="midnightblue" d="M54.2271,-460.802C69.9827,-517.144 149.413,-801.188 171.05,-878.562"/>
<polygon fill="midnightblue" stroke="midnightblue" points="167.745,-879.738 173.809,-888.426 174.486,-877.853 167.745,-879.738"/>
</g>
<!-- Node22 -->
<g id="node22" class="node"><title>Node22</title>
<g id="a_node22"><a xlink:href="struct_cp_attribute_interface.html#a99cabbc15a0af5273a6d324dfbc78f41" target="_top" xlink:title="CpAttributeInterface\l::getUTF8">
<polygon fill="white" stroke="black" points="427,-9.04989 427,-39.0499 531,-39.0499 531,-9.04989 427,-9.04989"/>
<text text-anchor="start" x="435" y="-27.0499" font-family="Helvetica,sans-Serif" font-size="10.00">CpAttributeInterface</text>
<text text-anchor="middle" x="479" y="-16.0499" font-family="Helvetica,sans-Serif" font-size="10.00">::getUTF8</text>
</a>
</g>
</g>
<!-- Node1&#45;&gt;Node22 -->
<g id="edge52" class="edge"><title>Node1&#45;&gt;Node22</title>
<path fill="none" stroke="midnightblue" d="M52.4448,-441.506C58.3082,-388.062 94.8659,-124.704 254,-24.0499 302.173,6.42049 368.615,1.9989 416.613,-7.34828"/>
<polygon fill="midnightblue" stroke="midnightblue" points="416.06,-10.808 426.562,-9.40684 417.478,-3.95318 416.06,-10.808"/>
</g>
<!-- Node3 -->
<g id="node3" class="node"><title>Node3</title>
<g id="a_node3"><a xlink:href="class_instruction_impl.html#a167bb8f230879fe6470318755fa3bcc9" target="_top" xlink:title="InstructionImpl::nop">
<polygon fill="white" stroke="black" points="427.5,-1059.55 427.5,-1078.55 530.5,-1078.55 530.5,-1059.55 427.5,-1059.55"/>
<text text-anchor="middle" x="479" y="-1066.55" font-family="Helvetica,sans-Serif" font-size="10.00">InstructionImpl::nop</text>
</a>
</g>
</g>
<!-- Node2&#45;&gt;Node3 -->
<g id="edge2" class="edge"><title>Node2&#45;&gt;Node3</title>
<path fill="none" stroke="midnightblue" d="M178.601,-907.563C179.636,-996.175 189.653,-1675.25 254,-1734.05 298.95,-1775.12 345.238,-1774.22 391,-1734.05 440.976,-1690.19 471.036,-1195.1 476.93,-1088.99"/>
<polygon fill="midnightblue" stroke="midnightblue" points="480.439,-1088.92 477.49,-1078.74 473.449,-1088.54 480.439,-1088.92"/>
</g>
<!-- Node4 -->
<g id="node4" class="node"><title>Node4</title>
<g id="a_node4"><a xlink:href="class_instruction_impl.html#a9f1d9c6c5641f592c37652c38e47751d" target="_top" xlink:title="InstructionImpl::aconst_null">
<polygon fill="white" stroke="black" points="254,-1705.55 254,-1724.55 391,-1724.55 391,-1705.55 254,-1705.55"/>
<text text-anchor="middle" x="322.5" y="-1712.55" font-family="Helvetica,sans-Serif" font-size="10.00">InstructionImpl::aconst_null</text>
</a>
</g>
</g>
<!-- Node2&#45;&gt;Node4 -->
<g id="edge3" class="edge"><title>Node2&#45;&gt;Node4</title>
<path fill="none" stroke="midnightblue" d="M178.757,-907.563C181.16,-993.375 200.785,-1632.27 254,-1696.05 254.999,-1697.25 256.068,-1698.37 257.196,-1699.43"/>
<polygon fill="midnightblue" stroke="midnightblue" points="255.276,-1702.36 265.406,-1705.47 259.422,-1696.72 255.276,-1702.36"/>
</g>
<!-- Node5 -->
<g id="node5" class="node"><title>Node5</title>
<g id="a_node5"><a xlink:href="class_instruction_impl.html#ab36fd8503491518fcb80b92f7ee4003c" target="_top" xlink:title="InstructionImpl::iconst_m1">
<polygon fill="white" stroke="black" points="256.5,-1667.55 256.5,-1686.55 388.5,-1686.55 388.5,-1667.55 256.5,-1667.55"/>
<text text-anchor="middle" x="322.5" y="-1674.55" font-family="Helvetica,sans-Serif" font-size="10.00">InstructionImpl::iconst_m1</text>
</a>
</g>
</g>
<!-- Node2&#45;&gt;Node5 -->
<g id="edge4" class="edge"><title>Node2&#45;&gt;Node5</title>
<path fill="none" stroke="midnightblue" d="M178.807,-907.631C181.571,-991.394 203.26,-1597.53 254,-1658.05 255.002,-1659.25 256.073,-1660.37 257.203,-1661.42"/>
<polygon fill="midnightblue" stroke="midnightblue" points="255.29,-1664.36 265.425,-1667.45 259.428,-1658.72 255.29,-1664.36"/>
</g>
<!-- Node6 -->
<g id="node6" class="node"><title>Node6</title>
<g id="a_node6"><a xlink:href="class_instruction_impl.html#a51eaef20621f31549bd84147ad484e10" target="_top" xlink:title="InstructionImpl::iconst_0">
<polygon fill="white" stroke="black" points="260.5,-1629.55 260.5,-1648.55 384.5,-1648.55 384.5,-1629.55 260.5,-1629.55"/>
<text text-anchor="middle" x="322.5" y="-1636.55" font-family="Helvetica,sans-Serif" font-size="10.00">InstructionImpl::iconst_0</text>
</a>
</g>
</g>
<!-- Node2&#45;&gt;Node6 -->
<g id="edge5" class="edge"><title>Node2&#45;&gt;Node6</title>
<path fill="none" stroke="midnightblue" d="M178.86,-907.661C181.998,-989.155 205.725,-1562.77 254,-1620.05 255.005,-1621.24 256.079,-1622.36 257.212,-1623.42"/>
<polygon fill="midnightblue" stroke="midnightblue" points="255.307,-1626.36 265.446,-1629.43 259.436,-1620.71 255.307,-1626.36"/>
</g>
<!-- Node7 -->
<g id="node7" class="node"><title>Node7</title>
<g id="a_node7"><a xlink:href="class_instruction_impl.html#a78866e94cc43dba54dde53608cb18053" target="_top" xlink:title="InstructionImpl::iconst_1">
<polygon fill="white" stroke="black" points="260.5,-1591.55 260.5,-1610.55 384.5,-1610.55 384.5,-1591.55 260.5,-1591.55"/>
<text text-anchor="middle" x="322.5" y="-1598.55" font-family="Helvetica,sans-Serif" font-size="10.00">InstructionImpl::iconst_1</text>
</a>
</g>
</g>
<!-- Node2&#45;&gt;Node7 -->
<g id="edge6" class="edge"><title>Node2&#45;&gt;Node7</title>
<path fill="none" stroke="midnightblue" d="M178.93,-907.902C182.497,-987.798 208.226,-1528.05 254,-1582.05 255.009,-1583.24 256.085,-1584.36 257.221,-1585.41"/>
<polygon fill="midnightblue" stroke="midnightblue" points="255.324,-1588.36 265.469,-1591.41 259.444,-1582.7 255.324,-1588.36"/>
</g>
<!-- Node8 -->
<g id="node8" class="node"><title>Node8</title>
<g id="a_node8"><a xlink:href="class_instruction_impl.html#ae0e92a5c61dd98da5069d3ad1b03836b" target="_top" xlink:title="InstructionImpl::iconst_2">
<polygon fill="white" stroke="black" points="260.5,-1553.55 260.5,-1572.55 384.5,-1572.55 384.5,-1553.55 260.5,-1553.55"/>
<text text-anchor="middle" x="322.5" y="-1560.55" font-family="Helvetica,sans-Serif" font-size="10.00">InstructionImpl::iconst_2</text>
</a>
</g>
</g>
<!-- Node2&#45;&gt;Node8 -->
<g id="edge7" class="edge"><title>Node2&#45;&gt;Node8</title>
<path fill="none" stroke="midnightblue" d="M178.993,-907.839C182.962,-984.979 210.666,-1493.26 254,-1544.05 255.012,-1545.24 256.093,-1546.35 257.231,-1547.4"/>
<polygon fill="midnightblue" stroke="midnightblue" points="255.344,-1550.36 265.495,-1553.39 259.453,-1544.69 255.344,-1550.36"/>
</g>
<!-- Node9 -->
<g id="node9" class="node"><title>Node9</title>
<g id="a_node9"><a xlink:href="class_instruction_impl.html#ad19c769fa921833c202c1bce7ca84052" target="_top" xlink:title="InstructionImpl::iconst_3">
<polygon fill="white" stroke="black" points="260.5,-1515.55 260.5,-1534.55 384.5,-1534.55 384.5,-1515.55 260.5,-1515.55"/>
<text text-anchor="middle" x="322.5" y="-1522.55" font-family="Helvetica,sans-Serif" font-size="10.00">InstructionImpl::iconst_3</text>
</a>
</g>
</g>
<!-- Node2&#45;&gt;Node9 -->
<g id="edge8" class="edge"><title>Node2&#45;&gt;Node9</title>
<path fill="none" stroke="midnightblue" d="M178.296,-907.739C177.013,-978.158 172.535,-1411.27 254,-1506.05 255.042,-1507.26 256.154,-1508.4 257.326,-1509.47"/>
<polygon fill="midnightblue" stroke="midnightblue" points="255.669,-1512.58 265.841,-1515.55 259.736,-1506.89 255.669,-1512.58"/>
</g>
<!-- Node10 -->
<g id="node10" class="node"><title>Node10</title>
<g id="a_node10"><a xlink:href="class_instruction_impl.html#af530e67519244342f5e2700cc7f973ca" target="_top" xlink:title="InstructionImpl::iconst_4">
<polygon fill="white" stroke="black" points="260.5,-1477.55 260.5,-1496.55 384.5,-1496.55 384.5,-1477.55 260.5,-1477.55"/>
<text text-anchor="middle" x="322.5" y="-1484.55" font-family="Helvetica,sans-Serif" font-size="10.00">InstructionImpl::iconst_4</text>
</a>
</g>
</g>
<!-- Node2&#45;&gt;Node10 -->
<g id="edge9" class="edge"><title>Node2&#45;&gt;Node10</title>
<path fill="none" stroke="midnightblue" d="M178.386,-907.564C177.774,-974.915 177.349,-1379.6 254,-1468.05 255.046,-1469.26 256.163,-1470.39 257.34,-1471.46"/>
<polygon fill="midnightblue" stroke="midnightblue" points="255.695,-1474.58 265.874,-1477.52 259.748,-1468.87 255.695,-1474.58"/>
</g>
<!-- Node11 -->
<g id="node11" class="node"><title>Node11</title>
<g id="a_node11"><a xlink:href="class_instruction_impl.html#a2fa5a88bd16e98d38053a29d7472cd5e" target="_top" xlink:title="InstructionImpl::iconst_5">
<polygon fill="white" stroke="black" points="260.5,-1439.55 260.5,-1458.55 384.5,-1458.55 384.5,-1439.55 260.5,-1439.55"/>
<text text-anchor="middle" x="322.5" y="-1446.55" font-family="Helvetica,sans-Serif" font-size="10.00">InstructionImpl::iconst_5</text>
</a>
</g>
</g>
<!-- Node2&#45;&gt;Node11 -->
<g id="edge10" class="edge"><title>Node2&#45;&gt;Node11</title>
<path fill="none" stroke="midnightblue" d="M178.485,-907.757C178.583,-973.046 182.292,-1348.08 254,-1430.05 255.157,-1431.37 256.399,-1432.61 257.711,-1433.76"/>
<polygon fill="midnightblue" stroke="midnightblue" points="255.709,-1436.63 265.912,-1439.48 259.716,-1430.89 255.709,-1436.63"/>
</g>
<!-- Node12 -->
<g id="node12" class="node"><title>Node12</title>
<g id="a_node12"><a xlink:href="class_instruction_impl.html#a25630250f742a62db314bb14d57a1ca5" target="_top" xlink:title="InstructionImpl::lconst_0">
<polygon fill="white" stroke="black" points="260.5,-1401.55 260.5,-1420.55 384.5,-1420.55 384.5,-1401.55 260.5,-1401.55"/>
<text text-anchor="middle" x="322.5" y="-1408.55" font-family="Helvetica,sans-Serif" font-size="10.00">InstructionImpl::lconst_0</text>
</a>
</g>
</g>
<!-- Node2&#45;&gt;Node12 -->
<g id="edge11" class="edge"><title>Node2&#45;&gt;Node12</title>
<path fill="none" stroke="midnightblue" d="M178.603,-907.864C179.459,-970.711 187.19,-1316.49 254,-1392.05 255.164,-1393.37 256.412,-1394.6 257.73,-1395.74"/>
<polygon fill="midnightblue" stroke="midnightblue" points="255.743,-1398.62 265.955,-1401.45 259.733,-1392.87 255.743,-1398.62"/>
</g>
<!-- Node13 -->
<g id="node13" class="node"><title>Node13</title>
<g id="a_node13"><a xlink:href="class_instruction_impl.html#ab11e89546eecf872121a0e01001ed568" target="_top" xlink:title="InstructionImpl::lconst_1">
<polygon fill="white" stroke="black" points="260.5,-1363.55 260.5,-1382.55 384.5,-1382.55 384.5,-1363.55 260.5,-1363.55"/>
<text text-anchor="middle" x="322.5" y="-1370.55" font-family="Helvetica,sans-Serif" font-size="10.00">InstructionImpl::lconst_1</text>
</a>
</g>
</g>
<!-- Node2&#45;&gt;Node13 -->
<g id="edge12" class="edge"><title>Node2&#45;&gt;Node13</title>
<path fill="none" stroke="midnightblue" d="M178.74,-907.879C180.401,-967.91 192.042,-1284.85 254,-1354.05 255.172,-1355.36 256.427,-1356.58 257.752,-1357.72"/>
<polygon fill="midnightblue" stroke="midnightblue" points="255.783,-1360.62 266.005,-1363.4 259.751,-1354.85 255.783,-1360.62"/>
</g>
<!-- Node14 -->
<g id="node14" class="node"><title>Node14</title>
<g id="a_node14"><a xlink:href="class_instruction_impl.html#adc02f968c70b7a744c149c77fa409b30" target="_top" xlink:title="InstructionImpl::fconst_0">
<polygon fill="white" stroke="black" points="260,-1325.55 260,-1344.55 385,-1344.55 385,-1325.55 260,-1325.55"/>
<text text-anchor="middle" x="322.5" y="-1332.55" font-family="Helvetica,sans-Serif" font-size="10.00">InstructionImpl::fconst_0</text>
</a>
</g>
</g>
<!-- Node2&#45;&gt;Node14 -->
<g id="edge13" class="edge"><title>Node2&#45;&gt;Node14</title>
<path fill="none" stroke="midnightblue" d="M178.897,-907.794C181.406,-964.645 196.846,-1253.15 254,-1316.05 255.21,-1317.38 256.506,-1318.62 257.872,-1319.78"/>
<polygon fill="midnightblue" stroke="midnightblue" points="256.138,-1322.83 266.385,-1325.52 260.053,-1317.03 256.138,-1322.83"/>
</g>
<!-- Node15 -->
<g id="node15" class="node"><title>Node15</title>
<g id="a_node15"><a xlink:href="class_instruction_impl.html#a5f45236f5b87f0669b8deb0c42d3a224" target="_top" xlink:title="InstructionImpl::fconst_1">
<polygon fill="white" stroke="black" points="260,-1287.55 260,-1306.55 385,-1306.55 385,-1287.55 260,-1287.55"/>
<text text-anchor="middle" x="322.5" y="-1294.55" font-family="Helvetica,sans-Serif" font-size="10.00">InstructionImpl::fconst_1</text>
</a>
</g>
</g>
<!-- Node2&#45;&gt;Node15 -->
<g id="edge14" class="edge"><title>Node2&#45;&gt;Node15</title>
<path fill="none" stroke="midnightblue" d="M179.075,-907.601C182.473,-960.918 201.6,-1221.38 254,-1278.05 255.222,-1279.37 256.527,-1280.6 257.903,-1281.75"/>
<polygon fill="midnightblue" stroke="midnightblue" points="256.194,-1284.82 266.455,-1287.46 260.081,-1279 256.194,-1284.82"/>
</g>
<!-- Node16 -->
<g id="node16" class="node"><title>Node16</title>
<g id="a_node16"><a xlink:href="class_instruction_impl.html#a9a4ec1862322d0cdc900b5855dc9b37d" target="_top" xlink:title="InstructionImpl::fconst_2">
<polygon fill="white" stroke="black" points="260,-1249.55 260,-1268.55 385,-1268.55 385,-1249.55 260,-1249.55"/>
<text text-anchor="middle" x="322.5" y="-1256.55" font-family="Helvetica,sans-Serif" font-size="10.00">InstructionImpl::fconst_2</text>
</a>
</g>
</g>
<!-- Node2&#45;&gt;Node16 -->
<g id="edge15" class="edge"><title>Node2&#45;&gt;Node16</title>
<path fill="none" stroke="midnightblue" d="M179.304,-907.62C183.701,-957.747 206.405,-1189.66 254,-1240.05 255.236,-1241.36 256.554,-1242.58 257.94,-1243.72"/>
<polygon fill="midnightblue" stroke="midnightblue" points="256.262,-1246.8 266.538,-1249.38 260.113,-1240.96 256.262,-1246.8"/>
</g>
<!-- Node17 -->
<g id="node17" class="node"><title>Node17</title>
<g id="a_node17"><a xlink:href="class_instruction_impl.html#a696c0a12c12c3758719922f01358b070" target="_top" xlink:title="InstructionImpl::dconst_0">
<polygon fill="white" stroke="black" points="259,-1211.55 259,-1230.55 386,-1230.55 386,-1211.55 259,-1211.55"/>
<text text-anchor="middle" x="322.5" y="-1218.55" font-family="Helvetica,sans-Serif" font-size="10.00">InstructionImpl::dconst_0</text>
</a>
</g>
</g>
<!-- Node2&#45;&gt;Node17 -->
<g id="edge16" class="edge"><title>Node2&#45;&gt;Node17</title>
<path fill="none" stroke="midnightblue" d="M179.605,-907.778C185.133,-954.785 211.225,-1157.93 254,-1202.05 255.398,-1203.49 256.897,-1204.83 258.476,-1206.06"/>
<polygon fill="midnightblue" stroke="midnightblue" points="256.649,-1209.05 266.968,-1211.45 260.401,-1203.14 256.649,-1209.05"/>
</g>
<!-- Node18 -->
<g id="node18" class="node"><title>Node18</title>
<g id="a_node18"><a xlink:href="class_instruction_impl.html#a784752ba695c693cbee61fe18fbb61e8" target="_top" xlink:title="InstructionImpl::dconst_1">
<polygon fill="white" stroke="black" points="259,-1173.55 259,-1192.55 386,-1192.55 386,-1173.55 259,-1173.55"/>
<text text-anchor="middle" x="322.5" y="-1180.55" font-family="Helvetica,sans-Serif" font-size="10.00">InstructionImpl::dconst_1</text>
</a>
</g>
</g>
<!-- Node2&#45;&gt;Node18 -->
<g id="edge17" class="edge"><title>Node2&#45;&gt;Node18</title>
<path fill="none" stroke="midnightblue" d="M178.13,-907.663C177.206,-945.972 179.071,-1089.28 254,-1164.05 255.454,-1165.5 257.01,-1166.84 258.648,-1168.08"/>
<polygon fill="midnightblue" stroke="midnightblue" points="257.077,-1171.23 267.427,-1173.49 260.747,-1165.27 257.077,-1171.23"/>
</g>
<!-- Node19 -->
<g id="node19" class="node"><title>Node19</title>
<g id="a_node19"><a xlink:href="class_instruction_impl.html#a6d7ad21c1f766cddf753872f728a5532" target="_top" xlink:title="InstructionImpl::bipush">
<polygon fill="white" stroke="black" points="264.5,-1135.55 264.5,-1154.55 380.5,-1154.55 380.5,-1135.55 264.5,-1135.55"/>
<text text-anchor="middle" x="322.5" y="-1142.55" font-family="Helvetica,sans-Serif" font-size="10.00">InstructionImpl::bipush</text>
</a>
</g>
</g>
<!-- Node2&#45;&gt;Node19 -->
<g id="edge18" class="edge"><title>Node2&#45;&gt;Node19</title>
<path fill="none" stroke="midnightblue" d="M178.668,-907.96C179.82,-943.18 188.583,-1063.54 254,-1126.05 255.645,-1127.62 257.409,-1129.07 259.267,-1130.39"/>
<polygon fill="midnightblue" stroke="midnightblue" points="257.533,-1133.43 267.928,-1135.48 261.08,-1127.4 257.533,-1133.43"/>
</g>
<!-- Node20 -->
<g id="node20" class="node"><title>Node20</title>
<g id="a_node20"><a xlink:href="class_instruction_impl.html#a2c6934de13ab206f1ec5c87595f63c32" target="_top" xlink:title="InstructionImpl::sipush">
<polygon fill="white" stroke="black" points="264.5,-1097.55 264.5,-1116.55 380.5,-1116.55 380.5,-1097.55 264.5,-1097.55"/>
<text text-anchor="middle" x="322.5" y="-1104.55" font-family="Helvetica,sans-Serif" font-size="10.00">InstructionImpl::sipush</text>
</a>
</g>
</g>
<!-- Node2&#45;&gt;Node20 -->
<g id="edge19" class="edge"><title>Node2&#45;&gt;Node20</title>
<path fill="none" stroke="midnightblue" d="M179.373,-907.608C182.726,-938.594 197.573,-1037.2 254,-1088.05 255.727,-1089.61 257.571,-1091.04 259.507,-1092.35"/>
<polygon fill="midnightblue" stroke="midnightblue" points="258.057,-1095.55 268.489,-1097.4 261.485,-1089.45 258.057,-1095.55"/>
</g>
<!-- Node21 -->
<g id="node21" class="node"><title>Node21</title>
<g id="a_node21"><a xlink:href="class_instruction_impl.html#ade3ec2b9168ba2026599db6136e60d91" target="_top" xlink:title="InstructionImpl::ldc">
<polygon fill="white" stroke="black" points="272.5,-33.5499 272.5,-52.5499 372.5,-52.5499 372.5,-33.5499 272.5,-33.5499"/>
<text text-anchor="middle" x="322.5" y="-40.5499" font-family="Helvetica,sans-Serif" font-size="10.00">InstructionImpl::ldc</text>
</a>
</g>
</g>
<!-- Node2&#45;&gt;Node21 -->
<g id="edge20" class="edge"><title>Node2&#45;&gt;Node21</title>
<path fill="none" stroke="midnightblue" d="M178.718,-888.366C180.804,-799.6 198.357,-129.025 254,-62.0499 256.638,-58.8749 259.761,-56.2076 263.195,-53.9693"/>
<polygon fill="midnightblue" stroke="midnightblue" points="265.017,-56.9667 272.27,-49.244 261.784,-50.7579 265.017,-56.9667"/>
</g>
<!-- Node23 -->
<g id="node23" class="node"><title>Node23</title>
<g id="a_node23"><a xlink:href="class_instruction_impl.html#aeece337499bb42defdd5e3406c6f7d91" target="_top" xlink:title="InstructionImpl::ldc_w">
<polygon fill="white" stroke="black" points="266,-1059.55 266,-1078.55 379,-1078.55 379,-1059.55 266,-1059.55"/>
<text text-anchor="middle" x="322.5" y="-1066.55" font-family="Helvetica,sans-Serif" font-size="10.00">InstructionImpl::ldc_w</text>
</a>
</g>
</g>
<!-- Node2&#45;&gt;Node23 -->
<g id="edge22" class="edge"><title>Node2&#45;&gt;Node23</title>
<path fill="none" stroke="midnightblue" d="M180.406,-907.565C186.268,-934.309 206.587,-1010.75 254,-1050.05 256.05,-1051.75 258.243,-1053.3 260.539,-1054.71"/>
<polygon fill="midnightblue" stroke="midnightblue" points="259.33,-1058.02 269.823,-1059.49 262.535,-1051.8 259.33,-1058.02"/>
</g>
<!-- Node24 -->
<g id="node24" class="node"><title>Node24</title>
<g id="a_node24"><a xlink:href="class_instruction_impl.html#aa5f6887f392b6882d3786b8930c26d89" target="_top" xlink:title="InstructionImpl::ldc2_w">
<polygon fill="white" stroke="black" points="263.5,-983.55 263.5,-1002.55 381.5,-1002.55 381.5,-983.55 263.5,-983.55"/>
<text text-anchor="middle" x="322.5" y="-990.55" font-family="Helvetica,sans-Serif" font-size="10.00">InstructionImpl::ldc2_w</text>
</a>
</g>
</g>
<!-- Node2&#45;&gt;Node24 -->
<g id="edge24" class="edge"><title>Node2&#45;&gt;Node24</title>
<path fill="none" stroke="midnightblue" d="M185.464,-907.795C197.553,-923.995 224.019,-956.422 254,-974.05 257.66,-976.202 261.575,-978.12 265.609,-979.828"/>
<polygon fill="midnightblue" stroke="midnightblue" points="264.578,-983.181 275.17,-983.445 267.054,-976.633 264.578,-983.181"/>
</g>
<!-- Node25 -->
<g id="node25" class="node"><title>Node25</title>
<g id="a_node25"><a xlink:href="class_instruction_impl.html#aa2f51d824f0c32bfa73babc0fdd50384" target="_top" xlink:title="InstructionImpl::iload">
<polygon fill="white" stroke="black" points="269,-945.55 269,-964.55 376,-964.55 376,-945.55 269,-945.55"/>
<text text-anchor="middle" x="322.5" y="-952.55" font-family="Helvetica,sans-Serif" font-size="10.00">InstructionImpl::iload</text>
</a>
</g>
</g>
<!-- Node2&#45;&gt;Node25 -->
<g id="edge25" class="edge"><title>Node2&#45;&gt;Node25</title>
<path fill="none" stroke="midnightblue" d="M195.167,-907.608C210.19,-915.938 233.071,-927.924 254,-936.05 259.958,-938.363 266.311,-940.527 272.647,-942.505"/>
<polygon fill="midnightblue" stroke="midnightblue" points="271.946,-945.948 282.529,-945.455 273.948,-939.24 271.946,-945.948"/>
</g>
<!-- Node26 -->
<g id="node26" class="node"><title>Node26</title>
<g id="a_node26"><a xlink:href="class_instruction_impl.html#af9943aa1936eea33c3b485beff0a0d47" target="_top" xlink:title="InstructionImpl::lload">
<polygon fill="white" stroke="black" points="269,-907.55 269,-926.55 376,-926.55 376,-907.55 269,-907.55"/>
<text text-anchor="middle" x="322.5" y="-914.55" font-family="Helvetica,sans-Serif" font-size="10.00">InstructionImpl::lload</text>
</a>
</g>
</g>
<!-- Node2&#45;&gt;Node26 -->
<g id="edge26" class="edge"><title>Node2&#45;&gt;Node26</title>
<path fill="none" stroke="midnightblue" d="M218.333,-903.342C230.78,-904.996 244.831,-906.863 258.466,-908.675"/>
<polygon fill="midnightblue" stroke="midnightblue" points="258.403,-912.197 268.777,-910.045 259.325,-905.258 258.403,-912.197"/>
</g>
<!-- Node27 -->
<g id="node27" class="node"><title>Node27</title>
<g id="a_node27"><a xlink:href="class_instruction_impl.html#abbca347cb9b0f021641b5357335e3853" target="_top" xlink:title="InstructionImpl::fload">
<polygon fill="white" stroke="black" points="268.5,-869.55 268.5,-888.55 376.5,-888.55 376.5,-869.55 268.5,-869.55"/>
<text text-anchor="middle" x="322.5" y="-876.55" font-family="Helvetica,sans-Serif" font-size="10.00">InstructionImpl::fload</text>
</a>
</g>
</g>
<!-- Node2&#45;&gt;Node27 -->
<g id="edge27" class="edge"><title>Node2&#45;&gt;Node27</title>
<path fill="none" stroke="midnightblue" d="M218.333,-892.757C230.648,-891.121 244.534,-889.276 258.033,-887.483"/>
<polygon fill="midnightblue" stroke="midnightblue" points="258.795,-890.912 268.247,-886.125 257.873,-883.973 258.795,-890.912"/>
</g>
<!-- Node28 -->
<g id="node28" class="node"><title>Node28</title>
<g id="a_node28"><a xlink:href="class_instruction_impl.html#a1edb8bbe0765bd8ee3c8d6ff9cb16d8c" target="_top" xlink:title="InstructionImpl::dload">
<polygon fill="white" stroke="black" points="267.5,-831.55 267.5,-850.55 377.5,-850.55 377.5,-831.55 267.5,-831.55"/>
<text text-anchor="middle" x="322.5" y="-838.55" font-family="Helvetica,sans-Serif" font-size="10.00">InstructionImpl::dload</text>
</a>
</g>
</g>
<!-- Node2&#45;&gt;Node28 -->
<g id="edge28" class="edge"><title>Node2&#45;&gt;Node28</title>
<path fill="none" stroke="midnightblue" d="M195.167,-888.492C210.19,-880.162 233.071,-868.176 254,-860.05 259.958,-857.737 266.311,-855.573 272.647,-853.595"/>
<polygon fill="midnightblue" stroke="midnightblue" points="273.948,-856.859 282.529,-850.645 271.946,-850.152 273.948,-856.859"/>
</g>
<!-- Node29 -->
<g id="node29" class="node"><title>Node29</title>
<g id="a_node29"><a xlink:href="class_instruction_impl.html#acaf8450ee2d7ac32332ffc780d6d3fc2" target="_top" xlink:title="InstructionImpl::aload">
<polygon fill="white" stroke="black" points="267.5,-1021.55 267.5,-1040.55 377.5,-1040.55 377.5,-1021.55 267.5,-1021.55"/>
<text text-anchor="middle" x="322.5" y="-1028.55" font-family="Helvetica,sans-Serif" font-size="10.00">InstructionImpl::aload</text>
</a>
</g>
</g>
<!-- Node2&#45;&gt;Node29 -->
<g id="edge29" class="edge"><title>Node2&#45;&gt;Node29</title>
<path fill="none" stroke="midnightblue" d="M182.119,-907.682C190.891,-929.692 215.448,-983.935 254,-1012.05 256.656,-1013.99 259.502,-1015.73 262.47,-1017.29"/>
<polygon fill="midnightblue" stroke="midnightblue" points="261.112,-1020.52 271.664,-1021.46 264.007,-1014.14 261.112,-1020.52"/>
</g>
<!-- Node30 -->
<g id="node30" class="node"><title>Node30</title>
<g id="a_node30"><a xlink:href="class_instruction_impl.html#adea38c5f54c7ade26205d7d141eb1048" target="_top" xlink:title="InstructionImpl::iload_0">
<polygon fill="white" stroke="black" points="263.5,-793.55 263.5,-812.55 381.5,-812.55 381.5,-793.55 263.5,-793.55"/>
<text text-anchor="middle" x="322.5" y="-800.55" font-family="Helvetica,sans-Serif" font-size="10.00">InstructionImpl::iload_0</text>
</a>
</g>
</g>
<!-- Node2&#45;&gt;Node30 -->
<g id="edge31" class="edge"><title>Node2&#45;&gt;Node30</title>
<path fill="none" stroke="midnightblue" d="M185.464,-888.305C197.553,-872.105 224.019,-839.678 254,-822.05 257.66,-819.898 261.575,-817.98 265.609,-816.271"/>
<polygon fill="midnightblue" stroke="midnightblue" points="267.054,-819.467 275.17,-812.655 264.578,-812.919 267.054,-819.467"/>
</g>
<!-- Node31 -->
<g id="node31" class="node"><title>Node31</title>
<g id="a_node31"><a xlink:href="class_instruction_impl.html#a42f0e57938988a4058b4c74ba80b8c74" target="_top" xlink:title="InstructionImpl::iload_1">
<polygon fill="white" stroke="black" points="263.5,-755.55 263.5,-774.55 381.5,-774.55 381.5,-755.55 263.5,-755.55"/>
<text text-anchor="middle" x="322.5" y="-762.55" font-family="Helvetica,sans-Serif" font-size="10.00">InstructionImpl::iload_1</text>
</a>
</g>
</g>
<!-- Node2&#45;&gt;Node31 -->
<g id="edge32" class="edge"><title>Node2&#45;&gt;Node31</title>
<path fill="none" stroke="midnightblue" d="M182.119,-888.418C190.891,-866.408 215.448,-812.165 254,-784.05 256.656,-782.113 259.502,-780.373 262.47,-778.811"/>
<polygon fill="midnightblue" stroke="midnightblue" points="264.007,-781.957 271.664,-774.635 261.112,-775.583 264.007,-781.957"/>
</g>
<!-- Node32 -->
<g id="node32" class="node"><title>Node32</title>
<g id="a_node32"><a xlink:href="class_instruction_impl.html#a30c976088ff52adde499764173f72369" target="_top" xlink:title="InstructionImpl::iload_2">
<polygon fill="white" stroke="black" points="263.5,-717.55 263.5,-736.55 381.5,-736.55 381.5,-717.55 263.5,-717.55"/>
<text text-anchor="middle" x="322.5" y="-724.55" font-family="Helvetica,sans-Serif" font-size="10.00">InstructionImpl::iload_2</text>
</a>
</g>
</g>
<!-- Node2&#45;&gt;Node32 -->
<g id="edge33" class="edge"><title>Node2&#45;&gt;Node32</title>
<path fill="none" stroke="midnightblue" d="M180.406,-888.535C186.268,-861.791 206.587,-785.348 254,-746.05 256.05,-744.35 258.243,-742.803 260.539,-741.393"/>
<polygon fill="midnightblue" stroke="midnightblue" points="262.535,-744.303 269.823,-736.613 259.33,-738.079 262.535,-744.303"/>
</g>
<!-- Node33 -->
<g id="node33" class="node"><title>Node33</title>
<g id="a_node33"><a xlink:href="class_instruction_impl.html#a489974853597b8edb6e33e97640cc127" target="_top" xlink:title="InstructionImpl::iload_3">
<polygon fill="white" stroke="black" points="263.5,-679.55 263.5,-698.55 381.5,-698.55 381.5,-679.55 263.5,-679.55"/>
<text text-anchor="middle" x="322.5" y="-686.55" font-family="Helvetica,sans-Serif" font-size="10.00">InstructionImpl::iload_3</text>
</a>
</g>
</g>
<!-- Node2&#45;&gt;Node33 -->
<g id="edge34" class="edge"><title>Node2&#45;&gt;Node33</title>
<path fill="none" stroke="midnightblue" d="M179.373,-888.492C182.726,-857.506 197.573,-758.901 254,-708.05 255.727,-706.494 257.571,-705.064 259.507,-703.751"/>
<polygon fill="midnightblue" stroke="midnightblue" points="261.485,-706.654 268.489,-698.704 258.057,-700.551 261.485,-706.654"/>
</g>
<!-- Node34 -->
<g id="node34" class="node"><title>Node34</title>
<g id="a_node34"><a xlink:href="class_instruction_impl.html#a156698ed78d3a9884687468011c03483" target="_top" xlink:title="InstructionImpl::lload_0">
<polygon fill="white" stroke="black" points="263.5,-641.55 263.5,-660.55 381.5,-660.55 381.5,-641.55 263.5,-641.55"/>
<text text-anchor="middle" x="322.5" y="-648.55" font-family="Helvetica,sans-Serif" font-size="10.00">InstructionImpl::lload_0</text>
</a>
</g>
</g>
<!-- Node2&#45;&gt;Node34 -->
<g id="edge35" class="edge"><title>Node2&#45;&gt;Node34</title>
<path fill="none" stroke="midnightblue" d="M178.668,-888.14C179.82,-852.919 188.583,-732.562 254,-670.05 255.645,-668.478 257.409,-667.035 259.267,-665.709"/>
<polygon fill="midnightblue" stroke="midnightblue" points="261.08,-668.703 267.928,-660.619 257.533,-662.668 261.08,-668.703"/>
</g>
<!-- Node35 -->
<g id="node35" class="node"><title>Node35</title>
<g id="a_node35"><a xlink:href="class_instruction_impl.html#af5fd7b5e53a334678a73cc7ab25c1224" target="_top" xlink:title="InstructionImpl::lload_1">
<polygon fill="white" stroke="black" points="263.5,-603.55 263.5,-622.55 381.5,-622.55 381.5,-603.55 263.5,-603.55"/>
<text text-anchor="middle" x="322.5" y="-610.55" font-family="Helvetica,sans-Serif" font-size="10.00">InstructionImpl::lload_1</text>
</a>
</g>
</g>
<!-- Node2&#45;&gt;Node35 -->
<g id="edge36" class="edge"><title>Node2&#45;&gt;Node35</title>
<path fill="none" stroke="midnightblue" d="M178.13,-888.436C177.206,-850.127 179.071,-706.816 254,-632.05 255.454,-630.599 257.01,-629.256 258.648,-628.015"/>
<polygon fill="midnightblue" stroke="midnightblue" points="260.747,-630.832 267.427,-622.609 257.077,-624.872 260.747,-630.832"/>
</g>
<!-- Node36 -->
<g id="node36" class="node"><title>Node36</title>
<g id="a_node36"><a xlink:href="class_instruction_impl.html#a8db010030123db37e9d7c394d4e45f74" target="_top" xlink:title="InstructionImpl::lload_2">
<polygon fill="white" stroke="black" points="263.5,-565.55 263.5,-584.55 381.5,-584.55 381.5,-565.55 263.5,-565.55"/>
<text text-anchor="middle" x="322.5" y="-572.55" font-family="Helvetica,sans-Serif" font-size="10.00">InstructionImpl::lload_2</text>
</a>
</g>
</g>
<!-- Node2&#45;&gt;Node36 -->
<g id="edge37" class="edge"><title>Node2&#45;&gt;Node36</title>
<path fill="none" stroke="midnightblue" d="M179.605,-888.322C185.133,-841.315 211.225,-638.169 254,-594.05 255.398,-592.608 256.897,-591.272 258.476,-590.036"/>
<polygon fill="midnightblue" stroke="midnightblue" points="260.401,-592.961 266.968,-584.647 256.649,-587.051 260.401,-592.961"/>
</g>
<!-- Node37 -->
<g id="node37" class="node"><title>Node37</title>
<g id="a_node37"><a xlink:href="class_instruction_impl.html#ab86040544e0846841c1be9bca04d29f7" target="_top" xlink:title="InstructionImpl::lload_3">
<polygon fill="white" stroke="black" points="263.5,-527.55 263.5,-546.55 381.5,-546.55 381.5,-527.55 263.5,-527.55"/>
<text text-anchor="middle" x="322.5" y="-534.55" font-family="Helvetica,sans-Serif" font-size="10.00">InstructionImpl::lload_3</text>
</a>
</g>
</g>
<!-- Node2&#45;&gt;Node37 -->
<g id="edge38" class="edge"><title>Node2&#45;&gt;Node37</title>
<path fill="none" stroke="midnightblue" d="M179.304,-888.48C183.701,-838.352 206.405,-606.444 254,-556.05 255.236,-554.742 256.554,-553.521 257.94,-552.383"/>
<polygon fill="midnightblue" stroke="midnightblue" points="260.113,-555.142 266.538,-546.718 256.262,-549.297 260.113,-555.142"/>
</g>
<!-- Node38 -->
<g id="node38" class="node"><title>Node38</title>
<g id="a_node38"><a xlink:href="class_instruction_impl.html#ad207667ed60ada69001332f601f0e363" target="_top" xlink:title="InstructionImpl::fload_0">
<polygon fill="white" stroke="black" points="263,-489.55 263,-508.55 382,-508.55 382,-489.55 263,-489.55"/>
<text text-anchor="middle" x="322.5" y="-496.55" font-family="Helvetica,sans-Serif" font-size="10.00">InstructionImpl::fload_0</text>
</a>
</g>
</g>
<!-- Node2&#45;&gt;Node38 -->
<g id="edge39" class="edge"><title>Node2&#45;&gt;Node38</title>
<path fill="none" stroke="midnightblue" d="M179.075,-888.499C182.473,-835.182 201.6,-574.719 254,-518.05 255.222,-516.729 256.527,-515.497 257.903,-514.348"/>
<polygon fill="midnightblue" stroke="midnightblue" points="260.081,-517.103 266.455,-508.639 256.194,-511.281 260.081,-517.103"/>
</g>
<!-- Node39 -->
<g id="node39" class="node"><title>Node39</title>
<g id="a_node39"><a xlink:href="class_instruction_impl.html#ac9e63334d91bc0fa4f75fd682e1c9e0c" target="_top" xlink:title="InstructionImpl::fload_1">
<polygon fill="white" stroke="black" points="263,-451.55 263,-470.55 382,-470.55 382,-451.55 263,-451.55"/>
<text text-anchor="middle" x="322.5" y="-458.55" font-family="Helvetica,sans-Serif" font-size="10.00">InstructionImpl::fload_1</text>
</a>
</g>
</g>
<!-- Node2&#45;&gt;Node39 -->
<g id="edge40" class="edge"><title>Node2&#45;&gt;Node39</title>
<path fill="none" stroke="midnightblue" d="M178.897,-888.306C181.406,-831.455 196.846,-542.952 254,-480.05 255.21,-478.718 256.506,-477.477 257.872,-476.32"/>
<polygon fill="midnightblue" stroke="midnightblue" points="260.053,-479.07 266.385,-470.575 256.138,-473.268 260.053,-479.07"/>
</g>
<!-- Node40 -->
<g id="node40" class="node"><title>Node40</title>
<g id="a_node40"><a xlink:href="class_instruction_impl.html#ac37e26a21d3f2660a14c5ddd62ba6b4e" target="_top" xlink:title="InstructionImpl::fload_2">
<polygon fill="white" stroke="black" points="263,-413.55 263,-432.55 382,-432.55 382,-413.55 263,-413.55"/>
<text text-anchor="middle" x="322.5" y="-420.55" font-family="Helvetica,sans-Serif" font-size="10.00">InstructionImpl::fload_2</text>
</a>
</g>
</g>
<!-- Node2&#45;&gt;Node40 -->
<g id="edge41" class="edge"><title>Node2&#45;&gt;Node40</title>
<path fill="none" stroke="midnightblue" d="M178.74,-888.221C180.401,-828.19 192.042,-511.249 254,-442.05 255.172,-440.74 256.427,-439.518 257.752,-438.378"/>
<polygon fill="midnightblue" stroke="midnightblue" points="259.751,-441.25 266.005,-432.698 255.783,-435.484 259.751,-441.25"/>
</g>
<!-- Node41 -->
<g id="node41" class="node"><title>Node41</title>
<g id="a_node41"><a xlink:href="class_instruction_impl.html#a559d32105a7d3de553c94fbc81c56582" target="_top" xlink:title="InstructionImpl::fload_3">
<polygon fill="white" stroke="black" points="263,-375.55 263,-394.55 382,-394.55 382,-375.55 263,-375.55"/>
<text text-anchor="middle" x="322.5" y="-382.55" font-family="Helvetica,sans-Serif" font-size="10.00">InstructionImpl::fload_3</text>
</a>
</g>
</g>
<!-- Node2&#45;&gt;Node41 -->
<g id="edge42" class="edge"><title>Node2&#45;&gt;Node41</title>
<path fill="none" stroke="midnightblue" d="M178.603,-888.236C179.459,-825.389 187.19,-479.607 254,-404.05 255.164,-402.733 256.412,-401.505 257.73,-400.358"/>
<polygon fill="midnightblue" stroke="midnightblue" points="259.733,-403.229 265.955,-394.653 255.743,-397.477 259.733,-403.229"/>
</g>
<!-- Node42 -->
<g id="node42" class="node"><title>Node42</title>
<g id="a_node42"><a xlink:href="class_instruction_impl.html#ab985bf403ff92d0d95b72cbda7385908" target="_top" xlink:title="InstructionImpl::dload_0">
<polygon fill="white" stroke="black" points="262,-337.55 262,-356.55 383,-356.55 383,-337.55 262,-337.55"/>
<text text-anchor="middle" x="322.5" y="-344.55" font-family="Helvetica,sans-Serif" font-size="10.00">InstructionImpl::dload_0</text>
</a>
</g>
</g>
<!-- Node2&#45;&gt;Node42 -->
<g id="edge43" class="edge"><title>Node2&#45;&gt;Node42</title>
<path fill="none" stroke="midnightblue" d="M178.485,-888.343C178.583,-823.053 182.292,-448.024 254,-366.05 255.157,-364.727 256.399,-363.493 257.711,-362.342"/>
<polygon fill="midnightblue" stroke="midnightblue" points="259.716,-365.21 265.912,-356.616 255.709,-359.471 259.716,-365.21"/>
</g>
<!-- Node43 -->
<g id="node43" class="node"><title>Node43</title>
<g id="a_node43"><a xlink:href="class_instruction_impl.html#a19ed4af0c3c1c994605b36af9d615166" target="_top" xlink:title="InstructionImpl::dload_1">
<polygon fill="white" stroke="black" points="262,-299.55 262,-318.55 383,-318.55 383,-299.55 262,-299.55"/>
<text text-anchor="middle" x="322.5" y="-306.55" font-family="Helvetica,sans-Serif" font-size="10.00">InstructionImpl::dload_1</text>
</a>
</g>
</g>
<!-- Node2&#45;&gt;Node43 -->
<g id="edge44" class="edge"><title>Node2&#45;&gt;Node43</title>
<path fill="none" stroke="midnightblue" d="M178.386,-888.536C177.774,-821.185 177.349,-416.5 254,-328.05 255.046,-326.842 256.163,-325.709 257.34,-324.645"/>
<polygon fill="midnightblue" stroke="midnightblue" points="259.748,-327.227 265.874,-318.583 255.695,-321.52 259.748,-327.227"/>
</g>
<!-- Node44 -->
<g id="node44" class="node"><title>Node44</title>
<g id="a_node44"><a xlink:href="class_instruction_impl.html#a0be8b8aa6b50b99ba118e8a3f03e15df" target="_top" xlink:title="InstructionImpl::dload_2">
<polygon fill="white" stroke="black" points="262,-261.55 262,-280.55 383,-280.55 383,-261.55 262,-261.55"/>
<text text-anchor="middle" x="322.5" y="-268.55" font-family="Helvetica,sans-Serif" font-size="10.00">InstructionImpl::dload_2</text>
</a>
</g>
</g>
<!-- Node2&#45;&gt;Node44 -->
<g id="edge45" class="edge"><title>Node2&#45;&gt;Node44</title>
<path fill="none" stroke="midnightblue" d="M178.296,-888.361C177.013,-817.941 172.535,-384.832 254,-290.05 255.042,-288.838 256.154,-287.701 257.326,-286.633"/>
<polygon fill="midnightblue" stroke="midnightblue" points="259.736,-289.213 265.841,-280.554 255.669,-283.516 259.736,-289.213"/>
</g>
<!-- Node45 -->
<g id="node45" class="node"><title>Node45</title>
<g id="a_node45"><a xlink:href="class_instruction_impl.html#abe1a1b55ce20077c8cfb3bb7ac408d18" target="_top" xlink:title="InstructionImpl::dload_3">
<polygon fill="white" stroke="black" points="262,-223.55 262,-242.55 383,-242.55 383,-223.55 262,-223.55"/>
<text text-anchor="middle" x="322.5" y="-230.55" font-family="Helvetica,sans-Serif" font-size="10.00">InstructionImpl::dload_3</text>
</a>
</g>
</g>
<!-- Node2&#45;&gt;Node45 -->
<g id="edge46" class="edge"><title>Node2&#45;&gt;Node45</title>
<path fill="none" stroke="midnightblue" d="M178.993,-888.26C182.962,-811.121 210.666,-302.837 254,-252.05 255.012,-250.863 256.093,-249.748 257.231,-248.7"/>
<polygon fill="midnightblue" stroke="midnightblue" points="259.453,-251.412 265.495,-242.709 255.344,-245.745 259.453,-251.412"/>
</g>
<!-- Node46 -->
<g id="node46" class="node"><title>Node46</title>
<g id="a_node46"><a xlink:href="class_instruction_impl.html#a1c4efccd5cd7286ec5f091ac75281a97" target="_top" xlink:title="InstructionImpl::aload_0">
<polygon fill="white" stroke="black" points="262,-185.55 262,-204.55 383,-204.55 383,-185.55 262,-185.55"/>
<text text-anchor="middle" x="322.5" y="-192.55" font-family="Helvetica,sans-Serif" font-size="10.00">InstructionImpl::aload_0</text>
</a>
</g>
</g>
<!-- Node2&#45;&gt;Node46 -->
<g id="edge47" class="edge"><title>Node2&#45;&gt;Node46</title>
<path fill="none" stroke="midnightblue" d="M178.93,-888.198C182.497,-808.301 208.226,-268.046 254,-214.05 255.009,-212.86 256.085,-211.742 257.221,-210.691"/>
<polygon fill="midnightblue" stroke="midnightblue" points="259.444,-213.402 265.469,-204.687 255.324,-207.742 259.444,-213.402"/>
</g>
<!-- Node47 -->
<g id="node47" class="node"><title>Node47</title>
<g id="a_node47"><a xlink:href="class_instruction_impl.html#ae6fe2f4e86ce362133b9fcf5d0a87066" target="_top" xlink:title="InstructionImpl::aload_1">
<polygon fill="white" stroke="black" points="262,-147.55 262,-166.55 383,-166.55 383,-147.55 262,-147.55"/>
<text text-anchor="middle" x="322.5" y="-154.55" font-family="Helvetica,sans-Serif" font-size="10.00">InstructionImpl::aload_1</text>
</a>
</g>
</g>
<!-- Node2&#45;&gt;Node47 -->
<g id="edge48" class="edge"><title>Node2&#45;&gt;Node47</title>
<path fill="none" stroke="midnightblue" d="M178.86,-888.438C181.998,-806.945 205.725,-233.329 254,-176.05 255.005,-174.857 256.079,-173.736 257.212,-172.683"/>
<polygon fill="midnightblue" stroke="midnightblue" points="259.436,-175.393 265.446,-166.668 255.307,-169.74 259.436,-175.393"/>
</g>
<!-- Node48 -->
<g id="node48" class="node"><title>Node48</title>
<g id="a_node48"><a xlink:href="class_instruction_impl.html#a3879a6b11d8c8a65d720ae342310d82f" target="_top" xlink:title="InstructionImpl::aload_2">
<polygon fill="white" stroke="black" points="262,-109.55 262,-128.55 383,-128.55 383,-109.55 262,-109.55"/>
<text text-anchor="middle" x="322.5" y="-116.55" font-family="Helvetica,sans-Serif" font-size="10.00">InstructionImpl::aload_2</text>
</a>
</g>
</g>
<!-- Node2&#45;&gt;Node48 -->
<g id="edge49" class="edge"><title>Node2&#45;&gt;Node48</title>
<path fill="none" stroke="midnightblue" d="M178.807,-888.468C181.571,-804.705 203.26,-198.57 254,-138.05 255.002,-136.855 256.073,-135.731 257.203,-134.676"/>
<polygon fill="midnightblue" stroke="midnightblue" points="259.428,-137.385 265.425,-128.65 255.29,-131.739 259.428,-137.385"/>
</g>
<!-- Node49 -->
<g id="node49" class="node"><title>Node49</title>
<g id="a_node49"><a xlink:href="class_instruction_impl.html#ae9fd9c8b44b618bba0426eae10b14082" target="_top" xlink:title="InstructionImpl::aload_3">
<polygon fill="white" stroke="black" points="262,-71.5499 262,-90.5499 383,-90.5499 383,-71.5499 262,-71.5499"/>
<text text-anchor="middle" x="322.5" y="-78.5499" font-family="Helvetica,sans-Serif" font-size="10.00">InstructionImpl::aload_3</text>
</a>
</g>
</g>
<!-- Node2&#45;&gt;Node49 -->
<g id="edge50" class="edge"><title>Node2&#45;&gt;Node49</title>
<path fill="none" stroke="midnightblue" d="M178.757,-888.537C181.16,-802.725 200.785,-163.826 254,-100.05 254.999,-98.8522 256.068,-97.7269 257.196,-96.6696"/>
<polygon fill="midnightblue" stroke="midnightblue" points="259.422,-99.3772 265.406,-90.6344 255.276,-93.737 259.422,-99.3772"/>
</g>
<!-- Node50 -->
<g id="node50" class="node"><title>Node50</title>
<g id="a_node50"><a xlink:href="class_instruction_impl.html#a23407267ca6c24df4b2138e5a5b40788" target="_top" xlink:title="InstructionImpl::iaload">
<polygon fill="white" stroke="black" points="266,-1781.55 266,-1800.55 379,-1800.55 379,-1781.55 266,-1781.55"/>
<text text-anchor="middle" x="322.5" y="-1788.55" font-family="Helvetica,sans-Serif" font-size="10.00">InstructionImpl::iaload</text>
</a>
</g>
</g>
<!-- Node2&#45;&gt;Node50 -->
<g id="edge51" class="edge"><title>Node2&#45;&gt;Node50</title>
<path fill="none" stroke="midnightblue" d="M178.716,-907.803C180.809,-998.668 198.614,-1695.38 254,-1767.05 256.814,-1770.69 260.224,-1773.78 264,-1776.4"/>
<polygon fill="midnightblue" stroke="midnightblue" points="262.345,-1779.49 272.76,-1781.43 265.828,-1773.42 262.345,-1779.49"/>
</g>
<!-- Node21&#45;&gt;Node22 -->
<g id="edge21" class="edge"><title>Node21&#45;&gt;Node22</title>
<path fill="none" stroke="midnightblue" d="M372.81,-36.9859C386.801,-35.2653 402.207,-33.3708 416.811,-31.5748"/>
<polygon fill="midnightblue" stroke="midnightblue" points="417.268,-35.045 426.766,-30.3505 416.413,-28.0974 417.268,-35.045"/>
</g>
<!-- Node23&#45;&gt;Node3 -->
<g id="edge23" class="edge"><title>Node23&#45;&gt;Node3</title>
<path fill="none" stroke="midnightblue" d="M379.278,-1069.05C391.568,-1069.05 404.646,-1069.05 417.126,-1069.05"/>
<polygon fill="midnightblue" stroke="midnightblue" points="417.438,-1072.55 427.438,-1069.05 417.438,-1065.55 417.438,-1072.55"/>
</g>
<!-- Node29&#45;&gt;Node3 -->
<g id="edge30" class="edge"><title>Node29&#45;&gt;Node3</title>
<path fill="none" stroke="midnightblue" d="M362.487,-1040.64C382.783,-1045.63 407.793,-1051.78 429.346,-1057.08"/>
<polygon fill="midnightblue" stroke="midnightblue" points="428.747,-1060.54 439.293,-1059.53 430.419,-1053.74 428.747,-1060.54"/>
</g>
</g>
</svg>
