<?xml version="1.0" encoding="UTF-8" standalone="no"?>
<!DOCTYPE svg PUBLIC "-//W3C//DTD SVG 1.1//EN"
 "http://www.w3.org/Graphics/SVG/1.1/DTD/svg11.dtd">
<!-- Generated by graphviz version 2.38.0 (20140413.2041)
 -->
<!-- Title: AttributeInfo::read Pages: 1 -->
<svg width="436pt" height="104pt"
 viewBox="0.00 0.00 436.00 104.00" xmlns="http://www.w3.org/2000/svg" xmlns:xlink="http://www.w3.org/1999/xlink">
<g id="graph0" class="graph" transform="scale(1 1) rotate(0) translate(4 100)">
<title>AttributeInfo::read</title>
<polygon fill="white" stroke="none" points="-4,4 -4,-100 432,-100 432,4 -4,4"/>
<!-- Node1 -->
<g id="node1" class="node"><title>Node1</title>
<polygon fill="#bfbfbf" stroke="black" points="0,-38.5 0,-57.5 95,-57.5 95,-38.5 0,-38.5"/>
<text text-anchor="middle" x="47.5" y="-45.5" font-family="Helvetica,sans-Serif" font-size="10.00">AttributeInfo::read</text>
</g>
<!-- Node2 -->
<g id="node2" class="node"><title>Node2</title>
<g id="a_node2"><a xlink:href="class_class_loader.html#adac675675241b8c2892ebfbf5b902d33" target="_top" xlink:title="ClassLoader::setAttributes">
<polygon fill="white" stroke="black" points="131,-76.5 131,-95.5 264,-95.5 264,-76.5 131,-76.5"/>
<text text-anchor="middle" x="197.5" y="-83.5" font-family="Helvetica,sans-Serif" font-size="10.00">ClassLoader::setAttributes</text>
</a>
</g>
</g>
<!-- Node1&#45;&gt;Node2 -->
<g id="edge1" class="edge"><title>Node1&#45;&gt;Node2</title>
<path fill="none" stroke="midnightblue" d="M95.6735,-60.1121C116.286,-65.4044 140.109,-71.5213 159.422,-76.4799"/>
<polygon fill="midnightblue" stroke="midnightblue" points="96.4029,-56.6859 85.8466,-57.589 94.662,-63.466 96.4029,-56.6859"/>
</g>
<!-- Node3 -->
<g id="node3" class="node"><title>Node3</title>
<g id="a_node3"><a xlink:href="class_field_info.html#acb85db9ce893bc3e2617138fd46a8ad6" target="_top" xlink:title="FieldInfo::read">
<polygon fill="white" stroke="black" points="158,-38.5 158,-57.5 237,-57.5 237,-38.5 158,-38.5"/>
<text text-anchor="middle" x="197.5" y="-45.5" font-family="Helvetica,sans-Serif" font-size="10.00">FieldInfo::read</text>
</a>
</g>
</g>
<!-- Node1&#45;&gt;Node3 -->
<g id="edge2" class="edge"><title>Node1&#45;&gt;Node3</title>
<path fill="none" stroke="midnightblue" d="M105.468,-48C123.01,-48 141.902,-48 157.905,-48"/>
<polygon fill="midnightblue" stroke="midnightblue" points="105.328,-44.5001 95.3281,-48 105.328,-51.5001 105.328,-44.5001"/>
</g>
<!-- Node5 -->
<g id="node5" class="node"><title>Node5</title>
<g id="a_node5"><a xlink:href="struct_method_info.html#a96fbb8de441ef2af032c20d36d41eb7a" target="_top" xlink:title="Serve para preencher os valores de uma instância de MethodInfo. ">
<polygon fill="white" stroke="black" points="152.5,-0.5 152.5,-19.5 242.5,-19.5 242.5,-0.5 152.5,-0.5"/>
<text text-anchor="middle" x="197.5" y="-7.5" font-family="Helvetica,sans-Serif" font-size="10.00">MethodInfo::read</text>
</a>
</g>
</g>
<!-- Node1&#45;&gt;Node5 -->
<g id="edge4" class="edge"><title>Node1&#45;&gt;Node5</title>
<path fill="none" stroke="midnightblue" d="M95.6735,-35.8879C116.286,-30.5956 140.109,-24.4787 159.422,-19.5201"/>
<polygon fill="midnightblue" stroke="midnightblue" points="94.662,-32.534 85.8466,-38.411 96.4029,-39.3141 94.662,-32.534"/>
</g>
<!-- Node4 -->
<g id="node4" class="node"><title>Node4</title>
<g id="a_node4"><a xlink:href="class_class_loader.html#a3a544b1a25a445bbf4ce7e5d84a2a90a" target="_top" xlink:title="ClassLoader::setFields">
<polygon fill="white" stroke="black" points="305.5,-38.5 305.5,-57.5 422.5,-57.5 422.5,-38.5 305.5,-38.5"/>
<text text-anchor="middle" x="364" y="-45.5" font-family="Helvetica,sans-Serif" font-size="10.00">ClassLoader::setFields</text>
</a>
</g>
</g>
<!-- Node3&#45;&gt;Node4 -->
<g id="edge3" class="edge"><title>Node3&#45;&gt;Node4</title>
<path fill="none" stroke="midnightblue" d="M247.186,-48C265.435,-48 286.345,-48 305.33,-48"/>
<polygon fill="midnightblue" stroke="midnightblue" points="247.068,-44.5001 237.068,-48 247.068,-51.5001 247.068,-44.5001"/>
</g>
<!-- Node6 -->
<g id="node6" class="node"><title>Node6</title>
<g id="a_node6"><a xlink:href="class_class_loader.html#ab47e37f5d359a067182c1a181e9db54e" target="_top" xlink:title="ClassLoader::setMethods">
<polygon fill="white" stroke="black" points="300,-0.5 300,-19.5 428,-19.5 428,-0.5 300,-0.5"/>
<text text-anchor="middle" x="364" y="-7.5" font-family="Helvetica,sans-Serif" font-size="10.00">ClassLoader::setMethods</text>
</a>
</g>
</g>
<!-- Node5&#45;&gt;Node6 -->
<g id="edge5" class="edge"><title>Node5&#45;&gt;Node6</title>
<path fill="none" stroke="midnightblue" d="M252.773,-10C267.864,-10 284.382,-10 299.931,-10"/>
<polygon fill="midnightblue" stroke="midnightblue" points="252.583,-6.5001 242.583,-10 252.583,-13.5001 252.583,-6.5001"/>
</g>
</g>
</svg>
