<?xml version="1.0" encoding="UTF-8" standalone="no"?>
<!DOCTYPE svg PUBLIC "-//W3C//DTD SVG 1.1//EN"
 "http://www.w3.org/Graphics/SVG/1.1/DTD/svg11.dtd">
<!-- Generated by graphviz version 2.38.0 (20140413.2041)
 -->
<!-- Title: InstructionImpl::lshr Pages: 1 -->
<svg width="911pt" height="47pt"
 viewBox="0.00 0.00 911.00 47.00" xmlns="http://www.w3.org/2000/svg" xmlns:xlink="http://www.w3.org/1999/xlink">
<g id="graph0" class="graph" transform="scale(1 1) rotate(0) translate(4 43)">
<title>InstructionImpl::lshr</title>
<polygon fill="white" stroke="none" points="-4,4 -4,-43 907,-43 907,4 -4,4"/>
<!-- Node1 -->
<g id="node1" class="node"><title>Node1</title>
<polygon fill="#bfbfbf" stroke="black" points="0,-0.5 0,-19.5 103,-19.5 103,-0.5 0,-0.5"/>
<text text-anchor="middle" x="51.5" y="-7.5" font-family="Helvetica,sans-Serif" font-size="10.00">InstructionImpl::lshr</text>
</g>
<!-- Node2 -->
<g id="node2" class="node"><title>Node2</title>
<g id="a_node2"><a xlink:href="class_interpreter.html#a8ff3509dcc0f48200724b8ae04467495" target="_top" xlink:title="Interpreter::createType">
<polygon fill="white" stroke="black" points="139,-0.5 139,-19.5 255,-19.5 255,-0.5 139,-0.5"/>
<text text-anchor="middle" x="197" y="-7.5" font-family="Helvetica,sans-Serif" font-size="10.00">Interpreter::createType</text>
</a>
</g>
</g>
<!-- Node1&#45;&gt;Node2 -->
<g id="edge1" class="edge"><title>Node1&#45;&gt;Node2</title>
<path fill="none" stroke="midnightblue" d="M103.093,-10C111.239,-10 119.785,-10 128.256,-10"/>
<polygon fill="midnightblue" stroke="midnightblue" points="128.52,-13.5001 138.52,-10 128.52,-6.5001 128.52,-13.5001"/>
</g>
<!-- Node3 -->
<g id="node3" class="node"><title>Node3</title>
<g id="a_node3"><a xlink:href="class_interpreter.html#a99a623bb05c66632d0ab034ebaf2cf51" target="_top" xlink:title="Interpreter::getClassInfo">
<polygon fill="white" stroke="black" points="291,-0.5 291,-19.5 413,-19.5 413,-0.5 291,-0.5"/>
<text text-anchor="middle" x="352" y="-7.5" font-family="Helvetica,sans-Serif" font-size="10.00">Interpreter::getClassInfo</text>
</a>
</g>
</g>
<!-- Node2&#45;&gt;Node3 -->
<g id="edge2" class="edge"><title>Node2&#45;&gt;Node3</title>
<path fill="none" stroke="midnightblue" d="M255.407,-10C263.666,-10 272.242,-10 280.715,-10"/>
<polygon fill="midnightblue" stroke="midnightblue" points="280.972,-13.5001 290.972,-10 280.972,-6.5001 280.972,-13.5001"/>
</g>
<!-- Node4 -->
<g id="node4" class="node"><title>Node4</title>
<g id="a_node4"><a xlink:href="class_interpreter.html#ab8fa17a7a73d119f3a3113555aef9702" target="_top" xlink:title="Interpreter::loadInMemo">
<polygon fill="white" stroke="black" points="449,-19.5 449,-38.5 569,-38.5 569,-19.5 449,-19.5"/>
<text text-anchor="middle" x="509" y="-26.5" font-family="Helvetica,sans-Serif" font-size="10.00">Interpreter::loadInMemo</text>
</a>
</g>
</g>
<!-- Node3&#45;&gt;Node4 -->
<g id="edge3" class="edge"><title>Node3&#45;&gt;Node4</title>
<path fill="none" stroke="midnightblue" d="M413.371,-17.4003C421.65,-18.4152 430.204,-19.4637 438.628,-20.4963"/>
<polygon fill="midnightblue" stroke="midnightblue" points="438.46,-24.0019 448.812,-21.7447 439.312,-17.0539 438.46,-24.0019"/>
</g>
<!-- Node5 -->
<g id="node5" class="node"><title>Node5</title>
<g id="a_node5"><a xlink:href="class_interpreter.html#a39a3745e54aa3cee8882075c96ae8b3f" target="_top" xlink:title="Interpreter::loadVariables">
<polygon fill="white" stroke="black" points="605,-0.5 605,-19.5 730,-19.5 730,-0.5 605,-0.5"/>
<text text-anchor="middle" x="667.5" y="-7.5" font-family="Helvetica,sans-Serif" font-size="10.00">Interpreter::loadVariables</text>
</a>
</g>
</g>
<!-- Node4&#45;&gt;Node5 -->
<g id="edge4" class="edge"><title>Node4&#45;&gt;Node5</title>
<path fill="none" stroke="midnightblue" d="M569.166,-21.8169C577.565,-20.7972 586.276,-19.7396 594.88,-18.6951"/>
<polygon fill="midnightblue" stroke="midnightblue" points="595.4,-22.1578 604.905,-17.478 594.556,-15.2088 595.4,-22.1578"/>
</g>
<!-- Node5&#45;&gt;Node3 -->
<g id="edge6" class="edge"><title>Node5&#45;&gt;Node3</title>
<path fill="none" stroke="midnightblue" d="M604.754,-10C552.57,-10 477.829,-10 423.345,-10"/>
<polygon fill="midnightblue" stroke="midnightblue" points="423.075,-6.5001 413.075,-10 423.075,-13.5001 423.075,-6.5001"/>
</g>
<!-- Node6 -->
<g id="node6" class="node"><title>Node6</title>
<g id="a_node6"><a xlink:href="class_class_loader.html#a8f3dc8367a76e7a4594bd5e8206d3977" target="_top" xlink:title="ClassLoader::getConstPool">
<polygon fill="white" stroke="black" points="766,-0.5 766,-19.5 903,-19.5 903,-0.5 766,-0.5"/>
<text text-anchor="middle" x="834.5" y="-7.5" font-family="Helvetica,sans-Serif" font-size="10.00">ClassLoader::getConstPool</text>
</a>
</g>
</g>
<!-- Node5&#45;&gt;Node6 -->
<g id="edge5" class="edge"><title>Node5&#45;&gt;Node6</title>
<path fill="none" stroke="midnightblue" d="M730.409,-10C738.756,-10 747.404,-10 755.98,-10"/>
<polygon fill="midnightblue" stroke="midnightblue" points="755.991,-13.5001 765.991,-10 755.991,-6.5001 755.991,-13.5001"/>
</g>
</g>
</svg>
