<?xml version="1.0" encoding="UTF-8" standalone="no"?>
<!DOCTYPE svg PUBLIC "-//W3C//DTD SVG 1.1//EN"
 "http://www.w3.org/Graphics/SVG/1.1/DTD/svg11.dtd">
<!-- Generated by graphviz version 2.38.0 (20140413.2041)
 -->
<!-- Title: FieldInfo::read Pages: 1 -->
<svg width="373pt" height="78pt"
 viewBox="0.00 0.00 373.00 77.50" xmlns="http://www.w3.org/2000/svg" xmlns:xlink="http://www.w3.org/1999/xlink">
<g id="graph0" class="graph" transform="scale(1 1) rotate(0) translate(4 73.5)">
<title>FieldInfo::read</title>
<polygon fill="white" stroke="none" points="-4,4 -4,-73.5 369,-73.5 369,4 -4,4"/>
<!-- Node1 -->
<g id="node1" class="node"><title>Node1</title>
<polygon fill="#bfbfbf" stroke="black" points="0,-31 0,-50 79,-50 79,-31 0,-31"/>
<text text-anchor="middle" x="39.5" y="-38" font-family="Helvetica,sans-Serif" font-size="10.00">FieldInfo::read</text>
</g>
<!-- Node2 -->
<g id="node2" class="node"><title>Node2</title>
<g id="a_node2"><a xlink:href="class_byte_reader.html#ae570748805994596f51ae033183935d7" target="_top" xlink:title="ByteReader::byteCatch">
<polygon fill="white" stroke="black" points="246,-50 246,-69 365,-69 365,-50 246,-50"/>
<text text-anchor="middle" x="305.5" y="-57" font-family="Helvetica,sans-Serif" font-size="10.00">ByteReader::byteCatch</text>
</a>
</g>
</g>
<!-- Node1&#45;&gt;Node2 -->
<g id="edge1" class="edge"><title>Node1&#45;&gt;Node2</title>
<path fill="none" stroke="midnightblue" d="M79.1706,-43.2831C120.171,-46.2339 185.767,-50.9548 235.636,-54.5439"/>
<polygon fill="midnightblue" stroke="midnightblue" points="235.481,-58.0417 245.706,-55.2686 235.983,-51.0597 235.481,-58.0417"/>
</g>
<!-- Node3 -->
<g id="node3" class="node"><title>Node3</title>
<g id="a_node3"><a xlink:href="class_attribute_info.html#ac167daa272a7ef9b9f11389d34e42165" target="_top" xlink:title="AttributeInfo::read">
<polygon fill="white" stroke="black" points="115,-12 115,-31 210,-31 210,-12 115,-12"/>
<text text-anchor="middle" x="162.5" y="-19" font-family="Helvetica,sans-Serif" font-size="10.00">AttributeInfo::read</text>
</a>
</g>
</g>
<!-- Node1&#45;&gt;Node3 -->
<g id="edge2" class="edge"><title>Node1&#45;&gt;Node3</title>
<path fill="none" stroke="midnightblue" d="M79.1178,-34.436C87.2704,-33.1559 96.0357,-31.7795 104.699,-30.4191"/>
<polygon fill="midnightblue" stroke="midnightblue" points="105.444,-33.8451 114.78,-28.8361 104.359,-26.9298 105.444,-33.8451"/>
</g>
<!-- Node3&#45;&gt;Node2 -->
<g id="edge3" class="edge"><title>Node3&#45;&gt;Node2</title>
<path fill="none" stroke="midnightblue" d="M199.08,-31.089C217.282,-35.9944 239.638,-42.0196 259.072,-47.2571"/>
<polygon fill="midnightblue" stroke="midnightblue" points="258.365,-50.6912 268.931,-49.9141 260.186,-43.9324 258.365,-50.6912"/>
</g>
<!-- Node4 -->
<g id="node4" class="node"><title>Node4</title>
<g id="a_node4"><a xlink:href="struct_cp_attribute_interface.html#a99cabbc15a0af5273a6d324dfbc78f41" target="_top" xlink:title="CpAttributeInterface\l::getUTF8">
<polygon fill="white" stroke="black" points="253.5,-0.5 253.5,-30.5 357.5,-30.5 357.5,-0.5 253.5,-0.5"/>
<text text-anchor="start" x="261.5" y="-18.5" font-family="Helvetica,sans-Serif" font-size="10.00">CpAttributeInterface</text>
<text text-anchor="middle" x="305.5" y="-7.5" font-family="Helvetica,sans-Serif" font-size="10.00">::getUTF8</text>
</a>
</g>
</g>
<!-- Node3&#45;&gt;Node4 -->
<g id="edge4" class="edge"><title>Node3&#45;&gt;Node4</title>
<path fill="none" stroke="midnightblue" d="M210.059,-19.5187C220.623,-19.0692 232,-18.5851 243.073,-18.1139"/>
<polygon fill="midnightblue" stroke="midnightblue" points="243.283,-21.6082 253.125,-17.6862 242.985,-14.6146 243.283,-21.6082"/>
</g>
</g>
</svg>
