<?xml version="1.0" encoding="UTF-8" standalone="no"?>
<!DOCTYPE svg PUBLIC "-//W3C//DTD SVG 1.1//EN"
 "http://www.w3.org/Graphics/SVG/1.1/DTD/svg11.dtd">
<!-- Generated by graphviz version 2.38.0 (20140413.2041)
 -->
<!-- Title: InstructionImpl::lneg Pages: 1 -->
<svg width="913pt" height="47pt"
 viewBox="0.00 0.00 913.00 47.00" xmlns="http://www.w3.org/2000/svg" xmlns:xlink="http://www.w3.org/1999/xlink">
<g id="graph0" class="graph" transform="scale(1 1) rotate(0) translate(4 43)">
<title>InstructionImpl::lneg</title>
<polygon fill="white" stroke="none" points="-4,4 -4,-43 909,-43 909,4 -4,4"/>
<!-- Node1 -->
<g id="node1" class="node"><title>Node1</title>
<polygon fill="#bfbfbf" stroke="black" points="0,-0.5 0,-19.5 105,-19.5 105,-0.5 0,-0.5"/>
<text text-anchor="middle" x="52.5" y="-7.5" font-family="Helvetica,sans-Serif" font-size="10.00">InstructionImpl::lneg</text>
</g>
<!-- Node2 -->
<g id="node2" class="node"><title>Node2</title>
<g id="a_node2"><a xlink:href="class_interpreter.html#a8ff3509dcc0f48200724b8ae04467495" target="_top" xlink:title="Interpreter::createType">
<polygon fill="white" stroke="black" points="141,-0.5 141,-19.5 257,-19.5 257,-0.5 141,-0.5"/>
<text text-anchor="middle" x="199" y="-7.5" font-family="Helvetica,sans-Serif" font-size="10.00">Interpreter::createType</text>
</a>
</g>
</g>
<!-- Node1&#45;&gt;Node2 -->
<g id="edge1" class="edge"><title>Node1&#45;&gt;Node2</title>
<path fill="none" stroke="midnightblue" d="M105.26,-10C113.435,-10 121.992,-10 130.462,-10"/>
<polygon fill="midnightblue" stroke="midnightblue" points="130.72,-13.5001 140.72,-10 130.719,-6.5001 130.72,-13.5001"/>
</g>
<!-- Node3 -->
<g id="node3" class="node"><title>Node3</title>
<g id="a_node3"><a xlink:href="class_interpreter.html#a99a623bb05c66632d0ab034ebaf2cf51" target="_top" xlink:title="Interpreter::getClassInfo">
<polygon fill="white" stroke="black" points="293,-0.5 293,-19.5 415,-19.5 415,-0.5 293,-0.5"/>
<text text-anchor="middle" x="354" y="-7.5" font-family="Helvetica,sans-Serif" font-size="10.00">Interpreter::getClassInfo</text>
</a>
</g>
</g>
<!-- Node2&#45;&gt;Node3 -->
<g id="edge2" class="edge"><title>Node2&#45;&gt;Node3</title>
<path fill="none" stroke="midnightblue" d="M257.407,-10C265.666,-10 274.242,-10 282.715,-10"/>
<polygon fill="midnightblue" stroke="midnightblue" points="282.972,-13.5001 292.972,-10 282.972,-6.5001 282.972,-13.5001"/>
</g>
<!-- Node4 -->
<g id="node4" class="node"><title>Node4</title>
<g id="a_node4"><a xlink:href="class_interpreter.html#ab8fa17a7a73d119f3a3113555aef9702" target="_top" xlink:title="Interpreter::loadInMemo">
<polygon fill="white" stroke="black" points="451,-19.5 451,-38.5 571,-38.5 571,-19.5 451,-19.5"/>
<text text-anchor="middle" x="511" y="-26.5" font-family="Helvetica,sans-Serif" font-size="10.00">Interpreter::loadInMemo</text>
</a>
</g>
</g>
<!-- Node3&#45;&gt;Node4 -->
<g id="edge3" class="edge"><title>Node3&#45;&gt;Node4</title>
<path fill="none" stroke="midnightblue" d="M415.371,-17.4003C423.65,-18.4152 432.204,-19.4637 440.628,-20.4963"/>
<polygon fill="midnightblue" stroke="midnightblue" points="440.46,-24.0019 450.812,-21.7447 441.312,-17.0539 440.46,-24.0019"/>
</g>
<!-- Node5 -->
<g id="node5" class="node"><title>Node5</title>
<g id="a_node5"><a xlink:href="class_interpreter.html#a39a3745e54aa3cee8882075c96ae8b3f" target="_top" xlink:title="Interpreter::loadVariables">
<polygon fill="white" stroke="black" points="607,-0.5 607,-19.5 732,-19.5 732,-0.5 607,-0.5"/>
<text text-anchor="middle" x="669.5" y="-7.5" font-family="Helvetica,sans-Serif" font-size="10.00">Interpreter::loadVariables</text>
</a>
</g>
</g>
<!-- Node4&#45;&gt;Node5 -->
<g id="edge4" class="edge"><title>Node4&#45;&gt;Node5</title>
<path fill="none" stroke="midnightblue" d="M571.166,-21.8169C579.565,-20.7972 588.276,-19.7396 596.88,-18.6951"/>
<polygon fill="midnightblue" stroke="midnightblue" points="597.4,-22.1578 606.905,-17.478 596.556,-15.2088 597.4,-22.1578"/>
</g>
<!-- Node5&#45;&gt;Node3 -->
<g id="edge6" class="edge"><title>Node5&#45;&gt;Node3</title>
<path fill="none" stroke="midnightblue" d="M606.754,-10C554.57,-10 479.829,-10 425.345,-10"/>
<polygon fill="midnightblue" stroke="midnightblue" points="425.075,-6.5001 415.075,-10 425.075,-13.5001 425.075,-6.5001"/>
</g>
<!-- Node6 -->
<g id="node6" class="node"><title>Node6</title>
<g id="a_node6"><a xlink:href="class_class_loader.html#a8f3dc8367a76e7a4594bd5e8206d3977" target="_top" xlink:title="ClassLoader::getConstPool">
<polygon fill="white" stroke="black" points="768,-0.5 768,-19.5 905,-19.5 905,-0.5 768,-0.5"/>
<text text-anchor="middle" x="836.5" y="-7.5" font-family="Helvetica,sans-Serif" font-size="10.00">ClassLoader::getConstPool</text>
</a>
</g>
</g>
<!-- Node5&#45;&gt;Node6 -->
<g id="edge5" class="edge"><title>Node5&#45;&gt;Node6</title>
<path fill="none" stroke="midnightblue" d="M732.409,-10C740.756,-10 749.404,-10 757.98,-10"/>
<polygon fill="midnightblue" stroke="midnightblue" points="757.991,-13.5001 767.991,-10 757.991,-6.5001 757.991,-13.5001"/>
</g>
</g>
</svg>
