<?xml version="1.0" encoding="UTF-8" standalone="no"?>
<!DOCTYPE svg PUBLIC "-//W3C//DTD SVG 1.1//EN"
 "http://www.w3.org/Graphics/SVG/1.1/DTD/svg11.dtd">
<!-- Generated by graphviz version 2.38.0 (20140413.2041)
 -->
<!-- Title: Instruction::init Pages: 1 -->
<svg width="226pt" height="66pt"
 viewBox="0.00 0.00 226.00 66.00" xmlns="http://www.w3.org/2000/svg" xmlns:xlink="http://www.w3.org/1999/xlink">
<g id="graph0" class="graph" transform="scale(1 1) rotate(0) translate(4 62)">
<title>Instruction::init</title>
<polygon fill="white" stroke="none" points="-4,4 -4,-62 222,-62 222,4 -4,4"/>
<!-- Node1 -->
<g id="node1" class="node"><title>Node1</title>
<polygon fill="#bfbfbf" stroke="black" points="0,-19.5 0,-38.5 81,-38.5 81,-19.5 0,-19.5"/>
<text text-anchor="middle" x="40.5" y="-26.5" font-family="Helvetica,sans-Serif" font-size="10.00">Instruction::init</text>
</g>
<!-- Node2 -->
<g id="node2" class="node"><title>Node2</title>
<g id="a_node2"><a xlink:href="class_code_attribute.html#a380eb04a01b0a0db351cf74443067ba4" target="_top" xlink:title="CodeAttribute::print">
<polygon fill="white" stroke="black" points="117,-38.5 117,-57.5 218,-57.5 218,-38.5 117,-38.5"/>
<text text-anchor="middle" x="167.5" y="-45.5" font-family="Helvetica,sans-Serif" font-size="10.00">CodeAttribute::print</text>
</a>
</g>
</g>
<!-- Node1&#45;&gt;Node2 -->
<g id="edge1" class="edge"><title>Node1&#45;&gt;Node2</title>
<path fill="none" stroke="midnightblue" d="M91.099,-36.539C99.5046,-37.8167 108.236,-39.1438 116.648,-40.4224"/>
<polygon fill="midnightblue" stroke="midnightblue" points="91.4632,-33.0543 81.0508,-35.0117 90.4112,-39.9748 91.4632,-33.0543"/>
</g>
<!-- Node3 -->
<g id="node3" class="node"><title>Node3</title>
<g id="a_node3"><a xlink:href="struct_frame.html#abe0b370087d05267cab997ecdc78c4bd" target="_top" xlink:title="Frame::Frame">
<polygon fill="white" stroke="black" points="128.5,-0.5 128.5,-19.5 206.5,-19.5 206.5,-0.5 128.5,-0.5"/>
<text text-anchor="middle" x="167.5" y="-7.5" font-family="Helvetica,sans-Serif" font-size="10.00">Frame::Frame</text>
</a>
</g>
</g>
<!-- Node1&#45;&gt;Node3 -->
<g id="edge2" class="edge"><title>Node1&#45;&gt;Node3</title>
<path fill="none" stroke="midnightblue" d="M91.2569,-21.437C103.657,-19.5522 116.755,-17.5612 128.487,-15.778"/>
<polygon fill="midnightblue" stroke="midnightblue" points="90.4112,-18.0252 81.0508,-22.9883 91.4632,-24.9457 90.4112,-18.0252"/>
</g>
</g>
</svg>
