<?xml version="1.0" encoding="UTF-8" standalone="no"?>
<!DOCTYPE svg PUBLIC "-//W3C//DTD SVG 1.1//EN"
 "http://www.w3.org/Graphics/SVG/1.1/DTD/svg11.dtd">
<!-- Generated by graphviz version 2.38.0 (20140413.2041)
 -->
<!-- Title: MethodsArea::getStaticfield Pages: 1 -->
<svg width="560pt" height="66pt"
 viewBox="0.00 0.00 560.00 66.00" xmlns="http://www.w3.org/2000/svg" xmlns:xlink="http://www.w3.org/1999/xlink">
<g id="graph0" class="graph" transform="scale(1 1) rotate(0) translate(4 62)">
<title>MethodsArea::getStaticfield</title>
<polygon fill="white" stroke="none" points="-4,4 -4,-62 556,-62 556,4 -4,4"/>
<!-- Node1 -->
<g id="node1" class="node"><title>Node1</title>
<polygon fill="#bfbfbf" stroke="black" points="0,-19.5 0,-38.5 137,-38.5 137,-19.5 0,-19.5"/>
<text text-anchor="middle" x="68.5" y="-26.5" font-family="Helvetica,sans-Serif" font-size="10.00">MethodsArea::getStaticfield</text>
</g>
<!-- Node2 -->
<g id="node2" class="node"><title>Node2</title>
<g id="a_node2"><a xlink:href="class_instruction_impl.html#af10750df1ad4bf72ac80445dbbec068b" target="_top" xlink:title="InstructionImpl::getstatic">
<polygon fill="white" stroke="black" points="173,-19.5 173,-38.5 298,-38.5 298,-19.5 173,-19.5"/>
<text text-anchor="middle" x="235.5" y="-26.5" font-family="Helvetica,sans-Serif" font-size="10.00">InstructionImpl::getstatic</text>
</a>
</g>
</g>
<!-- Node1&#45;&gt;Node2 -->
<g id="edge1" class="edge"><title>Node1&#45;&gt;Node2</title>
<path fill="none" stroke="midnightblue" d="M147.153,-29C155.774,-29 164.466,-29 172.85,-29"/>
<polygon fill="midnightblue" stroke="midnightblue" points="147.088,-25.5001 137.088,-29 147.088,-32.5001 147.088,-25.5001"/>
</g>
<!-- Node3 -->
<g id="node3" class="node"><title>Node3</title>
<g id="a_node3"><a xlink:href="class_instruction.html#a145a172552303c9cbd8a5856e31a701b" target="_top" xlink:title="Instruction::init">
<polygon fill="white" stroke="black" points="334,-19.5 334,-38.5 415,-38.5 415,-19.5 334,-19.5"/>
<text text-anchor="middle" x="374.5" y="-26.5" font-family="Helvetica,sans-Serif" font-size="10.00">Instruction::init</text>
</a>
</g>
</g>
<!-- Node2&#45;&gt;Node3 -->
<g id="edge2" class="edge"><title>Node2&#45;&gt;Node3</title>
<path fill="none" stroke="midnightblue" d="M308.408,-29C317.115,-29 325.748,-29 333.743,-29"/>
<polygon fill="midnightblue" stroke="midnightblue" points="308.187,-25.5001 298.187,-29 308.187,-32.5001 308.187,-25.5001"/>
</g>
<!-- Node4 -->
<g id="node4" class="node"><title>Node4</title>
<g id="a_node4"><a xlink:href="class_code_attribute.html#a380eb04a01b0a0db351cf74443067ba4" target="_top" xlink:title="CodeAttribute::print">
<polygon fill="white" stroke="black" points="451,-38.5 451,-57.5 552,-57.5 552,-38.5 451,-38.5"/>
<text text-anchor="middle" x="501.5" y="-45.5" font-family="Helvetica,sans-Serif" font-size="10.00">CodeAttribute::print</text>
</a>
</g>
</g>
<!-- Node3&#45;&gt;Node4 -->
<g id="edge3" class="edge"><title>Node3&#45;&gt;Node4</title>
<path fill="none" stroke="midnightblue" d="M425.099,-36.539C433.505,-37.8167 442.236,-39.1438 450.648,-40.4224"/>
<polygon fill="midnightblue" stroke="midnightblue" points="425.463,-33.0543 415.051,-35.0117 424.411,-39.9748 425.463,-33.0543"/>
</g>
<!-- Node5 -->
<g id="node5" class="node"><title>Node5</title>
<g id="a_node5"><a xlink:href="struct_frame.html#abe0b370087d05267cab997ecdc78c4bd" target="_top" xlink:title="Frame::Frame">
<polygon fill="white" stroke="black" points="462.5,-0.5 462.5,-19.5 540.5,-19.5 540.5,-0.5 462.5,-0.5"/>
<text text-anchor="middle" x="501.5" y="-7.5" font-family="Helvetica,sans-Serif" font-size="10.00">Frame::Frame</text>
</a>
</g>
</g>
<!-- Node3&#45;&gt;Node5 -->
<g id="edge4" class="edge"><title>Node3&#45;&gt;Node5</title>
<path fill="none" stroke="midnightblue" d="M425.257,-21.437C437.657,-19.5522 450.755,-17.5612 462.487,-15.778"/>
<polygon fill="midnightblue" stroke="midnightblue" points="424.411,-18.0252 415.051,-22.9883 425.463,-24.9457 424.411,-18.0252"/>
</g>
</g>
</svg>
