<?xml version="1.0" encoding="UTF-8" standalone="no"?>
<!DOCTYPE svg PUBLIC "-//W3C//DTD SVG 1.1//EN"
 "http://www.w3.org/Graphics/SVG/1.1/DTD/svg11.dtd">
<!-- Generated by graphviz version 2.38.0 (20140413.2041)
 -->
<!-- Title: Interpreter::getClassInfo Pages: 1 -->
<svg width="828pt" height="556pt"
 viewBox="0.00 0.00 828.00 555.54" xmlns="http://www.w3.org/2000/svg" xmlns:xlink="http://www.w3.org/1999/xlink">
<g id="graph0" class="graph" transform="scale(1 1) rotate(0) translate(4 551.54)">
<title>Interpreter::getClassInfo</title>
<polygon fill="white" stroke="none" points="-4,4 -4,-551.54 824,-551.54 824,4 -4,4"/>
<!-- Node1 -->
<g id="node1" class="node"><title>Node1</title>
<polygon fill="#bfbfbf" stroke="black" points="0,-142.5 0,-161.5 122,-161.5 122,-142.5 0,-142.5"/>
<text text-anchor="middle" x="61" y="-149.5" font-family="Helvetica,sans-Serif" font-size="10.00">Interpreter::getClassInfo</text>
</g>
<!-- Node2 -->
<g id="node2" class="node"><title>Node2</title>
<g id="a_node2"><a xlink:href="class_instruction_impl.html#af10750df1ad4bf72ac80445dbbec068b" target="_top" xlink:title="InstructionImpl::getstatic">
<polygon fill="white" stroke="black" points="158,-418.5 158,-437.5 283,-437.5 283,-418.5 158,-418.5"/>
<text text-anchor="middle" x="220.5" y="-425.5" font-family="Helvetica,sans-Serif" font-size="10.00">InstructionImpl::getstatic</text>
</a>
</g>
</g>
<!-- Node1&#45;&gt;Node2 -->
<g id="edge1" class="edge"><title>Node1&#45;&gt;Node2</title>
<path fill="none" stroke="midnightblue" d="M72.4012,-170.227C102.818,-223.529 190.91,-377.899 213.938,-418.254"/>
<polygon fill="midnightblue" stroke="midnightblue" points="75.4177,-168.451 67.4215,-161.501 69.338,-171.921 75.4177,-168.451"/>
</g>
<!-- Node6 -->
<g id="node6" class="node"><title>Node6</title>
<g id="a_node6"><a xlink:href="class_interpreter.html#a8ff3509dcc0f48200724b8ae04467495" target="_top" xlink:title="Interpreter::createType">
<polygon fill="white" stroke="black" points="162.5,-247.5 162.5,-266.5 278.5,-266.5 278.5,-247.5 162.5,-247.5"/>
<text text-anchor="middle" x="220.5" y="-254.5" font-family="Helvetica,sans-Serif" font-size="10.00">Interpreter::createType</text>
</a>
</g>
</g>
<!-- Node1&#45;&gt;Node6 -->
<g id="edge5" class="edge"><title>Node1&#45;&gt;Node6</title>
<path fill="none" stroke="midnightblue" d="M84.7595,-167.173C117.62,-189.08 177.42,-228.947 204.935,-247.29"/>
<polygon fill="midnightblue" stroke="midnightblue" points="86.5168,-164.138 76.2549,-161.503 82.6339,-169.962 86.5168,-164.138"/>
</g>
<!-- Node20 -->
<g id="node20" class="node"><title>Node20</title>
<g id="a_node20"><a xlink:href="class_interpreter.html#a39a3745e54aa3cee8882075c96ae8b3f" target="_top" xlink:title="Interpreter::loadVariables">
<polygon fill="white" stroke="black" points="158,-38.5 158,-57.5 283,-57.5 283,-38.5 158,-38.5"/>
<text text-anchor="middle" x="220.5" y="-45.5" font-family="Helvetica,sans-Serif" font-size="10.00">Interpreter::loadVariables</text>
</a>
</g>
</g>
<!-- Node1&#45;&gt;Node20 -->
<g id="edge32" class="edge"><title>Node1&#45;&gt;Node20</title>
<path fill="none" stroke="midnightblue" d="M85.0742,-136.764C118.026,-115.005 177.602,-75.6661 205,-57.5745"/>
<polygon fill="midnightblue" stroke="midnightblue" points="82.9512,-133.971 76.5349,-142.402 86.8084,-139.813 82.9512,-133.971"/>
</g>
<!-- Node3 -->
<g id="node3" class="node"><title>Node3</title>
<g id="a_node3"><a xlink:href="class_instruction.html#a145a172552303c9cbd8a5856e31a701b" target="_top" xlink:title="Instruction::init">
<polygon fill="white" stroke="black" points="518,-285.5 518,-304.5 599,-304.5 599,-285.5 518,-285.5"/>
<text text-anchor="middle" x="558.5" y="-292.5" font-family="Helvetica,sans-Serif" font-size="10.00">Instruction::init</text>
</a>
</g>
</g>
<!-- Node2&#45;&gt;Node3 -->
<g id="edge2" class="edge"><title>Node2&#45;&gt;Node3</title>
<path fill="none" stroke="midnightblue" d="M233.37,-446.22C249.545,-469.179 280.901,-507.508 319,-523 381.991,-548.614 416.109,-561.732 472,-523 548.096,-470.266 556.568,-340.9 557.427,-304.607"/>
<polygon fill="midnightblue" stroke="midnightblue" points="236.093,-444 227.571,-437.705 230.308,-447.941 236.093,-444"/>
</g>
<!-- Node4 -->
<g id="node4" class="node"><title>Node4</title>
<g id="a_node4"><a xlink:href="class_code_attribute.html#a380eb04a01b0a0db351cf74443067ba4" target="_top" xlink:title="CodeAttribute::print">
<polygon fill="white" stroke="black" points="645,-304.5 645,-323.5 746,-323.5 746,-304.5 645,-304.5"/>
<text text-anchor="middle" x="695.5" y="-311.5" font-family="Helvetica,sans-Serif" font-size="10.00">CodeAttribute::print</text>
</a>
</g>
</g>
<!-- Node3&#45;&gt;Node4 -->
<g id="edge3" class="edge"><title>Node3&#45;&gt;Node4</title>
<path fill="none" stroke="midnightblue" d="M609.273,-302.005C620.916,-303.644 633.316,-305.389 644.95,-307.026"/>
<polygon fill="midnightblue" stroke="midnightblue" points="609.665,-298.526 599.274,-300.598 608.689,-305.457 609.665,-298.526"/>
</g>
<!-- Node5 -->
<g id="node5" class="node"><title>Node5</title>
<g id="a_node5"><a xlink:href="struct_frame.html#abe0b370087d05267cab997ecdc78c4bd" target="_top" xlink:title="Frame::Frame">
<polygon fill="white" stroke="black" points="656.5,-266.5 656.5,-285.5 734.5,-285.5 734.5,-266.5 656.5,-266.5"/>
<text text-anchor="middle" x="695.5" y="-273.5" font-family="Helvetica,sans-Serif" font-size="10.00">Frame::Frame</text>
</a>
</g>
</g>
<!-- Node3&#45;&gt;Node5 -->
<g id="edge4" class="edge"><title>Node3&#45;&gt;Node5</title>
<path fill="none" stroke="midnightblue" d="M609.273,-287.995C624.843,-285.804 641.767,-283.422 656.401,-281.362"/>
<polygon fill="midnightblue" stroke="midnightblue" points="608.689,-284.543 599.274,-289.402 609.665,-291.474 608.689,-284.543"/>
</g>
<!-- Node7 -->
<g id="node7" class="node"><title>Node7</title>
<g id="a_node7"><a xlink:href="class_instruction_impl.html#ae794ec480c5cd8809d1215aa9442501b" target="_top" xlink:title="InstructionImpl::invokespecial">
<polygon fill="white" stroke="black" points="322.5,-38.5 322.5,-57.5 468.5,-57.5 468.5,-38.5 322.5,-38.5"/>
<text text-anchor="middle" x="395.5" y="-45.5" font-family="Helvetica,sans-Serif" font-size="10.00">InstructionImpl::invokespecial</text>
</a>
</g>
</g>
<!-- Node6&#45;&gt;Node7 -->
<g id="edge6" class="edge"><title>Node6&#45;&gt;Node7</title>
<path fill="none" stroke="midnightblue" d="M225.863,-237.305C235.52,-198.479 262.47,-111.935 319,-67 323.867,-63.1312 329.423,-60.0393 335.263,-57.57"/>
<polygon fill="midnightblue" stroke="midnightblue" points="222.389,-236.785 223.497,-247.322 229.202,-238.395 222.389,-236.785"/>
</g>
<!-- Node8 -->
<g id="node8" class="node"><title>Node8</title>
<g id="a_node8"><a xlink:href="class_instruction_impl.html#a3d197a31eaa6bc79b6d882b0ac9f1a67" target="_top" xlink:title="InstructionImpl::invokevirtual">
<polygon fill="white" stroke="black" points="324.5,-494.5 324.5,-513.5 466.5,-513.5 466.5,-494.5 324.5,-494.5"/>
<text text-anchor="middle" x="395.5" y="-501.5" font-family="Helvetica,sans-Serif" font-size="10.00">InstructionImpl::invokevirtual</text>
</a>
</g>
</g>
<!-- Node6&#45;&gt;Node8 -->
<g id="edge8" class="edge"><title>Node6&#45;&gt;Node8</title>
<path fill="none" stroke="midnightblue" d="M229.124,-276.086C250.57,-329.602 310.424,-477.679 319,-485 323.523,-488.861 328.722,-491.957 334.23,-494.435"/>
<polygon fill="midnightblue" stroke="midnightblue" points="232.338,-274.697 225.373,-266.713 225.839,-277.298 232.338,-274.697"/>
</g>
<!-- Node9 -->
<g id="node9" class="node"><title>Node9</title>
<g id="a_node9"><a xlink:href="class_instruction_impl.html#a1d155354287a5fa501cce5c39c341abc" target="_top" xlink:title="InstructionImpl::invokestatic">
<polygon fill="white" stroke="black" points="325.5,-456.5 325.5,-475.5 465.5,-475.5 465.5,-456.5 325.5,-456.5"/>
<text text-anchor="middle" x="395.5" y="-463.5" font-family="Helvetica,sans-Serif" font-size="10.00">InstructionImpl::invokestatic</text>
</a>
</g>
</g>
<!-- Node6&#45;&gt;Node9 -->
<g id="edge10" class="edge"><title>Node6&#45;&gt;Node9</title>
<path fill="none" stroke="midnightblue" d="M225.863,-276.695C235.52,-315.521 262.47,-402.065 319,-447 323.867,-450.869 329.423,-453.961 335.263,-456.43"/>
<polygon fill="midnightblue" stroke="midnightblue" points="229.202,-275.605 223.497,-266.678 222.389,-277.215 229.202,-275.605"/>
</g>
<!-- Node10 -->
<g id="node10" class="node"><title>Node10</title>
<g id="a_node10"><a xlink:href="class_instruction_impl.html#a612a030680b27c4dc97e6feec3abd9d5" target="_top" xlink:title="InstructionImpl::new_obj">
<polygon fill="white" stroke="black" points="334,-418.5 334,-437.5 457,-437.5 457,-418.5 334,-418.5"/>
<text text-anchor="middle" x="395.5" y="-425.5" font-family="Helvetica,sans-Serif" font-size="10.00">InstructionImpl::new_obj</text>
</a>
</g>
</g>
<!-- Node6&#45;&gt;Node10 -->
<g id="edge12" class="edge"><title>Node6&#45;&gt;Node10</title>
<path fill="none" stroke="midnightblue" d="M228.401,-276.31C241.07,-308.902 271.207,-374.628 319,-409 324.377,-412.867 330.461,-415.95 336.786,-418.407"/>
<polygon fill="midnightblue" stroke="midnightblue" points="231.557,-274.759 224.773,-266.62 225.001,-277.213 231.557,-274.759"/>
</g>
<!-- Node11 -->
<g id="node11" class="node"><title>Node11</title>
<g id="a_node11"><a xlink:href="class_instruction_impl.html#a87ff225e6ed77e1a956d3c6a572e5352" target="_top" xlink:title="InstructionImpl::invokeinterface">
<polygon fill="white" stroke="black" points="319,-380.5 319,-399.5 472,-399.5 472,-380.5 319,-380.5"/>
<text text-anchor="middle" x="395.5" y="-387.5" font-family="Helvetica,sans-Serif" font-size="10.00">InstructionImpl::invokeinterface</text>
</a>
</g>
</g>
<!-- Node6&#45;&gt;Node11 -->
<g id="edge14" class="edge"><title>Node6&#45;&gt;Node11</title>
<path fill="none" stroke="midnightblue" d="M232.104,-275.399C247.771,-300.885 279.548,-346.545 319,-371 325.319,-374.917 332.407,-378.027 339.643,-380.498"/>
<polygon fill="midnightblue" stroke="midnightblue" points="235.042,-273.493 226.906,-266.706 229.034,-277.085 235.042,-273.493"/>
</g>
<!-- Node12 -->
<g id="node12" class="node"><title>Node12</title>
<g id="a_node12"><a xlink:href="class_instruction_impl.html#a458635a5e0a0e1599931831243861ad5" target="_top" xlink:title="InstructionImpl::ineg">
<polygon fill="white" stroke="black" points="343,-342.5 343,-361.5 448,-361.5 448,-342.5 343,-342.5"/>
<text text-anchor="middle" x="395.5" y="-349.5" font-family="Helvetica,sans-Serif" font-size="10.00">InstructionImpl::ineg</text>
</a>
</g>
</g>
<!-- Node6&#45;&gt;Node12 -->
<g id="edge16" class="edge"><title>Node6&#45;&gt;Node12</title>
<path fill="none" stroke="midnightblue" d="M238.591,-273.991C256.951,-291.307 287.727,-317.726 319,-333 326.894,-336.856 335.647,-339.978 344.314,-342.491"/>
<polygon fill="midnightblue" stroke="midnightblue" points="240.702,-271.165 231.071,-266.749 235.846,-276.207 240.702,-271.165"/>
</g>
<!-- Node13 -->
<g id="node13" class="node"><title>Node13</title>
<g id="a_node13"><a xlink:href="class_instruction_impl.html#aab88cff85d05d447ba7e29f7fa5889b4" target="_top" xlink:title="InstructionImpl::lneg">
<polygon fill="white" stroke="black" points="343,-304.5 343,-323.5 448,-323.5 448,-304.5 343,-304.5"/>
<text text-anchor="middle" x="395.5" y="-311.5" font-family="Helvetica,sans-Serif" font-size="10.00">InstructionImpl::lneg</text>
</a>
</g>
</g>
<!-- Node6&#45;&gt;Node13 -->
<g id="edge18" class="edge"><title>Node6&#45;&gt;Node13</title>
<path fill="none" stroke="midnightblue" d="M253.003,-270.435C271.925,-278.213 296.599,-287.847 319,-295 329.816,-298.454 341.662,-301.686 352.699,-304.472"/>
<polygon fill="midnightblue" stroke="midnightblue" points="254.253,-267.164 243.675,-266.56 251.567,-273.629 254.253,-267.164"/>
</g>
<!-- Node14 -->
<g id="node14" class="node"><title>Node14</title>
<g id="a_node14"><a xlink:href="class_instruction_impl.html#a4eb37fe85c3ef86ccbd90c49a60b00ab" target="_top" xlink:title="InstructionImpl::ishl">
<polygon fill="white" stroke="black" points="344.5,-266.5 344.5,-285.5 446.5,-285.5 446.5,-266.5 344.5,-266.5"/>
<text text-anchor="middle" x="395.5" y="-273.5" font-family="Helvetica,sans-Serif" font-size="10.00">InstructionImpl::ishl</text>
</a>
</g>
</g>
<!-- Node6&#45;&gt;Node14 -->
<g id="edge20" class="edge"><title>Node6&#45;&gt;Node14</title>
<path fill="none" stroke="midnightblue" d="M288.765,-264.387C307.285,-266.422 327.045,-268.592 344.41,-270.499"/>
<polygon fill="midnightblue" stroke="midnightblue" points="288.948,-260.887 278.626,-263.274 288.184,-267.845 288.948,-260.887"/>
</g>
<!-- Node15 -->
<g id="node15" class="node"><title>Node15</title>
<g id="a_node15"><a xlink:href="class_instruction_impl.html#ae967a67c9b37f6c225c8443c4b85748e" target="_top" xlink:title="InstructionImpl::lshl">
<polygon fill="white" stroke="black" points="344.5,-228.5 344.5,-247.5 446.5,-247.5 446.5,-228.5 344.5,-228.5"/>
<text text-anchor="middle" x="395.5" y="-235.5" font-family="Helvetica,sans-Serif" font-size="10.00">InstructionImpl::lshl</text>
</a>
</g>
</g>
<!-- Node6&#45;&gt;Node15 -->
<g id="edge22" class="edge"><title>Node6&#45;&gt;Node15</title>
<path fill="none" stroke="midnightblue" d="M288.765,-249.613C307.285,-247.578 327.045,-245.408 344.41,-243.501"/>
<polygon fill="midnightblue" stroke="midnightblue" points="288.184,-246.155 278.626,-250.726 288.948,-253.113 288.184,-246.155"/>
</g>
<!-- Node16 -->
<g id="node16" class="node"><title>Node16</title>
<g id="a_node16"><a xlink:href="class_instruction_impl.html#ac68d41636161f33b4d65462b91264548" target="_top" xlink:title="InstructionImpl::ishr">
<polygon fill="white" stroke="black" points="344,-190.5 344,-209.5 447,-209.5 447,-190.5 344,-190.5"/>
<text text-anchor="middle" x="395.5" y="-197.5" font-family="Helvetica,sans-Serif" font-size="10.00">InstructionImpl::ishr</text>
</a>
</g>
</g>
<!-- Node6&#45;&gt;Node16 -->
<g id="edge24" class="edge"><title>Node6&#45;&gt;Node16</title>
<path fill="none" stroke="midnightblue" d="M253.003,-243.565C271.925,-235.787 296.599,-226.153 319,-219 329.816,-215.546 341.662,-212.314 352.699,-209.528"/>
<polygon fill="midnightblue" stroke="midnightblue" points="251.567,-240.371 243.675,-247.44 254.253,-246.836 251.567,-240.371"/>
</g>
<!-- Node17 -->
<g id="node17" class="node"><title>Node17</title>
<g id="a_node17"><a xlink:href="class_instruction_impl.html#aecca1e5322ed2ae9a3cf21a7b5716f77" target="_top" xlink:title="InstructionImpl::lshr">
<polygon fill="white" stroke="black" points="344,-152.5 344,-171.5 447,-171.5 447,-152.5 344,-152.5"/>
<text text-anchor="middle" x="395.5" y="-159.5" font-family="Helvetica,sans-Serif" font-size="10.00">InstructionImpl::lshr</text>
</a>
</g>
</g>
<!-- Node6&#45;&gt;Node17 -->
<g id="edge26" class="edge"><title>Node6&#45;&gt;Node17</title>
<path fill="none" stroke="midnightblue" d="M238.591,-240.009C256.951,-222.693 287.727,-196.274 319,-181 326.894,-177.144 335.647,-174.022 344.314,-171.509"/>
<polygon fill="midnightblue" stroke="midnightblue" points="235.846,-237.793 231.071,-247.251 240.702,-242.835 235.846,-237.793"/>
</g>
<!-- Node18 -->
<g id="node18" class="node"><title>Node18</title>
<g id="a_node18"><a xlink:href="class_instruction_impl.html#a23b84075b24e2a750e1d6cc6b22a9adb" target="_top" xlink:title="InstructionImpl::lushr">
<polygon fill="white" stroke="black" points="341.5,-114.5 341.5,-133.5 449.5,-133.5 449.5,-114.5 341.5,-114.5"/>
<text text-anchor="middle" x="395.5" y="-121.5" font-family="Helvetica,sans-Serif" font-size="10.00">InstructionImpl::lushr</text>
</a>
</g>
</g>
<!-- Node6&#45;&gt;Node18 -->
<g id="edge28" class="edge"><title>Node6&#45;&gt;Node18</title>
<path fill="none" stroke="midnightblue" d="M232.104,-238.601C247.771,-213.115 279.548,-167.455 319,-143 325.778,-138.799 333.442,-135.524 341.224,-132.974"/>
<polygon fill="midnightblue" stroke="midnightblue" points="229.034,-236.915 226.906,-247.294 235.042,-240.507 229.034,-236.915"/>
</g>
<!-- Node19 -->
<g id="node19" class="node"><title>Node19</title>
<g id="a_node19"><a xlink:href="class_instruction_impl.html#a4b4d6991094076af98ce5a5c4a2fedfa" target="_top" xlink:title="InstructionImpl::land">
<polygon fill="white" stroke="black" points="343,-76.5 343,-95.5 448,-95.5 448,-76.5 343,-76.5"/>
<text text-anchor="middle" x="395.5" y="-83.5" font-family="Helvetica,sans-Serif" font-size="10.00">InstructionImpl::land</text>
</a>
</g>
</g>
<!-- Node6&#45;&gt;Node19 -->
<g id="edge30" class="edge"><title>Node6&#45;&gt;Node19</title>
<path fill="none" stroke="midnightblue" d="M228.401,-237.69C241.07,-205.098 271.207,-139.372 319,-105 326.023,-99.9492 334.253,-96.2363 342.648,-93.508"/>
<polygon fill="midnightblue" stroke="midnightblue" points="225.001,-236.787 224.773,-247.38 231.557,-239.241 225.001,-236.787"/>
</g>
<!-- Node7&#45;&gt;Node3 -->
<g id="edge7" class="edge"><title>Node7&#45;&gt;Node3</title>
<path fill="none" stroke="midnightblue" d="M466.408,-62.6489C468.368,-63.9796 470.239,-65.4267 472,-67 540.719,-128.409 554.402,-250.567 556.95,-285.48"/>
<polygon fill="midnightblue" stroke="midnightblue" points="467.755,-59.3905 457.325,-57.5289 464.317,-65.4884 467.755,-59.3905"/>
</g>
<!-- Node8&#45;&gt;Node3 -->
<g id="edge9" class="edge"><title>Node8&#45;&gt;Node3</title>
<path fill="none" stroke="midnightblue" d="M465.666,-489.593C467.884,-488.198 470.005,-486.671 472,-485 531.343,-435.296 551.218,-335.92 556.143,-304.651"/>
<polygon fill="midnightblue" stroke="midnightblue" points="463.892,-486.572 456.696,-494.347 467.17,-492.756 463.892,-486.572"/>
</g>
<!-- Node9&#45;&gt;Node3 -->
<g id="edge11" class="edge"><title>Node9&#45;&gt;Node3</title>
<path fill="none" stroke="midnightblue" d="M464.227,-452.076C466.948,-450.554 469.555,-448.868 472,-447 522.281,-408.58 547.45,-331.582 554.997,-304.604"/>
<polygon fill="midnightblue" stroke="midnightblue" points="462.712,-448.921 455.207,-456.398 465.737,-455.233 462.712,-448.921"/>
</g>
<!-- Node10&#45;&gt;Node3 -->
<g id="edge13" class="edge"><title>Node10&#45;&gt;Node3</title>
<path fill="none" stroke="midnightblue" d="M462.13,-414.553C465.574,-412.911 468.891,-411.068 472,-409 513.405,-381.462 542.499,-326.889 553.09,-304.712"/>
<polygon fill="midnightblue" stroke="midnightblue" points="460.658,-411.374 452.771,-418.448 463.349,-417.836 460.658,-411.374"/>
</g>
<!-- Node11&#45;&gt;Node3 -->
<g id="edge15" class="edge"><title>Node11&#45;&gt;Node3</title>
<path fill="none" stroke="midnightblue" d="M458.326,-377.095C463.059,-375.311 467.673,-373.289 472,-371 505.004,-353.541 535.644,-320.737 549.593,-304.543"/>
<polygon fill="midnightblue" stroke="midnightblue" points="456.84,-373.903 448.497,-380.433 459.091,-380.531 456.84,-373.903"/>
</g>
<!-- Node12&#45;&gt;Node3 -->
<g id="edge17" class="edge"><title>Node12&#45;&gt;Node3</title>
<path fill="none" stroke="midnightblue" d="M449.793,-339.81C457.31,-337.737 464.893,-335.453 472,-333 495.493,-324.891 521.444,-312.901 538.524,-304.566"/>
<polygon fill="midnightblue" stroke="midnightblue" points="448.764,-336.462 439.996,-342.41 450.559,-343.228 448.764,-336.462"/>
</g>
<!-- Node13&#45;&gt;Node3 -->
<g id="edge19" class="edge"><title>Node13&#45;&gt;Node3</title>
<path fill="none" stroke="midnightblue" d="M458.283,-306.709C478.25,-304.352 499.844,-301.804 517.772,-299.688"/>
<polygon fill="midnightblue" stroke="midnightblue" points="457.848,-303.236 448.328,-307.884 458.669,-310.187 457.848,-303.236"/>
</g>
<!-- Node14&#45;&gt;Node3 -->
<g id="edge21" class="edge"><title>Node14&#45;&gt;Node3</title>
<path fill="none" stroke="midnightblue" d="M456.74,-283.109C477.199,-285.523 499.524,-288.158 517.949,-290.332"/>
<polygon fill="midnightblue" stroke="midnightblue" points="456.9,-279.604 446.559,-281.908 456.08,-286.556 456.9,-279.604"/>
</g>
<!-- Node15&#45;&gt;Node3 -->
<g id="edge23" class="edge"><title>Node15&#45;&gt;Node3</title>
<path fill="none" stroke="midnightblue" d="M449.793,-250.19C457.31,-252.263 464.893,-254.547 472,-257 495.493,-265.109 521.444,-277.099 538.524,-285.434"/>
<polygon fill="midnightblue" stroke="midnightblue" points="450.559,-246.772 439.996,-247.59 448.764,-253.538 450.559,-246.772"/>
</g>
<!-- Node16&#45;&gt;Node3 -->
<g id="edge25" class="edge"><title>Node16&#45;&gt;Node3</title>
<path fill="none" stroke="midnightblue" d="M456.84,-212.354C462.092,-214.27 467.221,-216.472 472,-219 505.004,-236.459 535.644,-269.263 549.593,-285.457"/>
<polygon fill="midnightblue" stroke="midnightblue" points="457.893,-209.016 447.3,-209.205 455.699,-215.663 457.893,-209.016"/>
</g>
<!-- Node17&#45;&gt;Node3 -->
<g id="edge27" class="edge"><title>Node17&#45;&gt;Node3</title>
<path fill="none" stroke="midnightblue" d="M456.95,-173.161C462.251,-175.326 467.358,-177.912 472,-181 513.405,-208.538 542.499,-263.111 553.09,-285.288"/>
<polygon fill="midnightblue" stroke="midnightblue" points="457.853,-169.766 447.258,-169.699 455.498,-176.358 457.853,-169.766"/>
</g>
<!-- Node18&#45;&gt;Node3 -->
<g id="edge29" class="edge"><title>Node18&#45;&gt;Node3</title>
<path fill="none" stroke="midnightblue" d="M459.293,-135.394C463.81,-137.516 468.11,-140.028 472,-143 522.281,-181.42 547.45,-258.418 554.997,-285.396"/>
<polygon fill="midnightblue" stroke="midnightblue" points="460.363,-132.052 449.779,-131.564 457.748,-138.546 460.363,-132.052"/>
</g>
<!-- Node19&#45;&gt;Node3 -->
<g id="edge31" class="edge"><title>Node19&#45;&gt;Node3</title>
<path fill="none" stroke="midnightblue" d="M457.728,-96.1212C462.869,-98.5003 467.726,-101.42 472,-105 531.343,-154.704 551.218,-254.08 556.143,-285.349"/>
<polygon fill="midnightblue" stroke="midnightblue" points="458.819,-92.7898 448.231,-92.3968 456.263,-99.3065 458.819,-92.7898"/>
</g>
<!-- Node20&#45;&gt;Node7 -->
<g id="edge33" class="edge"><title>Node20&#45;&gt;Node7</title>
<path fill="none" stroke="midnightblue" d="M293.65,-48C303.14,-48 312.866,-48 322.356,-48"/>
<polygon fill="midnightblue" stroke="midnightblue" points="293.468,-44.5001 283.468,-48 293.468,-51.5001 293.468,-44.5001"/>
</g>
<!-- Node21 -->
<g id="node21" class="node"><title>Node21</title>
<g id="a_node21"><a xlink:href="class_interpreter.html#ab8fa17a7a73d119f3a3113555aef9702" target="_top" xlink:title="Interpreter::loadInMemo">
<polygon fill="white" stroke="black" points="335.5,-0.5 335.5,-19.5 455.5,-19.5 455.5,-0.5 335.5,-0.5"/>
<text text-anchor="middle" x="395.5" y="-7.5" font-family="Helvetica,sans-Serif" font-size="10.00">Interpreter::loadInMemo</text>
</a>
</g>
</g>
<!-- Node20&#45;&gt;Node21 -->
<g id="edge34" class="edge"><title>Node20&#45;&gt;Node21</title>
<path fill="none" stroke="midnightblue" d="M275.005,-36.2474C299.467,-30.8742 328.071,-24.5914 351.159,-19.5201"/>
<polygon fill="midnightblue" stroke="midnightblue" points="274.171,-32.847 265.155,-38.411 275.673,-39.684 274.171,-32.847"/>
</g>
<!-- Node21&#45;&gt;Node1 -->
<g id="edge38" class="edge"><title>Node21&#45;&gt;Node1</title>
<path fill="none" stroke="midnightblue" d="M325.129,-1.38076C275.658,1.50975 209.123,-1.46079 158,-29 109.111,-55.3358 76.9608,-118.367 66.0912,-142.436"/>
<polygon fill="midnightblue" stroke="midnightblue" points="325.201,-4.89361 335.415,-2.07979 325.676,2.09028 325.201,-4.89361"/>
</g>
<!-- Node22 -->
<g id="node22" class="node"><title>Node22</title>
<g id="a_node22"><a xlink:href="class_interpreter.html#aaa34fcc8ece810597cd2fea359b65220" target="_top" xlink:title="Interpreter::execute">
<polygon fill="white" stroke="black" points="508,-0.5 508,-19.5 609,-19.5 609,-0.5 508,-0.5"/>
<text text-anchor="middle" x="558.5" y="-7.5" font-family="Helvetica,sans-Serif" font-size="10.00">Interpreter::execute</text>
</a>
</g>
</g>
<!-- Node21&#45;&gt;Node22 -->
<g id="edge35" class="edge"><title>Node21&#45;&gt;Node22</title>
<path fill="none" stroke="midnightblue" d="M465.769,-10C479.972,-10 494.651,-10 507.991,-10"/>
<polygon fill="midnightblue" stroke="midnightblue" points="465.536,-6.5001 455.536,-10 465.536,-13.5001 465.536,-6.5001"/>
</g>
<!-- Node23 -->
<g id="node23" class="node"><title>Node23</title>
<g id="a_node23"><a xlink:href="jvm_8cpp.html#a4f4a24852257f7259f906828eec5c11c" target="_top" xlink:title="Chama o interpretador para classloader. ">
<polygon fill="white" stroke="black" points="653.5,-0.5 653.5,-19.5 737.5,-19.5 737.5,-0.5 653.5,-0.5"/>
<text text-anchor="middle" x="695.5" y="-7.5" font-family="Helvetica,sans-Serif" font-size="10.00">classInterpreter</text>
</a>
</g>
</g>
<!-- Node22&#45;&gt;Node23 -->
<g id="edge36" class="edge"><title>Node22&#45;&gt;Node23</title>
<path fill="none" stroke="midnightblue" d="M619.077,-10C630.673,-10 642.586,-10 653.42,-10"/>
<polygon fill="midnightblue" stroke="midnightblue" points="619.002,-6.5001 609.002,-10 619.002,-13.5001 619.002,-6.5001"/>
</g>
<!-- Node24 -->
<g id="node24" class="node"><title>Node24</title>
<g id="a_node24"><a xlink:href="jvm_8cpp.html#a0ddf1224851353fc92bfbff6f499fa97" target="_top" xlink:title="Função main. ">
<polygon fill="white" stroke="black" points="782,-0.5 782,-19.5 820,-19.5 820,-0.5 782,-0.5"/>
<text text-anchor="middle" x="801" y="-7.5" font-family="Helvetica,sans-Serif" font-size="10.00">main</text>
</a>
</g>
</g>
<!-- Node23&#45;&gt;Node24 -->
<g id="edge37" class="edge"><title>Node23&#45;&gt;Node24</title>
<path fill="none" stroke="midnightblue" d="M747.891,-10C760.099,-10 772.332,-10 781.875,-10"/>
<polygon fill="midnightblue" stroke="midnightblue" points="747.703,-6.5001 737.703,-10 747.703,-13.5001 747.703,-6.5001"/>
</g>
</g>
</svg>
