<?xml version="1.0" encoding="UTF-8" standalone="no"?>
<!DOCTYPE svg PUBLIC "-//W3C//DTD SVG 1.1//EN"
 "http://www.w3.org/Graphics/SVG/1.1/DTD/svg11.dtd">
<!-- Generated by graphviz version 2.38.0 (20140413.2041)
 -->
<!-- Title: ClassLoader::getMethods Pages: 1 -->
<svg width="928pt" height="196pt"
 viewBox="0.00 0.00 928.00 196.00" xmlns="http://www.w3.org/2000/svg" xmlns:xlink="http://www.w3.org/1999/xlink">
<g id="graph0" class="graph" transform="scale(1 1) rotate(0) translate(4 192)">
<title>ClassLoader::getMethods</title>
<polygon fill="white" stroke="none" points="-4,4 -4,-192 924,-192 924,4 -4,4"/>
<!-- Node1 -->
<g id="node1" class="node"><title>Node1</title>
<polygon fill="#bfbfbf" stroke="black" points="0,-76.5 0,-95.5 128,-95.5 128,-76.5 0,-76.5"/>
<text text-anchor="middle" x="64" y="-83.5" font-family="Helvetica,sans-Serif" font-size="10.00">ClassLoader::getMethods</text>
</g>
<!-- Node2 -->
<g id="node2" class="node"><title>Node2</title>
<g id="a_node2"><a xlink:href="class_class_loader.html#acad870c7b405146242912190e1e71f7c" target="_top" xlink:title="ClassLoader::getMethoCount">
<polygon fill="white" stroke="black" points="164,-114.5 164,-133.5 308,-133.5 308,-114.5 164,-114.5"/>
<text text-anchor="middle" x="236" y="-121.5" font-family="Helvetica,sans-Serif" font-size="10.00">ClassLoader::getMethoCount</text>
</a>
</g>
</g>
<!-- Node1&#45;&gt;Node2 -->
<g id="edge1" class="edge"><title>Node1&#45;&gt;Node2</title>
<path fill="none" stroke="midnightblue" d="M117.898,-97.8243C141.865,-103.182 169.824,-109.431 192.41,-114.48"/>
<polygon fill="midnightblue" stroke="midnightblue" points="118.421,-94.3548 107.898,-95.589 116.894,-101.186 118.421,-94.3548"/>
</g>
<!-- Node3 -->
<g id="node3" class="node"><title>Node3</title>
<g id="a_node3"><a xlink:href="class_methods_area.html#ab8111f3fc9b55f1f8dbbbe0c1ca76d89" target="_top" xlink:title="MethodsArea::findMethodBy\lNameOrDeor">
<polygon fill="white" stroke="black" points="344,-87 344,-117 484,-117 484,-87 344,-87"/>
<text text-anchor="start" x="352" y="-105" font-family="Helvetica,sans-Serif" font-size="10.00">MethodsArea::findMethodBy</text>
<text text-anchor="middle" x="414" y="-94" font-family="Helvetica,sans-Serif" font-size="10.00">NameOrDeor</text>
</a>
</g>
</g>
<!-- Node1&#45;&gt;Node3 -->
<g id="edge14" class="edge"><title>Node1&#45;&gt;Node3</title>
<path fill="none" stroke="midnightblue" d="M138.284,-89.3694C198.917,-92.1571 284.434,-96.0889 343.887,-98.8224"/>
<polygon fill="midnightblue" stroke="midnightblue" points="138.17,-85.8606 128.02,-88.8975 137.849,-92.8532 138.17,-85.8606"/>
</g>
<!-- Node8 -->
<g id="node8" class="node"><title>Node8</title>
<g id="a_node8"><a xlink:href="class_interpreter.html#a16752843b70549dac6ed661365e95ae3" target="_top" xlink:title="Busca um metodo pelo seu descritor ou nome e o retorna. ">
<polygon fill="white" stroke="black" points="350.5,-141 350.5,-171 477.5,-171 477.5,-141 350.5,-141"/>
<text text-anchor="start" x="358.5" y="-159" font-family="Helvetica,sans-Serif" font-size="10.00">Interpreter::findMethodBy</text>
<text text-anchor="middle" x="414" y="-148" font-family="Helvetica,sans-Serif" font-size="10.00">NameOrDescriptor</text>
</a>
</g>
</g>
<!-- Node1&#45;&gt;Node8 -->
<g id="edge19" class="edge"><title>Node1&#45;&gt;Node8</title>
<path fill="none" stroke="midnightblue" d="M85.4791,-101.674C104.628,-115.347 134.609,-134.316 164,-143 225.441,-161.153 299.063,-162.662 350.248,-160.704"/>
<polygon fill="midnightblue" stroke="midnightblue" points="87.3763,-98.7253 77.2412,-95.6381 83.239,-104.372 87.3763,-98.7253"/>
</g>
<!-- Node11 -->
<g id="node11" class="node"><title>Node11</title>
<g id="a_node11"><a xlink:href="jvm_8cpp.html#a893044ba12149c5e0ed3b4a19474fc4a" target="_top" xlink:title="Chama o exibidor de ClassLoader. ">
<polygon fill="white" stroke="black" points="378.5,-38.5 378.5,-57.5 449.5,-57.5 449.5,-38.5 378.5,-38.5"/>
<text text-anchor="middle" x="414" y="-45.5" font-family="Helvetica,sans-Serif" font-size="10.00">classReader</text>
</a>
</g>
</g>
<!-- Node1&#45;&gt;Node11 -->
<g id="edge20" class="edge"><title>Node1&#45;&gt;Node11</title>
<path fill="none" stroke="midnightblue" d="M138.183,-78.0087C212.016,-69.9466 322.821,-57.8472 378.484,-51.769"/>
<polygon fill="midnightblue" stroke="midnightblue" points="137.581,-74.5536 128.02,-79.1185 138.341,-81.5122 137.581,-74.5536"/>
</g>
<!-- Node13 -->
<g id="node13" class="node"><title>Node13</title>
<g id="a_node13"><a xlink:href="class_interpreter.html#a9be1f0faf7df7c81dc180da22ea08fa5" target="_top" xlink:title="Interpreter::mainFinder">
<polygon fill="white" stroke="black" points="178.5,-0.5 178.5,-19.5 293.5,-19.5 293.5,-0.5 178.5,-0.5"/>
<text text-anchor="middle" x="236" y="-7.5" font-family="Helvetica,sans-Serif" font-size="10.00">Interpreter::mainFinder</text>
</a>
</g>
</g>
<!-- Node1&#45;&gt;Node13 -->
<g id="edge15" class="edge"><title>Node1&#45;&gt;Node13</title>
<path fill="none" stroke="midnightblue" d="M90.3578,-71.2585C110.045,-60.1658 138.236,-45.0391 164,-34 176.558,-28.6193 190.759,-23.615 203.142,-19.5834"/>
<polygon fill="midnightblue" stroke="midnightblue" points="88.3832,-68.3552 81.4246,-76.3444 91.8466,-74.4384 88.3832,-68.3552"/>
</g>
<!-- Node2&#45;&gt;Node3 -->
<g id="edge2" class="edge"><title>Node2&#45;&gt;Node3</title>
<path fill="none" stroke="midnightblue" d="M318.141,-113.857C326.764,-112.78 335.475,-111.691 343.941,-110.632"/>
<polygon fill="midnightblue" stroke="midnightblue" points="317.567,-110.402 308.079,-115.115 318.436,-117.348 317.567,-110.402"/>
</g>
<!-- Node2&#45;&gt;Node8 -->
<g id="edge7" class="edge"><title>Node2&#45;&gt;Node8</title>
<path fill="none" stroke="midnightblue" d="M299.421,-135.349C315.94,-138.353 333.776,-141.596 350.309,-144.602"/>
<polygon fill="midnightblue" stroke="midnightblue" points="299.794,-131.86 289.329,-133.514 298.542,-138.747 299.794,-131.86"/>
</g>
<!-- Node2&#45;&gt;Node11 -->
<g id="edge12" class="edge"><title>Node2&#45;&gt;Node11</title>
<path fill="none" stroke="midnightblue" d="M267.901,-110.271C289.241,-100.827 318.297,-88.0455 344,-77 359.281,-70.4331 376.531,-63.1831 389.961,-57.5748"/>
<polygon fill="midnightblue" stroke="midnightblue" points="266.404,-107.106 258.678,-114.356 269.239,-113.506 266.404,-107.106"/>
</g>
<!-- Node4 -->
<g id="node4" class="node"><title>Node4</title>
<g id="a_node4"><a xlink:href="class_instruction_impl.html#a3d197a31eaa6bc79b6d882b0ac9f1a67" target="_top" xlink:title="InstructionImpl::invokevirtual">
<polygon fill="white" stroke="black" points="522,-92.5 522,-111.5 664,-111.5 664,-92.5 522,-92.5"/>
<text text-anchor="middle" x="593" y="-99.5" font-family="Helvetica,sans-Serif" font-size="10.00">InstructionImpl::invokevirtual</text>
</a>
</g>
</g>
<!-- Node3&#45;&gt;Node4 -->
<g id="edge3" class="edge"><title>Node3&#45;&gt;Node4</title>
<path fill="none" stroke="midnightblue" d="M494.472,-102C503.644,-102 512.947,-102 521.981,-102"/>
<polygon fill="midnightblue" stroke="midnightblue" points="494.193,-98.5001 484.193,-102 494.193,-105.5 494.193,-98.5001"/>
</g>
<!-- Node5 -->
<g id="node5" class="node"><title>Node5</title>
<g id="a_node5"><a xlink:href="class_instruction.html#a145a172552303c9cbd8a5856e31a701b" target="_top" xlink:title="Instruction::init">
<polygon fill="white" stroke="black" points="702,-130.5 702,-149.5 783,-149.5 783,-130.5 702,-130.5"/>
<text text-anchor="middle" x="742.5" y="-137.5" font-family="Helvetica,sans-Serif" font-size="10.00">Instruction::init</text>
</a>
</g>
</g>
<!-- Node4&#45;&gt;Node5 -->
<g id="edge4" class="edge"><title>Node4&#45;&gt;Node5</title>
<path fill="none" stroke="midnightblue" d="M641.014,-114.112C661.557,-119.404 685.3,-125.521 704.547,-130.48"/>
<polygon fill="midnightblue" stroke="midnightblue" points="641.777,-110.695 631.22,-111.589 640.031,-117.473 641.777,-110.695"/>
</g>
<!-- Node6 -->
<g id="node6" class="node"><title>Node6</title>
<g id="a_node6"><a xlink:href="class_code_attribute.html#a380eb04a01b0a0db351cf74443067ba4" target="_top" xlink:title="CodeAttribute::print">
<polygon fill="white" stroke="black" points="819,-149.5 819,-168.5 920,-168.5 920,-149.5 819,-149.5"/>
<text text-anchor="middle" x="869.5" y="-156.5" font-family="Helvetica,sans-Serif" font-size="10.00">CodeAttribute::print</text>
</a>
</g>
</g>
<!-- Node5&#45;&gt;Node6 -->
<g id="edge5" class="edge"><title>Node5&#45;&gt;Node6</title>
<path fill="none" stroke="midnightblue" d="M793.099,-147.539C801.505,-148.817 810.236,-150.144 818.648,-151.422"/>
<polygon fill="midnightblue" stroke="midnightblue" points="793.463,-144.054 783.051,-146.012 792.411,-150.975 793.463,-144.054"/>
</g>
<!-- Node7 -->
<g id="node7" class="node"><title>Node7</title>
<g id="a_node7"><a xlink:href="struct_frame.html#abe0b370087d05267cab997ecdc78c4bd" target="_top" xlink:title="Frame::Frame">
<polygon fill="white" stroke="black" points="830.5,-111.5 830.5,-130.5 908.5,-130.5 908.5,-111.5 830.5,-111.5"/>
<text text-anchor="middle" x="869.5" y="-118.5" font-family="Helvetica,sans-Serif" font-size="10.00">Frame::Frame</text>
</a>
</g>
</g>
<!-- Node5&#45;&gt;Node7 -->
<g id="edge6" class="edge"><title>Node5&#45;&gt;Node7</title>
<path fill="none" stroke="midnightblue" d="M793.257,-132.437C805.657,-130.552 818.755,-128.561 830.487,-126.778"/>
<polygon fill="midnightblue" stroke="midnightblue" points="792.411,-129.025 783.051,-133.988 793.463,-135.946 792.411,-129.025"/>
</g>
<!-- Node9 -->
<g id="node9" class="node"><title>Node9</title>
<g id="a_node9"><a xlink:href="class_instruction_impl.html#ae794ec480c5cd8809d1215aa9442501b" target="_top" xlink:title="InstructionImpl::invokespecial">
<polygon fill="white" stroke="black" points="520,-168.5 520,-187.5 666,-187.5 666,-168.5 520,-168.5"/>
<text text-anchor="middle" x="593" y="-175.5" font-family="Helvetica,sans-Serif" font-size="10.00">InstructionImpl::invokespecial</text>
</a>
</g>
</g>
<!-- Node8&#45;&gt;Node9 -->
<g id="edge8" class="edge"><title>Node8&#45;&gt;Node9</title>
<path fill="none" stroke="midnightblue" d="M487.928,-165.064C498.504,-166.379 509.387,-167.732 519.946,-169.044"/>
<polygon fill="midnightblue" stroke="midnightblue" points="488.257,-161.579 477.902,-163.818 487.394,-168.525 488.257,-161.579"/>
</g>
<!-- Node10 -->
<g id="node10" class="node"><title>Node10</title>
<g id="a_node10"><a xlink:href="class_instruction_impl.html#a1d155354287a5fa501cce5c39c341abc" target="_top" xlink:title="InstructionImpl::invokestatic">
<polygon fill="white" stroke="black" points="523,-130.5 523,-149.5 663,-149.5 663,-130.5 523,-130.5"/>
<text text-anchor="middle" x="593" y="-137.5" font-family="Helvetica,sans-Serif" font-size="10.00">InstructionImpl::invokestatic</text>
</a>
</g>
</g>
<!-- Node8&#45;&gt;Node10 -->
<g id="edge10" class="edge"><title>Node8&#45;&gt;Node10</title>
<path fill="none" stroke="midnightblue" d="M487.966,-149.404C499.549,-148.357 511.498,-147.277 522.987,-146.238"/>
<polygon fill="midnightblue" stroke="midnightblue" points="487.546,-145.928 477.902,-150.314 488.176,-152.899 487.546,-145.928"/>
</g>
<!-- Node9&#45;&gt;Node5 -->
<g id="edge9" class="edge"><title>Node9&#45;&gt;Node5</title>
<path fill="none" stroke="midnightblue" d="M641.014,-165.888C661.557,-160.596 685.3,-154.479 704.547,-149.52"/>
<polygon fill="midnightblue" stroke="midnightblue" points="640.031,-162.527 631.22,-168.411 641.777,-169.305 640.031,-162.527"/>
</g>
<!-- Node10&#45;&gt;Node5 -->
<g id="edge11" class="edge"><title>Node10&#45;&gt;Node5</title>
<path fill="none" stroke="midnightblue" d="M673.61,-140C683.358,-140 692.968,-140 701.754,-140"/>
<polygon fill="midnightblue" stroke="midnightblue" points="673.431,-136.5 663.431,-140 673.431,-143.5 673.431,-136.5"/>
</g>
<!-- Node12 -->
<g id="node12" class="node"><title>Node12</title>
<g id="a_node12"><a xlink:href="jvm_8cpp.html#a0ddf1224851353fc92bfbff6f499fa97" target="_top" xlink:title="Função main. ">
<polygon fill="white" stroke="black" points="723.5,-19.5 723.5,-38.5 761.5,-38.5 761.5,-19.5 723.5,-19.5"/>
<text text-anchor="middle" x="742.5" y="-26.5" font-family="Helvetica,sans-Serif" font-size="10.00">main</text>
</a>
</g>
</g>
<!-- Node11&#45;&gt;Node12 -->
<g id="edge13" class="edge"><title>Node11&#45;&gt;Node12</title>
<path fill="none" stroke="midnightblue" d="M459.856,-45.3897C532.616,-41.1556 673.266,-32.9708 723.292,-30.0596"/>
<polygon fill="midnightblue" stroke="midnightblue" points="459.412,-41.9095 449.632,-45.9847 459.819,-48.8977 459.412,-41.9095"/>
</g>
<!-- Node14 -->
<g id="node14" class="node"><title>Node14</title>
<g id="a_node14"><a xlink:href="class_interpreter.html#aaa34fcc8ece810597cd2fea359b65220" target="_top" xlink:title="Interpreter::execute">
<polygon fill="white" stroke="black" points="363.5,-0.5 363.5,-19.5 464.5,-19.5 464.5,-0.5 363.5,-0.5"/>
<text text-anchor="middle" x="414" y="-7.5" font-family="Helvetica,sans-Serif" font-size="10.00">Interpreter::execute</text>
</a>
</g>
</g>
<!-- Node13&#45;&gt;Node14 -->
<g id="edge16" class="edge"><title>Node13&#45;&gt;Node14</title>
<path fill="none" stroke="midnightblue" d="M303.819,-10C323.559,-10 344.812,-10 363.273,-10"/>
<polygon fill="midnightblue" stroke="midnightblue" points="303.656,-6.5001 293.656,-10 303.656,-13.5001 303.656,-6.5001"/>
</g>
<!-- Node15 -->
<g id="node15" class="node"><title>Node15</title>
<g id="a_node15"><a xlink:href="jvm_8cpp.html#a4f4a24852257f7259f906828eec5c11c" target="_top" xlink:title="Chama o interpretador para classloader. ">
<polygon fill="white" stroke="black" points="551,-0.5 551,-19.5 635,-19.5 635,-0.5 551,-0.5"/>
<text text-anchor="middle" x="593" y="-7.5" font-family="Helvetica,sans-Serif" font-size="10.00">classInterpreter</text>
</a>
</g>
</g>
<!-- Node14&#45;&gt;Node15 -->
<g id="edge17" class="edge"><title>Node14&#45;&gt;Node15</title>
<path fill="none" stroke="midnightblue" d="M474.899,-10C499.922,-10 528.363,-10 550.949,-10"/>
<polygon fill="midnightblue" stroke="midnightblue" points="474.775,-6.5001 464.775,-10 474.775,-13.5001 474.775,-6.5001"/>
</g>
<!-- Node15&#45;&gt;Node12 -->
<g id="edge18" class="edge"><title>Node15&#45;&gt;Node12</title>
<path fill="none" stroke="midnightblue" d="M645.226,-16.5986C672.347,-20.0921 703.963,-24.1647 723.354,-26.6625"/>
<polygon fill="midnightblue" stroke="midnightblue" points="645.452,-13.0989 635.087,-15.2926 644.558,-20.0415 645.452,-13.0989"/>
</g>
</g>
</svg>
