<?xml version="1.0" encoding="UTF-8" standalone="no"?>
<!DOCTYPE svg PUBLIC "-//W3C//DTD SVG 1.1//EN"
 "http://www.w3.org/Graphics/SVG/1.1/DTD/svg11.dtd">
<!-- Generated by graphviz version 2.38.0 (20140413.2041)
 -->
<!-- Title: ClassLoader::setMethods Pages: 1 -->
<svg width="548pt" height="78pt"
 viewBox="0.00 0.00 548.00 77.50" xmlns="http://www.w3.org/2000/svg" xmlns:xlink="http://www.w3.org/1999/xlink">
<g id="graph0" class="graph" transform="scale(1 1) rotate(0) translate(4 73.5)">
<title>ClassLoader::setMethods</title>
<polygon fill="white" stroke="none" points="-4,4 -4,-73.5 544,-73.5 544,4 -4,4"/>
<!-- Node1 -->
<g id="node1" class="node"><title>Node1</title>
<polygon fill="#bfbfbf" stroke="black" points="0,-31 0,-50 128,-50 128,-31 0,-31"/>
<text text-anchor="middle" x="64" y="-38" font-family="Helvetica,sans-Serif" font-size="10.00">ClassLoader::setMethods</text>
</g>
<!-- Node2 -->
<g id="node2" class="node"><title>Node2</title>
<g id="a_node2"><a xlink:href="struct_method_info.html#a96fbb8de441ef2af032c20d36d41eb7a" target="_top" xlink:title="Serve para preencher os valores de uma instância de MethodInfo. ">
<polygon fill="white" stroke="black" points="164,-31 164,-50 254,-50 254,-31 164,-31"/>
<text text-anchor="middle" x="209" y="-38" font-family="Helvetica,sans-Serif" font-size="10.00">MethodInfo::read</text>
</a>
</g>
</g>
<!-- Node1&#45;&gt;Node2 -->
<g id="edge1" class="edge"><title>Node1&#45;&gt;Node2</title>
<path fill="none" stroke="midnightblue" d="M128.138,-40.5C136.555,-40.5 145.129,-40.5 153.385,-40.5"/>
<polygon fill="midnightblue" stroke="midnightblue" points="153.636,-44.0001 163.636,-40.5 153.635,-37.0001 153.636,-44.0001"/>
</g>
<!-- Node3 -->
<g id="node3" class="node"><title>Node3</title>
<g id="a_node3"><a xlink:href="class_byte_reader.html#ae570748805994596f51ae033183935d7" target="_top" xlink:title="ByteReader::byteCatch">
<polygon fill="white" stroke="black" points="421,-50 421,-69 540,-69 540,-50 421,-50"/>
<text text-anchor="middle" x="480.5" y="-57" font-family="Helvetica,sans-Serif" font-size="10.00">ByteReader::byteCatch</text>
</a>
</g>
</g>
<!-- Node2&#45;&gt;Node3 -->
<g id="edge2" class="edge"><title>Node2&#45;&gt;Node3</title>
<path fill="none" stroke="midnightblue" d="M254.201,-43.6162C296.582,-46.6041 361.206,-51.1602 410.391,-54.6277"/>
<polygon fill="midnightblue" stroke="midnightblue" points="410.417,-58.1382 420.638,-55.3502 410.909,-51.1555 410.417,-58.1382"/>
</g>
<!-- Node4 -->
<g id="node4" class="node"><title>Node4</title>
<g id="a_node4"><a xlink:href="class_attribute_info.html#ac167daa272a7ef9b9f11389d34e42165" target="_top" xlink:title="AttributeInfo::read">
<polygon fill="white" stroke="black" points="290,-12 290,-31 385,-31 385,-12 290,-12"/>
<text text-anchor="middle" x="337.5" y="-19" font-family="Helvetica,sans-Serif" font-size="10.00">AttributeInfo::read</text>
</a>
</g>
</g>
<!-- Node2&#45;&gt;Node4 -->
<g id="edge3" class="edge"><title>Node2&#45;&gt;Node4</title>
<path fill="none" stroke="midnightblue" d="M254.244,-33.8547C262.539,-32.6087 271.316,-31.2904 279.926,-29.9972"/>
<polygon fill="midnightblue" stroke="midnightblue" points="280.549,-33.4431 289.918,-28.4965 279.509,-26.5207 280.549,-33.4431"/>
</g>
<!-- Node4&#45;&gt;Node3 -->
<g id="edge4" class="edge"><title>Node4&#45;&gt;Node3</title>
<path fill="none" stroke="midnightblue" d="M374.08,-31.089C392.282,-35.9944 414.638,-42.0196 434.072,-47.2571"/>
<polygon fill="midnightblue" stroke="midnightblue" points="433.365,-50.6912 443.931,-49.9141 435.186,-43.9324 433.365,-50.6912"/>
</g>
<!-- Node5 -->
<g id="node5" class="node"><title>Node5</title>
<g id="a_node5"><a xlink:href="struct_cp_attribute_interface.html#a99cabbc15a0af5273a6d324dfbc78f41" target="_top" xlink:title="CpAttributeInterface\l::getUTF8">
<polygon fill="white" stroke="black" points="428.5,-0.5 428.5,-30.5 532.5,-30.5 532.5,-0.5 428.5,-0.5"/>
<text text-anchor="start" x="436.5" y="-18.5" font-family="Helvetica,sans-Serif" font-size="10.00">CpAttributeInterface</text>
<text text-anchor="middle" x="480.5" y="-7.5" font-family="Helvetica,sans-Serif" font-size="10.00">::getUTF8</text>
</a>
</g>
</g>
<!-- Node4&#45;&gt;Node5 -->
<g id="edge5" class="edge"><title>Node4&#45;&gt;Node5</title>
<path fill="none" stroke="midnightblue" d="M385.059,-19.5187C395.623,-19.0692 407,-18.5851 418.073,-18.1139"/>
<polygon fill="midnightblue" stroke="midnightblue" points="418.283,-21.6082 428.125,-17.6862 417.985,-14.6146 418.283,-21.6082"/>
</g>
</g>
</svg>
