<?xml version="1.0" encoding="UTF-8" standalone="no"?>
<!DOCTYPE svg PUBLIC "-//W3C//DTD SVG 1.1//EN"
 "http://www.w3.org/Graphics/SVG/1.1/DTD/svg11.dtd">
<!-- Generated by graphviz version 2.38.0 (20140413.2041)
 -->
<!-- Title: InstructionImpl::i2b Pages: 1 -->
<svg width="362pt" height="66pt"
 viewBox="0.00 0.00 362.00 66.00" xmlns="http://www.w3.org/2000/svg" xmlns:xlink="http://www.w3.org/1999/xlink">
<g id="graph0" class="graph" transform="scale(1 1) rotate(0) translate(4 62)">
<title>InstructionImpl::i2b</title>
<polygon fill="white" stroke="none" points="-4,4 -4,-62 358,-62 358,4 -4,4"/>
<!-- Node1 -->
<g id="node1" class="node"><title>Node1</title>
<polygon fill="#bfbfbf" stroke="black" points="0,-19.5 0,-38.5 100,-38.5 100,-19.5 0,-19.5"/>
<text text-anchor="middle" x="50" y="-26.5" font-family="Helvetica,sans-Serif" font-size="10.00">InstructionImpl::i2b</text>
</g>
<!-- Node2 -->
<g id="node2" class="node"><title>Node2</title>
<g id="a_node2"><a xlink:href="class_instruction.html#a145a172552303c9cbd8a5856e31a701b" target="_top" xlink:title="Instruction::init">
<polygon fill="white" stroke="black" points="136,-19.5 136,-38.5 217,-38.5 217,-19.5 136,-19.5"/>
<text text-anchor="middle" x="176.5" y="-26.5" font-family="Helvetica,sans-Serif" font-size="10.00">Instruction::init</text>
</a>
</g>
</g>
<!-- Node1&#45;&gt;Node2 -->
<g id="edge1" class="edge"><title>Node1&#45;&gt;Node2</title>
<path fill="none" stroke="midnightblue" d="M110.3,-29C118.963,-29 127.703,-29 135.845,-29"/>
<polygon fill="midnightblue" stroke="midnightblue" points="110.206,-25.5001 100.206,-29 110.206,-32.5001 110.206,-25.5001"/>
</g>
<!-- Node3 -->
<g id="node3" class="node"><title>Node3</title>
<g id="a_node3"><a xlink:href="class_code_attribute.html#a380eb04a01b0a0db351cf74443067ba4" target="_top" xlink:title="CodeAttribute::print">
<polygon fill="white" stroke="black" points="253,-38.5 253,-57.5 354,-57.5 354,-38.5 253,-38.5"/>
<text text-anchor="middle" x="303.5" y="-45.5" font-family="Helvetica,sans-Serif" font-size="10.00">CodeAttribute::print</text>
</a>
</g>
</g>
<!-- Node2&#45;&gt;Node3 -->
<g id="edge2" class="edge"><title>Node2&#45;&gt;Node3</title>
<path fill="none" stroke="midnightblue" d="M227.099,-36.539C235.505,-37.8167 244.236,-39.1438 252.648,-40.4224"/>
<polygon fill="midnightblue" stroke="midnightblue" points="227.463,-33.0543 217.051,-35.0117 226.411,-39.9748 227.463,-33.0543"/>
</g>
<!-- Node4 -->
<g id="node4" class="node"><title>Node4</title>
<g id="a_node4"><a xlink:href="struct_frame.html#abe0b370087d05267cab997ecdc78c4bd" target="_top" xlink:title="Frame::Frame">
<polygon fill="white" stroke="black" points="264.5,-0.5 264.5,-19.5 342.5,-19.5 342.5,-0.5 264.5,-0.5"/>
<text text-anchor="middle" x="303.5" y="-7.5" font-family="Helvetica,sans-Serif" font-size="10.00">Frame::Frame</text>
</a>
</g>
</g>
<!-- Node2&#45;&gt;Node4 -->
<g id="edge3" class="edge"><title>Node2&#45;&gt;Node4</title>
<path fill="none" stroke="midnightblue" d="M227.257,-21.437C239.657,-19.5522 252.755,-17.5612 264.487,-15.778"/>
<polygon fill="midnightblue" stroke="midnightblue" points="226.411,-18.0252 217.051,-22.9883 227.463,-24.9457 226.411,-18.0252"/>
</g>
</g>
</svg>
