<?xml version="1.0" encoding="UTF-8" standalone="no"?>
<!DOCTYPE svg PUBLIC "-//W3C//DTD SVG 1.1//EN"
 "http://www.w3.org/Graphics/SVG/1.1/DTD/svg11.dtd">
<!-- Generated by graphviz version 2.38.0 (20140413.2041)
 -->
<!-- Title: ClassLoader::setAttributes Pages: 1 -->
<svg width="427pt" height="78pt"
 viewBox="0.00 0.00 427.00 77.50" xmlns="http://www.w3.org/2000/svg" xmlns:xlink="http://www.w3.org/1999/xlink">
<g id="graph0" class="graph" transform="scale(1 1) rotate(0) translate(4 73.5)">
<title>ClassLoader::setAttributes</title>
<polygon fill="white" stroke="none" points="-4,4 -4,-73.5 423,-73.5 423,4 -4,4"/>
<!-- Node1 -->
<g id="node1" class="node"><title>Node1</title>
<polygon fill="#bfbfbf" stroke="black" points="0,-28 0,-47 133,-47 133,-28 0,-28"/>
<text text-anchor="middle" x="66.5" y="-35" font-family="Helvetica,sans-Serif" font-size="10.00">ClassLoader::setAttributes</text>
</g>
<!-- Node2 -->
<g id="node2" class="node"><title>Node2</title>
<g id="a_node2"><a xlink:href="class_attribute_info.html#ac167daa272a7ef9b9f11389d34e42165" target="_top" xlink:title="AttributeInfo::read">
<polygon fill="white" stroke="black" points="169,-28 169,-47 264,-47 264,-28 169,-28"/>
<text text-anchor="middle" x="216.5" y="-35" font-family="Helvetica,sans-Serif" font-size="10.00">AttributeInfo::read</text>
</a>
</g>
</g>
<!-- Node1&#45;&gt;Node2 -->
<g id="edge1" class="edge"><title>Node1&#45;&gt;Node2</title>
<path fill="none" stroke="midnightblue" d="M133.277,-37.5C141.839,-37.5 150.55,-37.5 158.943,-37.5"/>
<polygon fill="midnightblue" stroke="midnightblue" points="158.992,-41.0001 168.992,-37.5 158.992,-34.0001 158.992,-41.0001"/>
</g>
<!-- Node3 -->
<g id="node3" class="node"><title>Node3</title>
<g id="a_node3"><a xlink:href="class_byte_reader.html#ae570748805994596f51ae033183935d7" target="_top" xlink:title="ByteReader::byteCatch">
<polygon fill="white" stroke="black" points="300,-50 300,-69 419,-69 419,-50 300,-50"/>
<text text-anchor="middle" x="359.5" y="-57" font-family="Helvetica,sans-Serif" font-size="10.00">ByteReader::byteCatch</text>
</a>
</g>
</g>
<!-- Node2&#45;&gt;Node3 -->
<g id="edge2" class="edge"><title>Node2&#45;&gt;Node3</title>
<path fill="none" stroke="midnightblue" d="M264.059,-44.7646C272.394,-46.065 281.234,-47.4444 290.033,-48.8172"/>
<polygon fill="midnightblue" stroke="midnightblue" points="289.499,-52.2762 299.919,-50.3598 290.579,-45.3599 289.499,-52.2762"/>
</g>
<!-- Node4 -->
<g id="node4" class="node"><title>Node4</title>
<g id="a_node4"><a xlink:href="struct_cp_attribute_interface.html#a99cabbc15a0af5273a6d324dfbc78f41" target="_top" xlink:title="CpAttributeInterface\l::getUTF8">
<polygon fill="white" stroke="black" points="307.5,-0.5 307.5,-30.5 411.5,-30.5 411.5,-0.5 307.5,-0.5"/>
<text text-anchor="start" x="315.5" y="-18.5" font-family="Helvetica,sans-Serif" font-size="10.00">CpAttributeInterface</text>
<text text-anchor="middle" x="359.5" y="-7.5" font-family="Helvetica,sans-Serif" font-size="10.00">::getUTF8</text>
</a>
</g>
</g>
<!-- Node2&#45;&gt;Node4 -->
<g id="edge3" class="edge"><title>Node2&#45;&gt;Node4</title>
<path fill="none" stroke="midnightblue" d="M264.059,-30.2354C274.623,-28.5872 286,-26.8121 297.073,-25.0843"/>
<polygon fill="midnightblue" stroke="midnightblue" points="297.784,-28.5158 307.125,-23.5159 296.705,-21.5995 297.784,-28.5158"/>
</g>
</g>
</svg>
