<?xml version="1.0" encoding="UTF-8" standalone="no"?>
<!DOCTYPE svg PUBLIC "-//W3C//DTD SVG 1.1//EN"
 "http://www.w3.org/Graphics/SVG/1.1/DTD/svg11.dtd">
<!-- Generated by graphviz version 2.38.0 (20140413.2041)
 -->
<!-- Title: InstructionImpl::lastore Pages: 1 -->
<svg width="378pt" height="66pt"
 viewBox="0.00 0.00 378.00 66.00" xmlns="http://www.w3.org/2000/svg" xmlns:xlink="http://www.w3.org/1999/xlink">
<g id="graph0" class="graph" transform="scale(1 1) rotate(0) translate(4 62)">
<title>InstructionImpl::lastore</title>
<polygon fill="white" stroke="none" points="-4,4 -4,-62 374,-62 374,4 -4,4"/>
<!-- Node1 -->
<g id="node1" class="node"><title>Node1</title>
<polygon fill="#bfbfbf" stroke="black" points="0,-19.5 0,-38.5 116,-38.5 116,-19.5 0,-19.5"/>
<text text-anchor="middle" x="58" y="-26.5" font-family="Helvetica,sans-Serif" font-size="10.00">InstructionImpl::lastore</text>
</g>
<!-- Node2 -->
<g id="node2" class="node"><title>Node2</title>
<g id="a_node2"><a xlink:href="class_instruction.html#a145a172552303c9cbd8a5856e31a701b" target="_top" xlink:title="Instruction::init">
<polygon fill="white" stroke="black" points="152,-19.5 152,-38.5 233,-38.5 233,-19.5 152,-19.5"/>
<text text-anchor="middle" x="192.5" y="-26.5" font-family="Helvetica,sans-Serif" font-size="10.00">Instruction::init</text>
</a>
</g>
</g>
<!-- Node1&#45;&gt;Node2 -->
<g id="edge1" class="edge"><title>Node1&#45;&gt;Node2</title>
<path fill="none" stroke="midnightblue" d="M126.435,-29C135.05,-29 143.637,-29 151.615,-29"/>
<polygon fill="midnightblue" stroke="midnightblue" points="126.346,-25.5001 116.346,-29 126.346,-32.5001 126.346,-25.5001"/>
</g>
<!-- Node3 -->
<g id="node3" class="node"><title>Node3</title>
<g id="a_node3"><a xlink:href="class_code_attribute.html#a380eb04a01b0a0db351cf74443067ba4" target="_top" xlink:title="CodeAttribute::print">
<polygon fill="white" stroke="black" points="269,-38.5 269,-57.5 370,-57.5 370,-38.5 269,-38.5"/>
<text text-anchor="middle" x="319.5" y="-45.5" font-family="Helvetica,sans-Serif" font-size="10.00">CodeAttribute::print</text>
</a>
</g>
</g>
<!-- Node2&#45;&gt;Node3 -->
<g id="edge2" class="edge"><title>Node2&#45;&gt;Node3</title>
<path fill="none" stroke="midnightblue" d="M243.099,-36.539C251.505,-37.8167 260.236,-39.1438 268.648,-40.4224"/>
<polygon fill="midnightblue" stroke="midnightblue" points="243.463,-33.0543 233.051,-35.0117 242.411,-39.9748 243.463,-33.0543"/>
</g>
<!-- Node4 -->
<g id="node4" class="node"><title>Node4</title>
<g id="a_node4"><a xlink:href="struct_frame.html#abe0b370087d05267cab997ecdc78c4bd" target="_top" xlink:title="Frame::Frame">
<polygon fill="white" stroke="black" points="280.5,-0.5 280.5,-19.5 358.5,-19.5 358.5,-0.5 280.5,-0.5"/>
<text text-anchor="middle" x="319.5" y="-7.5" font-family="Helvetica,sans-Serif" font-size="10.00">Frame::Frame</text>
</a>
</g>
</g>
<!-- Node2&#45;&gt;Node4 -->
<g id="edge3" class="edge"><title>Node2&#45;&gt;Node4</title>
<path fill="none" stroke="midnightblue" d="M243.257,-21.437C255.657,-19.5522 268.755,-17.5612 280.487,-15.778"/>
<polygon fill="midnightblue" stroke="midnightblue" points="242.411,-18.0252 233.051,-22.9883 243.463,-24.9457 242.411,-18.0252"/>
</g>
</g>
</svg>
