<?xml version="1.0" encoding="UTF-8" standalone="no"?>
<!DOCTYPE svg PUBLIC "-//W3C//DTD SVG 1.1//EN"
 "http://www.w3.org/Graphics/SVG/1.1/DTD/svg11.dtd">
<!-- Generated by graphviz version 2.38.0 (20140413.2041)
 -->
<!-- Title: InstructionImpl::invokestatic Pages: 1 -->
<svg width="989pt" height="268pt"
 viewBox="0.00 0.00 989.00 268.00" xmlns="http://www.w3.org/2000/svg" xmlns:xlink="http://www.w3.org/1999/xlink">
<g id="graph0" class="graph" transform="scale(1 1) rotate(0) translate(4 264)">
<title>InstructionImpl::invokestatic</title>
<polygon fill="white" stroke="none" points="-4,4 -4,-264 985,-264 985,4 -4,4"/>
<!-- Node1 -->
<g id="node1" class="node"><title>Node1</title>
<polygon fill="#bfbfbf" stroke="black" points="0,-143.5 0,-162.5 140,-162.5 140,-143.5 0,-143.5"/>
<text text-anchor="middle" x="70" y="-150.5" font-family="Helvetica,sans-Serif" font-size="10.00">InstructionImpl::invokestatic</text>
</g>
<!-- Node2 -->
<g id="node2" class="node"><title>Node2</title>
<g id="a_node2"><a xlink:href="struct_cp_attribute_interface.html#a99cabbc15a0af5273a6d324dfbc78f41" target="_top" xlink:title="CpAttributeInterface\l::getUTF8">
<polygon fill="white" stroke="black" points="359,-115 359,-145 463,-145 463,-115 359,-115"/>
<text text-anchor="start" x="367" y="-133" font-family="Helvetica,sans-Serif" font-size="10.00">CpAttributeInterface</text>
<text text-anchor="middle" x="411" y="-122" font-family="Helvetica,sans-Serif" font-size="10.00">::getUTF8</text>
</a>
</g>
</g>
<!-- Node1&#45;&gt;Node2 -->
<g id="edge1" class="edge"><title>Node1&#45;&gt;Node2</title>
<path fill="none" stroke="midnightblue" d="M140.01,-148.318C201.19,-144.167 289.706,-138.162 348.504,-134.172"/>
<polygon fill="midnightblue" stroke="midnightblue" points="349.021,-137.645 358.761,-133.476 348.547,-130.661 349.021,-137.645"/>
</g>
<!-- Node3 -->
<g id="node3" class="node"><title>Node3</title>
<g id="a_node3"><a xlink:href="class_interpreter.html#a8ff3509dcc0f48200724b8ae04467495" target="_top" xlink:title="Interpreter::createType">
<polygon fill="white" stroke="black" points="181.5,-202.5 181.5,-221.5 297.5,-221.5 297.5,-202.5 181.5,-202.5"/>
<text text-anchor="middle" x="239.5" y="-209.5" font-family="Helvetica,sans-Serif" font-size="10.00">Interpreter::createType</text>
</a>
</g>
</g>
<!-- Node1&#45;&gt;Node3 -->
<g id="edge2" class="edge"><title>Node1&#45;&gt;Node3</title>
<path fill="none" stroke="midnightblue" d="M98.2846,-162.611C126.474,-172.54 170.639,-188.097 201.86,-199.094"/>
<polygon fill="midnightblue" stroke="midnightblue" points="200.91,-202.47 211.505,-202.491 203.236,-195.868 200.91,-202.47"/>
</g>
<!-- Node7 -->
<g id="node7" class="node"><title>Node7</title>
<g id="a_node7"><a xlink:href="class_class_loader.html#a8f3dc8367a76e7a4594bd5e8206d3977" target="_top" xlink:title="ClassLoader::getConstPool">
<polygon fill="white" stroke="black" points="844,-164.5 844,-183.5 981,-183.5 981,-164.5 844,-164.5"/>
<text text-anchor="middle" x="912.5" y="-171.5" font-family="Helvetica,sans-Serif" font-size="10.00">ClassLoader::getConstPool</text>
</a>
</g>
</g>
<!-- Node1&#45;&gt;Node7 -->
<g id="edge14" class="edge"><title>Node1&#45;&gt;Node7</title>
<path fill="none" stroke="midnightblue" d="M140.069,-159.789C208.517,-165.925 316.39,-174 410,-174 410,-174 410,-174 584,-174 669.273,-174 767.035,-174 833.386,-174"/>
<polygon fill="midnightblue" stroke="midnightblue" points="833.759,-177.5 843.759,-174 833.759,-170.5 833.759,-177.5"/>
</g>
<!-- Node8 -->
<g id="node8" class="node"><title>Node8</title>
<g id="a_node8"><a xlink:href="class_interpreter.html#a16752843b70549dac6ed661365e95ae3" target="_top" xlink:title="Busca um metodo pelo seu descritor ou nome e o retorna. ">
<polygon fill="white" stroke="black" points="176,-71 176,-101 303,-101 303,-71 176,-71"/>
<text text-anchor="start" x="184" y="-89" font-family="Helvetica,sans-Serif" font-size="10.00">Interpreter::findMethodBy</text>
<text text-anchor="middle" x="239.5" y="-78" font-family="Helvetica,sans-Serif" font-size="10.00">NameOrDescriptor</text>
</a>
</g>
</g>
<!-- Node1&#45;&gt;Node8 -->
<g id="edge8" class="edge"><title>Node1&#45;&gt;Node8</title>
<path fill="none" stroke="midnightblue" d="M94.9987,-143.401C120.084,-133.366 160.093,-117.363 191.501,-104.8"/>
<polygon fill="midnightblue" stroke="midnightblue" points="192.961,-107.985 200.946,-101.022 190.361,-101.486 192.961,-107.985"/>
</g>
<!-- Node4 -->
<g id="node4" class="node"><title>Node4</title>
<g id="a_node4"><a xlink:href="class_interpreter.html#a99a623bb05c66632d0ab034ebaf2cf51" target="_top" xlink:title="Interpreter::getClassInfo">
<polygon fill="white" stroke="black" points="350,-202.5 350,-221.5 472,-221.5 472,-202.5 350,-202.5"/>
<text text-anchor="middle" x="411" y="-209.5" font-family="Helvetica,sans-Serif" font-size="10.00">Interpreter::getClassInfo</text>
</a>
</g>
</g>
<!-- Node3&#45;&gt;Node4 -->
<g id="edge3" class="edge"><title>Node3&#45;&gt;Node4</title>
<path fill="none" stroke="midnightblue" d="M297.885,-212C311.332,-212 325.809,-212 339.747,-212"/>
<polygon fill="midnightblue" stroke="midnightblue" points="339.778,-215.5 349.778,-212 339.778,-208.5 339.778,-215.5"/>
</g>
<!-- Node5 -->
<g id="node5" class="node"><title>Node5</title>
<g id="a_node5"><a xlink:href="class_interpreter.html#ab8fa17a7a73d119f3a3113555aef9702" target="_top" xlink:title="Interpreter::loadInMemo">
<polygon fill="white" stroke="black" points="523,-240.5 523,-259.5 643,-259.5 643,-240.5 523,-240.5"/>
<text text-anchor="middle" x="583" y="-247.5" font-family="Helvetica,sans-Serif" font-size="10.00">Interpreter::loadInMemo</text>
</a>
</g>
</g>
<!-- Node4&#45;&gt;Node5 -->
<g id="edge4" class="edge"><title>Node4&#45;&gt;Node5</title>
<path fill="none" stroke="midnightblue" d="M454.898,-221.589C477.534,-226.649 505.498,-232.9 529.429,-238.249"/>
<polygon fill="midnightblue" stroke="midnightblue" points="528.888,-241.714 539.41,-240.48 530.415,-234.883 528.888,-241.714"/>
</g>
<!-- Node6 -->
<g id="node6" class="node"><title>Node6</title>
<g id="a_node6"><a xlink:href="class_interpreter.html#a39a3745e54aa3cee8882075c96ae8b3f" target="_top" xlink:title="Interpreter::loadVariables">
<polygon fill="white" stroke="black" points="683,-202.5 683,-221.5 808,-221.5 808,-202.5 683,-202.5"/>
<text text-anchor="middle" x="745.5" y="-209.5" font-family="Helvetica,sans-Serif" font-size="10.00">Interpreter::loadVariables</text>
</a>
</g>
</g>
<!-- Node5&#45;&gt;Node6 -->
<g id="edge5" class="edge"><title>Node5&#45;&gt;Node6</title>
<path fill="none" stroke="midnightblue" d="M624.501,-240.411C645.681,-235.396 671.802,-229.212 694.26,-223.895"/>
<polygon fill="midnightblue" stroke="midnightblue" points="695.366,-227.23 704.29,-221.52 693.753,-220.418 695.366,-227.23"/>
</g>
<!-- Node6&#45;&gt;Node4 -->
<g id="edge7" class="edge"><title>Node6&#45;&gt;Node4</title>
<path fill="none" stroke="midnightblue" d="M682.764,-212C625.922,-212 541.66,-212 482.262,-212"/>
<polygon fill="midnightblue" stroke="midnightblue" points="482.213,-208.5 472.213,-212 482.213,-215.5 482.213,-208.5"/>
</g>
<!-- Node6&#45;&gt;Node7 -->
<g id="edge6" class="edge"><title>Node6&#45;&gt;Node7</title>
<path fill="none" stroke="midnightblue" d="M788.136,-202.411C810.008,-197.374 837.006,-191.156 860.164,-185.823"/>
<polygon fill="midnightblue" stroke="midnightblue" points="861.204,-189.175 870.163,-183.52 859.633,-182.354 861.204,-189.175"/>
</g>
<!-- Node8&#45;&gt;Node2 -->
<g id="edge13" class="edge"><title>Node8&#45;&gt;Node2</title>
<path fill="none" stroke="midnightblue" d="M298.358,-101.019C314.639,-105.246 332.398,-109.855 348.864,-114.13"/>
<polygon fill="midnightblue" stroke="midnightblue" points="348.366,-117.617 358.924,-116.741 350.125,-110.841 348.366,-117.617"/>
</g>
<!-- Node8&#45;&gt;Node7 -->
<g id="edge10" class="edge"><title>Node8&#45;&gt;Node7</title>
<path fill="none" stroke="midnightblue" d="M303.191,-89.5051C352.236,-92.5868 422.095,-97.7226 483,-105 614.795,-120.748 768.1,-147.494 850.91,-162.646"/>
<polygon fill="midnightblue" stroke="midnightblue" points="850.43,-166.116 860.898,-164.479 851.694,-159.231 850.43,-166.116"/>
</g>
<!-- Node9 -->
<g id="node9" class="node"><title>Node9</title>
<g id="a_node9"><a xlink:href="class_class_loader.html#ad4733587ddbe1ae25500c13181bfb5ca" target="_top" xlink:title="ClassLoader::getMethods">
<polygon fill="white" stroke="black" points="519,-19.5 519,-38.5 647,-38.5 647,-19.5 519,-19.5"/>
<text text-anchor="middle" x="583" y="-26.5" font-family="Helvetica,sans-Serif" font-size="10.00">ClassLoader::getMethods</text>
</a>
</g>
</g>
<!-- Node8&#45;&gt;Node9 -->
<g id="edge9" class="edge"><title>Node8&#45;&gt;Node9</title>
<path fill="none" stroke="midnightblue" d="M303.136,-75.5453C363.146,-65.529 453.422,-50.4611 514.884,-40.2024"/>
<polygon fill="midnightblue" stroke="midnightblue" points="515.583,-43.6342 524.871,-38.5355 514.431,-36.7297 515.583,-43.6342"/>
</g>
<!-- Node10 -->
<g id="node10" class="node"><title>Node10</title>
<g id="a_node10"><a xlink:href="class_class_loader.html#acad870c7b405146242912190e1e71f7c" target="_top" xlink:title="ClassLoader::getMethoCount">
<polygon fill="white" stroke="black" points="339,-0.5 339,-19.5 483,-19.5 483,-0.5 339,-0.5"/>
<text text-anchor="middle" x="411" y="-7.5" font-family="Helvetica,sans-Serif" font-size="10.00">ClassLoader::getMethoCount</text>
</a>
</g>
</g>
<!-- Node8&#45;&gt;Node10 -->
<g id="edge11" class="edge"><title>Node8&#45;&gt;Node10</title>
<path fill="none" stroke="midnightblue" d="M266.282,-70.9307C285.836,-59.8633 313.594,-44.9172 339,-34 348.414,-29.9546 358.755,-26.127 368.562,-22.766"/>
<polygon fill="midnightblue" stroke="midnightblue" points="369.759,-26.0563 378.136,-19.5698 367.542,-19.4165 369.759,-26.0563"/>
</g>
<!-- Node10&#45;&gt;Node9 -->
<g id="edge12" class="edge"><title>Node10&#45;&gt;Node9</title>
<path fill="none" stroke="midnightblue" d="M483.11,-17.9476C491.519,-18.8875 500.115,-19.8481 508.555,-20.7915"/>
<polygon fill="midnightblue" stroke="midnightblue" points="508.424,-24.2985 518.751,-21.931 509.202,-17.3418 508.424,-24.2985"/>
</g>
</g>
</svg>
