<?xml version="1.0" encoding="UTF-8" standalone="no"?>
<!DOCTYPE svg PUBLIC "-//W3C//DTD SVG 1.1//EN"
 "http://www.w3.org/Graphics/SVG/1.1/DTD/svg11.dtd">
<!-- Generated by graphviz version 2.38.0 (20140413.2041)
 -->
<!-- Title: Interpreter::loadVariables Pages: 1 -->
<svg width="1051pt" height="556pt"
 viewBox="0.00 0.00 1051.00 555.98" xmlns="http://www.w3.org/2000/svg" xmlns:xlink="http://www.w3.org/1999/xlink">
<g id="graph0" class="graph" transform="scale(1 1) rotate(0) translate(4 551.98)">
<title>Interpreter::loadVariables</title>
<polygon fill="white" stroke="none" points="-4,4 -4,-551.98 1047,-551.98 1047,4 -4,4"/>
<!-- Node1 -->
<g id="node1" class="node"><title>Node1</title>
<polygon fill="#bfbfbf" stroke="black" points="0,-209.5 0,-228.5 125,-228.5 125,-209.5 0,-209.5"/>
<text text-anchor="middle" x="62.5" y="-216.5" font-family="Helvetica,sans-Serif" font-size="10.00">Interpreter::loadVariables</text>
</g>
<!-- Node2 -->
<g id="node2" class="node"><title>Node2</title>
<g id="a_node2"><a xlink:href="class_instruction_impl.html#ae794ec480c5cd8809d1215aa9442501b" target="_top" xlink:title="InstructionImpl::invokespecial">
<polygon fill="white" stroke="black" points="639.5,-38.5 639.5,-57.5 785.5,-57.5 785.5,-38.5 639.5,-38.5"/>
<text text-anchor="middle" x="712.5" y="-45.5" font-family="Helvetica,sans-Serif" font-size="10.00">InstructionImpl::invokespecial</text>
</a>
</g>
</g>
<!-- Node1&#45;&gt;Node2 -->
<g id="edge1" class="edge"><title>Node1&#45;&gt;Node2</title>
<path fill="none" stroke="midnightblue" d="M108.704,-206.785C205.363,-180.712 439.356,-117.846 636,-67 648.039,-63.8871 661.176,-60.5577 673.067,-57.5695"/>
<polygon fill="midnightblue" stroke="midnightblue" points="107.709,-203.428 98.9659,-209.412 109.532,-210.186 107.709,-203.428"/>
</g>
<!-- Node6 -->
<g id="node6" class="node"><title>Node6</title>
<g id="a_node6"><a xlink:href="class_interpreter.html#ab8fa17a7a73d119f3a3113555aef9702" target="_top" xlink:title="Interpreter::loadInMemo">
<polygon fill="white" stroke="black" points="161,-209.5 161,-228.5 281,-228.5 281,-209.5 161,-209.5"/>
<text text-anchor="middle" x="221" y="-216.5" font-family="Helvetica,sans-Serif" font-size="10.00">Interpreter::loadInMemo</text>
</a>
</g>
</g>
<!-- Node1&#45;&gt;Node6 -->
<g id="edge5" class="edge"><title>Node1&#45;&gt;Node6</title>
<path fill="none" stroke="midnightblue" d="M135.605,-219C144.071,-219 152.634,-219 160.893,-219"/>
<polygon fill="midnightblue" stroke="midnightblue" points="135.353,-215.5 125.353,-219 135.353,-222.5 135.353,-215.5"/>
</g>
<!-- Node3 -->
<g id="node3" class="node"><title>Node3</title>
<g id="a_node3"><a xlink:href="class_instruction.html#a145a172552303c9cbd8a5856e31a701b" target="_top" xlink:title="Instruction::init">
<polygon fill="white" stroke="black" points="825,-285.5 825,-304.5 906,-304.5 906,-285.5 825,-285.5"/>
<text text-anchor="middle" x="865.5" y="-292.5" font-family="Helvetica,sans-Serif" font-size="10.00">Instruction::init</text>
</a>
</g>
</g>
<!-- Node2&#45;&gt;Node3 -->
<g id="edge2" class="edge"><title>Node2&#45;&gt;Node3</title>
<path fill="none" stroke="midnightblue" d="M783.624,-62.6551C785.511,-63.985 787.311,-65.4301 789,-67 855.281,-128.596 863.443,-249.59 864.392,-285.026"/>
<polygon fill="midnightblue" stroke="midnightblue" points="785.253,-59.5535 774.853,-57.5322 781.722,-65.598 785.253,-59.5535"/>
</g>
<!-- Node4 -->
<g id="node4" class="node"><title>Node4</title>
<g id="a_node4"><a xlink:href="class_code_attribute.html#a380eb04a01b0a0db351cf74443067ba4" target="_top" xlink:title="CodeAttribute::print">
<polygon fill="white" stroke="black" points="942,-304.5 942,-323.5 1043,-323.5 1043,-304.5 942,-304.5"/>
<text text-anchor="middle" x="992.5" y="-311.5" font-family="Helvetica,sans-Serif" font-size="10.00">CodeAttribute::print</text>
</a>
</g>
</g>
<!-- Node3&#45;&gt;Node4 -->
<g id="edge3" class="edge"><title>Node3&#45;&gt;Node4</title>
<path fill="none" stroke="midnightblue" d="M916.099,-302.539C924.505,-303.817 933.236,-305.144 941.648,-306.422"/>
<polygon fill="midnightblue" stroke="midnightblue" points="916.463,-299.054 906.051,-301.012 915.411,-305.975 916.463,-299.054"/>
</g>
<!-- Node5 -->
<g id="node5" class="node"><title>Node5</title>
<g id="a_node5"><a xlink:href="struct_frame.html#abe0b370087d05267cab997ecdc78c4bd" target="_top" xlink:title="Frame::Frame">
<polygon fill="white" stroke="black" points="953.5,-266.5 953.5,-285.5 1031.5,-285.5 1031.5,-266.5 953.5,-266.5"/>
<text text-anchor="middle" x="992.5" y="-273.5" font-family="Helvetica,sans-Serif" font-size="10.00">Frame::Frame</text>
</a>
</g>
</g>
<!-- Node3&#45;&gt;Node5 -->
<g id="edge4" class="edge"><title>Node3&#45;&gt;Node5</title>
<path fill="none" stroke="midnightblue" d="M916.257,-287.437C928.657,-285.552 941.755,-283.561 953.487,-281.778"/>
<polygon fill="midnightblue" stroke="midnightblue" points="915.411,-284.025 906.051,-288.988 916.463,-290.946 915.411,-284.025"/>
</g>
<!-- Node7 -->
<g id="node7" class="node"><title>Node7</title>
<g id="a_node7"><a xlink:href="class_interpreter.html#aaa34fcc8ece810597cd2fea359b65220" target="_top" xlink:title="Interpreter::execute">
<polygon fill="white" stroke="black" points="327.5,-209.5 327.5,-228.5 428.5,-228.5 428.5,-209.5 327.5,-209.5"/>
<text text-anchor="middle" x="378" y="-216.5" font-family="Helvetica,sans-Serif" font-size="10.00">Interpreter::execute</text>
</a>
</g>
</g>
<!-- Node6&#45;&gt;Node7 -->
<g id="edge6" class="edge"><title>Node6&#45;&gt;Node7</title>
<path fill="none" stroke="midnightblue" d="M291.153,-219C303.3,-219 315.724,-219 327.212,-219"/>
<polygon fill="midnightblue" stroke="midnightblue" points="291.041,-215.5 281.041,-219 291.041,-222.5 291.041,-215.5"/>
</g>
<!-- Node10 -->
<g id="node10" class="node"><title>Node10</title>
<g id="a_node10"><a xlink:href="class_interpreter.html#a99a623bb05c66632d0ab034ebaf2cf51" target="_top" xlink:title="Interpreter::getClassInfo">
<polygon fill="white" stroke="black" points="317,-247.5 317,-266.5 439,-266.5 439,-247.5 317,-247.5"/>
<text text-anchor="middle" x="378" y="-254.5" font-family="Helvetica,sans-Serif" font-size="10.00">Interpreter::getClassInfo</text>
</a>
</g>
</g>
<!-- Node6&#45;&gt;Node10 -->
<g id="edge9" class="edge"><title>Node6&#45;&gt;Node10</title>
<path fill="none" stroke="midnightblue" d="M271.111,-231.04C292.765,-236.349 317.85,-242.499 338.168,-247.48"/>
<polygon fill="midnightblue" stroke="midnightblue" points="271.659,-227.571 261.113,-228.589 269.992,-234.37 271.659,-227.571"/>
</g>
<!-- Node8 -->
<g id="node8" class="node"><title>Node8</title>
<g id="a_node8"><a xlink:href="jvm_8cpp.html#a4f4a24852257f7259f906828eec5c11c" target="_top" xlink:title="Chama o interpretador para classloader. ">
<polygon fill="white" stroke="black" points="495.5,-209.5 495.5,-228.5 579.5,-228.5 579.5,-209.5 495.5,-209.5"/>
<text text-anchor="middle" x="537.5" y="-216.5" font-family="Helvetica,sans-Serif" font-size="10.00">classInterpreter</text>
</a>
</g>
</g>
<!-- Node7&#45;&gt;Node8 -->
<g id="edge7" class="edge"><title>Node7&#45;&gt;Node8</title>
<path fill="none" stroke="midnightblue" d="M438.841,-219C457.729,-219 478.159,-219 495.427,-219"/>
<polygon fill="midnightblue" stroke="midnightblue" points="438.834,-215.5 428.834,-219 438.834,-222.5 438.834,-215.5"/>
</g>
<!-- Node9 -->
<g id="node9" class="node"><title>Node9</title>
<g id="a_node9"><a xlink:href="jvm_8cpp.html#a0ddf1224851353fc92bfbff6f499fa97" target="_top" xlink:title="Função main. ">
<polygon fill="white" stroke="black" points="693.5,-0.5 693.5,-19.5 731.5,-19.5 731.5,-0.5 693.5,-0.5"/>
<text text-anchor="middle" x="712.5" y="-7.5" font-family="Helvetica,sans-Serif" font-size="10.00">main</text>
</a>
</g>
</g>
<!-- Node8&#45;&gt;Node9 -->
<g id="edge8" class="edge"><title>Node8&#45;&gt;Node9</title>
<path fill="none" stroke="midnightblue" d="M542.863,-199.305C552.52,-160.479 579.47,-73.9346 636,-29 652.506,-15.8797 676.931,-11.6943 693.495,-10.4265"/>
<polygon fill="midnightblue" stroke="midnightblue" points="539.389,-198.785 540.497,-209.322 546.202,-200.395 539.389,-198.785"/>
</g>
<!-- Node10&#45;&gt;Node1 -->
<g id="edge38" class="edge"><title>Node10&#45;&gt;Node1</title>
<path fill="none" stroke="midnightblue" d="M306.551,-252.675C264.231,-249.612 209.383,-244.823 161,-238 143.411,-235.52 124.193,-231.959 107.503,-228.59"/>
<polygon fill="midnightblue" stroke="midnightblue" points="306.53,-256.182 316.752,-253.397 307.025,-249.199 306.53,-256.182"/>
</g>
<!-- Node11 -->
<g id="node11" class="node"><title>Node11</title>
<g id="a_node11"><a xlink:href="class_instruction_impl.html#af10750df1ad4bf72ac80445dbbec068b" target="_top" xlink:title="InstructionImpl::getstatic">
<polygon fill="white" stroke="black" points="475,-418.5 475,-437.5 600,-437.5 600,-418.5 475,-418.5"/>
<text text-anchor="middle" x="537.5" y="-425.5" font-family="Helvetica,sans-Serif" font-size="10.00">InstructionImpl::getstatic</text>
</a>
</g>
</g>
<!-- Node10&#45;&gt;Node11 -->
<g id="edge10" class="edge"><title>Node10&#45;&gt;Node11</title>
<path fill="none" stroke="midnightblue" d="M394.983,-274.353C427.863,-310.051 502.138,-390.693 527.679,-418.423"/>
<polygon fill="midnightblue" stroke="midnightblue" points="397.268,-271.668 387.919,-266.684 392.12,-276.41 397.268,-271.668"/>
</g>
<!-- Node12 -->
<g id="node12" class="node"><title>Node12</title>
<g id="a_node12"><a xlink:href="class_interpreter.html#a8ff3509dcc0f48200724b8ae04467495" target="_top" xlink:title="Interpreter::createType">
<polygon fill="white" stroke="black" points="479.5,-247.5 479.5,-266.5 595.5,-266.5 595.5,-247.5 479.5,-247.5"/>
<text text-anchor="middle" x="537.5" y="-254.5" font-family="Helvetica,sans-Serif" font-size="10.00">Interpreter::createType</text>
</a>
</g>
</g>
<!-- Node10&#45;&gt;Node12 -->
<g id="edge12" class="edge"><title>Node10&#45;&gt;Node12</title>
<path fill="none" stroke="midnightblue" d="M449.69,-257C459.609,-257 469.7,-257 479.326,-257"/>
<polygon fill="midnightblue" stroke="midnightblue" points="449.443,-253.5 439.443,-257 449.443,-260.5 449.443,-253.5"/>
</g>
<!-- Node11&#45;&gt;Node3 -->
<g id="edge11" class="edge"><title>Node11&#45;&gt;Node3</title>
<path fill="none" stroke="midnightblue" d="M550.37,-446.22C566.545,-469.179 597.901,-507.508 636,-523 698.991,-548.614 733.875,-562.815 789,-523 863.027,-469.533 865.651,-340.688 864.864,-304.561"/>
<polygon fill="midnightblue" stroke="midnightblue" points="553.093,-444 544.571,-437.705 547.308,-447.941 553.093,-444"/>
</g>
<!-- Node12&#45;&gt;Node2 -->
<g id="edge13" class="edge"><title>Node12&#45;&gt;Node2</title>
<path fill="none" stroke="midnightblue" d="M596.093,-241.731C597.476,-240.575 598.783,-239.334 600,-238 652.331,-180.611 582.164,-122.98 636,-67 639.654,-63.2005 643.947,-60.1178 648.599,-57.6215"/>
<polygon fill="midnightblue" stroke="midnightblue" points="593.869,-239.005 587.466,-247.446 597.735,-244.841 593.869,-239.005"/>
</g>
<!-- Node13 -->
<g id="node13" class="node"><title>Node13</title>
<g id="a_node13"><a xlink:href="class_instruction_impl.html#a3d197a31eaa6bc79b6d882b0ac9f1a67" target="_top" xlink:title="InstructionImpl::invokevirtual">
<polygon fill="white" stroke="black" points="641.5,-76.5 641.5,-95.5 783.5,-95.5 783.5,-76.5 641.5,-76.5"/>
<text text-anchor="middle" x="712.5" y="-83.5" font-family="Helvetica,sans-Serif" font-size="10.00">InstructionImpl::invokevirtual</text>
</a>
</g>
</g>
<!-- Node12&#45;&gt;Node13 -->
<g id="edge14" class="edge"><title>Node12&#45;&gt;Node13</title>
<path fill="none" stroke="midnightblue" d="M595.508,-242.021C597.098,-240.785 598.603,-239.447 600,-238 642.531,-193.941 592.314,-147.915 636,-105 639.857,-101.211 644.352,-98.1425 649.191,-95.6614"/>
<polygon fill="midnightblue" stroke="midnightblue" points="593.555,-239.115 586.946,-247.397 597.277,-245.043 593.555,-239.115"/>
</g>
<!-- Node14 -->
<g id="node14" class="node"><title>Node14</title>
<g id="a_node14"><a xlink:href="class_instruction_impl.html#a1d155354287a5fa501cce5c39c341abc" target="_top" xlink:title="InstructionImpl::invokestatic">
<polygon fill="white" stroke="black" points="642.5,-494.5 642.5,-513.5 782.5,-513.5 782.5,-494.5 642.5,-494.5"/>
<text text-anchor="middle" x="712.5" y="-501.5" font-family="Helvetica,sans-Serif" font-size="10.00">InstructionImpl::invokestatic</text>
</a>
</g>
</g>
<!-- Node12&#45;&gt;Node14 -->
<g id="edge16" class="edge"><title>Node12&#45;&gt;Node14</title>
<path fill="none" stroke="midnightblue" d="M546.124,-276.086C567.57,-329.602 627.424,-477.679 636,-485 640.523,-488.861 645.722,-491.957 651.23,-494.435"/>
<polygon fill="midnightblue" stroke="midnightblue" points="549.338,-274.697 542.373,-266.713 542.839,-277.298 549.338,-274.697"/>
</g>
<!-- Node15 -->
<g id="node15" class="node"><title>Node15</title>
<g id="a_node15"><a xlink:href="class_instruction_impl.html#a612a030680b27c4dc97e6feec3abd9d5" target="_top" xlink:title="InstructionImpl::new_obj">
<polygon fill="white" stroke="black" points="651,-456.5 651,-475.5 774,-475.5 774,-456.5 651,-456.5"/>
<text text-anchor="middle" x="712.5" y="-463.5" font-family="Helvetica,sans-Serif" font-size="10.00">InstructionImpl::new_obj</text>
</a>
</g>
</g>
<!-- Node12&#45;&gt;Node15 -->
<g id="edge18" class="edge"><title>Node12&#45;&gt;Node15</title>
<path fill="none" stroke="midnightblue" d="M542.863,-276.695C552.52,-315.521 579.47,-402.065 636,-447 640.867,-450.869 646.423,-453.961 652.263,-456.43"/>
<polygon fill="midnightblue" stroke="midnightblue" points="546.202,-275.605 540.497,-266.678 539.389,-277.215 546.202,-275.605"/>
</g>
<!-- Node16 -->
<g id="node16" class="node"><title>Node16</title>
<g id="a_node16"><a xlink:href="class_instruction_impl.html#a87ff225e6ed77e1a956d3c6a572e5352" target="_top" xlink:title="InstructionImpl::invokeinterface">
<polygon fill="white" stroke="black" points="636,-418.5 636,-437.5 789,-437.5 789,-418.5 636,-418.5"/>
<text text-anchor="middle" x="712.5" y="-425.5" font-family="Helvetica,sans-Serif" font-size="10.00">InstructionImpl::invokeinterface</text>
</a>
</g>
</g>
<!-- Node12&#45;&gt;Node16 -->
<g id="edge20" class="edge"><title>Node12&#45;&gt;Node16</title>
<path fill="none" stroke="midnightblue" d="M545.401,-276.31C558.07,-308.902 588.207,-374.628 636,-409 641.377,-412.867 647.461,-415.95 653.786,-418.407"/>
<polygon fill="midnightblue" stroke="midnightblue" points="548.557,-274.759 541.773,-266.62 542.001,-277.213 548.557,-274.759"/>
</g>
<!-- Node17 -->
<g id="node17" class="node"><title>Node17</title>
<g id="a_node17"><a xlink:href="class_instruction_impl.html#a458635a5e0a0e1599931831243861ad5" target="_top" xlink:title="InstructionImpl::ineg">
<polygon fill="white" stroke="black" points="660,-380.5 660,-399.5 765,-399.5 765,-380.5 660,-380.5"/>
<text text-anchor="middle" x="712.5" y="-387.5" font-family="Helvetica,sans-Serif" font-size="10.00">InstructionImpl::ineg</text>
</a>
</g>
</g>
<!-- Node12&#45;&gt;Node17 -->
<g id="edge22" class="edge"><title>Node12&#45;&gt;Node17</title>
<path fill="none" stroke="midnightblue" d="M549.104,-275.399C564.771,-300.885 596.548,-346.545 636,-371 643.238,-375.486 651.485,-378.915 659.808,-381.535"/>
<polygon fill="midnightblue" stroke="midnightblue" points="552.042,-273.493 543.906,-266.706 546.034,-277.085 552.042,-273.493"/>
</g>
<!-- Node18 -->
<g id="node18" class="node"><title>Node18</title>
<g id="a_node18"><a xlink:href="class_instruction_impl.html#aab88cff85d05d447ba7e29f7fa5889b4" target="_top" xlink:title="InstructionImpl::lneg">
<polygon fill="white" stroke="black" points="660,-342.5 660,-361.5 765,-361.5 765,-342.5 660,-342.5"/>
<text text-anchor="middle" x="712.5" y="-349.5" font-family="Helvetica,sans-Serif" font-size="10.00">InstructionImpl::lneg</text>
</a>
</g>
</g>
<!-- Node12&#45;&gt;Node18 -->
<g id="edge24" class="edge"><title>Node12&#45;&gt;Node18</title>
<path fill="none" stroke="midnightblue" d="M555.591,-273.991C573.951,-291.307 604.727,-317.726 636,-333 643.894,-336.856 652.647,-339.978 661.314,-342.491"/>
<polygon fill="midnightblue" stroke="midnightblue" points="557.702,-271.165 548.071,-266.749 552.846,-276.207 557.702,-271.165"/>
</g>
<!-- Node19 -->
<g id="node19" class="node"><title>Node19</title>
<g id="a_node19"><a xlink:href="class_instruction_impl.html#a4eb37fe85c3ef86ccbd90c49a60b00ab" target="_top" xlink:title="InstructionImpl::ishl">
<polygon fill="white" stroke="black" points="661.5,-304.5 661.5,-323.5 763.5,-323.5 763.5,-304.5 661.5,-304.5"/>
<text text-anchor="middle" x="712.5" y="-311.5" font-family="Helvetica,sans-Serif" font-size="10.00">InstructionImpl::ishl</text>
</a>
</g>
</g>
<!-- Node12&#45;&gt;Node19 -->
<g id="edge26" class="edge"><title>Node12&#45;&gt;Node19</title>
<path fill="none" stroke="midnightblue" d="M570.003,-270.435C588.925,-278.213 613.599,-287.847 636,-295 646.816,-298.454 658.662,-301.686 669.699,-304.472"/>
<polygon fill="midnightblue" stroke="midnightblue" points="571.253,-267.164 560.675,-266.56 568.567,-273.629 571.253,-267.164"/>
</g>
<!-- Node20 -->
<g id="node20" class="node"><title>Node20</title>
<g id="a_node20"><a xlink:href="class_instruction_impl.html#ae967a67c9b37f6c225c8443c4b85748e" target="_top" xlink:title="InstructionImpl::lshl">
<polygon fill="white" stroke="black" points="661.5,-266.5 661.5,-285.5 763.5,-285.5 763.5,-266.5 661.5,-266.5"/>
<text text-anchor="middle" x="712.5" y="-273.5" font-family="Helvetica,sans-Serif" font-size="10.00">InstructionImpl::lshl</text>
</a>
</g>
</g>
<!-- Node12&#45;&gt;Node20 -->
<g id="edge28" class="edge"><title>Node12&#45;&gt;Node20</title>
<path fill="none" stroke="midnightblue" d="M605.765,-264.387C624.285,-266.422 644.045,-268.592 661.41,-270.499"/>
<polygon fill="midnightblue" stroke="midnightblue" points="605.948,-260.887 595.626,-263.274 605.184,-267.845 605.948,-260.887"/>
</g>
<!-- Node21 -->
<g id="node21" class="node"><title>Node21</title>
<g id="a_node21"><a xlink:href="class_instruction_impl.html#ac68d41636161f33b4d65462b91264548" target="_top" xlink:title="InstructionImpl::ishr">
<polygon fill="white" stroke="black" points="661,-228.5 661,-247.5 764,-247.5 764,-228.5 661,-228.5"/>
<text text-anchor="middle" x="712.5" y="-235.5" font-family="Helvetica,sans-Serif" font-size="10.00">InstructionImpl::ishr</text>
</a>
</g>
</g>
<!-- Node12&#45;&gt;Node21 -->
<g id="edge30" class="edge"><title>Node12&#45;&gt;Node21</title>
<path fill="none" stroke="midnightblue" d="M605.67,-249.623C624.014,-247.608 643.582,-245.459 660.838,-243.564"/>
<polygon fill="midnightblue" stroke="midnightblue" points="605.184,-246.155 595.626,-250.726 605.948,-253.113 605.184,-246.155"/>
</g>
<!-- Node22 -->
<g id="node22" class="node"><title>Node22</title>
<g id="a_node22"><a xlink:href="class_instruction_impl.html#aecca1e5322ed2ae9a3cf21a7b5716f77" target="_top" xlink:title="InstructionImpl::lshr">
<polygon fill="white" stroke="black" points="661,-190.5 661,-209.5 764,-209.5 764,-190.5 661,-190.5"/>
<text text-anchor="middle" x="712.5" y="-197.5" font-family="Helvetica,sans-Serif" font-size="10.00">InstructionImpl::lshr</text>
</a>
</g>
</g>
<!-- Node12&#45;&gt;Node22 -->
<g id="edge32" class="edge"><title>Node12&#45;&gt;Node22</title>
<path fill="none" stroke="midnightblue" d="M583.015,-244.328C588.789,-242.37 594.576,-240.246 600,-238 616.715,-231.078 619.107,-225.476 636,-219 645.592,-215.323 656.143,-212.155 666.238,-209.517"/>
<polygon fill="midnightblue" stroke="midnightblue" points="581.809,-241.04 573.379,-247.459 583.971,-247.698 581.809,-241.04"/>
</g>
<!-- Node23 -->
<g id="node23" class="node"><title>Node23</title>
<g id="a_node23"><a xlink:href="class_instruction_impl.html#a23b84075b24e2a750e1d6cc6b22a9adb" target="_top" xlink:title="InstructionImpl::lushr">
<polygon fill="white" stroke="black" points="658.5,-152.5 658.5,-171.5 766.5,-171.5 766.5,-152.5 658.5,-152.5"/>
<text text-anchor="middle" x="712.5" y="-159.5" font-family="Helvetica,sans-Serif" font-size="10.00">InstructionImpl::lushr</text>
</a>
</g>
</g>
<!-- Node12&#45;&gt;Node23 -->
<g id="edge34" class="edge"><title>Node12&#45;&gt;Node23</title>
<path fill="none" stroke="midnightblue" d="M592.159,-243.095C594.914,-241.568 597.55,-239.876 600,-238 623.788,-219.782 611.736,-198.58 636,-181 642.677,-176.162 650.458,-172.552 658.439,-169.857"/>
<polygon fill="midnightblue" stroke="midnightblue" points="590.573,-239.973 583.044,-247.427 593.578,-246.296 590.573,-239.973"/>
</g>
<!-- Node24 -->
<g id="node24" class="node"><title>Node24</title>
<g id="a_node24"><a xlink:href="class_instruction_impl.html#a4b4d6991094076af98ce5a5c4a2fedfa" target="_top" xlink:title="InstructionImpl::land">
<polygon fill="white" stroke="black" points="660,-114.5 660,-133.5 765,-133.5 765,-114.5 660,-114.5"/>
<text text-anchor="middle" x="712.5" y="-121.5" font-family="Helvetica,sans-Serif" font-size="10.00">InstructionImpl::land</text>
</a>
</g>
</g>
<!-- Node12&#45;&gt;Node24 -->
<g id="edge36" class="edge"><title>Node12&#45;&gt;Node24</title>
<path fill="none" stroke="midnightblue" d="M594.58,-242.37C596.495,-241.038 598.312,-239.585 600,-238 632.911,-207.087 602.28,-173.028 636,-143 642.763,-136.977 651.158,-132.806 659.866,-129.929"/>
<polygon fill="midnightblue" stroke="midnightblue" points="592.605,-239.468 585.659,-247.468 596.078,-245.546 592.605,-239.468"/>
</g>
<!-- Node13&#45;&gt;Node3 -->
<g id="edge15" class="edge"><title>Node13&#45;&gt;Node3</title>
<path fill="none" stroke="midnightblue" d="M783.368,-100.694C785.339,-102.012 787.224,-103.444 789,-105 846.129,-155.061 860.504,-254.197 863.683,-285.378"/>
<polygon fill="midnightblue" stroke="midnightblue" points="784.687,-97.4221 774.247,-95.6169 781.282,-103.539 784.687,-97.4221"/>
</g>
<!-- Node14&#45;&gt;Node3 -->
<g id="edge17" class="edge"><title>Node14&#45;&gt;Node3</title>
<path fill="none" stroke="midnightblue" d="M783.368,-489.306C785.339,-487.988 787.224,-486.556 789,-485 846.129,-434.939 860.504,-335.803 863.683,-304.622"/>
<polygon fill="midnightblue" stroke="midnightblue" points="781.282,-486.461 774.247,-494.383 784.687,-492.578 781.282,-486.461"/>
</g>
<!-- Node15&#45;&gt;Node3 -->
<g id="edge19" class="edge"><title>Node15&#45;&gt;Node3</title>
<path fill="none" stroke="midnightblue" d="M781.773,-451.982C784.308,-450.484 786.73,-448.828 789,-447 836.955,-408.366 856.931,-331.503 862.649,-304.582"/>
<polygon fill="midnightblue" stroke="midnightblue" points="780.154,-448.878 772.789,-456.494 783.296,-455.134 780.154,-448.878"/>
</g>
<!-- Node16&#45;&gt;Node3 -->
<g id="edge21" class="edge"><title>Node16&#45;&gt;Node3</title>
<path fill="none" stroke="midnightblue" d="M779.957,-414.425C783.119,-412.815 786.156,-411.014 789,-409 827.939,-381.424 852.275,-326.874 860.935,-304.706"/>
<polygon fill="midnightblue" stroke="midnightblue" points="778.507,-411.24 770.771,-418.478 781.333,-417.644 778.507,-411.24"/>
</g>
<!-- Node17&#45;&gt;Node3 -->
<g id="edge23" class="edge"><title>Node17&#45;&gt;Node3</title>
<path fill="none" stroke="midnightblue" d="M774.879,-377.627C779.79,-375.722 784.562,-373.527 789,-371 819.385,-353.699 845.86,-320.821 857.78,-304.576"/>
<polygon fill="midnightblue" stroke="midnightblue" points="773.613,-374.362 765.313,-380.947 775.908,-380.975 773.613,-374.362"/>
</g>
<!-- Node18&#45;&gt;Node3 -->
<g id="edge25" class="edge"><title>Node18&#45;&gt;Node3</title>
<path fill="none" stroke="midnightblue" d="M767.993,-339.814C775.134,-337.773 782.294,-335.497 789,-333 810.178,-325.115 833.198,-312.965 848.18,-304.535"/>
<polygon fill="midnightblue" stroke="midnightblue" points="767.042,-336.445 758.312,-342.449 768.88,-343.2 767.042,-336.445"/>
</g>
<!-- Node19&#45;&gt;Node3 -->
<g id="edge27" class="edge"><title>Node19&#45;&gt;Node3</title>
<path fill="none" stroke="midnightblue" d="M773.762,-306.417C790.979,-304.251 809.3,-301.946 824.938,-299.978"/>
<polygon fill="midnightblue" stroke="midnightblue" points="773.266,-302.952 763.781,-307.673 774.14,-309.897 773.266,-302.952"/>
</g>
<!-- Node20&#45;&gt;Node3 -->
<g id="edge29" class="edge"><title>Node20&#45;&gt;Node3</title>
<path fill="none" stroke="midnightblue" d="M773.762,-283.583C790.979,-285.749 809.3,-288.054 824.938,-290.022"/>
<polygon fill="midnightblue" stroke="midnightblue" points="774.14,-280.103 763.781,-282.327 773.266,-287.048 774.14,-280.103"/>
</g>
<!-- Node21&#45;&gt;Node3 -->
<g id="edge31" class="edge"><title>Node21&#45;&gt;Node3</title>
<path fill="none" stroke="midnightblue" d="M767.993,-250.186C775.134,-252.227 782.294,-254.503 789,-257 810.178,-264.885 833.198,-277.035 848.18,-285.465"/>
<polygon fill="midnightblue" stroke="midnightblue" points="768.88,-246.8 758.312,-247.551 767.042,-253.555 768.88,-246.8"/>
</g>
<!-- Node22&#45;&gt;Node3 -->
<g id="edge33" class="edge"><title>Node22&#45;&gt;Node3</title>
<path fill="none" stroke="midnightblue" d="M773.767,-211.947C779.07,-213.95 784.228,-216.283 789,-219 819.385,-236.301 845.86,-269.179 857.78,-285.424"/>
<polygon fill="midnightblue" stroke="midnightblue" points="774.714,-208.573 764.12,-208.688 772.473,-215.204 774.714,-208.573"/>
</g>
<!-- Node23&#45;&gt;Node3 -->
<g id="edge35" class="edge"><title>Node23&#45;&gt;Node3</title>
<path fill="none" stroke="midnightblue" d="M776.285,-173.812C780.772,-175.841 785.07,-178.217 789,-181 827.939,-208.576 852.275,-263.126 860.935,-285.294"/>
<polygon fill="midnightblue" stroke="midnightblue" points="777.451,-170.51 766.863,-170.116 774.895,-177.026 777.451,-170.51"/>
</g>
<!-- Node24&#45;&gt;Node3 -->
<g id="edge37" class="edge"><title>Node24&#45;&gt;Node3</title>
<path fill="none" stroke="midnightblue" d="M774.585,-134.295C779.755,-136.638 784.658,-139.502 789,-143 836.955,-181.634 856.931,-258.497 862.649,-285.418"/>
<polygon fill="midnightblue" stroke="midnightblue" points="775.642,-130.951 765.053,-130.614 773.121,-137.481 775.642,-130.951"/>
</g>
</g>
</svg>
