<?xml version="1.0" encoding="UTF-8" standalone="no"?>
<!DOCTYPE svg PUBLIC "-//W3C//DTD SVG 1.1//EN"
 "http://www.w3.org/Graphics/SVG/1.1/DTD/svg11.dtd">
<!-- Generated by graphviz version 2.38.0 (20140413.2041)
 -->
<!-- Title: ClassLoader::setFields Pages: 1 -->
<svg width="526pt" height="78pt"
 viewBox="0.00 0.00 526.00 77.50" xmlns="http://www.w3.org/2000/svg" xmlns:xlink="http://www.w3.org/1999/xlink">
<g id="graph0" class="graph" transform="scale(1 1) rotate(0) translate(4 73.5)">
<title>ClassLoader::setFields</title>
<polygon fill="white" stroke="none" points="-4,4 -4,-73.5 522,-73.5 522,4 -4,4"/>
<!-- Node1 -->
<g id="node1" class="node"><title>Node1</title>
<polygon fill="#bfbfbf" stroke="black" points="0,-31 0,-50 117,-50 117,-31 0,-31"/>
<text text-anchor="middle" x="58.5" y="-38" font-family="Helvetica,sans-Serif" font-size="10.00">ClassLoader::setFields</text>
</g>
<!-- Node2 -->
<g id="node2" class="node"><title>Node2</title>
<g id="a_node2"><a xlink:href="class_field_info.html#acb85db9ce893bc3e2617138fd46a8ad6" target="_top" xlink:title="FieldInfo::read">
<polygon fill="white" stroke="black" points="153,-31 153,-50 232,-50 232,-31 153,-31"/>
<text text-anchor="middle" x="192.5" y="-38" font-family="Helvetica,sans-Serif" font-size="10.00">FieldInfo::read</text>
</a>
</g>
</g>
<!-- Node1&#45;&gt;Node2 -->
<g id="edge1" class="edge"><title>Node1&#45;&gt;Node2</title>
<path fill="none" stroke="midnightblue" d="M117.013,-40.5C125.513,-40.5 134.204,-40.5 142.509,-40.5"/>
<polygon fill="midnightblue" stroke="midnightblue" points="142.779,-44.0001 152.779,-40.5 142.779,-37.0001 142.779,-44.0001"/>
</g>
<!-- Node3 -->
<g id="node3" class="node"><title>Node3</title>
<g id="a_node3"><a xlink:href="class_byte_reader.html#ae570748805994596f51ae033183935d7" target="_top" xlink:title="ByteReader::byteCatch">
<polygon fill="white" stroke="black" points="399,-50 399,-69 518,-69 518,-50 399,-50"/>
<text text-anchor="middle" x="458.5" y="-57" font-family="Helvetica,sans-Serif" font-size="10.00">ByteReader::byteCatch</text>
</a>
</g>
</g>
<!-- Node2&#45;&gt;Node3 -->
<g id="edge2" class="edge"><title>Node2&#45;&gt;Node3</title>
<path fill="none" stroke="midnightblue" d="M232.171,-43.2831C273.171,-46.2339 338.767,-50.9548 388.636,-54.5439"/>
<polygon fill="midnightblue" stroke="midnightblue" points="388.481,-58.0417 398.706,-55.2686 388.983,-51.0597 388.481,-58.0417"/>
</g>
<!-- Node4 -->
<g id="node4" class="node"><title>Node4</title>
<g id="a_node4"><a xlink:href="class_attribute_info.html#ac167daa272a7ef9b9f11389d34e42165" target="_top" xlink:title="AttributeInfo::read">
<polygon fill="white" stroke="black" points="268,-12 268,-31 363,-31 363,-12 268,-12"/>
<text text-anchor="middle" x="315.5" y="-19" font-family="Helvetica,sans-Serif" font-size="10.00">AttributeInfo::read</text>
</a>
</g>
</g>
<!-- Node2&#45;&gt;Node4 -->
<g id="edge3" class="edge"><title>Node2&#45;&gt;Node4</title>
<path fill="none" stroke="midnightblue" d="M232.118,-34.436C240.27,-33.1559 249.036,-31.7795 257.699,-30.4191"/>
<polygon fill="midnightblue" stroke="midnightblue" points="258.444,-33.8451 267.78,-28.8361 257.359,-26.9298 258.444,-33.8451"/>
</g>
<!-- Node4&#45;&gt;Node3 -->
<g id="edge4" class="edge"><title>Node4&#45;&gt;Node3</title>
<path fill="none" stroke="midnightblue" d="M352.08,-31.089C370.282,-35.9944 392.638,-42.0196 412.072,-47.2571"/>
<polygon fill="midnightblue" stroke="midnightblue" points="411.365,-50.6912 421.931,-49.9141 413.186,-43.9324 411.365,-50.6912"/>
</g>
<!-- Node5 -->
<g id="node5" class="node"><title>Node5</title>
<g id="a_node5"><a xlink:href="struct_cp_attribute_interface.html#a99cabbc15a0af5273a6d324dfbc78f41" target="_top" xlink:title="CpAttributeInterface\l::getUTF8">
<polygon fill="white" stroke="black" points="406.5,-0.5 406.5,-30.5 510.5,-30.5 510.5,-0.5 406.5,-0.5"/>
<text text-anchor="start" x="414.5" y="-18.5" font-family="Helvetica,sans-Serif" font-size="10.00">CpAttributeInterface</text>
<text text-anchor="middle" x="458.5" y="-7.5" font-family="Helvetica,sans-Serif" font-size="10.00">::getUTF8</text>
</a>
</g>
</g>
<!-- Node4&#45;&gt;Node5 -->
<g id="edge5" class="edge"><title>Node4&#45;&gt;Node5</title>
<path fill="none" stroke="midnightblue" d="M363.059,-19.5187C373.623,-19.0692 385,-18.5851 396.073,-18.1139"/>
<polygon fill="midnightblue" stroke="midnightblue" points="396.283,-21.6082 406.125,-17.6862 395.985,-14.6146 396.283,-21.6082"/>
</g>
</g>
</svg>
