<?xml version="1.0" encoding="UTF-8" standalone="no"?>
<!DOCTYPE svg PUBLIC "-//W3C//DTD SVG 1.1//EN"
 "http://www.w3.org/Graphics/SVG/1.1/DTD/svg11.dtd">
<!-- Generated by graphviz version 2.38.0 (20140413.2041)
 -->
<!-- Title: ClassLoader::getAttributes Pages: 1 -->
<svg width="493pt" height="47pt"
 viewBox="0.00 0.00 493.00 47.00" xmlns="http://www.w3.org/2000/svg" xmlns:xlink="http://www.w3.org/1999/xlink">
<g id="graph0" class="graph" transform="scale(1 1) rotate(0) translate(4 43)">
<title>ClassLoader::getAttributes</title>
<polygon fill="white" stroke="none" points="-4,4 -4,-43 489,-43 489,4 -4,4"/>
<!-- Node1 -->
<g id="node1" class="node"><title>Node1</title>
<polygon fill="#bfbfbf" stroke="black" points="0,-0.5 0,-19.5 133,-19.5 133,-0.5 0,-0.5"/>
<text text-anchor="middle" x="66.5" y="-7.5" font-family="Helvetica,sans-Serif" font-size="10.00">ClassLoader::getAttributes</text>
</g>
<!-- Node2 -->
<g id="node2" class="node"><title>Node2</title>
<g id="a_node2"><a xlink:href="class_class_loader.html#a047f5d93000be571f23484c809ab9b2d" target="_top" xlink:title="ClassLoader::getAttriCount">
<polygon fill="white" stroke="black" points="169,-19.5 169,-38.5 304,-38.5 304,-19.5 169,-19.5"/>
<text text-anchor="middle" x="236.5" y="-26.5" font-family="Helvetica,sans-Serif" font-size="10.00">ClassLoader::getAttriCount</text>
</a>
</g>
</g>
<!-- Node1&#45;&gt;Node2 -->
<g id="edge1" class="edge"><title>Node1&#45;&gt;Node2</title>
<path fill="none" stroke="midnightblue" d="M143.361,-18.5795C151.895,-19.5447 160.543,-20.5227 168.946,-21.4731"/>
<polygon fill="midnightblue" stroke="midnightblue" points="143.746,-15.1008 133.416,-17.4548 142.959,-22.0565 143.746,-15.1008"/>
</g>
<!-- Node3 -->
<g id="node3" class="node"><title>Node3</title>
<g id="a_node3"><a xlink:href="jvm_8cpp.html#a893044ba12149c5e0ed3b4a19474fc4a" target="_top" xlink:title="Chama o exibidor de ClassLoader. ">
<polygon fill="white" stroke="black" points="340,-0.5 340,-19.5 411,-19.5 411,-0.5 340,-0.5"/>
<text text-anchor="middle" x="375.5" y="-7.5" font-family="Helvetica,sans-Serif" font-size="10.00">classReader</text>
</a>
</g>
</g>
<!-- Node1&#45;&gt;Node3 -->
<g id="edge4" class="edge"><title>Node1&#45;&gt;Node3</title>
<path fill="none" stroke="midnightblue" d="M143.604,-10C206.31,-10 292.353,-10 339.714,-10"/>
<polygon fill="midnightblue" stroke="midnightblue" points="143.359,-6.5001 133.359,-10 143.359,-13.5001 143.359,-6.5001"/>
</g>
<!-- Node2&#45;&gt;Node3 -->
<g id="edge2" class="edge"><title>Node2&#45;&gt;Node3</title>
<path fill="none" stroke="midnightblue" d="M314.407,-18.334C323.233,-17.11 331.869,-15.9123 339.719,-14.8237"/>
<polygon fill="midnightblue" stroke="midnightblue" points="313.819,-14.882 304.395,-19.7226 314.781,-21.8157 313.819,-14.882"/>
</g>
<!-- Node4 -->
<g id="node4" class="node"><title>Node4</title>
<g id="a_node4"><a xlink:href="jvm_8cpp.html#a0ddf1224851353fc92bfbff6f499fa97" target="_top" xlink:title="Função main. ">
<polygon fill="white" stroke="black" points="447,-0.5 447,-19.5 485,-19.5 485,-0.5 447,-0.5"/>
<text text-anchor="middle" x="466" y="-7.5" font-family="Helvetica,sans-Serif" font-size="10.00">main</text>
</a>
</g>
</g>
<!-- Node3&#45;&gt;Node4 -->
<g id="edge3" class="edge"><title>Node3&#45;&gt;Node4</title>
<path fill="none" stroke="midnightblue" d="M421.381,-10C430.435,-10 439.455,-10 446.922,-10"/>
<polygon fill="midnightblue" stroke="midnightblue" points="421.224,-6.5001 411.224,-10 421.224,-13.5001 421.224,-6.5001"/>
</g>
</g>
</svg>
