<?xml version="1.0" encoding="UTF-8" standalone="no"?>
<!DOCTYPE svg PUBLIC "-//W3C//DTD SVG 1.1//EN"
 "http://www.w3.org/Graphics/SVG/1.1/DTD/svg11.dtd">
<!-- Generated by graphviz version 2.38.0 (20140413.2041)
 -->
<!-- Title: Interpreter::execute Pages: 1 -->
<svg width="303pt" height="28pt"
 viewBox="0.00 0.00 303.00 28.00" xmlns="http://www.w3.org/2000/svg" xmlns:xlink="http://www.w3.org/1999/xlink">
<g id="graph0" class="graph" transform="scale(1 1) rotate(0) translate(4 24)">
<title>Interpreter::execute</title>
<polygon fill="white" stroke="none" points="-4,4 -4,-24 299,-24 299,4 -4,4"/>
<!-- Node1 -->
<g id="node1" class="node"><title>Node1</title>
<polygon fill="#bfbfbf" stroke="black" points="0,-0.5 0,-19.5 101,-19.5 101,-0.5 0,-0.5"/>
<text text-anchor="middle" x="50.5" y="-7.5" font-family="Helvetica,sans-Serif" font-size="10.00">Interpreter::execute</text>
</g>
<!-- Node2 -->
<g id="node2" class="node"><title>Node2</title>
<g id="a_node2"><a xlink:href="jvm_8cpp.html#a4f4a24852257f7259f906828eec5c11c" target="_top" xlink:title="Chama o interpretador para classloader. ">
<polygon fill="white" stroke="black" points="137,-0.5 137,-19.5 221,-19.5 221,-0.5 137,-0.5"/>
<text text-anchor="middle" x="179" y="-7.5" font-family="Helvetica,sans-Serif" font-size="10.00">classInterpreter</text>
</a>
</g>
</g>
<!-- Node1&#45;&gt;Node2 -->
<g id="edge1" class="edge"><title>Node1&#45;&gt;Node2</title>
<path fill="none" stroke="midnightblue" d="M111.18,-10C119.805,-10 128.52,-10 136.679,-10"/>
<polygon fill="midnightblue" stroke="midnightblue" points="111.133,-6.5001 101.133,-10 111.133,-13.5001 111.133,-6.5001"/>
</g>
<!-- Node3 -->
<g id="node3" class="node"><title>Node3</title>
<g id="a_node3"><a xlink:href="jvm_8cpp.html#a0ddf1224851353fc92bfbff6f499fa97" target="_top" xlink:title="Função main. ">
<polygon fill="white" stroke="black" points="257,-0.5 257,-19.5 295,-19.5 295,-0.5 257,-0.5"/>
<text text-anchor="middle" x="276" y="-7.5" font-family="Helvetica,sans-Serif" font-size="10.00">main</text>
</a>
</g>
</g>
<!-- Node2&#45;&gt;Node3 -->
<g id="edge2" class="edge"><title>Node2&#45;&gt;Node3</title>
<path fill="none" stroke="midnightblue" d="M231.379,-10C240.462,-10 249.353,-10 256.715,-10"/>
<polygon fill="midnightblue" stroke="midnightblue" points="231.116,-6.5001 221.116,-10 231.116,-13.5001 231.116,-6.5001"/>
</g>
</g>
</svg>
