<?xml version="1.0" encoding="UTF-8" standalone="no"?>
<!DOCTYPE svg PUBLIC "-//W3C//DTD SVG 1.1//EN"
 "http://www.w3.org/Graphics/SVG/1.1/DTD/svg11.dtd">
<!-- Generated by graphviz version 2.38.0 (20140413.2041)
 -->
<!-- Title: Interpreter::mainFinder Pages: 1 -->
<svg width="454pt" height="28pt"
 viewBox="0.00 0.00 454.00 28.00" xmlns="http://www.w3.org/2000/svg" xmlns:xlink="http://www.w3.org/1999/xlink">
<g id="graph0" class="graph" transform="scale(1 1) rotate(0) translate(4 24)">
<title>Interpreter::mainFinder</title>
<polygon fill="white" stroke="none" points="-4,4 -4,-24 450,-24 450,4 -4,4"/>
<!-- Node1 -->
<g id="node1" class="node"><title>Node1</title>
<polygon fill="#bfbfbf" stroke="black" points="0,-0.5 0,-19.5 115,-19.5 115,-0.5 0,-0.5"/>
<text text-anchor="middle" x="57.5" y="-7.5" font-family="Helvetica,sans-Serif" font-size="10.00">Interpreter::mainFinder</text>
</g>
<!-- Node2 -->
<g id="node2" class="node"><title>Node2</title>
<g id="a_node2"><a xlink:href="class_interpreter.html#aaa34fcc8ece810597cd2fea359b65220" target="_top" xlink:title="Interpreter::execute">
<polygon fill="white" stroke="black" points="151,-0.5 151,-19.5 252,-19.5 252,-0.5 151,-0.5"/>
<text text-anchor="middle" x="201.5" y="-7.5" font-family="Helvetica,sans-Serif" font-size="10.00">Interpreter::execute</text>
</a>
</g>
</g>
<!-- Node1&#45;&gt;Node2 -->
<g id="edge1" class="edge"><title>Node1&#45;&gt;Node2</title>
<path fill="none" stroke="midnightblue" d="M125.05,-10C133.646,-10 142.329,-10 150.592,-10"/>
<polygon fill="midnightblue" stroke="midnightblue" points="125.03,-6.5001 115.03,-10 125.03,-13.5001 125.03,-6.5001"/>
</g>
<!-- Node3 -->
<g id="node3" class="node"><title>Node3</title>
<g id="a_node3"><a xlink:href="jvm_8cpp.html#a4f4a24852257f7259f906828eec5c11c" target="_top" xlink:title="Chama o interpretador para classloader. ">
<polygon fill="white" stroke="black" points="288,-0.5 288,-19.5 372,-19.5 372,-0.5 288,-0.5"/>
<text text-anchor="middle" x="330" y="-7.5" font-family="Helvetica,sans-Serif" font-size="10.00">classInterpreter</text>
</a>
</g>
</g>
<!-- Node2&#45;&gt;Node3 -->
<g id="edge2" class="edge"><title>Node2&#45;&gt;Node3</title>
<path fill="none" stroke="midnightblue" d="M262.18,-10C270.805,-10 279.52,-10 287.679,-10"/>
<polygon fill="midnightblue" stroke="midnightblue" points="262.133,-6.5001 252.133,-10 262.133,-13.5001 262.133,-6.5001"/>
</g>
<!-- Node4 -->
<g id="node4" class="node"><title>Node4</title>
<g id="a_node4"><a xlink:href="jvm_8cpp.html#a0ddf1224851353fc92bfbff6f499fa97" target="_top" xlink:title="Função main. ">
<polygon fill="white" stroke="black" points="408,-0.5 408,-19.5 446,-19.5 446,-0.5 408,-0.5"/>
<text text-anchor="middle" x="427" y="-7.5" font-family="Helvetica,sans-Serif" font-size="10.00">main</text>
</a>
</g>
</g>
<!-- Node3&#45;&gt;Node4 -->
<g id="edge3" class="edge"><title>Node3&#45;&gt;Node4</title>
<path fill="none" stroke="midnightblue" d="M382.379,-10C391.462,-10 400.353,-10 407.715,-10"/>
<polygon fill="midnightblue" stroke="midnightblue" points="382.116,-6.5001 372.116,-10 382.116,-13.5001 382.116,-6.5001"/>
</g>
</g>
</svg>
