<?xml version="1.0" encoding="UTF-8" standalone="no"?>
<!DOCTYPE svg PUBLIC "-//W3C//DTD SVG 1.1//EN"
 "http://www.w3.org/Graphics/SVG/1.1/DTD/svg11.dtd">
<!-- Generated by graphviz version 2.38.0 (20140413.2041)
 -->
<!-- Title: ClassLoader::getConstPool Pages: 1 -->
<svg width="1246pt" height="610pt"
 viewBox="0.00 0.00 1246.00 609.50" xmlns="http://www.w3.org/2000/svg" xmlns:xlink="http://www.w3.org/1999/xlink">
<g id="graph0" class="graph" transform="scale(1 1) rotate(0) translate(4 605.5)">
<title>ClassLoader::getConstPool</title>
<polygon fill="white" stroke="none" points="-4,4 -4,-605.5 1242,-605.5 1242,4 -4,4"/>
<!-- Node1 -->
<g id="node1" class="node"><title>Node1</title>
<polygon fill="#bfbfbf" stroke="black" points="0,-377.5 0,-396.5 137,-396.5 137,-377.5 0,-377.5"/>
<text text-anchor="middle" x="68.5" y="-384.5" font-family="Helvetica,sans-Serif" font-size="10.00">ClassLoader::getConstPool</text>
</g>
<!-- Node2 -->
<g id="node2" class="node"><title>Node2</title>
<g id="a_node2"><a xlink:href="class_methods_area.html#ab8111f3fc9b55f1f8dbbbe0c1ca76d89" target="_top" xlink:title="MethodsArea::findMethodBy\lNameOrDeor">
<polygon fill="white" stroke="black" points="334,-571 334,-601 474,-601 474,-571 334,-571"/>
<text text-anchor="start" x="342" y="-589" font-family="Helvetica,sans-Serif" font-size="10.00">MethodsArea::findMethodBy</text>
<text text-anchor="middle" x="404" y="-578" font-family="Helvetica,sans-Serif" font-size="10.00">NameOrDeor</text>
</a>
</g>
</g>
<!-- Node1&#45;&gt;Node2 -->
<g id="edge1" class="edge"><title>Node1&#45;&gt;Node2</title>
<path fill="none" stroke="midnightblue" d="M75.258,-406.594C87.0327,-442.861 117.546,-520.024 173,-556 220.464,-586.792 285.108,-592.822 333.777,-591.994"/>
<polygon fill="midnightblue" stroke="midnightblue" points="78.5071,-405.255 72.1986,-396.743 71.822,-407.331 78.5071,-405.255"/>
</g>
<!-- Node3 -->
<g id="node3" class="node"><title>Node3</title>
<g id="a_node3"><a xlink:href="class_instruction_impl.html#a3d197a31eaa6bc79b6d882b0ac9f1a67" target="_top" xlink:title="InstructionImpl::invokevirtual">
<polygon fill="white" stroke="black" points="836.5,-532.5 836.5,-551.5 978.5,-551.5 978.5,-532.5 836.5,-532.5"/>
<text text-anchor="middle" x="907.5" y="-539.5" font-family="Helvetica,sans-Serif" font-size="10.00">InstructionImpl::invokevirtual</text>
</a>
</g>
</g>
<!-- Node1&#45;&gt;Node3 -->
<g id="edge9" class="edge"><title>Node1&#45;&gt;Node3</title>
<path fill="none" stroke="midnightblue" d="M82.468,-404.869C100.226,-427.977 134.349,-467.77 173,-489 264.944,-539.503 298.099,-542 403,-542 403,-542 403,-542 572,-542 663.32,-542 768.663,-542 836.345,-542"/>
<polygon fill="midnightblue" stroke="midnightblue" points="85.0892,-402.531 76.2888,-396.631 79.4894,-406.731 85.0892,-402.531"/>
</g>
<!-- Node7 -->
<g id="node7" class="node"><title>Node7</title>
<g id="a_node7"><a xlink:href="struct_instance.html#aca86b4cbc971ace708021f8ef2c6ce43" target="_top" xlink:title="Instance::Instance">
<polygon fill="white" stroke="black" points="186.5,-140.5 186.5,-159.5 284.5,-159.5 284.5,-140.5 186.5,-140.5"/>
<text text-anchor="middle" x="235.5" y="-147.5" font-family="Helvetica,sans-Serif" font-size="10.00">Instance::Instance</text>
</a>
</g>
</g>
<!-- Node1&#45;&gt;Node7 -->
<g id="edge6" class="edge"><title>Node1&#45;&gt;Node7</title>
<path fill="none" stroke="midnightblue" d="M73.84,-367.567C84.0191,-326.295 113.218,-229.168 173,-174 179.738,-167.782 188.271,-163.106 196.819,-159.616"/>
<polygon fill="midnightblue" stroke="midnightblue" points="70.4017,-366.899 71.5109,-377.436 77.2145,-368.507 70.4017,-366.899"/>
</g>
<!-- Node8 -->
<g id="node8" class="node"><title>Node8</title>
<g id="a_node8"><a xlink:href="class_instruction_impl.html#ae794ec480c5cd8809d1215aa9442501b" target="_top" xlink:title="InstructionImpl::invokespecial">
<polygon fill="white" stroke="black" points="834.5,-456.5 834.5,-475.5 980.5,-475.5 980.5,-456.5 834.5,-456.5"/>
<text text-anchor="middle" x="907.5" y="-463.5" font-family="Helvetica,sans-Serif" font-size="10.00">InstructionImpl::invokespecial</text>
</a>
</g>
</g>
<!-- Node1&#45;&gt;Node8 -->
<g id="edge7" class="edge"><title>Node1&#45;&gt;Node8</title>
<path fill="none" stroke="midnightblue" d="M147.183,-397.595C214.667,-405.879 315.105,-416 403,-416 403,-416 403,-416 572,-416 671.509,-416 697.339,-416.914 795,-436 811.42,-439.209 814.883,-442.513 831,-447 842.589,-450.227 855.245,-453.506 866.826,-456.412"/>
<polygon fill="midnightblue" stroke="midnightblue" points="147.412,-394.097 137.057,-396.335 146.548,-401.043 147.412,-394.097"/>
</g>
<!-- Node9 -->
<g id="node9" class="node"><title>Node9</title>
<g id="a_node9"><a xlink:href="class_instruction_impl.html#a1d155354287a5fa501cce5c39c341abc" target="_top" xlink:title="InstructionImpl::invokestatic">
<polygon fill="white" stroke="black" points="837.5,-494.5 837.5,-513.5 977.5,-513.5 977.5,-494.5 837.5,-494.5"/>
<text text-anchor="middle" x="907.5" y="-501.5" font-family="Helvetica,sans-Serif" font-size="10.00">InstructionImpl::invokestatic</text>
</a>
</g>
</g>
<!-- Node1&#45;&gt;Node9 -->
<g id="edge10" class="edge"><title>Node1&#45;&gt;Node9</title>
<path fill="none" stroke="midnightblue" d="M89.1293,-402.819C109.095,-418.129 141.496,-440.892 173,-454 269.583,-494.185 298.39,-504 403,-504 403,-504 403,-504 572,-504 663.755,-504 769.668,-504 837.311,-504"/>
<polygon fill="midnightblue" stroke="midnightblue" points="91.161,-399.964 81.1259,-396.566 86.8517,-405.481 91.161,-399.964"/>
</g>
<!-- Node10 -->
<g id="node10" class="node"><title>Node10</title>
<g id="a_node10"><a xlink:href="class_interpreter.html#aaa34fcc8ece810597cd2fea359b65220" target="_top" xlink:title="Interpreter::execute">
<polygon fill="white" stroke="black" points="520.5,-235.5 520.5,-254.5 621.5,-254.5 621.5,-235.5 520.5,-235.5"/>
<text text-anchor="middle" x="571" y="-242.5" font-family="Helvetica,sans-Serif" font-size="10.00">Interpreter::execute</text>
</a>
</g>
</g>
<!-- Node1&#45;&gt;Node10 -->
<g id="edge12" class="edge"><title>Node1&#45;&gt;Node10</title>
<path fill="none" stroke="midnightblue" d="M80.2061,-368.767C96.5604,-342.778 130.401,-295.819 173,-274 286.175,-216.032 441.752,-226.411 520.311,-236.835"/>
<polygon fill="midnightblue" stroke="midnightblue" points="77.2151,-366.949 74.9882,-377.308 83.1885,-370.599 77.2151,-366.949"/>
</g>
<!-- Node13 -->
<g id="node13" class="node"><title>Node13</title>
<g id="a_node13"><a xlink:href="class_interpreter.html#a39a3745e54aa3cee8882075c96ae8b3f" target="_top" xlink:title="Interpreter::loadVariables">
<polygon fill="white" stroke="black" points="173,-349.5 173,-368.5 298,-368.5 298,-349.5 173,-349.5"/>
<text text-anchor="middle" x="235.5" y="-356.5" font-family="Helvetica,sans-Serif" font-size="10.00">Interpreter::loadVariables</text>
</a>
</g>
</g>
<!-- Node1&#45;&gt;Node13 -->
<g id="edge15" class="edge"><title>Node1&#45;&gt;Node13</title>
<path fill="none" stroke="midnightblue" d="M135.942,-375.725C150.032,-373.334 164.772,-370.833 178.432,-368.515"/>
<polygon fill="midnightblue" stroke="midnightblue" points="135.096,-372.319 125.822,-377.442 136.267,-379.22 135.096,-372.319"/>
</g>
<!-- Node28 -->
<g id="node28" class="node"><title>Node28</title>
<g id="a_node28"><a xlink:href="class_interpreter.html#a9be1f0faf7df7c81dc180da22ea08fa5" target="_top" xlink:title="Interpreter::mainFinder">
<polygon fill="white" stroke="black" points="178,-283.5 178,-302.5 293,-302.5 293,-283.5 178,-283.5"/>
<text text-anchor="middle" x="235.5" y="-290.5" font-family="Helvetica,sans-Serif" font-size="10.00">Interpreter::mainFinder</text>
</a>
</g>
</g>
<!-- Node1&#45;&gt;Node28 -->
<g id="edge47" class="edge"><title>Node1&#45;&gt;Node28</title>
<path fill="none" stroke="midnightblue" d="M95.1466,-372.389C129.308,-352.927 188.788,-319.042 217.727,-302.556"/>
<polygon fill="midnightblue" stroke="midnightblue" points="93.1855,-369.478 86.2291,-377.469 96.6506,-375.561 93.1855,-369.478"/>
</g>
<!-- Node29 -->
<g id="node29" class="node"><title>Node29</title>
<g id="a_node29"><a xlink:href="class_interpreter.html#a16752843b70549dac6ed661365e95ae3" target="_top" xlink:title="Busca um metodo pelo seu descritor ou nome e o retorna. ">
<polygon fill="white" stroke="black" points="668,-445 668,-475 795,-475 795,-445 668,-445"/>
<text text-anchor="start" x="676" y="-463" font-family="Helvetica,sans-Serif" font-size="10.00">Interpreter::findMethodBy</text>
<text text-anchor="middle" x="731.5" y="-452" font-family="Helvetica,sans-Serif" font-size="10.00">NameOrDescriptor</text>
</a>
</g>
</g>
<!-- Node1&#45;&gt;Node29 -->
<g id="edge49" class="edge"><title>Node1&#45;&gt;Node29</title>
<path fill="none" stroke="midnightblue" d="M96.206,-401.065C116.63,-411.078 145.811,-423.813 173,-430 348.792,-470.005 563.437,-467.715 667.677,-463.471"/>
<polygon fill="midnightblue" stroke="midnightblue" points="97.712,-397.905 87.2042,-396.55 94.5733,-404.162 97.712,-397.905"/>
</g>
<!-- Node30 -->
<g id="node30" class="node"><title>Node30</title>
<g id="a_node30"><a xlink:href="jvm_8cpp.html#a893044ba12149c5e0ed3b4a19474fc4a" target="_top" xlink:title="Chama o exibidor de ClassLoader. ">
<polygon fill="white" stroke="black" points="368.5,-133.5 368.5,-152.5 439.5,-152.5 439.5,-133.5 368.5,-133.5"/>
<text text-anchor="middle" x="404" y="-140.5" font-family="Helvetica,sans-Serif" font-size="10.00">classReader</text>
</a>
</g>
</g>
<!-- Node1&#45;&gt;Node30 -->
<g id="edge52" class="edge"><title>Node1&#45;&gt;Node30</title>
<path fill="none" stroke="midnightblue" d="M75.6409,-367.559C88.0556,-331.424 119.596,-253.797 173,-212 188.594,-199.795 307.734,-167.699 368.13,-151.96"/>
<polygon fill="midnightblue" stroke="midnightblue" points="72.2179,-366.762 72.399,-377.355 78.8635,-368.961 72.2179,-366.762"/>
</g>
<!-- Node2&#45;&gt;Node3 -->
<g id="edge2" class="edge"><title>Node2&#45;&gt;Node3</title>
<path fill="none" stroke="midnightblue" d="M484.474,-581.011C563.354,-575.795 687.664,-566.861 795,-556 808.393,-554.645 822.667,-553.003 836.373,-551.328"/>
<polygon fill="midnightblue" stroke="midnightblue" points="483.878,-577.543 474.129,-581.691 484.337,-584.528 483.878,-577.543"/>
</g>
<!-- Node4 -->
<g id="node4" class="node"><title>Node4</title>
<g id="a_node4"><a xlink:href="class_instruction.html#a145a172552303c9cbd8a5856e31a701b" target="_top" xlink:title="Instruction::init">
<polygon fill="white" stroke="black" points="1020,-285.5 1020,-304.5 1101,-304.5 1101,-285.5 1020,-285.5"/>
<text text-anchor="middle" x="1060.5" y="-292.5" font-family="Helvetica,sans-Serif" font-size="10.00">Instruction::init</text>
</a>
</g>
</g>
<!-- Node3&#45;&gt;Node4 -->
<g id="edge3" class="edge"><title>Node3&#45;&gt;Node4</title>
<path fill="none" stroke="midnightblue" d="M978.624,-527.345C980.511,-526.015 982.311,-524.57 984,-523 1050.28,-461.404 1058.44,-340.41 1059.39,-304.974"/>
<polygon fill="midnightblue" stroke="midnightblue" points="976.722,-524.402 969.853,-532.468 980.253,-530.446 976.722,-524.402"/>
</g>
<!-- Node5 -->
<g id="node5" class="node"><title>Node5</title>
<g id="a_node5"><a xlink:href="class_code_attribute.html#a380eb04a01b0a0db351cf74443067ba4" target="_top" xlink:title="CodeAttribute::print">
<polygon fill="white" stroke="black" points="1137,-304.5 1137,-323.5 1238,-323.5 1238,-304.5 1137,-304.5"/>
<text text-anchor="middle" x="1187.5" y="-311.5" font-family="Helvetica,sans-Serif" font-size="10.00">CodeAttribute::print</text>
</a>
</g>
</g>
<!-- Node4&#45;&gt;Node5 -->
<g id="edge4" class="edge"><title>Node4&#45;&gt;Node5</title>
<path fill="none" stroke="midnightblue" d="M1111.1,-302.539C1119.5,-303.817 1128.24,-305.144 1136.65,-306.422"/>
<polygon fill="midnightblue" stroke="midnightblue" points="1111.46,-299.054 1101.05,-301.012 1110.41,-305.975 1111.46,-299.054"/>
</g>
<!-- Node6 -->
<g id="node6" class="node"><title>Node6</title>
<g id="a_node6"><a xlink:href="struct_frame.html#abe0b370087d05267cab997ecdc78c4bd" target="_top" xlink:title="Frame::Frame">
<polygon fill="white" stroke="black" points="1148.5,-266.5 1148.5,-285.5 1226.5,-285.5 1226.5,-266.5 1148.5,-266.5"/>
<text text-anchor="middle" x="1187.5" y="-273.5" font-family="Helvetica,sans-Serif" font-size="10.00">Frame::Frame</text>
</a>
</g>
</g>
<!-- Node4&#45;&gt;Node6 -->
<g id="edge5" class="edge"><title>Node4&#45;&gt;Node6</title>
<path fill="none" stroke="midnightblue" d="M1111.26,-287.437C1123.66,-285.552 1136.76,-283.561 1148.49,-281.778"/>
<polygon fill="midnightblue" stroke="midnightblue" points="1110.41,-284.025 1101.05,-288.988 1111.46,-290.946 1110.41,-284.025"/>
</g>
<!-- Node8&#45;&gt;Node4 -->
<g id="edge8" class="edge"><title>Node8&#45;&gt;Node4</title>
<path fill="none" stroke="midnightblue" d="M976.773,-451.982C979.308,-450.484 981.73,-448.828 984,-447 1031.96,-408.366 1051.93,-331.503 1057.65,-304.582"/>
<polygon fill="midnightblue" stroke="midnightblue" points="975.154,-448.878 967.789,-456.494 978.296,-455.134 975.154,-448.878"/>
</g>
<!-- Node9&#45;&gt;Node4 -->
<g id="edge11" class="edge"><title>Node9&#45;&gt;Node4</title>
<path fill="none" stroke="midnightblue" d="M978.368,-489.306C980.339,-487.988 982.224,-486.556 984,-485 1041.13,-434.939 1055.5,-335.803 1058.68,-304.622"/>
<polygon fill="midnightblue" stroke="midnightblue" points="976.282,-486.461 969.247,-494.383 979.687,-492.578 976.282,-486.461"/>
</g>
<!-- Node11 -->
<g id="node11" class="node"><title>Node11</title>
<g id="a_node11"><a xlink:href="jvm_8cpp.html#a4f4a24852257f7259f906828eec5c11c" target="_top" xlink:title="Chama o interpretador para classloader. ">
<polygon fill="white" stroke="black" points="689.5,-107.5 689.5,-126.5 773.5,-126.5 773.5,-107.5 689.5,-107.5"/>
<text text-anchor="middle" x="731.5" y="-114.5" font-family="Helvetica,sans-Serif" font-size="10.00">classInterpreter</text>
</a>
</g>
</g>
<!-- Node10&#45;&gt;Node11 -->
<g id="edge13" class="edge"><title>Node10&#45;&gt;Node11</title>
<path fill="none" stroke="midnightblue" d="M589.987,-228.601C608.978,-211.491 639.986,-184.124 668,-162 684.159,-149.238 703.494,-135.546 716.336,-126.661"/>
<polygon fill="midnightblue" stroke="midnightblue" points="587.46,-226.168 582.394,-235.474 592.157,-231.358 587.46,-226.168"/>
</g>
<!-- Node12 -->
<g id="node12" class="node"><title>Node12</title>
<g id="a_node12"><a xlink:href="jvm_8cpp.html#a0ddf1224851353fc92bfbff6f499fa97" target="_top" xlink:title="Função main. ">
<polygon fill="white" stroke="black" points="888.5,-0.5 888.5,-19.5 926.5,-19.5 926.5,-0.5 888.5,-0.5"/>
<text text-anchor="middle" x="907.5" y="-7.5" font-family="Helvetica,sans-Serif" font-size="10.00">main</text>
</a>
</g>
</g>
<!-- Node11&#45;&gt;Node12 -->
<g id="edge14" class="edge"><title>Node11&#45;&gt;Node12</title>
<path fill="none" stroke="midnightblue" d="M753.967,-100.948C766.211,-91.6011 781.716,-79.4382 795,-68 811.677,-53.64 812.037,-45.1695 831,-34 849.132,-23.3199 872.559,-16.8332 888.475,-13.3424"/>
<polygon fill="midnightblue" stroke="midnightblue" points="751.565,-98.3766 745.707,-107.205 755.792,-103.956 751.565,-98.3766"/>
</g>
<!-- Node13&#45;&gt;Node8 -->
<g id="edge16" class="edge"><title>Node13&#45;&gt;Node8</title>
<path fill="none" stroke="midnightblue" d="M308.691,-357.531C440.131,-355.995 712.554,-358.4 795,-402 817.641,-413.974 809.455,-433.151 831,-447 837.026,-450.874 843.793,-453.958 850.736,-456.413"/>
<polygon fill="midnightblue" stroke="midnightblue" points="308.283,-354.036 298.329,-357.663 308.373,-361.035 308.283,-354.036"/>
</g>
<!-- Node14 -->
<g id="node14" class="node"><title>Node14</title>
<g id="a_node14"><a xlink:href="class_interpreter.html#ab8fa17a7a73d119f3a3113555aef9702" target="_top" xlink:title="Interpreter::loadInMemo">
<polygon fill="white" stroke="black" points="344,-292.5 344,-311.5 464,-311.5 464,-292.5 344,-292.5"/>
<text text-anchor="middle" x="404" y="-299.5" font-family="Helvetica,sans-Serif" font-size="10.00">Interpreter::loadInMemo</text>
</a>
</g>
</g>
<!-- Node13&#45;&gt;Node14 -->
<g id="edge17" class="edge"><title>Node13&#45;&gt;Node14</title>
<path fill="none" stroke="midnightblue" d="M273.866,-346.208C304.531,-335.71 347.274,-321.077 375.041,-311.572"/>
<polygon fill="midnightblue" stroke="midnightblue" points="272.696,-342.909 264.368,-349.459 274.963,-349.532 272.696,-342.909"/>
</g>
<!-- Node14&#45;&gt;Node10 -->
<g id="edge18" class="edge"><title>Node14&#45;&gt;Node10</title>
<path fill="none" stroke="midnightblue" d="M442.424,-289.072C472.784,-278.584 514.896,-264.036 542.293,-254.572"/>
<polygon fill="midnightblue" stroke="midnightblue" points="440.926,-285.886 432.617,-292.459 443.212,-292.502 440.926,-285.886"/>
</g>
<!-- Node15 -->
<g id="node15" class="node"><title>Node15</title>
<g id="a_node15"><a xlink:href="class_interpreter.html#a99a623bb05c66632d0ab034ebaf2cf51" target="_top" xlink:title="Interpreter::getClassInfo">
<polygon fill="white" stroke="black" points="510,-298.5 510,-317.5 632,-317.5 632,-298.5 510,-298.5"/>
<text text-anchor="middle" x="571" y="-305.5" font-family="Helvetica,sans-Serif" font-size="10.00">Interpreter::getClassInfo</text>
</a>
</g>
</g>
<!-- Node14&#45;&gt;Node15 -->
<g id="edge19" class="edge"><title>Node14&#45;&gt;Node15</title>
<path fill="none" stroke="midnightblue" d="M474.367,-304.522C486.184,-304.952 498.37,-305.395 509.922,-305.815"/>
<polygon fill="midnightblue" stroke="midnightblue" points="474.223,-301.015 464.103,-304.149 473.969,-308.01 474.223,-301.015"/>
</g>
<!-- Node15&#45;&gt;Node13 -->
<g id="edge46" class="edge"><title>Node15&#45;&gt;Node13</title>
<path fill="none" stroke="midnightblue" d="M499.824,-318.732C440.105,-327.864 355.169,-340.853 298.058,-349.586"/>
<polygon fill="midnightblue" stroke="midnightblue" points="500.569,-322.158 509.925,-317.187 499.51,-315.239 500.569,-322.158"/>
</g>
<!-- Node16 -->
<g id="node16" class="node"><title>Node16</title>
<g id="a_node16"><a xlink:href="class_instruction_impl.html#af10750df1ad4bf72ac80445dbbec068b" target="_top" xlink:title="InstructionImpl::getstatic">
<polygon fill="white" stroke="black" points="669,-171.5 669,-190.5 794,-190.5 794,-171.5 669,-171.5"/>
<text text-anchor="middle" x="731.5" y="-178.5" font-family="Helvetica,sans-Serif" font-size="10.00">InstructionImpl::getstatic</text>
</a>
</g>
</g>
<!-- Node15&#45;&gt;Node16 -->
<g id="edge20" class="edge"><title>Node15&#45;&gt;Node16</title>
<path fill="none" stroke="midnightblue" d="M593.724,-292.608C605.238,-284.315 619.54,-273.8 632,-264 664.517,-238.424 701.477,-206.468 719.477,-190.71"/>
<polygon fill="midnightblue" stroke="midnightblue" points="591.632,-289.801 585.538,-298.468 595.707,-295.493 591.632,-289.801"/>
</g>
<!-- Node17 -->
<g id="node17" class="node"><title>Node17</title>
<g id="a_node17"><a xlink:href="class_interpreter.html#a8ff3509dcc0f48200724b8ae04467495" target="_top" xlink:title="Interpreter::createType">
<polygon fill="white" stroke="black" points="673.5,-301.5 673.5,-320.5 789.5,-320.5 789.5,-301.5 673.5,-301.5"/>
<text text-anchor="middle" x="731.5" y="-308.5" font-family="Helvetica,sans-Serif" font-size="10.00">Interpreter::createType</text>
</a>
</g>
</g>
<!-- Node15&#45;&gt;Node17 -->
<g id="edge22" class="edge"><title>Node15&#45;&gt;Node17</title>
<path fill="none" stroke="midnightblue" d="M642.597,-309.336C652.913,-309.531 663.426,-309.73 673.427,-309.92"/>
<polygon fill="midnightblue" stroke="midnightblue" points="642.439,-305.833 632.374,-309.143 642.306,-312.831 642.439,-305.833"/>
</g>
<!-- Node16&#45;&gt;Node4 -->
<g id="edge21" class="edge"><title>Node16&#45;&gt;Node4</title>
<path fill="none" stroke="midnightblue" d="M758.914,-165.933C770.979,-158.123 784.815,-147.758 795,-136 817.647,-109.855 801.421,-84.9306 831,-67 889.15,-31.7502 928.875,-27.1852 984,-67 1058.03,-120.467 1060.65,-249.312 1059.86,-285.439"/>
<polygon fill="midnightblue" stroke="midnightblue" points="756.774,-163.141 750.122,-171.388 760.465,-169.089 756.774,-163.141"/>
</g>
<!-- Node17&#45;&gt;Node3 -->
<g id="edge24" class="edge"><title>Node17&#45;&gt;Node3</title>
<path fill="none" stroke="midnightblue" d="M742.4,-329.751C755.096,-354.026 777.553,-397.756 795,-436 812.368,-474.072 799.334,-495.644 831,-523 835.5,-526.888 840.684,-530 846.183,-532.49"/>
<polygon fill="midnightblue" stroke="midnightblue" points="745.349,-327.837 737.6,-320.611 739.151,-331.092 745.349,-327.837"/>
</g>
<!-- Node17&#45;&gt;Node8 -->
<g id="edge23" class="edge"><title>Node17&#45;&gt;Node8</title>
<path fill="none" stroke="midnightblue" d="M755.744,-326.63C768.631,-336.216 784.186,-349.426 795,-364 818.96,-396.291 800.351,-420.972 831,-447 835.533,-450.85 840.738,-453.937 846.251,-456.411"/>
<polygon fill="midnightblue" stroke="midnightblue" points="757.506,-323.586 747.34,-320.6 753.425,-329.274 757.506,-323.586"/>
</g>
<!-- Node17&#45;&gt;Node9 -->
<g id="edge25" class="edge"><title>Node17&#45;&gt;Node9</title>
<path fill="none" stroke="midnightblue" d="M741.996,-329.656C763.884,-372.364 817.069,-474.385 831,-485 836.053,-488.85 841.795,-491.927 847.804,-494.385"/>
<polygon fill="midnightblue" stroke="midnightblue" points="745.039,-327.918 737.372,-320.606 738.805,-331.103 745.039,-327.918"/>
</g>
<!-- Node18 -->
<g id="node18" class="node"><title>Node18</title>
<g id="a_node18"><a xlink:href="class_instruction_impl.html#a612a030680b27c4dc97e6feec3abd9d5" target="_top" xlink:title="InstructionImpl::new_obj">
<polygon fill="white" stroke="black" points="846,-228.5 846,-247.5 969,-247.5 969,-228.5 846,-228.5"/>
<text text-anchor="middle" x="907.5" y="-235.5" font-family="Helvetica,sans-Serif" font-size="10.00">InstructionImpl::new_obj</text>
</a>
</g>
</g>
<!-- Node17&#45;&gt;Node18 -->
<g id="edge26" class="edge"><title>Node17&#45;&gt;Node18</title>
<path fill="none" stroke="midnightblue" d="M755.765,-296.024C775.221,-284.053 804.045,-267.58 831,-257 840.436,-253.296 850.824,-250.132 860.795,-247.509"/>
<polygon fill="midnightblue" stroke="midnightblue" points="753.896,-293.065 747.27,-301.332 757.606,-299.001 753.896,-293.065"/>
</g>
<!-- Node19 -->
<g id="node19" class="node"><title>Node19</title>
<g id="a_node19"><a xlink:href="class_instruction_impl.html#a87ff225e6ed77e1a956d3c6a572e5352" target="_top" xlink:title="InstructionImpl::invokeinterface">
<polygon fill="white" stroke="black" points="831,-190.5 831,-209.5 984,-209.5 984,-190.5 831,-190.5"/>
<text text-anchor="middle" x="907.5" y="-197.5" font-family="Helvetica,sans-Serif" font-size="10.00">InstructionImpl::invokeinterface</text>
</a>
</g>
</g>
<!-- Node17&#45;&gt;Node19 -->
<g id="edge28" class="edge"><title>Node17&#45;&gt;Node19</title>
<path fill="none" stroke="midnightblue" d="M746.397,-293.459C763.904,-272.563 795.965,-238.09 831,-219 838.121,-215.12 846.052,-212.015 854.021,-209.534"/>
<polygon fill="midnightblue" stroke="midnightblue" points="743.647,-291.293 740.02,-301.247 749.063,-295.727 743.647,-291.293"/>
</g>
<!-- Node20 -->
<g id="node20" class="node"><title>Node20</title>
<g id="a_node20"><a xlink:href="class_instruction_impl.html#a458635a5e0a0e1599931831243861ad5" target="_top" xlink:title="InstructionImpl::ineg">
<polygon fill="white" stroke="black" points="855,-152.5 855,-171.5 960,-171.5 960,-152.5 855,-152.5"/>
<text text-anchor="middle" x="907.5" y="-159.5" font-family="Helvetica,sans-Serif" font-size="10.00">InstructionImpl::ineg</text>
</a>
</g>
</g>
<!-- Node17&#45;&gt;Node20 -->
<g id="edge30" class="edge"><title>Node17&#45;&gt;Node20</title>
<path fill="none" stroke="midnightblue" d="M741.519,-292.093C756.165,-263.487 787.882,-209.525 831,-181 838.215,-176.227 846.541,-172.653 854.971,-169.977"/>
<polygon fill="midnightblue" stroke="midnightblue" points="738.215,-290.877 736.906,-301.391 744.486,-293.988 738.215,-290.877"/>
</g>
<!-- Node21 -->
<g id="node21" class="node"><title>Node21</title>
<g id="a_node21"><a xlink:href="class_instruction_impl.html#aab88cff85d05d447ba7e29f7fa5889b4" target="_top" xlink:title="InstructionImpl::lneg">
<polygon fill="white" stroke="black" points="855,-114.5 855,-133.5 960,-133.5 960,-114.5 855,-114.5"/>
<text text-anchor="middle" x="907.5" y="-121.5" font-family="Helvetica,sans-Serif" font-size="10.00">InstructionImpl::lneg</text>
</a>
</g>
</g>
<!-- Node17&#45;&gt;Node21 -->
<g id="edge32" class="edge"><title>Node17&#45;&gt;Node21</title>
<path fill="none" stroke="midnightblue" d="M742.8,-292.568C766.651,-250.009 824.162,-148.129 831,-143 838.028,-137.728 846.355,-133.909 854.868,-131.144"/>
<polygon fill="midnightblue" stroke="midnightblue" points="739.71,-290.924 737.879,-301.359 745.818,-294.343 739.71,-290.924"/>
</g>
<!-- Node22 -->
<g id="node22" class="node"><title>Node22</title>
<g id="a_node22"><a xlink:href="class_instruction_impl.html#a4eb37fe85c3ef86ccbd90c49a60b00ab" target="_top" xlink:title="InstructionImpl::ishl">
<polygon fill="white" stroke="black" points="856.5,-76.5 856.5,-95.5 958.5,-95.5 958.5,-76.5 856.5,-76.5"/>
<text text-anchor="middle" x="907.5" y="-83.5" font-family="Helvetica,sans-Serif" font-size="10.00">InstructionImpl::ishl</text>
</a>
</g>
</g>
<!-- Node17&#45;&gt;Node22 -->
<g id="edge34" class="edge"><title>Node17&#45;&gt;Node22</title>
<path fill="none" stroke="midnightblue" d="M743.942,-292.69C757.199,-271.045 779.236,-233.701 795,-200 814.131,-159.101 797.28,-135.028 831,-105 838.167,-98.6178 847.166,-94.3143 856.429,-91.4273"/>
<polygon fill="midnightblue" stroke="midnightblue" points="740.802,-291.113 738.523,-301.46 746.757,-294.793 740.802,-291.113"/>
</g>
<!-- Node23 -->
<g id="node23" class="node"><title>Node23</title>
<g id="a_node23"><a xlink:href="class_instruction_impl.html#ae967a67c9b37f6c225c8443c4b85748e" target="_top" xlink:title="InstructionImpl::lshl">
<polygon fill="white" stroke="black" points="856.5,-418.5 856.5,-437.5 958.5,-437.5 958.5,-418.5 856.5,-418.5"/>
<text text-anchor="middle" x="907.5" y="-425.5" font-family="Helvetica,sans-Serif" font-size="10.00">InstructionImpl::lshl</text>
</a>
</g>
</g>
<!-- Node17&#45;&gt;Node23 -->
<g id="edge36" class="edge"><title>Node17&#45;&gt;Node23</title>
<path fill="none" stroke="midnightblue" d="M753.181,-326.865C765.796,-336.94 781.949,-350.571 795,-364 812.85,-382.368 809.455,-395.151 831,-409 838.618,-413.897 847.42,-417.532 856.264,-420.23"/>
<polygon fill="midnightblue" stroke="midnightblue" points="755.119,-323.936 745.095,-320.504 750.791,-329.438 755.119,-323.936"/>
</g>
<!-- Node24 -->
<g id="node24" class="node"><title>Node24</title>
<g id="a_node24"><a xlink:href="class_instruction_impl.html#ac68d41636161f33b4d65462b91264548" target="_top" xlink:title="InstructionImpl::ishr">
<polygon fill="white" stroke="black" points="856,-380.5 856,-399.5 959,-399.5 959,-380.5 856,-380.5"/>
<text text-anchor="middle" x="907.5" y="-387.5" font-family="Helvetica,sans-Serif" font-size="10.00">InstructionImpl::ishr</text>
</a>
</g>
</g>
<!-- Node17&#45;&gt;Node24 -->
<g id="edge38" class="edge"><title>Node17&#45;&gt;Node24</title>
<path fill="none" stroke="midnightblue" d="M753.858,-326.625C773.157,-340.09 802.781,-359.175 831,-371 839.976,-374.761 849.874,-377.91 859.467,-380.493"/>
<polygon fill="midnightblue" stroke="midnightblue" points="755.693,-323.635 745.513,-320.702 751.642,-329.344 755.693,-323.635"/>
</g>
<!-- Node25 -->
<g id="node25" class="node"><title>Node25</title>
<g id="a_node25"><a xlink:href="class_instruction_impl.html#aecca1e5322ed2ae9a3cf21a7b5716f77" target="_top" xlink:title="InstructionImpl::lshr">
<polygon fill="white" stroke="black" points="856,-342.5 856,-361.5 959,-361.5 959,-342.5 856,-342.5"/>
<text text-anchor="middle" x="907.5" y="-349.5" font-family="Helvetica,sans-Serif" font-size="10.00">InstructionImpl::lshr</text>
</a>
</g>
</g>
<!-- Node17&#45;&gt;Node25 -->
<g id="edge40" class="edge"><title>Node17&#45;&gt;Node25</title>
<path fill="none" stroke="midnightblue" d="M782.701,-322.829C809.17,-329.066 841.209,-336.615 866.061,-342.471"/>
<polygon fill="midnightblue" stroke="midnightblue" points="783.393,-319.396 772.856,-320.509 781.787,-326.21 783.393,-319.396"/>
</g>
<!-- Node26 -->
<g id="node26" class="node"><title>Node26</title>
<g id="a_node26"><a xlink:href="class_instruction_impl.html#a23b84075b24e2a750e1d6cc6b22a9adb" target="_top" xlink:title="InstructionImpl::lushr">
<polygon fill="white" stroke="black" points="853.5,-304.5 853.5,-323.5 961.5,-323.5 961.5,-304.5 853.5,-304.5"/>
<text text-anchor="middle" x="907.5" y="-311.5" font-family="Helvetica,sans-Serif" font-size="10.00">InstructionImpl::lushr</text>
</a>
</g>
</g>
<!-- Node17&#45;&gt;Node26 -->
<g id="edge42" class="edge"><title>Node17&#45;&gt;Node26</title>
<path fill="none" stroke="midnightblue" d="M800.168,-312.167C817.769,-312.47 836.483,-312.793 853.225,-313.081"/>
<polygon fill="midnightblue" stroke="midnightblue" points="800.015,-308.664 789.956,-311.991 799.894,-315.663 800.015,-308.664"/>
</g>
<!-- Node27 -->
<g id="node27" class="node"><title>Node27</title>
<g id="a_node27"><a xlink:href="class_instruction_impl.html#a4b4d6991094076af98ce5a5c4a2fedfa" target="_top" xlink:title="InstructionImpl::land">
<polygon fill="white" stroke="black" points="855,-266.5 855,-285.5 960,-285.5 960,-266.5 855,-266.5"/>
<text text-anchor="middle" x="907.5" y="-273.5" font-family="Helvetica,sans-Serif" font-size="10.00">InstructionImpl::land</text>
</a>
</g>
</g>
<!-- Node17&#45;&gt;Node27 -->
<g id="edge44" class="edge"><title>Node17&#45;&gt;Node27</title>
<path fill="none" stroke="midnightblue" d="M790.085,-299.417C812.438,-294.92 837.728,-289.834 859.011,-285.552"/>
<polygon fill="midnightblue" stroke="midnightblue" points="789.16,-296.033 780.046,-301.436 790.54,-302.895 789.16,-296.033"/>
</g>
<!-- Node18&#45;&gt;Node4 -->
<g id="edge27" class="edge"><title>Node18&#45;&gt;Node4</title>
<path fill="none" stroke="midnightblue" d="M962.993,-250.186C970.134,-252.227 977.294,-254.503 984,-257 1005.18,-264.885 1028.2,-277.035 1043.18,-285.465"/>
<polygon fill="midnightblue" stroke="midnightblue" points="963.88,-246.8 953.312,-247.551 962.042,-253.555 963.88,-246.8"/>
</g>
<!-- Node19&#45;&gt;Node4 -->
<g id="edge29" class="edge"><title>Node19&#45;&gt;Node4</title>
<path fill="none" stroke="midnightblue" d="M971.531,-213.027C975.859,-214.776 980.062,-216.757 984,-219 1014.38,-236.301 1040.86,-269.179 1052.78,-285.424"/>
<polygon fill="midnightblue" stroke="midnightblue" points="972.498,-209.655 961.904,-209.555 970.123,-216.24 972.498,-209.655"/>
</g>
<!-- Node20&#45;&gt;Node4 -->
<g id="edge31" class="edge"><title>Node20&#45;&gt;Node4</title>
<path fill="none" stroke="midnightblue" d="M970.004,-173.245C974.955,-175.394 979.698,-177.954 984,-181 1022.94,-208.576 1047.28,-263.126 1055.93,-285.294"/>
<polygon fill="midnightblue" stroke="midnightblue" points="970.882,-169.836 960.29,-169.595 968.42,-176.388 970.882,-169.836"/>
</g>
<!-- Node21&#45;&gt;Node4 -->
<g id="edge33" class="edge"><title>Node21&#45;&gt;Node4</title>
<path fill="none" stroke="midnightblue" d="M969.585,-134.295C974.755,-136.638 979.658,-139.502 984,-143 1031.96,-181.634 1051.93,-258.497 1057.65,-285.418"/>
<polygon fill="midnightblue" stroke="midnightblue" points="970.642,-130.951 960.053,-130.614 968.121,-137.481 970.642,-130.951"/>
</g>
<!-- Node22&#45;&gt;Node4 -->
<g id="edge35" class="edge"><title>Node22&#45;&gt;Node4</title>
<path fill="none" stroke="midnightblue" d="M968.557,-95.3021C974.163,-97.8272 979.441,-101.005 984,-105 1041.13,-155.061 1055.5,-254.197 1058.68,-285.378"/>
<polygon fill="midnightblue" stroke="midnightblue" points="969.474,-91.9069 958.883,-91.6401 966.996,-98.4536 969.474,-91.9069"/>
</g>
<!-- Node23&#45;&gt;Node4 -->
<g id="edge37" class="edge"><title>Node23&#45;&gt;Node4</title>
<path fill="none" stroke="midnightblue" d="M968.259,-417.493C973.839,-415.198 979.195,-412.403 984,-409 1022.94,-381.424 1047.28,-326.874 1055.93,-304.706"/>
<polygon fill="midnightblue" stroke="midnightblue" points="966.953,-414.243 958.713,-420.904 969.308,-420.835 966.953,-414.243"/>
</g>
<!-- Node24&#45;&gt;Node4 -->
<g id="edge39" class="edge"><title>Node24&#45;&gt;Node4</title>
<path fill="none" stroke="midnightblue" d="M968.767,-378.053C974.07,-376.05 979.228,-373.717 984,-371 1014.38,-353.699 1040.86,-320.821 1052.78,-304.576"/>
<polygon fill="midnightblue" stroke="midnightblue" points="967.473,-374.796 959.12,-381.312 969.714,-381.427 967.473,-374.796"/>
</g>
<!-- Node25&#45;&gt;Node4 -->
<g id="edge41" class="edge"><title>Node25&#45;&gt;Node4</title>
<path fill="none" stroke="midnightblue" d="M962.993,-339.814C970.134,-337.773 977.294,-335.497 984,-333 1005.18,-325.115 1028.2,-312.965 1043.18,-304.535"/>
<polygon fill="midnightblue" stroke="midnightblue" points="962.042,-336.445 953.312,-342.449 963.88,-343.2 962.042,-336.445"/>
</g>
<!-- Node26&#45;&gt;Node4 -->
<g id="edge43" class="edge"><title>Node26&#45;&gt;Node4</title>
<path fill="none" stroke="midnightblue" d="M971.7,-306.048C987.907,-304.008 1004.89,-301.871 1019.55,-300.026"/>
<polygon fill="midnightblue" stroke="midnightblue" points="971.222,-302.58 961.737,-307.301 972.096,-309.525 971.222,-302.58"/>
</g>
<!-- Node27&#45;&gt;Node4 -->
<g id="edge45" class="edge"><title>Node27&#45;&gt;Node4</title>
<path fill="none" stroke="midnightblue" d="M970.267,-283.772C986.928,-285.868 1004.51,-288.081 1019.63,-289.983"/>
<polygon fill="midnightblue" stroke="midnightblue" points="970.402,-280.261 960.043,-282.486 969.528,-287.207 970.402,-280.261"/>
</g>
<!-- Node28&#45;&gt;Node10 -->
<g id="edge48" class="edge"><title>Node28&#45;&gt;Node10</title>
<path fill="none" stroke="midnightblue" d="M303.075,-283.418C367.131,-274.199 462.524,-260.469 520.238,-252.162"/>
<polygon fill="midnightblue" stroke="midnightblue" points="302.473,-279.968 293.074,-284.857 303.47,-286.897 302.473,-279.968"/>
</g>
<!-- Node29&#45;&gt;Node8 -->
<g id="edge50" class="edge"><title>Node29&#45;&gt;Node8</title>
<path fill="none" stroke="midnightblue" d="M805.537,-462.519C815.058,-462.847 824.808,-463.183 834.314,-463.511"/>
<polygon fill="midnightblue" stroke="midnightblue" points="805.433,-459.013 795.318,-462.166 805.191,-466.009 805.433,-459.013"/>
</g>
<!-- Node29&#45;&gt;Node9 -->
<g id="edge51" class="edge"><title>Node29&#45;&gt;Node9</title>
<path fill="none" stroke="midnightblue" d="M801.449,-477.519C811.365,-480.033 821.443,-482.585 831,-485 843.187,-488.08 856.483,-491.43 868.475,-494.447"/>
<polygon fill="midnightblue" stroke="midnightblue" points="802.166,-474.09 791.613,-475.024 800.445,-480.875 802.166,-474.09"/>
</g>
<!-- Node30&#45;&gt;Node12 -->
<g id="edge53" class="edge"><title>Node30&#45;&gt;Node12</title>
<path fill="none" stroke="midnightblue" d="M449.581,-131.177C555.125,-103.186 816.778,-33.7947 888.224,-14.847"/>
<polygon fill="midnightblue" stroke="midnightblue" points="448.635,-127.807 439.866,-133.753 450.429,-134.573 448.635,-127.807"/>
</g>
</g>
</svg>
