<?xml version="1.0" encoding="UTF-8" standalone="no"?>
<!DOCTYPE svg PUBLIC "-//W3C//DTD SVG 1.1//EN"
 "http://www.w3.org/Graphics/SVG/1.1/DTD/svg11.dtd">
<!-- Generated by graphviz version 2.38.0 (20140413.2041)
 -->
<!-- Title: ClassLoader::getFields Pages: 1 -->
<svg width="480pt" height="47pt"
 viewBox="0.00 0.00 480.00 47.00" xmlns="http://www.w3.org/2000/svg" xmlns:xlink="http://www.w3.org/1999/xlink">
<g id="graph0" class="graph" transform="scale(1 1) rotate(0) translate(4 43)">
<title>ClassLoader::getFields</title>
<polygon fill="white" stroke="none" points="-4,4 -4,-43 476,-43 476,4 -4,4"/>
<!-- Node1 -->
<g id="node1" class="node"><title>Node1</title>
<polygon fill="#bfbfbf" stroke="black" points="0,-0.5 0,-19.5 117,-19.5 117,-0.5 0,-0.5"/>
<text text-anchor="middle" x="58.5" y="-7.5" font-family="Helvetica,sans-Serif" font-size="10.00">ClassLoader::getFields</text>
</g>
<!-- Node2 -->
<g id="node2" class="node"><title>Node2</title>
<g id="a_node2"><a xlink:href="class_class_loader.html#a58c1c2b982f56c630946408d1425f6f4" target="_top" xlink:title="ClassLoader::getFieldCount">
<polygon fill="white" stroke="black" points="153,-19.5 153,-38.5 291,-38.5 291,-19.5 153,-19.5"/>
<text text-anchor="middle" x="222" y="-26.5" font-family="Helvetica,sans-Serif" font-size="10.00">ClassLoader::getFieldCount</text>
</a>
</g>
</g>
<!-- Node1&#45;&gt;Node2 -->
<g id="edge1" class="edge"><title>Node1&#45;&gt;Node2</title>
<path fill="none" stroke="midnightblue" d="M127.461,-17.9954C135.849,-18.9822 144.425,-19.9912 152.816,-20.9783"/>
<polygon fill="midnightblue" stroke="midnightblue" points="127.69,-14.4982 117.349,-16.8058 126.872,-21.4503 127.69,-14.4982"/>
</g>
<!-- Node3 -->
<g id="node3" class="node"><title>Node3</title>
<g id="a_node3"><a xlink:href="jvm_8cpp.html#a893044ba12149c5e0ed3b4a19474fc4a" target="_top" xlink:title="Chama o exibidor de ClassLoader. ">
<polygon fill="white" stroke="black" points="327,-0.5 327,-19.5 398,-19.5 398,-0.5 327,-0.5"/>
<text text-anchor="middle" x="362.5" y="-7.5" font-family="Helvetica,sans-Serif" font-size="10.00">classReader</text>
</a>
</g>
</g>
<!-- Node1&#45;&gt;Node3 -->
<g id="edge4" class="edge"><title>Node1&#45;&gt;Node3</title>
<path fill="none" stroke="midnightblue" d="M127.093,-10C189.025,-10 278.235,-10 326.795,-10"/>
<polygon fill="midnightblue" stroke="midnightblue" points="127.015,-6.5001 117.015,-10 127.015,-13.5001 127.015,-6.5001"/>
</g>
<!-- Node2&#45;&gt;Node3 -->
<g id="edge2" class="edge"><title>Node2&#45;&gt;Node3</title>
<path fill="none" stroke="midnightblue" d="M301.225,-18.2688C310.205,-17.0369 318.979,-15.8332 326.932,-14.7422"/>
<polygon fill="midnightblue" stroke="midnightblue" points="300.464,-14.8403 291.033,-19.667 301.416,-21.7753 300.464,-14.8403"/>
</g>
<!-- Node4 -->
<g id="node4" class="node"><title>Node4</title>
<g id="a_node4"><a xlink:href="jvm_8cpp.html#a0ddf1224851353fc92bfbff6f499fa97" target="_top" xlink:title="Função main. ">
<polygon fill="white" stroke="black" points="434,-0.5 434,-19.5 472,-19.5 472,-0.5 434,-0.5"/>
<text text-anchor="middle" x="453" y="-7.5" font-family="Helvetica,sans-Serif" font-size="10.00">main</text>
</a>
</g>
</g>
<!-- Node3&#45;&gt;Node4 -->
<g id="edge3" class="edge"><title>Node3&#45;&gt;Node4</title>
<path fill="none" stroke="midnightblue" d="M408.381,-10C417.435,-10 426.455,-10 433.922,-10"/>
<polygon fill="midnightblue" stroke="midnightblue" points="408.224,-6.5001 398.224,-10 408.224,-13.5001 408.224,-6.5001"/>
</g>
</g>
</svg>
