<?xml version="1.0" encoding="UTF-8" standalone="no"?>
<!DOCTYPE svg PUBLIC "-//W3C//DTD SVG 1.1//EN"
 "http://www.w3.org/Graphics/SVG/1.1/DTD/svg11.dtd">
<!-- Generated by graphviz version 2.38.0 (20140413.2041)
 -->
<!-- Title: Interpreter::findMethodByNameOrDescriptor Pages: 1 -->
<svg width="479pt" height="130pt"
 viewBox="0.00 0.00 479.00 130.47" xmlns="http://www.w3.org/2000/svg" xmlns:xlink="http://www.w3.org/1999/xlink">
<g id="graph0" class="graph" transform="scale(1 1) rotate(0) translate(4 126.473)">
<title>Interpreter::findMethodByNameOrDescriptor</title>
<polygon fill="white" stroke="none" points="-4,4 -4,-126.473 475,-126.473 475,4 -4,4"/>
<!-- Node1 -->
<g id="node1" class="node"><title>Node1</title>
<polygon fill="#bfbfbf" stroke="black" points="0,-63.5 0,-93.5 127,-93.5 127,-63.5 0,-63.5"/>
<text text-anchor="start" x="8" y="-81.5" font-family="Helvetica,sans-Serif" font-size="10.00">Interpreter::findMethodBy</text>
<text text-anchor="middle" x="63.5" y="-70.5" font-family="Helvetica,sans-Serif" font-size="10.00">NameOrDescriptor</text>
</g>
<!-- Node2 -->
<g id="node2" class="node"><title>Node2</title>
<g id="a_node2"><a xlink:href="class_class_loader.html#ad4733587ddbe1ae25500c13181bfb5ca" target="_top" xlink:title="ClassLoader::getMethods">
<polygon fill="white" stroke="black" points="343,-88 343,-107 471,-107 471,-88 343,-88"/>
<text text-anchor="middle" x="407" y="-95" font-family="Helvetica,sans-Serif" font-size="10.00">ClassLoader::getMethods</text>
</a>
</g>
</g>
<!-- Node1&#45;&gt;Node2 -->
<g id="edge1" class="edge"><title>Node1&#45;&gt;Node2</title>
<path fill="none" stroke="midnightblue" d="M95.135,-93.6883C114.155,-102.257 139.395,-112.105 163,-116.5 228.831,-128.758 306.127,-118.602 355.559,-109.058"/>
<polygon fill="midnightblue" stroke="midnightblue" points="356.549,-112.429 365.67,-107.039 355.178,-105.565 356.549,-112.429"/>
</g>
<!-- Node3 -->
<g id="node3" class="node"><title>Node3</title>
<g id="a_node3"><a xlink:href="class_class_loader.html#a8f3dc8367a76e7a4594bd5e8206d3977" target="_top" xlink:title="ClassLoader::getConstPool">
<polygon fill="white" stroke="black" points="166.5,-88 166.5,-107 303.5,-107 303.5,-88 166.5,-88"/>
<text text-anchor="middle" x="235" y="-95" font-family="Helvetica,sans-Serif" font-size="10.00">ClassLoader::getConstPool</text>
</a>
</g>
</g>
<!-- Node1&#45;&gt;Node3 -->
<g id="edge2" class="edge"><title>Node1&#45;&gt;Node3</title>
<path fill="none" stroke="midnightblue" d="M127.134,-85.5209C136.653,-86.5879 146.572,-87.6998 156.364,-88.7974"/>
<polygon fill="midnightblue" stroke="midnightblue" points="156.172,-92.2977 166.499,-89.9335 156.951,-85.3413 156.172,-92.2977"/>
</g>
<!-- Node4 -->
<g id="node4" class="node"><title>Node4</title>
<g id="a_node4"><a xlink:href="class_class_loader.html#acad870c7b405146242912190e1e71f7c" target="_top" xlink:title="ClassLoader::getMethoCount">
<polygon fill="white" stroke="black" points="163,-50 163,-69 307,-69 307,-50 163,-50"/>
<text text-anchor="middle" x="235" y="-57" font-family="Helvetica,sans-Serif" font-size="10.00">ClassLoader::getMethoCount</text>
</a>
</g>
</g>
<!-- Node1&#45;&gt;Node4 -->
<g id="edge3" class="edge"><title>Node1&#45;&gt;Node4</title>
<path fill="none" stroke="midnightblue" d="M127.134,-71.4791C135.471,-70.5445 144.115,-69.5756 152.712,-68.6119"/>
<polygon fill="midnightblue" stroke="midnightblue" points="153.213,-72.0778 162.76,-67.4856 152.433,-65.1214 153.213,-72.0778"/>
</g>
<!-- Node5 -->
<g id="node5" class="node"><title>Node5</title>
<g id="a_node5"><a xlink:href="struct_cp_attribute_interface.html#a99cabbc15a0af5273a6d324dfbc78f41" target="_top" xlink:title="CpAttributeInterface\l::getUTF8">
<polygon fill="white" stroke="black" points="183,-0.5 183,-30.5 287,-30.5 287,-0.5 183,-0.5"/>
<text text-anchor="start" x="191" y="-18.5" font-family="Helvetica,sans-Serif" font-size="10.00">CpAttributeInterface</text>
<text text-anchor="middle" x="235" y="-7.5" font-family="Helvetica,sans-Serif" font-size="10.00">::getUTF8</text>
</a>
</g>
</g>
<!-- Node1&#45;&gt;Node5 -->
<g id="edge5" class="edge"><title>Node1&#45;&gt;Node5</title>
<path fill="none" stroke="midnightblue" d="M102.758,-63.4377C120.958,-56.35 143.052,-47.858 163,-40.5 168.793,-38.3631 174.867,-36.1634 180.919,-33.9969"/>
<polygon fill="midnightblue" stroke="midnightblue" points="182.123,-37.2836 190.371,-30.6333 179.776,-30.6888 182.123,-37.2836"/>
</g>
<!-- Node4&#45;&gt;Node2 -->
<g id="edge4" class="edge"><title>Node4&#45;&gt;Node2</title>
<path fill="none" stroke="midnightblue" d="M278.898,-69.089C301.534,-74.1487 329.498,-80.3996 353.429,-85.7488"/>
<polygon fill="midnightblue" stroke="midnightblue" points="352.888,-89.2141 363.41,-87.9799 354.415,-82.3827 352.888,-89.2141"/>
</g>
</g>
</svg>
