<?xml version="1.0" encoding="UTF-8" standalone="no"?>
<!DOCTYPE svg PUBLIC "-//W3C//DTD SVG 1.1//EN"
 "http://www.w3.org/Graphics/SVG/1.1/DTD/svg11.dtd">
<!-- Generated by graphviz version 2.38.0 (20140413.2041)
 -->
<!-- Title: Interpreter::createType Pages: 1 -->
<svg width="567pt" height="484pt"
 viewBox="0.00 0.00 567.00 484.00" xmlns="http://www.w3.org/2000/svg" xmlns:xlink="http://www.w3.org/1999/xlink">
<g id="graph0" class="graph" transform="scale(1 1) rotate(0) translate(4 480)">
<title>Interpreter::createType</title>
<polygon fill="white" stroke="none" points="-4,4 -4,-480 563,-480 563,4 -4,4"/>
<!-- Node1 -->
<g id="node1" class="node"><title>Node1</title>
<polygon fill="#bfbfbf" stroke="black" points="0,-228.5 0,-247.5 116,-247.5 116,-228.5 0,-228.5"/>
<text text-anchor="middle" x="58" y="-235.5" font-family="Helvetica,sans-Serif" font-size="10.00">Interpreter::createType</text>
</g>
<!-- Node2 -->
<g id="node2" class="node"><title>Node2</title>
<g id="a_node2"><a xlink:href="class_instruction_impl.html#ae794ec480c5cd8809d1215aa9442501b" target="_top" xlink:title="InstructionImpl::invokespecial">
<polygon fill="white" stroke="black" points="155.5,-456.5 155.5,-475.5 301.5,-475.5 301.5,-456.5 155.5,-456.5"/>
<text text-anchor="middle" x="228.5" y="-463.5" font-family="Helvetica,sans-Serif" font-size="10.00">InstructionImpl::invokespecial</text>
</a>
</g>
</g>
<!-- Node1&#45;&gt;Node2 -->
<g id="edge1" class="edge"><title>Node1&#45;&gt;Node2</title>
<path fill="none" stroke="midnightblue" d="M61.9067,-257.617C69.1313,-299.177 91.8653,-396.418 152,-447 156.551,-450.828 161.768,-453.902 167.288,-456.367"/>
<polygon fill="midnightblue" stroke="midnightblue" points="65.3491,-256.98 60.2938,-247.669 58.4394,-258.1 65.3491,-256.98"/>
</g>
<!-- Node6 -->
<g id="node6" class="node"><title>Node6</title>
<g id="a_node6"><a xlink:href="class_instruction_impl.html#a3d197a31eaa6bc79b6d882b0ac9f1a67" target="_top" xlink:title="InstructionImpl::invokevirtual">
<polygon fill="white" stroke="black" points="157.5,-418.5 157.5,-437.5 299.5,-437.5 299.5,-418.5 157.5,-418.5"/>
<text text-anchor="middle" x="228.5" y="-425.5" font-family="Helvetica,sans-Serif" font-size="10.00">InstructionImpl::invokevirtual</text>
</a>
</g>
</g>
<!-- Node1&#45;&gt;Node6 -->
<g id="edge5" class="edge"><title>Node1&#45;&gt;Node6</title>
<path fill="none" stroke="midnightblue" d="M63.8976,-257.194C74.0158,-292.832 100.693,-369.212 152,-409 157.02,-412.893 162.742,-415.997 168.738,-418.47"/>
<polygon fill="midnightblue" stroke="midnightblue" points="67.2722,-256.265 61.2802,-247.527 60.5155,-258.094 67.2722,-256.265"/>
</g>
<!-- Node7 -->
<g id="node7" class="node"><title>Node7</title>
<g id="a_node7"><a xlink:href="class_instruction_impl.html#a1d155354287a5fa501cce5c39c341abc" target="_top" xlink:title="InstructionImpl::invokestatic">
<polygon fill="white" stroke="black" points="158.5,-380.5 158.5,-399.5 298.5,-399.5 298.5,-380.5 158.5,-380.5"/>
<text text-anchor="middle" x="228.5" y="-387.5" font-family="Helvetica,sans-Serif" font-size="10.00">InstructionImpl::invokestatic</text>
</a>
</g>
</g>
<!-- Node1&#45;&gt;Node7 -->
<g id="edge7" class="edge"><title>Node1&#45;&gt;Node7</title>
<path fill="none" stroke="midnightblue" d="M67.11,-257.34C80.4015,-286.602 109.647,-341.803 152,-371 157.675,-374.912 164.086,-378.02 170.714,-380.488"/>
<polygon fill="midnightblue" stroke="midnightblue" points="70.1611,-255.582 62.9403,-247.829 63.7501,-258.393 70.1611,-255.582"/>
</g>
<!-- Node8 -->
<g id="node8" class="node"><title>Node8</title>
<g id="a_node8"><a xlink:href="class_instruction_impl.html#a612a030680b27c4dc97e6feec3abd9d5" target="_top" xlink:title="InstructionImpl::new_obj">
<polygon fill="white" stroke="black" points="167,-342.5 167,-361.5 290,-361.5 290,-342.5 167,-342.5"/>
<text text-anchor="middle" x="228.5" y="-349.5" font-family="Helvetica,sans-Serif" font-size="10.00">InstructionImpl::new_obj</text>
</a>
</g>
</g>
<!-- Node1&#45;&gt;Node8 -->
<g id="edge9" class="edge"><title>Node1&#45;&gt;Node8</title>
<path fill="none" stroke="midnightblue" d="M71.7367,-256.107C87.9088,-277.718 117.85,-313.388 152,-333 158.798,-336.904 166.391,-340.014 174.071,-342.49"/>
<polygon fill="midnightblue" stroke="midnightblue" points="74.3957,-253.813 65.6767,-247.793 68.739,-257.936 74.3957,-253.813"/>
</g>
<!-- Node9 -->
<g id="node9" class="node"><title>Node9</title>
<g id="a_node9"><a xlink:href="class_instruction_impl.html#a87ff225e6ed77e1a956d3c6a572e5352" target="_top" xlink:title="InstructionImpl::invokeinterface">
<polygon fill="white" stroke="black" points="152,-304.5 152,-323.5 305,-323.5 305,-304.5 152,-304.5"/>
<text text-anchor="middle" x="228.5" y="-311.5" font-family="Helvetica,sans-Serif" font-size="10.00">InstructionImpl::invokeinterface</text>
</a>
</g>
</g>
<!-- Node1&#45;&gt;Node9 -->
<g id="edge11" class="edge"><title>Node1&#45;&gt;Node9</title>
<path fill="none" stroke="midnightblue" d="M80.0204,-253.46C98.2451,-266.217 125.748,-283.957 152,-295 160.846,-298.721 170.592,-301.84 180.06,-304.404"/>
<polygon fill="midnightblue" stroke="midnightblue" points="82.0402,-250.602 71.8652,-247.649 77.978,-256.302 82.0402,-250.602"/>
</g>
<!-- Node10 -->
<g id="node10" class="node"><title>Node10</title>
<g id="a_node10"><a xlink:href="class_instruction_impl.html#a458635a5e0a0e1599931831243861ad5" target="_top" xlink:title="InstructionImpl::ineg">
<polygon fill="white" stroke="black" points="176,-266.5 176,-285.5 281,-285.5 281,-266.5 176,-266.5"/>
<text text-anchor="middle" x="228.5" y="-273.5" font-family="Helvetica,sans-Serif" font-size="10.00">InstructionImpl::ineg</text>
</a>
</g>
</g>
<!-- Node1&#45;&gt;Node10 -->
<g id="edge13" class="edge"><title>Node1&#45;&gt;Node10</title>
<path fill="none" stroke="midnightblue" d="M111.431,-249.824C135.187,-255.182 162.899,-261.431 185.286,-266.48"/>
<polygon fill="midnightblue" stroke="midnightblue" points="112.045,-246.375 101.52,-247.589 110.505,-253.203 112.045,-246.375"/>
</g>
<!-- Node11 -->
<g id="node11" class="node"><title>Node11</title>
<g id="a_node11"><a xlink:href="class_instruction_impl.html#aab88cff85d05d447ba7e29f7fa5889b4" target="_top" xlink:title="InstructionImpl::lneg">
<polygon fill="white" stroke="black" points="176,-228.5 176,-247.5 281,-247.5 281,-228.5 176,-228.5"/>
<text text-anchor="middle" x="228.5" y="-235.5" font-family="Helvetica,sans-Serif" font-size="10.00">InstructionImpl::lneg</text>
</a>
</g>
</g>
<!-- Node1&#45;&gt;Node11 -->
<g id="edge15" class="edge"><title>Node1&#45;&gt;Node11</title>
<path fill="none" stroke="midnightblue" d="M126.207,-238C142.753,-238 160.215,-238 175.893,-238"/>
<polygon fill="midnightblue" stroke="midnightblue" points="126.046,-234.5 116.046,-238 126.046,-241.5 126.046,-234.5"/>
</g>
<!-- Node12 -->
<g id="node12" class="node"><title>Node12</title>
<g id="a_node12"><a xlink:href="class_instruction_impl.html#a4eb37fe85c3ef86ccbd90c49a60b00ab" target="_top" xlink:title="InstructionImpl::ishl">
<polygon fill="white" stroke="black" points="177.5,-190.5 177.5,-209.5 279.5,-209.5 279.5,-190.5 177.5,-190.5"/>
<text text-anchor="middle" x="228.5" y="-197.5" font-family="Helvetica,sans-Serif" font-size="10.00">InstructionImpl::ishl</text>
</a>
</g>
</g>
<!-- Node1&#45;&gt;Node12 -->
<g id="edge17" class="edge"><title>Node1&#45;&gt;Node12</title>
<path fill="none" stroke="midnightblue" d="M111.431,-226.176C135.187,-220.818 162.899,-214.569 185.286,-209.52"/>
<polygon fill="midnightblue" stroke="midnightblue" points="110.505,-222.797 101.52,-228.411 112.045,-229.625 110.505,-222.797"/>
</g>
<!-- Node13 -->
<g id="node13" class="node"><title>Node13</title>
<g id="a_node13"><a xlink:href="class_instruction_impl.html#ae967a67c9b37f6c225c8443c4b85748e" target="_top" xlink:title="InstructionImpl::lshl">
<polygon fill="white" stroke="black" points="177.5,-152.5 177.5,-171.5 279.5,-171.5 279.5,-152.5 177.5,-152.5"/>
<text text-anchor="middle" x="228.5" y="-159.5" font-family="Helvetica,sans-Serif" font-size="10.00">InstructionImpl::lshl</text>
</a>
</g>
</g>
<!-- Node1&#45;&gt;Node13 -->
<g id="edge19" class="edge"><title>Node1&#45;&gt;Node13</title>
<path fill="none" stroke="midnightblue" d="M80.0204,-222.54C98.2451,-209.783 125.748,-192.043 152,-181 160.846,-177.279 170.592,-174.16 180.06,-171.596"/>
<polygon fill="midnightblue" stroke="midnightblue" points="77.978,-219.698 71.8652,-228.351 82.0402,-225.398 77.978,-219.698"/>
</g>
<!-- Node14 -->
<g id="node14" class="node"><title>Node14</title>
<g id="a_node14"><a xlink:href="class_instruction_impl.html#ac68d41636161f33b4d65462b91264548" target="_top" xlink:title="InstructionImpl::ishr">
<polygon fill="white" stroke="black" points="177,-114.5 177,-133.5 280,-133.5 280,-114.5 177,-114.5"/>
<text text-anchor="middle" x="228.5" y="-121.5" font-family="Helvetica,sans-Serif" font-size="10.00">InstructionImpl::ishr</text>
</a>
</g>
</g>
<!-- Node1&#45;&gt;Node14 -->
<g id="edge21" class="edge"><title>Node1&#45;&gt;Node14</title>
<path fill="none" stroke="midnightblue" d="M71.7367,-219.893C87.9088,-198.282 117.85,-162.612 152,-143 159.619,-138.625 168.236,-135.246 176.853,-132.641"/>
<polygon fill="midnightblue" stroke="midnightblue" points="68.739,-218.064 65.6767,-228.207 74.3957,-222.187 68.739,-218.064"/>
</g>
<!-- Node15 -->
<g id="node15" class="node"><title>Node15</title>
<g id="a_node15"><a xlink:href="class_instruction_impl.html#aecca1e5322ed2ae9a3cf21a7b5716f77" target="_top" xlink:title="InstructionImpl::lshr">
<polygon fill="white" stroke="black" points="177,-76.5 177,-95.5 280,-95.5 280,-76.5 177,-76.5"/>
<text text-anchor="middle" x="228.5" y="-83.5" font-family="Helvetica,sans-Serif" font-size="10.00">InstructionImpl::lshr</text>
</a>
</g>
</g>
<!-- Node1&#45;&gt;Node15 -->
<g id="edge23" class="edge"><title>Node1&#45;&gt;Node15</title>
<path fill="none" stroke="midnightblue" d="M67.11,-218.66C80.4015,-189.398 109.647,-134.197 152,-105 159.456,-99.8601 168.181,-96.1092 176.999,-93.3722"/>
<polygon fill="midnightblue" stroke="midnightblue" points="63.7501,-217.607 62.9403,-228.171 70.1611,-220.418 63.7501,-217.607"/>
</g>
<!-- Node16 -->
<g id="node16" class="node"><title>Node16</title>
<g id="a_node16"><a xlink:href="class_instruction_impl.html#a23b84075b24e2a750e1d6cc6b22a9adb" target="_top" xlink:title="InstructionImpl::lushr">
<polygon fill="white" stroke="black" points="174.5,-38.5 174.5,-57.5 282.5,-57.5 282.5,-38.5 174.5,-38.5"/>
<text text-anchor="middle" x="228.5" y="-45.5" font-family="Helvetica,sans-Serif" font-size="10.00">InstructionImpl::lushr</text>
</a>
</g>
</g>
<!-- Node1&#45;&gt;Node16 -->
<g id="edge25" class="edge"><title>Node1&#45;&gt;Node16</title>
<path fill="none" stroke="midnightblue" d="M63.8976,-218.806C74.0158,-183.168 100.693,-106.788 152,-67 158.515,-61.9474 166.213,-58.2239 174.158,-55.483"/>
<polygon fill="midnightblue" stroke="midnightblue" points="60.5155,-217.906 61.2802,-228.473 67.2722,-219.735 60.5155,-217.906"/>
</g>
<!-- Node17 -->
<g id="node17" class="node"><title>Node17</title>
<g id="a_node17"><a xlink:href="class_instruction_impl.html#a4b4d6991094076af98ce5a5c4a2fedfa" target="_top" xlink:title="InstructionImpl::land">
<polygon fill="white" stroke="black" points="176,-0.5 176,-19.5 281,-19.5 281,-0.5 176,-0.5"/>
<text text-anchor="middle" x="228.5" y="-7.5" font-family="Helvetica,sans-Serif" font-size="10.00">InstructionImpl::land</text>
</a>
</g>
</g>
<!-- Node1&#45;&gt;Node17 -->
<g id="edge27" class="edge"><title>Node1&#45;&gt;Node17</title>
<path fill="none" stroke="midnightblue" d="M61.9067,-218.383C69.1313,-176.823 91.8653,-79.5822 152,-29 158.827,-23.2576 167.152,-19.2133 175.749,-16.3731"/>
<polygon fill="midnightblue" stroke="midnightblue" points="58.4394,-217.9 60.2938,-228.331 65.3491,-219.02 58.4394,-217.9"/>
</g>
<!-- Node3 -->
<g id="node3" class="node"><title>Node3</title>
<g id="a_node3"><a xlink:href="class_instruction.html#a145a172552303c9cbd8a5856e31a701b" target="_top" xlink:title="Instruction::init">
<polygon fill="white" stroke="black" points="341,-228.5 341,-247.5 422,-247.5 422,-228.5 341,-228.5"/>
<text text-anchor="middle" x="381.5" y="-235.5" font-family="Helvetica,sans-Serif" font-size="10.00">Instruction::init</text>
</a>
</g>
</g>
<!-- Node2&#45;&gt;Node3 -->
<g id="edge2" class="edge"><title>Node2&#45;&gt;Node3</title>
<path fill="none" stroke="midnightblue" d="M299.569,-451.285C301.472,-449.972 303.29,-448.547 305,-447 366.799,-391.098 378.062,-280.74 380.073,-247.619"/>
<polygon fill="midnightblue" stroke="midnightblue" points="297.675,-448.336 290.745,-456.35 301.16,-454.408 297.675,-448.336"/>
</g>
<!-- Node4 -->
<g id="node4" class="node"><title>Node4</title>
<g id="a_node4"><a xlink:href="class_code_attribute.html#a380eb04a01b0a0db351cf74443067ba4" target="_top" xlink:title="CodeAttribute::print">
<polygon fill="white" stroke="black" points="458,-247.5 458,-266.5 559,-266.5 559,-247.5 458,-247.5"/>
<text text-anchor="middle" x="508.5" y="-254.5" font-family="Helvetica,sans-Serif" font-size="10.00">CodeAttribute::print</text>
</a>
</g>
</g>
<!-- Node3&#45;&gt;Node4 -->
<g id="edge3" class="edge"><title>Node3&#45;&gt;Node4</title>
<path fill="none" stroke="midnightblue" d="M432.099,-245.539C440.505,-246.817 449.236,-248.144 457.648,-249.422"/>
<polygon fill="midnightblue" stroke="midnightblue" points="432.463,-242.054 422.051,-244.012 431.411,-248.975 432.463,-242.054"/>
</g>
<!-- Node5 -->
<g id="node5" class="node"><title>Node5</title>
<g id="a_node5"><a xlink:href="struct_frame.html#abe0b370087d05267cab997ecdc78c4bd" target="_top" xlink:title="Frame::Frame">
<polygon fill="white" stroke="black" points="469.5,-209.5 469.5,-228.5 547.5,-228.5 547.5,-209.5 469.5,-209.5"/>
<text text-anchor="middle" x="508.5" y="-216.5" font-family="Helvetica,sans-Serif" font-size="10.00">Frame::Frame</text>
</a>
</g>
</g>
<!-- Node3&#45;&gt;Node5 -->
<g id="edge4" class="edge"><title>Node3&#45;&gt;Node5</title>
<path fill="none" stroke="midnightblue" d="M432.257,-230.437C444.657,-228.552 457.755,-226.561 469.487,-224.778"/>
<polygon fill="midnightblue" stroke="midnightblue" points="431.411,-227.025 422.051,-231.988 432.463,-233.946 431.411,-227.025"/>
</g>
<!-- Node6&#45;&gt;Node3 -->
<g id="edge6" class="edge"><title>Node6&#45;&gt;Node3</title>
<path fill="none" stroke="midnightblue" d="M298.681,-413.611C300.895,-412.211 303.011,-410.678 305,-409 357.338,-364.847 374.69,-277.311 379.173,-247.901"/>
<polygon fill="midnightblue" stroke="midnightblue" points="296.905,-410.591 289.723,-418.381 300.195,-416.77 296.905,-410.591"/>
</g>
<!-- Node7&#45;&gt;Node3 -->
<g id="edge8" class="edge"><title>Node7&#45;&gt;Node3</title>
<path fill="none" stroke="midnightblue" d="M297.217,-376.064C299.941,-374.546 302.551,-372.863 305,-371 348.314,-338.037 370.672,-272.58 377.862,-247.808"/>
<polygon fill="midnightblue" stroke="midnightblue" points="295.704,-372.908 288.192,-380.379 298.723,-379.224 295.704,-372.908"/>
</g>
<!-- Node8&#45;&gt;Node3 -->
<g id="edge10" class="edge"><title>Node8&#45;&gt;Node3</title>
<path fill="none" stroke="midnightblue" d="M294.549,-338.685C298.193,-337.01 301.708,-335.124 305,-333 339.699,-310.617 365.522,-266.821 375.72,-247.521"/>
<polygon fill="midnightblue" stroke="midnightblue" points="293.237,-335.441 285.276,-342.431 295.859,-341.931 293.237,-335.441"/>
</g>
<!-- Node9&#45;&gt;Node3 -->
<g id="edge12" class="edge"><title>Node9&#45;&gt;Node3</title>
<path fill="none" stroke="midnightblue" d="M289.383,-301.319C294.766,-299.469 300.048,-297.372 305,-295 331.071,-282.515 356.98,-260.256 370.627,-247.563"/>
<polygon fill="midnightblue" stroke="midnightblue" points="288.123,-298.047 279.637,-304.389 290.227,-304.723 288.123,-298.047"/>
</g>
<!-- Node10&#45;&gt;Node3 -->
<g id="edge14" class="edge"><title>Node10&#45;&gt;Node3</title>
<path fill="none" stroke="midnightblue" d="M277.343,-263.96C298.439,-258.651 322.877,-252.501 342.67,-247.52"/>
<polygon fill="midnightblue" stroke="midnightblue" points="276.447,-260.576 267.604,-266.411 278.156,-267.365 276.447,-260.576"/>
</g>
<!-- Node11&#45;&gt;Node3 -->
<g id="edge16" class="edge"><title>Node11&#45;&gt;Node3</title>
<path fill="none" stroke="midnightblue" d="M291.267,-238C307.928,-238 325.513,-238 340.626,-238"/>
<polygon fill="midnightblue" stroke="midnightblue" points="291.043,-234.5 281.043,-238 291.043,-241.5 291.043,-234.5"/>
</g>
<!-- Node12&#45;&gt;Node3 -->
<g id="edge18" class="edge"><title>Node12&#45;&gt;Node3</title>
<path fill="none" stroke="midnightblue" d="M277.343,-212.04C298.439,-217.349 322.877,-223.499 342.67,-228.48"/>
<polygon fill="midnightblue" stroke="midnightblue" points="278.156,-208.635 267.604,-209.589 276.447,-215.424 278.156,-208.635"/>
</g>
<!-- Node13&#45;&gt;Node3 -->
<g id="edge20" class="edge"><title>Node13&#45;&gt;Node3</title>
<path fill="none" stroke="midnightblue" d="M289.383,-174.681C294.766,-176.531 300.048,-178.628 305,-181 331.071,-193.485 356.98,-215.744 370.627,-228.437"/>
<polygon fill="midnightblue" stroke="midnightblue" points="290.227,-171.277 279.637,-171.611 288.123,-177.953 290.227,-171.277"/>
</g>
<!-- Node14&#45;&gt;Node3 -->
<g id="edge22" class="edge"><title>Node14&#45;&gt;Node3</title>
<path fill="none" stroke="midnightblue" d="M289.86,-135.299C295.179,-137.436 300.315,-139.978 305,-143 339.699,-165.383 365.522,-209.179 375.72,-228.479"/>
<polygon fill="midnightblue" stroke="midnightblue" points="290.74,-131.898 280.145,-131.871 288.411,-138.499 290.74,-131.898"/>
</g>
<!-- Node15&#45;&gt;Node3 -->
<g id="edge24" class="edge"><title>Node15&#45;&gt;Node3</title>
<path fill="none" stroke="midnightblue" d="M289.506,-96.1703C295.037,-98.5318 300.314,-101.434 305,-105 348.314,-137.963 370.672,-203.42 377.862,-228.192"/>
<polygon fill="midnightblue" stroke="midnightblue" points="290.609,-92.847 280.015,-92.685 288.196,-99.4179 290.609,-92.847"/>
</g>
<!-- Node16&#45;&gt;Node3 -->
<g id="edge26" class="edge"><title>Node16&#45;&gt;Node3</title>
<path fill="none" stroke="midnightblue" d="M292.401,-58.8783C296.926,-61.1131 301.197,-63.7916 305,-67 357.338,-111.153 374.69,-198.689 379.173,-228.099"/>
<polygon fill="midnightblue" stroke="midnightblue" points="293.401,-55.5033 282.824,-54.887 290.708,-61.9646 293.401,-55.5033"/>
</g>
<!-- Node17&#45;&gt;Node3 -->
<g id="edge28" class="edge"><title>Node17&#45;&gt;Node3</title>
<path fill="none" stroke="midnightblue" d="M290.791,-19.6721C295.958,-22.1399 300.803,-25.2031 305,-29 366.799,-84.9023 378.062,-195.26 380.073,-228.381"/>
<polygon fill="midnightblue" stroke="midnightblue" points="291.796,-16.3045 281.211,-15.8431 289.197,-22.8046 291.796,-16.3045"/>
</g>
</g>
</svg>
