<?xml version="1.0" encoding="UTF-8" standalone="no"?>
<!DOCTYPE svg PUBLIC "-//W3C//DTD SVG 1.1//EN"
 "http://www.w3.org/Graphics/SVG/1.1/DTD/svg11.dtd">
<!-- Generated by graphviz version 2.38.0 (20140413.2041)
 -->
<!-- Title: Interpreter::execute Pages: 1 -->
<svg width="602pt" height="211pt"
 viewBox="0.00 0.00 602.00 210.50" xmlns="http://www.w3.org/2000/svg" xmlns:xlink="http://www.w3.org/1999/xlink">
<g id="graph0" class="graph" transform="scale(1 1) rotate(0) translate(4 206.5)">
<title>Interpreter::execute</title>
<polygon fill="white" stroke="none" points="-4,4 -4,-206.5 598,-206.5 598,4 -4,4"/>
<!-- Node1 -->
<g id="node1" class="node"><title>Node1</title>
<polygon fill="#bfbfbf" stroke="black" points="0,-126 0,-145 101,-145 101,-126 0,-126"/>
<text text-anchor="middle" x="50.5" y="-133" font-family="Helvetica,sans-Serif" font-size="10.00">Interpreter::execute</text>
</g>
<!-- Node2 -->
<g id="node2" class="node"><title>Node2</title>
<g id="a_node2"><a xlink:href="class_interpreter.html#ab8fa17a7a73d119f3a3113555aef9702" target="_top" xlink:title="Interpreter::loadInMemo">
<polygon fill="white" stroke="black" points="137,-164 137,-183 257,-183 257,-164 137,-164"/>
<text text-anchor="middle" x="197" y="-171" font-family="Helvetica,sans-Serif" font-size="10.00">Interpreter::loadInMemo</text>
</a>
</g>
</g>
<!-- Node1&#45;&gt;Node2 -->
<g id="edge1" class="edge"><title>Node1&#45;&gt;Node2</title>
<path fill="none" stroke="midnightblue" d="M87.9635,-145.089C106.774,-150.036 129.915,-156.121 149.947,-161.389"/>
<polygon fill="midnightblue" stroke="midnightblue" points="149.237,-164.822 159.799,-163.98 151.018,-158.052 149.237,-164.822"/>
</g>
<!-- Node4 -->
<g id="node4" class="node"><title>Node4</title>
<g id="a_node4"><a xlink:href="class_class_loader.html#a8f3dc8367a76e7a4594bd5e8206d3977" target="_top" xlink:title="ClassLoader::getConstPool">
<polygon fill="white" stroke="black" points="457,-126 457,-145 594,-145 594,-126 457,-126"/>
<text text-anchor="middle" x="525.5" y="-133" font-family="Helvetica,sans-Serif" font-size="10.00">ClassLoader::getConstPool</text>
</a>
</g>
</g>
<!-- Node1&#45;&gt;Node4 -->
<g id="edge6" class="edge"><title>Node1&#45;&gt;Node4</title>
<path fill="none" stroke="midnightblue" d="M101.225,-135.5C183.58,-135.5 348.896,-135.5 446.778,-135.5"/>
<polygon fill="midnightblue" stroke="midnightblue" points="446.91,-139 456.91,-135.5 446.91,-132 446.91,-139"/>
</g>
<!-- Node6 -->
<g id="node6" class="node"><title>Node6</title>
<g id="a_node6"><a xlink:href="class_interpreter.html#a9be1f0faf7df7c81dc180da22ea08fa5" target="_top" xlink:title="Interpreter::mainFinder">
<polygon fill="white" stroke="black" points="139.5,-69 139.5,-88 254.5,-88 254.5,-69 139.5,-69"/>
<text text-anchor="middle" x="197" y="-76" font-family="Helvetica,sans-Serif" font-size="10.00">Interpreter::mainFinder</text>
</a>
</g>
</g>
<!-- Node1&#45;&gt;Node6 -->
<g id="edge7" class="edge"><title>Node1&#45;&gt;Node6</title>
<path fill="none" stroke="midnightblue" d="M75.6861,-125.959C99.3383,-116.63 135.568,-102.338 162.091,-91.8758"/>
<polygon fill="midnightblue" stroke="midnightblue" points="163.717,-94.997 171.735,-88.0716 161.148,-88.4853 163.717,-94.997"/>
</g>
<!-- Node3 -->
<g id="node3" class="node"><title>Node3</title>
<g id="a_node3"><a xlink:href="class_interpreter.html#a39a3745e54aa3cee8882075c96ae8b3f" target="_top" xlink:title="Interpreter::loadVariables">
<polygon fill="white" stroke="black" points="294.5,-164 294.5,-183 419.5,-183 419.5,-164 294.5,-164"/>
<text text-anchor="middle" x="357" y="-171" font-family="Helvetica,sans-Serif" font-size="10.00">Interpreter::loadVariables</text>
</a>
</g>
</g>
<!-- Node2&#45;&gt;Node3 -->
<g id="edge2" class="edge"><title>Node2&#45;&gt;Node3</title>
<path fill="none" stroke="midnightblue" d="M257.283,-173.5C266.063,-173.5 275.189,-173.5 284.191,-173.5"/>
<polygon fill="midnightblue" stroke="midnightblue" points="284.275,-177 294.275,-173.5 284.275,-170 284.275,-177"/>
</g>
<!-- Node3&#45;&gt;Node4 -->
<g id="edge3" class="edge"><title>Node3&#45;&gt;Node4</title>
<path fill="none" stroke="midnightblue" d="M400.015,-163.911C422.184,-158.851 449.573,-152.6 473.011,-147.251"/>
<polygon fill="midnightblue" stroke="midnightblue" points="473.817,-150.657 482.787,-145.02 472.259,-143.833 473.817,-150.657"/>
</g>
<!-- Node5 -->
<g id="node5" class="node"><title>Node5</title>
<g id="a_node5"><a xlink:href="class_interpreter.html#a99a623bb05c66632d0ab034ebaf2cf51" target="_top" xlink:title="Interpreter::getClassInfo">
<polygon fill="white" stroke="black" points="464.5,-183 464.5,-202 586.5,-202 586.5,-183 464.5,-183"/>
<text text-anchor="middle" x="525.5" y="-190" font-family="Helvetica,sans-Serif" font-size="10.00">Interpreter::getClassInfo</text>
</a>
</g>
</g>
<!-- Node3&#45;&gt;Node5 -->
<g id="edge4" class="edge"><title>Node3&#45;&gt;Node5</title>
<path fill="none" stroke="midnightblue" d="M419.525,-180.521C430.846,-181.813 442.742,-183.17 454.295,-184.489"/>
<polygon fill="midnightblue" stroke="midnightblue" points="454.004,-187.978 464.336,-185.634 454.798,-181.023 454.004,-187.978"/>
</g>
<!-- Node5&#45;&gt;Node2 -->
<g id="edge5" class="edge"><title>Node5&#45;&gt;Node2</title>
<path fill="none" stroke="midnightblue" d="M464.383,-195.739C417.56,-197.48 350.993,-198.242 293,-192.5 277.769,-190.992 261.362,-188.155 246.54,-185.125"/>
<polygon fill="midnightblue" stroke="midnightblue" points="247.074,-181.66 236.565,-183.01 245.622,-188.508 247.074,-181.66"/>
</g>
<!-- Node6&#45;&gt;Node4 -->
<g id="edge10" class="edge"><title>Node6&#45;&gt;Node4</title>
<path fill="none" stroke="midnightblue" d="M252.649,-88.0405C309.709,-98.002 399.164,-113.619 459.735,-124.193"/>
<polygon fill="midnightblue" stroke="midnightblue" points="459.492,-127.704 469.945,-125.976 460.696,-120.808 459.492,-127.704"/>
</g>
<!-- Node7 -->
<g id="node7" class="node"><title>Node7</title>
<g id="a_node7"><a xlink:href="class_class_loader.html#ad4733587ddbe1ae25500c13181bfb5ca" target="_top" xlink:title="ClassLoader::getMethods">
<polygon fill="white" stroke="black" points="293,-50 293,-69 421,-69 421,-50 293,-50"/>
<text text-anchor="middle" x="357" y="-57" font-family="Helvetica,sans-Serif" font-size="10.00">ClassLoader::getMethods</text>
</a>
</g>
</g>
<!-- Node6&#45;&gt;Node7 -->
<g id="edge8" class="edge"><title>Node6&#45;&gt;Node7</title>
<path fill="none" stroke="midnightblue" d="M254.595,-71.6942C263.699,-70.5995 273.236,-69.4527 282.664,-68.3189"/>
<polygon fill="midnightblue" stroke="midnightblue" points="283.316,-71.7657 292.827,-67.0968 282.481,-64.8158 283.316,-71.7657"/>
</g>
<!-- Node8 -->
<g id="node8" class="node"><title>Node8</title>
<g id="a_node8"><a xlink:href="struct_cp_attribute_interface.html#a99cabbc15a0af5273a6d324dfbc78f41" target="_top" xlink:title="CpAttributeInterface\l::getUTF8">
<polygon fill="white" stroke="black" points="305,-0.5 305,-30.5 409,-30.5 409,-0.5 305,-0.5"/>
<text text-anchor="start" x="313" y="-18.5" font-family="Helvetica,sans-Serif" font-size="10.00">CpAttributeInterface</text>
<text text-anchor="middle" x="357" y="-7.5" font-family="Helvetica,sans-Serif" font-size="10.00">::getUTF8</text>
</a>
</g>
</g>
<!-- Node6&#45;&gt;Node8 -->
<g id="edge9" class="edge"><title>Node6&#45;&gt;Node8</title>
<path fill="none" stroke="midnightblue" d="M221.808,-68.9557C241.019,-61.2597 268.742,-50.1647 293,-40.5 298.056,-38.4857 303.341,-36.3832 308.608,-34.2902"/>
<polygon fill="midnightblue" stroke="midnightblue" points="310.013,-37.4982 318.015,-30.554 307.429,-30.9925 310.013,-37.4982"/>
</g>
</g>
</svg>
