<?xml version="1.0" encoding="UTF-8" standalone="no"?>
<!DOCTYPE svg PUBLIC "-//W3C//DTD SVG 1.1//EN"
 "http://www.w3.org/Graphics/SVG/1.1/DTD/svg11.dtd">
<!-- Generated by graphviz version 2.38.0 (20140413.2041)
 -->
<!-- Title: Interpreter::loadVariables Pages: 1 -->
<svg width="462pt" height="85pt"
 viewBox="0.00 0.00 462.00 85.00" xmlns="http://www.w3.org/2000/svg" xmlns:xlink="http://www.w3.org/1999/xlink">
<g id="graph0" class="graph" transform="scale(1 1) rotate(0) translate(4 81)">
<title>Interpreter::loadVariables</title>
<polygon fill="white" stroke="none" points="-4,4 -4,-81 458,-81 458,4 -4,4"/>
<!-- Node1 -->
<g id="node1" class="node"><title>Node1</title>
<polygon fill="#bfbfbf" stroke="black" points="0,-19.5 0,-38.5 125,-38.5 125,-19.5 0,-19.5"/>
<text text-anchor="middle" x="62.5" y="-26.5" font-family="Helvetica,sans-Serif" font-size="10.00">Interpreter::loadVariables</text>
</g>
<!-- Node2 -->
<g id="node2" class="node"><title>Node2</title>
<g id="a_node2"><a xlink:href="class_class_loader.html#a8f3dc8367a76e7a4594bd5e8206d3977" target="_top" xlink:title="ClassLoader::getConstPool">
<polygon fill="white" stroke="black" points="161,-57.5 161,-76.5 298,-76.5 298,-57.5 161,-57.5"/>
<text text-anchor="middle" x="229.5" y="-64.5" font-family="Helvetica,sans-Serif" font-size="10.00">ClassLoader::getConstPool</text>
</a>
</g>
</g>
<!-- Node1&#45;&gt;Node2 -->
<g id="edge1" class="edge"><title>Node1&#45;&gt;Node2</title>
<path fill="none" stroke="midnightblue" d="M105.136,-38.589C127.008,-43.6261 154.006,-49.8438 177.164,-55.1771"/>
<polygon fill="midnightblue" stroke="midnightblue" points="176.633,-58.6463 187.163,-57.4799 178.204,-51.8249 176.633,-58.6463"/>
</g>
<!-- Node3 -->
<g id="node3" class="node"><title>Node3</title>
<g id="a_node3"><a xlink:href="class_interpreter.html#a99a623bb05c66632d0ab034ebaf2cf51" target="_top" xlink:title="Interpreter::getClassInfo">
<polygon fill="white" stroke="black" points="168.5,-19.5 168.5,-38.5 290.5,-38.5 290.5,-19.5 168.5,-19.5"/>
<text text-anchor="middle" x="229.5" y="-26.5" font-family="Helvetica,sans-Serif" font-size="10.00">Interpreter::getClassInfo</text>
</a>
</g>
</g>
<!-- Node1&#45;&gt;Node3 -->
<g id="edge2" class="edge"><title>Node1&#45;&gt;Node3</title>
<path fill="none" stroke="midnightblue" d="M125.409,-29C136.081,-29 147.244,-29 158.12,-29"/>
<polygon fill="midnightblue" stroke="midnightblue" points="158.433,-32.5001 168.433,-29 158.433,-25.5001 158.433,-32.5001"/>
</g>
<!-- Node4 -->
<g id="node4" class="node"><title>Node4</title>
<g id="a_node4"><a xlink:href="class_interpreter.html#ab8fa17a7a73d119f3a3113555aef9702" target="_top" xlink:title="Interpreter::loadInMemo">
<polygon fill="white" stroke="black" points="334,-0.5 334,-19.5 454,-19.5 454,-0.5 334,-0.5"/>
<text text-anchor="middle" x="394" y="-7.5" font-family="Helvetica,sans-Serif" font-size="10.00">Interpreter::loadInMemo</text>
</a>
</g>
</g>
<!-- Node3&#45;&gt;Node4 -->
<g id="edge3" class="edge"><title>Node3&#45;&gt;Node4</title>
<path fill="none" stroke="midnightblue" d="M290.547,-21.9791C301.346,-20.7165 312.681,-19.3911 323.716,-18.1009"/>
<polygon fill="midnightblue" stroke="midnightblue" points="324.215,-21.5665 333.741,-16.9287 323.402,-14.6138 324.215,-21.5665"/>
</g>
<!-- Node4&#45;&gt;Node1 -->
<g id="edge4" class="edge"><title>Node4&#45;&gt;Node1</title>
<path fill="none" stroke="midnightblue" d="M333.729,-6.87043C286.762,-5.14443 219.533,-4.34988 161,-10 145.229,-11.5223 128.22,-14.3992 112.893,-17.4622"/>
<polygon fill="midnightblue" stroke="midnightblue" points="112.177,-14.0361 103.094,-19.4896 113.595,-20.8909 112.177,-14.0361"/>
</g>
</g>
</svg>
