<?xml version="1.0" encoding="UTF-8" standalone="no"?>
<!DOCTYPE svg PUBLIC "-//W3C//DTD SVG 1.1//EN"
 "http://www.w3.org/Graphics/SVG/1.1/DTD/svg11.dtd">
<!-- Generated by graphviz version 2.38.0 (20140413.2041)
 -->
<!-- Title: ClassLoader::getThisClass Pages: 1 -->
<svg width="575pt" height="104pt"
 viewBox="0.00 0.00 575.00 104.00" xmlns="http://www.w3.org/2000/svg" xmlns:xlink="http://www.w3.org/1999/xlink">
<g id="graph0" class="graph" transform="scale(1 1) rotate(0) translate(4 100)">
<title>ClassLoader::getThisClass</title>
<polygon fill="white" stroke="none" points="-4,4 -4,-100 571,-100 571,4 -4,4"/>
<!-- Node1 -->
<g id="node1" class="node"><title>Node1</title>
<polygon fill="#bfbfbf" stroke="black" points="0,-38.5 0,-57.5 135,-57.5 135,-38.5 0,-38.5"/>
<text text-anchor="middle" x="67.5" y="-45.5" font-family="Helvetica,sans-Serif" font-size="10.00">ClassLoader::getThisClass</text>
</g>
<!-- Node2 -->
<g id="node2" class="node"><title>Node2</title>
<g id="a_node2"><a xlink:href="struct_instance.html#aca86b4cbc971ace708021f8ef2c6ce43" target="_top" xlink:title="Instance::Instance">
<polygon fill="white" stroke="black" points="193,-76.5 193,-95.5 291,-95.5 291,-76.5 193,-76.5"/>
<text text-anchor="middle" x="242" y="-83.5" font-family="Helvetica,sans-Serif" font-size="10.00">Instance::Instance</text>
</a>
</g>
</g>
<!-- Node1&#45;&gt;Node2 -->
<g id="edge1" class="edge"><title>Node1&#45;&gt;Node2</title>
<path fill="none" stroke="midnightblue" d="M121.851,-59.7526C146.242,-65.1258 174.763,-71.4086 197.784,-76.4799"/>
<polygon fill="midnightblue" stroke="midnightblue" points="122.548,-56.3224 112.029,-57.589 121.042,-63.1584 122.548,-56.3224"/>
</g>
<!-- Node3 -->
<g id="node3" class="node"><title>Node3</title>
<g id="a_node3"><a xlink:href="class_instruction_impl.html#a3d197a31eaa6bc79b6d882b0ac9f1a67" target="_top" xlink:title="InstructionImpl::invokevirtual">
<polygon fill="white" stroke="black" points="171,-38.5 171,-57.5 313,-57.5 313,-38.5 171,-38.5"/>
<text text-anchor="middle" x="242" y="-45.5" font-family="Helvetica,sans-Serif" font-size="10.00">InstructionImpl::invokevirtual</text>
</a>
</g>
</g>
<!-- Node1&#45;&gt;Node3 -->
<g id="edge2" class="edge"><title>Node1&#45;&gt;Node3</title>
<path fill="none" stroke="midnightblue" d="M145.41,-48C153.853,-48 162.417,-48 170.773,-48"/>
<polygon fill="midnightblue" stroke="midnightblue" points="145.193,-44.5001 135.193,-48 145.193,-51.5001 145.193,-44.5001"/>
</g>
<!-- Node7 -->
<g id="node7" class="node"><title>Node7</title>
<g id="a_node7"><a xlink:href="jvm_8cpp.html#a893044ba12149c5e0ed3b4a19474fc4a" target="_top" xlink:title="Chama o exibidor de ClassLoader. ">
<polygon fill="white" stroke="black" points="206.5,-0.5 206.5,-19.5 277.5,-19.5 277.5,-0.5 206.5,-0.5"/>
<text text-anchor="middle" x="242" y="-7.5" font-family="Helvetica,sans-Serif" font-size="10.00">classReader</text>
</a>
</g>
</g>
<!-- Node1&#45;&gt;Node7 -->
<g id="edge6" class="edge"><title>Node1&#45;&gt;Node7</title>
<path fill="none" stroke="midnightblue" d="M121.914,-36.2335C149.458,-30.1658 182.254,-22.9412 206.448,-17.6114"/>
<polygon fill="midnightblue" stroke="midnightblue" points="121.042,-32.8416 112.029,-38.411 122.548,-39.6776 121.042,-32.8416"/>
</g>
<!-- Node4 -->
<g id="node4" class="node"><title>Node4</title>
<g id="a_node4"><a xlink:href="class_instruction.html#a145a172552303c9cbd8a5856e31a701b" target="_top" xlink:title="Instruction::init">
<polygon fill="white" stroke="black" points="349,-38.5 349,-57.5 430,-57.5 430,-38.5 349,-38.5"/>
<text text-anchor="middle" x="389.5" y="-45.5" font-family="Helvetica,sans-Serif" font-size="10.00">Instruction::init</text>
</a>
</g>
</g>
<!-- Node3&#45;&gt;Node4 -->
<g id="edge3" class="edge"><title>Node3&#45;&gt;Node4</title>
<path fill="none" stroke="midnightblue" d="M323.201,-48C332.035,-48 340.72,-48 348.729,-48"/>
<polygon fill="midnightblue" stroke="midnightblue" points="323.193,-44.5001 313.193,-48 323.193,-51.5001 323.193,-44.5001"/>
</g>
<!-- Node5 -->
<g id="node5" class="node"><title>Node5</title>
<g id="a_node5"><a xlink:href="class_code_attribute.html#a380eb04a01b0a0db351cf74443067ba4" target="_top" xlink:title="CodeAttribute::print">
<polygon fill="white" stroke="black" points="466,-57.5 466,-76.5 567,-76.5 567,-57.5 466,-57.5"/>
<text text-anchor="middle" x="516.5" y="-64.5" font-family="Helvetica,sans-Serif" font-size="10.00">CodeAttribute::print</text>
</a>
</g>
</g>
<!-- Node4&#45;&gt;Node5 -->
<g id="edge4" class="edge"><title>Node4&#45;&gt;Node5</title>
<path fill="none" stroke="midnightblue" d="M440.099,-55.539C448.505,-56.8167 457.236,-58.1438 465.648,-59.4224"/>
<polygon fill="midnightblue" stroke="midnightblue" points="440.463,-52.0543 430.051,-54.0117 439.411,-58.9748 440.463,-52.0543"/>
</g>
<!-- Node6 -->
<g id="node6" class="node"><title>Node6</title>
<g id="a_node6"><a xlink:href="struct_frame.html#abe0b370087d05267cab997ecdc78c4bd" target="_top" xlink:title="Frame::Frame">
<polygon fill="white" stroke="black" points="477.5,-19.5 477.5,-38.5 555.5,-38.5 555.5,-19.5 477.5,-19.5"/>
<text text-anchor="middle" x="516.5" y="-26.5" font-family="Helvetica,sans-Serif" font-size="10.00">Frame::Frame</text>
</a>
</g>
</g>
<!-- Node4&#45;&gt;Node6 -->
<g id="edge5" class="edge"><title>Node4&#45;&gt;Node6</title>
<path fill="none" stroke="midnightblue" d="M440.257,-40.437C452.657,-38.5522 465.755,-36.5612 477.487,-34.778"/>
<polygon fill="midnightblue" stroke="midnightblue" points="439.411,-37.0252 430.051,-41.9883 440.463,-43.9457 439.411,-37.0252"/>
</g>
<!-- Node8 -->
<g id="node8" class="node"><title>Node8</title>
<g id="a_node8"><a xlink:href="jvm_8cpp.html#a0ddf1224851353fc92bfbff6f499fa97" target="_top" xlink:title="Função main. ">
<polygon fill="white" stroke="black" points="370.5,-0.5 370.5,-19.5 408.5,-19.5 408.5,-0.5 370.5,-0.5"/>
<text text-anchor="middle" x="389.5" y="-7.5" font-family="Helvetica,sans-Serif" font-size="10.00">main</text>
</a>
</g>
</g>
<!-- Node7&#45;&gt;Node8 -->
<g id="edge7" class="edge"><title>Node7&#45;&gt;Node8</title>
<path fill="none" stroke="midnightblue" d="M288.127,-10C315.85,-10 349.859,-10 370.322,-10"/>
<polygon fill="midnightblue" stroke="midnightblue" points="287.851,-6.5001 277.851,-10 287.851,-13.5001 287.851,-6.5001"/>
</g>
</g>
</svg>
