<?xml version="1.0" encoding="UTF-8" standalone="no"?>
<!DOCTYPE svg PUBLIC "-//W3C//DTD SVG 1.1//EN"
 "http://www.w3.org/Graphics/SVG/1.1/DTD/svg11.dtd">
<!-- Generated by graphviz version 2.38.0 (20140413.2041)
 -->
<!-- Title: ClassLoader::getConstCount Pages: 1 -->
<svg width="332pt" height="28pt"
 viewBox="0.00 0.00 332.00 28.00" xmlns="http://www.w3.org/2000/svg" xmlns:xlink="http://www.w3.org/1999/xlink">
<g id="graph0" class="graph" transform="scale(1 1) rotate(0) translate(4 24)">
<title>ClassLoader::getConstCount</title>
<polygon fill="white" stroke="none" points="-4,4 -4,-24 328,-24 328,4 -4,4"/>
<!-- Node1 -->
<g id="node1" class="node"><title>Node1</title>
<polygon fill="#bfbfbf" stroke="black" points="0,-0.5 0,-19.5 143,-19.5 143,-0.5 0,-0.5"/>
<text text-anchor="middle" x="71.5" y="-7.5" font-family="Helvetica,sans-Serif" font-size="10.00">ClassLoader::getConstCount</text>
</g>
<!-- Node2 -->
<g id="node2" class="node"><title>Node2</title>
<g id="a_node2"><a xlink:href="jvm_8cpp.html#a893044ba12149c5e0ed3b4a19474fc4a" target="_top" xlink:title="Chama o exibidor de ClassLoader. ">
<polygon fill="white" stroke="black" points="179,-0.5 179,-19.5 250,-19.5 250,-0.5 179,-0.5"/>
<text text-anchor="middle" x="214.5" y="-7.5" font-family="Helvetica,sans-Serif" font-size="10.00">classReader</text>
</a>
</g>
</g>
<!-- Node1&#45;&gt;Node2 -->
<g id="edge1" class="edge"><title>Node1&#45;&gt;Node2</title>
<path fill="none" stroke="midnightblue" d="M153.504,-10C162.384,-10 171.036,-10 178.881,-10"/>
<polygon fill="midnightblue" stroke="midnightblue" points="153.413,-6.5001 143.413,-10 153.413,-13.5001 153.413,-6.5001"/>
</g>
<!-- Node3 -->
<g id="node3" class="node"><title>Node3</title>
<g id="a_node3"><a xlink:href="jvm_8cpp.html#a0ddf1224851353fc92bfbff6f499fa97" target="_top" xlink:title="Função main. ">
<polygon fill="white" stroke="black" points="286,-0.5 286,-19.5 324,-19.5 324,-0.5 286,-0.5"/>
<text text-anchor="middle" x="305" y="-7.5" font-family="Helvetica,sans-Serif" font-size="10.00">main</text>
</a>
</g>
</g>
<!-- Node2&#45;&gt;Node3 -->
<g id="edge2" class="edge"><title>Node2&#45;&gt;Node3</title>
<path fill="none" stroke="midnightblue" d="M260.381,-10C269.435,-10 278.455,-10 285.922,-10"/>
<polygon fill="midnightblue" stroke="midnightblue" points="260.224,-6.5001 250.224,-10 260.224,-13.5001 260.224,-6.5001"/>
</g>
</g>
</svg>
