<?xml version="1.0" encoding="UTF-8" standalone="no"?>
<!DOCTYPE svg PUBLIC "-//W3C//DTD SVG 1.1//EN"
 "http://www.w3.org/Graphics/SVG/1.1/DTD/svg11.dtd">
<!-- Generated by graphviz version 2.38.0 (20140413.2041)
 -->
<!-- Title: ClassLoader::setConstPool Pages: 1 -->
<svg width="407pt" height="28pt"
 viewBox="0.00 0.00 407.00 28.00" xmlns="http://www.w3.org/2000/svg" xmlns:xlink="http://www.w3.org/1999/xlink">
<g id="graph0" class="graph" transform="scale(1 1) rotate(0) translate(4 24)">
<title>ClassLoader::setConstPool</title>
<polygon fill="white" stroke="none" points="-4,4 -4,-24 403,-24 403,4 -4,4"/>
<!-- Node1 -->
<g id="node1" class="node"><title>Node1</title>
<polygon fill="#bfbfbf" stroke="black" points="0,-0.5 0,-19.5 137,-19.5 137,-0.5 0,-0.5"/>
<text text-anchor="middle" x="68.5" y="-7.5" font-family="Helvetica,sans-Serif" font-size="10.00">ClassLoader::setConstPool</text>
</g>
<!-- Node2 -->
<g id="node2" class="node"><title>Node2</title>
<g id="a_node2"><a xlink:href="class_cp_info.html#ab8c89df973cc40b407e0cdd4911923f1" target="_top" xlink:title="CpInfo::read">
<polygon fill="white" stroke="black" points="173,-0.5 173,-19.5 244,-19.5 244,-0.5 173,-0.5"/>
<text text-anchor="middle" x="208.5" y="-7.5" font-family="Helvetica,sans-Serif" font-size="10.00">CpInfo::read</text>
</a>
</g>
</g>
<!-- Node1&#45;&gt;Node2 -->
<g id="edge1" class="edge"><title>Node1&#45;&gt;Node2</title>
<path fill="none" stroke="midnightblue" d="M137.287,-10C145.818,-10 154.374,-10 162.433,-10"/>
<polygon fill="midnightblue" stroke="midnightblue" points="162.696,-13.5001 172.696,-10 162.696,-6.5001 162.696,-13.5001"/>
</g>
<!-- Node3 -->
<g id="node3" class="node"><title>Node3</title>
<g id="a_node3"><a xlink:href="class_byte_reader.html#ae570748805994596f51ae033183935d7" target="_top" xlink:title="ByteReader::byteCatch">
<polygon fill="white" stroke="black" points="280,-0.5 280,-19.5 399,-19.5 399,-0.5 280,-0.5"/>
<text text-anchor="middle" x="339.5" y="-7.5" font-family="Helvetica,sans-Serif" font-size="10.00">ByteReader::byteCatch</text>
</a>
</g>
</g>
<!-- Node2&#45;&gt;Node3 -->
<g id="edge2" class="edge"><title>Node2&#45;&gt;Node3</title>
<path fill="none" stroke="midnightblue" d="M244.07,-10C252.095,-10 260.914,-10 269.841,-10"/>
<polygon fill="midnightblue" stroke="midnightblue" points="269.927,-13.5001 279.927,-10 269.927,-6.5001 269.927,-13.5001"/>
</g>
</g>
</svg>
