<?xml version="1.0" encoding="UTF-8" standalone="no"?>
<!DOCTYPE svg PUBLIC "-//W3C//DTD SVG 1.1//EN"
 "http://www.w3.org/Graphics/SVG/1.1/DTD/svg11.dtd">
<!-- Generated by graphviz version 2.38.0 (20140413.2041)
 -->
<!-- Title: MethodsArea::findMethodByNameOrDeor Pages: 1 -->
<svg width="492pt" height="131pt"
 viewBox="0.00 0.00 492.00 131.23" xmlns="http://www.w3.org/2000/svg" xmlns:xlink="http://www.w3.org/1999/xlink">
<g id="graph0" class="graph" transform="scale(1 1) rotate(0) translate(4 127.23)">
<title>MethodsArea::findMethodByNameOrDeor</title>
<polygon fill="white" stroke="none" points="-4,4 -4,-127.23 488,-127.23 488,4 -4,4"/>
<!-- Node1 -->
<g id="node1" class="node"><title>Node1</title>
<polygon fill="#bfbfbf" stroke="black" points="0,-63.5 0,-93.5 140,-93.5 140,-63.5 0,-63.5"/>
<text text-anchor="start" x="8" y="-81.5" font-family="Helvetica,sans-Serif" font-size="10.00">MethodsArea::findMethodBy</text>
<text text-anchor="middle" x="70" y="-70.5" font-family="Helvetica,sans-Serif" font-size="10.00">NameOrDeor</text>
</g>
<!-- Node2 -->
<g id="node2" class="node"><title>Node2</title>
<g id="a_node2"><a xlink:href="class_class_loader.html#ad4733587ddbe1ae25500c13181bfb5ca" target="_top" xlink:title="ClassLoader::getMethods">
<polygon fill="white" stroke="black" points="356,-88 356,-107 484,-107 484,-88 356,-88"/>
<text text-anchor="middle" x="420" y="-95" font-family="Helvetica,sans-Serif" font-size="10.00">ClassLoader::getMethods</text>
</a>
</g>
</g>
<!-- Node1&#45;&gt;Node2 -->
<g id="edge1" class="edge"><title>Node1&#45;&gt;Node2</title>
<path fill="none" stroke="midnightblue" d="M103.763,-93.6942C124.077,-102.265 150.986,-112.113 176,-116.5 239.038,-127.556 256.287,-122.559 320,-116.5 336.007,-114.978 353.276,-112.101 368.839,-109.038"/>
<polygon fill="midnightblue" stroke="midnightblue" points="369.69,-112.437 378.789,-107.011 368.292,-105.578 369.69,-112.437"/>
</g>
<!-- Node3 -->
<g id="node3" class="node"><title>Node3</title>
<g id="a_node3"><a xlink:href="class_class_loader.html#a8f3dc8367a76e7a4594bd5e8206d3977" target="_top" xlink:title="ClassLoader::getConstPool">
<polygon fill="white" stroke="black" points="179.5,-88 179.5,-107 316.5,-107 316.5,-88 179.5,-88"/>
<text text-anchor="middle" x="248" y="-95" font-family="Helvetica,sans-Serif" font-size="10.00">ClassLoader::getConstPool</text>
</a>
</g>
</g>
<!-- Node1&#45;&gt;Node3 -->
<g id="edge2" class="edge"><title>Node1&#45;&gt;Node3</title>
<path fill="none" stroke="midnightblue" d="M140.055,-85.9548C149.632,-86.9887 159.524,-88.0566 169.247,-89.1062"/>
<polygon fill="midnightblue" stroke="midnightblue" points="168.98,-92.5976 179.298,-90.1913 169.731,-85.6381 168.98,-92.5976"/>
</g>
<!-- Node4 -->
<g id="node4" class="node"><title>Node4</title>
<g id="a_node4"><a xlink:href="class_class_loader.html#acad870c7b405146242912190e1e71f7c" target="_top" xlink:title="ClassLoader::getMethoCount">
<polygon fill="white" stroke="black" points="176,-50 176,-69 320,-69 320,-50 176,-50"/>
<text text-anchor="middle" x="248" y="-57" font-family="Helvetica,sans-Serif" font-size="10.00">ClassLoader::getMethoCount</text>
</a>
</g>
</g>
<!-- Node1&#45;&gt;Node4 -->
<g id="edge3" class="edge"><title>Node1&#45;&gt;Node4</title>
<path fill="none" stroke="midnightblue" d="M140.055,-71.0452C148.499,-70.1336 157.188,-69.1956 165.79,-68.267"/>
<polygon fill="midnightblue" stroke="midnightblue" points="166.262,-71.7365 175.828,-67.1833 165.51,-64.7769 166.262,-71.7365"/>
</g>
<!-- Node5 -->
<g id="node5" class="node"><title>Node5</title>
<g id="a_node5"><a xlink:href="struct_cp_attribute_interface.html#a99cabbc15a0af5273a6d324dfbc78f41" target="_top" xlink:title="CpAttributeInterface\l::getUTF8">
<polygon fill="white" stroke="black" points="196,-0.5 196,-30.5 300,-30.5 300,-0.5 196,-0.5"/>
<text text-anchor="start" x="204" y="-18.5" font-family="Helvetica,sans-Serif" font-size="10.00">CpAttributeInterface</text>
<text text-anchor="middle" x="248" y="-7.5" font-family="Helvetica,sans-Serif" font-size="10.00">::getUTF8</text>
</a>
</g>
</g>
<!-- Node1&#45;&gt;Node5 -->
<g id="edge5" class="edge"><title>Node1&#45;&gt;Node5</title>
<path fill="none" stroke="midnightblue" d="M112.362,-63.4371C131.683,-56.4253 155.004,-47.9957 176,-40.5 181.977,-38.3663 188.241,-36.1425 194.468,-33.9395"/>
<polygon fill="midnightblue" stroke="midnightblue" points="195.914,-37.141 204.178,-30.5108 193.583,-30.5405 195.914,-37.141"/>
</g>
<!-- Node4&#45;&gt;Node2 -->
<g id="edge4" class="edge"><title>Node4&#45;&gt;Node2</title>
<path fill="none" stroke="midnightblue" d="M291.898,-69.089C314.534,-74.1487 342.498,-80.3996 366.429,-85.7488"/>
<polygon fill="midnightblue" stroke="midnightblue" points="365.888,-89.2141 376.41,-87.9799 367.415,-82.3827 365.888,-89.2141"/>
</g>
</g>
</svg>
