<?xml version="1.0" encoding="UTF-8" standalone="no"?>
<!DOCTYPE svg PUBLIC "-//W3C//DTD SVG 1.1//EN"
 "http://www.w3.org/Graphics/SVG/1.1/DTD/svg11.dtd">
<!-- Generated by graphviz version 2.38.0 (20140413.2041)
 -->
<!-- Title: Interpreter::loadInMemo Pages: 1 -->
<svg width="890pt" height="560pt"
 viewBox="0.00 0.00 890.00 560.00" xmlns="http://www.w3.org/2000/svg" xmlns:xlink="http://www.w3.org/1999/xlink">
<g id="graph0" class="graph" transform="scale(1 1) rotate(0) translate(4 556)">
<title>Interpreter::loadInMemo</title>
<polygon fill="white" stroke="none" points="-4,4 -4,-556 886,-556 886,4 -4,4"/>
<!-- Node1 -->
<g id="node1" class="node"><title>Node1</title>
<polygon fill="#bfbfbf" stroke="black" points="0,-247.5 0,-266.5 120,-266.5 120,-247.5 0,-247.5"/>
<text text-anchor="middle" x="60" y="-254.5" font-family="Helvetica,sans-Serif" font-size="10.00">Interpreter::loadInMemo</text>
</g>
<!-- Node2 -->
<g id="node2" class="node"><title>Node2</title>
<g id="a_node2"><a xlink:href="class_interpreter.html#aaa34fcc8ece810597cd2fea359b65220" target="_top" xlink:title="Interpreter::execute">
<polygon fill="white" stroke="black" points="166.5,-304.5 166.5,-323.5 267.5,-323.5 267.5,-304.5 166.5,-304.5"/>
<text text-anchor="middle" x="217" y="-311.5" font-family="Helvetica,sans-Serif" font-size="10.00">Interpreter::execute</text>
</a>
</g>
</g>
<!-- Node1&#45;&gt;Node2 -->
<g id="edge1" class="edge"><title>Node1&#45;&gt;Node2</title>
<path fill="none" stroke="midnightblue" d="M96.5289,-270.065C125.02,-280.543 164.347,-295.005 189.972,-304.428"/>
<polygon fill="midnightblue" stroke="midnightblue" points="97.537,-266.707 86.9435,-266.541 95.121,-273.277 97.537,-266.707"/>
</g>
<!-- Node5 -->
<g id="node5" class="node"><title>Node5</title>
<g id="a_node5"><a xlink:href="class_interpreter.html#a99a623bb05c66632d0ab034ebaf2cf51" target="_top" xlink:title="Interpreter::getClassInfo">
<polygon fill="white" stroke="black" points="156,-247.5 156,-266.5 278,-266.5 278,-247.5 156,-247.5"/>
<text text-anchor="middle" x="217" y="-254.5" font-family="Helvetica,sans-Serif" font-size="10.00">Interpreter::getClassInfo</text>
</a>
</g>
</g>
<!-- Node1&#45;&gt;Node5 -->
<g id="edge4" class="edge"><title>Node1&#45;&gt;Node5</title>
<path fill="none" stroke="midnightblue" d="M130.047,-257C138.647,-257 147.387,-257 155.838,-257"/>
<polygon fill="midnightblue" stroke="midnightblue" points="130.041,-253.5 120.041,-257 130.041,-260.5 130.041,-253.5"/>
</g>
<!-- Node3 -->
<g id="node3" class="node"><title>Node3</title>
<g id="a_node3"><a xlink:href="jvm_8cpp.html#a4f4a24852257f7259f906828eec5c11c" target="_top" xlink:title="Chama o interpretador para classloader. ">
<polygon fill="white" stroke="black" points="334.5,-494.5 334.5,-513.5 418.5,-513.5 418.5,-494.5 334.5,-494.5"/>
<text text-anchor="middle" x="376.5" y="-501.5" font-family="Helvetica,sans-Serif" font-size="10.00">classInterpreter</text>
</a>
</g>
</g>
<!-- Node2&#45;&gt;Node3 -->
<g id="edge2" class="edge"><title>Node2&#45;&gt;Node3</title>
<path fill="none" stroke="midnightblue" d="M232.563,-331.568C264.936,-370.621 342.003,-463.591 367.3,-494.108"/>
<polygon fill="midnightblue" stroke="midnightblue" points="235.103,-329.148 226.027,-323.683 229.714,-333.616 235.103,-329.148"/>
</g>
<!-- Node4 -->
<g id="node4" class="node"><title>Node4</title>
<g id="a_node4"><a xlink:href="jvm_8cpp.html#a0ddf1224851353fc92bfbff6f499fa97" target="_top" xlink:title="Função main. ">
<polygon fill="white" stroke="black" points="532.5,-532.5 532.5,-551.5 570.5,-551.5 570.5,-532.5 532.5,-532.5"/>
<text text-anchor="middle" x="551.5" y="-539.5" font-family="Helvetica,sans-Serif" font-size="10.00">main</text>
</a>
</g>
</g>
<!-- Node3&#45;&gt;Node4 -->
<g id="edge3" class="edge"><title>Node3&#45;&gt;Node4</title>
<path fill="none" stroke="midnightblue" d="M428.959,-515.303C463.794,-522.955 507.752,-532.61 532.114,-537.961"/>
<polygon fill="midnightblue" stroke="midnightblue" points="429.456,-511.829 418.938,-513.102 427.954,-518.666 429.456,-511.829"/>
</g>
<!-- Node6 -->
<g id="node6" class="node"><title>Node6</title>
<g id="a_node6"><a xlink:href="class_instruction_impl.html#af10750df1ad4bf72ac80445dbbec068b" target="_top" xlink:title="InstructionImpl::getstatic">
<polygon fill="white" stroke="black" points="314,-399.5 314,-418.5 439,-418.5 439,-399.5 314,-399.5"/>
<text text-anchor="middle" x="376.5" y="-406.5" font-family="Helvetica,sans-Serif" font-size="10.00">InstructionImpl::getstatic</text>
</a>
</g>
</g>
<!-- Node5&#45;&gt;Node6 -->
<g id="edge5" class="edge"><title>Node5&#45;&gt;Node6</title>
<path fill="none" stroke="midnightblue" d="M244.704,-271.567C255.549,-278.066 267.88,-286.233 278,-295 316.973,-328.765 353.985,-378.495 368.755,-399.296"/>
<polygon fill="midnightblue" stroke="midnightblue" points="246.43,-268.522 236.025,-266.524 242.913,-274.575 246.43,-268.522"/>
</g>
<!-- Node10 -->
<g id="node10" class="node"><title>Node10</title>
<g id="a_node10"><a xlink:href="class_interpreter.html#a8ff3509dcc0f48200724b8ae04467495" target="_top" xlink:title="Interpreter::createType">
<polygon fill="white" stroke="black" points="318.5,-247.5 318.5,-266.5 434.5,-266.5 434.5,-247.5 318.5,-247.5"/>
<text text-anchor="middle" x="376.5" y="-254.5" font-family="Helvetica,sans-Serif" font-size="10.00">Interpreter::createType</text>
</a>
</g>
</g>
<!-- Node5&#45;&gt;Node10 -->
<g id="edge9" class="edge"><title>Node5&#45;&gt;Node10</title>
<path fill="none" stroke="midnightblue" d="M288.69,-257C298.609,-257 308.7,-257 318.326,-257"/>
<polygon fill="midnightblue" stroke="midnightblue" points="288.443,-253.5 278.443,-257 288.443,-260.5 288.443,-253.5"/>
</g>
<!-- Node24 -->
<g id="node24" class="node"><title>Node24</title>
<g id="a_node24"><a xlink:href="class_interpreter.html#a39a3745e54aa3cee8882075c96ae8b3f" target="_top" xlink:title="Interpreter::loadVariables">
<polygon fill="white" stroke="black" points="314,-209.5 314,-228.5 439,-228.5 439,-209.5 314,-209.5"/>
<text text-anchor="middle" x="376.5" y="-216.5" font-family="Helvetica,sans-Serif" font-size="10.00">Interpreter::loadVariables</text>
</a>
</g>
</g>
<!-- Node5&#45;&gt;Node24 -->
<g id="edge36" class="edge"><title>Node5&#45;&gt;Node24</title>
<path fill="none" stroke="midnightblue" d="M267.604,-245.032C289.675,-239.707 315.303,-233.524 336.042,-228.52"/>
<polygon fill="midnightblue" stroke="midnightblue" points="266.644,-241.663 257.744,-247.411 268.286,-248.468 266.644,-241.663"/>
</g>
<!-- Node7 -->
<g id="node7" class="node"><title>Node7</title>
<g id="a_node7"><a xlink:href="class_instruction.html#a145a172552303c9cbd8a5856e31a701b" target="_top" xlink:title="Instruction::init">
<polygon fill="white" stroke="black" points="664,-247.5 664,-266.5 745,-266.5 745,-247.5 664,-247.5"/>
<text text-anchor="middle" x="704.5" y="-254.5" font-family="Helvetica,sans-Serif" font-size="10.00">Instruction::init</text>
</a>
</g>
</g>
<!-- Node6&#45;&gt;Node7 -->
<g id="edge6" class="edge"><title>Node6&#45;&gt;Node7</title>
<path fill="none" stroke="midnightblue" d="M392.566,-426.154C410.173,-444.772 441.231,-473.393 475,-485 539.308,-507.103 572.875,-524.815 628,-485 702.027,-431.533 704.651,-302.688 703.864,-266.561"/>
<polygon fill="midnightblue" stroke="midnightblue" points="395.006,-423.637 385.667,-418.634 389.848,-428.369 395.006,-423.637"/>
</g>
<!-- Node8 -->
<g id="node8" class="node"><title>Node8</title>
<g id="a_node8"><a xlink:href="class_code_attribute.html#a380eb04a01b0a0db351cf74443067ba4" target="_top" xlink:title="CodeAttribute::print">
<polygon fill="white" stroke="black" points="781,-266.5 781,-285.5 882,-285.5 882,-266.5 781,-266.5"/>
<text text-anchor="middle" x="831.5" y="-273.5" font-family="Helvetica,sans-Serif" font-size="10.00">CodeAttribute::print</text>
</a>
</g>
</g>
<!-- Node7&#45;&gt;Node8 -->
<g id="edge7" class="edge"><title>Node7&#45;&gt;Node8</title>
<path fill="none" stroke="midnightblue" d="M755.099,-264.539C763.505,-265.817 772.236,-267.144 780.648,-268.422"/>
<polygon fill="midnightblue" stroke="midnightblue" points="755.463,-261.054 745.051,-263.012 754.411,-267.975 755.463,-261.054"/>
</g>
<!-- Node9 -->
<g id="node9" class="node"><title>Node9</title>
<g id="a_node9"><a xlink:href="struct_frame.html#abe0b370087d05267cab997ecdc78c4bd" target="_top" xlink:title="Frame::Frame">
<polygon fill="white" stroke="black" points="792.5,-228.5 792.5,-247.5 870.5,-247.5 870.5,-228.5 792.5,-228.5"/>
<text text-anchor="middle" x="831.5" y="-235.5" font-family="Helvetica,sans-Serif" font-size="10.00">Frame::Frame</text>
</a>
</g>
</g>
<!-- Node7&#45;&gt;Node9 -->
<g id="edge8" class="edge"><title>Node7&#45;&gt;Node9</title>
<path fill="none" stroke="midnightblue" d="M755.257,-249.437C767.657,-247.552 780.755,-245.561 792.487,-243.778"/>
<polygon fill="midnightblue" stroke="midnightblue" points="754.411,-246.025 745.051,-250.988 755.463,-252.946 754.411,-246.025"/>
</g>
<!-- Node11 -->
<g id="node11" class="node"><title>Node11</title>
<g id="a_node11"><a xlink:href="class_instruction_impl.html#ae794ec480c5cd8809d1215aa9442501b" target="_top" xlink:title="InstructionImpl::invokespecial">
<polygon fill="white" stroke="black" points="478.5,-0.5 478.5,-19.5 624.5,-19.5 624.5,-0.5 478.5,-0.5"/>
<text text-anchor="middle" x="551.5" y="-7.5" font-family="Helvetica,sans-Serif" font-size="10.00">InstructionImpl::invokespecial</text>
</a>
</g>
</g>
<!-- Node10&#45;&gt;Node11 -->
<g id="edge10" class="edge"><title>Node10&#45;&gt;Node11</title>
<path fill="none" stroke="midnightblue" d="M435.245,-241.714C436.577,-240.563 437.834,-239.327 439,-238 501.213,-167.191 410.929,-98.1323 475,-29 478.491,-25.2329 482.61,-22.1655 487.092,-19.6731"/>
<polygon fill="midnightblue" stroke="midnightblue" points="433.186,-238.882 426.907,-247.416 437.137,-244.66 433.186,-238.882"/>
</g>
<!-- Node12 -->
<g id="node12" class="node"><title>Node12</title>
<g id="a_node12"><a xlink:href="class_instruction_impl.html#a3d197a31eaa6bc79b6d882b0ac9f1a67" target="_top" xlink:title="InstructionImpl::invokevirtual">
<polygon fill="white" stroke="black" points="480.5,-342.5 480.5,-361.5 622.5,-361.5 622.5,-342.5 480.5,-342.5"/>
<text text-anchor="middle" x="551.5" y="-349.5" font-family="Helvetica,sans-Serif" font-size="10.00">InstructionImpl::invokevirtual</text>
</a>
</g>
</g>
<!-- Node10&#45;&gt;Node12 -->
<g id="edge12" class="edge"><title>Node10&#45;&gt;Node12</title>
<path fill="none" stroke="midnightblue" d="M394.591,-273.991C412.951,-291.307 443.727,-317.726 475,-333 482.894,-336.856 491.647,-339.978 500.314,-342.491"/>
<polygon fill="midnightblue" stroke="midnightblue" points="396.702,-271.165 387.071,-266.749 391.846,-276.207 396.702,-271.165"/>
</g>
<!-- Node13 -->
<g id="node13" class="node"><title>Node13</title>
<g id="a_node13"><a xlink:href="class_instruction_impl.html#a1d155354287a5fa501cce5c39c341abc" target="_top" xlink:title="InstructionImpl::invokestatic">
<polygon fill="white" stroke="black" points="481.5,-304.5 481.5,-323.5 621.5,-323.5 621.5,-304.5 481.5,-304.5"/>
<text text-anchor="middle" x="551.5" y="-311.5" font-family="Helvetica,sans-Serif" font-size="10.00">InstructionImpl::invokestatic</text>
</a>
</g>
</g>
<!-- Node10&#45;&gt;Node13 -->
<g id="edge14" class="edge"><title>Node10&#45;&gt;Node13</title>
<path fill="none" stroke="midnightblue" d="M409.003,-270.435C427.925,-278.213 452.599,-287.847 475,-295 485.816,-298.454 497.662,-301.686 508.699,-304.472"/>
<polygon fill="midnightblue" stroke="midnightblue" points="410.253,-267.164 399.675,-266.56 407.567,-273.629 410.253,-267.164"/>
</g>
<!-- Node14 -->
<g id="node14" class="node"><title>Node14</title>
<g id="a_node14"><a xlink:href="class_instruction_impl.html#a612a030680b27c4dc97e6feec3abd9d5" target="_top" xlink:title="InstructionImpl::new_obj">
<polygon fill="white" stroke="black" points="490,-266.5 490,-285.5 613,-285.5 613,-266.5 490,-266.5"/>
<text text-anchor="middle" x="551.5" y="-273.5" font-family="Helvetica,sans-Serif" font-size="10.00">InstructionImpl::new_obj</text>
</a>
</g>
</g>
<!-- Node10&#45;&gt;Node14 -->
<g id="edge16" class="edge"><title>Node10&#45;&gt;Node14</title>
<path fill="none" stroke="midnightblue" d="M444.765,-264.387C459.627,-266.02 475.287,-267.74 489.868,-269.341"/>
<polygon fill="midnightblue" stroke="midnightblue" points="444.948,-260.887 434.626,-263.274 444.184,-267.845 444.948,-260.887"/>
</g>
<!-- Node15 -->
<g id="node15" class="node"><title>Node15</title>
<g id="a_node15"><a xlink:href="class_instruction_impl.html#a87ff225e6ed77e1a956d3c6a572e5352" target="_top" xlink:title="InstructionImpl::invokeinterface">
<polygon fill="white" stroke="black" points="475,-228.5 475,-247.5 628,-247.5 628,-228.5 475,-228.5"/>
<text text-anchor="middle" x="551.5" y="-235.5" font-family="Helvetica,sans-Serif" font-size="10.00">InstructionImpl::invokeinterface</text>
</a>
</g>
</g>
<!-- Node10&#45;&gt;Node15 -->
<g id="edge18" class="edge"><title>Node10&#45;&gt;Node15</title>
<path fill="none" stroke="midnightblue" d="M444.772,-249.612C454.653,-248.527 464.886,-247.403 474.92,-246.301"/>
<polygon fill="midnightblue" stroke="midnightblue" points="444.184,-246.155 434.626,-250.726 444.948,-253.113 444.184,-246.155"/>
</g>
<!-- Node16 -->
<g id="node16" class="node"><title>Node16</title>
<g id="a_node16"><a xlink:href="class_instruction_impl.html#a458635a5e0a0e1599931831243861ad5" target="_top" xlink:title="InstructionImpl::ineg">
<polygon fill="white" stroke="black" points="499,-190.5 499,-209.5 604,-209.5 604,-190.5 499,-190.5"/>
<text text-anchor="middle" x="551.5" y="-197.5" font-family="Helvetica,sans-Serif" font-size="10.00">InstructionImpl::ineg</text>
</a>
</g>
</g>
<!-- Node10&#45;&gt;Node16 -->
<g id="edge20" class="edge"><title>Node10&#45;&gt;Node16</title>
<path fill="none" stroke="midnightblue" d="M422.015,-244.328C427.789,-242.37 433.576,-240.246 439,-238 455.715,-231.078 458.107,-225.476 475,-219 484.592,-215.323 495.143,-212.155 505.238,-209.517"/>
<polygon fill="midnightblue" stroke="midnightblue" points="420.809,-241.04 412.379,-247.459 422.971,-247.698 420.809,-241.04"/>
</g>
<!-- Node17 -->
<g id="node17" class="node"><title>Node17</title>
<g id="a_node17"><a xlink:href="class_instruction_impl.html#aab88cff85d05d447ba7e29f7fa5889b4" target="_top" xlink:title="InstructionImpl::lneg">
<polygon fill="white" stroke="black" points="499,-152.5 499,-171.5 604,-171.5 604,-152.5 499,-152.5"/>
<text text-anchor="middle" x="551.5" y="-159.5" font-family="Helvetica,sans-Serif" font-size="10.00">InstructionImpl::lneg</text>
</a>
</g>
</g>
<!-- Node10&#45;&gt;Node17 -->
<g id="edge22" class="edge"><title>Node10&#45;&gt;Node17</title>
<path fill="none" stroke="midnightblue" d="M431.159,-243.095C433.914,-241.568 436.55,-239.876 439,-238 462.788,-219.782 450.736,-198.58 475,-181 482.005,-175.925 490.226,-172.199 498.618,-169.466"/>
<polygon fill="midnightblue" stroke="midnightblue" points="429.573,-239.973 422.044,-247.427 432.578,-246.296 429.573,-239.973"/>
</g>
<!-- Node18 -->
<g id="node18" class="node"><title>Node18</title>
<g id="a_node18"><a xlink:href="class_instruction_impl.html#a4eb37fe85c3ef86ccbd90c49a60b00ab" target="_top" xlink:title="InstructionImpl::ishl">
<polygon fill="white" stroke="black" points="500.5,-114.5 500.5,-133.5 602.5,-133.5 602.5,-114.5 500.5,-114.5"/>
<text text-anchor="middle" x="551.5" y="-121.5" font-family="Helvetica,sans-Serif" font-size="10.00">InstructionImpl::ishl</text>
</a>
</g>
</g>
<!-- Node10&#45;&gt;Node18 -->
<g id="edge24" class="edge"><title>Node10&#45;&gt;Node18</title>
<path fill="none" stroke="midnightblue" d="M433.58,-242.37C435.495,-241.038 437.312,-239.585 439,-238 471.911,-207.087 441.28,-173.028 475,-143 482.167,-136.618 491.166,-132.314 500.429,-129.427"/>
<polygon fill="midnightblue" stroke="midnightblue" points="431.605,-239.468 424.659,-247.468 435.078,-245.546 431.605,-239.468"/>
</g>
<!-- Node19 -->
<g id="node19" class="node"><title>Node19</title>
<g id="a_node19"><a xlink:href="class_instruction_impl.html#ae967a67c9b37f6c225c8443c4b85748e" target="_top" xlink:title="InstructionImpl::lshl">
<polygon fill="white" stroke="black" points="500.5,-76.5 500.5,-95.5 602.5,-95.5 602.5,-76.5 500.5,-76.5"/>
<text text-anchor="middle" x="551.5" y="-83.5" font-family="Helvetica,sans-Serif" font-size="10.00">InstructionImpl::lshl</text>
</a>
</g>
</g>
<!-- Node10&#45;&gt;Node19 -->
<g id="edge26" class="edge"><title>Node10&#45;&gt;Node19</title>
<path fill="none" stroke="midnightblue" d="M434.508,-242.021C436.098,-240.785 437.603,-239.447 439,-238 481.531,-193.941 431.314,-147.915 475,-105 481.942,-98.1801 490.952,-93.6935 500.316,-90.7672"/>
<polygon fill="midnightblue" stroke="midnightblue" points="432.555,-239.115 425.946,-247.397 436.277,-245.043 432.555,-239.115"/>
</g>
<!-- Node20 -->
<g id="node20" class="node"><title>Node20</title>
<g id="a_node20"><a xlink:href="class_instruction_impl.html#ac68d41636161f33b4d65462b91264548" target="_top" xlink:title="InstructionImpl::ishr">
<polygon fill="white" stroke="black" points="500,-38.5 500,-57.5 603,-57.5 603,-38.5 500,-38.5"/>
<text text-anchor="middle" x="551.5" y="-45.5" font-family="Helvetica,sans-Serif" font-size="10.00">InstructionImpl::ishr</text>
</a>
</g>
</g>
<!-- Node10&#45;&gt;Node20 -->
<g id="edge28" class="edge"><title>Node10&#45;&gt;Node20</title>
<path fill="none" stroke="midnightblue" d="M435.093,-241.731C436.476,-240.575 437.783,-239.334 439,-238 491.331,-180.611 421.164,-122.98 475,-67 481.652,-60.083 490.422,-55.5413 499.623,-52.5895"/>
<polygon fill="midnightblue" stroke="midnightblue" points="432.869,-239.005 426.466,-247.446 436.735,-244.841 432.869,-239.005"/>
</g>
<!-- Node21 -->
<g id="node21" class="node"><title>Node21</title>
<g id="a_node21"><a xlink:href="class_instruction_impl.html#aecca1e5322ed2ae9a3cf21a7b5716f77" target="_top" xlink:title="InstructionImpl::lshr">
<polygon fill="white" stroke="black" points="500,-456.5 500,-475.5 603,-475.5 603,-456.5 500,-456.5"/>
<text text-anchor="middle" x="551.5" y="-463.5" font-family="Helvetica,sans-Serif" font-size="10.00">InstructionImpl::lshr</text>
</a>
</g>
</g>
<!-- Node10&#45;&gt;Node21 -->
<g id="edge30" class="edge"><title>Node10&#45;&gt;Node21</title>
<path fill="none" stroke="midnightblue" d="M386.082,-275.832C407.039,-321.494 460.193,-435.23 475,-447 482.195,-452.719 490.895,-456.741 499.792,-459.563"/>
<polygon fill="midnightblue" stroke="midnightblue" points="389.253,-274.351 381.91,-266.714 382.887,-277.263 389.253,-274.351"/>
</g>
<!-- Node22 -->
<g id="node22" class="node"><title>Node22</title>
<g id="a_node22"><a xlink:href="class_instruction_impl.html#a23b84075b24e2a750e1d6cc6b22a9adb" target="_top" xlink:title="InstructionImpl::lushr">
<polygon fill="white" stroke="black" points="497.5,-418.5 497.5,-437.5 605.5,-437.5 605.5,-418.5 497.5,-418.5"/>
<text text-anchor="middle" x="551.5" y="-425.5" font-family="Helvetica,sans-Serif" font-size="10.00">InstructionImpl::lushr</text>
</a>
</g>
</g>
<!-- Node10&#45;&gt;Node22 -->
<g id="edge32" class="edge"><title>Node10&#45;&gt;Node22</title>
<path fill="none" stroke="midnightblue" d="M384.401,-276.31C397.07,-308.902 427.207,-374.628 475,-409 481.694,-413.814 489.484,-417.413 497.469,-420.102"/>
<polygon fill="midnightblue" stroke="midnightblue" points="387.557,-274.759 380.773,-266.62 381.001,-277.213 387.557,-274.759"/>
</g>
<!-- Node23 -->
<g id="node23" class="node"><title>Node23</title>
<g id="a_node23"><a xlink:href="class_instruction_impl.html#a4b4d6991094076af98ce5a5c4a2fedfa" target="_top" xlink:title="InstructionImpl::land">
<polygon fill="white" stroke="black" points="499,-380.5 499,-399.5 604,-399.5 604,-380.5 499,-380.5"/>
<text text-anchor="middle" x="551.5" y="-387.5" font-family="Helvetica,sans-Serif" font-size="10.00">InstructionImpl::land</text>
</a>
</g>
</g>
<!-- Node10&#45;&gt;Node23 -->
<g id="edge34" class="edge"><title>Node10&#45;&gt;Node23</title>
<path fill="none" stroke="midnightblue" d="M388.104,-275.399C403.771,-300.885 435.548,-346.545 475,-371 482.238,-375.486 490.485,-378.915 498.808,-381.535"/>
<polygon fill="midnightblue" stroke="midnightblue" points="391.042,-273.493 382.906,-266.706 385.034,-277.085 391.042,-273.493"/>
</g>
<!-- Node11&#45;&gt;Node7 -->
<g id="edge11" class="edge"><title>Node11&#45;&gt;Node7</title>
<path fill="none" stroke="midnightblue" d="M622.624,-24.6551C624.511,-25.985 626.311,-27.4301 628,-29 694.281,-90.5956 702.443,-211.59 703.392,-247.026"/>
<polygon fill="midnightblue" stroke="midnightblue" points="624.253,-21.5535 613.853,-19.5322 620.722,-27.598 624.253,-21.5535"/>
</g>
<!-- Node12&#45;&gt;Node7 -->
<g id="edge13" class="edge"><title>Node12&#45;&gt;Node7</title>
<path fill="none" stroke="midnightblue" d="M615.531,-338.973C619.859,-337.224 624.062,-335.243 628,-333 658.385,-315.699 684.86,-282.821 696.78,-266.576"/>
<polygon fill="midnightblue" stroke="midnightblue" points="614.123,-335.76 605.904,-342.445 616.498,-342.345 614.123,-335.76"/>
</g>
<!-- Node13&#45;&gt;Node7 -->
<g id="edge15" class="edge"><title>Node13&#45;&gt;Node7</title>
<path fill="none" stroke="midnightblue" d="M606.993,-301.814C614.134,-299.773 621.294,-297.497 628,-295 649.178,-287.115 672.198,-274.965 687.18,-266.535"/>
<polygon fill="midnightblue" stroke="midnightblue" points="606.042,-298.445 597.312,-304.449 607.88,-305.2 606.042,-298.445"/>
</g>
<!-- Node14&#45;&gt;Node7 -->
<g id="edge17" class="edge"><title>Node14&#45;&gt;Node7</title>
<path fill="none" stroke="midnightblue" d="M623.141,-267.111C637.095,-265.356 651.271,-263.572 663.752,-262.001"/>
<polygon fill="midnightblue" stroke="midnightblue" points="622.532,-263.66 613.047,-268.381 623.406,-270.606 622.532,-263.66"/>
</g>
<!-- Node15&#45;&gt;Node7 -->
<g id="edge19" class="edge"><title>Node15&#45;&gt;Node7</title>
<path fill="none" stroke="midnightblue" d="M638.414,-248.81C647.196,-249.915 655.787,-250.996 663.698,-251.992"/>
<polygon fill="midnightblue" stroke="midnightblue" points="638.801,-245.332 628.442,-247.556 637.927,-252.277 638.801,-245.332"/>
</g>
<!-- Node16&#45;&gt;Node7 -->
<g id="edge21" class="edge"><title>Node16&#45;&gt;Node7</title>
<path fill="none" stroke="midnightblue" d="M606.993,-212.186C614.134,-214.227 621.294,-216.503 628,-219 649.178,-226.885 672.198,-239.035 687.18,-247.465"/>
<polygon fill="midnightblue" stroke="midnightblue" points="607.88,-208.8 597.312,-209.551 606.042,-215.555 607.88,-208.8"/>
</g>
<!-- Node17&#45;&gt;Node7 -->
<g id="edge23" class="edge"><title>Node17&#45;&gt;Node7</title>
<path fill="none" stroke="midnightblue" d="M613.879,-174.373C618.79,-176.278 623.562,-178.473 628,-181 658.385,-198.301 684.86,-231.179 696.78,-247.424"/>
<polygon fill="midnightblue" stroke="midnightblue" points="614.908,-171.025 604.313,-171.053 612.613,-177.638 614.908,-171.025"/>
</g>
<!-- Node18&#45;&gt;Node7 -->
<g id="edge25" class="edge"><title>Node18&#45;&gt;Node7</title>
<path fill="none" stroke="midnightblue" d="M612.259,-134.507C617.839,-136.802 623.195,-139.597 628,-143 666.939,-170.576 691.275,-225.126 699.935,-247.294"/>
<polygon fill="midnightblue" stroke="midnightblue" points="613.308,-131.165 602.713,-131.096 610.953,-137.757 613.308,-131.165"/>
</g>
<!-- Node19&#45;&gt;Node7 -->
<g id="edge27" class="edge"><title>Node19&#45;&gt;Node7</title>
<path fill="none" stroke="midnightblue" d="M612.471,-95.7994C618.05,-98.2314 623.347,-101.252 628,-105 675.955,-143.634 695.931,-220.497 701.649,-247.418"/>
<polygon fill="midnightblue" stroke="midnightblue" points="613.469,-92.4369 602.876,-92.2373 611.033,-98.9992 613.469,-92.4369"/>
</g>
<!-- Node20&#45;&gt;Node7 -->
<g id="edge29" class="edge"><title>Node20&#45;&gt;Node7</title>
<path fill="none" stroke="midnightblue" d="M612.797,-57.4107C618.314,-59.9182 623.506,-63.0624 628,-67 685.129,-117.061 699.504,-216.197 702.683,-247.378"/>
<polygon fill="midnightblue" stroke="midnightblue" points="613.864,-54.0715 603.274,-53.7643 611.361,-60.6087 613.864,-54.0715"/>
</g>
<!-- Node21&#45;&gt;Node7 -->
<g id="edge31" class="edge"><title>Node21&#45;&gt;Node7</title>
<path fill="none" stroke="midnightblue" d="M612.797,-456.589C618.314,-454.082 623.506,-450.938 628,-447 685.129,-396.939 699.504,-297.803 702.683,-266.622"/>
<polygon fill="midnightblue" stroke="midnightblue" points="611.361,-453.391 603.274,-460.236 613.864,-459.928 611.361,-453.391"/>
</g>
<!-- Node22&#45;&gt;Node7 -->
<g id="edge33" class="edge"><title>Node22&#45;&gt;Node7</title>
<path fill="none" stroke="midnightblue" d="M615.244,-416.931C619.804,-414.738 624.125,-412.122 628,-409 675.955,-370.366 695.931,-293.503 701.649,-266.582"/>
<polygon fill="midnightblue" stroke="midnightblue" points="613.552,-413.841 605.617,-420.861 616.198,-420.322 613.552,-413.841"/>
</g>
<!-- Node23&#45;&gt;Node7 -->
<g id="edge35" class="edge"><title>Node23&#45;&gt;Node7</title>
<path fill="none" stroke="midnightblue" d="M614.004,-378.755C618.955,-376.606 623.698,-374.046 628,-371 666.939,-343.424 691.275,-288.874 699.935,-266.706"/>
<polygon fill="midnightblue" stroke="midnightblue" points="612.42,-375.612 604.29,-382.405 614.882,-382.164 612.42,-375.612"/>
</g>
<!-- Node24&#45;&gt;Node1 -->
<g id="edge38" class="edge"><title>Node24&#45;&gt;Node1</title>
<path fill="none" stroke="midnightblue" d="M303.708,-223.195C260.724,-226.208 205.078,-230.99 156,-238 138.683,-240.473 119.758,-244.073 103.388,-247.475"/>
<polygon fill="midnightblue" stroke="midnightblue" points="304.055,-226.679 313.792,-222.504 303.576,-219.696 304.055,-226.679"/>
</g>
<!-- Node24&#45;&gt;Node11 -->
<g id="edge37" class="edge"><title>Node24&#45;&gt;Node11</title>
<path fill="none" stroke="midnightblue" d="M381.863,-199.305C391.52,-160.479 418.47,-73.9346 475,-29 479.867,-25.1312 485.423,-22.0393 491.263,-19.57"/>
<polygon fill="midnightblue" stroke="midnightblue" points="378.389,-198.785 379.497,-209.322 385.202,-200.395 378.389,-198.785"/>
</g>
</g>
</svg>
