<?xml version="1.0" encoding="UTF-8" standalone="no"?>
<!DOCTYPE svg PUBLIC "-//W3C//DTD SVG 1.1//EN"
 "http://www.w3.org/Graphics/SVG/1.1/DTD/svg11.dtd">
<!-- Generated by graphviz version 2.38.0 (20140413.2041)
 -->
<!-- Title: CodeAttribute Pages: 1 -->
<svg width="650pt" height="173pt"
 viewBox="0.00 0.00 649.50 173.00" xmlns="http://www.w3.org/2000/svg" xmlns:xlink="http://www.w3.org/1999/xlink">
<g id="graph0" class="graph" transform="scale(1 1) rotate(0) translate(4 169)">
<title>CodeAttribute</title>
<polygon fill="white" stroke="none" points="-4,4 -4,-169 645.5,-169 645.5,4 -4,4"/>
<!-- Node1 -->
<g id="node1" class="node"><title>Node1</title>
<polygon fill="#bfbfbf" stroke="black" points="505,-67.5 505,-86.5 582,-86.5 582,-67.5 505,-67.5"/>
<text text-anchor="middle" x="543.5" y="-74.5" font-family="Helvetica,sans-Serif" font-size="10.00">CodeAttribute</text>
</g>
<!-- Node2 -->
<g id="node2" class="node"><title>Node2</title>
<g id="a_node2"><a xlink:href="class_attribute_info.html" target="_top" xlink:title="classe contém name_index e length(uint32) &#45; todos uint16; Há também uma union que tem como principio ...">
<polygon fill="white" stroke="black" points="313.5,-0.5 313.5,-19.5 383.5,-19.5 383.5,-0.5 313.5,-0.5"/>
<text text-anchor="middle" x="348.5" y="-7.5" font-family="Helvetica,sans-Serif" font-size="10.00">AttributeInfo</text>
</a>
</g>
</g>
<!-- Node1&#45;&gt;Node2 -->
<g id="edge9" class="edge"><title>Node1&#45;&gt;Node2</title>
<path fill="none" stroke="#9a32cd" stroke-dasharray="5,2" d="M523.378,-61.6855C511.197,-53.6367 495.056,-44.0251 479.5,-38 448.211,-25.8807 410.506,-18.8406 383.598,-15.007"/>
<polygon fill="#9a32cd" stroke="#9a32cd" points="521.61,-64.7158 531.846,-67.4505 525.55,-58.9295 521.61,-64.7158"/>
<text text-anchor="middle" x="515" y="-41" font-family="Helvetica,sans-Serif" font-size="10.00"> code</text>
</g>
<!-- Node2&#45;&gt;Node1 -->
<g id="edge1" class="edge"><title>Node2&#45;&gt;Node1</title>
<path fill="none" stroke="#9a32cd" stroke-dasharray="5,2" d="M393.571,-11.5993C442.594,-13.2356 516.637,-18.9068 536.5,-38 544.335,-45.531 545.057,-58.7477 544.531,-67.4384"/>
<polygon fill="#9a32cd" stroke="#9a32cd" points="393.616,-8.09918 383.519,-11.3079 393.413,-15.0962 393.616,-8.09918"/>
<text text-anchor="middle" x="565.5" y="-41" font-family="Helvetica,sans-Serif" font-size="10.00"> attributes</text>
</g>
<!-- Node3 -->
<g id="node3" class="node"><title>Node3</title>
<g id="a_node3"><a xlink:href="class_inner_class.html" target="_top" xlink:title="classe contém class_length e ponteiro para inner_class_data &#45; todos uint16; Além disso contém metodos...">
<polygon fill="white" stroke="black" points="15.5,-67.5 15.5,-86.5 79.5,-86.5 79.5,-67.5 15.5,-67.5"/>
<text text-anchor="middle" x="47.5" y="-74.5" font-family="Helvetica,sans-Serif" font-size="10.00">InnerClass</text>
</a>
</g>
</g>
<!-- Node3&#45;&gt;Node2 -->
<g id="edge2" class="edge"><title>Node3&#45;&gt;Node2</title>
<path fill="none" stroke="#9a32cd" stroke-dasharray="5,2" d="M75.5667,-63.3441C95.3082,-54.9395 122.551,-44.3264 147.5,-38 204.496,-23.5475 272.666,-16.4611 313.177,-13.2806"/>
<polygon fill="#9a32cd" stroke="#9a32cd" points="74.0328,-60.1943 66.2503,-67.3835 76.8174,-66.6166 74.0328,-60.1943"/>
<text text-anchor="middle" x="174" y="-41" font-family="Helvetica,sans-Serif" font-size="10.00"> inner_class</text>
</g>
<!-- Node4 -->
<g id="node4" class="node"><title>Node4</title>
<g id="a_node4"><a xlink:href="class_inner_class_data.html" target="_top" xlink:title="classe contém inner_class_info_index, outer_class_info_index, inner_name_index e inner_class_access_f...">
<polygon fill="white" stroke="black" points="0,-140 0,-159 85,-159 85,-140 0,-140"/>
<text text-anchor="middle" x="42.5" y="-147" font-family="Helvetica,sans-Serif" font-size="10.00">InnerClassData</text>
</a>
</g>
</g>
<!-- Node4&#45;&gt;Node3 -->
<g id="edge3" class="edge"><title>Node4&#45;&gt;Node3</title>
<path fill="none" stroke="#9a32cd" stroke-dasharray="5,2" d="M43.8221,-129.858C44.8124,-115.895 46.1222,-97.4263 46.8819,-86.7154"/>
<polygon fill="#9a32cd" stroke="#9a32cd" points="40.3294,-129.633 43.1131,-139.855 47.3119,-130.128 40.3294,-129.633"/>
<text text-anchor="middle" x="84" y="-108" font-family="Helvetica,sans-Serif" font-size="10.00"> inner_class_data</text>
</g>
<!-- Node5 -->
<g id="node5" class="node"><title>Node5</title>
<g id="a_node5"><a xlink:href="class_number_table_attribute.html" target="_top" xlink:title="classe contém length e ponteiro para line_number_table&#45; todos uint16; Além contém métodos como leitor...">
<polygon fill="white" stroke="black" points="100.5,-67.5 100.5,-86.5 212.5,-86.5 212.5,-67.5 100.5,-67.5"/>
<text text-anchor="middle" x="156.5" y="-74.5" font-family="Helvetica,sans-Serif" font-size="10.00">NumberTableAttribute</text>
</a>
</g>
</g>
<!-- Node5&#45;&gt;Node2 -->
<g id="edge4" class="edge"><title>Node5&#45;&gt;Node2</title>
<path fill="none" stroke="#9a32cd" stroke-dasharray="5,2" d="M178.869,-62.2176C192.735,-54.1815 211.154,-44.4001 228.5,-38 256.247,-27.7623 289.095,-20.6993 313.402,-16.3724"/>
<polygon fill="#9a32cd" stroke="#9a32cd" points="176.882,-59.3272 170.067,-67.4391 180.453,-65.3477 176.882,-59.3272"/>
<text text-anchor="middle" x="255" y="-41" font-family="Helvetica,sans-Serif" font-size="10.00"> lineNumber</text>
</g>
<!-- Node6 -->
<g id="node6" class="node"><title>Node6</title>
<g id="a_node6"><a xlink:href="class_number_table_attribute__line_number.html" target="_top" xlink:title="classe contém strat_pc e lineNumber &#45; todos uint16; ">
<polygon fill="white" stroke="black" points="103.5,-134.5 103.5,-164.5 215.5,-164.5 215.5,-134.5 103.5,-134.5"/>
<text text-anchor="start" x="111.5" y="-152.5" font-family="Helvetica,sans-Serif" font-size="10.00">NumberTableAttribute</text>
<text text-anchor="middle" x="159.5" y="-141.5" font-family="Helvetica,sans-Serif" font-size="10.00">_lineNumber</text>
</a>
</g>
</g>
<!-- Node6&#45;&gt;Node5 -->
<g id="edge5" class="edge"><title>Node6&#45;&gt;Node5</title>
<path fill="none" stroke="#9a32cd" stroke-dasharray="5,2" d="M158.461,-124.091C157.913,-111.214 157.274,-96.1974 156.878,-86.8932"/>
<polygon fill="#9a32cd" stroke="#9a32cd" points="154.971,-124.391 158.893,-134.233 161.964,-124.093 154.971,-124.391"/>
<text text-anchor="middle" x="199.5" y="-108" font-family="Helvetica,sans-Serif" font-size="10.00"> line_number_table</text>
</g>
<!-- Node7 -->
<g id="node7" class="node"><title>Node7</title>
<g id="a_node7"><a xlink:href="class_source_file.html" target="_top" xlink:title="classe contém sourceFileIndex &#45; todos uint16; Além contém métodos como leitor e print; ...">
<polygon fill="white" stroke="black" points="231,-67.5 231,-86.5 294,-86.5 294,-67.5 231,-67.5"/>
<text text-anchor="middle" x="262.5" y="-74.5" font-family="Helvetica,sans-Serif" font-size="10.00">SourceFile</text>
</a>
</g>
</g>
<!-- Node7&#45;&gt;Node2 -->
<g id="edge6" class="edge"><title>Node7&#45;&gt;Node2</title>
<path fill="none" stroke="#9a32cd" stroke-dasharray="5,2" d="M275.38,-59.0527C281.301,-51.9815 288.73,-44.029 296.5,-38 306.063,-30.5792 317.972,-24.2233 327.979,-19.5457"/>
<polygon fill="#9a32cd" stroke="#9a32cd" points="272.278,-57.3283 268.775,-67.3271 277.749,-61.6954 272.278,-57.3283"/>
<text text-anchor="middle" x="321" y="-41" font-family="Helvetica,sans-Serif" font-size="10.00"> sourceFile</text>
</g>
<!-- Node8 -->
<g id="node8" class="node"><title>Node8</title>
<g id="a_node8"><a xlink:href="class_constant_value.html" target="_top" xlink:title="classe contém Além contém métodos como destrutor, leitor e print ">
<polygon fill="white" stroke="black" points="312,-67.5 312,-86.5 393,-86.5 393,-67.5 312,-67.5"/>
<text text-anchor="middle" x="352.5" y="-74.5" font-family="Helvetica,sans-Serif" font-size="10.00">ConstantValue</text>
</a>
</g>
</g>
<!-- Node8&#45;&gt;Node2 -->
<g id="edge7" class="edge"><title>Node8&#45;&gt;Node2</title>
<path fill="none" stroke="#9a32cd" stroke-dasharray="5,2" d="M350.17,-56.8432C349.909,-54.2111 349.674,-51.5409 349.5,-49 348.814,-38.9923 348.59,-27.4722 348.521,-19.7639"/>
<polygon fill="#9a32cd" stroke="#9a32cd" points="346.718,-57.4691 351.31,-67.0171 353.674,-56.6895 346.718,-57.4691"/>
<text text-anchor="middle" x="384.5" y="-41" font-family="Helvetica,sans-Serif" font-size="10.00"> constant_value</text>
</g>
<!-- Node9 -->
<g id="node9" class="node"><title>Node9</title>
<g id="a_node9"><a xlink:href="class_exception.html" target="_top" xlink:title="classe contém number_exceptions e exception_index_table &#45; todos uint16; Além contém métodos como dest...">
<polygon fill="white" stroke="black" points="411.5,-67.5 411.5,-86.5 471.5,-86.5 471.5,-67.5 411.5,-67.5"/>
<text text-anchor="middle" x="441.5" y="-74.5" font-family="Helvetica,sans-Serif" font-size="10.00">Exception</text>
</a>
</g>
</g>
<!-- Node9&#45;&gt;Node2 -->
<g id="edge8" class="edge"><title>Node9&#45;&gt;Node2</title>
<path fill="none" stroke="#9a32cd" stroke-dasharray="5,2" d="M434.182,-57.8335C430.622,-50.8595 425.743,-43.3086 419.5,-38 409.253,-29.2862 395.9,-23.2299 383.543,-19.0967"/>
<polygon fill="#9a32cd" stroke="#9a32cd" points="431.155,-59.635 438.459,-67.3099 437.535,-56.7554 431.155,-59.635"/>
<text text-anchor="middle" x="452.5" y="-41" font-family="Helvetica,sans-Serif" font-size="10.00"> exception</text>
</g>
<!-- Node10 -->
<g id="node10" class="node"><title>Node10</title>
<g id="a_node10"><a xlink:href="class_code_exception.html" target="_top" xlink:title="classe contém start_pc, end_pc, handler_pc e catch_type &#45; todos uint16; ">
<polygon fill="white" stroke="black" points="502,-140 502,-159 585,-159 585,-140 502,-140"/>
<text text-anchor="middle" x="543.5" y="-147" font-family="Helvetica,sans-Serif" font-size="10.00">CodeException</text>
</a>
</g>
</g>
<!-- Node10&#45;&gt;Node1 -->
<g id="edge10" class="edge"><title>Node10&#45;&gt;Node1</title>
<path fill="none" stroke="#9a32cd" stroke-dasharray="5,2" d="M543.5,-129.442C543.5,-115.53 543.5,-97.3203 543.5,-86.7154"/>
<polygon fill="#9a32cd" stroke="#9a32cd" points="540,-129.855 543.5,-139.855 547,-129.855 540,-129.855"/>
<text text-anchor="middle" x="592.5" y="-108" font-family="Helvetica,sans-Serif" font-size="10.00"> code_exception_table</text>
</g>
</g>
</svg>
