<?xml version="1.0" encoding="UTF-8" standalone="no"?>
<!DOCTYPE svg PUBLIC "-//W3C//DTD SVG 1.1//EN"
 "http://www.w3.org/Graphics/SVG/1.1/DTD/svg11.dtd">
<!-- Generated by graphviz version 2.38.0 (20140413.2041)
 -->
<!-- Title: InstructionImpl::nop Pages: 1 -->
<svg width="554pt" height="982pt"
 viewBox="0.00 0.00 554.00 981.78" xmlns="http://www.w3.org/2000/svg" xmlns:xlink="http://www.w3.org/1999/xlink">
<g id="graph0" class="graph" transform="scale(1 1) rotate(0) translate(4 977.776)">
<title>InstructionImpl::nop</title>
<polygon fill="white" stroke="none" points="-4,4 -4,-977.776 550,-977.776 550,4 -4,4"/>
<!-- Node1 -->
<g id="node1" class="node"><title>Node1</title>
<polygon fill="#bfbfbf" stroke="black" points="0,-475.5 0,-494.5 103,-494.5 103,-475.5 0,-475.5"/>
<text text-anchor="middle" x="51.5" y="-482.5" font-family="Helvetica,sans-Serif" font-size="10.00">InstructionImpl::nop</text>
</g>
<!-- Node2 -->
<g id="node2" class="node"><title>Node2</title>
<g id="a_node2"><a xlink:href="class_instruction.html#a145a172552303c9cbd8a5856e31a701b" target="_top" xlink:title="Instruction::init">
<polygon fill="white" stroke="black" points="328,-475.5 328,-494.5 409,-494.5 409,-475.5 328,-475.5"/>
<text text-anchor="middle" x="368.5" y="-482.5" font-family="Helvetica,sans-Serif" font-size="10.00">Instruction::init</text>
</a>
</g>
</g>
<!-- Node1&#45;&gt;Node2 -->
<g id="edge1" class="edge"><title>Node1&#45;&gt;Node2</title>
<path fill="none" stroke="midnightblue" d="M53.0584,-504.919C55.7675,-585.297 70.3846,-884.177 139,-941 191.373,-984.372 240.138,-984.981 292,-941 362.993,-880.795 367.318,-555.204 367.506,-494.685"/>
<polygon fill="midnightblue" stroke="midnightblue" points="56.5498,-504.586 52.74,-494.7 49.5532,-504.804 56.5498,-504.586"/>
</g>
<!-- Node5 -->
<g id="node5" class="node"><title>Node5</title>
<g id="a_node5"><a xlink:href="class_instruction_impl.html#af75825b606faebaa31f5629712eabc8d" target="_top" xlink:title="InstructionImpl::astore_2">
<polygon fill="white" stroke="black" points="153,-912.5 153,-931.5 278,-931.5 278,-912.5 153,-912.5"/>
<text text-anchor="middle" x="215.5" y="-919.5" font-family="Helvetica,sans-Serif" font-size="10.00">InstructionImpl::astore_2</text>
</a>
</g>
</g>
<!-- Node1&#45;&gt;Node5 -->
<g id="edge4" class="edge"><title>Node1&#45;&gt;Node5</title>
<path fill="none" stroke="midnightblue" d="M53.8955,-505.211C59.5105,-580.656 82.9044,-844.469 139,-903 142.928,-907.098 147.599,-910.364 152.664,-912.958"/>
<polygon fill="midnightblue" stroke="midnightblue" points="57.3537,-504.503 53.1447,-494.781 50.3718,-505.006 57.3537,-504.503"/>
</g>
<!-- Node6 -->
<g id="node6" class="node"><title>Node6</title>
<g id="a_node6"><a xlink:href="class_instruction_impl.html#ab479b5925d755dd943dd86d054070dff" target="_top" xlink:title="InstructionImpl::astore_3">
<polygon fill="white" stroke="black" points="153,-874.5 153,-893.5 278,-893.5 278,-874.5 153,-874.5"/>
<text text-anchor="middle" x="215.5" y="-881.5" font-family="Helvetica,sans-Serif" font-size="10.00">InstructionImpl::astore_3</text>
</a>
</g>
</g>
<!-- Node1&#45;&gt;Node6 -->
<g id="edge6" class="edge"><title>Node1&#45;&gt;Node6</title>
<path fill="none" stroke="midnightblue" d="M54.3004,-504.728C61.1156,-575.1 87.5896,-812.408 139,-865 142.968,-869.059 147.667,-872.298 152.749,-874.877"/>
<polygon fill="midnightblue" stroke="midnightblue" points="57.7677,-504.215 53.3441,-494.588 50.7986,-504.872 57.7677,-504.215"/>
</g>
<!-- Node7 -->
<g id="node7" class="node"><title>Node7</title>
<g id="a_node7"><a xlink:href="class_instruction_impl.html#a3f4845ec999e7748deb58df324a71deb" target="_top" xlink:title="InstructionImpl::aaload">
<polygon fill="white" stroke="black" points="157.5,-836.5 157.5,-855.5 273.5,-855.5 273.5,-836.5 157.5,-836.5"/>
<text text-anchor="middle" x="215.5" y="-843.5" font-family="Helvetica,sans-Serif" font-size="10.00">InstructionImpl::aaload</text>
</a>
</g>
</g>
<!-- Node1&#45;&gt;Node7 -->
<g id="edge8" class="edge"><title>Node1&#45;&gt;Node7</title>
<path fill="none" stroke="midnightblue" d="M54.8512,-504.848C63.044,-570.704 92.3991,-780.455 139,-827 144.164,-832.158 150.509,-835.985 157.307,-838.814"/>
<polygon fill="midnightblue" stroke="midnightblue" points="58.2875,-504.112 53.6051,-494.608 51.3388,-504.958 58.2875,-504.112"/>
</g>
<!-- Node8 -->
<g id="node8" class="node"><title>Node8</title>
<g id="a_node8"><a xlink:href="class_instruction_impl.html#acaf8450ee2d7ac32332ffc780d6d3fc2" target="_top" xlink:title="InstructionImpl::aload">
<polygon fill="white" stroke="black" points="160.5,-798.5 160.5,-817.5 270.5,-817.5 270.5,-798.5 160.5,-798.5"/>
<text text-anchor="middle" x="215.5" y="-805.5" font-family="Helvetica,sans-Serif" font-size="10.00">InstructionImpl::aload</text>
</a>
</g>
</g>
<!-- Node1&#45;&gt;Node8 -->
<g id="edge10" class="edge"><title>Node1&#45;&gt;Node8</title>
<path fill="none" stroke="midnightblue" d="M51.8388,-504.864C51.1851,-558.87 57.162,-709.635 139,-789 144.919,-794.74 152.304,-798.823 160.12,-801.713"/>
<polygon fill="midnightblue" stroke="midnightblue" points="55.3436,-504.679 52.0625,-494.606 48.3453,-504.527 55.3436,-504.679"/>
</g>
<!-- Node9 -->
<g id="node9" class="node"><title>Node9</title>
<g id="a_node9"><a xlink:href="class_instruction_impl.html#a72b5f96fcf66463bedb4a1ccc3e5cedc" target="_top" xlink:title="InstructionImpl::laload">
<polygon fill="white" stroke="black" points="159,-760.5 159,-779.5 272,-779.5 272,-760.5 159,-760.5"/>
<text text-anchor="middle" x="215.5" y="-767.5" font-family="Helvetica,sans-Serif" font-size="10.00">InstructionImpl::laload</text>
</a>
</g>
</g>
<!-- Node1&#45;&gt;Node9 -->
<g id="edge12" class="edge"><title>Node1&#45;&gt;Node9</title>
<path fill="none" stroke="midnightblue" d="M52.7935,-504.997C54.6494,-554.442 66.567,-683.323 139,-751 144.629,-756.26 151.495,-760.119 158.767,-762.941"/>
<polygon fill="midnightblue" stroke="midnightblue" points="56.2845,-504.611 52.5152,-494.71 49.287,-504.801 56.2845,-504.611"/>
</g>
<!-- Node10 -->
<g id="node10" class="node"><title>Node10</title>
<g id="a_node10"><a xlink:href="class_instruction_impl.html#af78e4272e64344af51789be0f091c9cf" target="_top" xlink:title="InstructionImpl::lastore">
<polygon fill="white" stroke="black" points="157.5,-722.5 157.5,-741.5 273.5,-741.5 273.5,-722.5 157.5,-722.5"/>
<text text-anchor="middle" x="215.5" y="-729.5" font-family="Helvetica,sans-Serif" font-size="10.00">InstructionImpl::lastore</text>
</a>
</g>
</g>
<!-- Node1&#45;&gt;Node10 -->
<g id="edge14" class="edge"><title>Node1&#45;&gt;Node10</title>
<path fill="none" stroke="midnightblue" d="M53.9911,-504.516C58.4419,-548.625 75.5837,-656.548 139,-713 144.351,-717.763 150.722,-721.368 157.462,-724.091"/>
<polygon fill="midnightblue" stroke="midnightblue" points="57.4743,-504.171 53.0951,-494.523 50.5023,-504.796 57.4743,-504.171"/>
</g>
<!-- Node11 -->
<g id="node11" class="node"><title>Node11</title>
<g id="a_node11"><a xlink:href="class_instruction_impl.html#a3130e310de81066da8f38f1b1ce1d278" target="_top" xlink:title="InstructionImpl::dastore">
<polygon fill="white" stroke="black" points="156,-684.5 156,-703.5 275,-703.5 275,-684.5 156,-684.5"/>
<text text-anchor="middle" x="215.5" y="-691.5" font-family="Helvetica,sans-Serif" font-size="10.00">InstructionImpl::dastore</text>
</a>
</g>
</g>
<!-- Node1&#45;&gt;Node11 -->
<g id="edge16" class="edge"><title>Node1&#45;&gt;Node11</title>
<path fill="none" stroke="midnightblue" d="M55.6731,-504.648C62.9943,-543.39 84.7832,-629.79 139,-675 143.983,-679.155 149.751,-682.42 155.836,-684.982"/>
<polygon fill="midnightblue" stroke="midnightblue" points="59.0942,-503.894 53.9107,-494.653 52.2006,-505.109 59.0942,-503.894"/>
</g>
<!-- Node12 -->
<g id="node12" class="node"><title>Node12</title>
<g id="a_node12"><a xlink:href="class_instruction_impl.html#a446f32fef14275611f9f4257031a7dfa" target="_top" xlink:title="InstructionImpl::astore_0">
<polygon fill="white" stroke="black" points="153,-646.5 153,-665.5 278,-665.5 278,-646.5 153,-646.5"/>
<text text-anchor="middle" x="215.5" y="-653.5" font-family="Helvetica,sans-Serif" font-size="10.00">InstructionImpl::astore_0</text>
</a>
</g>
</g>
<!-- Node1&#45;&gt;Node12 -->
<g id="edge18" class="edge"><title>Node1&#45;&gt;Node12</title>
<path fill="none" stroke="midnightblue" d="M57.9855,-504.282C68.2697,-536.832 93.6121,-602.497 139,-637 144.057,-640.844 149.803,-643.918 155.813,-646.373"/>
<polygon fill="midnightblue" stroke="midnightblue" points="61.3057,-503.17 55.0678,-494.606 54.6037,-505.19 61.3057,-503.17"/>
</g>
<!-- Node13 -->
<g id="node13" class="node"><title>Node13</title>
<g id="a_node13"><a xlink:href="class_instruction_impl.html#a5786d278260f247e66a26a1006944ed7" target="_top" xlink:title="InstructionImpl::invokedynamic">
<polygon fill="white" stroke="black" points="139.5,-608.5 139.5,-627.5 291.5,-627.5 291.5,-608.5 139.5,-608.5"/>
<text text-anchor="middle" x="215.5" y="-615.5" font-family="Helvetica,sans-Serif" font-size="10.00">InstructionImpl::invokedynamic</text>
</a>
</g>
</g>
<!-- Node1&#45;&gt;Node13 -->
<g id="edge20" class="edge"><title>Node1&#45;&gt;Node13</title>
<path fill="none" stroke="midnightblue" d="M61.5476,-503.747C74.8716,-529.309 102.225,-574.689 139,-599 144.863,-602.876 151.46,-605.961 158.249,-608.417"/>
<polygon fill="midnightblue" stroke="midnightblue" points="64.6199,-502.067 56.994,-494.712 58.3688,-505.217 64.6199,-502.067"/>
</g>
<!-- Node14 -->
<g id="node14" class="node"><title>Node14</title>
<g id="a_node14"><a xlink:href="class_instruction_impl.html#a67fc568729a38dbd86f24667b928d440" target="_top" xlink:title="InstructionImpl::putstatic">
<polygon fill="white" stroke="black" points="153,-570.5 153,-589.5 278,-589.5 278,-570.5 153,-570.5"/>
<text text-anchor="middle" x="215.5" y="-577.5" font-family="Helvetica,sans-Serif" font-size="10.00">InstructionImpl::putstatic</text>
</a>
</g>
</g>
<!-- Node1&#45;&gt;Node14 -->
<g id="edge22" class="edge"><title>Node1&#45;&gt;Node14</title>
<path fill="none" stroke="midnightblue" d="M67.4565,-502.265C83.453,-519.648 110.408,-545.98 139,-561 146.299,-564.834 154.406,-567.92 162.522,-570.397"/>
<polygon fill="midnightblue" stroke="midnightblue" points="69.8081,-499.645 60.5248,-494.539 64.5977,-504.319 69.8081,-499.645"/>
</g>
<!-- Node15 -->
<g id="node15" class="node"><title>Node15</title>
<g id="a_node15"><a xlink:href="class_instruction_impl.html#aeece337499bb42defdd5e3406c6f7d91" target="_top" xlink:title="InstructionImpl::ldc_w">
<polygon fill="white" stroke="black" points="159,-532.5 159,-551.5 272,-551.5 272,-532.5 159,-532.5"/>
<text text-anchor="middle" x="215.5" y="-539.5" font-family="Helvetica,sans-Serif" font-size="10.00">InstructionImpl::ldc_w</text>
</a>
</g>
</g>
<!-- Node1&#45;&gt;Node15 -->
<g id="edge24" class="edge"><title>Node1&#45;&gt;Node15</title>
<path fill="none" stroke="midnightblue" d="M80.894,-498.913C97.5484,-506.707 119.155,-516.197 139,-523 149.357,-526.55 160.718,-529.756 171.411,-532.48"/>
<polygon fill="midnightblue" stroke="midnightblue" points="82.2458,-495.68 71.7111,-494.552 79.2433,-502.003 82.2458,-495.68"/>
</g>
<!-- Node16 -->
<g id="node16" class="node"><title>Node16</title>
<g id="a_node16"><a xlink:href="class_instruction_impl.html#a7e982b0571c9757bf7d9d6ce0036255b" target="_top" xlink:title="InstructionImpl::isub">
<polygon fill="white" stroke="black" points="163,-494.5 163,-513.5 268,-513.5 268,-494.5 163,-494.5"/>
<text text-anchor="middle" x="215.5" y="-501.5" font-family="Helvetica,sans-Serif" font-size="10.00">InstructionImpl::isub</text>
</a>
</g>
</g>
<!-- Node1&#45;&gt;Node16 -->
<g id="edge26" class="edge"><title>Node1&#45;&gt;Node16</title>
<path fill="none" stroke="midnightblue" d="M113.276,-492.128C129.559,-494.038 147.007,-496.084 162.751,-497.931"/>
<polygon fill="midnightblue" stroke="midnightblue" points="113.653,-488.648 103.313,-490.96 112.838,-495.601 113.653,-488.648"/>
</g>
<!-- Node17 -->
<g id="node17" class="node"><title>Node17</title>
<g id="a_node17"><a xlink:href="class_instruction_impl.html#aed343748fcb694a9d721ded471d8dc50" target="_top" xlink:title="InstructionImpl::lookupswitch">
<polygon fill="white" stroke="black" points="143.5,-456.5 143.5,-475.5 287.5,-475.5 287.5,-456.5 143.5,-456.5"/>
<text text-anchor="middle" x="215.5" y="-463.5" font-family="Helvetica,sans-Serif" font-size="10.00">InstructionImpl::lookupswitch</text>
</a>
</g>
</g>
<!-- Node1&#45;&gt;Node17 -->
<g id="edge28" class="edge"><title>Node1&#45;&gt;Node17</title>
<path fill="none" stroke="midnightblue" d="M113.35,-477.863C123.153,-476.714 133.376,-475.515 143.394,-474.34"/>
<polygon fill="midnightblue" stroke="midnightblue" points="112.838,-474.399 103.313,-479.04 113.653,-481.352 112.838,-474.399"/>
</g>
<!-- Node18 -->
<g id="node18" class="node"><title>Node18</title>
<g id="a_node18"><a xlink:href="class_instruction_impl.html#a9f4ab8228c6227d41dbbac521bb79f1d" target="_top" xlink:title="InstructionImpl::anewarray">
<polygon fill="white" stroke="black" points="149.5,-418.5 149.5,-437.5 281.5,-437.5 281.5,-418.5 149.5,-418.5"/>
<text text-anchor="middle" x="215.5" y="-425.5" font-family="Helvetica,sans-Serif" font-size="10.00">InstructionImpl::anewarray</text>
</a>
</g>
</g>
<!-- Node1&#45;&gt;Node18 -->
<g id="edge30" class="edge"><title>Node1&#45;&gt;Node18</title>
<path fill="none" stroke="midnightblue" d="M80.894,-471.087C97.5484,-463.293 119.155,-453.803 139,-447 149.357,-443.45 160.718,-440.244 171.411,-437.52"/>
<polygon fill="midnightblue" stroke="midnightblue" points="79.2433,-467.997 71.7111,-475.448 82.2458,-474.32 79.2433,-467.997"/>
</g>
<!-- Node19 -->
<g id="node19" class="node"><title>Node19</title>
<g id="a_node19"><a xlink:href="class_instruction_impl.html#a6d930daf9428f86993e14d24c38623c6" target="_top" xlink:title="InstructionImpl::athrow">
<polygon fill="white" stroke="black" points="157.5,-380.5 157.5,-399.5 273.5,-399.5 273.5,-380.5 157.5,-380.5"/>
<text text-anchor="middle" x="215.5" y="-387.5" font-family="Helvetica,sans-Serif" font-size="10.00">InstructionImpl::athrow</text>
</a>
</g>
</g>
<!-- Node1&#45;&gt;Node19 -->
<g id="edge32" class="edge"><title>Node1&#45;&gt;Node19</title>
<path fill="none" stroke="midnightblue" d="M67.4565,-467.735C83.453,-450.352 110.408,-424.02 139,-409 146.299,-405.166 154.406,-402.08 162.522,-399.603"/>
<polygon fill="midnightblue" stroke="midnightblue" points="64.5977,-465.681 60.5248,-475.461 69.8081,-470.355 64.5977,-465.681"/>
</g>
<!-- Node20 -->
<g id="node20" class="node"><title>Node20</title>
<g id="a_node20"><a xlink:href="class_instruction_impl.html#a5e85e5c1cd92df938c6ee69ffc64c492" target="_top" xlink:title="InstructionImpl::swap">
<polygon fill="white" stroke="black" points="160.5,-342.5 160.5,-361.5 270.5,-361.5 270.5,-342.5 160.5,-342.5"/>
<text text-anchor="middle" x="215.5" y="-349.5" font-family="Helvetica,sans-Serif" font-size="10.00">InstructionImpl::swap</text>
</a>
</g>
</g>
<!-- Node1&#45;&gt;Node20 -->
<g id="edge34" class="edge"><title>Node1&#45;&gt;Node20</title>
<path fill="none" stroke="midnightblue" d="M61.5476,-466.253C74.8716,-440.691 102.225,-395.311 139,-371 145.427,-366.751 152.735,-363.453 160.213,-360.892"/>
<polygon fill="midnightblue" stroke="midnightblue" points="58.3688,-464.783 56.994,-475.288 64.6199,-467.933 58.3688,-464.783"/>
</g>
<!-- Node21 -->
<g id="node21" class="node"><title>Node21</title>
<g id="a_node21"><a xlink:href="class_instruction_impl.html#a5661df337c9b41a413088327685ee137" target="_top" xlink:title="InstructionImpl::imul">
<polygon fill="white" stroke="black" points="163,-304.5 163,-323.5 268,-323.5 268,-304.5 163,-304.5"/>
<text text-anchor="middle" x="215.5" y="-311.5" font-family="Helvetica,sans-Serif" font-size="10.00">InstructionImpl::imul</text>
</a>
</g>
</g>
<!-- Node1&#45;&gt;Node21 -->
<g id="edge36" class="edge"><title>Node1&#45;&gt;Node21</title>
<path fill="none" stroke="midnightblue" d="M57.9855,-465.718C68.2697,-433.168 93.6121,-367.503 139,-333 145.994,-327.683 154.304,-323.841 162.81,-321.068"/>
<polygon fill="midnightblue" stroke="midnightblue" points="54.6037,-464.81 55.0678,-475.394 61.3057,-466.83 54.6037,-464.81"/>
</g>
<!-- Node22 -->
<g id="node22" class="node"><title>Node22</title>
<g id="a_node22"><a xlink:href="class_instruction_impl.html#a044313001d0c8e26a5784c967a14e0fb" target="_top" xlink:title="InstructionImpl::idiv">
<polygon fill="white" stroke="black" points="164.5,-266.5 164.5,-285.5 266.5,-285.5 266.5,-266.5 164.5,-266.5"/>
<text text-anchor="middle" x="215.5" y="-273.5" font-family="Helvetica,sans-Serif" font-size="10.00">InstructionImpl::idiv</text>
</a>
</g>
</g>
<!-- Node1&#45;&gt;Node22 -->
<g id="edge38" class="edge"><title>Node1&#45;&gt;Node22</title>
<path fill="none" stroke="midnightblue" d="M55.6731,-465.352C62.9943,-426.61 84.7832,-340.21 139,-295 146.267,-288.941 155.204,-284.774 164.356,-281.919"/>
<polygon fill="midnightblue" stroke="midnightblue" points="52.2006,-464.891 53.9107,-475.347 59.0942,-466.106 52.2006,-464.891"/>
</g>
<!-- Node23 -->
<g id="node23" class="node"><title>Node23</title>
<g id="a_node23"><a xlink:href="class_instruction_impl.html#a97558ae7b4229682d4b59e532ac43eff" target="_top" xlink:title="InstructionImpl::ret">
<polygon fill="white" stroke="black" points="166.5,-228.5 166.5,-247.5 264.5,-247.5 264.5,-228.5 166.5,-228.5"/>
<text text-anchor="middle" x="215.5" y="-235.5" font-family="Helvetica,sans-Serif" font-size="10.00">InstructionImpl::ret</text>
</a>
</g>
</g>
<!-- Node1&#45;&gt;Node23 -->
<g id="edge40" class="edge"><title>Node1&#45;&gt;Node23</title>
<path fill="none" stroke="midnightblue" d="M53.9911,-465.484C58.4419,-421.375 75.5837,-313.452 139,-257 146.673,-250.17 156.444,-245.721 166.392,-242.84"/>
<polygon fill="midnightblue" stroke="midnightblue" points="50.5023,-465.204 53.0951,-475.477 57.4743,-465.829 50.5023,-465.204"/>
</g>
<!-- Node24 -->
<g id="node24" class="node"><title>Node24</title>
<g id="a_node24"><a xlink:href="class_instruction_impl.html#aac6c771f95ef1ab1d02da1a18ad68b26" target="_top" xlink:title="InstructionImpl::tableswitch">
<polygon fill="white" stroke="black" points="147,-190.5 147,-209.5 284,-209.5 284,-190.5 147,-190.5"/>
<text text-anchor="middle" x="215.5" y="-197.5" font-family="Helvetica,sans-Serif" font-size="10.00">InstructionImpl::tableswitch</text>
</a>
</g>
</g>
<!-- Node1&#45;&gt;Node24 -->
<g id="edge42" class="edge"><title>Node1&#45;&gt;Node24</title>
<path fill="none" stroke="midnightblue" d="M52.7935,-465.003C54.6494,-415.558 66.567,-286.677 139,-219 143.148,-215.124 147.967,-212.009 153.126,-209.509"/>
<polygon fill="midnightblue" stroke="midnightblue" points="49.287,-465.199 52.5152,-475.29 56.2845,-465.389 49.287,-465.199"/>
</g>
<!-- Node25 -->
<g id="node25" class="node"><title>Node25</title>
<g id="a_node25"><a xlink:href="class_instruction_impl.html#af113b7ce37e5617c4f8a37fd63c2be7d" target="_top" xlink:title="InstructionImpl::wide">
<polygon fill="white" stroke="black" points="162,-152.5 162,-171.5 269,-171.5 269,-152.5 162,-152.5"/>
<text text-anchor="middle" x="215.5" y="-159.5" font-family="Helvetica,sans-Serif" font-size="10.00">InstructionImpl::wide</text>
</a>
</g>
</g>
<!-- Node1&#45;&gt;Node25 -->
<g id="edge44" class="edge"><title>Node1&#45;&gt;Node25</title>
<path fill="none" stroke="midnightblue" d="M51.8388,-465.136C51.1851,-411.13 57.162,-260.365 139,-181 145.307,-174.884 153.278,-170.648 161.663,-167.733"/>
<polygon fill="midnightblue" stroke="midnightblue" points="48.3453,-465.473 52.0625,-475.394 55.3436,-465.321 48.3453,-465.473"/>
</g>
<!-- Node26 -->
<g id="node26" class="node"><title>Node26</title>
<g id="a_node26"><a xlink:href="class_instruction_impl.html#a411341be01a2f7c4a271ff5f91dc713d" target="_top" xlink:title="InstructionImpl::multianewarray">
<polygon fill="white" stroke="black" points="139,-114.5 139,-133.5 292,-133.5 292,-114.5 139,-114.5"/>
<text text-anchor="middle" x="215.5" y="-121.5" font-family="Helvetica,sans-Serif" font-size="10.00">InstructionImpl::multianewarray</text>
</a>
</g>
</g>
<!-- Node1&#45;&gt;Node26 -->
<g id="edge46" class="edge"><title>Node1&#45;&gt;Node26</title>
<path fill="none" stroke="midnightblue" d="M54.8512,-465.152C63.044,-399.296 92.3991,-189.545 139,-143 142.825,-139.179 147.298,-136.089 152.124,-133.593"/>
<polygon fill="midnightblue" stroke="midnightblue" points="51.3388,-465.042 53.6051,-475.392 58.2875,-465.888 51.3388,-465.042"/>
</g>
<!-- Node27 -->
<g id="node27" class="node"><title>Node27</title>
<g id="a_node27"><a xlink:href="class_instruction_impl.html#a57ddfffe6adfd2c57fcea5d510554d57" target="_top" xlink:title="InstructionImpl::monitorexit">
<polygon fill="white" stroke="black" points="148,-76.5 148,-95.5 283,-95.5 283,-76.5 148,-76.5"/>
<text text-anchor="middle" x="215.5" y="-83.5" font-family="Helvetica,sans-Serif" font-size="10.00">InstructionImpl::monitorexit</text>
</a>
</g>
</g>
<!-- Node1&#45;&gt;Node27 -->
<g id="edge48" class="edge"><title>Node1&#45;&gt;Node27</title>
<path fill="none" stroke="midnightblue" d="M54.3004,-465.272C61.1156,-394.9 87.5896,-157.592 139,-105 142.685,-101.23 146.999,-98.1685 151.666,-95.686"/>
<polygon fill="midnightblue" stroke="midnightblue" points="50.7986,-465.128 53.3441,-475.412 57.7677,-465.785 50.7986,-465.128"/>
</g>
<!-- Node28 -->
<g id="node28" class="node"><title>Node28</title>
<g id="a_node28"><a xlink:href="class_instruction_impl.html#ab71170e33262cb98957e70eb59d270c1" target="_top" xlink:title="InstructionImpl::monitorenter">
<polygon fill="white" stroke="black" points="145,-38.5 145,-57.5 286,-57.5 286,-38.5 145,-38.5"/>
<text text-anchor="middle" x="215.5" y="-45.5" font-family="Helvetica,sans-Serif" font-size="10.00">InstructionImpl::monitorenter</text>
</a>
</g>
</g>
<!-- Node1&#45;&gt;Node28 -->
<g id="edge50" class="edge"><title>Node1&#45;&gt;Node28</title>
<path fill="none" stroke="midnightblue" d="M53.8955,-464.789C59.5105,-389.344 82.9044,-125.531 139,-67 142.647,-63.1943 146.936,-60.1071 151.585,-57.608"/>
<polygon fill="midnightblue" stroke="midnightblue" points="50.3718,-464.994 53.1447,-475.219 57.3537,-465.497 50.3718,-464.994"/>
</g>
<!-- Node29 -->
<g id="node29" class="node"><title>Node29</title>
<g id="a_node29"><a xlink:href="class_instruction_impl.html#a5139066782aa2227dc4c04876cdb14e2" target="_top" xlink:title="InstructionImpl::checkcast">
<polygon fill="white" stroke="black" points="149.5,-0.5 149.5,-19.5 281.5,-19.5 281.5,-0.5 149.5,-0.5"/>
<text text-anchor="middle" x="215.5" y="-7.5" font-family="Helvetica,sans-Serif" font-size="10.00">InstructionImpl::checkcast</text>
</a>
</g>
</g>
<!-- Node1&#45;&gt;Node29 -->
<g id="edge52" class="edge"><title>Node1&#45;&gt;Node29</title>
<path fill="none" stroke="midnightblue" d="M53.5046,-465.015C57.8997,-385.622 78.0237,-93.6889 139,-29 142.616,-25.1641 146.882,-22.056 151.517,-19.543"/>
<polygon fill="midnightblue" stroke="midnightblue" points="50.0025,-464.963 52.9673,-475.135 56.9927,-465.334 50.0025,-464.963"/>
</g>
<!-- Node3 -->
<g id="node3" class="node"><title>Node3</title>
<g id="a_node3"><a xlink:href="class_code_attribute.html#a380eb04a01b0a0db351cf74443067ba4" target="_top" xlink:title="CodeAttribute::print">
<polygon fill="white" stroke="black" points="445,-494.5 445,-513.5 546,-513.5 546,-494.5 445,-494.5"/>
<text text-anchor="middle" x="495.5" y="-501.5" font-family="Helvetica,sans-Serif" font-size="10.00">CodeAttribute::print</text>
</a>
</g>
</g>
<!-- Node2&#45;&gt;Node3 -->
<g id="edge2" class="edge"><title>Node2&#45;&gt;Node3</title>
<path fill="none" stroke="midnightblue" d="M419.099,-492.539C427.505,-493.817 436.236,-495.144 444.648,-496.422"/>
<polygon fill="midnightblue" stroke="midnightblue" points="419.463,-489.054 409.051,-491.012 418.411,-495.975 419.463,-489.054"/>
</g>
<!-- Node4 -->
<g id="node4" class="node"><title>Node4</title>
<g id="a_node4"><a xlink:href="struct_frame.html#abe0b370087d05267cab997ecdc78c4bd" target="_top" xlink:title="Frame::Frame">
<polygon fill="white" stroke="black" points="456.5,-456.5 456.5,-475.5 534.5,-475.5 534.5,-456.5 456.5,-456.5"/>
<text text-anchor="middle" x="495.5" y="-463.5" font-family="Helvetica,sans-Serif" font-size="10.00">Frame::Frame</text>
</a>
</g>
</g>
<!-- Node2&#45;&gt;Node4 -->
<g id="edge3" class="edge"><title>Node2&#45;&gt;Node4</title>
<path fill="none" stroke="midnightblue" d="M419.257,-477.437C431.657,-475.552 444.755,-473.561 456.487,-471.778"/>
<polygon fill="midnightblue" stroke="midnightblue" points="418.411,-474.025 409.051,-478.988 419.463,-480.946 418.411,-474.025"/>
</g>
<!-- Node5&#45;&gt;Node2 -->
<g id="edge5" class="edge"><title>Node5&#45;&gt;Node2</title>
<path fill="none" stroke="midnightblue" d="M286.795,-907.747C288.644,-906.303 290.388,-904.725 292,-903 350.024,-840.9 364.768,-551.754 367.129,-494.767"/>
<polygon fill="midnightblue" stroke="midnightblue" points="284.671,-904.949 278.084,-913.248 288.408,-910.867 284.671,-904.949"/>
</g>
<!-- Node6&#45;&gt;Node2 -->
<g id="edge7" class="edge"><title>Node6&#45;&gt;Node2</title>
<path fill="none" stroke="midnightblue" d="M286.756,-869.71C288.617,-868.277 290.373,-866.711 292,-865 345.184,-809.065 363.689,-548.02 366.95,-494.575"/>
<polygon fill="midnightblue" stroke="midnightblue" points="284.634,-866.909 278.008,-875.176 288.343,-872.845 284.634,-866.909"/>
</g>
<!-- Node7&#45;&gt;Node2 -->
<g id="edge9" class="edge"><title>Node7&#45;&gt;Node2</title>
<path fill="none" stroke="midnightblue" d="M282.979,-834.242C286.255,-832.178 289.299,-829.782 292,-827 340.292,-777.273 362.452,-544.844 366.721,-494.594"/>
<polygon fill="midnightblue" stroke="midnightblue" points="281.121,-831.262 273.841,-838.96 284.332,-837.482 281.121,-831.262"/>
</g>
<!-- Node8&#45;&gt;Node2 -->
<g id="edge11" class="edge"><title>Node8&#45;&gt;Node2</title>
<path fill="none" stroke="midnightblue" d="M280.04,-797.815C284.423,-795.427 288.487,-792.524 292,-789 335.385,-745.48 361.01,-541.875 366.42,-494.753"/>
<polygon fill="midnightblue" stroke="midnightblue" points="278.353,-794.736 270.667,-802.028 281.223,-801.121 278.353,-794.736"/>
</g>
<!-- Node9&#45;&gt;Node2 -->
<g id="edge13" class="edge"><title>Node9&#45;&gt;Node2</title>
<path fill="none" stroke="midnightblue" d="M281.406,-758.861C285.251,-756.668 288.835,-754.071 292,-751 367.963,-677.284 369.08,-533.214 367.929,-494.674"/>
<polygon fill="midnightblue" stroke="midnightblue" points="279.585,-755.85 272.033,-763.282 282.571,-762.182 279.585,-755.85"/>
</g>
<!-- Node10&#45;&gt;Node2 -->
<g id="edge15" class="edge"><title>Node10&#45;&gt;Node2</title>
<path fill="none" stroke="midnightblue" d="M282.836,-719.795C286.124,-717.841 289.212,-715.591 292,-713 358.281,-651.404 366.443,-530.41 367.392,-494.974"/>
<polygon fill="midnightblue" stroke="midnightblue" points="281.14,-716.73 273.733,-724.305 284.247,-723.002 281.14,-716.73"/>
</g>
<!-- Node11&#45;&gt;Node2 -->
<g id="edge17" class="edge"><title>Node11&#45;&gt;Node2</title>
<path fill="none" stroke="midnightblue" d="M284.384,-680.578C287.08,-678.923 289.636,-677.071 292,-675 349.129,-624.939 363.504,-525.803 366.683,-494.622"/>
<polygon fill="midnightblue" stroke="midnightblue" points="282.656,-677.531 275.369,-685.221 285.861,-683.753 282.656,-677.531"/>
</g>
<!-- Node12&#45;&gt;Node2 -->
<g id="edge19" class="edge"><title>Node12&#45;&gt;Node2</title>
<path fill="none" stroke="midnightblue" d="M284.773,-641.982C287.308,-640.484 289.73,-638.828 292,-637 339.955,-598.366 359.931,-521.503 365.649,-494.582"/>
<polygon fill="midnightblue" stroke="midnightblue" points="283.154,-638.878 275.789,-646.494 286.296,-645.134 283.154,-638.878"/>
</g>
<!-- Node13&#45;&gt;Node2 -->
<g id="edge21" class="edge"><title>Node13&#45;&gt;Node2</title>
<path fill="none" stroke="midnightblue" d="M282.957,-604.425C286.119,-602.815 289.156,-601.014 292,-599 330.939,-571.424 355.275,-516.874 363.935,-494.706"/>
<polygon fill="midnightblue" stroke="midnightblue" points="281.507,-601.24 273.771,-608.478 284.333,-607.644 281.507,-601.24"/>
</g>
<!-- Node14&#45;&gt;Node2 -->
<g id="edge23" class="edge"><title>Node14&#45;&gt;Node2</title>
<path fill="none" stroke="midnightblue" d="M279.531,-566.973C283.859,-565.224 288.062,-563.243 292,-561 322.385,-543.699 348.86,-510.821 360.78,-494.576"/>
<polygon fill="midnightblue" stroke="midnightblue" points="278.123,-563.76 269.904,-570.445 280.498,-570.345 278.123,-563.76"/>
</g>
<!-- Node15&#45;&gt;Node2 -->
<g id="edge25" class="edge"><title>Node15&#45;&gt;Node2</title>
<path fill="none" stroke="midnightblue" d="M270.993,-529.814C278.134,-527.773 285.294,-525.497 292,-523 313.178,-515.115 336.198,-502.965 351.18,-494.535"/>
<polygon fill="midnightblue" stroke="midnightblue" points="270.042,-526.445 261.312,-532.449 271.88,-533.2 270.042,-526.445"/>
</g>
<!-- Node16&#45;&gt;Node2 -->
<g id="edge27" class="edge"><title>Node16&#45;&gt;Node2</title>
<path fill="none" stroke="midnightblue" d="M278.267,-496.228C294.928,-494.132 312.513,-491.919 327.626,-490.017"/>
<polygon fill="midnightblue" stroke="midnightblue" points="277.528,-492.793 268.043,-497.514 278.402,-499.739 277.528,-492.793"/>
</g>
<!-- Node17&#45;&gt;Node2 -->
<g id="edge29" class="edge"><title>Node17&#45;&gt;Node2</title>
<path fill="none" stroke="midnightblue" d="M297.591,-476.203C308.015,-477.515 318.297,-478.809 327.635,-479.984"/>
<polygon fill="midnightblue" stroke="midnightblue" points="297.937,-472.72 287.578,-474.944 297.063,-479.665 297.937,-472.72"/>
</g>
<!-- Node18&#45;&gt;Node2 -->
<g id="edge31" class="edge"><title>Node18&#45;&gt;Node2</title>
<path fill="none" stroke="midnightblue" d="M270.993,-440.186C278.134,-442.227 285.294,-444.503 292,-447 313.178,-454.885 336.198,-467.035 351.18,-475.465"/>
<polygon fill="midnightblue" stroke="midnightblue" points="271.88,-436.8 261.312,-437.551 270.042,-443.555 271.88,-436.8"/>
</g>
<!-- Node19&#45;&gt;Node2 -->
<g id="edge33" class="edge"><title>Node19&#45;&gt;Node2</title>
<path fill="none" stroke="midnightblue" d="M279.531,-403.027C283.859,-404.776 288.062,-406.757 292,-409 322.385,-426.301 348.86,-459.179 360.78,-475.424"/>
<polygon fill="midnightblue" stroke="midnightblue" points="280.498,-399.655 269.904,-399.555 278.123,-406.24 280.498,-399.655"/>
</g>
<!-- Node20&#45;&gt;Node2 -->
<g id="edge35" class="edge"><title>Node20&#45;&gt;Node2</title>
<path fill="none" stroke="midnightblue" d="M280.074,-364.173C284.276,-366.122 288.301,-368.381 292,-371 330.939,-398.576 355.275,-453.126 363.935,-475.294"/>
<polygon fill="midnightblue" stroke="midnightblue" points="281.232,-360.867 270.648,-360.385 278.622,-367.362 281.232,-360.867"/>
</g>
<!-- Node21&#45;&gt;Node2 -->
<g id="edge37" class="edge"><title>Node21&#45;&gt;Node2</title>
<path fill="none" stroke="midnightblue" d="M277.585,-324.295C282.755,-326.638 287.658,-329.502 292,-333 339.955,-371.634 359.931,-448.497 365.649,-475.418"/>
<polygon fill="midnightblue" stroke="midnightblue" points="278.642,-320.951 268.053,-320.614 276.121,-327.481 278.642,-320.951"/>
</g>
<!-- Node22&#45;&gt;Node2 -->
<g id="edge39" class="edge"><title>Node22&#45;&gt;Node2</title>
<path fill="none" stroke="midnightblue" d="M276.557,-285.302C282.163,-287.827 287.441,-291.005 292,-295 349.129,-345.061 363.504,-444.197 366.683,-475.378"/>
<polygon fill="midnightblue" stroke="midnightblue" points="277.474,-281.907 266.883,-281.64 274.996,-288.454 277.474,-281.907"/>
</g>
<!-- Node23&#45;&gt;Node2 -->
<g id="edge41" class="edge"><title>Node23&#45;&gt;Node2</title>
<path fill="none" stroke="midnightblue" d="M274.467,-246.001C280.902,-248.722 286.944,-252.302 292,-257 358.281,-318.596 366.443,-439.59 367.392,-475.026"/>
<polygon fill="midnightblue" stroke="midnightblue" points="275.423,-242.627 264.828,-242.599 273.093,-249.228 275.423,-242.627"/>
</g>
<!-- Node24&#45;&gt;Node2 -->
<g id="edge43" class="edge"><title>Node24&#45;&gt;Node2</title>
<path fill="none" stroke="midnightblue" d="M287.263,-214.967C288.924,-216.211 290.509,-217.553 292,-219 367.963,-292.716 369.08,-436.786 367.929,-475.326"/>
<polygon fill="midnightblue" stroke="midnightblue" points="288.75,-211.773 278.395,-209.528 285.09,-217.74 288.75,-211.773"/>
</g>
<!-- Node25&#45;&gt;Node2 -->
<g id="edge45" class="edge"><title>Node25&#45;&gt;Node2</title>
<path fill="none" stroke="midnightblue" d="M278.441,-171.343C283.436,-173.882 288.064,-177.051 292,-181 335.385,-224.52 361.01,-428.125 366.42,-475.247"/>
<polygon fill="midnightblue" stroke="midnightblue" points="279.7,-168.076 269.125,-167.422 276.984,-174.527 279.7,-168.076"/>
</g>
<!-- Node26&#45;&gt;Node2 -->
<g id="edge47" class="edge"><title>Node26&#45;&gt;Node2</title>
<path fill="none" stroke="midnightblue" d="M288,-139.347C289.4,-140.484 290.738,-141.7 292,-143 340.292,-192.727 362.452,-425.156 366.721,-475.406"/>
<polygon fill="midnightblue" stroke="midnightblue" points="289.638,-136.235 279.361,-133.66 285.789,-142.082 289.638,-136.235"/>
</g>
<!-- Node27&#45;&gt;Node2 -->
<g id="edge49" class="edge"><title>Node27&#45;&gt;Node2</title>
<path fill="none" stroke="midnightblue" d="M288.037,-101.311C289.427,-102.459 290.751,-103.687 292,-105 345.184,-160.935 363.689,-421.98 366.95,-475.425"/>
<polygon fill="midnightblue" stroke="midnightblue" points="289.708,-98.2186 279.447,-95.5769 285.821,-104.04 289.708,-98.2186"/>
</g>
<!-- Node28&#45;&gt;Node2 -->
<g id="edge51" class="edge"><title>Node28&#45;&gt;Node2</title>
<path fill="none" stroke="midnightblue" d="M288.068,-63.2822C289.448,-64.4385 290.763,-65.676 292,-67 350.024,-129.1 364.768,-418.246 367.129,-475.233"/>
<polygon fill="midnightblue" stroke="midnightblue" points="289.766,-60.2054 279.52,-57.5089 285.848,-66.0063 289.766,-60.2054"/>
</g>
<!-- Node29&#45;&gt;Node2 -->
<g id="edge53" class="edge"><title>Node29&#45;&gt;Node2</title>
<path fill="none" stroke="midnightblue" d="M288.199,-25.3476C289.534,-26.4854 290.804,-27.7012 292,-29 354.915,-97.3293 365.783,-414.974 367.287,-475.147"/>
<polygon fill="midnightblue" stroke="midnightblue" points="290.154,-22.444 279.935,-19.6484 286.18,-28.2067 290.154,-22.444"/>
</g>
</g>
</svg>
