<?xml version="1.0" encoding="UTF-8" standalone="no"?>
<!DOCTYPE svg PUBLIC "-//W3C//DTD SVG 1.1//EN"
 "http://www.w3.org/Graphics/SVG/1.1/DTD/svg11.dtd">
<!-- Generated by graphviz version 2.38.0 (20140413.2041)
 -->
<!-- Title: ByteReader::byteCatch Pages: 1 -->
<svg width="649pt" height="850pt"
 viewBox="0.00 0.00 649.00 850.00" xmlns="http://www.w3.org/2000/svg" xmlns:xlink="http://www.w3.org/1999/xlink">
<g id="graph0" class="graph" transform="scale(1 1) rotate(0) translate(4 846)">
<title>ByteReader::byteCatch</title>
<polygon fill="white" stroke="none" points="-4,4 -4,-846 645,-846 645,4 -4,4"/>
<!-- Node1 -->
<g id="node1" class="node"><title>Node1</title>
<polygon fill="#bfbfbf" stroke="black" points="0,-411.5 0,-430.5 119,-430.5 119,-411.5 0,-411.5"/>
<text text-anchor="middle" x="59.5" y="-418.5" font-family="Helvetica,sans-Serif" font-size="10.00">ByteReader::byteCatch</text>
</g>
<!-- Node2 -->
<g id="node2" class="node"><title>Node2</title>
<g id="a_node2"><a xlink:href="class_constant_value.html#aee71ff590a730276c8da00dbdee74ecf" target="_top" xlink:title="ConstantValue::read">
<polygon fill="white" stroke="black" points="176.5,-822.5 176.5,-841.5 282.5,-841.5 282.5,-822.5 176.5,-822.5"/>
<text text-anchor="middle" x="229.5" y="-829.5" font-family="Helvetica,sans-Serif" font-size="10.00">ConstantValue::read</text>
</a>
</g>
</g>
<!-- Node1&#45;&gt;Node2 -->
<g id="edge1" class="edge"><title>Node1&#45;&gt;Node2</title>
<path fill="none" stroke="midnightblue" d="M62.6054,-440.879C70.6228,-512.88 101.52,-758.635 155,-813 160.915,-819.013 168.467,-823.207 176.467,-826.116"/>
<polygon fill="midnightblue" stroke="midnightblue" points="66.0409,-440.096 61.4792,-430.533 59.082,-440.853 66.0409,-440.096"/>
</g>
<!-- Node3 -->
<g id="node3" class="node"><title>Node3</title>
<g id="a_node3"><a xlink:href="class_number_table_attribute.html#aa56c8bbf97ea1c478e4488b93f1287a7" target="_top" xlink:title="NumberTableAttribute\l::read">
<polygon fill="white" stroke="black" points="173.5,-773 173.5,-803 285.5,-803 285.5,-773 173.5,-773"/>
<text text-anchor="start" x="181.5" y="-791" font-family="Helvetica,sans-Serif" font-size="10.00">NumberTableAttribute</text>
<text text-anchor="middle" x="229.5" y="-780" font-family="Helvetica,sans-Serif" font-size="10.00">::read</text>
</a>
</g>
</g>
<!-- Node1&#45;&gt;Node3 -->
<g id="edge2" class="edge"><title>Node1&#45;&gt;Node3</title>
<path fill="none" stroke="midnightblue" d="M59.9589,-441.019C59.5069,-498.999 66.2194,-668.889 155,-763 160.179,-768.49 166.61,-772.775 173.496,-776.119"/>
<polygon fill="midnightblue" stroke="midnightblue" points="63.4638,-440.747 60.1299,-430.691 56.4648,-440.631 63.4638,-440.747"/>
</g>
<!-- Node4 -->
<g id="node4" class="node"><title>Node4</title>
<g id="a_node4"><a xlink:href="class_code_attribute.html#ae5c7888c59b2a2990798c597c014a2ac" target="_top" xlink:title="CodeAttribute::read">
<polygon fill="white" stroke="black" points="179,-734.5 179,-753.5 280,-753.5 280,-734.5 179,-734.5"/>
<text text-anchor="middle" x="229.5" y="-741.5" font-family="Helvetica,sans-Serif" font-size="10.00">CodeAttribute::read</text>
</a>
</g>
</g>
<!-- Node1&#45;&gt;Node4 -->
<g id="edge3" class="edge"><title>Node1&#45;&gt;Node4</title>
<path fill="none" stroke="midnightblue" d="M60.4459,-440.881C61.4274,-494.931 71.8651,-645.796 155,-725 161.584,-731.273 169.959,-735.545 178.68,-738.438"/>
<polygon fill="midnightblue" stroke="midnightblue" points="63.9436,-440.584 60.3576,-430.614 56.9439,-440.644 63.9436,-440.584"/>
</g>
<!-- Node5 -->
<g id="node5" class="node"><title>Node5</title>
<g id="a_node5"><a xlink:href="class_inner_class.html#ab178cb43a3277c1ade99a8a0c346cd49" target="_top" xlink:title="InnerClass::read">
<polygon fill="white" stroke="black" points="185,-696.5 185,-715.5 274,-715.5 274,-696.5 185,-696.5"/>
<text text-anchor="middle" x="229.5" y="-703.5" font-family="Helvetica,sans-Serif" font-size="10.00">InnerClass::read</text>
</a>
</g>
</g>
<!-- Node1&#45;&gt;Node5 -->
<g id="edge4" class="edge"><title>Node1&#45;&gt;Node5</title>
<path fill="none" stroke="midnightblue" d="M61.4554,-440.701C64.9417,-489.95 81.047,-619.311 155,-687 163.264,-694.564 174.143,-699.2 184.99,-702.018"/>
<polygon fill="midnightblue" stroke="midnightblue" points="64.949,-440.487 60.849,-430.718 57.9618,-440.911 64.949,-440.487"/>
</g>
<!-- Node6 -->
<g id="node6" class="node"><title>Node6</title>
<g id="a_node6"><a xlink:href="class_exception.html#ad660b6215e7a9df9b2d4bc5216c828c4" target="_top" xlink:title="Exception::read">
<polygon fill="white" stroke="black" points="187,-658.5 187,-677.5 272,-677.5 272,-658.5 187,-658.5"/>
<text text-anchor="middle" x="229.5" y="-665.5" font-family="Helvetica,sans-Serif" font-size="10.00">Exception::read</text>
</a>
</g>
</g>
<!-- Node1&#45;&gt;Node6 -->
<g id="edge5" class="edge"><title>Node1&#45;&gt;Node6</title>
<path fill="none" stroke="midnightblue" d="M62.7513,-440.528C68.9065,-484.663 90.1386,-592.636 155,-649 163.854,-656.694 175.435,-661.335 186.777,-664.115"/>
<polygon fill="midnightblue" stroke="midnightblue" points="66.2126,-440.003 61.4678,-430.53 59.2696,-440.894 66.2126,-440.003"/>
</g>
<!-- Node7 -->
<g id="node7" class="node"><title>Node7</title>
<g id="a_node7"><a xlink:href="class_source_file.html#ab03dce42dd5c3f890ac4efa38e9d93e6" target="_top" xlink:title="SourceFile::read">
<polygon fill="white" stroke="black" points="185.5,-620.5 185.5,-639.5 273.5,-639.5 273.5,-620.5 185.5,-620.5"/>
<text text-anchor="middle" x="229.5" y="-627.5" font-family="Helvetica,sans-Serif" font-size="10.00">SourceFile::read</text>
</a>
</g>
</g>
<!-- Node1&#45;&gt;Node7 -->
<g id="edge6" class="edge"><title>Node1&#45;&gt;Node7</title>
<path fill="none" stroke="midnightblue" d="M65.1045,-440.379C75.0027,-477.859 101.844,-560.58 155,-606 163.573,-613.325 174.433,-618.427 185.156,-621.976"/>
<polygon fill="midnightblue" stroke="midnightblue" points="68.4982,-439.522 62.6596,-430.681 61.7106,-441.233 68.4982,-439.522"/>
</g>
<!-- Node8 -->
<g id="node8" class="node"><title>Node8</title>
<g id="a_node8"><a xlink:href="class_attribute_info.html#ac167daa272a7ef9b9f11389d34e42165" target="_top" xlink:title="AttributeInfo::read">
<polygon fill="white" stroke="black" points="182,-544.5 182,-563.5 277,-563.5 277,-544.5 182,-544.5"/>
<text text-anchor="middle" x="229.5" y="-551.5" font-family="Helvetica,sans-Serif" font-size="10.00">AttributeInfo::read</text>
</a>
</g>
</g>
<!-- Node1&#45;&gt;Node8 -->
<g id="edge7" class="edge"><title>Node1&#45;&gt;Node8</title>
<path fill="none" stroke="midnightblue" d="M71.7448,-439.27C87.4942,-463.397 118.343,-505.664 155,-530 164.282,-536.162 175.272,-540.852 185.885,-544.375"/>
<polygon fill="midnightblue" stroke="midnightblue" points="74.6154,-437.262 66.2929,-430.705 68.7102,-441.02 74.6154,-437.262"/>
</g>
<!-- Node10 -->
<g id="node10" class="node"><title>Node10</title>
<g id="a_node10"><a xlink:href="class_field_info.html#acb85db9ce893bc3e2617138fd46a8ad6" target="_top" xlink:title="FieldInfo::read">
<polygon fill="white" stroke="black" points="369,-582.5 369,-601.5 448,-601.5 448,-582.5 369,-582.5"/>
<text text-anchor="middle" x="408.5" y="-589.5" font-family="Helvetica,sans-Serif" font-size="10.00">FieldInfo::read</text>
</a>
</g>
</g>
<!-- Node1&#45;&gt;Node10 -->
<g id="edge26" class="edge"><title>Node1&#45;&gt;Node10</title>
<path fill="none" stroke="midnightblue" d="M66.1243,-440.268C77.0588,-473.863 104.644,-542.483 155,-573 221.357,-613.214 316.238,-607.008 368.77,-599.276"/>
<polygon fill="midnightblue" stroke="midnightblue" points="69.4571,-439.198 63.1515,-430.684 62.7713,-441.272 69.4571,-439.198"/>
</g>
<!-- Node12 -->
<g id="node12" class="node"><title>Node12</title>
<g id="a_node12"><a xlink:href="struct_method_info.html#a96fbb8de441ef2af032c20d36d41eb7a" target="_top" xlink:title="Serve para preencher os valores de uma instância de MethodInfo. ">
<polygon fill="white" stroke="black" points="363.5,-506.5 363.5,-525.5 453.5,-525.5 453.5,-506.5 363.5,-506.5"/>
<text text-anchor="middle" x="408.5" y="-513.5" font-family="Helvetica,sans-Serif" font-size="10.00">MethodInfo::read</text>
</a>
</g>
</g>
<!-- Node1&#45;&gt;Node12 -->
<g id="edge29" class="edge"><title>Node1&#45;&gt;Node12</title>
<path fill="none" stroke="midnightblue" d="M75.6591,-438.222C92.858,-456.434 122.737,-484.255 155,-497 223.893,-524.215 311.486,-523.835 363.315,-520.396"/>
<polygon fill="midnightblue" stroke="midnightblue" points="78.0248,-435.623 68.6861,-430.619 72.8661,-440.355 78.0248,-435.623"/>
</g>
<!-- Node14 -->
<g id="node14" class="node"><title>Node14</title>
<g id="a_node14"><a xlink:href="class_class_loader.html#a9e756ef58a13aab63472a9b343710327" target="_top" xlink:title="ClassLoader::setMagic">
<polygon fill="white" stroke="black" points="171,-468.5 171,-487.5 288,-487.5 288,-468.5 171,-468.5"/>
<text text-anchor="middle" x="229.5" y="-475.5" font-family="Helvetica,sans-Serif" font-size="10.00">ClassLoader::setMagic</text>
</a>
</g>
</g>
<!-- Node1&#45;&gt;Node14 -->
<g id="edge13" class="edge"><title>Node1&#45;&gt;Node14</title>
<path fill="none" stroke="midnightblue" d="M91.2634,-434.545C109.562,-442.305 133.356,-451.884 155,-459 165.517,-462.458 177.046,-465.692 187.79,-468.477"/>
<polygon fill="midnightblue" stroke="midnightblue" points="92.5447,-431.287 81.9746,-430.562 89.786,-437.72 92.5447,-431.287"/>
</g>
<!-- Node15 -->
<g id="node15" class="node"><title>Node15</title>
<g id="a_node15"><a xlink:href="class_class_loader.html#ad2bd2b993bdbc080f77a9f5e76744fd7" target="_top" xlink:title="ClassLoader::setMinor">
<polygon fill="white" stroke="black" points="172,-430.5 172,-449.5 287,-449.5 287,-430.5 172,-430.5"/>
<text text-anchor="middle" x="229.5" y="-437.5" font-family="Helvetica,sans-Serif" font-size="10.00">ClassLoader::setMinor</text>
</a>
</g>
</g>
<!-- Node1&#45;&gt;Node15 -->
<g id="edge14" class="edge"><title>Node1&#45;&gt;Node15</title>
<path fill="none" stroke="midnightblue" d="M129.389,-428.791C143.476,-430.384 158.15,-432.044 171.755,-433.582"/>
<polygon fill="midnightblue" stroke="midnightblue" points="129.588,-425.291 119.258,-427.645 128.802,-432.247 129.588,-425.291"/>
</g>
<!-- Node16 -->
<g id="node16" class="node"><title>Node16</title>
<g id="a_node16"><a xlink:href="class_class_loader.html#afd21ab61a4ea4d2fda29319e37a7886e" target="_top" xlink:title="ClassLoader::setMajor">
<polygon fill="white" stroke="black" points="172,-392.5 172,-411.5 287,-411.5 287,-392.5 172,-392.5"/>
<text text-anchor="middle" x="229.5" y="-399.5" font-family="Helvetica,sans-Serif" font-size="10.00">ClassLoader::setMajor</text>
</a>
</g>
</g>
<!-- Node1&#45;&gt;Node16 -->
<g id="edge15" class="edge"><title>Node1&#45;&gt;Node16</title>
<path fill="none" stroke="midnightblue" d="M129.389,-413.209C143.476,-411.616 158.15,-409.956 171.755,-408.418"/>
<polygon fill="midnightblue" stroke="midnightblue" points="128.802,-409.753 119.258,-414.355 129.588,-416.709 128.802,-409.753"/>
</g>
<!-- Node17 -->
<g id="node17" class="node"><title>Node17</title>
<g id="a_node17"><a xlink:href="class_class_loader.html#a22735292f1ed1c1b101111f013524a06" target="_top" xlink:title="ClassLoader::setConstCount">
<polygon fill="white" stroke="black" points="158,-354.5 158,-373.5 301,-373.5 301,-354.5 158,-354.5"/>
<text text-anchor="middle" x="229.5" y="-361.5" font-family="Helvetica,sans-Serif" font-size="10.00">ClassLoader::setConstCount</text>
</a>
</g>
</g>
<!-- Node1&#45;&gt;Node17 -->
<g id="edge16" class="edge"><title>Node1&#45;&gt;Node17</title>
<path fill="none" stroke="midnightblue" d="M91.2634,-407.455C109.562,-399.695 133.356,-390.116 155,-383 165.517,-379.542 177.046,-376.308 187.79,-373.523"/>
<polygon fill="midnightblue" stroke="midnightblue" points="89.786,-404.28 81.9746,-411.438 92.5447,-410.713 89.786,-404.28"/>
</g>
<!-- Node18 -->
<g id="node18" class="node"><title>Node18</title>
<g id="a_node18"><a xlink:href="class_class_loader.html#a78a667283feda0933eabf1d8f601fa30" target="_top" xlink:title="ClassLoader::setAccessFlag">
<polygon fill="white" stroke="black" points="158,-316.5 158,-335.5 301,-335.5 301,-316.5 158,-316.5"/>
<text text-anchor="middle" x="229.5" y="-323.5" font-family="Helvetica,sans-Serif" font-size="10.00">ClassLoader::setAccessFlag</text>
</a>
</g>
</g>
<!-- Node1&#45;&gt;Node18 -->
<g id="edge17" class="edge"><title>Node1&#45;&gt;Node18</title>
<path fill="none" stroke="midnightblue" d="M76.9828,-404.025C94.7108,-386.723 124.486,-360.314 155,-345 162.657,-341.157 171.164,-338.041 179.596,-335.53"/>
<polygon fill="midnightblue" stroke="midnightblue" points="74.3356,-401.722 69.7259,-411.261 79.2784,-406.679 74.3356,-401.722"/>
</g>
<!-- Node19 -->
<g id="node19" class="node"><title>Node19</title>
<g id="a_node19"><a xlink:href="class_class_loader.html#aa089d3175ca27ac5e0efa2f6c26c4df5" target="_top" xlink:title="ClassLoader::setThisClass">
<polygon fill="white" stroke="black" points="162,-278.5 162,-297.5 297,-297.5 297,-278.5 162,-278.5"/>
<text text-anchor="middle" x="229.5" y="-285.5" font-family="Helvetica,sans-Serif" font-size="10.00">ClassLoader::setThisClass</text>
</a>
</g>
</g>
<!-- Node1&#45;&gt;Node19 -->
<g id="edge18" class="edge"><title>Node1&#45;&gt;Node19</title>
<path fill="none" stroke="midnightblue" d="M70.6562,-402.631C85.6949,-377.181 116.322,-331.563 155,-307 161.119,-303.114 168.002,-300.021 175.037,-297.559"/>
<polygon fill="midnightblue" stroke="midnightblue" points="67.6162,-400.896 65.6714,-411.311 73.6865,-404.382 67.6162,-400.896"/>
</g>
<!-- Node20 -->
<g id="node20" class="node"><title>Node20</title>
<g id="a_node20"><a xlink:href="class_class_loader.html#a011a4cfdd1995fa34718a549ca467b0a" target="_top" xlink:title="ClassLoader::setSuperClass">
<polygon fill="white" stroke="black" points="158.5,-240.5 158.5,-259.5 300.5,-259.5 300.5,-240.5 158.5,-240.5"/>
<text text-anchor="middle" x="229.5" y="-247.5" font-family="Helvetica,sans-Serif" font-size="10.00">ClassLoader::setSuperClass</text>
</a>
</g>
</g>
<!-- Node1&#45;&gt;Node20 -->
<g id="edge19" class="edge"><title>Node1&#45;&gt;Node20</title>
<path fill="none" stroke="midnightblue" d="M67.0403,-401.728C79.0977,-369.194 107.984,-303.552 155,-269 160.31,-265.098 166.35,-261.995 172.632,-259.528"/>
<polygon fill="midnightblue" stroke="midnightblue" points="63.6538,-400.805 63.5945,-411.4 70.2478,-403.155 63.6538,-400.805"/>
</g>
<!-- Node21 -->
<g id="node21" class="node"><title>Node21</title>
<g id="a_node21"><a xlink:href="class_class_loader.html#a25c897efbe0542a8603f2dfa29943881" target="_top" xlink:title="ClassLoader::setInterCount">
<polygon fill="white" stroke="black" points="161,-202.5 161,-221.5 298,-221.5 298,-202.5 161,-202.5"/>
<text text-anchor="middle" x="229.5" y="-209.5" font-family="Helvetica,sans-Serif" font-size="10.00">ClassLoader::setInterCount</text>
</a>
</g>
</g>
<!-- Node1&#45;&gt;Node21 -->
<g id="edge20" class="edge"><title>Node1&#45;&gt;Node21</title>
<path fill="none" stroke="midnightblue" d="M64.5647,-401.348C73.6321,-362.597 99.2545,-276.182 155,-231 159.812,-227.1 165.335,-223.991 171.145,-221.515"/>
<polygon fill="midnightblue" stroke="midnightblue" points="61.0959,-400.824 62.3504,-411.344 67.9303,-402.338 61.0959,-400.824"/>
</g>
<!-- Node22 -->
<g id="node22" class="node"><title>Node22</title>
<g id="a_node22"><a xlink:href="class_class_loader.html#aedeaf814e3cf232978ce7e0b135c93b0" target="_top" xlink:title="ClassLoader::setFieldCount">
<polygon fill="white" stroke="black" points="160.5,-164.5 160.5,-183.5 298.5,-183.5 298.5,-164.5 160.5,-164.5"/>
<text text-anchor="middle" x="229.5" y="-171.5" font-family="Helvetica,sans-Serif" font-size="10.00">ClassLoader::setFieldCount</text>
</a>
</g>
</g>
<!-- Node1&#45;&gt;Node22 -->
<g id="edge21" class="edge"><title>Node1&#45;&gt;Node22</title>
<path fill="none" stroke="midnightblue" d="M62.7513,-401.472C68.9065,-357.337 90.1386,-249.364 155,-193 159.477,-189.11 164.651,-186 170.139,-183.517"/>
<polygon fill="midnightblue" stroke="midnightblue" points="59.2696,-401.106 61.4678,-411.47 66.2126,-401.997 59.2696,-401.106"/>
</g>
<!-- Node23 -->
<g id="node23" class="node"><title>Node23</title>
<g id="a_node23"><a xlink:href="class_class_loader.html#aa744ed99b82e912547af903ea13fa3dd" target="_top" xlink:title="ClassLoader::setMethodCount">
<polygon fill="white" stroke="black" points="155,-126.5 155,-145.5 304,-145.5 304,-126.5 155,-126.5"/>
<text text-anchor="middle" x="229.5" y="-133.5" font-family="Helvetica,sans-Serif" font-size="10.00">ClassLoader::setMethodCount</text>
</a>
</g>
</g>
<!-- Node1&#45;&gt;Node23 -->
<g id="edge22" class="edge"><title>Node1&#45;&gt;Node23</title>
<path fill="none" stroke="midnightblue" d="M61.4554,-401.299C64.9417,-352.05 81.047,-222.689 155,-155 159.181,-151.174 164.03,-148.096 169.207,-145.625"/>
<polygon fill="midnightblue" stroke="midnightblue" points="57.9618,-401.089 60.849,-411.282 64.949,-401.513 57.9618,-401.089"/>
</g>
<!-- Node24 -->
<g id="node24" class="node"><title>Node24</title>
<g id="a_node24"><a xlink:href="class_class_loader.html#ae1dff6712251163173291991f52ac8fa" target="_top" xlink:title="ClassLoader::setAttributes\lCount">
<polygon fill="white" stroke="black" points="163,-77 163,-107 296,-107 296,-77 163,-77"/>
<text text-anchor="start" x="171" y="-95" font-family="Helvetica,sans-Serif" font-size="10.00">ClassLoader::setAttributes</text>
<text text-anchor="middle" x="229.5" y="-84" font-family="Helvetica,sans-Serif" font-size="10.00">Count</text>
</a>
</g>
</g>
<!-- Node1&#45;&gt;Node24 -->
<g id="edge23" class="edge"><title>Node1&#45;&gt;Node24</title>
<path fill="none" stroke="midnightblue" d="M60.7803,-401.085C62.6226,-347.554 75.0683,-199.076 155,-117 158.761,-113.138 163.142,-109.872 167.856,-107.111"/>
<polygon fill="midnightblue" stroke="midnightblue" points="57.2768,-401.186 60.5236,-411.271 64.2745,-401.362 57.2768,-401.186"/>
</g>
<!-- Node25 -->
<g id="node25" class="node"><title>Node25</title>
<g id="a_node25"><a xlink:href="class_cp_info.html#ab8c89df973cc40b407e0cdd4911923f1" target="_top" xlink:title="CpInfo::read">
<polygon fill="white" stroke="black" points="194,-38.5 194,-57.5 265,-57.5 265,-38.5 194,-38.5"/>
<text text-anchor="middle" x="229.5" y="-45.5" font-family="Helvetica,sans-Serif" font-size="10.00">CpInfo::read</text>
</a>
</g>
</g>
<!-- Node1&#45;&gt;Node25 -->
<g id="edge24" class="edge"><title>Node1&#45;&gt;Node25</title>
<path fill="none" stroke="midnightblue" d="M63.1279,-401.321C72.4825,-334.146 106.23,-115.386 155,-67 165.198,-56.8819 180.037,-51.9355 193.716,-49.591"/>
<polygon fill="midnightblue" stroke="midnightblue" points="59.6375,-401.013 61.7511,-411.395 66.5731,-401.961 59.6375,-401.013"/>
</g>
<!-- Node27 -->
<g id="node27" class="node"><title>Node27</title>
<g id="a_node27"><a xlink:href="class_interface_info.html#a9fa9166bbfee8837d611da9a88d1ba67" target="_top" xlink:title="InterfaceInfo::setInterfaceInfo">
<polygon fill="white" stroke="black" points="156.5,-0.5 156.5,-19.5 302.5,-19.5 302.5,-0.5 156.5,-0.5"/>
<text text-anchor="middle" x="229.5" y="-7.5" font-family="Helvetica,sans-Serif" font-size="10.00">InterfaceInfo::setInterfaceInfo</text>
</a>
</g>
</g>
<!-- Node1&#45;&gt;Node27 -->
<g id="edge27" class="edge"><title>Node1&#45;&gt;Node27</title>
<path fill="none" stroke="midnightblue" d="M62.6054,-401.121C70.6228,-329.12 101.52,-83.3649 155,-29 158.79,-25.1478 163.251,-22.0421 168.071,-19.5427"/>
<polygon fill="midnightblue" stroke="midnightblue" points="59.082,-401.147 61.4792,-411.467 66.0409,-401.904 59.082,-401.147"/>
</g>
<!-- Node9 -->
<g id="node9" class="node"><title>Node9</title>
<g id="a_node9"><a xlink:href="class_class_loader.html#adac675675241b8c2892ebfbf5b902d33" target="_top" xlink:title="ClassLoader::setAttributes">
<polygon fill="white" stroke="black" points="342,-544.5 342,-563.5 475,-563.5 475,-544.5 342,-544.5"/>
<text text-anchor="middle" x="408.5" y="-551.5" font-family="Helvetica,sans-Serif" font-size="10.00">ClassLoader::setAttributes</text>
</a>
</g>
</g>
<!-- Node8&#45;&gt;Node9 -->
<g id="edge8" class="edge"><title>Node8&#45;&gt;Node9</title>
<path fill="none" stroke="midnightblue" d="M287.492,-554C304.763,-554 323.875,-554 341.674,-554"/>
<polygon fill="midnightblue" stroke="midnightblue" points="287.005,-550.5 277.005,-554 287.005,-557.5 287.005,-550.5"/>
</g>
<!-- Node8&#45;&gt;Node10 -->
<g id="edge9" class="edge"><title>Node8&#45;&gt;Node10</title>
<path fill="none" stroke="midnightblue" d="M285.274,-565.759C312.352,-571.573 344.384,-578.45 368.862,-583.705"/>
<polygon fill="midnightblue" stroke="midnightblue" points="285.676,-562.266 275.165,-563.589 284.207,-569.11 285.676,-562.266"/>
</g>
<!-- Node8&#45;&gt;Node12 -->
<g id="edge11" class="edge"><title>Node8&#45;&gt;Node12</title>
<path fill="none" stroke="midnightblue" d="M284.947,-542.311C310.148,-536.901 339.695,-530.557 363.463,-525.454"/>
<polygon fill="midnightblue" stroke="midnightblue" points="284.207,-538.89 275.165,-544.411 285.676,-545.734 284.207,-538.89"/>
</g>
<!-- Node11 -->
<g id="node11" class="node"><title>Node11</title>
<g id="a_node11"><a xlink:href="class_class_loader.html#a3a544b1a25a445bbf4ce7e5d84a2a90a" target="_top" xlink:title="ClassLoader::setFields">
<polygon fill="white" stroke="black" points="518.5,-582.5 518.5,-601.5 635.5,-601.5 635.5,-582.5 518.5,-582.5"/>
<text text-anchor="middle" x="577" y="-589.5" font-family="Helvetica,sans-Serif" font-size="10.00">ClassLoader::setFields</text>
</a>
</g>
</g>
<!-- Node10&#45;&gt;Node11 -->
<g id="edge10" class="edge"><title>Node10&#45;&gt;Node11</title>
<path fill="none" stroke="midnightblue" d="M458.245,-592C477.063,-592 498.737,-592 518.321,-592"/>
<polygon fill="midnightblue" stroke="midnightblue" points="458.117,-588.5 448.117,-592 458.117,-595.5 458.117,-588.5"/>
</g>
<!-- Node13 -->
<g id="node13" class="node"><title>Node13</title>
<g id="a_node13"><a xlink:href="class_class_loader.html#ab47e37f5d359a067182c1a181e9db54e" target="_top" xlink:title="ClassLoader::setMethods">
<polygon fill="white" stroke="black" points="513,-506.5 513,-525.5 641,-525.5 641,-506.5 513,-506.5"/>
<text text-anchor="middle" x="577" y="-513.5" font-family="Helvetica,sans-Serif" font-size="10.00">ClassLoader::setMethods</text>
</a>
</g>
</g>
<!-- Node12&#45;&gt;Node13 -->
<g id="edge12" class="edge"><title>Node12&#45;&gt;Node13</title>
<path fill="none" stroke="midnightblue" d="M463.727,-516C479.398,-516 496.638,-516 512.805,-516"/>
<polygon fill="midnightblue" stroke="midnightblue" points="463.682,-512.5 453.682,-516 463.682,-519.5 463.682,-512.5"/>
</g>
<!-- Node26 -->
<g id="node26" class="node"><title>Node26</title>
<g id="a_node26"><a xlink:href="class_class_loader.html#a09a097315d78f50dc7522811e256978f" target="_top" xlink:title="ClassLoader::setConstPool">
<polygon fill="white" stroke="black" points="340,-38.5 340,-57.5 477,-57.5 477,-38.5 340,-38.5"/>
<text text-anchor="middle" x="408.5" y="-45.5" font-family="Helvetica,sans-Serif" font-size="10.00">ClassLoader::setConstPool</text>
</a>
</g>
</g>
<!-- Node25&#45;&gt;Node26 -->
<g id="edge25" class="edge"><title>Node25&#45;&gt;Node26</title>
<path fill="none" stroke="midnightblue" d="M275.183,-48C294.727,-48 318.084,-48 339.697,-48"/>
<polygon fill="midnightblue" stroke="midnightblue" points="275.048,-44.5001 265.048,-48 275.048,-51.5001 275.048,-44.5001"/>
</g>
<!-- Node28 -->
<g id="node28" class="node"><title>Node28</title>
<g id="a_node28"><a xlink:href="class_class_loader.html#a18bc96df21925d9da172c64205736ea5" target="_top" xlink:title="ClassLoader::setInterface">
<polygon fill="white" stroke="black" points="344,-0.5 344,-19.5 473,-19.5 473,-0.5 344,-0.5"/>
<text text-anchor="middle" x="408.5" y="-7.5" font-family="Helvetica,sans-Serif" font-size="10.00">ClassLoader::setInterface</text>
</a>
</g>
</g>
<!-- Node27&#45;&gt;Node28 -->
<g id="edge28" class="edge"><title>Node27&#45;&gt;Node28</title>
<path fill="none" stroke="midnightblue" d="M312.755,-10C323.249,-10 333.862,-10 343.998,-10"/>
<polygon fill="midnightblue" stroke="midnightblue" points="312.748,-6.5001 302.748,-10 312.748,-13.5001 312.748,-6.5001"/>
</g>
</g>
</svg>
