<?xml version="1.0" encoding="UTF-8" standalone="no"?>
<!DOCTYPE svg PUBLIC "-//W3C//DTD SVG 1.1//EN"
 "http://www.w3.org/Graphics/SVG/1.1/DTD/svg11.dtd">
<!-- Generated by graphviz version 2.38.0 (20140413.2041)
 -->
<!-- Title: Interpreter::getClassInfo Pages: 1 -->
<svg width="620pt" height="47pt"
 viewBox="0.00 0.00 620.00 47.00" xmlns="http://www.w3.org/2000/svg" xmlns:xlink="http://www.w3.org/1999/xlink">
<g id="graph0" class="graph" transform="scale(1 1) rotate(0) translate(4 43)">
<title>Interpreter::getClassInfo</title>
<polygon fill="white" stroke="none" points="-4,4 -4,-43 616,-43 616,4 -4,4"/>
<!-- Node1 -->
<g id="node1" class="node"><title>Node1</title>
<polygon fill="#bfbfbf" stroke="black" points="0,-0.5 0,-19.5 122,-19.5 122,-0.5 0,-0.5"/>
<text text-anchor="middle" x="61" y="-7.5" font-family="Helvetica,sans-Serif" font-size="10.00">Interpreter::getClassInfo</text>
</g>
<!-- Node2 -->
<g id="node2" class="node"><title>Node2</title>
<g id="a_node2"><a xlink:href="class_interpreter.html#ab8fa17a7a73d119f3a3113555aef9702" target="_top" xlink:title="Interpreter::loadInMemo">
<polygon fill="white" stroke="black" points="158,-19.5 158,-38.5 278,-38.5 278,-19.5 158,-19.5"/>
<text text-anchor="middle" x="218" y="-26.5" font-family="Helvetica,sans-Serif" font-size="10.00">Interpreter::loadInMemo</text>
</a>
</g>
</g>
<!-- Node1&#45;&gt;Node2 -->
<g id="edge1" class="edge"><title>Node1&#45;&gt;Node2</title>
<path fill="none" stroke="midnightblue" d="M122.371,-17.4003C130.65,-18.4152 139.204,-19.4637 147.628,-20.4963"/>
<polygon fill="midnightblue" stroke="midnightblue" points="147.46,-24.0019 157.812,-21.7447 148.312,-17.0539 147.46,-24.0019"/>
</g>
<!-- Node3 -->
<g id="node3" class="node"><title>Node3</title>
<g id="a_node3"><a xlink:href="class_interpreter.html#a39a3745e54aa3cee8882075c96ae8b3f" target="_top" xlink:title="Interpreter::loadVariables">
<polygon fill="white" stroke="black" points="314,-0.5 314,-19.5 439,-19.5 439,-0.5 314,-0.5"/>
<text text-anchor="middle" x="376.5" y="-7.5" font-family="Helvetica,sans-Serif" font-size="10.00">Interpreter::loadVariables</text>
</a>
</g>
</g>
<!-- Node2&#45;&gt;Node3 -->
<g id="edge2" class="edge"><title>Node2&#45;&gt;Node3</title>
<path fill="none" stroke="midnightblue" d="M278.166,-21.8169C286.565,-20.7972 295.276,-19.7396 303.88,-18.6951"/>
<polygon fill="midnightblue" stroke="midnightblue" points="304.4,-22.1578 313.905,-17.478 303.556,-15.2088 304.4,-22.1578"/>
</g>
<!-- Node3&#45;&gt;Node1 -->
<g id="edge4" class="edge"><title>Node3&#45;&gt;Node1</title>
<path fill="none" stroke="midnightblue" d="M313.754,-10C261.57,-10 186.829,-10 132.345,-10"/>
<polygon fill="midnightblue" stroke="midnightblue" points="132.075,-6.5001 122.075,-10 132.075,-13.5001 132.075,-6.5001"/>
</g>
<!-- Node4 -->
<g id="node4" class="node"><title>Node4</title>
<g id="a_node4"><a xlink:href="class_class_loader.html#a8f3dc8367a76e7a4594bd5e8206d3977" target="_top" xlink:title="ClassLoader::getConstPool">
<polygon fill="white" stroke="black" points="475,-0.5 475,-19.5 612,-19.5 612,-0.5 475,-0.5"/>
<text text-anchor="middle" x="543.5" y="-7.5" font-family="Helvetica,sans-Serif" font-size="10.00">ClassLoader::getConstPool</text>
</a>
</g>
</g>
<!-- Node3&#45;&gt;Node4 -->
<g id="edge3" class="edge"><title>Node3&#45;&gt;Node4</title>
<path fill="none" stroke="midnightblue" d="M439.409,-10C447.756,-10 456.404,-10 464.98,-10"/>
<polygon fill="midnightblue" stroke="midnightblue" points="464.991,-13.5001 474.991,-10 464.991,-6.5001 464.991,-13.5001"/>
</g>
</g>
</svg>
