<?xml version="1.0" encoding="UTF-8" standalone="no"?>
<!DOCTYPE svg PUBLIC "-//W3C//DTD SVG 1.1//EN"
 "http://www.w3.org/Graphics/SVG/1.1/DTD/svg11.dtd">
<!-- Generated by graphviz version 2.38.0 (20140413.2041)
 -->
<!-- Title: MethodsArea::copyOperand Pages: 1 -->
<svg width="555pt" height="104pt"
 viewBox="0.00 0.00 555.00 104.00" xmlns="http://www.w3.org/2000/svg" xmlns:xlink="http://www.w3.org/1999/xlink">
<g id="graph0" class="graph" transform="scale(1 1) rotate(0) translate(4 100)">
<title>MethodsArea::copyOperand</title>
<polygon fill="white" stroke="none" points="-4,4 -4,-100 551,-100 551,4 -4,4"/>
<!-- Node1 -->
<g id="node1" class="node"><title>Node1</title>
<polygon fill="#bfbfbf" stroke="black" points="0,-38.5 0,-57.5 138,-57.5 138,-38.5 0,-38.5"/>
<text text-anchor="middle" x="69" y="-45.5" font-family="Helvetica,sans-Serif" font-size="10.00">MethodsArea::copyOperand</text>
</g>
<!-- Node2 -->
<g id="node2" class="node"><title>Node2</title>
<g id="a_node2"><a xlink:href="class_instruction_impl.html#a79c7b953ad51131ac015eb14dfdfe53e" target="_top" xlink:title="InstructionImpl::dup_x1">
<polygon fill="white" stroke="black" points="174,-76.5 174,-95.5 293,-95.5 293,-76.5 174,-76.5"/>
<text text-anchor="middle" x="233.5" y="-83.5" font-family="Helvetica,sans-Serif" font-size="10.00">InstructionImpl::dup_x1</text>
</a>
</g>
</g>
<!-- Node1&#45;&gt;Node2 -->
<g id="edge1" class="edge"><title>Node1&#45;&gt;Node2</title>
<path fill="none" stroke="midnightblue" d="M120.871,-59.8961C143.712,-65.2374 170.295,-71.4537 191.789,-76.4799"/>
<polygon fill="midnightblue" stroke="midnightblue" points="121.54,-56.4581 111.006,-57.589 119.946,-63.2742 121.54,-56.4581"/>
</g>
<!-- Node6 -->
<g id="node6" class="node"><title>Node6</title>
<g id="a_node6"><a xlink:href="class_instruction_impl.html#ac3a59efe8fba23274bc8375ef6505b79" target="_top" xlink:title="InstructionImpl::dup_x2">
<polygon fill="white" stroke="black" points="174,-38.5 174,-57.5 293,-57.5 293,-38.5 174,-38.5"/>
<text text-anchor="middle" x="233.5" y="-45.5" font-family="Helvetica,sans-Serif" font-size="10.00">InstructionImpl::dup_x2</text>
</a>
</g>
</g>
<!-- Node1&#45;&gt;Node6 -->
<g id="edge5" class="edge"><title>Node1&#45;&gt;Node6</title>
<path fill="none" stroke="midnightblue" d="M148.462,-48C157.031,-48 165.642,-48 173.913,-48"/>
<polygon fill="midnightblue" stroke="midnightblue" points="148.444,-44.5001 138.444,-48 148.444,-51.5001 148.444,-44.5001"/>
</g>
<!-- Node7 -->
<g id="node7" class="node"><title>Node7</title>
<g id="a_node7"><a xlink:href="class_instruction_impl.html#a9847d6132f46fb58988b30003e7191b4" target="_top" xlink:title="InstructionImpl::dup2">
<polygon fill="white" stroke="black" points="179.5,-0.5 179.5,-19.5 287.5,-19.5 287.5,-0.5 179.5,-0.5"/>
<text text-anchor="middle" x="233.5" y="-7.5" font-family="Helvetica,sans-Serif" font-size="10.00">InstructionImpl::dup2</text>
</a>
</g>
</g>
<!-- Node1&#45;&gt;Node7 -->
<g id="edge7" class="edge"><title>Node1&#45;&gt;Node7</title>
<path fill="none" stroke="midnightblue" d="M120.871,-36.1039C143.712,-30.7626 170.295,-24.5463 191.789,-19.5201"/>
<polygon fill="midnightblue" stroke="midnightblue" points="119.946,-32.7258 111.006,-38.411 121.54,-39.5419 119.946,-32.7258"/>
</g>
<!-- Node3 -->
<g id="node3" class="node"><title>Node3</title>
<g id="a_node3"><a xlink:href="class_instruction.html#a145a172552303c9cbd8a5856e31a701b" target="_top" xlink:title="Instruction::init">
<polygon fill="white" stroke="black" points="329,-38.5 329,-57.5 410,-57.5 410,-38.5 329,-38.5"/>
<text text-anchor="middle" x="369.5" y="-45.5" font-family="Helvetica,sans-Serif" font-size="10.00">Instruction::init</text>
</a>
</g>
</g>
<!-- Node2&#45;&gt;Node3 -->
<g id="edge2" class="edge"><title>Node2&#45;&gt;Node3</title>
<path fill="none" stroke="midnightblue" d="M277.938,-73.6817C296.349,-68.4607 317.48,-62.4684 334.697,-57.5859"/>
<polygon fill="midnightblue" stroke="midnightblue" points="276.98,-70.3155 268.314,-76.411 278.889,-77.0499 276.98,-70.3155"/>
</g>
<!-- Node4 -->
<g id="node4" class="node"><title>Node4</title>
<g id="a_node4"><a xlink:href="class_code_attribute.html#a380eb04a01b0a0db351cf74443067ba4" target="_top" xlink:title="CodeAttribute::print">
<polygon fill="white" stroke="black" points="446,-57.5 446,-76.5 547,-76.5 547,-57.5 446,-57.5"/>
<text text-anchor="middle" x="496.5" y="-64.5" font-family="Helvetica,sans-Serif" font-size="10.00">CodeAttribute::print</text>
</a>
</g>
</g>
<!-- Node3&#45;&gt;Node4 -->
<g id="edge3" class="edge"><title>Node3&#45;&gt;Node4</title>
<path fill="none" stroke="midnightblue" d="M420.099,-55.539C428.505,-56.8167 437.236,-58.1438 445.648,-59.4224"/>
<polygon fill="midnightblue" stroke="midnightblue" points="420.463,-52.0543 410.051,-54.0117 419.411,-58.9748 420.463,-52.0543"/>
</g>
<!-- Node5 -->
<g id="node5" class="node"><title>Node5</title>
<g id="a_node5"><a xlink:href="struct_frame.html#abe0b370087d05267cab997ecdc78c4bd" target="_top" xlink:title="Frame::Frame">
<polygon fill="white" stroke="black" points="457.5,-19.5 457.5,-38.5 535.5,-38.5 535.5,-19.5 457.5,-19.5"/>
<text text-anchor="middle" x="496.5" y="-26.5" font-family="Helvetica,sans-Serif" font-size="10.00">Frame::Frame</text>
</a>
</g>
</g>
<!-- Node3&#45;&gt;Node5 -->
<g id="edge4" class="edge"><title>Node3&#45;&gt;Node5</title>
<path fill="none" stroke="midnightblue" d="M420.257,-40.437C432.657,-38.5522 445.755,-36.5612 457.487,-34.778"/>
<polygon fill="midnightblue" stroke="midnightblue" points="419.411,-37.0252 410.051,-41.9883 420.463,-43.9457 419.411,-37.0252"/>
</g>
<!-- Node6&#45;&gt;Node3 -->
<g id="edge6" class="edge"><title>Node6&#45;&gt;Node3</title>
<path fill="none" stroke="midnightblue" d="M303.411,-48C312.058,-48 320.663,-48 328.648,-48"/>
<polygon fill="midnightblue" stroke="midnightblue" points="303.274,-44.5001 293.274,-48 303.274,-51.5001 303.274,-44.5001"/>
</g>
<!-- Node7&#45;&gt;Node3 -->
<g id="edge8" class="edge"><title>Node7&#45;&gt;Node3</title>
<path fill="none" stroke="midnightblue" d="M277.938,-22.3183C296.349,-27.5393 317.48,-33.5316 334.697,-38.4141"/>
<polygon fill="midnightblue" stroke="midnightblue" points="278.889,-18.9501 268.314,-19.589 276.98,-25.6845 278.889,-18.9501"/>
</g>
</g>
</svg>
