<?xml version="1.0" encoding="UTF-8" standalone="no"?>
<!DOCTYPE svg PUBLIC "-//W3C//DTD SVG 1.1//EN"
 "http://www.w3.org/Graphics/SVG/1.1/DTD/svg11.dtd">
<!-- Generated by graphviz version 2.38.0 (20140413.2041)
 -->
<!-- Title: ClassLoader::setInterface Pages: 1 -->
<svg width="474pt" height="28pt"
 viewBox="0.00 0.00 474.00 28.00" xmlns="http://www.w3.org/2000/svg" xmlns:xlink="http://www.w3.org/1999/xlink">
<g id="graph0" class="graph" transform="scale(1 1) rotate(0) translate(4 24)">
<title>ClassLoader::setInterface</title>
<polygon fill="white" stroke="none" points="-4,4 -4,-24 470,-24 470,4 -4,4"/>
<!-- Node1 -->
<g id="node1" class="node"><title>Node1</title>
<polygon fill="#bfbfbf" stroke="black" points="0,-0.5 0,-19.5 129,-19.5 129,-0.5 0,-0.5"/>
<text text-anchor="middle" x="64.5" y="-7.5" font-family="Helvetica,sans-Serif" font-size="10.00">ClassLoader::setInterface</text>
</g>
<!-- Node2 -->
<g id="node2" class="node"><title>Node2</title>
<g id="a_node2"><a xlink:href="class_interface_info.html#a9fa9166bbfee8837d611da9a88d1ba67" target="_top" xlink:title="InterfaceInfo::setInterfaceInfo">
<polygon fill="white" stroke="black" points="165,-0.5 165,-19.5 311,-19.5 311,-0.5 165,-0.5"/>
<text text-anchor="middle" x="238" y="-7.5" font-family="Helvetica,sans-Serif" font-size="10.00">InterfaceInfo::setInterfaceInfo</text>
</a>
</g>
</g>
<!-- Node1&#45;&gt;Node2 -->
<g id="edge1" class="edge"><title>Node1&#45;&gt;Node2</title>
<path fill="none" stroke="midnightblue" d="M129.36,-10C137.553,-10 146.031,-10 154.467,-10"/>
<polygon fill="midnightblue" stroke="midnightblue" points="154.715,-13.5001 164.715,-10 154.715,-6.5001 154.715,-13.5001"/>
</g>
<!-- Node3 -->
<g id="node3" class="node"><title>Node3</title>
<g id="a_node3"><a xlink:href="class_byte_reader.html#ae570748805994596f51ae033183935d7" target="_top" xlink:title="ByteReader::byteCatch">
<polygon fill="white" stroke="black" points="347,-0.5 347,-19.5 466,-19.5 466,-0.5 347,-0.5"/>
<text text-anchor="middle" x="406.5" y="-7.5" font-family="Helvetica,sans-Serif" font-size="10.00">ByteReader::byteCatch</text>
</a>
</g>
</g>
<!-- Node2&#45;&gt;Node3 -->
<g id="edge2" class="edge"><title>Node2&#45;&gt;Node3</title>
<path fill="none" stroke="midnightblue" d="M311.061,-10C319.559,-10 328.215,-10 336.666,-10"/>
<polygon fill="midnightblue" stroke="midnightblue" points="336.85,-13.5001 346.85,-10 336.85,-6.5001 336.85,-13.5001"/>
</g>
</g>
</svg>
