<?xml version="1.0" encoding="UTF-8" standalone="no"?>
<!DOCTYPE svg PUBLIC "-//W3C//DTD SVG 1.1//EN"
 "http://www.w3.org/Graphics/SVG/1.1/DTD/svg11.dtd">
<!-- Generated by graphviz version 2.38.0 (20140413.2041)
 -->
<!-- Title: InstructionImpl::invokevirtual Pages: 1 -->
<svg width="1004pt" height="276pt"
 viewBox="0.00 0.00 1004.00 275.65" xmlns="http://www.w3.org/2000/svg" xmlns:xlink="http://www.w3.org/1999/xlink">
<g id="graph0" class="graph" transform="scale(1 1) rotate(0) translate(4 271.654)">
<title>InstructionImpl::invokevirtual</title>
<polygon fill="white" stroke="none" points="-4,4 -4,-271.654 1000,-271.654 1000,4 -4,4"/>
<!-- Node1 -->
<g id="node1" class="node"><title>Node1</title>
<polygon fill="#bfbfbf" stroke="black" points="0,-158.5 0,-177.5 142,-177.5 142,-158.5 0,-158.5"/>
<text text-anchor="middle" x="71" y="-165.5" font-family="Helvetica,sans-Serif" font-size="10.00">InstructionImpl::invokevirtual</text>
</g>
<!-- Node2 -->
<g id="node2" class="node"><title>Node2</title>
<g id="a_node2"><a xlink:href="struct_cp_attribute_interface.html#a99cabbc15a0af5273a6d324dfbc78f41" target="_top" xlink:title="CpAttributeInterface\l::getUTF8">
<polygon fill="white" stroke="black" points="374,-115 374,-145 478,-145 478,-115 374,-115"/>
<text text-anchor="start" x="382" y="-133" font-family="Helvetica,sans-Serif" font-size="10.00">CpAttributeInterface</text>
<text text-anchor="middle" x="426" y="-122" font-family="Helvetica,sans-Serif" font-size="10.00">::getUTF8</text>
</a>
</g>
</g>
<!-- Node1&#45;&gt;Node2 -->
<g id="edge1" class="edge"><title>Node1&#45;&gt;Node2</title>
<path fill="none" stroke="midnightblue" d="M92.1469,-158.412C113.059,-149.031 146.99,-135.39 178,-130 240.648,-119.11 313.592,-120.836 363.885,-124.216"/>
<polygon fill="midnightblue" stroke="midnightblue" points="363.722,-127.713 373.946,-124.935 364.221,-120.731 363.722,-127.713"/>
</g>
<!-- Node3 -->
<g id="node3" class="node"><title>Node3</title>
<g id="a_node3"><a xlink:href="class_class_loader.html#a8f3dc8367a76e7a4594bd5e8206d3977" target="_top" xlink:title="ClassLoader::getConstPool">
<polygon fill="white" stroke="black" points="859,-196.5 859,-215.5 996,-215.5 996,-196.5 859,-196.5"/>
<text text-anchor="middle" x="927.5" y="-203.5" font-family="Helvetica,sans-Serif" font-size="10.00">ClassLoader::getConstPool</text>
</a>
</g>
</g>
<!-- Node1&#45;&gt;Node3 -->
<g id="edge2" class="edge"><title>Node1&#45;&gt;Node3</title>
<path fill="none" stroke="midnightblue" d="M81.4431,-177.613C98.767,-194.542 137.576,-229.271 178,-244 281.449,-281.692 314.898,-263 425,-263 425,-263 425,-263 599,-263 702.598,-263 821.935,-234.974 884.002,-218.226"/>
<polygon fill="midnightblue" stroke="midnightblue" points="885.1,-221.554 893.823,-215.541 883.254,-214.802 885.1,-221.554"/>
</g>
<!-- Node4 -->
<g id="node4" class="node"><title>Node4</title>
<g id="a_node4"><a xlink:href="class_class_loader.html#a3346ccdf7148ea48826d858326c4de00" target="_top" xlink:title="ClassLoader::getThisClass">
<polygon fill="white" stroke="black" points="180.5,-177.5 180.5,-196.5 315.5,-196.5 315.5,-177.5 180.5,-177.5"/>
<text text-anchor="middle" x="248" y="-184.5" font-family="Helvetica,sans-Serif" font-size="10.00">ClassLoader::getThisClass</text>
</a>
</g>
</g>
<!-- Node1&#45;&gt;Node4 -->
<g id="edge3" class="edge"><title>Node1&#45;&gt;Node4</title>
<path fill="none" stroke="midnightblue" d="M142.171,-175.619C151.389,-176.619 160.874,-177.649 170.195,-178.661"/>
<polygon fill="midnightblue" stroke="midnightblue" points="169.904,-182.15 180.224,-179.75 170.66,-175.191 169.904,-182.15"/>
</g>
<!-- Node5 -->
<g id="node5" class="node"><title>Node5</title>
<g id="a_node5"><a xlink:href="namespacepatch.html#a54d2400c78aef13e3748a87cd7c86ede" target="_top" xlink:title="patch::to_string">
<polygon fill="white" stroke="black" points="206,-139.5 206,-158.5 290,-158.5 290,-139.5 206,-139.5"/>
<text text-anchor="middle" x="248" y="-146.5" font-family="Helvetica,sans-Serif" font-size="10.00">patch::to_string</text>
</a>
</g>
</g>
<!-- Node1&#45;&gt;Node5 -->
<g id="edge4" class="edge"><title>Node1&#45;&gt;Node5</title>
<path fill="none" stroke="midnightblue" d="M142.171,-160.381C160.046,-158.441 178.927,-156.391 195.665,-154.574"/>
<polygon fill="midnightblue" stroke="midnightblue" points="196.218,-158.034 205.782,-153.475 195.463,-151.075 196.218,-158.034"/>
</g>
<!-- Node6 -->
<g id="node6" class="node"><title>Node6</title>
<g id="a_node6"><a xlink:href="class_interpreter.html#a8ff3509dcc0f48200724b8ae04467495" target="_top" xlink:title="Interpreter::createType">
<polygon fill="white" stroke="black" points="190,-215.5 190,-234.5 306,-234.5 306,-215.5 190,-215.5"/>
<text text-anchor="middle" x="248" y="-222.5" font-family="Helvetica,sans-Serif" font-size="10.00">Interpreter::createType</text>
</a>
</g>
</g>
<!-- Node1&#45;&gt;Node6 -->
<g id="edge5" class="edge"><title>Node1&#45;&gt;Node6</title>
<path fill="none" stroke="midnightblue" d="M97.0905,-177.6C118.455,-185.628 150.042,-197.153 178,-206 185.248,-208.294 192.974,-210.576 200.534,-212.722"/>
<polygon fill="midnightblue" stroke="midnightblue" points="199.75,-216.137 210.323,-215.454 201.632,-209.395 199.75,-216.137"/>
</g>
<!-- Node10 -->
<g id="node10" class="node"><title>Node10</title>
<g id="a_node10"><a xlink:href="class_methods_area.html#ab8111f3fc9b55f1f8dbbbe0c1ca76d89" target="_top" xlink:title="MethodsArea::findMethodBy\lNameOrDeor">
<polygon fill="white" stroke="black" points="178,-52 178,-82 318,-82 318,-52 178,-52"/>
<text text-anchor="start" x="186" y="-70" font-family="Helvetica,sans-Serif" font-size="10.00">MethodsArea::findMethodBy</text>
<text text-anchor="middle" x="248" y="-59" font-family="Helvetica,sans-Serif" font-size="10.00">NameOrDeor</text>
</a>
</g>
</g>
<!-- Node1&#45;&gt;Node10 -->
<g id="edge11" class="edge"><title>Node1&#45;&gt;Node10</title>
<path fill="none" stroke="midnightblue" d="M84.5834,-158.478C103.973,-144.062 142.626,-116.332 178,-97 184.851,-93.2562 192.263,-89.6253 199.602,-86.2587"/>
<polygon fill="midnightblue" stroke="midnightblue" points="201.107,-89.4201 208.811,-82.1471 198.253,-83.0283 201.107,-89.4201"/>
</g>
<!-- Node7 -->
<g id="node7" class="node"><title>Node7</title>
<g id="a_node7"><a xlink:href="class_interpreter.html#a99a623bb05c66632d0ab034ebaf2cf51" target="_top" xlink:title="Interpreter::getClassInfo">
<polygon fill="white" stroke="black" points="365,-215.5 365,-234.5 487,-234.5 487,-215.5 365,-215.5"/>
<text text-anchor="middle" x="426" y="-222.5" font-family="Helvetica,sans-Serif" font-size="10.00">Interpreter::getClassInfo</text>
</a>
</g>
</g>
<!-- Node6&#45;&gt;Node7 -->
<g id="edge6" class="edge"><title>Node6&#45;&gt;Node7</title>
<path fill="none" stroke="midnightblue" d="M306.142,-225C321.539,-225 338.379,-225 354.416,-225"/>
<polygon fill="midnightblue" stroke="midnightblue" points="354.815,-228.5 364.814,-225 354.814,-221.5 354.815,-228.5"/>
</g>
<!-- Node8 -->
<g id="node8" class="node"><title>Node8</title>
<g id="a_node8"><a xlink:href="class_interpreter.html#ab8fa17a7a73d119f3a3113555aef9702" target="_top" xlink:title="Interpreter::loadInMemo">
<polygon fill="white" stroke="black" points="538,-215.5 538,-234.5 658,-234.5 658,-215.5 538,-215.5"/>
<text text-anchor="middle" x="598" y="-222.5" font-family="Helvetica,sans-Serif" font-size="10.00">Interpreter::loadInMemo</text>
</a>
</g>
</g>
<!-- Node7&#45;&gt;Node8 -->
<g id="edge7" class="edge"><title>Node7&#45;&gt;Node8</title>
<path fill="none" stroke="midnightblue" d="M487.414,-225C500.495,-225 514.425,-225 527.813,-225"/>
<polygon fill="midnightblue" stroke="midnightblue" points="527.923,-228.5 537.923,-225 527.922,-221.5 527.923,-228.5"/>
</g>
<!-- Node9 -->
<g id="node9" class="node"><title>Node9</title>
<g id="a_node9"><a xlink:href="class_interpreter.html#a39a3745e54aa3cee8882075c96ae8b3f" target="_top" xlink:title="Interpreter::loadVariables">
<polygon fill="white" stroke="black" points="698,-196.5 698,-215.5 823,-215.5 823,-196.5 698,-196.5"/>
<text text-anchor="middle" x="760.5" y="-203.5" font-family="Helvetica,sans-Serif" font-size="10.00">Interpreter::loadVariables</text>
</a>
</g>
</g>
<!-- Node8&#45;&gt;Node9 -->
<g id="edge8" class="edge"><title>Node8&#45;&gt;Node9</title>
<path fill="none" stroke="midnightblue" d="M658.308,-217.979C667.852,-216.849 677.821,-215.669 687.621,-214.509"/>
<polygon fill="midnightblue" stroke="midnightblue" points="688.229,-217.962 697.748,-213.31 687.406,-211.01 688.229,-217.962"/>
</g>
<!-- Node9&#45;&gt;Node3 -->
<g id="edge9" class="edge"><title>Node9&#45;&gt;Node3</title>
<path fill="none" stroke="midnightblue" d="M823.409,-206C831.756,-206 840.404,-206 848.98,-206"/>
<polygon fill="midnightblue" stroke="midnightblue" points="848.991,-209.5 858.991,-206 848.991,-202.5 848.991,-209.5"/>
</g>
<!-- Node9&#45;&gt;Node7 -->
<g id="edge10" class="edge"><title>Node9&#45;&gt;Node7</title>
<path fill="none" stroke="midnightblue" d="M697.638,-203.083C652.256,-201.651 589.183,-201.139 534,-206 516.568,-207.536 497.723,-210.453 480.775,-213.548"/>
<polygon fill="midnightblue" stroke="midnightblue" points="479.676,-210.194 470.498,-215.488 480.974,-217.073 479.676,-210.194"/>
</g>
<!-- Node10&#45;&gt;Node2 -->
<g id="edge16" class="edge"><title>Node10&#45;&gt;Node2</title>
<path fill="none" stroke="midnightblue" d="M291.156,-82.0901C315.774,-90.9021 347.033,-102.091 373.15,-111.44"/>
<polygon fill="midnightblue" stroke="midnightblue" points="372.288,-114.849 382.883,-114.924 374.648,-108.259 372.288,-114.849"/>
</g>
<!-- Node10&#45;&gt;Node3 -->
<g id="edge13" class="edge"><title>Node10&#45;&gt;Node3</title>
<path fill="none" stroke="midnightblue" d="M318.22,-76.049C368.325,-82.9673 437.575,-93.2875 498,-105 638.209,-132.178 802.034,-173.492 880.298,-193.825"/>
<polygon fill="midnightblue" stroke="midnightblue" points="879.753,-197.3 890.312,-196.434 881.517,-190.526 879.753,-197.3"/>
</g>
<!-- Node11 -->
<g id="node11" class="node"><title>Node11</title>
<g id="a_node11"><a xlink:href="class_class_loader.html#ad4733587ddbe1ae25500c13181bfb5ca" target="_top" xlink:title="ClassLoader::getMethods">
<polygon fill="white" stroke="black" points="534,-19.5 534,-38.5 662,-38.5 662,-19.5 534,-19.5"/>
<text text-anchor="middle" x="598" y="-26.5" font-family="Helvetica,sans-Serif" font-size="10.00">ClassLoader::getMethods</text>
</a>
</g>
</g>
<!-- Node10&#45;&gt;Node11 -->
<g id="edge12" class="edge"><title>Node10&#45;&gt;Node11</title>
<path fill="none" stroke="midnightblue" d="M318.17,-59.447C377.568,-52.9609 462.952,-43.6375 523.556,-37.0198"/>
<polygon fill="midnightblue" stroke="midnightblue" points="524.254,-40.4644 533.815,-35.8995 523.494,-33.5058 524.254,-40.4644"/>
</g>
<!-- Node12 -->
<g id="node12" class="node"><title>Node12</title>
<g id="a_node12"><a xlink:href="class_class_loader.html#acad870c7b405146242912190e1e71f7c" target="_top" xlink:title="ClassLoader::getMethoCount">
<polygon fill="white" stroke="black" points="354,-0.5 354,-19.5 498,-19.5 498,-0.5 354,-0.5"/>
<text text-anchor="middle" x="426" y="-7.5" font-family="Helvetica,sans-Serif" font-size="10.00">ClassLoader::getMethoCount</text>
</a>
</g>
</g>
<!-- Node10&#45;&gt;Node12 -->
<g id="edge14" class="edge"><title>Node10&#45;&gt;Node12</title>
<path fill="none" stroke="midnightblue" d="M295.703,-51.8747C323.786,-42.7794 359.127,-31.3338 385.76,-22.7083"/>
<polygon fill="midnightblue" stroke="midnightblue" points="387.073,-25.9622 395.508,-19.5513 384.916,-19.3027 387.073,-25.9622"/>
</g>
<!-- Node12&#45;&gt;Node11 -->
<g id="edge15" class="edge"><title>Node12&#45;&gt;Node11</title>
<path fill="none" stroke="midnightblue" d="M498.11,-17.9476C506.519,-18.8875 515.115,-19.8481 523.555,-20.7915"/>
<polygon fill="midnightblue" stroke="midnightblue" points="523.424,-24.2985 533.751,-21.931 524.202,-17.3418 523.424,-24.2985"/>
</g>
</g>
</svg>
