<?xml version="1.0" encoding="UTF-8" standalone="no"?>
<!DOCTYPE svg PUBLIC "-//W3C//DTD SVG 1.1//EN"
 "http://www.w3.org/Graphics/SVG/1.1/DTD/svg11.dtd">
<!-- Generated by graphviz version 2.38.0 (20140413.2041)
 -->
<!-- Title: InstructionImpl::ishl Pages: 1 -->
<svg width="910pt" height="47pt"
 viewBox="0.00 0.00 910.00 47.00" xmlns="http://www.w3.org/2000/svg" xmlns:xlink="http://www.w3.org/1999/xlink">
<g id="graph0" class="graph" transform="scale(1 1) rotate(0) translate(4 43)">
<title>InstructionImpl::ishl</title>
<polygon fill="white" stroke="none" points="-4,4 -4,-43 906,-43 906,4 -4,4"/>
<!-- Node1 -->
<g id="node1" class="node"><title>Node1</title>
<polygon fill="#bfbfbf" stroke="black" points="0,-0.5 0,-19.5 102,-19.5 102,-0.5 0,-0.5"/>
<text text-anchor="middle" x="51" y="-7.5" font-family="Helvetica,sans-Serif" font-size="10.00">InstructionImpl::ishl</text>
</g>
<!-- Node2 -->
<g id="node2" class="node"><title>Node2</title>
<g id="a_node2"><a xlink:href="class_interpreter.html#a8ff3509dcc0f48200724b8ae04467495" target="_top" xlink:title="Interpreter::createType">
<polygon fill="white" stroke="black" points="138,-0.5 138,-19.5 254,-19.5 254,-0.5 138,-0.5"/>
<text text-anchor="middle" x="196" y="-7.5" font-family="Helvetica,sans-Serif" font-size="10.00">Interpreter::createType</text>
</a>
</g>
</g>
<!-- Node1&#45;&gt;Node2 -->
<g id="edge1" class="edge"><title>Node1&#45;&gt;Node2</title>
<path fill="none" stroke="midnightblue" d="M102.014,-10C110.35,-10 119.116,-10 127.797,-10"/>
<polygon fill="midnightblue" stroke="midnightblue" points="127.918,-13.5001 137.918,-10 127.917,-6.5001 127.918,-13.5001"/>
</g>
<!-- Node3 -->
<g id="node3" class="node"><title>Node3</title>
<g id="a_node3"><a xlink:href="class_interpreter.html#a99a623bb05c66632d0ab034ebaf2cf51" target="_top" xlink:title="Interpreter::getClassInfo">
<polygon fill="white" stroke="black" points="290,-0.5 290,-19.5 412,-19.5 412,-0.5 290,-0.5"/>
<text text-anchor="middle" x="351" y="-7.5" font-family="Helvetica,sans-Serif" font-size="10.00">Interpreter::getClassInfo</text>
</a>
</g>
</g>
<!-- Node2&#45;&gt;Node3 -->
<g id="edge2" class="edge"><title>Node2&#45;&gt;Node3</title>
<path fill="none" stroke="midnightblue" d="M254.407,-10C262.666,-10 271.242,-10 279.715,-10"/>
<polygon fill="midnightblue" stroke="midnightblue" points="279.972,-13.5001 289.972,-10 279.972,-6.5001 279.972,-13.5001"/>
</g>
<!-- Node4 -->
<g id="node4" class="node"><title>Node4</title>
<g id="a_node4"><a xlink:href="class_interpreter.html#ab8fa17a7a73d119f3a3113555aef9702" target="_top" xlink:title="Interpreter::loadInMemo">
<polygon fill="white" stroke="black" points="448,-19.5 448,-38.5 568,-38.5 568,-19.5 448,-19.5"/>
<text text-anchor="middle" x="508" y="-26.5" font-family="Helvetica,sans-Serif" font-size="10.00">Interpreter::loadInMemo</text>
</a>
</g>
</g>
<!-- Node3&#45;&gt;Node4 -->
<g id="edge3" class="edge"><title>Node3&#45;&gt;Node4</title>
<path fill="none" stroke="midnightblue" d="M412.371,-17.4003C420.65,-18.4152 429.204,-19.4637 437.628,-20.4963"/>
<polygon fill="midnightblue" stroke="midnightblue" points="437.46,-24.0019 447.812,-21.7447 438.312,-17.0539 437.46,-24.0019"/>
</g>
<!-- Node5 -->
<g id="node5" class="node"><title>Node5</title>
<g id="a_node5"><a xlink:href="class_interpreter.html#a39a3745e54aa3cee8882075c96ae8b3f" target="_top" xlink:title="Interpreter::loadVariables">
<polygon fill="white" stroke="black" points="604,-0.5 604,-19.5 729,-19.5 729,-0.5 604,-0.5"/>
<text text-anchor="middle" x="666.5" y="-7.5" font-family="Helvetica,sans-Serif" font-size="10.00">Interpreter::loadVariables</text>
</a>
</g>
</g>
<!-- Node4&#45;&gt;Node5 -->
<g id="edge4" class="edge"><title>Node4&#45;&gt;Node5</title>
<path fill="none" stroke="midnightblue" d="M568.166,-21.8169C576.565,-20.7972 585.276,-19.7396 593.88,-18.6951"/>
<polygon fill="midnightblue" stroke="midnightblue" points="594.4,-22.1578 603.905,-17.478 593.556,-15.2088 594.4,-22.1578"/>
</g>
<!-- Node5&#45;&gt;Node3 -->
<g id="edge6" class="edge"><title>Node5&#45;&gt;Node3</title>
<path fill="none" stroke="midnightblue" d="M603.754,-10C551.57,-10 476.829,-10 422.345,-10"/>
<polygon fill="midnightblue" stroke="midnightblue" points="422.075,-6.5001 412.075,-10 422.075,-13.5001 422.075,-6.5001"/>
</g>
<!-- Node6 -->
<g id="node6" class="node"><title>Node6</title>
<g id="a_node6"><a xlink:href="class_class_loader.html#a8f3dc8367a76e7a4594bd5e8206d3977" target="_top" xlink:title="ClassLoader::getConstPool">
<polygon fill="white" stroke="black" points="765,-0.5 765,-19.5 902,-19.5 902,-0.5 765,-0.5"/>
<text text-anchor="middle" x="833.5" y="-7.5" font-family="Helvetica,sans-Serif" font-size="10.00">ClassLoader::getConstPool</text>
</a>
</g>
</g>
<!-- Node5&#45;&gt;Node6 -->
<g id="edge5" class="edge"><title>Node5&#45;&gt;Node6</title>
<path fill="none" stroke="midnightblue" d="M729.409,-10C737.756,-10 746.404,-10 754.98,-10"/>
<polygon fill="midnightblue" stroke="midnightblue" points="754.991,-13.5001 764.991,-10 754.991,-6.5001 754.991,-13.5001"/>
</g>
</g>
</svg>
