<?xml version="1.0" encoding="UTF-8" standalone="no"?>
<!DOCTYPE svg PUBLIC "-//W3C//DTD SVG 1.1//EN"
 "http://www.w3.org/Graphics/SVG/1.1/DTD/svg11.dtd">
<!-- Generated by graphviz version 2.38.0 (20140413.2041)
 -->
<!-- Title: NumberTableAttribute Pages: 1 -->
<svg width="146pt" height="106pt"
 viewBox="0.00 0.00 146.00 106.00" xmlns="http://www.w3.org/2000/svg" xmlns:xlink="http://www.w3.org/1999/xlink">
<g id="graph0" class="graph" transform="scale(1 1) rotate(0) translate(4 102)">
<title>NumberTableAttribute</title>
<polygon fill="white" stroke="none" points="-4,4 -4,-102 142,-102 142,4 -4,4"/>
<!-- Node1 -->
<g id="node1" class="node"><title>Node1</title>
<polygon fill="#bfbfbf" stroke="black" points="-7.10543e-15,-0.5 -7.10543e-15,-19.5 112,-19.5 112,-0.5 -7.10543e-15,-0.5"/>
<text text-anchor="middle" x="56" y="-7.5" font-family="Helvetica,sans-Serif" font-size="10.00">NumberTableAttribute</text>
</g>
<!-- Node2 -->
<g id="node2" class="node"><title>Node2</title>
<g id="a_node2"><a xlink:href="class_number_table_attribute__line_number.html" target="_top" xlink:title="classe contém strat_pc e lineNumber &#45; todos uint16; ">
<polygon fill="white" stroke="black" points="-7.10543e-15,-67.5 -7.10543e-15,-97.5 112,-97.5 112,-67.5 -7.10543e-15,-67.5"/>
<text text-anchor="start" x="8" y="-85.5" font-family="Helvetica,sans-Serif" font-size="10.00">NumberTableAttribute</text>
<text text-anchor="middle" x="56" y="-74.5" font-family="Helvetica,sans-Serif" font-size="10.00">_lineNumber</text>
</a>
</g>
</g>
<!-- Node2&#45;&gt;Node1 -->
<g id="edge1" class="edge"><title>Node2&#45;&gt;Node1</title>
<path fill="none" stroke="#9a32cd" stroke-dasharray="5,2" d="M56,-57.0913C56,-44.2136 56,-29.1974 56,-19.8932"/>
<polygon fill="#9a32cd" stroke="#9a32cd" points="52.5001,-57.2332 56,-67.2333 59.5001,-57.2333 52.5001,-57.2332"/>
<text text-anchor="middle" x="97" y="-41" font-family="Helvetica,sans-Serif" font-size="10.00"> line_number_table</text>
</g>
</g>
</svg>
