<?xml version="1.0" encoding="UTF-8" standalone="no"?>
<!DOCTYPE svg PUBLIC "-//W3C//DTD SVG 1.1//EN"
 "http://www.w3.org/Graphics/SVG/1.1/DTD/svg11.dtd">
<!-- Generated by graphviz version 2.38.0 (20140413.2041)
 -->
<!-- Title: classInterpreter Pages: 1 -->
<svg width="722pt" height="211pt"
 viewBox="0.00 0.00 722.00 210.50" xmlns="http://www.w3.org/2000/svg" xmlns:xlink="http://www.w3.org/1999/xlink">
<g id="graph0" class="graph" transform="scale(1 1) rotate(0) translate(4 206.5)">
<title>classInterpreter</title>
<polygon fill="white" stroke="none" points="-4,4 -4,-206.5 718,-206.5 718,4 -4,4"/>
<!-- Node1 -->
<g id="node1" class="node"><title>Node1</title>
<polygon fill="#bfbfbf" stroke="black" points="0,-126 0,-145 84,-145 84,-126 0,-126"/>
<text text-anchor="middle" x="42" y="-133" font-family="Helvetica,sans-Serif" font-size="10.00">classInterpreter</text>
</g>
<!-- Node2 -->
<g id="node2" class="node"><title>Node2</title>
<g id="a_node2"><a xlink:href="class_interpreter.html#aaa34fcc8ece810597cd2fea359b65220" target="_top" xlink:title="Interpreter::execute">
<polygon fill="white" stroke="black" points="120,-126 120,-145 221,-145 221,-126 120,-126"/>
<text text-anchor="middle" x="170.5" y="-133" font-family="Helvetica,sans-Serif" font-size="10.00">Interpreter::execute</text>
</a>
</g>
</g>
<!-- Node1&#45;&gt;Node2 -->
<g id="edge1" class="edge"><title>Node1&#45;&gt;Node2</title>
<path fill="none" stroke="midnightblue" d="M84.0709,-135.5C92.2637,-135.5 101.025,-135.5 109.699,-135.5"/>
<polygon fill="midnightblue" stroke="midnightblue" points="109.803,-139 119.803,-135.5 109.803,-132 109.803,-139"/>
</g>
<!-- Node3 -->
<g id="node3" class="node"><title>Node3</title>
<g id="a_node3"><a xlink:href="class_interpreter.html#ab8fa17a7a73d119f3a3113555aef9702" target="_top" xlink:title="Interpreter::loadInMemo">
<polygon fill="white" stroke="black" points="257,-164 257,-183 377,-183 377,-164 257,-164"/>
<text text-anchor="middle" x="317" y="-171" font-family="Helvetica,sans-Serif" font-size="10.00">Interpreter::loadInMemo</text>
</a>
</g>
</g>
<!-- Node2&#45;&gt;Node3 -->
<g id="edge2" class="edge"><title>Node2&#45;&gt;Node3</title>
<path fill="none" stroke="midnightblue" d="M207.963,-145.089C226.774,-150.036 249.915,-156.121 269.947,-161.389"/>
<polygon fill="midnightblue" stroke="midnightblue" points="269.237,-164.822 279.799,-163.98 271.018,-158.052 269.237,-164.822"/>
</g>
<!-- Node5 -->
<g id="node5" class="node"><title>Node5</title>
<g id="a_node5"><a xlink:href="class_class_loader.html#a8f3dc8367a76e7a4594bd5e8206d3977" target="_top" xlink:title="ClassLoader::getConstPool">
<polygon fill="white" stroke="black" points="577,-126 577,-145 714,-145 714,-126 577,-126"/>
<text text-anchor="middle" x="645.5" y="-133" font-family="Helvetica,sans-Serif" font-size="10.00">ClassLoader::getConstPool</text>
</a>
</g>
</g>
<!-- Node2&#45;&gt;Node5 -->
<g id="edge7" class="edge"><title>Node2&#45;&gt;Node5</title>
<path fill="none" stroke="midnightblue" d="M221.225,-135.5C303.58,-135.5 468.896,-135.5 566.778,-135.5"/>
<polygon fill="midnightblue" stroke="midnightblue" points="566.91,-139 576.91,-135.5 566.91,-132 566.91,-139"/>
</g>
<!-- Node7 -->
<g id="node7" class="node"><title>Node7</title>
<g id="a_node7"><a xlink:href="class_interpreter.html#a9be1f0faf7df7c81dc180da22ea08fa5" target="_top" xlink:title="Interpreter::mainFinder">
<polygon fill="white" stroke="black" points="259.5,-69 259.5,-88 374.5,-88 374.5,-69 259.5,-69"/>
<text text-anchor="middle" x="317" y="-76" font-family="Helvetica,sans-Serif" font-size="10.00">Interpreter::mainFinder</text>
</a>
</g>
</g>
<!-- Node2&#45;&gt;Node7 -->
<g id="edge8" class="edge"><title>Node2&#45;&gt;Node7</title>
<path fill="none" stroke="midnightblue" d="M195.686,-125.959C219.338,-116.63 255.568,-102.338 282.091,-91.8758"/>
<polygon fill="midnightblue" stroke="midnightblue" points="283.717,-94.997 291.735,-88.0716 281.148,-88.4853 283.717,-94.997"/>
</g>
<!-- Node4 -->
<g id="node4" class="node"><title>Node4</title>
<g id="a_node4"><a xlink:href="class_interpreter.html#a39a3745e54aa3cee8882075c96ae8b3f" target="_top" xlink:title="Interpreter::loadVariables">
<polygon fill="white" stroke="black" points="414.5,-164 414.5,-183 539.5,-183 539.5,-164 414.5,-164"/>
<text text-anchor="middle" x="477" y="-171" font-family="Helvetica,sans-Serif" font-size="10.00">Interpreter::loadVariables</text>
</a>
</g>
</g>
<!-- Node3&#45;&gt;Node4 -->
<g id="edge3" class="edge"><title>Node3&#45;&gt;Node4</title>
<path fill="none" stroke="midnightblue" d="M377.283,-173.5C386.063,-173.5 395.189,-173.5 404.191,-173.5"/>
<polygon fill="midnightblue" stroke="midnightblue" points="404.275,-177 414.275,-173.5 404.275,-170 404.275,-177"/>
</g>
<!-- Node4&#45;&gt;Node5 -->
<g id="edge4" class="edge"><title>Node4&#45;&gt;Node5</title>
<path fill="none" stroke="midnightblue" d="M520.015,-163.911C542.184,-158.851 569.573,-152.6 593.011,-147.251"/>
<polygon fill="midnightblue" stroke="midnightblue" points="593.817,-150.657 602.787,-145.02 592.259,-143.833 593.817,-150.657"/>
</g>
<!-- Node6 -->
<g id="node6" class="node"><title>Node6</title>
<g id="a_node6"><a xlink:href="class_interpreter.html#a99a623bb05c66632d0ab034ebaf2cf51" target="_top" xlink:title="Interpreter::getClassInfo">
<polygon fill="white" stroke="black" points="584.5,-183 584.5,-202 706.5,-202 706.5,-183 584.5,-183"/>
<text text-anchor="middle" x="645.5" y="-190" font-family="Helvetica,sans-Serif" font-size="10.00">Interpreter::getClassInfo</text>
</a>
</g>
</g>
<!-- Node4&#45;&gt;Node6 -->
<g id="edge5" class="edge"><title>Node4&#45;&gt;Node6</title>
<path fill="none" stroke="midnightblue" d="M539.525,-180.521C550.846,-181.813 562.742,-183.17 574.295,-184.489"/>
<polygon fill="midnightblue" stroke="midnightblue" points="574.004,-187.978 584.336,-185.634 574.798,-181.023 574.004,-187.978"/>
</g>
<!-- Node6&#45;&gt;Node3 -->
<g id="edge6" class="edge"><title>Node6&#45;&gt;Node3</title>
<path fill="none" stroke="midnightblue" d="M584.383,-195.739C537.56,-197.48 470.993,-198.242 413,-192.5 397.769,-190.992 381.362,-188.155 366.54,-185.125"/>
<polygon fill="midnightblue" stroke="midnightblue" points="367.074,-181.66 356.565,-183.01 365.622,-188.508 367.074,-181.66"/>
</g>
<!-- Node7&#45;&gt;Node5 -->
<g id="edge11" class="edge"><title>Node7&#45;&gt;Node5</title>
<path fill="none" stroke="midnightblue" d="M372.649,-88.0405C429.709,-98.002 519.164,-113.619 579.735,-124.193"/>
<polygon fill="midnightblue" stroke="midnightblue" points="579.492,-127.704 589.945,-125.976 580.696,-120.808 579.492,-127.704"/>
</g>
<!-- Node8 -->
<g id="node8" class="node"><title>Node8</title>
<g id="a_node8"><a xlink:href="class_class_loader.html#ad4733587ddbe1ae25500c13181bfb5ca" target="_top" xlink:title="ClassLoader::getMethods">
<polygon fill="white" stroke="black" points="413,-50 413,-69 541,-69 541,-50 413,-50"/>
<text text-anchor="middle" x="477" y="-57" font-family="Helvetica,sans-Serif" font-size="10.00">ClassLoader::getMethods</text>
</a>
</g>
</g>
<!-- Node7&#45;&gt;Node8 -->
<g id="edge9" class="edge"><title>Node7&#45;&gt;Node8</title>
<path fill="none" stroke="midnightblue" d="M374.595,-71.6942C383.699,-70.5995 393.236,-69.4527 402.664,-68.3189"/>
<polygon fill="midnightblue" stroke="midnightblue" points="403.316,-71.7657 412.827,-67.0968 402.481,-64.8158 403.316,-71.7657"/>
</g>
<!-- Node9 -->
<g id="node9" class="node"><title>Node9</title>
<g id="a_node9"><a xlink:href="struct_cp_attribute_interface.html#a99cabbc15a0af5273a6d324dfbc78f41" target="_top" xlink:title="CpAttributeInterface\l::getUTF8">
<polygon fill="white" stroke="black" points="425,-0.5 425,-30.5 529,-30.5 529,-0.5 425,-0.5"/>
<text text-anchor="start" x="433" y="-18.5" font-family="Helvetica,sans-Serif" font-size="10.00">CpAttributeInterface</text>
<text text-anchor="middle" x="477" y="-7.5" font-family="Helvetica,sans-Serif" font-size="10.00">::getUTF8</text>
</a>
</g>
</g>
<!-- Node7&#45;&gt;Node9 -->
<g id="edge10" class="edge"><title>Node7&#45;&gt;Node9</title>
<path fill="none" stroke="midnightblue" d="M341.808,-68.9557C361.019,-61.2597 388.742,-50.1647 413,-40.5 418.056,-38.4857 423.341,-36.3832 428.608,-34.2902"/>
<polygon fill="midnightblue" stroke="midnightblue" points="430.013,-37.4982 438.015,-30.554 427.429,-30.9925 430.013,-37.4982"/>
</g>
</g>
</svg>
