<?xml version="1.0" encoding="UTF-8" standalone="no"?>
<!DOCTYPE svg PUBLIC "-//W3C//DTD SVG 1.1//EN"
 "http://www.w3.org/Graphics/SVG/1.1/DTD/svg11.dtd">
<!-- Generated by graphviz version 2.38.0 (20140413.2041)
 -->
<!-- Title: classReader Pages: 1 -->
<svg width="429pt" height="686pt"
 viewBox="0.00 0.00 429.00 686.00" xmlns="http://www.w3.org/2000/svg" xmlns:xlink="http://www.w3.org/1999/xlink">
<g id="graph0" class="graph" transform="scale(1 1) rotate(0) translate(4 682)">
<title>classReader</title>
<polygon fill="white" stroke="none" points="-4,4 -4,-682 425,-682 425,4 -4,4"/>
<!-- Node1 -->
<g id="node1" class="node"><title>Node1</title>
<polygon fill="#bfbfbf" stroke="black" points="0,-326.5 0,-345.5 71,-345.5 71,-326.5 0,-326.5"/>
<text text-anchor="middle" x="35.5" y="-333.5" font-family="Helvetica,sans-Serif" font-size="10.00">classReader</text>
</g>
<!-- Node2 -->
<g id="node2" class="node"><title>Node2</title>
<g id="a_node2"><a xlink:href="class_class_loader.html#a8f3dc8367a76e7a4594bd5e8206d3977" target="_top" xlink:title="ClassLoader::getConstPool">
<polygon fill="white" stroke="black" points="111,-658.5 111,-677.5 248,-677.5 248,-658.5 111,-658.5"/>
<text text-anchor="middle" x="179.5" y="-665.5" font-family="Helvetica,sans-Serif" font-size="10.00">ClassLoader::getConstPool</text>
</a>
</g>
</g>
<!-- Node1&#45;&gt;Node2 -->
<g id="edge1" class="edge"><title>Node1&#45;&gt;Node2</title>
<path fill="none" stroke="midnightblue" d="M37.35,-345.7C41.7298,-393.506 63.254,-603.551 107,-649 108.255,-650.304 109.589,-651.522 110.989,-652.66"/>
<polygon fill="midnightblue" stroke="midnightblue" points="109.36,-655.777 119.642,-658.334 113.199,-649.924 109.36,-655.777"/>
</g>
<!-- Node3 -->
<g id="node3" class="node"><title>Node3</title>
<g id="a_node3"><a xlink:href="class_class_loader.html#a31dd114820bfdbfe628f2efb5effe963" target="_top" xlink:title="ClassLoader::getMagic">
<polygon fill="white" stroke="black" points="121,-620.5 121,-639.5 238,-639.5 238,-620.5 121,-620.5"/>
<text text-anchor="middle" x="179.5" y="-627.5" font-family="Helvetica,sans-Serif" font-size="10.00">ClassLoader::getMagic</text>
</a>
</g>
</g>
<!-- Node1&#45;&gt;Node3 -->
<g id="edge2" class="edge"><title>Node1&#45;&gt;Node3</title>
<path fill="none" stroke="midnightblue" d="M37.6704,-345.682C43.1972,-389.843 68.0515,-571.708 107,-611 108.616,-612.631 110.355,-614.126 112.192,-615.497"/>
<polygon fill="midnightblue" stroke="midnightblue" points="110.437,-618.526 120.796,-620.748 114.084,-612.551 110.437,-618.526"/>
</g>
<!-- Node4 -->
<g id="node4" class="node"><title>Node4</title>
<g id="a_node4"><a xlink:href="class_class_loader.html#a9bed0bf2ac88a23118e67777a14c0553" target="_top" xlink:title="ClassLoader::getMinor">
<polygon fill="white" stroke="black" points="122,-582.5 122,-601.5 237,-601.5 237,-582.5 122,-582.5"/>
<text text-anchor="middle" x="179.5" y="-589.5" font-family="Helvetica,sans-Serif" font-size="10.00">ClassLoader::getMinor</text>
</a>
</g>
</g>
<!-- Node1&#45;&gt;Node4 -->
<g id="edge3" class="edge"><title>Node1&#45;&gt;Node4</title>
<path fill="none" stroke="midnightblue" d="M36.2611,-345.806C35.9446,-381.783 39.8617,-507.807 107,-573 108.854,-574.801 110.859,-576.436 112.979,-577.92"/>
<polygon fill="midnightblue" stroke="midnightblue" points="111.243,-580.959 121.653,-582.929 114.743,-574.897 111.243,-580.959"/>
</g>
<!-- Node5 -->
<g id="node5" class="node"><title>Node5</title>
<g id="a_node5"><a xlink:href="class_class_loader.html#afc67f7bffc1f2b8ffd61b1dd217f62ad" target="_top" xlink:title="ClassLoader::getMajor">
<polygon fill="white" stroke="black" points="122,-544.5 122,-563.5 237,-563.5 237,-544.5 122,-544.5"/>
<text text-anchor="middle" x="179.5" y="-551.5" font-family="Helvetica,sans-Serif" font-size="10.00">ClassLoader::getMajor</text>
</a>
</g>
</g>
<!-- Node1&#45;&gt;Node5 -->
<g id="edge4" class="edge"><title>Node1&#45;&gt;Node5</title>
<path fill="none" stroke="midnightblue" d="M36.8884,-345.567C38.7193,-377.524 49.0742,-481.572 107,-535 108.9,-536.753 110.943,-538.347 113.095,-539.797"/>
<polygon fill="midnightblue" stroke="midnightblue" points="111.428,-542.875 121.863,-544.706 114.848,-536.767 111.428,-542.875"/>
</g>
<!-- Node6 -->
<g id="node6" class="node"><title>Node6</title>
<g id="a_node6"><a xlink:href="class_class_loader.html#a292f4c53de8057b6cb24f8b2e0839807" target="_top" xlink:title="ClassLoader::getConstCount">
<polygon fill="white" stroke="black" points="108,-506.5 108,-525.5 251,-525.5 251,-506.5 108,-506.5"/>
<text text-anchor="middle" x="179.5" y="-513.5" font-family="Helvetica,sans-Serif" font-size="10.00">ClassLoader::getConstCount</text>
</a>
</g>
</g>
<!-- Node1&#45;&gt;Node6 -->
<g id="edge5" class="edge"><title>Node1&#45;&gt;Node6</title>
<path fill="none" stroke="midnightblue" d="M37.7993,-345.686C42.0793,-373.67 58.359,-455.285 107,-497 108.962,-498.683 111.058,-500.218 113.253,-501.619"/>
<polygon fill="midnightblue" stroke="midnightblue" points="111.682,-504.748 122.15,-506.384 114.987,-498.578 111.682,-504.748"/>
</g>
<!-- Node7 -->
<g id="node7" class="node"><title>Node7</title>
<g id="a_node7"><a xlink:href="class_class_loader.html#a6154ac807d01c4281f9ccf6b23378197" target="_top" xlink:title="ClassLoader::getFlag">
<polygon fill="white" stroke="black" points="124.5,-468.5 124.5,-487.5 234.5,-487.5 234.5,-468.5 124.5,-468.5"/>
<text text-anchor="middle" x="179.5" y="-475.5" font-family="Helvetica,sans-Serif" font-size="10.00">ClassLoader::getFlag</text>
</a>
</g>
</g>
<!-- Node1&#45;&gt;Node7 -->
<g id="edge6" class="edge"><title>Node1&#45;&gt;Node7</title>
<path fill="none" stroke="midnightblue" d="M39.2191,-345.719C46.2631,-369.054 67.3766,-428.562 107,-459 109.597,-460.995 112.387,-462.781 115.304,-464.381"/>
<polygon fill="midnightblue" stroke="midnightblue" points="113.836,-467.558 124.376,-468.638 116.81,-461.221 113.836,-467.558"/>
</g>
<!-- Node8 -->
<g id="node8" class="node"><title>Node8</title>
<g id="a_node8"><a xlink:href="jvm_8cpp.html#a596bd78d6f0ad77023b4b694b204bab1" target="_top" xlink:title="Verifica qual o access_flag. ">
<polygon fill="white" stroke="black" points="144.5,-430.5 144.5,-449.5 214.5,-449.5 214.5,-430.5 144.5,-430.5"/>
<text text-anchor="middle" x="179.5" y="-437.5" font-family="Helvetica,sans-Serif" font-size="10.00">Flag_names</text>
</a>
</g>
</g>
<!-- Node1&#45;&gt;Node8 -->
<g id="edge7" class="edge"><title>Node1&#45;&gt;Node8</title>
<path fill="none" stroke="midnightblue" d="M41.7013,-345.562C51.8389,-363.27 75.9903,-401.165 107,-421 115.271,-426.291 124.978,-430.116 134.526,-432.879"/>
<polygon fill="midnightblue" stroke="midnightblue" points="133.796,-436.305 144.352,-435.391 135.53,-429.523 133.796,-436.305"/>
</g>
<!-- Node9 -->
<g id="node9" class="node"><title>Node9</title>
<g id="a_node9"><a xlink:href="class_class_loader.html#a3346ccdf7148ea48826d858326c4de00" target="_top" xlink:title="ClassLoader::getThisClass">
<polygon fill="white" stroke="black" points="112,-392.5 112,-411.5 247,-411.5 247,-392.5 112,-392.5"/>
<text text-anchor="middle" x="179.5" y="-399.5" font-family="Helvetica,sans-Serif" font-size="10.00">ClassLoader::getThisClass</text>
</a>
</g>
</g>
<!-- Node1&#45;&gt;Node9 -->
<g id="edge8" class="edge"><title>Node1&#45;&gt;Node9</title>
<path fill="none" stroke="midnightblue" d="M48.2609,-345.619C61.7067,-356.176 84.7421,-372.957 107,-383 112.325,-385.403 118.015,-387.551 123.772,-389.461"/>
<polygon fill="midnightblue" stroke="midnightblue" points="122.884,-392.849 133.471,-392.45 124.946,-386.16 122.884,-392.849"/>
</g>
<!-- Node10 -->
<g id="node10" class="node"><title>Node10</title>
<g id="a_node10"><a xlink:href="struct_cp_attribute_interface.html#a99cabbc15a0af5273a6d324dfbc78f41" target="_top" xlink:title="CpAttributeInterface\l::getUTF8">
<polygon fill="white" stroke="black" points="127.5,-343 127.5,-373 231.5,-373 231.5,-343 127.5,-343"/>
<text text-anchor="start" x="135.5" y="-361" font-family="Helvetica,sans-Serif" font-size="10.00">CpAttributeInterface</text>
<text text-anchor="middle" x="179.5" y="-350" font-family="Helvetica,sans-Serif" font-size="10.00">::getUTF8</text>
</a>
</g>
</g>
<!-- Node1&#45;&gt;Node10 -->
<g id="edge9" class="edge"><title>Node1&#45;&gt;Node10</title>
<path fill="none" stroke="midnightblue" d="M71.2371,-341.382C85.1119,-343.531 101.512,-346.072 117.26,-348.512"/>
<polygon fill="midnightblue" stroke="midnightblue" points="117.063,-352.023 127.481,-350.096 118.135,-345.106 117.063,-352.023"/>
</g>
<!-- Node11 -->
<g id="node11" class="node"><title>Node11</title>
<g id="a_node11"><a xlink:href="class_class_loader.html#a390d1849bd7686e618a84eae6a7f60cf" target="_top" xlink:title="ClassLoader::getSuper">
<polygon fill="white" stroke="black" points="121.5,-304.5 121.5,-323.5 237.5,-323.5 237.5,-304.5 121.5,-304.5"/>
<text text-anchor="middle" x="179.5" y="-311.5" font-family="Helvetica,sans-Serif" font-size="10.00">ClassLoader::getSuper</text>
</a>
</g>
</g>
<!-- Node1&#45;&gt;Node11 -->
<g id="edge10" class="edge"><title>Node1&#45;&gt;Node11</title>
<path fill="none" stroke="midnightblue" d="M71.2371,-330.618C83.3941,-328.735 97.49,-326.551 111.387,-324.398"/>
<polygon fill="midnightblue" stroke="midnightblue" points="112.094,-327.83 121.44,-322.84 111.022,-320.913 112.094,-327.83"/>
</g>
<!-- Node12 -->
<g id="node12" class="node"><title>Node12</title>
<g id="a_node12"><a xlink:href="class_class_loader.html#acbc3563bd386c769b5beb3352e761e0a" target="_top" xlink:title="ClassLoader::getInterCounter">
<polygon fill="white" stroke="black" points="107,-266.5 107,-285.5 252,-285.5 252,-266.5 107,-266.5"/>
<text text-anchor="middle" x="179.5" y="-273.5" font-family="Helvetica,sans-Serif" font-size="10.00">ClassLoader::getInterCounter</text>
</a>
</g>
</g>
<!-- Node1&#45;&gt;Node12 -->
<g id="edge11" class="edge"><title>Node1&#45;&gt;Node12</title>
<path fill="none" stroke="midnightblue" d="M50.4999,-326.344C64.3246,-317.181 86.3365,-303.572 107,-295 112.839,-292.578 119.076,-290.384 125.342,-288.422"/>
<polygon fill="midnightblue" stroke="midnightblue" points="126.557,-291.713 135.159,-285.528 124.577,-284.998 126.557,-291.713"/>
</g>
<!-- Node13 -->
<g id="node13" class="node"><title>Node13</title>
<g id="a_node13"><a xlink:href="class_class_loader.html#a58c1c2b982f56c630946408d1425f6f4" target="_top" xlink:title="ClassLoader::getFieldCount">
<polygon fill="white" stroke="black" points="110.5,-228.5 110.5,-247.5 248.5,-247.5 248.5,-228.5 110.5,-228.5"/>
<text text-anchor="middle" x="179.5" y="-235.5" font-family="Helvetica,sans-Serif" font-size="10.00">ClassLoader::getFieldCount</text>
</a>
</g>
</g>
<!-- Node1&#45;&gt;Node13 -->
<g id="edge12" class="edge"><title>Node1&#45;&gt;Node13</title>
<path fill="none" stroke="midnightblue" d="M42.3765,-326.336C53.0787,-309.58 77.3983,-275.188 107,-257 110.57,-254.806 114.392,-252.863 118.343,-251.142"/>
<polygon fill="midnightblue" stroke="midnightblue" points="119.668,-254.382 127.738,-247.517 117.149,-247.852 119.668,-254.382"/>
</g>
<!-- Node14 -->
<g id="node14" class="node"><title>Node14</title>
<g id="a_node14"><a xlink:href="class_class_loader.html#a868fdfc297bfc310b21b3a41cdceb7b9" target="_top" xlink:title="ClassLoader::getFields">
<polygon fill="white" stroke="black" points="296,-209.5 296,-228.5 413,-228.5 413,-209.5 296,-209.5"/>
<text text-anchor="middle" x="354.5" y="-216.5" font-family="Helvetica,sans-Serif" font-size="10.00">ClassLoader::getFields</text>
</a>
</g>
</g>
<!-- Node1&#45;&gt;Node14 -->
<g id="edge18" class="edge"><title>Node1&#45;&gt;Node14</title>
<path fill="none" stroke="midnightblue" d="M38.831,-326.424C45.1199,-302.963 64.8784,-242.797 107,-219 170.75,-182.985 259.392,-195.11 311.178,-207.115"/>
<polygon fill="midnightblue" stroke="midnightblue" points="310.483,-210.547 321.026,-209.5 312.13,-203.744 310.483,-210.547"/>
</g>
<!-- Node15 -->
<g id="node15" class="node"><title>Node15</title>
<g id="a_node15"><a xlink:href="class_class_loader.html#acad870c7b405146242912190e1e71f7c" target="_top" xlink:title="ClassLoader::getMethoCount">
<polygon fill="white" stroke="black" points="107.5,-152.5 107.5,-171.5 251.5,-171.5 251.5,-152.5 107.5,-152.5"/>
<text text-anchor="middle" x="179.5" y="-159.5" font-family="Helvetica,sans-Serif" font-size="10.00">ClassLoader::getMethoCount</text>
</a>
</g>
</g>
<!-- Node1&#45;&gt;Node15 -->
<g id="edge14" class="edge"><title>Node1&#45;&gt;Node15</title>
<path fill="none" stroke="midnightblue" d="M38.2923,-326.356C43.6989,-299.951 62.3065,-225.808 107,-186 111.684,-181.828 117.119,-178.377 122.86,-175.523"/>
<polygon fill="midnightblue" stroke="midnightblue" points="124.298,-178.714 132.068,-171.512 121.503,-172.297 124.298,-178.714"/>
</g>
<!-- Node16 -->
<g id="node16" class="node"><title>Node16</title>
<g id="a_node16"><a xlink:href="class_class_loader.html#ad4733587ddbe1ae25500c13181bfb5ca" target="_top" xlink:title="ClassLoader::getMethods">
<polygon fill="white" stroke="black" points="290.5,-123.5 290.5,-142.5 418.5,-142.5 418.5,-123.5 290.5,-123.5"/>
<text text-anchor="middle" x="354.5" y="-130.5" font-family="Helvetica,sans-Serif" font-size="10.00">ClassLoader::getMethods</text>
</a>
</g>
</g>
<!-- Node1&#45;&gt;Node16 -->
<g id="edge20" class="edge"><title>Node1&#45;&gt;Node16</title>
<path fill="none" stroke="midnightblue" d="M36.5789,-326.214C37.4313,-293.614 45.053,-188.219 107,-143 165.987,-99.9417 255.752,-109.806 309.126,-121.195"/>
<polygon fill="midnightblue" stroke="midnightblue" points="308.451,-124.631 318.975,-123.403 309.982,-117.8 308.451,-124.631"/>
</g>
<!-- Node17 -->
<g id="node17" class="node"><title>Node17</title>
<g id="a_node17"><a xlink:href="class_class_loader.html#a047f5d93000be571f23484c809ab9b2d" target="_top" xlink:title="ClassLoader::getAttriCount">
<polygon fill="white" stroke="black" points="112,-76.5 112,-95.5 247,-95.5 247,-76.5 112,-76.5"/>
<text text-anchor="middle" x="179.5" y="-83.5" font-family="Helvetica,sans-Serif" font-size="10.00">ClassLoader::getAttriCount</text>
</a>
</g>
</g>
<!-- Node1&#45;&gt;Node17 -->
<g id="edge16" class="edge"><title>Node1&#45;&gt;Node17</title>
<path fill="none" stroke="midnightblue" d="M36.5664,-326.301C37.3362,-291.806 44.6145,-173.739 107,-110 110.893,-106.023 115.463,-102.705 120.38,-99.9369"/>
<polygon fill="midnightblue" stroke="midnightblue" points="122.043,-103.02 129.531,-95.5244 119.003,-96.7151 122.043,-103.02"/>
</g>
<!-- Node18 -->
<g id="node18" class="node"><title>Node18</title>
<g id="a_node18"><a xlink:href="class_class_loader.html#a988add3569e32d42bc841f526d978e68" target="_top" xlink:title="ClassLoader::getAttributes">
<polygon fill="white" stroke="black" points="288,-66.5 288,-85.5 421,-85.5 421,-66.5 288,-66.5"/>
<text text-anchor="middle" x="354.5" y="-73.5" font-family="Helvetica,sans-Serif" font-size="10.00">ClassLoader::getAttributes</text>
</a>
</g>
</g>
<!-- Node1&#45;&gt;Node18 -->
<g id="edge21" class="edge"><title>Node1&#45;&gt;Node18</title>
<path fill="none" stroke="midnightblue" d="M37.4908,-326.288C42.2239,-282.021 64.0966,-100.108 107,-67 169.455,-18.8039 269.67,-44.6325 320.959,-62.9063"/>
<polygon fill="midnightblue" stroke="midnightblue" points="319.945,-66.2628 330.538,-66.4361 322.365,-59.6944 319.945,-66.2628"/>
</g>
<!-- Node19 -->
<g id="node19" class="node"><title>Node19</title>
<g id="a_node19"><a xlink:href="class_class_loader.html#a357668e5a1442f1fb7618f04c1e0a951" target="_top" xlink:title="ClassLoader::getInterfaces">
<polygon fill="white" stroke="black" points="112.5,-0.5 112.5,-19.5 246.5,-19.5 246.5,-0.5 112.5,-0.5"/>
<text text-anchor="middle" x="179.5" y="-7.5" font-family="Helvetica,sans-Serif" font-size="10.00">ClassLoader::getInterfaces</text>
</a>
</g>
</g>
<!-- Node1&#45;&gt;Node19 -->
<g id="edge19" class="edge"><title>Node1&#45;&gt;Node19</title>
<path fill="none" stroke="midnightblue" d="M37.4909,-326.384C42.46,-279.914 66.0602,-79.0041 107,-34 110.49,-30.1635 114.612,-26.9397 119.086,-24.2308"/>
<polygon fill="midnightblue" stroke="midnightblue" points="120.753,-27.3096 128.052,-19.6303 117.557,-21.0816 120.753,-27.3096"/>
</g>
<!-- Node13&#45;&gt;Node14 -->
<g id="edge13" class="edge"><title>Node13&#45;&gt;Node14</title>
<path fill="none" stroke="midnightblue" d="M248.874,-230.491C261.049,-229.154 273.725,-227.761 285.879,-226.427"/>
<polygon fill="midnightblue" stroke="midnightblue" points="286.384,-229.892 295.942,-225.321 285.62,-222.934 286.384,-229.892"/>
</g>
<!-- Node15&#45;&gt;Node16 -->
<g id="edge15" class="edge"><title>Node15&#45;&gt;Node16</title>
<path fill="none" stroke="midnightblue" d="M237.626,-152.424C253.356,-149.787 270.557,-146.904 286.778,-144.185"/>
<polygon fill="midnightblue" stroke="midnightblue" points="287.445,-147.622 296.729,-142.517 286.288,-140.718 287.445,-147.622"/>
</g>
<!-- Node17&#45;&gt;Node18 -->
<g id="edge17" class="edge"><title>Node17&#45;&gt;Node18</title>
<path fill="none" stroke="midnightblue" d="M247.386,-82.1337C257.37,-81.5566 267.722,-80.9583 277.87,-80.3717"/>
<polygon fill="midnightblue" stroke="midnightblue" points="278.149,-83.8615 287.93,-79.7902 277.745,-76.8731 278.149,-83.8615"/>
</g>
</g>
</svg>
