<?xml version="1.0" encoding="UTF-8" standalone="no"?>
<!DOCTYPE svg PUBLIC "-//W3C//DTD SVG 1.1//EN"
 "http://www.w3.org/Graphics/SVG/1.1/DTD/svg11.dtd">
<!-- Generated by graphviz version 2.38.0 (20140413.2041)
 -->
<!-- Title: main Pages: 1 -->
<svg width="826pt" height="819pt"
 viewBox="0.00 0.00 826.00 819.00" xmlns="http://www.w3.org/2000/svg" xmlns:xlink="http://www.w3.org/1999/xlink">
<g id="graph0" class="graph" transform="scale(1 1) rotate(0) translate(4 815)">
<title>main</title>
<polygon fill="white" stroke="none" points="-4,4 -4,-815 822,-815 822,4 -4,4"/>
<!-- Node1 -->
<g id="node1" class="node"><title>Node1</title>
<polygon fill="#bfbfbf" stroke="black" points="0,-613.5 0,-632.5 38,-632.5 38,-613.5 0,-613.5"/>
<text text-anchor="middle" x="19" y="-620.5" font-family="Helvetica,sans-Serif" font-size="10.00">main</text>
</g>
<!-- Node2 -->
<g id="node2" class="node"><title>Node2</title>
<g id="a_node2"><a xlink:href="jvm_8cpp.html#aab85c6710f6eeb0e811db68739201d2a" target="_top" xlink:title="isola o path de entrada e armazena em uma classe estática para que possa ser acessado posteriormente...">
<polygon fill="white" stroke="black" points="91,-651.5 91,-670.5 141,-670.5 141,-651.5 91,-651.5"/>
<text text-anchor="middle" x="116" y="-658.5" font-family="Helvetica,sans-Serif" font-size="10.00">getPath</text>
</a>
</g>
</g>
<!-- Node1&#45;&gt;Node2 -->
<g id="edge1" class="edge"><title>Node1&#45;&gt;Node2</title>
<path fill="none" stroke="midnightblue" d="M38.317,-630.327C50.4956,-635.198 66.8531,-641.741 81.3321,-647.533"/>
<polygon fill="midnightblue" stroke="midnightblue" points="80.3968,-650.928 90.9815,-651.393 82.9966,-644.429 80.3968,-650.928"/>
</g>
<!-- Node3 -->
<g id="node3" class="node"><title>Node3</title>
<g id="a_node3"><a xlink:href="jvm_8cpp.html#a4f4a24852257f7259f906828eec5c11c" target="_top" xlink:title="Chama o interpretador para classloader. ">
<polygon fill="white" stroke="black" points="74,-613.5 74,-632.5 158,-632.5 158,-613.5 74,-613.5"/>
<text text-anchor="middle" x="116" y="-620.5" font-family="Helvetica,sans-Serif" font-size="10.00">classInterpreter</text>
</a>
</g>
</g>
<!-- Node1&#45;&gt;Node3 -->
<g id="edge2" class="edge"><title>Node1&#45;&gt;Node3</title>
<path fill="none" stroke="midnightblue" d="M38.317,-623C45.6818,-623 54.5748,-623 63.6565,-623"/>
<polygon fill="midnightblue" stroke="midnightblue" points="63.9187,-626.5 73.9187,-623 63.9186,-619.5 63.9187,-626.5"/>
</g>
<!-- Node12 -->
<g id="node12" class="node"><title>Node12</title>
<g id="a_node12"><a xlink:href="jvm_8cpp.html#a893044ba12149c5e0ed3b4a19474fc4a" target="_top" xlink:title="Chama o exibidor de ClassLoader. ">
<polygon fill="white" stroke="black" points="209,-342.5 209,-361.5 280,-361.5 280,-342.5 209,-342.5"/>
<text text-anchor="middle" x="244.5" y="-349.5" font-family="Helvetica,sans-Serif" font-size="10.00">classReader</text>
</a>
</g>
</g>
<!-- Node1&#45;&gt;Node12 -->
<g id="edge14" class="edge"><title>Node1&#45;&gt;Node12</title>
<path fill="none" stroke="midnightblue" d="M27.9545,-613.355C60.8132,-573.513 186.248,-421.419 229.072,-369.494"/>
<polygon fill="midnightblue" stroke="midnightblue" points="231.978,-371.471 235.641,-361.529 226.578,-367.017 231.978,-371.471"/>
</g>
<!-- Node4 -->
<g id="node4" class="node"><title>Node4</title>
<g id="a_node4"><a xlink:href="class_interpreter.html#aaa34fcc8ece810597cd2fea359b65220" target="_top" xlink:title="Interpreter::execute">
<polygon fill="white" stroke="black" points="194,-712.5 194,-731.5 295,-731.5 295,-712.5 194,-712.5"/>
<text text-anchor="middle" x="244.5" y="-719.5" font-family="Helvetica,sans-Serif" font-size="10.00">Interpreter::execute</text>
</a>
</g>
</g>
<!-- Node3&#45;&gt;Node4 -->
<g id="edge3" class="edge"><title>Node3&#45;&gt;Node4</title>
<path fill="none" stroke="midnightblue" d="M141.111,-632.619C146.84,-635.321 152.796,-638.492 158,-642 185.089,-660.258 211.861,-687.119 228.039,-704.586"/>
<polygon fill="midnightblue" stroke="midnightblue" points="225.765,-707.288 235.084,-712.328 230.942,-702.577 225.765,-707.288"/>
</g>
<!-- Node5 -->
<g id="node5" class="node"><title>Node5</title>
<g id="a_node5"><a xlink:href="class_interpreter.html#ab8fa17a7a73d119f3a3113555aef9702" target="_top" xlink:title="Interpreter::loadInMemo">
<polygon fill="white" stroke="black" points="343.5,-772.5 343.5,-791.5 463.5,-791.5 463.5,-772.5 343.5,-772.5"/>
<text text-anchor="middle" x="403.5" y="-779.5" font-family="Helvetica,sans-Serif" font-size="10.00">Interpreter::loadInMemo</text>
</a>
</g>
</g>
<!-- Node4&#45;&gt;Node5 -->
<g id="edge4" class="edge"><title>Node4&#45;&gt;Node5</title>
<path fill="none" stroke="midnightblue" d="M267.108,-731.625C284.287,-739.15 309.003,-749.69 331,-758 341.211,-761.857 352.353,-765.747 362.737,-769.239"/>
<polygon fill="midnightblue" stroke="midnightblue" points="361.813,-772.62 372.406,-772.452 364.02,-765.977 361.813,-772.62"/>
</g>
<!-- Node7 -->
<g id="node7" class="node"><title>Node7</title>
<g id="a_node7"><a xlink:href="class_class_loader.html#a8f3dc8367a76e7a4594bd5e8206d3977" target="_top" xlink:title="ClassLoader::getConstPool">
<polygon fill="white" stroke="black" points="681,-715.5 681,-734.5 818,-734.5 818,-715.5 681,-715.5"/>
<text text-anchor="middle" x="749.5" y="-722.5" font-family="Helvetica,sans-Serif" font-size="10.00">ClassLoader::getConstPool</text>
</a>
</g>
</g>
<!-- Node4&#45;&gt;Node7 -->
<g id="edge9" class="edge"><title>Node4&#45;&gt;Node7</title>
<path fill="none" stroke="midnightblue" d="M295.104,-723.209C348.62,-724.448 436.343,-726.29 512,-727 571.109,-727.554 585.892,-727.571 645,-727 653.331,-726.92 662.039,-726.803 670.715,-726.665"/>
<polygon fill="midnightblue" stroke="midnightblue" points="670.919,-730.162 680.859,-726.495 670.801,-723.163 670.919,-730.162"/>
</g>
<!-- Node9 -->
<g id="node9" class="node"><title>Node9</title>
<g id="a_node9"><a xlink:href="class_interpreter.html#a9be1f0faf7df7c81dc180da22ea08fa5" target="_top" xlink:title="Interpreter::mainFinder">
<polygon fill="white" stroke="black" points="346,-691.5 346,-710.5 461,-710.5 461,-691.5 346,-691.5"/>
<text text-anchor="middle" x="403.5" y="-698.5" font-family="Helvetica,sans-Serif" font-size="10.00">Interpreter::mainFinder</text>
</a>
</g>
</g>
<!-- Node4&#45;&gt;Node9 -->
<g id="edge10" class="edge"><title>Node4&#45;&gt;Node9</title>
<path fill="none" stroke="midnightblue" d="M295.176,-715.355C307.99,-713.641 321.994,-711.768 335.531,-709.958"/>
<polygon fill="midnightblue" stroke="midnightblue" points="336.316,-713.384 345.764,-708.589 335.388,-706.446 336.316,-713.384"/>
</g>
<!-- Node6 -->
<g id="node6" class="node"><title>Node6</title>
<g id="a_node6"><a xlink:href="class_interpreter.html#a39a3745e54aa3cee8882075c96ae8b3f" target="_top" xlink:title="Interpreter::loadVariables">
<polygon fill="white" stroke="black" points="516,-772.5 516,-791.5 641,-791.5 641,-772.5 516,-772.5"/>
<text text-anchor="middle" x="578.5" y="-779.5" font-family="Helvetica,sans-Serif" font-size="10.00">Interpreter::loadVariables</text>
</a>
</g>
</g>
<!-- Node5&#45;&gt;Node6 -->
<g id="edge5" class="edge"><title>Node5&#45;&gt;Node6</title>
<path fill="none" stroke="midnightblue" d="M463.553,-782C477.101,-782 491.651,-782 505.671,-782"/>
<polygon fill="midnightblue" stroke="midnightblue" points="505.764,-785.5 515.764,-782 505.764,-778.5 505.764,-785.5"/>
</g>
<!-- Node6&#45;&gt;Node7 -->
<g id="edge6" class="edge"><title>Node6&#45;&gt;Node7</title>
<path fill="none" stroke="midnightblue" d="M607.787,-772.459C635.937,-762.965 679.319,-748.333 710.471,-737.826"/>
<polygon fill="midnightblue" stroke="midnightblue" points="711.764,-741.084 720.121,-734.572 709.527,-734.451 711.764,-741.084"/>
</g>
<!-- Node8 -->
<g id="node8" class="node"><title>Node8</title>
<g id="a_node8"><a xlink:href="class_interpreter.html#a99a623bb05c66632d0ab034ebaf2cf51" target="_top" xlink:title="Interpreter::getClassInfo">
<polygon fill="white" stroke="black" points="688.5,-791.5 688.5,-810.5 810.5,-810.5 810.5,-791.5 688.5,-791.5"/>
<text text-anchor="middle" x="749.5" y="-798.5" font-family="Helvetica,sans-Serif" font-size="10.00">Interpreter::getClassInfo</text>
</a>
</g>
</g>
<!-- Node6&#45;&gt;Node8 -->
<g id="edge7" class="edge"><title>Node6&#45;&gt;Node8</title>
<path fill="none" stroke="midnightblue" d="M641.47,-788.967C653.392,-790.307 665.961,-791.72 678.127,-793.088"/>
<polygon fill="midnightblue" stroke="midnightblue" points="677.9,-796.585 688.229,-794.224 678.683,-789.629 677.9,-796.585"/>
</g>
<!-- Node8&#45;&gt;Node5 -->
<g id="edge8" class="edge"><title>Node8&#45;&gt;Node5</title>
<path fill="none" stroke="midnightblue" d="M688.106,-803.901C640.242,-805.5 571.717,-806.237 512,-801 494.324,-799.45 475.198,-796.492 458.048,-793.364"/>
<polygon fill="midnightblue" stroke="midnightblue" points="458.679,-789.921 448.204,-791.512 457.384,-796.801 458.679,-789.921"/>
</g>
<!-- Node9&#45;&gt;Node7 -->
<g id="edge13" class="edge"><title>Node9&#45;&gt;Node7</title>
<path fill="none" stroke="midnightblue" d="M461.305,-704.963C518.545,-708.957 607.287,-715.148 670.975,-719.591"/>
<polygon fill="midnightblue" stroke="midnightblue" points="670.753,-723.084 680.973,-720.289 671.241,-716.101 670.753,-723.084"/>
</g>
<!-- Node10 -->
<g id="node10" class="node"><title>Node10</title>
<g id="a_node10"><a xlink:href="class_class_loader.html#ad4733587ddbe1ae25500c13181bfb5ca" target="_top" xlink:title="ClassLoader::getMethods">
<polygon fill="white" stroke="black" points="514.5,-608.5 514.5,-627.5 642.5,-627.5 642.5,-608.5 514.5,-608.5"/>
<text text-anchor="middle" x="578.5" y="-615.5" font-family="Helvetica,sans-Serif" font-size="10.00">ClassLoader::getMethods</text>
</a>
</g>
</g>
<!-- Node9&#45;&gt;Node10 -->
<g id="edge11" class="edge"><title>Node9&#45;&gt;Node10</title>
<path fill="none" stroke="midnightblue" d="M418.147,-691.316C437.989,-677.606 476.338,-652.486 512,-637 517.357,-634.674 523.082,-632.538 528.834,-630.607"/>
<polygon fill="midnightblue" stroke="midnightblue" points="530.002,-633.908 538.478,-627.551 527.888,-627.235 530.002,-633.908"/>
</g>
<!-- Node11 -->
<g id="node11" class="node"><title>Node11</title>
<g id="a_node11"><a xlink:href="struct_cp_attribute_interface.html#a99cabbc15a0af5273a6d324dfbc78f41" target="_top" xlink:title="CpAttributeInterface\l::getUTF8">
<polygon fill="white" stroke="black" points="526.5,-647 526.5,-677 630.5,-677 630.5,-647 526.5,-647"/>
<text text-anchor="start" x="534.5" y="-665" font-family="Helvetica,sans-Serif" font-size="10.00">CpAttributeInterface</text>
<text text-anchor="middle" x="578.5" y="-654" font-family="Helvetica,sans-Serif" font-size="10.00">::getUTF8</text>
</a>
</g>
</g>
<!-- Node9&#45;&gt;Node11 -->
<g id="edge12" class="edge"><title>Node9&#45;&gt;Node11</title>
<path fill="none" stroke="midnightblue" d="M446.821,-691.46C467.734,-686.745 493.356,-680.969 516.355,-675.784"/>
<polygon fill="midnightblue" stroke="midnightblue" points="517.384,-679.14 526.369,-673.527 515.845,-672.311 517.384,-679.14"/>
</g>
<!-- Node12&#45;&gt;Node7 -->
<g id="edge15" class="edge"><title>Node12&#45;&gt;Node7</title>
<path fill="none" stroke="midnightblue" d="M246.178,-361.952C249.088,-396.165 263.663,-509.655 331,-561 386.892,-603.618 583.378,-565.193 645,-599 690.513,-623.969 723.93,-677.819 739.226,-706.362"/>
<polygon fill="midnightblue" stroke="midnightblue" points="736.159,-708.05 743.871,-715.314 742.372,-704.826 736.159,-708.05"/>
</g>
<!-- Node12&#45;&gt;Node10 -->
<g id="edge34" class="edge"><title>Node12&#45;&gt;Node10</title>
<path fill="none" stroke="midnightblue" d="M245.522,-361.679C246.18,-398.898 253.981,-533.715 331,-594 383.644,-635.205 463.267,-635.212 517.68,-628.864"/>
<polygon fill="midnightblue" stroke="midnightblue" points="518.394,-632.302 527.872,-627.567 517.51,-625.358 518.394,-632.302"/>
</g>
<!-- Node12&#45;&gt;Node11 -->
<g id="edge23" class="edge"><title>Node12&#45;&gt;Node11</title>
<path fill="none" stroke="midnightblue" d="M245.145,-361.726C244.263,-401.779 246.671,-555.217 331,-627 381.866,-670.298 461.149,-674.075 516.003,-670.268"/>
<polygon fill="midnightblue" stroke="midnightblue" points="516.601,-673.732 526.29,-669.446 516.043,-666.754 516.601,-673.732"/>
</g>
<!-- Node13 -->
<g id="node13" class="node"><title>Node13</title>
<g id="a_node13"><a xlink:href="class_class_loader.html#a31dd114820bfdbfe628f2efb5effe963" target="_top" xlink:title="ClassLoader::getMagic">
<polygon fill="white" stroke="black" points="345,-532.5 345,-551.5 462,-551.5 462,-532.5 345,-532.5"/>
<text text-anchor="middle" x="403.5" y="-539.5" font-family="Helvetica,sans-Serif" font-size="10.00">ClassLoader::getMagic</text>
</a>
</g>
</g>
<!-- Node12&#45;&gt;Node13 -->
<g id="edge16" class="edge"><title>Node12&#45;&gt;Node13</title>
<path fill="none" stroke="midnightblue" d="M247.463,-361.894C253.825,-391.286 276.695,-478.776 331,-523 333.166,-524.764 335.48,-526.365 337.902,-527.819"/>
<polygon fill="midnightblue" stroke="midnightblue" points="336.564,-531.065 347.066,-532.463 339.728,-524.821 336.564,-531.065"/>
</g>
<!-- Node14 -->
<g id="node14" class="node"><title>Node14</title>
<g id="a_node14"><a xlink:href="class_class_loader.html#a9bed0bf2ac88a23118e67777a14c0553" target="_top" xlink:title="ClassLoader::getMinor">
<polygon fill="white" stroke="black" points="346,-494.5 346,-513.5 461,-513.5 461,-494.5 346,-494.5"/>
<text text-anchor="middle" x="403.5" y="-501.5" font-family="Helvetica,sans-Serif" font-size="10.00">ClassLoader::getMinor</text>
</a>
</g>
</g>
<!-- Node12&#45;&gt;Node14 -->
<g id="edge17" class="edge"><title>Node12&#45;&gt;Node14</title>
<path fill="none" stroke="midnightblue" d="M248.913,-361.787C258.051,-386.512 285.517,-451.866 331,-485 333.647,-486.929 336.477,-488.661 339.425,-490.218"/>
<polygon fill="midnightblue" stroke="midnightblue" points="338.016,-493.423 348.568,-494.382 340.918,-487.052 338.016,-493.423"/>
</g>
<!-- Node15 -->
<g id="node15" class="node"><title>Node15</title>
<g id="a_node15"><a xlink:href="class_class_loader.html#afc67f7bffc1f2b8ffd61b1dd217f62ad" target="_top" xlink:title="ClassLoader::getMajor">
<polygon fill="white" stroke="black" points="346,-456.5 346,-475.5 461,-475.5 461,-456.5 346,-456.5"/>
<text text-anchor="middle" x="403.5" y="-463.5" font-family="Helvetica,sans-Serif" font-size="10.00">ClassLoader::getMajor</text>
</a>
</g>
</g>
<!-- Node12&#45;&gt;Node15 -->
<g id="edge18" class="edge"><title>Node12&#45;&gt;Node15</title>
<path fill="none" stroke="midnightblue" d="M251.462,-361.766C263.8,-381.122 294.086,-424.426 331,-447 334.575,-449.186 338.4,-451.124 342.353,-452.84"/>
<polygon fill="midnightblue" stroke="midnightblue" points="341.163,-456.133 351.753,-456.459 343.678,-449.6 341.163,-456.133"/>
</g>
<!-- Node16 -->
<g id="node16" class="node"><title>Node16</title>
<g id="a_node16"><a xlink:href="class_class_loader.html#a292f4c53de8057b6cb24f8b2e0839807" target="_top" xlink:title="ClassLoader::getConstCount">
<polygon fill="white" stroke="black" points="332,-418.5 332,-437.5 475,-437.5 475,-418.5 332,-418.5"/>
<text text-anchor="middle" x="403.5" y="-425.5" font-family="Helvetica,sans-Serif" font-size="10.00">ClassLoader::getConstCount</text>
</a>
</g>
</g>
<!-- Node12&#45;&gt;Node16 -->
<g id="edge19" class="edge"><title>Node12&#45;&gt;Node16</title>
<path fill="none" stroke="midnightblue" d="M257.216,-361.652C273.038,-374.238 302.543,-396.16 331,-409 336.325,-411.403 342.015,-413.551 347.772,-415.461"/>
<polygon fill="midnightblue" stroke="midnightblue" points="346.884,-418.849 357.471,-418.45 348.946,-412.16 346.884,-418.849"/>
</g>
<!-- Node17 -->
<g id="node17" class="node"><title>Node17</title>
<g id="a_node17"><a xlink:href="class_class_loader.html#a6154ac807d01c4281f9ccf6b23378197" target="_top" xlink:title="ClassLoader::getFlag">
<polygon fill="white" stroke="black" points="348.5,-380.5 348.5,-399.5 458.5,-399.5 458.5,-380.5 348.5,-380.5"/>
<text text-anchor="middle" x="403.5" y="-387.5" font-family="Helvetica,sans-Serif" font-size="10.00">ClassLoader::getFlag</text>
</a>
</g>
</g>
<!-- Node12&#45;&gt;Node17 -->
<g id="edge20" class="edge"><title>Node12&#45;&gt;Node17</title>
<path fill="none" stroke="midnightblue" d="M280.343,-360.433C301.765,-365.618 329.546,-372.342 353.202,-378.068"/>
<polygon fill="midnightblue" stroke="midnightblue" points="352.514,-381.502 363.056,-380.453 354.16,-374.699 352.514,-381.502"/>
</g>
<!-- Node18 -->
<g id="node18" class="node"><title>Node18</title>
<g id="a_node18"><a xlink:href="jvm_8cpp.html#a596bd78d6f0ad77023b4b694b204bab1" target="_top" xlink:title="Verifica qual o access_flag. ">
<polygon fill="white" stroke="black" points="368.5,-342.5 368.5,-361.5 438.5,-361.5 438.5,-342.5 368.5,-342.5"/>
<text text-anchor="middle" x="403.5" y="-349.5" font-family="Helvetica,sans-Serif" font-size="10.00">Flag_names</text>
</a>
</g>
</g>
<!-- Node12&#45;&gt;Node18 -->
<g id="edge21" class="edge"><title>Node12&#45;&gt;Node18</title>
<path fill="none" stroke="midnightblue" d="M280.343,-352C303.267,-352 333.473,-352 358.113,-352"/>
<polygon fill="midnightblue" stroke="midnightblue" points="358.294,-355.5 368.294,-352 358.294,-348.5 358.294,-355.5"/>
</g>
<!-- Node19 -->
<g id="node19" class="node"><title>Node19</title>
<g id="a_node19"><a xlink:href="class_class_loader.html#a3346ccdf7148ea48826d858326c4de00" target="_top" xlink:title="ClassLoader::getThisClass">
<polygon fill="white" stroke="black" points="336,-304.5 336,-323.5 471,-323.5 471,-304.5 336,-304.5"/>
<text text-anchor="middle" x="403.5" y="-311.5" font-family="Helvetica,sans-Serif" font-size="10.00">ClassLoader::getThisClass</text>
</a>
</g>
</g>
<!-- Node12&#45;&gt;Node19 -->
<g id="edge22" class="edge"><title>Node12&#45;&gt;Node19</title>
<path fill="none" stroke="midnightblue" d="M280.343,-343.567C301.765,-338.382 329.546,-331.658 353.202,-325.932"/>
<polygon fill="midnightblue" stroke="midnightblue" points="354.16,-329.301 363.056,-323.547 352.514,-322.498 354.16,-329.301"/>
</g>
<!-- Node20 -->
<g id="node20" class="node"><title>Node20</title>
<g id="a_node20"><a xlink:href="class_class_loader.html#a390d1849bd7686e618a84eae6a7f60cf" target="_top" xlink:title="ClassLoader::getSuper">
<polygon fill="white" stroke="black" points="345.5,-266.5 345.5,-285.5 461.5,-285.5 461.5,-266.5 345.5,-266.5"/>
<text text-anchor="middle" x="403.5" y="-273.5" font-family="Helvetica,sans-Serif" font-size="10.00">ClassLoader::getSuper</text>
</a>
</g>
</g>
<!-- Node12&#45;&gt;Node20 -->
<g id="edge24" class="edge"><title>Node12&#45;&gt;Node20</title>
<path fill="none" stroke="midnightblue" d="M257.216,-342.348C273.038,-329.762 302.543,-307.84 331,-295 336.325,-292.597 342.015,-290.449 347.772,-288.539"/>
<polygon fill="midnightblue" stroke="midnightblue" points="348.946,-291.84 357.471,-285.55 346.884,-285.151 348.946,-291.84"/>
</g>
<!-- Node21 -->
<g id="node21" class="node"><title>Node21</title>
<g id="a_node21"><a xlink:href="class_class_loader.html#acbc3563bd386c769b5beb3352e761e0a" target="_top" xlink:title="ClassLoader::getInterCounter">
<polygon fill="white" stroke="black" points="331,-228.5 331,-247.5 476,-247.5 476,-228.5 331,-228.5"/>
<text text-anchor="middle" x="403.5" y="-235.5" font-family="Helvetica,sans-Serif" font-size="10.00">ClassLoader::getInterCounter</text>
</a>
</g>
</g>
<!-- Node12&#45;&gt;Node21 -->
<g id="edge25" class="edge"><title>Node12&#45;&gt;Node21</title>
<path fill="none" stroke="midnightblue" d="M251.462,-342.234C263.8,-322.878 294.086,-279.574 331,-257 334.575,-254.814 338.4,-252.876 342.353,-251.16"/>
<polygon fill="midnightblue" stroke="midnightblue" points="343.678,-254.4 351.753,-247.541 341.163,-247.867 343.678,-254.4"/>
</g>
<!-- Node22 -->
<g id="node22" class="node"><title>Node22</title>
<g id="a_node22"><a xlink:href="class_class_loader.html#a58c1c2b982f56c630946408d1425f6f4" target="_top" xlink:title="ClassLoader::getFieldCount">
<polygon fill="white" stroke="black" points="334.5,-152.5 334.5,-171.5 472.5,-171.5 472.5,-152.5 334.5,-152.5"/>
<text text-anchor="middle" x="403.5" y="-159.5" font-family="Helvetica,sans-Serif" font-size="10.00">ClassLoader::getFieldCount</text>
</a>
</g>
</g>
<!-- Node12&#45;&gt;Node22 -->
<g id="edge26" class="edge"><title>Node12&#45;&gt;Node22</title>
<path fill="none" stroke="midnightblue" d="M247.463,-342.106C253.825,-312.714 276.695,-225.224 331,-181 333.166,-179.236 335.48,-177.635 337.902,-176.181"/>
<polygon fill="midnightblue" stroke="midnightblue" points="339.728,-179.179 347.066,-171.537 336.564,-172.935 339.728,-179.179"/>
</g>
<!-- Node23 -->
<g id="node23" class="node"><title>Node23</title>
<g id="a_node23"><a xlink:href="class_class_loader.html#a868fdfc297bfc310b21b3a41cdceb7b9" target="_top" xlink:title="ClassLoader::getFields">
<polygon fill="white" stroke="black" points="520,-133.5 520,-152.5 637,-152.5 637,-133.5 520,-133.5"/>
<text text-anchor="middle" x="578.5" y="-140.5" font-family="Helvetica,sans-Serif" font-size="10.00">ClassLoader::getFields</text>
</a>
</g>
</g>
<!-- Node12&#45;&gt;Node23 -->
<g id="edge32" class="edge"><title>Node12&#45;&gt;Node23</title>
<path fill="none" stroke="midnightblue" d="M245.931,-342.228C248.046,-307.619 260.369,-190.418 331,-143 393.456,-101.07 486.362,-116.722 538.455,-130.649"/>
<polygon fill="midnightblue" stroke="midnightblue" points="537.735,-134.081 548.308,-133.393 539.614,-127.338 537.735,-134.081"/>
</g>
<!-- Node24 -->
<g id="node24" class="node"><title>Node24</title>
<g id="a_node24"><a xlink:href="class_class_loader.html#acad870c7b405146242912190e1e71f7c" target="_top" xlink:title="ClassLoader::getMethoCount">
<polygon fill="white" stroke="black" points="331.5,-190.5 331.5,-209.5 475.5,-209.5 475.5,-190.5 331.5,-190.5"/>
<text text-anchor="middle" x="403.5" y="-197.5" font-family="Helvetica,sans-Serif" font-size="10.00">ClassLoader::getMethoCount</text>
</a>
</g>
</g>
<!-- Node12&#45;&gt;Node24 -->
<g id="edge28" class="edge"><title>Node12&#45;&gt;Node24</title>
<path fill="none" stroke="midnightblue" d="M248.913,-342.213C258.051,-317.488 285.517,-252.134 331,-219 333.647,-217.071 336.477,-215.339 339.425,-213.782"/>
<polygon fill="midnightblue" stroke="midnightblue" points="340.918,-216.948 348.568,-209.618 338.016,-210.577 340.918,-216.948"/>
</g>
<!-- Node25 -->
<g id="node25" class="node"><title>Node25</title>
<g id="a_node25"><a xlink:href="class_class_loader.html#a047f5d93000be571f23484c809ab9b2d" target="_top" xlink:title="ClassLoader::getAttriCount">
<polygon fill="white" stroke="black" points="336,-76.5 336,-95.5 471,-95.5 471,-76.5 336,-76.5"/>
<text text-anchor="middle" x="403.5" y="-83.5" font-family="Helvetica,sans-Serif" font-size="10.00">ClassLoader::getAttriCount</text>
</a>
</g>
</g>
<!-- Node12&#45;&gt;Node25 -->
<g id="edge30" class="edge"><title>Node12&#45;&gt;Node25</title>
<path fill="none" stroke="midnightblue" d="M246.016,-342.091C248.447,-305.719 261.773,-178.144 331,-110 335.024,-106.039 339.722,-102.731 344.751,-99.9691"/>
<polygon fill="midnightblue" stroke="midnightblue" points="346.539,-102.996 354.09,-95.5638 343.552,-96.6649 346.539,-102.996"/>
</g>
<!-- Node26 -->
<g id="node26" class="node"><title>Node26</title>
<g id="a_node26"><a xlink:href="class_class_loader.html#a988add3569e32d42bc841f526d978e68" target="_top" xlink:title="ClassLoader::getAttributes">
<polygon fill="white" stroke="black" points="512,-57.5 512,-76.5 645,-76.5 645,-57.5 512,-57.5"/>
<text text-anchor="middle" x="578.5" y="-64.5" font-family="Helvetica,sans-Serif" font-size="10.00">ClassLoader::getAttributes</text>
</a>
</g>
</g>
<!-- Node12&#45;&gt;Node26 -->
<g id="edge35" class="edge"><title>Node12&#45;&gt;Node26</title>
<path fill="none" stroke="midnightblue" d="M246.862,-342.308C253.525,-296.42 284.271,-101.768 331,-67 392.319,-21.3769 488.051,-39.4101 540.337,-54.4865"/>
<polygon fill="midnightblue" stroke="midnightblue" points="539.608,-57.9219 550.192,-57.4427 541.62,-51.217 539.608,-57.9219"/>
</g>
<!-- Node27 -->
<g id="node27" class="node"><title>Node27</title>
<g id="a_node27"><a xlink:href="class_class_loader.html#a357668e5a1442f1fb7618f04c1e0a951" target="_top" xlink:title="ClassLoader::getInterfaces">
<polygon fill="white" stroke="black" points="336.5,-0.5 336.5,-19.5 470.5,-19.5 470.5,-0.5 336.5,-0.5"/>
<text text-anchor="middle" x="403.5" y="-7.5" font-family="Helvetica,sans-Serif" font-size="10.00">ClassLoader::getInterfaces</text>
</a>
</g>
</g>
<!-- Node12&#45;&gt;Node27 -->
<g id="edge33" class="edge"><title>Node12&#45;&gt;Node27</title>
<path fill="none" stroke="midnightblue" d="M245.051,-342.426C243.603,-300.014 243.457,-127.071 331,-34 334.608,-30.1641 338.847,-26.9411 343.43,-24.2331"/>
<polygon fill="midnightblue" stroke="midnightblue" points="345.224,-27.2487 352.591,-19.6345 342.084,-20.9927 345.224,-27.2487"/>
</g>
<!-- Node22&#45;&gt;Node23 -->
<g id="edge27" class="edge"><title>Node22&#45;&gt;Node23</title>
<path fill="none" stroke="midnightblue" d="M472.874,-154.491C485.049,-153.154 497.725,-151.761 509.879,-150.427"/>
<polygon fill="midnightblue" stroke="midnightblue" points="510.384,-153.892 519.942,-149.321 509.62,-146.934 510.384,-153.892"/>
</g>
<!-- Node24&#45;&gt;Node10 -->
<g id="edge29" class="edge"><title>Node24&#45;&gt;Node10</title>
<path fill="none" stroke="midnightblue" d="M462.904,-209.595C467.732,-212.077 472.206,-215.165 476,-219 530.878,-274.464 565.975,-525.516 575.117,-598.218"/>
<polygon fill="midnightblue" stroke="midnightblue" points="571.663,-598.801 576.361,-608.297 578.61,-597.944 571.663,-598.801"/>
</g>
<!-- Node25&#45;&gt;Node26 -->
<g id="edge31" class="edge"><title>Node25&#45;&gt;Node26</title>
<path fill="none" stroke="midnightblue" d="M471.386,-78.6541C481.37,-77.5576 491.722,-76.4208 501.87,-75.3061"/>
<polygon fill="midnightblue" stroke="midnightblue" points="502.372,-78.7722 511.93,-74.2013 501.608,-71.814 502.372,-78.7722"/>
</g>
</g>
</svg>
