<?xml version="1.0" encoding="UTF-8" standalone="no"?>
<!DOCTYPE svg PUBLIC "-//W3C//DTD SVG 1.1//EN"
 "http://www.w3.org/Graphics/SVG/1.1/DTD/svg11.dtd">
<!-- Generated by graphviz version 2.38.0 (20140413.2041)
 -->
<!-- Title: jvm.cpp Pages: 1 -->
<svg width="1200pt" height="476pt"
 viewBox="0.00 0.00 1200.33 476.00" xmlns="http://www.w3.org/2000/svg" xmlns:xlink="http://www.w3.org/1999/xlink">
<g id="graph0" class="graph" transform="scale(1 1) rotate(0) translate(4 472)">
<title>jvm.cpp</title>
<polygon fill="white" stroke="none" points="-4,4 -4,-472 1196.33,-472 1196.33,4 -4,4"/>
<!-- Node1 -->
<g id="node1" class="node"><title>Node1</title>
<polygon fill="#bfbfbf" stroke="black" points="158.731,-448.5 158.731,-467.5 209.731,-467.5 209.731,-448.5 158.731,-448.5"/>
<text text-anchor="middle" x="184.231" y="-455.5" font-family="Helvetica,sans-Serif" font-size="10.00">jvm.cpp</text>
</g>
<!-- Node2 -->
<g id="node2" class="node"><title>Node2</title>
<polygon fill="white" stroke="#bfbfbf" points="212.231,-168.5 212.231,-187.5 266.231,-187.5 266.231,-168.5 212.231,-168.5"/>
<text text-anchor="middle" x="239.231" y="-175.5" font-family="Helvetica,sans-Serif" font-size="10.00">iostream</text>
</g>
<!-- Node1&#45;&gt;Node2 -->
<g id="edge1" class="edge"><title>Node1&#45;&gt;Node2</title>
<path fill="none" stroke="midnightblue" d="M185.938,-448.375C193.589,-409.701 224.83,-251.794 235.578,-197.465"/>
<polygon fill="midnightblue" stroke="midnightblue" points="239.037,-198.013 237.545,-187.524 232.17,-196.655 239.037,-198.013"/>
</g>
<!-- Node3 -->
<g id="node3" class="node"><title>Node3</title>
<polygon fill="white" stroke="#bfbfbf" points="30.2313,-392.5 30.2313,-411.5 80.2313,-411.5 80.2313,-392.5 30.2313,-392.5"/>
<text text-anchor="middle" x="55.2313" y="-399.5" font-family="Helvetica,sans-Serif" font-size="10.00">iomanip</text>
</g>
<!-- Node1&#45;&gt;Node3 -->
<g id="edge2" class="edge"><title>Node1&#45;&gt;Node3</title>
<path fill="none" stroke="midnightblue" d="M163.791,-448.444C142.561,-439.557 109.132,-425.563 84.9763,-415.451"/>
<polygon fill="midnightblue" stroke="midnightblue" points="86.152,-412.149 75.5761,-411.516 83.449,-418.606 86.152,-412.149"/>
</g>
<!-- Node4 -->
<g id="node4" class="node"><title>Node4</title>
<polygon fill="white" stroke="#bfbfbf" points="120.231,-0.5 120.231,-19.5 170.231,-19.5 170.231,-0.5 120.231,-0.5"/>
<text text-anchor="middle" x="145.231" y="-7.5" font-family="Helvetica,sans-Serif" font-size="10.00">fstream</text>
</g>
<!-- Node1&#45;&gt;Node4 -->
<g id="edge3" class="edge"><title>Node1&#45;&gt;Node4</title>
<path fill="none" stroke="midnightblue" d="M158.567,-457.08C123.032,-455.782 58.9699,-448.145 21.2313,-412 -0.693794,-391.001 0.231265,-377.359 0.231265,-347 0.231265,-347 0.231265,-347 0.231265,-121 0.231265,-90.7745 -0.632653,-77.8695 20.2313,-56 43.8075,-31.2874 81.9335,-20.1076 109.888,-15.0735"/>
<polygon fill="midnightblue" stroke="midnightblue" points="110.74,-18.4813 120.053,-13.4296 109.622,-11.5711 110.74,-18.4813"/>
</g>
<!-- Node5 -->
<g id="node5" class="node"><title>Node5</title>
<g id="a_node5"><a xlink:href="_class_loader_8hpp.html" target="_top" xlink:title="Declarações das funções do ClassLoader para salvar todos os bytes de .class corretamente. ">
<polygon fill="white" stroke="black" points="369.231,-224.5 369.231,-243.5 459.231,-243.5 459.231,-224.5 369.231,-224.5"/>
<text text-anchor="middle" x="414.231" y="-231.5" font-family="Helvetica,sans-Serif" font-size="10.00">ClassLoader.hpp</text>
</a>
</g>
</g>
<!-- Node1&#45;&gt;Node5 -->
<g id="edge4" class="edge"><title>Node1&#45;&gt;Node5</title>
<path fill="none" stroke="midnightblue" d="M186.671,-448.247C192.903,-427.086 211.074,-372.23 241.231,-336 278.098,-291.71 339.714,-262.442 378.599,-247.304"/>
<polygon fill="midnightblue" stroke="midnightblue" points="380.327,-250.392 388.444,-243.583 377.853,-243.844 380.327,-250.392"/>
</g>
<!-- Node11 -->
<g id="node11" class="node"><title>Node11</title>
<g id="a_node11"><a xlink:href="_cp_info_8hpp.html" target="_top" xlink:title="Declarações das funções e dos atributos do Pool de constantes. ">
<polygon fill="white" stroke="black" points="435.731,-56.5 435.731,-75.5 500.731,-75.5 500.731,-56.5 435.731,-56.5"/>
<text text-anchor="middle" x="468.231" y="-63.5" font-family="Helvetica,sans-Serif" font-size="10.00">CpInfo.hpp</text>
</a>
</g>
</g>
<!-- Node1&#45;&gt;Node11 -->
<g id="edge33" class="edge"><title>Node1&#45;&gt;Node11</title>
<path fill="none" stroke="midnightblue" d="M172.689,-448.433C151.428,-431.571 108.231,-391.799 108.231,-347 108.231,-347 108.231,-347 108.231,-233 108.231,-164.075 145.841,-146.978 205.231,-112 241.718,-90.511 360.223,-76.7643 424.992,-70.6612"/>
<polygon fill="midnightblue" stroke="midnightblue" points="425.649,-74.1155 435.285,-69.7129 425.007,-67.1451 425.649,-74.1155"/>
</g>
<!-- Node13 -->
<g id="node13" class="node"><title>Node13</title>
<g id="a_node13"><a xlink:href="_attribute_info_8hpp.html" target="_top" xlink:title="Declarações das funções do AttributeInfo para tratamento dos atributos do arquivo ...">
<polygon fill="white" stroke="black" points="557.731,-112.5 557.731,-131.5 646.731,-131.5 646.731,-112.5 557.731,-112.5"/>
<text text-anchor="middle" x="602.231" y="-119.5" font-family="Helvetica,sans-Serif" font-size="10.00">AttributeInfo.hpp</text>
</a>
</g>
</g>
<!-- Node1&#45;&gt;Node13 -->
<g id="edge32" class="edge"><title>Node1&#45;&gt;Node13</title>
<path fill="none" stroke="midnightblue" d="M178.948,-448.231C168.506,-430.043 146.231,-386.601 146.231,-347 146.231,-347 146.231,-347 146.231,-233 146.231,-194.577 169.178,-185.797 203.231,-168 261.738,-137.422 452.073,-127.458 547.147,-124.344"/>
<polygon fill="midnightblue" stroke="midnightblue" points="547.54,-127.833 557.426,-124.022 547.321,-120.837 547.54,-127.833"/>
</g>
<!-- Node17 -->
<g id="node17" class="node"><title>Node17</title>
<g id="a_node17"><a xlink:href="_cp_attribute_interface_8hpp.html" target="_top" xlink:title="Declarações da interface entre ConstantPool e AttributeInfo para traduzir as strings UTF8...">
<polygon fill="white" stroke="black" points="1039.73,-280.5 1039.73,-299.5 1162.73,-299.5 1162.73,-280.5 1039.73,-280.5"/>
<text text-anchor="middle" x="1101.23" y="-287.5" font-family="Helvetica,sans-Serif" font-size="10.00">CpAttributeInterface.hpp</text>
</a>
</g>
</g>
<!-- Node1&#45;&gt;Node17 -->
<g id="edge34" class="edge"><title>Node1&#45;&gt;Node17</title>
<path fill="none" stroke="midnightblue" d="M210.006,-457.367C311.715,-458.076 693.968,-453.725 987.231,-356 1022.6,-344.215 1059.33,-320.941 1081.23,-305.679"/>
<polygon fill="midnightblue" stroke="midnightblue" points="1083.54,-308.332 1089.66,-299.685 1079.48,-302.626 1083.54,-308.332"/>
</g>
<!-- Node19 -->
<g id="node19" class="node"><title>Node19</title>
<g id="a_node19"><a xlink:href="_interpreter_8hpp.html" target="_top" xlink:title="Declarações das funções e atributos do Interpretador para interpretar o que foi lido do ...">
<polygon fill="white" stroke="black" points="406.231,-392.5 406.231,-411.5 486.231,-411.5 486.231,-392.5 406.231,-392.5"/>
<text text-anchor="middle" x="446.231" y="-399.5" font-family="Helvetica,sans-Serif" font-size="10.00">Interpreter.hpp</text>
</a>
</g>
</g>
<!-- Node1&#45;&gt;Node19 -->
<g id="edge38" class="edge"><title>Node1&#45;&gt;Node19</title>
<path fill="none" stroke="midnightblue" d="M209.83,-451.724C252.862,-442.855 340.438,-424.805 396.074,-413.338"/>
<polygon fill="midnightblue" stroke="midnightblue" points="396.985,-416.724 406.072,-411.277 395.572,-409.868 396.985,-416.724"/>
</g>
<!-- Node27 -->
<g id="node27" class="node"><title>Node27</title>
<g id="a_node27"><a xlink:href="_g_l_o_b_a_l__file_8hpp.html" target="_top" xlink:title="Armazenas classes estáticas para serem usadas por todo o código. ">
<polygon fill="white" stroke="black" points="250.231,-336.5 250.231,-355.5 342.231,-355.5 342.231,-336.5 250.231,-336.5"/>
<text text-anchor="middle" x="296.231" y="-343.5" font-family="Helvetica,sans-Serif" font-size="10.00">GLOBAL_file.hpp</text>
</a>
</g>
</g>
<!-- Node1&#45;&gt;Node27 -->
<g id="edge64" class="edge"><title>Node1&#45;&gt;Node27</title>
<path fill="none" stroke="midnightblue" d="M194.895,-448.368C205.627,-439.545 222.509,-425.289 236.231,-412 252.521,-396.225 269.98,-377.023 281.84,-363.596"/>
<polygon fill="midnightblue" stroke="midnightblue" points="284.8,-365.528 288.757,-355.7 279.535,-360.916 284.8,-365.528"/>
</g>
<!-- Node5&#45;&gt;Node2 -->
<g id="edge6" class="edge"><title>Node5&#45;&gt;Node2</title>
<path fill="none" stroke="midnightblue" d="M386.502,-224.444C356.631,-215.226 308.958,-200.516 275.982,-190.34"/>
<polygon fill="midnightblue" stroke="midnightblue" points="276.843,-186.943 266.256,-187.339 274.779,-193.632 276.843,-186.943"/>
</g>
<!-- Node6 -->
<g id="node6" class="node"><title>Node6</title>
<polygon fill="white" stroke="#bfbfbf" points="582.231,-0.5 582.231,-19.5 628.231,-19.5 628.231,-0.5 582.231,-0.5"/>
<text text-anchor="middle" x="605.231" y="-7.5" font-family="Helvetica,sans-Serif" font-size="10.00">cstdint</text>
</g>
<!-- Node5&#45;&gt;Node6 -->
<g id="edge5" class="edge"><title>Node5&#45;&gt;Node6</title>
<path fill="none" stroke="midnightblue" d="M459.625,-224.542C505.54,-215.498 572.962,-200.738 596.231,-188 627.944,-170.64 640.962,-165.218 655.231,-132 671.292,-94.6137 640.441,-50.3463 620.434,-27.1031"/>
<polygon fill="midnightblue" stroke="midnightblue" points="622.94,-24.6552 613.66,-19.5427 617.726,-29.3262 622.94,-24.6552"/>
</g>
<!-- Node7 -->
<g id="node7" class="node"><title>Node7</title>
<polygon fill="white" stroke="#bfbfbf" points="876.231,-168.5 876.231,-187.5 922.231,-187.5 922.231,-168.5 876.231,-168.5"/>
<text text-anchor="middle" x="899.231" y="-175.5" font-family="Helvetica,sans-Serif" font-size="10.00">cstring</text>
</g>
<!-- Node5&#45;&gt;Node7 -->
<g id="edge7" class="edge"><title>Node5&#45;&gt;Node7</title>
<path fill="none" stroke="midnightblue" d="M459.279,-225.262C462.305,-224.813 465.311,-224.387 468.231,-224 629.387,-202.625 670.758,-206.824 832.231,-188 843.16,-186.726 855.07,-185.178 865.776,-183.728"/>
<polygon fill="midnightblue" stroke="midnightblue" points="866.57,-187.152 876.001,-182.324 865.618,-180.217 866.57,-187.152"/>
</g>
<!-- Node8 -->
<g id="node8" class="node"><title>Node8</title>
<polygon fill="white" stroke="#bfbfbf" points="989.231,-56.5 989.231,-75.5 1033.23,-75.5 1033.23,-56.5 989.231,-56.5"/>
<text text-anchor="middle" x="1011.23" y="-63.5" font-family="Helvetica,sans-Serif" font-size="10.00">vector</text>
</g>
<!-- Node5&#45;&gt;Node8 -->
<g id="edge8" class="edge"><title>Node5&#45;&gt;Node8</title>
<path fill="none" stroke="midnightblue" d="M459.285,-225.304C462.31,-224.845 465.313,-224.406 468.231,-224 611.301,-204.119 653.537,-231.64 791.231,-188 870.526,-162.869 953.849,-107.97 991.134,-81.6469"/>
<polygon fill="midnightblue" stroke="midnightblue" points="993.488,-84.2665 999.591,-75.6057 989.419,-78.5705 993.488,-84.2665"/>
</g>
<!-- Node9 -->
<g id="node9" class="node"><title>Node9</title>
<polygon fill="white" stroke="#bfbfbf" points="384.231,-168.5 384.231,-187.5 436.231,-187.5 436.231,-168.5 384.231,-168.5"/>
<text text-anchor="middle" x="410.231" y="-175.5" font-family="Helvetica,sans-Serif" font-size="10.00">memory</text>
</g>
<!-- Node5&#45;&gt;Node9 -->
<g id="edge9" class="edge"><title>Node5&#45;&gt;Node9</title>
<path fill="none" stroke="midnightblue" d="M413.571,-224.083C413.047,-217.006 412.295,-206.861 411.638,-197.986"/>
<polygon fill="midnightblue" stroke="midnightblue" points="415.109,-197.465 410.879,-187.751 408.128,-197.982 415.109,-197.465"/>
</g>
<!-- Node10 -->
<g id="node10" class="node"><title>Node10</title>
<polygon fill="white" stroke="#bfbfbf" points="322.731,-168.5 322.731,-187.5 365.731,-187.5 365.731,-168.5 322.731,-168.5"/>
<text text-anchor="middle" x="344.231" y="-175.5" font-family="Helvetica,sans-Serif" font-size="10.00">cstdio</text>
</g>
<!-- Node5&#45;&gt;Node10 -->
<g id="edge10" class="edge"><title>Node5&#45;&gt;Node10</title>
<path fill="none" stroke="midnightblue" d="M402.985,-224.324C392.434,-216.185 376.431,-203.839 363.789,-194.087"/>
<polygon fill="midnightblue" stroke="midnightblue" points="365.738,-191.171 355.683,-187.834 361.463,-196.713 365.738,-191.171"/>
</g>
<!-- Node5&#45;&gt;Node11 -->
<g id="edge11" class="edge"><title>Node5&#45;&gt;Node11</title>
<path fill="none" stroke="midnightblue" d="M421.843,-224.346C429.001,-215.731 439.456,-201.832 445.231,-188 459.599,-153.591 465.065,-109.914 467.09,-85.5621"/>
<polygon fill="midnightblue" stroke="midnightblue" points="470.582,-85.7866 467.814,-75.5597 463.601,-85.2806 470.582,-85.7866"/>
</g>
<!-- Node12 -->
<g id="node12" class="node"><title>Node12</title>
<g id="a_node12"><a xlink:href="_method_info_8hpp.html" target="_top" xlink:title="Declarações das funções do MethodInfo estrutura responsável por guardas as informaçoes dos metodos do...">
<polygon fill="white" stroke="black" points="698.231,-168.5 698.231,-187.5 782.231,-187.5 782.231,-168.5 698.231,-168.5"/>
<text text-anchor="middle" x="740.231" y="-175.5" font-family="Helvetica,sans-Serif" font-size="10.00">MethodInfo.hpp</text>
</a>
</g>
</g>
<!-- Node5&#45;&gt;Node12 -->
<g id="edge14" class="edge"><title>Node5&#45;&gt;Node12</title>
<path fill="none" stroke="midnightblue" d="M459.312,-225.482C462.33,-224.98 465.325,-224.483 468.231,-224 544.528,-211.331 632.875,-196.727 687.663,-187.678"/>
<polygon fill="midnightblue" stroke="midnightblue" points="688.53,-191.082 697.826,-185.999 687.39,-184.176 688.53,-191.082"/>
</g>
<!-- Node5&#45;&gt;Node13 -->
<g id="edge31" class="edge"><title>Node5&#45;&gt;Node13</title>
<path fill="none" stroke="midnightblue" d="M459.471,-224.789C500.512,-216.552 557.134,-202.968 574.231,-188 587.934,-176.004 595.155,-156.109 598.807,-141.484"/>
<polygon fill="midnightblue" stroke="midnightblue" points="602.264,-142.059 600.953,-131.545 595.422,-140.582 602.264,-142.059"/>
</g>
<!-- Node14 -->
<g id="node14" class="node"><title>Node14</title>
<g id="a_node14"><a xlink:href="_interface_info_8hpp.html" target="_top" xlink:title="Declarações das funções e atributos de InterfaceInfo. ">
<polygon fill="white" stroke="black" points="28.2313,-112.5 28.2313,-131.5 118.231,-131.5 118.231,-112.5 28.2313,-112.5"/>
<text text-anchor="middle" x="73.2313" y="-119.5" font-family="Helvetica,sans-Serif" font-size="10.00">InterfaceInfo.hpp</text>
</a>
</g>
</g>
<!-- Node5&#45;&gt;Node14 -->
<g id="edge22" class="edge"><title>Node5&#45;&gt;Node14</title>
<path fill="none" stroke="midnightblue" d="M393.932,-224.419C373.409,-215.635 340.864,-201.41 313.231,-188 296.061,-179.667 293.147,-174.577 275.231,-168 226.935,-150.27 169.467,-138.295 128.199,-131.185"/>
<polygon fill="midnightblue" stroke="midnightblue" points="128.778,-127.733 118.336,-129.524 127.616,-134.636 128.778,-127.733"/>
</g>
<!-- Node16 -->
<g id="node16" class="node"><title>Node16</title>
<g id="a_node16"><a xlink:href="_field_info_8hpp.html" target="_top" xlink:title="Declarações das funções do FieldInfo para tratamento dos fields do arquivo .class. ">
<polygon fill="white" stroke="black" points="492.731,-168.5 492.731,-187.5 565.731,-187.5 565.731,-168.5 492.731,-168.5"/>
<text text-anchor="middle" x="529.231" y="-175.5" font-family="Helvetica,sans-Serif" font-size="10.00">FieldInfo.hpp</text>
</a>
</g>
</g>
<!-- Node5&#45;&gt;Node16 -->
<g id="edge27" class="edge"><title>Node5&#45;&gt;Node16</title>
<path fill="none" stroke="midnightblue" d="M432.453,-224.444C451.127,-215.675 480.387,-201.935 501.849,-191.858"/>
<polygon fill="midnightblue" stroke="midnightblue" points="503.53,-194.935 511.094,-187.516 500.555,-188.599 503.53,-194.935"/>
</g>
<!-- Node11&#45;&gt;Node4 -->
<g id="edge13" class="edge"><title>Node11&#45;&gt;Node4</title>
<path fill="none" stroke="midnightblue" d="M435.483,-59.525C374.383,-49.3102 243.515,-27.4314 180.53,-16.9013"/>
<polygon fill="midnightblue" stroke="midnightblue" points="180.747,-13.3891 170.307,-15.1922 179.593,-20.2933 180.747,-13.3891"/>
</g>
<!-- Node11&#45;&gt;Node6 -->
<g id="edge12" class="edge"><title>Node11&#45;&gt;Node6</title>
<path fill="none" stroke="midnightblue" d="M489.939,-56.4435C512.586,-47.5171 548.303,-33.4387 573.983,-23.3168"/>
<polygon fill="midnightblue" stroke="midnightblue" points="575.605,-26.4397 583.625,-19.5164 573.038,-19.9273 575.605,-26.4397"/>
</g>
<!-- Node12&#45;&gt;Node6 -->
<g id="edge15" class="edge"><title>Node12&#45;&gt;Node6</title>
<path fill="none" stroke="midnightblue" d="M742.12,-168.258C746.253,-146.645 753.733,-89.9904 727.231,-56 706.06,-28.8468 666.813,-18.0753 638.542,-13.8039"/>
<polygon fill="midnightblue" stroke="midnightblue" points="638.675,-10.2915 628.305,-12.4645 637.767,-17.2323 638.675,-10.2915"/>
</g>
<!-- Node12&#45;&gt;Node11 -->
<g id="edge21" class="edge"><title>Node12&#45;&gt;Node11</title>
<path fill="none" stroke="midnightblue" d="M731.638,-168.411C717.162,-154.439 686.427,-126.858 655.231,-112 608.6,-89.7902 550.051,-77.991 511.009,-72.1302"/>
<polygon fill="midnightblue" stroke="midnightblue" points="511.429,-68.6546 501.033,-70.6981 510.434,-75.5835 511.429,-68.6546"/>
</g>
<!-- Node12&#45;&gt;Node13 -->
<g id="edge16" class="edge"><title>Node12&#45;&gt;Node13</title>
<path fill="none" stroke="midnightblue" d="M718.365,-168.444C695.452,-159.478 659.256,-145.314 633.365,-135.183"/>
<polygon fill="midnightblue" stroke="midnightblue" points="634.583,-131.901 623.995,-131.516 632.032,-138.42 634.583,-131.901"/>
</g>
<!-- Node13&#45;&gt;Node4 -->
<g id="edge19" class="edge"><title>Node13&#45;&gt;Node4</title>
<path fill="none" stroke="midnightblue" d="M593.35,-112.487C577.754,-98.1051 543.805,-69.271 509.231,-56 449.687,-33.1443 260.437,-18.5033 180.94,-13.2162"/>
<polygon fill="midnightblue" stroke="midnightblue" points="180.683,-9.69202 170.476,-12.5324 180.226,-16.6771 180.683,-9.69202"/>
</g>
<!-- Node13&#45;&gt;Node6 -->
<g id="edge17" class="edge"><title>Node13&#45;&gt;Node6</title>
<path fill="none" stroke="midnightblue" d="M602.467,-112.368C602.951,-94.617 604.068,-53.6664 604.724,-29.5974"/>
<polygon fill="midnightblue" stroke="midnightblue" points="608.223,-29.6832 604.997,-19.5914 601.226,-29.4922 608.223,-29.6832"/>
</g>
<!-- Node13&#45;&gt;Node8 -->
<g id="edge18" class="edge"><title>Node13&#45;&gt;Node8</title>
<path fill="none" stroke="midnightblue" d="M646.78,-115.118C729.858,-104.15 906.569,-80.8185 979.121,-71.2396"/>
<polygon fill="midnightblue" stroke="midnightblue" points="979.59,-74.7081 989.046,-69.9292 978.673,-67.7683 979.59,-74.7081"/>
</g>
<!-- Node13&#45;&gt;Node11 -->
<g id="edge20" class="edge"><title>Node13&#45;&gt;Node11</title>
<path fill="none" stroke="midnightblue" d="M580.999,-112.444C558.848,-103.517 523.913,-89.4387 498.795,-79.3168"/>
<polygon fill="midnightblue" stroke="midnightblue" points="499.948,-76.0079 489.365,-75.5164 497.332,-82.5006 499.948,-76.0079"/>
</g>
<!-- Node14&#45;&gt;Node4 -->
<g id="edge23" class="edge"><title>Node14&#45;&gt;Node4</title>
<path fill="none" stroke="midnightblue" d="M87.0958,-112.279C98.844,-104.214 115.317,-91.1995 125.231,-76 134.403,-61.9389 139.556,-43.4455 142.325,-29.7811"/>
<polygon fill="midnightblue" stroke="midnightblue" points="145.823,-30.1002 144.127,-19.6421 138.931,-28.8756 145.823,-30.1002"/>
</g>
<!-- Node14&#45;&gt;Node6 -->
<g id="edge24" class="edge"><title>Node14&#45;&gt;Node6</title>
<path fill="none" stroke="midnightblue" d="M114.534,-112.46C216.673,-91.341 479.536,-36.9897 572.255,-17.8185"/>
<polygon fill="midnightblue" stroke="midnightblue" points="573.113,-21.215 582.197,-15.7626 571.696,-14.36 573.113,-21.215"/>
</g>
<!-- Node15 -->
<g id="node15" class="node"><title>Node15</title>
<g id="a_node15"><a xlink:href="_byte_reader_8hpp.html" target="_top" xlink:title="Declarações das funções do ByteReader para leitura dos bytes no arquivo .class. ">
<polygon fill="white" stroke="black" points="29.7313,-56.5 29.7313,-75.5 116.731,-75.5 116.731,-56.5 29.7313,-56.5"/>
<text text-anchor="middle" x="73.2313" y="-63.5" font-family="Helvetica,sans-Serif" font-size="10.00">ByteReader.hpp</text>
</a>
</g>
</g>
<!-- Node14&#45;&gt;Node15 -->
<g id="edge25" class="edge"><title>Node14&#45;&gt;Node15</title>
<path fill="none" stroke="midnightblue" d="M73.2313,-112.083C73.2313,-105.006 73.2313,-94.8611 73.2313,-85.9865"/>
<polygon fill="midnightblue" stroke="midnightblue" points="76.7314,-85.751 73.2313,-75.7511 69.7314,-85.7511 76.7314,-85.751"/>
</g>
<!-- Node15&#45;&gt;Node4 -->
<g id="edge26" class="edge"><title>Node15&#45;&gt;Node4</title>
<path fill="none" stroke="midnightblue" d="M84.7993,-56.324C95.6514,-48.1849 112.112,-35.8395 125.115,-26.0874"/>
<polygon fill="midnightblue" stroke="midnightblue" points="127.553,-28.6339 133.453,-19.8339 123.353,-23.0339 127.553,-28.6339"/>
</g>
<!-- Node16&#45;&gt;Node6 -->
<g id="edge30" class="edge"><title>Node16&#45;&gt;Node6</title>
<path fill="none" stroke="midnightblue" d="M531.086,-168.371C533.955,-155.713 540.008,-131.499 548.231,-112 561.275,-81.0701 581.504,-47.59 594.028,-27.9992"/>
<polygon fill="midnightblue" stroke="midnightblue" points="596.989,-29.8649 599.492,-19.5697 591.115,-26.0576 596.989,-29.8649"/>
</g>
<!-- Node16&#45;&gt;Node11 -->
<g id="edge28" class="edge"><title>Node16&#45;&gt;Node11</title>
<path fill="none" stroke="midnightblue" d="M524.445,-168.368C514.467,-150.376 491.273,-108.55 478.006,-84.6267"/>
<polygon fill="midnightblue" stroke="midnightblue" points="480.906,-82.6393 472.996,-75.5914 474.784,-86.0342 480.906,-82.6393"/>
</g>
<!-- Node16&#45;&gt;Node13 -->
<g id="edge29" class="edge"><title>Node16&#45;&gt;Node13</title>
<path fill="none" stroke="midnightblue" d="M540.96,-168.324C552.069,-160.107 568.973,-147.602 582.215,-137.807"/>
<polygon fill="midnightblue" stroke="midnightblue" points="584.331,-140.595 590.289,-131.834 580.168,-134.967 584.331,-140.595"/>
</g>
<!-- Node17&#45;&gt;Node8 -->
<g id="edge36" class="edge"><title>Node17&#45;&gt;Node8</title>
<path fill="none" stroke="midnightblue" d="M1097.7,-280.297C1084.4,-247.494 1037.13,-130.884 1018.68,-85.3774"/>
<polygon fill="midnightblue" stroke="midnightblue" points="1021.83,-83.8362 1014.83,-75.8837 1015.35,-86.4661 1021.83,-83.8362"/>
</g>
<!-- Node17&#45;&gt;Node11 -->
<g id="edge37" class="edge"><title>Node17&#45;&gt;Node11</title>
<path fill="none" stroke="midnightblue" d="M1092.1,-280.451C1067.91,-258.281 999.322,-198.542 931.231,-168 785.636,-102.694 594.89,-78.369 510.982,-70.4142"/>
<polygon fill="midnightblue" stroke="midnightblue" points="511.092,-66.9097 500.814,-69.4815 510.452,-73.8804 511.092,-66.9097"/>
</g>
<!-- Node18 -->
<g id="node18" class="node"><title>Node18</title>
<polygon fill="white" stroke="#bfbfbf" points="747.731,-224.5 747.731,-243.5 788.731,-243.5 788.731,-224.5 747.731,-224.5"/>
<text text-anchor="middle" x="768.231" y="-231.5" font-family="Helvetica,sans-Serif" font-size="10.00">string</text>
</g>
<!-- Node17&#45;&gt;Node18 -->
<g id="edge35" class="edge"><title>Node17&#45;&gt;Node18</title>
<path fill="none" stroke="midnightblue" d="M1039.53,-282.476C980.187,-275.607 887.86,-263.362 798.787,-243.82"/>
<polygon fill="midnightblue" stroke="midnightblue" points="799.307,-240.35 788.785,-241.591 797.784,-247.182 799.307,-240.35"/>
</g>
<!-- Node19&#45;&gt;Node5 -->
<g id="edge39" class="edge"><title>Node19&#45;&gt;Node5</title>
<path fill="none" stroke="midnightblue" d="M433.49,-392.467C404.832,-372.966 336.886,-324.909 325.231,-300 313.466,-274.854 343.629,-257.332 371.97,-246.869"/>
<polygon fill="midnightblue" stroke="midnightblue" points="373.142,-250.167 381.449,-243.591 370.854,-243.552 373.142,-250.167"/>
</g>
<!-- Node19&#45;&gt;Node7 -->
<g id="edge61" class="edge"><title>Node19&#45;&gt;Node7</title>
<path fill="none" stroke="midnightblue" d="M486.337,-401.308C553.437,-400.651 691.864,-394.25 801.231,-356 846.416,-340.197 862.143,-336.399 893.231,-300 916.151,-273.165 922.57,-258.717 916.231,-224 914.544,-214.757 911.056,-204.948 907.677,-196.855"/>
<polygon fill="midnightblue" stroke="midnightblue" points="910.863,-195.405 903.598,-187.693 904.468,-198.252 910.863,-195.405"/>
</g>
<!-- Node19&#45;&gt;Node18 -->
<g id="edge63" class="edge"><title>Node19&#45;&gt;Node18</title>
<path fill="none" stroke="midnightblue" d="M486.42,-397.81C584.073,-389.141 829.41,-361.552 878.231,-300 883.755,-293.036 883.186,-287.38 878.231,-280 873.509,-272.967 829.577,-256.438 798.685,-245.491"/>
<polygon fill="midnightblue" stroke="midnightblue" points="799.775,-242.165 789.18,-242.153 797.455,-248.769 799.775,-242.165"/>
</g>
<!-- Node20 -->
<g id="node20" class="node"><title>Node20</title>
<g id="a_node20"><a xlink:href="_frame_8hpp.html" target="_top" xlink:title="Declarações das funções e da estrutura do Frame, utilizado para salvar resultados parciais...">
<polygon fill="white" stroke="black" points="551.731,-336.5 551.731,-355.5 614.731,-355.5 614.731,-336.5 551.731,-336.5"/>
<text text-anchor="middle" x="583.231" y="-343.5" font-family="Helvetica,sans-Serif" font-size="10.00">Frame.hpp</text>
</a>
</g>
</g>
<!-- Node19&#45;&gt;Node20 -->
<g id="edge40" class="edge"><title>Node19&#45;&gt;Node20</title>
<path fill="none" stroke="midnightblue" d="M467.939,-392.444C490.586,-383.517 526.303,-369.439 551.983,-359.317"/>
<polygon fill="midnightblue" stroke="midnightblue" points="553.605,-362.44 561.625,-355.516 551.038,-355.927 553.605,-362.44"/>
</g>
<!-- Node22 -->
<g id="node22" class="node"><title>Node22</title>
<polygon fill="white" stroke="#bfbfbf" points="477.731,-224.5 477.731,-243.5 512.731,-243.5 512.731,-224.5 477.731,-224.5"/>
<text text-anchor="middle" x="495.231" y="-231.5" font-family="Helvetica,sans-Serif" font-size="10.00">map</text>
</g>
<!-- Node19&#45;&gt;Node22 -->
<g id="edge62" class="edge"><title>Node19&#45;&gt;Node22</title>
<path fill="none" stroke="midnightblue" d="M437.178,-392.273C416.876,-371.623 371.374,-318.603 396.231,-280 400.442,-273.461 440.242,-256.699 468.076,-245.581"/>
<polygon fill="midnightblue" stroke="midnightblue" points="469.692,-248.706 477.701,-241.77 467.115,-242.197 469.692,-248.706"/>
</g>
<!-- Node26 -->
<g id="node26" class="node"><title>Node26</title>
<g id="a_node26"><a xlink:href="_instance_8hpp.html" target="_top" xlink:title="Declaração da struct Instance. ">
<polygon fill="white" stroke="black" points="405.731,-280.5 405.731,-299.5 478.731,-299.5 478.731,-280.5 405.731,-280.5"/>
<text text-anchor="middle" x="442.231" y="-287.5" font-family="Helvetica,sans-Serif" font-size="10.00">Instance.hpp</text>
</a>
</g>
</g>
<!-- Node19&#45;&gt;Node26 -->
<g id="edge60" class="edge"><title>Node19&#45;&gt;Node26</title>
<path fill="none" stroke="midnightblue" d="M445.917,-392.368C445.272,-374.617 443.783,-333.666 442.908,-309.597"/>
<polygon fill="midnightblue" stroke="midnightblue" points="446.405,-309.458 442.544,-299.591 439.409,-309.712 446.405,-309.458"/>
</g>
<!-- Node20&#45;&gt;Node5 -->
<g id="edge50" class="edge"><title>Node20&#45;&gt;Node5</title>
<path fill="none" stroke="midnightblue" d="M551.688,-342.05C503.53,-336.82 415.244,-324.131 396.231,-300 385.397,-286.25 393.356,-266.392 401.852,-252.249"/>
<polygon fill="midnightblue" stroke="midnightblue" points="405.025,-253.795 407.596,-243.517 399.177,-249.948 405.025,-253.795"/>
</g>
<!-- Node20&#45;&gt;Node6 -->
<g id="edge41" class="edge"><title>Node20&#45;&gt;Node6</title>
<path fill="none" stroke="midnightblue" d="M615.042,-344.652C731.314,-343.101 1128.77,-335.243 1172.23,-300 1195.61,-281.044 1191.23,-265.098 1191.23,-235 1191.23,-235 1191.23,-235 1191.23,-121 1191.23,-48.7508 1112.11,-74.3632 1042.23,-56 895.29,-17.3847 712.427,-11.618 638.519,-10.9599"/>
<polygon fill="midnightblue" stroke="midnightblue" points="638.444,-7.45951 628.423,-10.8966 638.4,-14.4594 638.444,-7.45951"/>
</g>
<!-- Node20&#45;&gt;Node8 -->
<g id="edge43" class="edge"><title>Node20&#45;&gt;Node8</title>
<path fill="none" stroke="midnightblue" d="M615.051,-343.666C714.241,-338.65 1011.23,-316.803 1011.23,-235 1011.23,-235 1011.23,-235 1011.23,-177 1011.23,-144.948 1011.23,-107.643 1011.23,-85.7489"/>
<polygon fill="midnightblue" stroke="midnightblue" points="1014.73,-85.5577 1011.23,-75.5578 1007.73,-85.5578 1014.73,-85.5577"/>
</g>
<!-- Node20&#45;&gt;Node11 -->
<g id="edge47" class="edge"><title>Node20&#45;&gt;Node11</title>
<path fill="none" stroke="midnightblue" d="M551.681,-343.928C474.005,-339.327 274.66,-315.1 203.231,-188 154.241,-100.828 338.988,-76.1314 425.655,-69.4045"/>
<polygon fill="midnightblue" stroke="midnightblue" points="425.997,-72.889 435.716,-68.6703 425.488,-65.9075 425.997,-72.889"/>
</g>
<!-- Node20&#45;&gt;Node12 -->
<g id="edge48" class="edge"><title>Node20&#45;&gt;Node12</title>
<path fill="none" stroke="midnightblue" d="M586.124,-336.329C590.794,-323.191 600.938,-297.882 615.231,-280 644.812,-242.994 690.147,-210.643 717.322,-193.054"/>
<polygon fill="midnightblue" stroke="midnightblue" points="719.231,-195.988 725.792,-187.669 715.475,-190.08 719.231,-195.988"/>
</g>
<!-- Node20&#45;&gt;Node13 -->
<g id="edge49" class="edge"><title>Node20&#45;&gt;Node13</title>
<path fill="none" stroke="midnightblue" d="M583.976,-336.297C586.772,-303.633 596.68,-187.866 600.609,-141.957"/>
<polygon fill="midnightblue" stroke="midnightblue" points="604.105,-142.146 601.471,-131.884 597.131,-141.549 604.105,-142.146"/>
</g>
<!-- Node20&#45;&gt;Node18 -->
<g id="edge42" class="edge"><title>Node20&#45;&gt;Node18</title>
<path fill="none" stroke="midnightblue" d="M588.792,-336.138C597.916,-322.279 617.352,-295.467 640.231,-280 670.34,-259.645 710.65,-247.48 737.929,-241.026"/>
<polygon fill="midnightblue" stroke="midnightblue" points="738.71,-244.438 747.697,-238.828 737.173,-237.609 738.71,-244.438"/>
</g>
<!-- Node21 -->
<g id="node21" class="node"><title>Node21</title>
<polygon fill="white" stroke="#bfbfbf" points="649.731,-280.5 649.731,-299.5 690.731,-299.5 690.731,-280.5 649.731,-280.5"/>
<text text-anchor="middle" x="670.231" y="-287.5" font-family="Helvetica,sans-Serif" font-size="10.00">stack</text>
</g>
<!-- Node20&#45;&gt;Node21 -->
<g id="edge44" class="edge"><title>Node20&#45;&gt;Node21</title>
<path fill="none" stroke="midnightblue" d="M597.209,-336.324C610.781,-327.9 631.611,-314.971 647.556,-305.074"/>
<polygon fill="midnightblue" stroke="midnightblue" points="649.637,-307.902 656.288,-299.655 645.946,-301.954 649.637,-307.902"/>
</g>
<!-- Node20&#45;&gt;Node22 -->
<g id="edge45" class="edge"><title>Node20&#45;&gt;Node22</title>
<path fill="none" stroke="midnightblue" d="M570.998,-336.386C559.708,-328.009 542.966,-314.463 531.231,-300 519.444,-285.471 509.458,-266.543 503.015,-252.862"/>
<polygon fill="midnightblue" stroke="midnightblue" points="506.126,-251.246 498.808,-243.584 499.75,-254.136 506.126,-251.246"/>
</g>
<!-- Node23 -->
<g id="node23" class="node"><title>Node23</title>
<polygon fill="white" stroke="#bfbfbf" points="708.731,-280.5 708.731,-299.5 769.731,-299.5 769.731,-280.5 708.731,-280.5"/>
<text text-anchor="middle" x="739.231" y="-287.5" font-family="Helvetica,sans-Serif" font-size="10.00">Stack.hpp</text>
</g>
<!-- Node20&#45;&gt;Node23 -->
<g id="edge46" class="edge"><title>Node20&#45;&gt;Node23</title>
<path fill="none" stroke="midnightblue" d="M607.95,-336.444C634.08,-327.399 675.491,-313.064 704.808,-302.916"/>
<polygon fill="midnightblue" stroke="midnightblue" points="706.323,-306.095 714.628,-299.516 704.033,-299.48 706.323,-306.095"/>
</g>
<!-- Node24 -->
<g id="node24" class="node"><title>Node24</title>
<g id="a_node24"><a xlink:href="_instruction_8hpp.html" target="_top" xlink:title="Declarações das instruçoes referentes ao interpretador da JVM. ">
<polygon fill="white" stroke="black" points="787.731,-280.5 787.731,-299.5 868.731,-299.5 868.731,-280.5 787.731,-280.5"/>
<text text-anchor="middle" x="828.231" y="-287.5" font-family="Helvetica,sans-Serif" font-size="10.00">Instruction.hpp</text>
</a>
</g>
</g>
<!-- Node20&#45;&gt;Node24 -->
<g id="edge51" class="edge"><title>Node20&#45;&gt;Node24</title>
<path fill="none" stroke="midnightblue" d="M614.759,-338.051C656.507,-328.85 730.547,-312.53 779.516,-301.737"/>
<polygon fill="midnightblue" stroke="midnightblue" points="780.552,-305.093 789.564,-299.522 779.045,-298.257 780.552,-305.093"/>
</g>
<!-- Node20&#45;&gt;Node26 -->
<g id="edge55" class="edge"><title>Node20&#45;&gt;Node26</title>
<path fill="none" stroke="midnightblue" d="M555.801,-336.444C530.646,-327.557 493.874,-313.563 468.953,-303.451"/>
<polygon fill="midnightblue" stroke="midnightblue" points="469.968,-300.084 459.389,-299.516 467.305,-306.558 469.968,-300.084"/>
</g>
<!-- Node24&#45;&gt;Node18 -->
<g id="edge52" class="edge"><title>Node24&#45;&gt;Node18</title>
<path fill="none" stroke="midnightblue" d="M818.591,-280.324C809.722,-272.341 796.357,-260.313 785.623,-250.653"/>
<polygon fill="midnightblue" stroke="midnightblue" points="787.821,-247.922 778.047,-243.834 783.138,-253.125 787.821,-247.922"/>
</g>
<!-- Node25 -->
<g id="node25" class="node"><title>Node25</title>
<g id="a_node25"><a xlink:href="_instruction_impl_8hpp.html" target="_top" xlink:title="Declarações das funções do ClassLoader para salvar todos os bytes de .class corretamente. ">
<polygon fill="white" stroke="black" points="807.231,-224.5 807.231,-243.5 907.231,-243.5 907.231,-224.5 807.231,-224.5"/>
<text text-anchor="middle" x="857.231" y="-231.5" font-family="Helvetica,sans-Serif" font-size="10.00">InstructionImpl.hpp</text>
</a>
</g>
</g>
<!-- Node24&#45;&gt;Node25 -->
<g id="edge53" class="edge"><title>Node24&#45;&gt;Node25</title>
<path fill="none" stroke="midnightblue" d="M833.02,-280.083C836.99,-272.691 842.756,-261.953 847.666,-252.811"/>
<polygon fill="midnightblue" stroke="midnightblue" points="850.884,-254.217 852.532,-243.751 844.717,-250.905 850.884,-254.217"/>
</g>
<!-- Node25&#45;&gt;Node20 -->
<g id="edge54" class="edge"><title>Node25&#45;&gt;Node20</title>
<path fill="none" stroke="midnightblue" d="M864.654,-243.605C875.381,-257.11 892.45,-283.448 878.231,-300 846.095,-337.41 698.598,-344.065 625.101,-345.019"/>
<polygon fill="midnightblue" stroke="midnightblue" points="624.781,-341.522 614.816,-345.122 624.851,-348.522 624.781,-341.522"/>
</g>
<!-- Node26&#45;&gt;Node5 -->
<g id="edge58" class="edge"><title>Node26&#45;&gt;Node5</title>
<path fill="none" stroke="midnightblue" d="M437.608,-280.083C433.775,-272.691 428.207,-261.953 423.467,-252.811"/>
<polygon fill="midnightblue" stroke="midnightblue" points="426.479,-251.018 418.769,-243.751 420.265,-254.24 426.479,-251.018"/>
</g>
<!-- Node26&#45;&gt;Node18 -->
<g id="edge57" class="edge"><title>Node26&#45;&gt;Node18</title>
<path fill="none" stroke="midnightblue" d="M478.994,-282.91C543.871,-272.164 677.493,-250.03 737.671,-240.062"/>
<polygon fill="midnightblue" stroke="midnightblue" points="738.391,-243.491 747.685,-238.403 737.247,-236.585 738.391,-243.491"/>
</g>
<!-- Node26&#45;&gt;Node20 -->
<g id="edge59" class="edge"><title>Node26&#45;&gt;Node20</title>
<path fill="none" stroke="midnightblue" d="M469.549,-299.516C494.779,-308.427 531.767,-322.504 556.729,-332.638"/>
<polygon fill="midnightblue" stroke="midnightblue" points="555.399,-335.875 565.978,-336.444 558.062,-329.402 555.399,-335.875"/>
</g>
<!-- Node26&#45;&gt;Node22 -->
<g id="edge56" class="edge"><title>Node26&#45;&gt;Node22</title>
<path fill="none" stroke="midnightblue" d="M450.983,-280.083C458.701,-272.22 470.136,-260.569 479.448,-251.081"/>
<polygon fill="midnightblue" stroke="midnightblue" points="482.135,-253.34 486.642,-243.751 477.14,-248.436 482.135,-253.34"/>
</g>
<!-- Node27&#45;&gt;Node26 -->
<g id="edge65" class="edge"><title>Node27&#45;&gt;Node26</title>
<path fill="none" stroke="midnightblue" d="M319.365,-336.444C343.713,-327.438 382.238,-313.189 409.654,-303.049"/>
<polygon fill="midnightblue" stroke="midnightblue" points="411.04,-306.268 419.205,-299.516 408.612,-299.703 411.04,-306.268"/>
</g>
</g>
</svg>
