<?xml version="1.0" encoding="UTF-8" standalone="no"?>
<!DOCTYPE svg PUBLIC "-//W3C//DTD SVG 1.1//EN"
 "http://www.w3.org/Graphics/SVG/1.1/DTD/svg11.dtd">
<!-- Generated by graphviz version 2.38.0 (20140413.2041)
 -->
<!-- Title: Frame::Frame Pages: 1 -->
<svg width="516pt" height="1809pt"
 viewBox="0.00 0.00 516.00 1809.47" xmlns="http://www.w3.org/2000/svg" xmlns:xlink="http://www.w3.org/1999/xlink">
<g id="graph0" class="graph" transform="scale(1 1) rotate(0) translate(4 1805.47)">
<title>Frame::Frame</title>
<polygon fill="white" stroke="none" points="-4,4 -4,-1805.47 512,-1805.47 512,4 -4,4"/>
<!-- Node1 -->
<g id="node1" class="node"><title>Node1</title>
<polygon fill="#bfbfbf" stroke="black" points="0,-441.972 0,-460.972 78,-460.972 78,-441.972 0,-441.972"/>
<text text-anchor="middle" x="39" y="-448.972" font-family="Helvetica,sans-Serif" font-size="10.00">Frame::Frame</text>
</g>
<!-- Node2 -->
<g id="node2" class="node"><title>Node2</title>
<g id="a_node2"><a xlink:href="class_instruction.html#a145a172552303c9cbd8a5856e31a701b" target="_top" xlink:title="Instruction::init">
<polygon fill="white" stroke="red" points="114,-888.972 114,-907.972 195,-907.972 195,-888.972 114,-888.972"/>
<text text-anchor="middle" x="154.5" y="-895.972" font-family="Helvetica,sans-Serif" font-size="10.00">Instruction::init</text>
</a>
</g>
</g>
<!-- Node1&#45;&gt;Node2 -->
<g id="edge1" class="edge"><title>Node1&#45;&gt;Node2</title>
<path fill="none" stroke="midnightblue" d="M42.4762,-461.224C56.7823,-517.566 128.905,-801.61 148.552,-878.984"/>
<polygon fill="midnightblue" stroke="midnightblue" points="145.203,-880.017 151.056,-888.848 151.988,-878.294 145.203,-880.017"/>
</g>
<!-- Node22 -->
<g id="node22" class="node"><title>Node22</title>
<g id="a_node22"><a xlink:href="struct_cp_attribute_interface.html#a99cabbc15a0af5273a6d324dfbc78f41" target="_top" xlink:title="CpAttributeInterface\l::getUTF8">
<polygon fill="white" stroke="black" points="404,-9.47184 404,-39.4718 508,-39.4718 508,-9.47184 404,-9.47184"/>
<text text-anchor="start" x="412" y="-27.4718" font-family="Helvetica,sans-Serif" font-size="10.00">CpAttributeInterface</text>
<text text-anchor="middle" x="456" y="-16.4718" font-family="Helvetica,sans-Serif" font-size="10.00">::getUTF8</text>
</a>
</g>
</g>
<!-- Node1&#45;&gt;Node22 -->
<g id="edge52" class="edge"><title>Node1&#45;&gt;Node22</title>
<path fill="none" stroke="midnightblue" d="M40.6886,-441.951C45.1172,-388.632 74.6027,-125.845 231,-24.4718 278.984,6.63048 345.746,2.00377 393.885,-7.56898"/>
<polygon fill="midnightblue" stroke="midnightblue" points="393.353,-11.0339 403.861,-9.67569 394.8,-4.18493 393.353,-11.0339"/>
</g>
<!-- Node3 -->
<g id="node3" class="node"><title>Node3</title>
<g id="a_node3"><a xlink:href="class_instruction_impl.html#a167bb8f230879fe6470318755fa3bcc9" target="_top" xlink:title="InstructionImpl::nop">
<polygon fill="white" stroke="black" points="404.5,-1059.97 404.5,-1078.97 507.5,-1078.97 507.5,-1059.97 404.5,-1059.97"/>
<text text-anchor="middle" x="456" y="-1066.97" font-family="Helvetica,sans-Serif" font-size="10.00">InstructionImpl::nop</text>
</a>
</g>
</g>
<!-- Node2&#45;&gt;Node3 -->
<g id="edge2" class="edge"><title>Node2&#45;&gt;Node3</title>
<path fill="none" stroke="midnightblue" d="M155.601,-907.985C156.636,-996.597 166.653,-1675.67 231,-1734.47 275.95,-1775.54 322.238,-1774.64 368,-1734.47 417.976,-1690.61 448.036,-1195.52 453.93,-1089.41"/>
<polygon fill="midnightblue" stroke="midnightblue" points="457.439,-1089.34 454.49,-1079.17 450.449,-1088.96 457.439,-1089.34"/>
</g>
<!-- Node4 -->
<g id="node4" class="node"><title>Node4</title>
<g id="a_node4"><a xlink:href="class_instruction_impl.html#a9f1d9c6c5641f592c37652c38e47751d" target="_top" xlink:title="InstructionImpl::aconst_null">
<polygon fill="white" stroke="black" points="231,-1705.97 231,-1724.97 368,-1724.97 368,-1705.97 231,-1705.97"/>
<text text-anchor="middle" x="299.5" y="-1712.97" font-family="Helvetica,sans-Serif" font-size="10.00">InstructionImpl::aconst_null</text>
</a>
</g>
</g>
<!-- Node2&#45;&gt;Node4 -->
<g id="edge3" class="edge"><title>Node2&#45;&gt;Node4</title>
<path fill="none" stroke="midnightblue" d="M155.757,-907.985C158.16,-993.797 177.785,-1632.7 231,-1696.47 231.999,-1697.67 233.068,-1698.79 234.196,-1699.85"/>
<polygon fill="midnightblue" stroke="midnightblue" points="232.276,-1702.78 242.406,-1705.89 236.422,-1697.14 232.276,-1702.78"/>
</g>
<!-- Node5 -->
<g id="node5" class="node"><title>Node5</title>
<g id="a_node5"><a xlink:href="class_instruction_impl.html#ab36fd8503491518fcb80b92f7ee4003c" target="_top" xlink:title="InstructionImpl::iconst_m1">
<polygon fill="white" stroke="black" points="233.5,-1667.97 233.5,-1686.97 365.5,-1686.97 365.5,-1667.97 233.5,-1667.97"/>
<text text-anchor="middle" x="299.5" y="-1674.97" font-family="Helvetica,sans-Serif" font-size="10.00">InstructionImpl::iconst_m1</text>
</a>
</g>
</g>
<!-- Node2&#45;&gt;Node5 -->
<g id="edge4" class="edge"><title>Node2&#45;&gt;Node5</title>
<path fill="none" stroke="midnightblue" d="M155.807,-908.053C158.571,-991.816 180.26,-1597.95 231,-1658.47 232.002,-1659.67 233.073,-1660.79 234.203,-1661.85"/>
<polygon fill="midnightblue" stroke="midnightblue" points="232.29,-1664.78 242.425,-1667.87 236.428,-1659.14 232.29,-1664.78"/>
</g>
<!-- Node6 -->
<g id="node6" class="node"><title>Node6</title>
<g id="a_node6"><a xlink:href="class_instruction_impl.html#a51eaef20621f31549bd84147ad484e10" target="_top" xlink:title="InstructionImpl::iconst_0">
<polygon fill="white" stroke="black" points="237.5,-1629.97 237.5,-1648.97 361.5,-1648.97 361.5,-1629.97 237.5,-1629.97"/>
<text text-anchor="middle" x="299.5" y="-1636.97" font-family="Helvetica,sans-Serif" font-size="10.00">InstructionImpl::iconst_0</text>
</a>
</g>
</g>
<!-- Node2&#45;&gt;Node6 -->
<g id="edge5" class="edge"><title>Node2&#45;&gt;Node6</title>
<path fill="none" stroke="midnightblue" d="M155.86,-908.083C158.998,-989.577 182.725,-1563.19 231,-1620.47 232.005,-1621.66 233.079,-1622.79 234.212,-1623.84"/>
<polygon fill="midnightblue" stroke="midnightblue" points="232.307,-1626.78 242.446,-1629.85 236.436,-1621.13 232.307,-1626.78"/>
</g>
<!-- Node7 -->
<g id="node7" class="node"><title>Node7</title>
<g id="a_node7"><a xlink:href="class_instruction_impl.html#a78866e94cc43dba54dde53608cb18053" target="_top" xlink:title="InstructionImpl::iconst_1">
<polygon fill="white" stroke="black" points="237.5,-1591.97 237.5,-1610.97 361.5,-1610.97 361.5,-1591.97 237.5,-1591.97"/>
<text text-anchor="middle" x="299.5" y="-1598.97" font-family="Helvetica,sans-Serif" font-size="10.00">InstructionImpl::iconst_1</text>
</a>
</g>
</g>
<!-- Node2&#45;&gt;Node7 -->
<g id="edge6" class="edge"><title>Node2&#45;&gt;Node7</title>
<path fill="none" stroke="midnightblue" d="M155.93,-908.324C159.497,-988.22 185.226,-1528.48 231,-1582.47 232.009,-1583.66 233.085,-1584.78 234.221,-1585.83"/>
<polygon fill="midnightblue" stroke="midnightblue" points="232.324,-1588.78 242.469,-1591.83 236.444,-1583.12 232.324,-1588.78"/>
</g>
<!-- Node8 -->
<g id="node8" class="node"><title>Node8</title>
<g id="a_node8"><a xlink:href="class_instruction_impl.html#ae0e92a5c61dd98da5069d3ad1b03836b" target="_top" xlink:title="InstructionImpl::iconst_2">
<polygon fill="white" stroke="black" points="237.5,-1553.97 237.5,-1572.97 361.5,-1572.97 361.5,-1553.97 237.5,-1553.97"/>
<text text-anchor="middle" x="299.5" y="-1560.97" font-family="Helvetica,sans-Serif" font-size="10.00">InstructionImpl::iconst_2</text>
</a>
</g>
</g>
<!-- Node2&#45;&gt;Node8 -->
<g id="edge7" class="edge"><title>Node2&#45;&gt;Node8</title>
<path fill="none" stroke="midnightblue" d="M155.993,-908.261C159.962,-985.401 187.666,-1493.69 231,-1544.47 232.012,-1545.66 233.093,-1546.77 234.231,-1547.82"/>
<polygon fill="midnightblue" stroke="midnightblue" points="232.344,-1550.78 242.495,-1553.81 236.453,-1545.11 232.344,-1550.78"/>
</g>
<!-- Node9 -->
<g id="node9" class="node"><title>Node9</title>
<g id="a_node9"><a xlink:href="class_instruction_impl.html#ad19c769fa921833c202c1bce7ca84052" target="_top" xlink:title="InstructionImpl::iconst_3">
<polygon fill="white" stroke="black" points="237.5,-1515.97 237.5,-1534.97 361.5,-1534.97 361.5,-1515.97 237.5,-1515.97"/>
<text text-anchor="middle" x="299.5" y="-1522.97" font-family="Helvetica,sans-Serif" font-size="10.00">InstructionImpl::iconst_3</text>
</a>
</g>
</g>
<!-- Node2&#45;&gt;Node9 -->
<g id="edge8" class="edge"><title>Node2&#45;&gt;Node9</title>
<path fill="none" stroke="midnightblue" d="M155.296,-908.161C154.013,-978.58 149.535,-1411.69 231,-1506.47 232.042,-1507.68 233.154,-1508.82 234.326,-1509.89"/>
<polygon fill="midnightblue" stroke="midnightblue" points="232.669,-1513.01 242.841,-1515.97 236.736,-1507.31 232.669,-1513.01"/>
</g>
<!-- Node10 -->
<g id="node10" class="node"><title>Node10</title>
<g id="a_node10"><a xlink:href="class_instruction_impl.html#af530e67519244342f5e2700cc7f973ca" target="_top" xlink:title="InstructionImpl::iconst_4">
<polygon fill="white" stroke="black" points="237.5,-1477.97 237.5,-1496.97 361.5,-1496.97 361.5,-1477.97 237.5,-1477.97"/>
<text text-anchor="middle" x="299.5" y="-1484.97" font-family="Helvetica,sans-Serif" font-size="10.00">InstructionImpl::iconst_4</text>
</a>
</g>
</g>
<!-- Node2&#45;&gt;Node10 -->
<g id="edge9" class="edge"><title>Node2&#45;&gt;Node10</title>
<path fill="none" stroke="midnightblue" d="M155.386,-907.986C154.774,-975.337 154.349,-1380.02 231,-1468.47 232.046,-1469.68 233.163,-1470.81 234.34,-1471.88"/>
<polygon fill="midnightblue" stroke="midnightblue" points="232.695,-1475 242.874,-1477.94 236.748,-1469.29 232.695,-1475"/>
</g>
<!-- Node11 -->
<g id="node11" class="node"><title>Node11</title>
<g id="a_node11"><a xlink:href="class_instruction_impl.html#a2fa5a88bd16e98d38053a29d7472cd5e" target="_top" xlink:title="InstructionImpl::iconst_5">
<polygon fill="white" stroke="black" points="237.5,-1439.97 237.5,-1458.97 361.5,-1458.97 361.5,-1439.97 237.5,-1439.97"/>
<text text-anchor="middle" x="299.5" y="-1446.97" font-family="Helvetica,sans-Serif" font-size="10.00">InstructionImpl::iconst_5</text>
</a>
</g>
</g>
<!-- Node2&#45;&gt;Node11 -->
<g id="edge10" class="edge"><title>Node2&#45;&gt;Node11</title>
<path fill="none" stroke="midnightblue" d="M155.485,-908.178C155.583,-973.468 159.292,-1348.5 231,-1430.47 232.157,-1431.79 233.399,-1433.03 234.711,-1434.18"/>
<polygon fill="midnightblue" stroke="midnightblue" points="232.709,-1437.05 242.912,-1439.91 236.716,-1431.31 232.709,-1437.05"/>
</g>
<!-- Node12 -->
<g id="node12" class="node"><title>Node12</title>
<g id="a_node12"><a xlink:href="class_instruction_impl.html#a25630250f742a62db314bb14d57a1ca5" target="_top" xlink:title="InstructionImpl::lconst_0">
<polygon fill="white" stroke="black" points="237.5,-1401.97 237.5,-1420.97 361.5,-1420.97 361.5,-1401.97 237.5,-1401.97"/>
<text text-anchor="middle" x="299.5" y="-1408.97" font-family="Helvetica,sans-Serif" font-size="10.00">InstructionImpl::lconst_0</text>
</a>
</g>
</g>
<!-- Node2&#45;&gt;Node12 -->
<g id="edge11" class="edge"><title>Node2&#45;&gt;Node12</title>
<path fill="none" stroke="midnightblue" d="M155.603,-908.286C156.459,-971.133 164.19,-1316.92 231,-1392.47 232.164,-1393.79 233.412,-1395.02 234.73,-1396.16"/>
<polygon fill="midnightblue" stroke="midnightblue" points="232.743,-1399.04 242.955,-1401.87 236.733,-1393.29 232.743,-1399.04"/>
</g>
<!-- Node13 -->
<g id="node13" class="node"><title>Node13</title>
<g id="a_node13"><a xlink:href="class_instruction_impl.html#ab11e89546eecf872121a0e01001ed568" target="_top" xlink:title="InstructionImpl::lconst_1">
<polygon fill="white" stroke="black" points="237.5,-1363.97 237.5,-1382.97 361.5,-1382.97 361.5,-1363.97 237.5,-1363.97"/>
<text text-anchor="middle" x="299.5" y="-1370.97" font-family="Helvetica,sans-Serif" font-size="10.00">InstructionImpl::lconst_1</text>
</a>
</g>
</g>
<!-- Node2&#45;&gt;Node13 -->
<g id="edge12" class="edge"><title>Node2&#45;&gt;Node13</title>
<path fill="none" stroke="midnightblue" d="M155.74,-908.301C157.401,-968.331 169.042,-1285.27 231,-1354.47 232.172,-1355.78 233.427,-1357 234.752,-1358.14"/>
<polygon fill="midnightblue" stroke="midnightblue" points="232.783,-1361.04 243.005,-1363.82 236.751,-1355.27 232.783,-1361.04"/>
</g>
<!-- Node14 -->
<g id="node14" class="node"><title>Node14</title>
<g id="a_node14"><a xlink:href="class_instruction_impl.html#adc02f968c70b7a744c149c77fa409b30" target="_top" xlink:title="InstructionImpl::fconst_0">
<polygon fill="white" stroke="black" points="237,-1325.97 237,-1344.97 362,-1344.97 362,-1325.97 237,-1325.97"/>
<text text-anchor="middle" x="299.5" y="-1332.97" font-family="Helvetica,sans-Serif" font-size="10.00">InstructionImpl::fconst_0</text>
</a>
</g>
</g>
<!-- Node2&#45;&gt;Node14 -->
<g id="edge13" class="edge"><title>Node2&#45;&gt;Node14</title>
<path fill="none" stroke="midnightblue" d="M155.897,-908.215C158.406,-965.067 173.846,-1253.57 231,-1316.47 232.21,-1317.8 233.506,-1319.05 234.872,-1320.2"/>
<polygon fill="midnightblue" stroke="midnightblue" points="233.138,-1323.25 243.385,-1325.95 237.053,-1317.45 233.138,-1323.25"/>
</g>
<!-- Node15 -->
<g id="node15" class="node"><title>Node15</title>
<g id="a_node15"><a xlink:href="class_instruction_impl.html#a5f45236f5b87f0669b8deb0c42d3a224" target="_top" xlink:title="InstructionImpl::fconst_1">
<polygon fill="white" stroke="black" points="237,-1287.97 237,-1306.97 362,-1306.97 362,-1287.97 237,-1287.97"/>
<text text-anchor="middle" x="299.5" y="-1294.97" font-family="Helvetica,sans-Serif" font-size="10.00">InstructionImpl::fconst_1</text>
</a>
</g>
</g>
<!-- Node2&#45;&gt;Node15 -->
<g id="edge14" class="edge"><title>Node2&#45;&gt;Node15</title>
<path fill="none" stroke="midnightblue" d="M156.075,-908.023C159.473,-961.339 178.6,-1221.8 231,-1278.47 232.222,-1279.79 233.527,-1281.03 234.903,-1282.17"/>
<polygon fill="midnightblue" stroke="midnightblue" points="233.194,-1285.24 243.455,-1287.88 237.081,-1279.42 233.194,-1285.24"/>
</g>
<!-- Node16 -->
<g id="node16" class="node"><title>Node16</title>
<g id="a_node16"><a xlink:href="class_instruction_impl.html#a9a4ec1862322d0cdc900b5855dc9b37d" target="_top" xlink:title="InstructionImpl::fconst_2">
<polygon fill="white" stroke="black" points="237,-1249.97 237,-1268.97 362,-1268.97 362,-1249.97 237,-1249.97"/>
<text text-anchor="middle" x="299.5" y="-1256.97" font-family="Helvetica,sans-Serif" font-size="10.00">InstructionImpl::fconst_2</text>
</a>
</g>
</g>
<!-- Node2&#45;&gt;Node16 -->
<g id="edge15" class="edge"><title>Node2&#45;&gt;Node16</title>
<path fill="none" stroke="midnightblue" d="M156.304,-908.042C160.701,-958.169 183.405,-1190.08 231,-1240.47 232.236,-1241.78 233.554,-1243 234.94,-1244.14"/>
<polygon fill="midnightblue" stroke="midnightblue" points="233.262,-1247.23 243.538,-1249.8 237.113,-1241.38 233.262,-1247.23"/>
</g>
<!-- Node17 -->
<g id="node17" class="node"><title>Node17</title>
<g id="a_node17"><a xlink:href="class_instruction_impl.html#a696c0a12c12c3758719922f01358b070" target="_top" xlink:title="InstructionImpl::dconst_0">
<polygon fill="white" stroke="black" points="236,-1211.97 236,-1230.97 363,-1230.97 363,-1211.97 236,-1211.97"/>
<text text-anchor="middle" x="299.5" y="-1218.97" font-family="Helvetica,sans-Serif" font-size="10.00">InstructionImpl::dconst_0</text>
</a>
</g>
</g>
<!-- Node2&#45;&gt;Node17 -->
<g id="edge16" class="edge"><title>Node2&#45;&gt;Node17</title>
<path fill="none" stroke="midnightblue" d="M156.605,-908.2C162.133,-955.207 188.225,-1158.35 231,-1202.47 232.398,-1203.91 233.897,-1205.25 235.476,-1206.49"/>
<polygon fill="midnightblue" stroke="midnightblue" points="233.649,-1209.47 243.968,-1211.88 237.401,-1203.56 233.649,-1209.47"/>
</g>
<!-- Node18 -->
<g id="node18" class="node"><title>Node18</title>
<g id="a_node18"><a xlink:href="class_instruction_impl.html#a784752ba695c693cbee61fe18fbb61e8" target="_top" xlink:title="InstructionImpl::dconst_1">
<polygon fill="white" stroke="black" points="236,-1173.97 236,-1192.97 363,-1192.97 363,-1173.97 236,-1173.97"/>
<text text-anchor="middle" x="299.5" y="-1180.97" font-family="Helvetica,sans-Serif" font-size="10.00">InstructionImpl::dconst_1</text>
</a>
</g>
</g>
<!-- Node2&#45;&gt;Node18 -->
<g id="edge17" class="edge"><title>Node2&#45;&gt;Node18</title>
<path fill="none" stroke="midnightblue" d="M155.13,-908.085C154.206,-946.394 156.071,-1089.71 231,-1164.47 232.454,-1165.92 234.01,-1167.27 235.648,-1168.51"/>
<polygon fill="midnightblue" stroke="midnightblue" points="234.077,-1171.65 244.427,-1173.91 237.747,-1165.69 234.077,-1171.65"/>
</g>
<!-- Node19 -->
<g id="node19" class="node"><title>Node19</title>
<g id="a_node19"><a xlink:href="class_instruction_impl.html#a6d7ad21c1f766cddf753872f728a5532" target="_top" xlink:title="InstructionImpl::bipush">
<polygon fill="white" stroke="black" points="241.5,-1135.97 241.5,-1154.97 357.5,-1154.97 357.5,-1135.97 241.5,-1135.97"/>
<text text-anchor="middle" x="299.5" y="-1142.97" font-family="Helvetica,sans-Serif" font-size="10.00">InstructionImpl::bipush</text>
</a>
</g>
</g>
<!-- Node2&#45;&gt;Node19 -->
<g id="edge18" class="edge"><title>Node2&#45;&gt;Node19</title>
<path fill="none" stroke="midnightblue" d="M155.668,-908.382C156.82,-943.602 165.583,-1063.96 231,-1126.47 232.645,-1128.04 234.409,-1129.49 236.267,-1130.81"/>
<polygon fill="midnightblue" stroke="midnightblue" points="234.533,-1133.85 244.928,-1135.9 238.08,-1127.82 234.533,-1133.85"/>
</g>
<!-- Node20 -->
<g id="node20" class="node"><title>Node20</title>
<g id="a_node20"><a xlink:href="class_instruction_impl.html#a2c6934de13ab206f1ec5c87595f63c32" target="_top" xlink:title="InstructionImpl::sipush">
<polygon fill="white" stroke="black" points="241.5,-1097.97 241.5,-1116.97 357.5,-1116.97 357.5,-1097.97 241.5,-1097.97"/>
<text text-anchor="middle" x="299.5" y="-1104.97" font-family="Helvetica,sans-Serif" font-size="10.00">InstructionImpl::sipush</text>
</a>
</g>
</g>
<!-- Node2&#45;&gt;Node20 -->
<g id="edge19" class="edge"><title>Node2&#45;&gt;Node20</title>
<path fill="none" stroke="midnightblue" d="M156.373,-908.03C159.726,-939.016 174.573,-1037.62 231,-1088.47 232.727,-1090.03 234.571,-1091.46 236.507,-1092.77"/>
<polygon fill="midnightblue" stroke="midnightblue" points="235.057,-1095.97 245.489,-1097.82 238.485,-1089.87 235.057,-1095.97"/>
</g>
<!-- Node21 -->
<g id="node21" class="node"><title>Node21</title>
<g id="a_node21"><a xlink:href="class_instruction_impl.html#ade3ec2b9168ba2026599db6136e60d91" target="_top" xlink:title="InstructionImpl::ldc">
<polygon fill="white" stroke="black" points="249.5,-33.9718 249.5,-52.9718 349.5,-52.9718 349.5,-33.9718 249.5,-33.9718"/>
<text text-anchor="middle" x="299.5" y="-40.9718" font-family="Helvetica,sans-Serif" font-size="10.00">InstructionImpl::ldc</text>
</a>
</g>
</g>
<!-- Node2&#45;&gt;Node21 -->
<g id="edge20" class="edge"><title>Node2&#45;&gt;Node21</title>
<path fill="none" stroke="midnightblue" d="M155.718,-888.788C157.804,-800.022 175.357,-129.447 231,-62.4718 233.638,-59.2968 236.761,-56.6295 240.195,-54.3912"/>
<polygon fill="midnightblue" stroke="midnightblue" points="242.017,-57.3887 249.27,-49.666 238.784,-51.1799 242.017,-57.3887"/>
</g>
<!-- Node23 -->
<g id="node23" class="node"><title>Node23</title>
<g id="a_node23"><a xlink:href="class_instruction_impl.html#aeece337499bb42defdd5e3406c6f7d91" target="_top" xlink:title="InstructionImpl::ldc_w">
<polygon fill="white" stroke="black" points="243,-1059.97 243,-1078.97 356,-1078.97 356,-1059.97 243,-1059.97"/>
<text text-anchor="middle" x="299.5" y="-1066.97" font-family="Helvetica,sans-Serif" font-size="10.00">InstructionImpl::ldc_w</text>
</a>
</g>
</g>
<!-- Node2&#45;&gt;Node23 -->
<g id="edge22" class="edge"><title>Node2&#45;&gt;Node23</title>
<path fill="none" stroke="midnightblue" d="M157.406,-907.987C163.268,-934.731 183.587,-1011.17 231,-1050.47 233.05,-1052.17 235.243,-1053.72 237.539,-1055.13"/>
<polygon fill="midnightblue" stroke="midnightblue" points="236.33,-1058.44 246.823,-1059.91 239.535,-1052.22 236.33,-1058.44"/>
</g>
<!-- Node24 -->
<g id="node24" class="node"><title>Node24</title>
<g id="a_node24"><a xlink:href="class_instruction_impl.html#aa5f6887f392b6882d3786b8930c26d89" target="_top" xlink:title="InstructionImpl::ldc2_w">
<polygon fill="white" stroke="black" points="240.5,-983.972 240.5,-1002.97 358.5,-1002.97 358.5,-983.972 240.5,-983.972"/>
<text text-anchor="middle" x="299.5" y="-990.972" font-family="Helvetica,sans-Serif" font-size="10.00">InstructionImpl::ldc2_w</text>
</a>
</g>
</g>
<!-- Node2&#45;&gt;Node24 -->
<g id="edge24" class="edge"><title>Node2&#45;&gt;Node24</title>
<path fill="none" stroke="midnightblue" d="M162.464,-908.217C174.553,-924.417 201.019,-956.844 231,-974.472 234.66,-976.624 238.575,-978.542 242.609,-980.25"/>
<polygon fill="midnightblue" stroke="midnightblue" points="241.578,-983.602 252.17,-983.867 244.054,-977.055 241.578,-983.602"/>
</g>
<!-- Node25 -->
<g id="node25" class="node"><title>Node25</title>
<g id="a_node25"><a xlink:href="class_instruction_impl.html#aa2f51d824f0c32bfa73babc0fdd50384" target="_top" xlink:title="InstructionImpl::iload">
<polygon fill="white" stroke="black" points="246,-945.972 246,-964.972 353,-964.972 353,-945.972 246,-945.972"/>
<text text-anchor="middle" x="299.5" y="-952.972" font-family="Helvetica,sans-Serif" font-size="10.00">InstructionImpl::iload</text>
</a>
</g>
</g>
<!-- Node2&#45;&gt;Node25 -->
<g id="edge25" class="edge"><title>Node2&#45;&gt;Node25</title>
<path fill="none" stroke="midnightblue" d="M172.167,-908.03C187.19,-916.36 210.071,-928.346 231,-936.472 236.958,-938.785 243.311,-940.949 249.647,-942.927"/>
<polygon fill="midnightblue" stroke="midnightblue" points="248.946,-946.37 259.529,-945.877 250.948,-939.662 248.946,-946.37"/>
</g>
<!-- Node26 -->
<g id="node26" class="node"><title>Node26</title>
<g id="a_node26"><a xlink:href="class_instruction_impl.html#af9943aa1936eea33c3b485beff0a0d47" target="_top" xlink:title="InstructionImpl::lload">
<polygon fill="white" stroke="black" points="246,-907.972 246,-926.972 353,-926.972 353,-907.972 246,-907.972"/>
<text text-anchor="middle" x="299.5" y="-914.972" font-family="Helvetica,sans-Serif" font-size="10.00">InstructionImpl::lload</text>
</a>
</g>
</g>
<!-- Node2&#45;&gt;Node26 -->
<g id="edge26" class="edge"><title>Node2&#45;&gt;Node26</title>
<path fill="none" stroke="midnightblue" d="M195.333,-903.764C207.78,-905.418 221.831,-907.285 235.466,-909.097"/>
<polygon fill="midnightblue" stroke="midnightblue" points="235.403,-912.619 245.777,-910.467 236.325,-905.68 235.403,-912.619"/>
</g>
<!-- Node27 -->
<g id="node27" class="node"><title>Node27</title>
<g id="a_node27"><a xlink:href="class_instruction_impl.html#abbca347cb9b0f021641b5357335e3853" target="_top" xlink:title="InstructionImpl::fload">
<polygon fill="white" stroke="black" points="245.5,-869.972 245.5,-888.972 353.5,-888.972 353.5,-869.972 245.5,-869.972"/>
<text text-anchor="middle" x="299.5" y="-876.972" font-family="Helvetica,sans-Serif" font-size="10.00">InstructionImpl::fload</text>
</a>
</g>
</g>
<!-- Node2&#45;&gt;Node27 -->
<g id="edge27" class="edge"><title>Node2&#45;&gt;Node27</title>
<path fill="none" stroke="midnightblue" d="M195.333,-893.179C207.648,-891.543 221.534,-889.698 235.033,-887.905"/>
<polygon fill="midnightblue" stroke="midnightblue" points="235.795,-891.334 245.247,-886.547 234.873,-884.395 235.795,-891.334"/>
</g>
<!-- Node28 -->
<g id="node28" class="node"><title>Node28</title>
<g id="a_node28"><a xlink:href="class_instruction_impl.html#a1edb8bbe0765bd8ee3c8d6ff9cb16d8c" target="_top" xlink:title="InstructionImpl::dload">
<polygon fill="white" stroke="black" points="244.5,-831.972 244.5,-850.972 354.5,-850.972 354.5,-831.972 244.5,-831.972"/>
<text text-anchor="middle" x="299.5" y="-838.972" font-family="Helvetica,sans-Serif" font-size="10.00">InstructionImpl::dload</text>
</a>
</g>
</g>
<!-- Node2&#45;&gt;Node28 -->
<g id="edge28" class="edge"><title>Node2&#45;&gt;Node28</title>
<path fill="none" stroke="midnightblue" d="M172.167,-888.914C187.19,-880.584 210.071,-868.598 231,-860.472 236.958,-858.159 243.311,-855.995 249.647,-854.017"/>
<polygon fill="midnightblue" stroke="midnightblue" points="250.948,-857.281 259.529,-851.067 248.946,-850.574 250.948,-857.281"/>
</g>
<!-- Node29 -->
<g id="node29" class="node"><title>Node29</title>
<g id="a_node29"><a xlink:href="class_instruction_impl.html#acaf8450ee2d7ac32332ffc780d6d3fc2" target="_top" xlink:title="InstructionImpl::aload">
<polygon fill="white" stroke="black" points="244.5,-1021.97 244.5,-1040.97 354.5,-1040.97 354.5,-1021.97 244.5,-1021.97"/>
<text text-anchor="middle" x="299.5" y="-1028.97" font-family="Helvetica,sans-Serif" font-size="10.00">InstructionImpl::aload</text>
</a>
</g>
</g>
<!-- Node2&#45;&gt;Node29 -->
<g id="edge29" class="edge"><title>Node2&#45;&gt;Node29</title>
<path fill="none" stroke="midnightblue" d="M159.119,-908.104C167.891,-930.114 192.448,-984.357 231,-1012.47 233.656,-1014.41 236.502,-1016.15 239.47,-1017.71"/>
<polygon fill="midnightblue" stroke="midnightblue" points="238.112,-1020.94 248.664,-1021.89 241.007,-1014.56 238.112,-1020.94"/>
</g>
<!-- Node30 -->
<g id="node30" class="node"><title>Node30</title>
<g id="a_node30"><a xlink:href="class_instruction_impl.html#adea38c5f54c7ade26205d7d141eb1048" target="_top" xlink:title="InstructionImpl::iload_0">
<polygon fill="white" stroke="black" points="240.5,-793.972 240.5,-812.972 358.5,-812.972 358.5,-793.972 240.5,-793.972"/>
<text text-anchor="middle" x="299.5" y="-800.972" font-family="Helvetica,sans-Serif" font-size="10.00">InstructionImpl::iload_0</text>
</a>
</g>
</g>
<!-- Node2&#45;&gt;Node30 -->
<g id="edge31" class="edge"><title>Node2&#45;&gt;Node30</title>
<path fill="none" stroke="midnightblue" d="M162.464,-888.726C174.553,-872.527 201.019,-840.1 231,-822.472 234.66,-820.32 238.575,-818.402 242.609,-816.693"/>
<polygon fill="midnightblue" stroke="midnightblue" points="244.054,-819.889 252.17,-813.077 241.578,-813.341 244.054,-819.889"/>
</g>
<!-- Node31 -->
<g id="node31" class="node"><title>Node31</title>
<g id="a_node31"><a xlink:href="class_instruction_impl.html#a42f0e57938988a4058b4c74ba80b8c74" target="_top" xlink:title="InstructionImpl::iload_1">
<polygon fill="white" stroke="black" points="240.5,-755.972 240.5,-774.972 358.5,-774.972 358.5,-755.972 240.5,-755.972"/>
<text text-anchor="middle" x="299.5" y="-762.972" font-family="Helvetica,sans-Serif" font-size="10.00">InstructionImpl::iload_1</text>
</a>
</g>
</g>
<!-- Node2&#45;&gt;Node31 -->
<g id="edge32" class="edge"><title>Node2&#45;&gt;Node31</title>
<path fill="none" stroke="midnightblue" d="M159.119,-888.84C167.891,-866.83 192.448,-812.587 231,-784.472 233.656,-782.535 236.502,-780.795 239.47,-779.233"/>
<polygon fill="midnightblue" stroke="midnightblue" points="241.007,-782.379 248.664,-775.057 238.112,-776.005 241.007,-782.379"/>
</g>
<!-- Node32 -->
<g id="node32" class="node"><title>Node32</title>
<g id="a_node32"><a xlink:href="class_instruction_impl.html#a30c976088ff52adde499764173f72369" target="_top" xlink:title="InstructionImpl::iload_2">
<polygon fill="white" stroke="black" points="240.5,-717.972 240.5,-736.972 358.5,-736.972 358.5,-717.972 240.5,-717.972"/>
<text text-anchor="middle" x="299.5" y="-724.972" font-family="Helvetica,sans-Serif" font-size="10.00">InstructionImpl::iload_2</text>
</a>
</g>
</g>
<!-- Node2&#45;&gt;Node32 -->
<g id="edge33" class="edge"><title>Node2&#45;&gt;Node32</title>
<path fill="none" stroke="midnightblue" d="M157.406,-888.957C163.268,-862.212 183.587,-785.77 231,-746.472 233.05,-744.772 235.243,-743.225 237.539,-741.815"/>
<polygon fill="midnightblue" stroke="midnightblue" points="239.535,-744.724 246.823,-737.035 236.33,-738.501 239.535,-744.724"/>
</g>
<!-- Node33 -->
<g id="node33" class="node"><title>Node33</title>
<g id="a_node33"><a xlink:href="class_instruction_impl.html#a489974853597b8edb6e33e97640cc127" target="_top" xlink:title="InstructionImpl::iload_3">
<polygon fill="white" stroke="black" points="240.5,-679.972 240.5,-698.972 358.5,-698.972 358.5,-679.972 240.5,-679.972"/>
<text text-anchor="middle" x="299.5" y="-686.972" font-family="Helvetica,sans-Serif" font-size="10.00">InstructionImpl::iload_3</text>
</a>
</g>
</g>
<!-- Node2&#45;&gt;Node33 -->
<g id="edge34" class="edge"><title>Node2&#45;&gt;Node33</title>
<path fill="none" stroke="midnightblue" d="M156.373,-888.914C159.726,-857.928 174.573,-759.323 231,-708.472 232.727,-706.916 234.571,-705.486 236.507,-704.173"/>
<polygon fill="midnightblue" stroke="midnightblue" points="238.485,-707.076 245.489,-699.126 235.057,-700.973 238.485,-707.076"/>
</g>
<!-- Node34 -->
<g id="node34" class="node"><title>Node34</title>
<g id="a_node34"><a xlink:href="class_instruction_impl.html#a156698ed78d3a9884687468011c03483" target="_top" xlink:title="InstructionImpl::lload_0">
<polygon fill="white" stroke="black" points="240.5,-641.972 240.5,-660.972 358.5,-660.972 358.5,-641.972 240.5,-641.972"/>
<text text-anchor="middle" x="299.5" y="-648.972" font-family="Helvetica,sans-Serif" font-size="10.00">InstructionImpl::lload_0</text>
</a>
</g>
</g>
<!-- Node2&#45;&gt;Node34 -->
<g id="edge35" class="edge"><title>Node2&#45;&gt;Node34</title>
<path fill="none" stroke="midnightblue" d="M155.668,-888.562C156.82,-853.341 165.583,-732.984 231,-670.472 232.645,-668.9 234.409,-667.457 236.267,-666.131"/>
<polygon fill="midnightblue" stroke="midnightblue" points="238.08,-669.125 244.928,-661.041 234.533,-663.09 238.08,-669.125"/>
</g>
<!-- Node35 -->
<g id="node35" class="node"><title>Node35</title>
<g id="a_node35"><a xlink:href="class_instruction_impl.html#af5fd7b5e53a334678a73cc7ab25c1224" target="_top" xlink:title="InstructionImpl::lload_1">
<polygon fill="white" stroke="black" points="240.5,-603.972 240.5,-622.972 358.5,-622.972 358.5,-603.972 240.5,-603.972"/>
<text text-anchor="middle" x="299.5" y="-610.972" font-family="Helvetica,sans-Serif" font-size="10.00">InstructionImpl::lload_1</text>
</a>
</g>
</g>
<!-- Node2&#45;&gt;Node35 -->
<g id="edge36" class="edge"><title>Node2&#45;&gt;Node35</title>
<path fill="none" stroke="midnightblue" d="M155.13,-888.858C154.206,-850.549 156.071,-707.238 231,-632.472 232.454,-631.021 234.01,-629.678 235.648,-628.437"/>
<polygon fill="midnightblue" stroke="midnightblue" points="237.747,-631.254 244.427,-623.031 234.077,-625.294 237.747,-631.254"/>
</g>
<!-- Node36 -->
<g id="node36" class="node"><title>Node36</title>
<g id="a_node36"><a xlink:href="class_instruction_impl.html#a8db010030123db37e9d7c394d4e45f74" target="_top" xlink:title="InstructionImpl::lload_2">
<polygon fill="white" stroke="black" points="240.5,-565.972 240.5,-584.972 358.5,-584.972 358.5,-565.972 240.5,-565.972"/>
<text text-anchor="middle" x="299.5" y="-572.972" font-family="Helvetica,sans-Serif" font-size="10.00">InstructionImpl::lload_2</text>
</a>
</g>
</g>
<!-- Node2&#45;&gt;Node36 -->
<g id="edge37" class="edge"><title>Node2&#45;&gt;Node36</title>
<path fill="none" stroke="midnightblue" d="M156.605,-888.744C162.133,-841.737 188.225,-638.591 231,-594.472 232.398,-593.03 233.897,-591.694 235.476,-590.458"/>
<polygon fill="midnightblue" stroke="midnightblue" points="237.401,-593.383 243.968,-585.069 233.649,-587.473 237.401,-593.383"/>
</g>
<!-- Node37 -->
<g id="node37" class="node"><title>Node37</title>
<g id="a_node37"><a xlink:href="class_instruction_impl.html#ab86040544e0846841c1be9bca04d29f7" target="_top" xlink:title="InstructionImpl::lload_3">
<polygon fill="white" stroke="black" points="240.5,-527.972 240.5,-546.972 358.5,-546.972 358.5,-527.972 240.5,-527.972"/>
<text text-anchor="middle" x="299.5" y="-534.972" font-family="Helvetica,sans-Serif" font-size="10.00">InstructionImpl::lload_3</text>
</a>
</g>
</g>
<!-- Node2&#45;&gt;Node37 -->
<g id="edge38" class="edge"><title>Node2&#45;&gt;Node37</title>
<path fill="none" stroke="midnightblue" d="M156.304,-888.901C160.701,-838.774 183.405,-606.866 231,-556.472 232.236,-555.164 233.554,-553.943 234.94,-552.805"/>
<polygon fill="midnightblue" stroke="midnightblue" points="237.113,-555.564 243.538,-547.14 233.262,-549.719 237.113,-555.564"/>
</g>
<!-- Node38 -->
<g id="node38" class="node"><title>Node38</title>
<g id="a_node38"><a xlink:href="class_instruction_impl.html#ad207667ed60ada69001332f601f0e363" target="_top" xlink:title="InstructionImpl::fload_0">
<polygon fill="white" stroke="black" points="240,-489.972 240,-508.972 359,-508.972 359,-489.972 240,-489.972"/>
<text text-anchor="middle" x="299.5" y="-496.972" font-family="Helvetica,sans-Serif" font-size="10.00">InstructionImpl::fload_0</text>
</a>
</g>
</g>
<!-- Node2&#45;&gt;Node38 -->
<g id="edge39" class="edge"><title>Node2&#45;&gt;Node38</title>
<path fill="none" stroke="midnightblue" d="M156.075,-888.921C159.473,-835.604 178.6,-575.141 231,-518.472 232.222,-517.151 233.527,-515.919 234.903,-514.77"/>
<polygon fill="midnightblue" stroke="midnightblue" points="237.081,-517.525 243.455,-509.061 233.194,-511.703 237.081,-517.525"/>
</g>
<!-- Node39 -->
<g id="node39" class="node"><title>Node39</title>
<g id="a_node39"><a xlink:href="class_instruction_impl.html#ac9e63334d91bc0fa4f75fd682e1c9e0c" target="_top" xlink:title="InstructionImpl::fload_1">
<polygon fill="white" stroke="black" points="240,-451.972 240,-470.972 359,-470.972 359,-451.972 240,-451.972"/>
<text text-anchor="middle" x="299.5" y="-458.972" font-family="Helvetica,sans-Serif" font-size="10.00">InstructionImpl::fload_1</text>
</a>
</g>
</g>
<!-- Node2&#45;&gt;Node39 -->
<g id="edge40" class="edge"><title>Node2&#45;&gt;Node39</title>
<path fill="none" stroke="midnightblue" d="M155.897,-888.728C158.406,-831.877 173.846,-543.374 231,-480.472 232.21,-479.14 233.506,-477.899 234.872,-476.742"/>
<polygon fill="midnightblue" stroke="midnightblue" points="237.053,-479.492 243.385,-470.997 233.138,-473.69 237.053,-479.492"/>
</g>
<!-- Node40 -->
<g id="node40" class="node"><title>Node40</title>
<g id="a_node40"><a xlink:href="class_instruction_impl.html#ac37e26a21d3f2660a14c5ddd62ba6b4e" target="_top" xlink:title="InstructionImpl::fload_2">
<polygon fill="white" stroke="black" points="240,-413.972 240,-432.972 359,-432.972 359,-413.972 240,-413.972"/>
<text text-anchor="middle" x="299.5" y="-420.972" font-family="Helvetica,sans-Serif" font-size="10.00">InstructionImpl::fload_2</text>
</a>
</g>
</g>
<!-- Node2&#45;&gt;Node40 -->
<g id="edge41" class="edge"><title>Node2&#45;&gt;Node40</title>
<path fill="none" stroke="midnightblue" d="M155.74,-888.643C157.401,-828.612 169.042,-511.67 231,-442.472 232.172,-441.162 233.427,-439.94 234.752,-438.8"/>
<polygon fill="midnightblue" stroke="midnightblue" points="236.751,-441.672 243.005,-433.12 232.783,-435.906 236.751,-441.672"/>
</g>
<!-- Node41 -->
<g id="node41" class="node"><title>Node41</title>
<g id="a_node41"><a xlink:href="class_instruction_impl.html#a559d32105a7d3de553c94fbc81c56582" target="_top" xlink:title="InstructionImpl::fload_3">
<polygon fill="white" stroke="black" points="240,-375.972 240,-394.972 359,-394.972 359,-375.972 240,-375.972"/>
<text text-anchor="middle" x="299.5" y="-382.972" font-family="Helvetica,sans-Serif" font-size="10.00">InstructionImpl::fload_3</text>
</a>
</g>
</g>
<!-- Node2&#45;&gt;Node41 -->
<g id="edge42" class="edge"><title>Node2&#45;&gt;Node41</title>
<path fill="none" stroke="midnightblue" d="M155.603,-888.658C156.459,-825.811 164.19,-480.028 231,-404.472 232.164,-403.155 233.412,-401.926 234.73,-400.78"/>
<polygon fill="midnightblue" stroke="midnightblue" points="236.733,-403.651 242.955,-395.075 232.743,-397.899 236.733,-403.651"/>
</g>
<!-- Node42 -->
<g id="node42" class="node"><title>Node42</title>
<g id="a_node42"><a xlink:href="class_instruction_impl.html#ab985bf403ff92d0d95b72cbda7385908" target="_top" xlink:title="InstructionImpl::dload_0">
<polygon fill="white" stroke="black" points="239,-337.972 239,-356.972 360,-356.972 360,-337.972 239,-337.972"/>
<text text-anchor="middle" x="299.5" y="-344.972" font-family="Helvetica,sans-Serif" font-size="10.00">InstructionImpl::dload_0</text>
</a>
</g>
</g>
<!-- Node2&#45;&gt;Node42 -->
<g id="edge43" class="edge"><title>Node2&#45;&gt;Node42</title>
<path fill="none" stroke="midnightblue" d="M155.485,-888.765C155.583,-823.475 159.292,-448.446 231,-366.472 232.157,-365.149 233.399,-363.915 234.711,-362.764"/>
<polygon fill="midnightblue" stroke="midnightblue" points="236.716,-365.632 242.912,-357.038 232.709,-359.893 236.716,-365.632"/>
</g>
<!-- Node43 -->
<g id="node43" class="node"><title>Node43</title>
<g id="a_node43"><a xlink:href="class_instruction_impl.html#a19ed4af0c3c1c994605b36af9d615166" target="_top" xlink:title="InstructionImpl::dload_1">
<polygon fill="white" stroke="black" points="239,-299.972 239,-318.972 360,-318.972 360,-299.972 239,-299.972"/>
<text text-anchor="middle" x="299.5" y="-306.972" font-family="Helvetica,sans-Serif" font-size="10.00">InstructionImpl::dload_1</text>
</a>
</g>
</g>
<!-- Node2&#45;&gt;Node43 -->
<g id="edge44" class="edge"><title>Node2&#45;&gt;Node43</title>
<path fill="none" stroke="midnightblue" d="M155.386,-888.957C154.774,-821.607 154.349,-416.922 231,-328.472 232.046,-327.264 233.163,-326.131 234.34,-325.066"/>
<polygon fill="midnightblue" stroke="midnightblue" points="236.748,-327.649 242.874,-319.005 232.695,-321.942 236.748,-327.649"/>
</g>
<!-- Node44 -->
<g id="node44" class="node"><title>Node44</title>
<g id="a_node44"><a xlink:href="class_instruction_impl.html#a0be8b8aa6b50b99ba118e8a3f03e15df" target="_top" xlink:title="InstructionImpl::dload_2">
<polygon fill="white" stroke="black" points="239,-261.972 239,-280.972 360,-280.972 360,-261.972 239,-261.972"/>
<text text-anchor="middle" x="299.5" y="-268.972" font-family="Helvetica,sans-Serif" font-size="10.00">InstructionImpl::dload_2</text>
</a>
</g>
</g>
<!-- Node2&#45;&gt;Node44 -->
<g id="edge45" class="edge"><title>Node2&#45;&gt;Node44</title>
<path fill="none" stroke="midnightblue" d="M155.296,-888.783C154.013,-818.363 149.535,-385.254 231,-290.472 232.042,-289.26 233.154,-288.123 234.326,-287.055"/>
<polygon fill="midnightblue" stroke="midnightblue" points="236.736,-289.635 242.841,-280.976 232.669,-283.938 236.736,-289.635"/>
</g>
<!-- Node45 -->
<g id="node45" class="node"><title>Node45</title>
<g id="a_node45"><a xlink:href="class_instruction_impl.html#abe1a1b55ce20077c8cfb3bb7ac408d18" target="_top" xlink:title="InstructionImpl::dload_3">
<polygon fill="white" stroke="black" points="239,-223.972 239,-242.972 360,-242.972 360,-223.972 239,-223.972"/>
<text text-anchor="middle" x="299.5" y="-230.972" font-family="Helvetica,sans-Serif" font-size="10.00">InstructionImpl::dload_3</text>
</a>
</g>
</g>
<!-- Node2&#45;&gt;Node45 -->
<g id="edge46" class="edge"><title>Node2&#45;&gt;Node45</title>
<path fill="none" stroke="midnightblue" d="M155.993,-888.682C159.962,-811.543 187.666,-303.259 231,-252.472 232.012,-251.285 233.093,-250.17 234.231,-249.121"/>
<polygon fill="midnightblue" stroke="midnightblue" points="236.453,-251.834 242.495,-243.131 232.344,-246.166 236.453,-251.834"/>
</g>
<!-- Node46 -->
<g id="node46" class="node"><title>Node46</title>
<g id="a_node46"><a xlink:href="class_instruction_impl.html#a1c4efccd5cd7286ec5f091ac75281a97" target="_top" xlink:title="InstructionImpl::aload_0">
<polygon fill="white" stroke="black" points="239,-185.972 239,-204.972 360,-204.972 360,-185.972 239,-185.972"/>
<text text-anchor="middle" x="299.5" y="-192.972" font-family="Helvetica,sans-Serif" font-size="10.00">InstructionImpl::aload_0</text>
</a>
</g>
</g>
<!-- Node2&#45;&gt;Node46 -->
<g id="edge47" class="edge"><title>Node2&#45;&gt;Node46</title>
<path fill="none" stroke="midnightblue" d="M155.93,-888.62C159.497,-808.723 185.226,-268.467 231,-214.472 232.009,-213.282 233.085,-212.164 234.221,-211.113"/>
<polygon fill="midnightblue" stroke="midnightblue" points="236.444,-213.824 242.469,-205.109 232.324,-208.164 236.444,-213.824"/>
</g>
<!-- Node47 -->
<g id="node47" class="node"><title>Node47</title>
<g id="a_node47"><a xlink:href="class_instruction_impl.html#ae6fe2f4e86ce362133b9fcf5d0a87066" target="_top" xlink:title="InstructionImpl::aload_1">
<polygon fill="white" stroke="black" points="239,-147.972 239,-166.972 360,-166.972 360,-147.972 239,-147.972"/>
<text text-anchor="middle" x="299.5" y="-154.972" font-family="Helvetica,sans-Serif" font-size="10.00">InstructionImpl::aload_1</text>
</a>
</g>
</g>
<!-- Node2&#45;&gt;Node47 -->
<g id="edge48" class="edge"><title>Node2&#45;&gt;Node47</title>
<path fill="none" stroke="midnightblue" d="M155.86,-888.86C158.998,-807.367 182.725,-233.751 231,-176.472 232.005,-175.279 233.079,-174.158 234.212,-173.105"/>
<polygon fill="midnightblue" stroke="midnightblue" points="236.436,-175.815 242.446,-167.09 232.307,-170.162 236.436,-175.815"/>
</g>
<!-- Node48 -->
<g id="node48" class="node"><title>Node48</title>
<g id="a_node48"><a xlink:href="class_instruction_impl.html#a3879a6b11d8c8a65d720ae342310d82f" target="_top" xlink:title="InstructionImpl::aload_2">
<polygon fill="white" stroke="black" points="239,-109.972 239,-128.972 360,-128.972 360,-109.972 239,-109.972"/>
<text text-anchor="middle" x="299.5" y="-116.972" font-family="Helvetica,sans-Serif" font-size="10.00">InstructionImpl::aload_2</text>
</a>
</g>
</g>
<!-- Node2&#45;&gt;Node48 -->
<g id="edge49" class="edge"><title>Node2&#45;&gt;Node48</title>
<path fill="none" stroke="midnightblue" d="M155.807,-888.89C158.571,-805.127 180.26,-198.992 231,-138.472 232.002,-137.277 233.073,-136.153 234.203,-135.098"/>
<polygon fill="midnightblue" stroke="midnightblue" points="236.428,-137.807 242.425,-129.072 232.29,-132.16 236.428,-137.807"/>
</g>
<!-- Node49 -->
<g id="node49" class="node"><title>Node49</title>
<g id="a_node49"><a xlink:href="class_instruction_impl.html#ae9fd9c8b44b618bba0426eae10b14082" target="_top" xlink:title="InstructionImpl::aload_3">
<polygon fill="white" stroke="black" points="239,-71.9718 239,-90.9718 360,-90.9718 360,-71.9718 239,-71.9718"/>
<text text-anchor="middle" x="299.5" y="-78.9718" font-family="Helvetica,sans-Serif" font-size="10.00">InstructionImpl::aload_3</text>
</a>
</g>
</g>
<!-- Node2&#45;&gt;Node49 -->
<g id="edge50" class="edge"><title>Node2&#45;&gt;Node49</title>
<path fill="none" stroke="midnightblue" d="M155.757,-888.959C158.16,-803.147 177.785,-164.248 231,-100.472 231.999,-99.2742 233.068,-98.1488 234.196,-97.0915"/>
<polygon fill="midnightblue" stroke="midnightblue" points="236.422,-99.7991 242.406,-91.0563 232.276,-94.1589 236.422,-99.7991"/>
</g>
<!-- Node50 -->
<g id="node50" class="node"><title>Node50</title>
<g id="a_node50"><a xlink:href="class_instruction_impl.html#a23407267ca6c24df4b2138e5a5b40788" target="_top" xlink:title="InstructionImpl::iaload">
<polygon fill="white" stroke="black" points="243,-1781.97 243,-1800.97 356,-1800.97 356,-1781.97 243,-1781.97"/>
<text text-anchor="middle" x="299.5" y="-1788.97" font-family="Helvetica,sans-Serif" font-size="10.00">InstructionImpl::iaload</text>
</a>
</g>
</g>
<!-- Node2&#45;&gt;Node50 -->
<g id="edge51" class="edge"><title>Node2&#45;&gt;Node50</title>
<path fill="none" stroke="midnightblue" d="M155.716,-908.225C157.809,-999.09 175.614,-1695.8 231,-1767.47 233.814,-1771.11 237.224,-1774.2 241,-1776.83"/>
<polygon fill="midnightblue" stroke="midnightblue" points="239.345,-1779.91 249.76,-1781.85 242.828,-1773.84 239.345,-1779.91"/>
</g>
<!-- Node21&#45;&gt;Node22 -->
<g id="edge21" class="edge"><title>Node21&#45;&gt;Node22</title>
<path fill="none" stroke="midnightblue" d="M349.81,-37.4079C363.801,-35.6872 379.207,-33.7927 393.811,-31.9967"/>
<polygon fill="midnightblue" stroke="midnightblue" points="394.268,-35.467 403.766,-30.7725 393.413,-28.5193 394.268,-35.467"/>
</g>
<!-- Node23&#45;&gt;Node3 -->
<g id="edge23" class="edge"><title>Node23&#45;&gt;Node3</title>
<path fill="none" stroke="midnightblue" d="M356.278,-1069.47C368.568,-1069.47 381.646,-1069.47 394.126,-1069.47"/>
<polygon fill="midnightblue" stroke="midnightblue" points="394.438,-1072.97 404.438,-1069.47 394.438,-1065.97 394.438,-1072.97"/>
</g>
<!-- Node29&#45;&gt;Node3 -->
<g id="edge30" class="edge"><title>Node29&#45;&gt;Node3</title>
<path fill="none" stroke="midnightblue" d="M339.487,-1041.06C359.783,-1046.05 384.793,-1052.2 406.346,-1057.51"/>
<polygon fill="midnightblue" stroke="midnightblue" points="405.747,-1060.96 416.293,-1059.95 407.419,-1054.16 405.747,-1060.96"/>
</g>
</g>
</svg>
