<?xml version="1.0" encoding="UTF-8" standalone="no"?>
<!DOCTYPE svg PUBLIC "-//W3C//DTD SVG 1.1//EN"
 "http://www.w3.org/Graphics/SVG/1.1/DTD/svg11.dtd">
<!-- Generated by graphviz version 2.38.0 (20140413.2041)
 -->
<!-- Title: CpAttributeInterface::getUTF8 Pages: 1 -->
<svg width="784pt" height="812pt"
 viewBox="0.00 0.00 784.00 812.00" xmlns="http://www.w3.org/2000/svg" xmlns:xlink="http://www.w3.org/1999/xlink">
<g id="graph0" class="graph" transform="scale(1 1) rotate(0) translate(4 808)">
<title>CpAttributeInterface::getUTF8</title>
<polygon fill="white" stroke="none" points="-4,4 -4,-808 780,-808 780,4 -4,4"/>
<!-- Node1 -->
<g id="node1" class="node"><title>Node1</title>
<polygon fill="#bfbfbf" stroke="black" points="0,-387 0,-417 104,-417 104,-387 0,-387"/>
<text text-anchor="start" x="8" y="-405" font-family="Helvetica,sans-Serif" font-size="10.00">CpAttributeInterface</text>
<text text-anchor="middle" x="52" y="-394" font-family="Helvetica,sans-Serif" font-size="10.00">::getUTF8</text>
</g>
<!-- Node2 -->
<g id="node2" class="node"><title>Node2</title>
<g id="a_node2"><a xlink:href="class_constant_value.html#a99dd9b4165766a0347e126c580fa93d0" target="_top" xlink:title="ConstantValue::print">
<polygon fill="white" stroke="black" points="163.5,-784.5 163.5,-803.5 269.5,-803.5 269.5,-784.5 163.5,-784.5"/>
<text text-anchor="middle" x="216.5" y="-791.5" font-family="Helvetica,sans-Serif" font-size="10.00">ConstantValue::print</text>
</a>
</g>
</g>
<!-- Node1&#45;&gt;Node2 -->
<g id="edge1" class="edge"><title>Node1&#45;&gt;Node2</title>
<path fill="none" stroke="midnightblue" d="M55.7403,-427.282C64.3115,-501.907 92.8856,-719.181 140,-770 146.359,-776.859 154.666,-781.767 163.439,-785.277"/>
<polygon fill="midnightblue" stroke="midnightblue" points="59.2183,-426.89 54.6211,-417.344 52.2623,-427.673 59.2183,-426.89"/>
</g>
<!-- Node3 -->
<g id="node3" class="node"><title>Node3</title>
<g id="a_node3"><a xlink:href="class_code_attribute.html#a380eb04a01b0a0db351cf74443067ba4" target="_top" xlink:title="CodeAttribute::print">
<polygon fill="white" stroke="black" points="675,-531.5 675,-550.5 776,-550.5 776,-531.5 675,-531.5"/>
<text text-anchor="middle" x="725.5" y="-538.5" font-family="Helvetica,sans-Serif" font-size="10.00">CodeAttribute::print</text>
</a>
</g>
</g>
<!-- Node1&#45;&gt;Node3 -->
<g id="edge2" class="edge"><title>Node1&#45;&gt;Node3</title>
<path fill="none" stroke="midnightblue" d="M55.6631,-427.533C63.698,-499.033 90.2588,-698.527 140,-737 216.36,-796.062 525.588,-775.279 639,-699 693.607,-662.272 716.281,-578.753 722.565,-550.525"/>
<polygon fill="midnightblue" stroke="midnightblue" points="59.0996,-426.761 54.5319,-417.201 52.1411,-427.523 59.0996,-426.761"/>
</g>
<!-- Node4 -->
<g id="node4" class="node"><title>Node4</title>
<g id="a_node4"><a xlink:href="class_exception.html#a87cfd1bc8493cb4b22d9d92a07132779" target="_top" xlink:title="Exception::print">
<polygon fill="white" stroke="black" points="174,-708.5 174,-727.5 259,-727.5 259,-708.5 174,-708.5"/>
<text text-anchor="middle" x="216.5" y="-715.5" font-family="Helvetica,sans-Serif" font-size="10.00">Exception::print</text>
</a>
</g>
</g>
<!-- Node1&#45;&gt;Node4 -->
<g id="edge3" class="edge"><title>Node1&#45;&gt;Node4</title>
<path fill="none" stroke="midnightblue" d="M52.5514,-427.587C53.0088,-484.909 62.5093,-624.431 140,-699 149.058,-707.716 161.498,-712.607 173.669,-715.301"/>
<polygon fill="midnightblue" stroke="midnightblue" points="56.0516,-427.266 52.563,-417.262 49.0516,-427.258 56.0516,-427.266"/>
</g>
<!-- Node5 -->
<g id="node5" class="node"><title>Node5</title>
<g id="a_node5"><a xlink:href="class_source_file.html#ab60e06ebfcc9d1c9d0dda817cca0fc10" target="_top" xlink:title="SourceFile::print">
<polygon fill="white" stroke="black" points="172.5,-670.5 172.5,-689.5 260.5,-689.5 260.5,-670.5 172.5,-670.5"/>
<text text-anchor="middle" x="216.5" y="-677.5" font-family="Helvetica,sans-Serif" font-size="10.00">SourceFile::print</text>
</a>
</g>
</g>
<!-- Node1&#45;&gt;Node5 -->
<g id="edge4" class="edge"><title>Node1&#45;&gt;Node5</title>
<path fill="none" stroke="midnightblue" d="M53.8462,-427.519C56.9986,-479.447 71.7226,-597.821 140,-661 148.829,-669.17 160.645,-673.956 172.303,-676.723"/>
<polygon fill="midnightblue" stroke="midnightblue" points="57.3254,-427.02 53.3226,-417.21 50.3344,-427.375 57.3254,-427.02"/>
</g>
<!-- Node6 -->
<g id="node6" class="node"><title>Node6</title>
<g id="a_node6"><a xlink:href="class_attribute_info.html#ac167daa272a7ef9b9f11389d34e42165" target="_top" xlink:title="AttributeInfo::read">
<polygon fill="white" stroke="black" points="169,-632.5 169,-651.5 264,-651.5 264,-632.5 169,-632.5"/>
<text text-anchor="middle" x="216.5" y="-639.5" font-family="Helvetica,sans-Serif" font-size="10.00">AttributeInfo::read</text>
</a>
</g>
</g>
<!-- Node1&#45;&gt;Node6 -->
<g id="edge5" class="edge"><title>Node1&#45;&gt;Node6</title>
<path fill="none" stroke="midnightblue" d="M55.5218,-427.325C61.4986,-473.396 80.796,-570.954 140,-623 148.02,-630.05 158.279,-634.558 168.633,-637.422"/>
<polygon fill="midnightblue" stroke="midnightblue" points="58.9845,-426.803 54.3274,-417.287 52.0335,-427.631 58.9845,-426.803"/>
</g>
<!-- Node12 -->
<g id="node12" class="node"><title>Node12</title>
<g id="a_node12"><a xlink:href="class_attribute_info.html#ab9d036b005950e243e6375d49a533d58" target="_top" xlink:title="AttributeInfo::print">
<polygon fill="white" stroke="black" points="169,-594.5 169,-613.5 264,-613.5 264,-594.5 169,-594.5"/>
<text text-anchor="middle" x="216.5" y="-601.5" font-family="Helvetica,sans-Serif" font-size="10.00">AttributeInfo::print</text>
</a>
</g>
</g>
<!-- Node1&#45;&gt;Node12 -->
<g id="edge11" class="edge"><title>Node1&#45;&gt;Node12</title>
<path fill="none" stroke="midnightblue" d="M58.5203,-426.965C68.2945,-465.372 92.2756,-538.815 140,-580 148.226,-587.099 158.565,-592.102 168.929,-595.627"/>
<polygon fill="midnightblue" stroke="midnightblue" points="61.8905,-426.011 56.1323,-417.118 55.0876,-427.661 61.8905,-426.011"/>
</g>
<!-- Node13 -->
<g id="node13" class="node"><title>Node13</title>
<g id="a_node13"><a xlink:href="struct_frame.html#abe0b370087d05267cab997ecdc78c4bd" target="_top" xlink:title="Frame::Frame">
<polygon fill="white" stroke="black" points="686.5,-196.5 686.5,-215.5 764.5,-215.5 764.5,-196.5 686.5,-196.5"/>
<text text-anchor="middle" x="725.5" y="-203.5" font-family="Helvetica,sans-Serif" font-size="10.00">Frame::Frame</text>
</a>
</g>
</g>
<!-- Node1&#45;&gt;Node13 -->
<g id="edge12" class="edge"><title>Node1&#45;&gt;Node13</title>
<path fill="none" stroke="midnightblue" d="M56.6637,-376.82C66.6278,-312.229 96.4245,-143.454 140,-111 230.286,-43.7584 593.851,-161.087 697.058,-196.406"/>
<polygon fill="midnightblue" stroke="midnightblue" points="53.1684,-376.527 55.1347,-386.937 60.0898,-377.573 53.1684,-376.527"/>
</g>
<!-- Node14 -->
<g id="node14" class="node"><title>Node14</title>
<g id="a_node14"><a xlink:href="class_methods_area.html#ab8111f3fc9b55f1f8dbbbe0c1ca76d89" target="_top" xlink:title="MethodsArea::findMethodBy\lNameOrDeor">
<polygon fill="white" stroke="black" points="146.5,-153 146.5,-183 286.5,-183 286.5,-153 146.5,-153"/>
<text text-anchor="start" x="154.5" y="-171" font-family="Helvetica,sans-Serif" font-size="10.00">MethodsArea::findMethodBy</text>
<text text-anchor="middle" x="216.5" y="-160" font-family="Helvetica,sans-Serif" font-size="10.00">NameOrDeor</text>
</a>
</g>
</g>
<!-- Node1&#45;&gt;Node14 -->
<g id="edge13" class="edge"><title>Node1&#45;&gt;Node14</title>
<path fill="none" stroke="midnightblue" d="M57.231,-376.937C65.6333,-334.561 88.2752,-248.453 140,-198 146.26,-191.894 153.916,-186.986 161.925,-183.054"/>
<polygon fill="midnightblue" stroke="midnightblue" points="53.7552,-376.483 55.3507,-386.957 60.6352,-377.774 53.7552,-376.483"/>
</g>
<!-- Node15 -->
<g id="node15" class="node"><title>Node15</title>
<g id="a_node15"><a xlink:href="class_instruction_impl.html#a3d197a31eaa6bc79b6d882b0ac9f1a67" target="_top" xlink:title="InstructionImpl::invokevirtual">
<polygon fill="white" stroke="black" points="331,-202.5 331,-221.5 473,-221.5 473,-202.5 331,-202.5"/>
<text text-anchor="middle" x="402" y="-209.5" font-family="Helvetica,sans-Serif" font-size="10.00">InstructionImpl::invokevirtual</text>
</a>
</g>
</g>
<!-- Node1&#45;&gt;Node15 -->
<g id="edge23" class="edge"><title>Node1&#45;&gt;Node15</title>
<path fill="none" stroke="midnightblue" d="M57.6991,-376.905C66.4078,-338.198 89.0268,-264.865 140,-231 204.142,-188.386 297.766,-193.873 353.711,-202.446"/>
<polygon fill="midnightblue" stroke="midnightblue" points="54.2423,-376.335 55.5996,-386.843 61.0911,-377.782 54.2423,-376.335"/>
</g>
<!-- Node17 -->
<g id="node17" class="node"><title>Node17</title>
<g id="a_node17"><a xlink:href="struct_instance.html#aca86b4cbc971ace708021f8ef2c6ce43" target="_top" xlink:title="Instance::Instance">
<polygon fill="white" stroke="black" points="167.5,-430.5 167.5,-449.5 265.5,-449.5 265.5,-430.5 167.5,-430.5"/>
<text text-anchor="middle" x="216.5" y="-437.5" font-family="Helvetica,sans-Serif" font-size="10.00">Instance::Instance</text>
</a>
</g>
</g>
<!-- Node1&#45;&gt;Node17 -->
<g id="edge18" class="edge"><title>Node1&#45;&gt;Node17</title>
<path fill="none" stroke="midnightblue" d="M114.177,-416.306C134.4,-421.035 156.392,-426.178 174.704,-430.46"/>
<polygon fill="midnightblue" stroke="midnightblue" points="114.95,-412.892 104.416,-414.023 113.356,-419.709 114.95,-412.892"/>
</g>
<!-- Node18 -->
<g id="node18" class="node"><title>Node18</title>
<g id="a_node18"><a xlink:href="class_instruction_impl.html#ade3ec2b9168ba2026599db6136e60d91" target="_top" xlink:title="InstructionImpl::ldc">
<polygon fill="white" stroke="black" points="352,-139.5 352,-158.5 452,-158.5 452,-139.5 352,-139.5"/>
<text text-anchor="middle" x="402" y="-146.5" font-family="Helvetica,sans-Serif" font-size="10.00">InstructionImpl::ldc</text>
</a>
</g>
</g>
<!-- Node1&#45;&gt;Node18 -->
<g id="edge19" class="edge"><title>Node1&#45;&gt;Node18</title>
<path fill="none" stroke="midnightblue" d="M52.6272,-376.857C53.368,-323.203 63.6153,-197.921 140,-143 211.944,-91.2724 326.218,-122.05 376.213,-139.486"/>
<polygon fill="midnightblue" stroke="midnightblue" points="49.1272,-376.867 52.5909,-386.879 56.1272,-376.892 49.1272,-376.867"/>
</g>
<!-- Node19 -->
<g id="node19" class="node"><title>Node19</title>
<g id="a_node19"><a xlink:href="class_instruction_impl.html#ae794ec480c5cd8809d1215aa9442501b" target="_top" xlink:title="InstructionImpl::invokespecial">
<polygon fill="white" stroke="black" points="329,-474.5 329,-493.5 475,-493.5 475,-474.5 329,-474.5"/>
<text text-anchor="middle" x="402" y="-481.5" font-family="Helvetica,sans-Serif" font-size="10.00">InstructionImpl::invokespecial</text>
</a>
</g>
</g>
<!-- Node1&#45;&gt;Node19 -->
<g id="edge21" class="edge"><title>Node1&#45;&gt;Node19</title>
<path fill="none" stroke="midnightblue" d="M64.7204,-426.326C78.6342,-452.059 104.504,-491.213 140,-508 220.625,-546.131 330.786,-511.805 377.996,-493.621"/>
<polygon fill="midnightblue" stroke="midnightblue" points="67.6934,-424.457 59.978,-417.195 61.4813,-427.683 67.6934,-424.457"/>
</g>
<!-- Node20 -->
<g id="node20" class="node"><title>Node20</title>
<g id="a_node20"><a xlink:href="class_instruction_impl.html#af10750df1ad4bf72ac80445dbbec068b" target="_top" xlink:title="InstructionImpl::getstatic">
<polygon fill="white" stroke="black" points="339.5,-534.5 339.5,-553.5 464.5,-553.5 464.5,-534.5 339.5,-534.5"/>
<text text-anchor="middle" x="402" y="-541.5" font-family="Helvetica,sans-Serif" font-size="10.00">InstructionImpl::getstatic</text>
</a>
</g>
</g>
<!-- Node1&#45;&gt;Node20 -->
<g id="edge24" class="edge"><title>Node1&#45;&gt;Node20</title>
<path fill="none" stroke="midnightblue" d="M61.7759,-426.912C74.0224,-457.493 99.4145,-508.106 140,-531 206.781,-568.671 299.135,-562.27 354.195,-553.569"/>
<polygon fill="midnightblue" stroke="midnightblue" points="64.9694,-425.465 58.1237,-417.378 58.4326,-427.969 64.9694,-425.465"/>
</g>
<!-- Node21 -->
<g id="node21" class="node"><title>Node21</title>
<g id="a_node21"><a xlink:href="class_instruction_impl.html#aa95621b91e97134a4cb3c1c1e97fd31a" target="_top" xlink:title="InstructionImpl::getfield">
<polygon fill="white" stroke="black" points="342.5,-354.5 342.5,-373.5 461.5,-373.5 461.5,-354.5 342.5,-354.5"/>
<text text-anchor="middle" x="402" y="-361.5" font-family="Helvetica,sans-Serif" font-size="10.00">InstructionImpl::getfield</text>
</a>
</g>
</g>
<!-- Node1&#45;&gt;Node21 -->
<g id="edge26" class="edge"><title>Node1&#45;&gt;Node21</title>
<path fill="none" stroke="midnightblue" d="M114.359,-395.3C178.728,-388.271 279.166,-377.304 342.458,-370.392"/>
<polygon fill="midnightblue" stroke="midnightblue" points="113.91,-391.828 104.349,-396.393 114.669,-398.787 113.91,-391.828"/>
</g>
<!-- Node22 -->
<g id="node22" class="node"><title>Node22</title>
<g id="a_node22"><a xlink:href="class_instruction_impl.html#a1d155354287a5fa501cce5c39c341abc" target="_top" xlink:title="InstructionImpl::invokestatic">
<polygon fill="white" stroke="black" points="332,-392.5 332,-411.5 472,-411.5 472,-392.5 332,-392.5"/>
<text text-anchor="middle" x="402" y="-399.5" font-family="Helvetica,sans-Serif" font-size="10.00">InstructionImpl::invokestatic</text>
</a>
</g>
</g>
<!-- Node1&#45;&gt;Node22 -->
<g id="edge28" class="edge"><title>Node1&#45;&gt;Node22</title>
<path fill="none" stroke="midnightblue" d="M114.574,-402C175.415,-402 268.327,-402 331.716,-402"/>
<polygon fill="midnightblue" stroke="midnightblue" points="114.349,-398.5 104.349,-402 114.349,-405.5 114.349,-398.5"/>
</g>
<!-- Node23 -->
<g id="node23" class="node"><title>Node23</title>
<g id="a_node23"><a xlink:href="class_instruction_impl.html#a612a030680b27c4dc97e6feec3abd9d5" target="_top" xlink:title="InstructionImpl::new_obj">
<polygon fill="white" stroke="black" points="340.5,-316.5 340.5,-335.5 463.5,-335.5 463.5,-316.5 340.5,-316.5"/>
<text text-anchor="middle" x="402" y="-323.5" font-family="Helvetica,sans-Serif" font-size="10.00">InstructionImpl::new_obj</text>
</a>
</g>
</g>
<!-- Node1&#45;&gt;Node23 -->
<g id="edge30" class="edge"><title>Node1&#45;&gt;Node23</title>
<path fill="none" stroke="midnightblue" d="M103.902,-383.674C115.661,-379.821 128.189,-376.015 140,-373 207.808,-355.689 287.107,-342.365 340.346,-334.397"/>
<polygon fill="midnightblue" stroke="midnightblue" points="102.611,-380.415 94.2368,-386.906 104.831,-387.054 102.611,-380.415"/>
</g>
<!-- Node24 -->
<g id="node24" class="node"><title>Node24</title>
<g id="a_node24"><a xlink:href="class_instruction_impl.html#ad561779f75082ceffc29cb00219c4a8b" target="_top" xlink:title="InstructionImpl::putfield">
<polygon fill="white" stroke="black" points="342.5,-278.5 342.5,-297.5 461.5,-297.5 461.5,-278.5 342.5,-278.5"/>
<text text-anchor="middle" x="402" y="-285.5" font-family="Helvetica,sans-Serif" font-size="10.00">InstructionImpl::putfield</text>
</a>
</g>
</g>
<!-- Node1&#45;&gt;Node24 -->
<g id="edge32" class="edge"><title>Node1&#45;&gt;Node24</title>
<path fill="none" stroke="midnightblue" d="M77.3137,-379.927C93.8431,-366.103 116.842,-349.061 140,-339 205.847,-310.392 287.999,-297.721 342.353,-292.182"/>
<polygon fill="midnightblue" stroke="midnightblue" points="74.6034,-377.641 69.293,-386.809 79.1615,-382.953 74.6034,-377.641"/>
</g>
<!-- Node25 -->
<g id="node25" class="node"><title>Node25</title>
<g id="a_node25"><a xlink:href="class_instruction_impl.html#a87ff225e6ed77e1a956d3c6a572e5352" target="_top" xlink:title="InstructionImpl::invokeinterface">
<polygon fill="white" stroke="black" points="140,-240.5 140,-259.5 293,-259.5 293,-240.5 140,-240.5"/>
<text text-anchor="middle" x="216.5" y="-247.5" font-family="Helvetica,sans-Serif" font-size="10.00">InstructionImpl::invokeinterface</text>
</a>
</g>
</g>
<!-- Node1&#45;&gt;Node25 -->
<g id="edge34" class="edge"><title>Node1&#45;&gt;Node25</title>
<path fill="none" stroke="midnightblue" d="M63.4708,-377.595C77.0455,-348.771 103.392,-301.302 140,-274 148.49,-267.669 158.703,-262.975 168.834,-259.506"/>
<polygon fill="midnightblue" stroke="midnightblue" points="60.1698,-376.398 59.206,-386.949 66.5391,-379.302 60.1698,-376.398"/>
</g>
<!-- Node26 -->
<g id="node26" class="node"><title>Node26</title>
<g id="a_node26"><a xlink:href="class_interpreter.html#a9be1f0faf7df7c81dc180da22ea08fa5" target="_top" xlink:title="Interpreter::mainFinder">
<polygon fill="white" stroke="black" points="159,-0.5 159,-19.5 274,-19.5 274,-0.5 159,-0.5"/>
<text text-anchor="middle" x="216.5" y="-7.5" font-family="Helvetica,sans-Serif" font-size="10.00">Interpreter::mainFinder</text>
</a>
</g>
</g>
<!-- Node1&#45;&gt;Node26 -->
<g id="edge36" class="edge"><title>Node1&#45;&gt;Node26</title>
<path fill="none" stroke="midnightblue" d="M55.7403,-376.718C64.3115,-302.093 92.8856,-84.8195 140,-34 145.891,-27.6457 153.455,-22.9654 161.512,-19.52"/>
<polygon fill="midnightblue" stroke="midnightblue" points="52.2623,-376.327 54.6211,-386.656 59.2183,-377.11 52.2623,-376.327"/>
</g>
<!-- Node30 -->
<g id="node30" class="node"><title>Node30</title>
<g id="a_node30"><a xlink:href="class_interpreter.html#a16752843b70549dac6ed661365e95ae3" target="_top" xlink:title="Busca um metodo pelo seu descritor ou nome e o retorna. ">
<polygon fill="white" stroke="black" points="153,-469 153,-499 280,-499 280,-469 153,-469"/>
<text text-anchor="start" x="161" y="-487" font-family="Helvetica,sans-Serif" font-size="10.00">Interpreter::findMethodBy</text>
<text text-anchor="middle" x="216.5" y="-476" font-family="Helvetica,sans-Serif" font-size="10.00">NameOrDescriptor</text>
</a>
</g>
</g>
<!-- Node1&#45;&gt;Node30 -->
<g id="edge40" class="edge"><title>Node1&#45;&gt;Node30</title>
<path fill="none" stroke="midnightblue" d="M80.993,-423.035C97.5268,-434.758 119.23,-448.97 140,-459 147.585,-462.663 155.841,-465.999 164.019,-468.957"/>
<polygon fill="midnightblue" stroke="midnightblue" points="83.0094,-420.174 72.8504,-417.166 78.9167,-425.853 83.0094,-420.174"/>
</g>
<!-- Node31 -->
<g id="node31" class="node"><title>Node31</title>
<g id="a_node31"><a xlink:href="jvm_8cpp.html#a893044ba12149c5e0ed3b4a19474fc4a" target="_top" xlink:title="Chama o exibidor de ClassLoader. ">
<polygon fill="white" stroke="black" points="539.5,-38.5 539.5,-57.5 610.5,-57.5 610.5,-38.5 539.5,-38.5"/>
<text text-anchor="middle" x="575" y="-45.5" font-family="Helvetica,sans-Serif" font-size="10.00">classReader</text>
</a>
</g>
</g>
<!-- Node1&#45;&gt;Node31 -->
<g id="edge43" class="edge"><title>Node1&#45;&gt;Node31</title>
<path fill="none" stroke="midnightblue" d="M55.8898,-376.498C64.4397,-305.999 92.0571,-111.099 140,-72 200.601,-22.5788 447.526,-37.4478 539.372,-44.9029"/>
<polygon fill="midnightblue" stroke="midnightblue" points="52.3818,-376.359 54.6811,-386.701 59.3332,-377.183 52.3818,-376.359"/>
</g>
<!-- Node7 -->
<g id="node7" class="node"><title>Node7</title>
<g id="a_node7"><a xlink:href="class_class_loader.html#adac675675241b8c2892ebfbf5b902d33" target="_top" xlink:title="ClassLoader::setAttributes">
<polygon fill="white" stroke="black" points="335.5,-632.5 335.5,-651.5 468.5,-651.5 468.5,-632.5 335.5,-632.5"/>
<text text-anchor="middle" x="402" y="-639.5" font-family="Helvetica,sans-Serif" font-size="10.00">ClassLoader::setAttributes</text>
</a>
</g>
</g>
<!-- Node6&#45;&gt;Node7 -->
<g id="edge6" class="edge"><title>Node6&#45;&gt;Node7</title>
<path fill="none" stroke="midnightblue" d="M274.413,-642C293.686,-642 315.367,-642 335.268,-642"/>
<polygon fill="midnightblue" stroke="midnightblue" points="274.28,-638.5 264.28,-642 274.28,-645.5 274.28,-638.5"/>
</g>
<!-- Node8 -->
<g id="node8" class="node"><title>Node8</title>
<g id="a_node8"><a xlink:href="class_field_info.html#acb85db9ce893bc3e2617138fd46a8ad6" target="_top" xlink:title="FieldInfo::read">
<polygon fill="white" stroke="black" points="362.5,-594.5 362.5,-613.5 441.5,-613.5 441.5,-594.5 362.5,-594.5"/>
<text text-anchor="middle" x="402" y="-601.5" font-family="Helvetica,sans-Serif" font-size="10.00">FieldInfo::read</text>
</a>
</g>
</g>
<!-- Node6&#45;&gt;Node8 -->
<g id="edge7" class="edge"><title>Node6&#45;&gt;Node8</title>
<path fill="none" stroke="midnightblue" d="M273.722,-630.357C302.473,-624.403 336.728,-617.31 362.456,-611.982"/>
<polygon fill="midnightblue" stroke="midnightblue" points="272.887,-626.956 263.805,-632.411 274.307,-633.81 272.887,-626.956"/>
</g>
<!-- Node10 -->
<g id="node10" class="node"><title>Node10</title>
<g id="a_node10"><a xlink:href="struct_method_info.html#a96fbb8de441ef2af032c20d36d41eb7a" target="_top" xlink:title="Serve para preencher os valores de uma instância de MethodInfo. ">
<polygon fill="white" stroke="black" points="357,-670.5 357,-689.5 447,-689.5 447,-670.5 357,-670.5"/>
<text text-anchor="middle" x="402" y="-677.5" font-family="Helvetica,sans-Serif" font-size="10.00">MethodInfo::read</text>
</a>
</g>
</g>
<!-- Node6&#45;&gt;Node10 -->
<g id="edge9" class="edge"><title>Node6&#45;&gt;Node10</title>
<path fill="none" stroke="midnightblue" d="M273.79,-653.657C300.51,-659.19 331.973,-665.706 356.923,-670.872"/>
<polygon fill="midnightblue" stroke="midnightblue" points="274.307,-650.19 263.805,-651.589 272.887,-657.044 274.307,-650.19"/>
</g>
<!-- Node9 -->
<g id="node9" class="node"><title>Node9</title>
<g id="a_node9"><a xlink:href="class_class_loader.html#a3a544b1a25a445bbf4ce7e5d84a2a90a" target="_top" xlink:title="ClassLoader::setFields">
<polygon fill="white" stroke="black" points="516.5,-594.5 516.5,-613.5 633.5,-613.5 633.5,-594.5 516.5,-594.5"/>
<text text-anchor="middle" x="575" y="-601.5" font-family="Helvetica,sans-Serif" font-size="10.00">ClassLoader::setFields</text>
</a>
</g>
</g>
<!-- Node8&#45;&gt;Node9 -->
<g id="edge8" class="edge"><title>Node8&#45;&gt;Node9</title>
<path fill="none" stroke="midnightblue" d="M451.95,-604C471.988,-604 495.325,-604 516.195,-604"/>
<polygon fill="midnightblue" stroke="midnightblue" points="451.803,-600.5 441.803,-604 451.803,-607.5 451.803,-600.5"/>
</g>
<!-- Node11 -->
<g id="node11" class="node"><title>Node11</title>
<g id="a_node11"><a xlink:href="class_class_loader.html#ab47e37f5d359a067182c1a181e9db54e" target="_top" xlink:title="ClassLoader::setMethods">
<polygon fill="white" stroke="black" points="511,-670.5 511,-689.5 639,-689.5 639,-670.5 511,-670.5"/>
<text text-anchor="middle" x="575" y="-677.5" font-family="Helvetica,sans-Serif" font-size="10.00">ClassLoader::setMethods</text>
</a>
</g>
</g>
<!-- Node10&#45;&gt;Node11 -->
<g id="edge10" class="edge"><title>Node10&#45;&gt;Node11</title>
<path fill="none" stroke="midnightblue" d="M457.341,-680C474.333,-680 493.226,-680 510.774,-680"/>
<polygon fill="midnightblue" stroke="midnightblue" points="457.037,-676.5 447.037,-680 457.037,-683.5 457.037,-676.5"/>
</g>
<!-- Node14&#45;&gt;Node15 -->
<g id="edge14" class="edge"><title>Node14&#45;&gt;Node15</title>
<path fill="none" stroke="midnightblue" d="M290.051,-185.396C314.34,-191.221 340.509,-197.495 361.329,-202.488"/>
<polygon fill="midnightblue" stroke="midnightblue" points="290.678,-181.948 280.137,-183.019 289.045,-188.755 290.678,-181.948"/>
</g>
<!-- Node16 -->
<g id="node16" class="node"><title>Node16</title>
<g id="a_node16"><a xlink:href="class_instruction.html#a145a172552303c9cbd8a5856e31a701b" target="_top" xlink:title="Instruction::init">
<polygon fill="white" stroke="black" points="534.5,-316.5 534.5,-335.5 615.5,-335.5 615.5,-316.5 534.5,-316.5"/>
<text text-anchor="middle" x="575" y="-323.5" font-family="Helvetica,sans-Serif" font-size="10.00">Instruction::init</text>
</a>
</g>
</g>
<!-- Node15&#45;&gt;Node16 -->
<g id="edge15" class="edge"><title>Node15&#45;&gt;Node16</title>
<path fill="none" stroke="midnightblue" d="M450.936,-224.859C459.227,-227.949 467.563,-231.645 475,-236 513.685,-258.655 550.309,-298.304 565.993,-316.447"/>
<polygon fill="midnightblue" stroke="midnightblue" points="451.875,-221.48 441.28,-221.507 449.579,-228.093 451.875,-221.48"/>
</g>
<!-- Node16&#45;&gt;Node3 -->
<g id="edge16" class="edge"><title>Node16&#45;&gt;Node3</title>
<path fill="none" stroke="midnightblue" d="M588.411,-343.969C618.48,-387.503 694.461,-497.509 717.665,-531.104"/>
<polygon fill="midnightblue" stroke="midnightblue" points="591.135,-341.755 582.572,-335.516 585.376,-345.733 591.135,-341.755"/>
</g>
<!-- Node16&#45;&gt;Node13 -->
<g id="edge17" class="edge"><title>Node16&#45;&gt;Node13</title>
<path fill="none" stroke="midnightblue" d="M595.93,-309.895C627.258,-284.579 687.075,-236.242 712.542,-215.663"/>
<polygon fill="midnightblue" stroke="midnightblue" points="593.479,-307.375 587.901,-316.383 597.879,-312.82 593.479,-307.375"/>
</g>
<!-- Node18&#45;&gt;Node16 -->
<g id="edge20" class="edge"><title>Node18&#45;&gt;Node16</title>
<path fill="none" stroke="midnightblue" d="M432.145,-163.451C445.988,-171.121 462.252,-181.366 475,-193 518.162,-232.389 555.123,-292.94 568.577,-316.323"/>
<polygon fill="midnightblue" stroke="midnightblue" points="433.489,-160.201 423.021,-158.567 430.185,-166.372 433.489,-160.201"/>
</g>
<!-- Node19&#45;&gt;Node16 -->
<g id="edge22" class="edge"><title>Node19&#45;&gt;Node16</title>
<path fill="none" stroke="midnightblue" d="M422.226,-467.597C436.852,-455.019 457.393,-437.135 475,-421 508.368,-390.422 546.739,-352.903 564.306,-335.59"/>
<polygon fill="midnightblue" stroke="midnightblue" points="419.679,-465.171 414.366,-474.337 424.235,-470.485 419.679,-465.171"/>
</g>
<!-- Node20&#45;&gt;Node16 -->
<g id="edge25" class="edge"><title>Node20&#45;&gt;Node16</title>
<path fill="none" stroke="midnightblue" d="M436.166,-529.91C449.362,-523.153 463.993,-514.092 475,-503 527.33,-450.267 560.652,-364.218 570.749,-335.596"/>
<polygon fill="midnightblue" stroke="midnightblue" points="434.348,-526.901 426.882,-534.418 437.407,-533.198 434.348,-526.901"/>
</g>
<!-- Node21&#45;&gt;Node16 -->
<g id="edge27" class="edge"><title>Node21&#45;&gt;Node16</title>
<path fill="none" stroke="midnightblue" d="M455.969,-352.229C481.281,-346.604 511.064,-339.986 534.38,-334.805"/>
<polygon fill="midnightblue" stroke="midnightblue" points="455.153,-348.825 446.151,-354.411 456.672,-355.658 455.153,-348.825"/>
</g>
<!-- Node22&#45;&gt;Node16 -->
<g id="edge29" class="edge"><title>Node22&#45;&gt;Node16</title>
<path fill="none" stroke="midnightblue" d="M456.521,-389.574C462.832,-387.612 469.115,-385.42 475,-383 507.098,-369.798 541.575,-348.01 560.179,-335.543"/>
<polygon fill="midnightblue" stroke="midnightblue" points="455.248,-386.3 446.634,-392.468 457.214,-393.018 455.248,-386.3"/>
</g>
<!-- Node23&#45;&gt;Node16 -->
<g id="edge31" class="edge"><title>Node23&#45;&gt;Node16</title>
<path fill="none" stroke="midnightblue" d="M473.79,-326C494.44,-326 516.27,-326 534.265,-326"/>
<polygon fill="midnightblue" stroke="midnightblue" points="473.77,-322.5 463.77,-326 473.77,-329.5 473.77,-322.5"/>
</g>
<!-- Node24&#45;&gt;Node16 -->
<g id="edge33" class="edge"><title>Node24&#45;&gt;Node16</title>
<path fill="none" stroke="midnightblue" d="M455.969,-299.771C481.281,-305.396 511.064,-312.014 534.38,-317.195"/>
<polygon fill="midnightblue" stroke="midnightblue" points="456.672,-296.342 446.151,-297.589 455.153,-303.175 456.672,-296.342"/>
</g>
<!-- Node25&#45;&gt;Node16 -->
<g id="edge35" class="edge"><title>Node25&#45;&gt;Node16</title>
<path fill="none" stroke="midnightblue" d="M303.528,-246.848C354.428,-247.304 419.578,-251.976 475,-269 508.936,-279.424 543.816,-303.139 561.729,-316.461"/>
<polygon fill="midnightblue" stroke="midnightblue" points="303.231,-243.347 293.218,-246.812 303.206,-250.347 303.231,-243.347"/>
</g>
<!-- Node27 -->
<g id="node27" class="node"><title>Node27</title>
<g id="a_node27"><a xlink:href="class_interpreter.html#aaa34fcc8ece810597cd2fea359b65220" target="_top" xlink:title="Interpreter::execute">
<polygon fill="white" stroke="black" points="351.5,-0.5 351.5,-19.5 452.5,-19.5 452.5,-0.5 351.5,-0.5"/>
<text text-anchor="middle" x="402" y="-7.5" font-family="Helvetica,sans-Serif" font-size="10.00">Interpreter::execute</text>
</a>
</g>
</g>
<!-- Node26&#45;&gt;Node27 -->
<g id="edge37" class="edge"><title>Node26&#45;&gt;Node27</title>
<path fill="none" stroke="midnightblue" d="M284.106,-10C306.357,-10 330.747,-10 351.464,-10"/>
<polygon fill="midnightblue" stroke="midnightblue" points="284.053,-6.5001 274.053,-10 284.053,-13.5001 284.053,-6.5001"/>
</g>
<!-- Node28 -->
<g id="node28" class="node"><title>Node28</title>
<g id="a_node28"><a xlink:href="jvm_8cpp.html#a4f4a24852257f7259f906828eec5c11c" target="_top" xlink:title="Chama o interpretador para classloader. ">
<polygon fill="white" stroke="black" points="533,-0.5 533,-19.5 617,-19.5 617,-0.5 533,-0.5"/>
<text text-anchor="middle" x="575" y="-7.5" font-family="Helvetica,sans-Serif" font-size="10.00">classInterpreter</text>
</a>
</g>
</g>
<!-- Node27&#45;&gt;Node28 -->
<g id="edge38" class="edge"><title>Node27&#45;&gt;Node28</title>
<path fill="none" stroke="midnightblue" d="M462.986,-10C486.121,-10 512,-10 532.948,-10"/>
<polygon fill="midnightblue" stroke="midnightblue" points="462.92,-6.5001 452.92,-10 462.92,-13.5001 462.92,-6.5001"/>
</g>
<!-- Node29 -->
<g id="node29" class="node"><title>Node29</title>
<g id="a_node29"><a xlink:href="jvm_8cpp.html#a0ddf1224851353fc92bfbff6f499fa97" target="_top" xlink:title="Função main. ">
<polygon fill="white" stroke="black" points="706.5,-19.5 706.5,-38.5 744.5,-38.5 744.5,-19.5 706.5,-19.5"/>
<text text-anchor="middle" x="725.5" y="-26.5" font-family="Helvetica,sans-Serif" font-size="10.00">main</text>
</a>
</g>
</g>
<!-- Node28&#45;&gt;Node29 -->
<g id="edge39" class="edge"><title>Node28&#45;&gt;Node29</title>
<path fill="none" stroke="midnightblue" d="M627.574,-16.5986C654.878,-20.0921 686.708,-24.1647 706.231,-26.6625"/>
<polygon fill="midnightblue" stroke="midnightblue" points="627.729,-13.0901 617.366,-15.2926 626.84,-20.0335 627.729,-13.0901"/>
</g>
<!-- Node30&#45;&gt;Node19 -->
<g id="edge41" class="edge"><title>Node30&#45;&gt;Node19</title>
<path fill="none" stroke="midnightblue" d="M290.207,-484C302.925,-484 316.153,-484 328.856,-484"/>
<polygon fill="midnightblue" stroke="midnightblue" points="290.137,-480.5 280.137,-484 290.137,-487.5 290.137,-480.5"/>
</g>
<!-- Node30&#45;&gt;Node22 -->
<g id="edge42" class="edge"><title>Node30&#45;&gt;Node22</title>
<path fill="none" stroke="midnightblue" d="M276.531,-465.509C282.144,-463.435 287.71,-461.253 293,-459 326.744,-444.626 364.202,-423.649 384.945,-411.557"/>
<polygon fill="midnightblue" stroke="midnightblue" points="275.317,-462.226 267.081,-468.89 277.675,-468.816 275.317,-462.226"/>
</g>
<!-- Node31&#45;&gt;Node29 -->
<g id="edge44" class="edge"><title>Node31&#45;&gt;Node29</title>
<path fill="none" stroke="midnightblue" d="M620.996,-42.243C649.577,-38.5862 685.041,-34.0486 706.163,-31.3461"/>
<polygon fill="midnightblue" stroke="midnightblue" points="620.292,-38.8044 610.817,-43.5453 621.18,-45.7478 620.292,-38.8044"/>
</g>
</g>
</svg>
