<?xml version="1.0" encoding="UTF-8" standalone="no"?>
<!DOCTYPE svg PUBLIC "-//W3C//DTD SVG 1.1//EN"
 "http://www.w3.org/Graphics/SVG/1.1/DTD/svg11.dtd">
<!-- Generated by graphviz version 2.38.0 (20140413.2041)
 -->
<!-- Title: Frame Pages: 1 -->
<svg width="482pt" height="307pt"
 viewBox="0.00 0.00 481.50 307.00" xmlns="http://www.w3.org/2000/svg" xmlns:xlink="http://www.w3.org/1999/xlink">
<g id="graph0" class="graph" transform="scale(1 1) rotate(0) translate(4 303)">
<title>Frame</title>
<polygon fill="white" stroke="none" points="-4,4 -4,-303 477.5,-303 477.5,4 -4,4"/>
<!-- Node1 -->
<g id="node1" class="node"><title>Node1</title>
<polygon fill="#bfbfbf" stroke="black" points="275.5,-0.5 275.5,-19.5 319.5,-19.5 319.5,-0.5 275.5,-0.5"/>
<text text-anchor="middle" x="297.5" y="-7.5" font-family="Helvetica,sans-Serif" font-size="10.00">Frame</text>
</g>
<!-- Node2 -->
<g id="node2" class="node"><title>Node2</title>
<g id="a_node2"><a xlink:href="struct_method_info.html" target="_top" xlink:title="Tipo para as informações dos metodos que serçao armazenados no methodArea. ">
<polygon fill="white" stroke="black" points="269,-67.5 269,-86.5 334,-86.5 334,-67.5 269,-67.5"/>
<text text-anchor="middle" x="301.5" y="-74.5" font-family="Helvetica,sans-Serif" font-size="10.00">MethodInfo</text>
</a>
</g>
</g>
<!-- Node2&#45;&gt;Node1 -->
<g id="edge1" class="edge"><title>Node2&#45;&gt;Node1</title>
<path fill="none" stroke="#9a32cd" stroke-dasharray="5,2" d="M299.17,-56.8432C298.909,-54.2111 298.674,-51.5409 298.5,-49 297.814,-38.9923 297.59,-27.4722 297.521,-19.7639"/>
<polygon fill="#9a32cd" stroke="#9a32cd" points="295.718,-57.4691 300.31,-67.0171 302.674,-56.6895 295.718,-57.4691"/>
<text text-anchor="middle" x="339.5" y="-41" font-family="Helvetica,sans-Serif" font-size="10.00"> method_reference</text>
</g>
<!-- Node3 -->
<g id="node3" class="node"><title>Node3</title>
<g id="a_node3"><a xlink:href="class_attribute_info.html" target="_top" xlink:title="classe contém name_index e length(uint32) &#45; todos uint16; Há também uma union que tem como principio ...">
<polygon fill="white" stroke="black" points="227.5,-134.5 227.5,-153.5 297.5,-153.5 297.5,-134.5 227.5,-134.5"/>
<text text-anchor="middle" x="262.5" y="-141.5" font-family="Helvetica,sans-Serif" font-size="10.00">AttributeInfo</text>
</a>
</g>
</g>
<!-- Node3&#45;&gt;Node2 -->
<g id="edge2" class="edge"><title>Node3&#45;&gt;Node2</title>
<path fill="none" stroke="#9a32cd" stroke-dasharray="5,2" d="M280.006,-127.073C283.129,-123.642 286.135,-119.874 288.5,-116 294.168,-106.716 297.755,-94.636 299.693,-86.6152"/>
<polygon fill="#9a32cd" stroke="#9a32cd" points="277.327,-124.803 272.756,-134.361 282.29,-129.74 277.327,-124.803"/>
<text text-anchor="middle" x="316.5" y="-108" font-family="Helvetica,sans-Serif" font-size="10.00"> attributes</text>
</g>
<!-- Node11 -->
<g id="node11" class="node"><title>Node11</title>
<g id="a_node11"><a xlink:href="class_code_attribute.html" target="_top" xlink:title="classe Atributos que consiste em max_stacks, max_locals, code_length(uint32), ponteiro para code(uint...">
<polygon fill="white" stroke="black" points="165,-67.5 165,-86.5 242,-86.5 242,-67.5 165,-67.5"/>
<text text-anchor="middle" x="203.5" y="-74.5" font-family="Helvetica,sans-Serif" font-size="10.00">CodeAttribute</text>
</a>
</g>
</g>
<!-- Node3&#45;&gt;Node11 -->
<g id="edge11" class="edge"><title>Node3&#45;&gt;Node11</title>
<path fill="none" stroke="#9a32cd" stroke-dasharray="5,2" d="M217.763,-134.719C207.861,-130.72 198.531,-124.79 192.5,-116 186.361,-107.052 191.99,-94.6742 197.199,-86.5088"/>
<polygon fill="#9a32cd" stroke="#9a32cd" points="216.749,-138.071 227.344,-137.993 219.012,-131.447 216.749,-138.071"/>
<text text-anchor="middle" x="214.5" y="-108" font-family="Helvetica,sans-Serif" font-size="10.00"> attributes</text>
</g>
<!-- Node4 -->
<g id="node4" class="node"><title>Node4</title>
<g id="a_node4"><a xlink:href="class_inner_class.html" target="_top" xlink:title="classe contém class_length e ponteiro para inner_class_data &#45; todos uint16; Além disso contém metodos...">
<polygon fill="white" stroke="black" points="15.5,-201.5 15.5,-220.5 79.5,-220.5 79.5,-201.5 15.5,-201.5"/>
<text text-anchor="middle" x="47.5" y="-208.5" font-family="Helvetica,sans-Serif" font-size="10.00">InnerClass</text>
</a>
</g>
</g>
<!-- Node4&#45;&gt;Node3 -->
<g id="edge3" class="edge"><title>Node4&#45;&gt;Node3</title>
<path fill="none" stroke="#9a32cd" stroke-dasharray="5,2" d="M73.3858,-196.853C90.175,-188.757 112.716,-178.685 133.5,-172 164.648,-161.981 201.25,-154.731 227.493,-150.282"/>
<polygon fill="#9a32cd" stroke="#9a32cd" points="71.6571,-193.802 64.222,-201.35 74.7412,-200.086 71.6571,-193.802"/>
<text text-anchor="middle" x="160" y="-175" font-family="Helvetica,sans-Serif" font-size="10.00"> inner_class</text>
</g>
<!-- Node5 -->
<g id="node5" class="node"><title>Node5</title>
<g id="a_node5"><a xlink:href="class_inner_class_data.html" target="_top" xlink:title="classe contém inner_class_info_index, outer_class_info_index, inner_name_index e inner_class_access_f...">
<polygon fill="white" stroke="black" points="0,-274 0,-293 85,-293 85,-274 0,-274"/>
<text text-anchor="middle" x="42.5" y="-281" font-family="Helvetica,sans-Serif" font-size="10.00">InnerClassData</text>
</a>
</g>
</g>
<!-- Node5&#45;&gt;Node4 -->
<g id="edge4" class="edge"><title>Node5&#45;&gt;Node4</title>
<path fill="none" stroke="#9a32cd" stroke-dasharray="5,2" d="M43.8221,-263.858C44.8124,-249.895 46.1222,-231.426 46.8819,-220.715"/>
<polygon fill="#9a32cd" stroke="#9a32cd" points="40.3294,-263.633 43.1131,-273.855 47.3119,-264.128 40.3294,-263.633"/>
<text text-anchor="middle" x="84" y="-242" font-family="Helvetica,sans-Serif" font-size="10.00"> inner_class_data</text>
</g>
<!-- Node6 -->
<g id="node6" class="node"><title>Node6</title>
<g id="a_node6"><a xlink:href="class_number_table_attribute.html" target="_top" xlink:title="classe contém length e ponteiro para line_number_table&#45; todos uint16; Além contém métodos como leitor...">
<polygon fill="white" stroke="black" points="100.5,-201.5 100.5,-220.5 212.5,-220.5 212.5,-201.5 100.5,-201.5"/>
<text text-anchor="middle" x="156.5" y="-208.5" font-family="Helvetica,sans-Serif" font-size="10.00">NumberTableAttribute</text>
</a>
</g>
</g>
<!-- Node6&#45;&gt;Node3 -->
<g id="edge5" class="edge"><title>Node6&#45;&gt;Node3</title>
<path fill="none" stroke="#9a32cd" stroke-dasharray="5,2" d="M174.035,-194.898C183.09,-187.497 194.518,-178.748 205.5,-172 216.975,-164.949 230.582,-158.44 241.623,-153.581"/>
<polygon fill="#9a32cd" stroke="#9a32cd" points="171.599,-192.372 166.173,-201.472 176.09,-197.742 171.599,-192.372"/>
<text text-anchor="middle" x="232" y="-175" font-family="Helvetica,sans-Serif" font-size="10.00"> lineNumber</text>
</g>
<!-- Node7 -->
<g id="node7" class="node"><title>Node7</title>
<g id="a_node7"><a xlink:href="class_number_table_attribute__line_number.html" target="_top" xlink:title="classe contém strat_pc e lineNumber &#45; todos uint16; ">
<polygon fill="white" stroke="black" points="103.5,-268.5 103.5,-298.5 215.5,-298.5 215.5,-268.5 103.5,-268.5"/>
<text text-anchor="start" x="111.5" y="-286.5" font-family="Helvetica,sans-Serif" font-size="10.00">NumberTableAttribute</text>
<text text-anchor="middle" x="159.5" y="-275.5" font-family="Helvetica,sans-Serif" font-size="10.00">_lineNumber</text>
</a>
</g>
</g>
<!-- Node7&#45;&gt;Node6 -->
<g id="edge6" class="edge"><title>Node7&#45;&gt;Node6</title>
<path fill="none" stroke="#9a32cd" stroke-dasharray="5,2" d="M158.461,-258.091C157.913,-245.214 157.274,-230.197 156.878,-220.893"/>
<polygon fill="#9a32cd" stroke="#9a32cd" points="154.971,-258.391 158.893,-268.233 161.964,-258.093 154.971,-258.391"/>
<text text-anchor="middle" x="199.5" y="-242" font-family="Helvetica,sans-Serif" font-size="10.00"> line_number_table</text>
</g>
<!-- Node8 -->
<g id="node8" class="node"><title>Node8</title>
<g id="a_node8"><a xlink:href="class_source_file.html" target="_top" xlink:title="classe contém sourceFileIndex &#45; todos uint16; Além contém métodos como leitor e print; ...">
<polygon fill="white" stroke="black" points="231,-201.5 231,-220.5 294,-220.5 294,-201.5 231,-201.5"/>
<text text-anchor="middle" x="262.5" y="-208.5" font-family="Helvetica,sans-Serif" font-size="10.00">SourceFile</text>
</a>
</g>
</g>
<!-- Node8&#45;&gt;Node3 -->
<g id="edge7" class="edge"><title>Node8&#45;&gt;Node3</title>
<path fill="none" stroke="#9a32cd" stroke-dasharray="5,2" d="M262.5,-191.037C262.5,-178.67 262.5,-163.12 262.5,-153.627"/>
<polygon fill="#9a32cd" stroke="#9a32cd" points="259,-191.234 262.5,-201.234 266,-191.234 259,-191.234"/>
<text text-anchor="middle" x="287" y="-175" font-family="Helvetica,sans-Serif" font-size="10.00"> sourceFile</text>
</g>
<!-- Node9 -->
<g id="node9" class="node"><title>Node9</title>
<g id="a_node9"><a xlink:href="class_constant_value.html" target="_top" xlink:title="classe contém Além contém métodos como destrutor, leitor e print ">
<polygon fill="white" stroke="black" points="312,-201.5 312,-220.5 393,-220.5 393,-201.5 312,-201.5"/>
<text text-anchor="middle" x="352.5" y="-208.5" font-family="Helvetica,sans-Serif" font-size="10.00">ConstantValue</text>
</a>
</g>
</g>
<!-- Node9&#45;&gt;Node3 -->
<g id="edge8" class="edge"><title>Node9&#45;&gt;Node3</title>
<path fill="none" stroke="#9a32cd" stroke-dasharray="5,2" d="M338.702,-193.559C332.149,-186.38 323.919,-178.202 315.5,-172 305.523,-164.65 293.254,-158.258 283.034,-153.541"/>
<polygon fill="#9a32cd" stroke="#9a32cd" points="336.31,-196.14 345.534,-201.351 341.573,-191.525 336.31,-196.14"/>
<text text-anchor="middle" x="363.5" y="-175" font-family="Helvetica,sans-Serif" font-size="10.00"> constant_value</text>
</g>
<!-- Node10 -->
<g id="node10" class="node"><title>Node10</title>
<g id="a_node10"><a xlink:href="class_exception.html" target="_top" xlink:title="classe contém number_exceptions e exception_index_table &#45; todos uint16; Além contém métodos como dest...">
<polygon fill="white" stroke="black" points="413.5,-201.5 413.5,-220.5 473.5,-220.5 473.5,-201.5 413.5,-201.5"/>
<text text-anchor="middle" x="443.5" y="-208.5" font-family="Helvetica,sans-Serif" font-size="10.00">Exception</text>
</a>
</g>
</g>
<!-- Node10&#45;&gt;Node3 -->
<g id="edge9" class="edge"><title>Node10&#45;&gt;Node3</title>
<path fill="none" stroke="#9a32cd" stroke-dasharray="5,2" d="M429.687,-193.478C422.381,-185.793 412.799,-177.219 402.5,-172 369.379,-155.218 327.006,-148.833 297.595,-146.422"/>
<polygon fill="#9a32cd" stroke="#9a32cd" points="427.375,-196.143 436.649,-201.267 432.594,-191.478 427.375,-196.143"/>
<text text-anchor="middle" x="441.5" y="-175" font-family="Helvetica,sans-Serif" font-size="10.00"> exception</text>
</g>
<!-- Node11&#45;&gt;Node1 -->
<g id="edge14" class="edge"><title>Node11&#45;&gt;Node1</title>
<path fill="none" stroke="#9a32cd" stroke-dasharray="5,2" d="M213.649,-58.9359C218.607,-51.7254 225.103,-43.697 232.5,-38 245.182,-28.2322 261.905,-21.391 275.213,-17.039"/>
<polygon fill="#9a32cd" stroke="#9a32cd" points="210.678,-57.0847 208.238,-67.3948 216.575,-60.8567 210.678,-57.0847"/>
<text text-anchor="middle" x="263.5" y="-41" font-family="Helvetica,sans-Serif" font-size="10.00"> method_code</text>
</g>
<!-- Node11&#45;&gt;Node3 -->
<g id="edge10" class="edge"><title>Node11&#45;&gt;Node3</title>
<path fill="none" stroke="#9a32cd" stroke-dasharray="5,2" d="M226.242,-92.2971C231.276,-96.0637 236.343,-100.379 240.5,-105 248.555,-113.954 255.048,-126.331 258.838,-134.494"/>
<polygon fill="#9a32cd" stroke="#9a32cd" points="228.17,-89.3746 217.967,-86.5201 224.163,-95.1143 228.17,-89.3746"/>
<text text-anchor="middle" x="261" y="-108" font-family="Helvetica,sans-Serif" font-size="10.00"> code</text>
</g>
<!-- Node12 -->
<g id="node12" class="node"><title>Node12</title>
<g id="a_node12"><a xlink:href="class_code_exception.html" target="_top" xlink:title="classe contém start_pc, end_pc, handler_pc e catch_type &#45; todos uint16; ">
<polygon fill="white" stroke="black" points="33,-134.5 33,-153.5 116,-153.5 116,-134.5 33,-134.5"/>
<text text-anchor="middle" x="74.5" y="-141.5" font-family="Helvetica,sans-Serif" font-size="10.00">CodeException</text>
</a>
</g>
</g>
<!-- Node12&#45;&gt;Node11 -->
<g id="edge12" class="edge"><title>Node12&#45;&gt;Node11</title>
<path fill="none" stroke="#9a32cd" stroke-dasharray="5,2" d="M77.5196,-124.297C79.5384,-117.345 82.9014,-109.952 88.5,-105 109.314,-86.5889 140.313,-80.1035 164.883,-78.0773"/>
<polygon fill="#9a32cd" stroke="#9a32cd" points="74.018,-123.931 75.3258,-134.445 80.8599,-125.41 74.018,-123.931"/>
<text text-anchor="middle" x="137.5" y="-108" font-family="Helvetica,sans-Serif" font-size="10.00"> code_exception_table</text>
</g>
<!-- Node13 -->
<g id="node13" class="node"><title>Node13</title>
<g id="a_node13"><a xlink:href="class_instruction.html" target="_top" xlink:title="Determina a instrução de acordo com o interpretador;. ">
<polygon fill="white" stroke="black" points="371.5,-67.5 371.5,-86.5 433.5,-86.5 433.5,-67.5 371.5,-67.5"/>
<text text-anchor="middle" x="402.5" y="-74.5" font-family="Helvetica,sans-Serif" font-size="10.00">Instruction</text>
</a>
</g>
</g>
<!-- Node13&#45;&gt;Node1 -->
<g id="edge13" class="edge"><title>Node13&#45;&gt;Node1</title>
<path fill="none" stroke="#9a32cd" stroke-dasharray="5,2" d="M395.311,-57.6779C391.77,-50.6807 386.871,-43.1545 380.5,-38 362.948,-23.7987 337.71,-16.9821 319.68,-13.7647"/>
<polygon fill="#9a32cd" stroke="#9a32cd" points="392.286,-59.4903 399.539,-67.2131 398.685,-56.6527 392.286,-59.4903"/>
<text text-anchor="middle" x="417.5" y="-41" font-family="Helvetica,sans-Serif" font-size="10.00"> instructions</text>
</g>
</g>
</svg>
