<?xml version="1.0" encoding="UTF-8" standalone="no"?>
<!DOCTYPE svg PUBLIC "-//W3C//DTD SVG 1.1//EN"
 "http://www.w3.org/Graphics/SVG/1.1/DTD/svg11.dtd">
<!-- Generated by graphviz version 2.38.0 (20140413.2041)
 -->
<!-- Title: MethodInfo::read Pages: 1 -->
<svg width="384pt" height="78pt"
 viewBox="0.00 0.00 384.00 77.50" xmlns="http://www.w3.org/2000/svg" xmlns:xlink="http://www.w3.org/1999/xlink">
<g id="graph0" class="graph" transform="scale(1 1) rotate(0) translate(4 73.5)">
<title>MethodInfo::read</title>
<polygon fill="white" stroke="none" points="-4,4 -4,-73.5 380,-73.5 380,4 -4,4"/>
<!-- Node1 -->
<g id="node1" class="node"><title>Node1</title>
<polygon fill="#bfbfbf" stroke="black" points="0,-31 0,-50 90,-50 90,-31 0,-31"/>
<text text-anchor="middle" x="45" y="-38" font-family="Helvetica,sans-Serif" font-size="10.00">MethodInfo::read</text>
</g>
<!-- Node2 -->
<g id="node2" class="node"><title>Node2</title>
<g id="a_node2"><a xlink:href="class_byte_reader.html#ae570748805994596f51ae033183935d7" target="_top" xlink:title="ByteReader::byteCatch">
<polygon fill="white" stroke="black" points="257,-50 257,-69 376,-69 376,-50 257,-50"/>
<text text-anchor="middle" x="316.5" y="-57" font-family="Helvetica,sans-Serif" font-size="10.00">ByteReader::byteCatch</text>
</a>
</g>
</g>
<!-- Node1&#45;&gt;Node2 -->
<g id="edge1" class="edge"><title>Node1&#45;&gt;Node2</title>
<path fill="none" stroke="midnightblue" d="M90.2007,-43.6162C132.582,-46.6041 197.206,-51.1602 246.391,-54.6277"/>
<polygon fill="midnightblue" stroke="midnightblue" points="246.417,-58.1382 256.638,-55.3502 246.909,-51.1555 246.417,-58.1382"/>
</g>
<!-- Node3 -->
<g id="node3" class="node"><title>Node3</title>
<g id="a_node3"><a xlink:href="class_attribute_info.html#ac167daa272a7ef9b9f11389d34e42165" target="_top" xlink:title="AttributeInfo::read">
<polygon fill="white" stroke="black" points="126,-12 126,-31 221,-31 221,-12 126,-12"/>
<text text-anchor="middle" x="173.5" y="-19" font-family="Helvetica,sans-Serif" font-size="10.00">AttributeInfo::read</text>
</a>
</g>
</g>
<!-- Node1&#45;&gt;Node3 -->
<g id="edge2" class="edge"><title>Node1&#45;&gt;Node3</title>
<path fill="none" stroke="midnightblue" d="M90.2436,-33.8547C98.5395,-32.6087 107.316,-31.2904 115.926,-29.9972"/>
<polygon fill="midnightblue" stroke="midnightblue" points="116.549,-33.4431 125.918,-28.4965 115.509,-26.5207 116.549,-33.4431"/>
</g>
<!-- Node3&#45;&gt;Node2 -->
<g id="edge3" class="edge"><title>Node3&#45;&gt;Node2</title>
<path fill="none" stroke="midnightblue" d="M210.08,-31.089C228.282,-35.9944 250.638,-42.0196 270.072,-47.2571"/>
<polygon fill="midnightblue" stroke="midnightblue" points="269.365,-50.6912 279.931,-49.9141 271.186,-43.9324 269.365,-50.6912"/>
</g>
<!-- Node4 -->
<g id="node4" class="node"><title>Node4</title>
<g id="a_node4"><a xlink:href="struct_cp_attribute_interface.html#a99cabbc15a0af5273a6d324dfbc78f41" target="_top" xlink:title="CpAttributeInterface\l::getUTF8">
<polygon fill="white" stroke="black" points="264.5,-0.5 264.5,-30.5 368.5,-30.5 368.5,-0.5 264.5,-0.5"/>
<text text-anchor="start" x="272.5" y="-18.5" font-family="Helvetica,sans-Serif" font-size="10.00">CpAttributeInterface</text>
<text text-anchor="middle" x="316.5" y="-7.5" font-family="Helvetica,sans-Serif" font-size="10.00">::getUTF8</text>
</a>
</g>
</g>
<!-- Node3&#45;&gt;Node4 -->
<g id="edge4" class="edge"><title>Node3&#45;&gt;Node4</title>
<path fill="none" stroke="midnightblue" d="M221.059,-19.5187C231.623,-19.0692 243,-18.5851 254.073,-18.1139"/>
<polygon fill="midnightblue" stroke="midnightblue" points="254.283,-21.6082 264.125,-17.6862 253.985,-14.6146 254.283,-21.6082"/>
</g>
</g>
</svg>
