<?xml version="1.0" encoding="UTF-8" standalone="no"?>
<!DOCTYPE svg PUBLIC "-//W3C//DTD SVG 1.1//EN"
 "http://www.w3.org/Graphics/SVG/1.1/DTD/svg11.dtd">
<!-- Generated by graphviz version 2.38.0 (20140413.2041)
 -->
<!-- Title: MethodInfo Pages: 1 -->
<svg width="482pt" height="240pt"
 viewBox="0.00 0.00 481.50 240.00" xmlns="http://www.w3.org/2000/svg" xmlns:xlink="http://www.w3.org/1999/xlink">
<g id="graph0" class="graph" transform="scale(1 1) rotate(0) translate(4 236)">
<title>MethodInfo</title>
<polygon fill="white" stroke="none" points="-4,4 -4,-236 477.5,-236 477.5,4 -4,4"/>
<!-- Node1 -->
<g id="node1" class="node"><title>Node1</title>
<polygon fill="#bfbfbf" stroke="black" points="278,-0.5 278,-19.5 343,-19.5 343,-0.5 278,-0.5"/>
<text text-anchor="middle" x="310.5" y="-7.5" font-family="Helvetica,sans-Serif" font-size="10.00">MethodInfo</text>
</g>
<!-- Node2 -->
<g id="node2" class="node"><title>Node2</title>
<g id="a_node2"><a xlink:href="class_attribute_info.html" target="_top" xlink:title="classe contém name_index e length(uint32) &#45; todos uint16; Há também uma union que tem como principio ...">
<polygon fill="white" stroke="black" points="227.5,-67.5 227.5,-86.5 297.5,-86.5 297.5,-67.5 227.5,-67.5"/>
<text text-anchor="middle" x="262.5" y="-74.5" font-family="Helvetica,sans-Serif" font-size="10.00">AttributeInfo</text>
</a>
</g>
</g>
<!-- Node2&#45;&gt;Node1 -->
<g id="edge1" class="edge"><title>Node2&#45;&gt;Node1</title>
<path fill="none" stroke="#9a32cd" stroke-dasharray="5,2" d="M278.845,-60.2958C282.207,-56.7249 285.602,-52.8462 288.5,-49 295.656,-39.5018 302.26,-27.4687 306.327,-19.5172"/>
<polygon fill="#9a32cd" stroke="#9a32cd" points="276.277,-57.915 271.741,-67.4897 281.258,-62.8335 276.277,-57.915"/>
<text text-anchor="middle" x="318.5" y="-41" font-family="Helvetica,sans-Serif" font-size="10.00"> attributes</text>
</g>
<!-- Node10 -->
<g id="node10" class="node"><title>Node10</title>
<g id="a_node10"><a xlink:href="class_code_attribute.html" target="_top" xlink:title="classe Atributos que consiste em max_stacks, max_locals, code_length(uint32), ponteiro para code(uint...">
<polygon fill="white" stroke="black" points="157,-0.5 157,-19.5 234,-19.5 234,-0.5 157,-0.5"/>
<text text-anchor="middle" x="195.5" y="-7.5" font-family="Helvetica,sans-Serif" font-size="10.00">CodeAttribute</text>
</a>
</g>
</g>
<!-- Node2&#45;&gt;Node10 -->
<g id="edge10" class="edge"><title>Node2&#45;&gt;Node10</title>
<path fill="none" stroke="#9a32cd" stroke-dasharray="5,2" d="M217.763,-67.7193C207.861,-63.7199 198.531,-57.7905 192.5,-49 186.585,-40.3781 189.114,-27.9239 191.917,-19.6521"/>
<polygon fill="#9a32cd" stroke="#9a32cd" points="216.749,-71.0714 227.344,-70.9926 219.012,-64.4474 216.749,-71.0714"/>
<text text-anchor="middle" x="214.5" y="-41" font-family="Helvetica,sans-Serif" font-size="10.00"> attributes</text>
</g>
<!-- Node3 -->
<g id="node3" class="node"><title>Node3</title>
<g id="a_node3"><a xlink:href="class_inner_class.html" target="_top" xlink:title="classe contém class_length e ponteiro para inner_class_data &#45; todos uint16; Além disso contém metodos...">
<polygon fill="white" stroke="black" points="15.5,-134.5 15.5,-153.5 79.5,-153.5 79.5,-134.5 15.5,-134.5"/>
<text text-anchor="middle" x="47.5" y="-141.5" font-family="Helvetica,sans-Serif" font-size="10.00">InnerClass</text>
</a>
</g>
</g>
<!-- Node3&#45;&gt;Node2 -->
<g id="edge2" class="edge"><title>Node3&#45;&gt;Node2</title>
<path fill="none" stroke="#9a32cd" stroke-dasharray="5,2" d="M73.3858,-129.853C90.175,-121.757 112.716,-111.685 133.5,-105 164.648,-94.9813 201.25,-87.7306 227.493,-83.2817"/>
<polygon fill="#9a32cd" stroke="#9a32cd" points="71.6571,-126.802 64.222,-134.35 74.7412,-133.086 71.6571,-126.802"/>
<text text-anchor="middle" x="160" y="-108" font-family="Helvetica,sans-Serif" font-size="10.00"> inner_class</text>
</g>
<!-- Node4 -->
<g id="node4" class="node"><title>Node4</title>
<g id="a_node4"><a xlink:href="class_inner_class_data.html" target="_top" xlink:title="classe contém inner_class_info_index, outer_class_info_index, inner_name_index e inner_class_access_f...">
<polygon fill="white" stroke="black" points="0,-207 0,-226 85,-226 85,-207 0,-207"/>
<text text-anchor="middle" x="42.5" y="-214" font-family="Helvetica,sans-Serif" font-size="10.00">InnerClassData</text>
</a>
</g>
</g>
<!-- Node4&#45;&gt;Node3 -->
<g id="edge3" class="edge"><title>Node4&#45;&gt;Node3</title>
<path fill="none" stroke="#9a32cd" stroke-dasharray="5,2" d="M43.8221,-196.858C44.8124,-182.895 46.1222,-164.426 46.8819,-153.715"/>
<polygon fill="#9a32cd" stroke="#9a32cd" points="40.3294,-196.633 43.1131,-206.855 47.3119,-197.128 40.3294,-196.633"/>
<text text-anchor="middle" x="84" y="-175" font-family="Helvetica,sans-Serif" font-size="10.00"> inner_class_data</text>
</g>
<!-- Node5 -->
<g id="node5" class="node"><title>Node5</title>
<g id="a_node5"><a xlink:href="class_number_table_attribute.html" target="_top" xlink:title="classe contém length e ponteiro para line_number_table&#45; todos uint16; Além contém métodos como leitor...">
<polygon fill="white" stroke="black" points="100.5,-134.5 100.5,-153.5 212.5,-153.5 212.5,-134.5 100.5,-134.5"/>
<text text-anchor="middle" x="156.5" y="-141.5" font-family="Helvetica,sans-Serif" font-size="10.00">NumberTableAttribute</text>
</a>
</g>
</g>
<!-- Node5&#45;&gt;Node2 -->
<g id="edge4" class="edge"><title>Node5&#45;&gt;Node2</title>
<path fill="none" stroke="#9a32cd" stroke-dasharray="5,2" d="M174.035,-127.898C183.09,-120.497 194.518,-111.748 205.5,-105 216.975,-97.9488 230.582,-91.4404 241.623,-86.581"/>
<polygon fill="#9a32cd" stroke="#9a32cd" points="171.599,-125.372 166.173,-134.472 176.09,-130.742 171.599,-125.372"/>
<text text-anchor="middle" x="232" y="-108" font-family="Helvetica,sans-Serif" font-size="10.00"> lineNumber</text>
</g>
<!-- Node6 -->
<g id="node6" class="node"><title>Node6</title>
<g id="a_node6"><a xlink:href="class_number_table_attribute__line_number.html" target="_top" xlink:title="classe contém strat_pc e lineNumber &#45; todos uint16; ">
<polygon fill="white" stroke="black" points="103.5,-201.5 103.5,-231.5 215.5,-231.5 215.5,-201.5 103.5,-201.5"/>
<text text-anchor="start" x="111.5" y="-219.5" font-family="Helvetica,sans-Serif" font-size="10.00">NumberTableAttribute</text>
<text text-anchor="middle" x="159.5" y="-208.5" font-family="Helvetica,sans-Serif" font-size="10.00">_lineNumber</text>
</a>
</g>
</g>
<!-- Node6&#45;&gt;Node5 -->
<g id="edge5" class="edge"><title>Node6&#45;&gt;Node5</title>
<path fill="none" stroke="#9a32cd" stroke-dasharray="5,2" d="M158.461,-191.091C157.913,-178.214 157.274,-163.197 156.878,-153.893"/>
<polygon fill="#9a32cd" stroke="#9a32cd" points="154.971,-191.391 158.893,-201.233 161.964,-191.093 154.971,-191.391"/>
<text text-anchor="middle" x="199.5" y="-175" font-family="Helvetica,sans-Serif" font-size="10.00"> line_number_table</text>
</g>
<!-- Node7 -->
<g id="node7" class="node"><title>Node7</title>
<g id="a_node7"><a xlink:href="class_source_file.html" target="_top" xlink:title="classe contém sourceFileIndex &#45; todos uint16; Além contém métodos como leitor e print; ...">
<polygon fill="white" stroke="black" points="231,-134.5 231,-153.5 294,-153.5 294,-134.5 231,-134.5"/>
<text text-anchor="middle" x="262.5" y="-141.5" font-family="Helvetica,sans-Serif" font-size="10.00">SourceFile</text>
</a>
</g>
</g>
<!-- Node7&#45;&gt;Node2 -->
<g id="edge6" class="edge"><title>Node7&#45;&gt;Node2</title>
<path fill="none" stroke="#9a32cd" stroke-dasharray="5,2" d="M262.5,-124.037C262.5,-111.67 262.5,-96.1198 262.5,-86.6273"/>
<polygon fill="#9a32cd" stroke="#9a32cd" points="259,-124.234 262.5,-134.234 266,-124.234 259,-124.234"/>
<text text-anchor="middle" x="287" y="-108" font-family="Helvetica,sans-Serif" font-size="10.00"> sourceFile</text>
</g>
<!-- Node8 -->
<g id="node8" class="node"><title>Node8</title>
<g id="a_node8"><a xlink:href="class_constant_value.html" target="_top" xlink:title="classe contém Além contém métodos como destrutor, leitor e print ">
<polygon fill="white" stroke="black" points="312,-134.5 312,-153.5 393,-153.5 393,-134.5 312,-134.5"/>
<text text-anchor="middle" x="352.5" y="-141.5" font-family="Helvetica,sans-Serif" font-size="10.00">ConstantValue</text>
</a>
</g>
</g>
<!-- Node8&#45;&gt;Node2 -->
<g id="edge7" class="edge"><title>Node8&#45;&gt;Node2</title>
<path fill="none" stroke="#9a32cd" stroke-dasharray="5,2" d="M338.702,-126.559C332.149,-119.38 323.919,-111.202 315.5,-105 305.523,-97.6499 293.254,-91.2579 283.034,-86.5408"/>
<polygon fill="#9a32cd" stroke="#9a32cd" points="336.31,-129.14 345.534,-134.351 341.573,-124.525 336.31,-129.14"/>
<text text-anchor="middle" x="363.5" y="-108" font-family="Helvetica,sans-Serif" font-size="10.00"> constant_value</text>
</g>
<!-- Node9 -->
<g id="node9" class="node"><title>Node9</title>
<g id="a_node9"><a xlink:href="class_exception.html" target="_top" xlink:title="classe contém number_exceptions e exception_index_table &#45; todos uint16; Além contém métodos como dest...">
<polygon fill="white" stroke="black" points="413.5,-134.5 413.5,-153.5 473.5,-153.5 473.5,-134.5 413.5,-134.5"/>
<text text-anchor="middle" x="443.5" y="-141.5" font-family="Helvetica,sans-Serif" font-size="10.00">Exception</text>
</a>
</g>
</g>
<!-- Node9&#45;&gt;Node2 -->
<g id="edge8" class="edge"><title>Node9&#45;&gt;Node2</title>
<path fill="none" stroke="#9a32cd" stroke-dasharray="5,2" d="M429.687,-126.478C422.381,-118.793 412.799,-110.219 402.5,-105 369.379,-88.218 327.006,-81.8327 297.595,-79.4221"/>
<polygon fill="#9a32cd" stroke="#9a32cd" points="427.375,-129.143 436.649,-134.267 432.594,-124.478 427.375,-129.143"/>
<text text-anchor="middle" x="441.5" y="-108" font-family="Helvetica,sans-Serif" font-size="10.00"> exception</text>
</g>
<!-- Node10&#45;&gt;Node2 -->
<g id="edge9" class="edge"><title>Node10&#45;&gt;Node2</title>
<path fill="none" stroke="#9a32cd" stroke-dasharray="5,2" d="M223.297,-24.672C229.399,-28.4583 235.518,-32.9399 240.5,-38 248.95,-46.583 255.35,-59.0463 259.011,-67.3308"/>
<polygon fill="#9a32cd" stroke="#9a32cd" points="224.919,-21.5681 214.502,-19.6357 221.441,-27.6425 224.919,-21.5681"/>
<text text-anchor="middle" x="262" y="-41" font-family="Helvetica,sans-Serif" font-size="10.00"> code</text>
</g>
<!-- Node11 -->
<g id="node11" class="node"><title>Node11</title>
<g id="a_node11"><a xlink:href="class_code_exception.html" target="_top" xlink:title="classe contém start_pc, end_pc, handler_pc e catch_type &#45; todos uint16; ">
<polygon fill="white" stroke="black" points="33,-67.5 33,-86.5 116,-86.5 116,-67.5 33,-67.5"/>
<text text-anchor="middle" x="74.5" y="-74.5" font-family="Helvetica,sans-Serif" font-size="10.00">CodeException</text>
</a>
</g>
</g>
<!-- Node11&#45;&gt;Node10 -->
<g id="edge11" class="edge"><title>Node11&#45;&gt;Node10</title>
<path fill="none" stroke="#9a32cd" stroke-dasharray="5,2" d="M77.0373,-57.3613C78.8745,-50.4184 82.0413,-43.0151 87.5,-38 106.215,-20.8053 134.2,-14.1513 156.994,-11.746"/>
<polygon fill="#9a32cd" stroke="#9a32cd" points="73.5423,-57.0046 75.1066,-67.4833 80.4183,-58.3162 73.5423,-57.0046"/>
<text text-anchor="middle" x="136.5" y="-41" font-family="Helvetica,sans-Serif" font-size="10.00"> code_exception_table</text>
</g>
</g>
</svg>
