<?xml version="1.0" encoding="UTF-8" standalone="no"?>
<!DOCTYPE svg PUBLIC "-//W3C//DTD SVG 1.1//EN"
 "http://www.w3.org/Graphics/SVG/1.1/DTD/svg11.dtd">
<!-- Generated by graphviz version 2.38.0 (20140413.2041)
 -->
<!-- Title: Operand Pages: 1 -->
<svg width="169pt" height="162pt"
 viewBox="0.00 0.00 168.50 162.00" xmlns="http://www.w3.org/2000/svg" xmlns:xlink="http://www.w3.org/1999/xlink">
<g id="graph0" class="graph" transform="scale(1 1) rotate(0) translate(4 158)">
<title>Operand</title>
<polygon fill="white" stroke="none" points="-4,4 -4,-158 164.5,-158 164.5,4 -4,4"/>
<!-- Node1 -->
<g id="node1" class="node"><title>Node1</title>
<polygon fill="#bfbfbf" stroke="black" points="55,-0.5 55,-19.5 108,-19.5 108,-0.5 55,-0.5"/>
<text text-anchor="middle" x="81.5" y="-7.5" font-family="Helvetica,sans-Serif" font-size="10.00">Operand</text>
</g>
<!-- Node2 -->
<g id="node2" class="node"><title>Node2</title>
<g id="a_node2"><a xlink:href="struct_instance.html" target="_top" xlink:title="tipo que determinará o nome e o tipo de operando através do Operand class; Álém contém o método Insta...">
<polygon fill="white" stroke="black" points="8.5,-67.5 8.5,-86.5 62.5,-86.5 62.5,-67.5 8.5,-67.5"/>
<text text-anchor="middle" x="35.5" y="-74.5" font-family="Helvetica,sans-Serif" font-size="10.00">Instance</text>
</a>
</g>
</g>
<!-- Node2&#45;&gt;Node1 -->
<g id="edge1" class="edge"><title>Node2&#45;&gt;Node1</title>
<path fill="none" stroke="#9a32cd" stroke-dasharray="5,2" d="M32.455,-57.2024C32.2939,-50.7359 33.1752,-43.6961 36.5,-38 41.2765,-29.8167 49.5989,-23.8263 57.7978,-19.5976"/>
<polygon fill="#9a32cd" stroke="#9a32cd" points="28.9779,-57.6064 33.4628,-67.2051 35.9426,-56.9046 28.9779,-57.6064"/>
<text text-anchor="middle" x="71" y="-41" font-family="Helvetica,sans-Serif" font-size="10.00"> class_instance</text>
</g>
<!-- Node3 -->
<g id="node3" class="node"><title>Node3</title>
<g id="a_node3"><a xlink:href="class_class_loader.html" target="_top" xlink:title="Todo funcionamento do classLoader em relação ao local de armazenamento enquanto é feito a leitura...">
<polygon fill="white" stroke="black" points="0,-134.5 0,-153.5 71,-153.5 71,-134.5 0,-134.5"/>
<text text-anchor="middle" x="35.5" y="-141.5" font-family="Helvetica,sans-Serif" font-size="10.00">ClassLoader</text>
</a>
</g>
</g>
<!-- Node3&#45;&gt;Node2 -->
<g id="edge2" class="edge"><title>Node3&#45;&gt;Node2</title>
<path fill="none" stroke="#9a32cd" stroke-dasharray="5,2" d="M35.5,-124.037C35.5,-111.67 35.5,-96.1198 35.5,-86.6273"/>
<polygon fill="#9a32cd" stroke="#9a32cd" points="32.0001,-124.234 35.5,-134.234 39.0001,-124.234 32.0001,-124.234"/>
<text text-anchor="middle" x="51.5" y="-108" font-family="Helvetica,sans-Serif" font-size="10.00"> classe</text>
</g>
<!-- Node4 -->
<g id="node4" class="node"><title>Node4</title>
<g id="a_node4"><a xlink:href="struct_array_type.html" target="_top" xlink:title="tem como base um tipo de vetor de um tipo de struct Operand; ">
<polygon fill="white" stroke="black" points="96.5,-67.5 96.5,-86.5 158.5,-86.5 158.5,-67.5 96.5,-67.5"/>
<text text-anchor="middle" x="127.5" y="-74.5" font-family="Helvetica,sans-Serif" font-size="10.00">ArrayType</text>
</a>
</g>
</g>
<!-- Node4&#45;&gt;Node1 -->
<g id="edge3" class="edge"><title>Node4&#45;&gt;Node1</title>
<path fill="none" stroke="#9a32cd" stroke-dasharray="5,2" d="M118.296,-58.4137C114.599,-51.826 110.12,-44.3932 105.5,-38 100.798,-31.4932 94.7983,-24.7432 89.9737,-19.6199"/>
<polygon fill="#9a32cd" stroke="#9a32cd" points="115.238,-60.1167 123.08,-67.2412 121.393,-56.7816 115.238,-60.1167"/>
<text text-anchor="middle" x="136" y="-41" font-family="Helvetica,sans-Serif" font-size="10.00"> array_type</text>
</g>
</g>
</svg>
